# Aspose.3D Wavefront OBJ Exporter
# Copyright 2004-2023 Aspose Pty Ltd.
# File created: 06/30/2023 20:40:01


#
# object obj_43890810
#

v 79.4361572265625 17.6776676177978516 64.25
v 79.4361572265625 17.6776676177978516 95.25
v 82.41854095458984376 20.22618675231933592 95.25
v 82.41854095458984376 20.22618675231933592 64.25
v 85.76288604736328128 22.27678108215332032 95.25
v 85.76288604736328128 22.27678108215332032 64.25
v 89.3868408203125 23.77895927429199216 95.25
v 89.3868408203125 23.77895927429199216 64.25
v 93.20116424560546876 24.69573211669921872 95.25
v 93.20116424560546876 24.69573211669921872 64.25
v 97.11194610595703124 25.00452613830566406 95.25
v 97.11194610595703124 25.00452613830566406 64.25
v 101.02288818359375 24.69773483276367184 95.25
v 101.02288818359375 24.69773483276367184 64.25
v 104.83768463134765632 23.78291702270507808 95.25
v 104.83768463134765632 23.78291702270507808 64.25
v 108.46240997314453128 22.2825946807861328 95.25
v 108.46240997314453128 22.2825946807861328 64.25
v 111.80780029296875008 20.23371315002441408 95.25
v 111.80780029296875008 20.23371315002441408 64.25
v 114.7914962768554688 17.68672180175781248 95.25
v 114.7914962768554688 17.68672180175781248 64.25
v 117.34001159667968752 14.70433616638183592 95.25
v 117.34001159667968752 14.70433616638183592 64.25
v 119.39060974121093752 11.35999298095703124 95.25
v 119.39060974121093752 11.35999298095703124 64.25
v 120.89278411865234368 7.73603963851928704 95.25
v 120.89278411865234368 7.73603963851928704 64.25
v 121.80955505371093744 3.92171120643615728 95.25
v 121.80955505371093744 3.92171120643615728 64.25
v 122.11835479736328124 0.01092852186411619 95.25
v 122.11835479736328124 0.01092852186411619 64.25
v 121.81156158447265632 -3.90001177787780768 95.25
v 121.81156158447265632 -3.90001177787780768 64.25
v 120.89674377441406256 -7.71480941772460936 95.25
v 120.89674377441406256 -7.71480941772460936 64.25
v 119.39642333984375 -11.33953189849853516 95.25
v 119.39642333984375 -11.33953189849853516 64.25
v 117.34754180908203124 -14.68492507934570312 95.25
v 117.34754180908203124 -14.68492507934570312 64.25
v 114.8005447387695312 -17.66861534118652344 95.25
v 114.8005447387695312 -17.66861534118652344 64.25
v 111.81816101074218752 -20.2171344757080078 95.25
v 111.81816101074218752 -20.2171344757080078 64.25
v 108.47381591796875 -22.2677288055419922 95.25
v 108.47381591796875 -22.2677288055419922 64.25
v 104.84986877441406256 -23.769906997680664 95.25
v 104.84986877441406256 -23.769906997680664 64.25
v 101.0355377197265625 -24.68667984008789064 95.25
v 101.0355377197265625 -24.68667984008789064 64.25
v 97.124755859375 -24.995473861694336 95.25
v 97.124755859375 -24.995473861694336 64.25
v 93.21381378173828124 -24.68868255615234376 95.25
v 93.21381378173828124 -24.68868255615234376 64.25
v 89.39901733398437504 -23.77386474609375008 95.25
v 89.39901733398437504 -23.77386474609375008 64.25
v 85.7742919921875 -22.27354240417480468 95.25
v 85.7742919921875 -22.27354240417480468 64.25
v 82.42890167236328128 -20.22466087341308592 95.25
v 82.42890167236328128 -20.22466087341308592 64.25
v 79.44521331787109376 -17.6776695251464844 95.25
v 79.44521331787109376 -17.6776695251464844 64.25
v 76.89669036865234368 -14.69528484344482424 95.25
v 76.89669036865234368 -14.69528484344482424 64.25
v 74.84609985351562496 -11.35094070434570312 95.25
v 74.84609985351562496 -11.35094070434570312 64.25
v 73.34391784667968752 -7.72698783874511712 95.25
v 73.34391784667968752 -7.72698783874511712 64.25
v 72.42714691162109376 -3.91265916824340816 95.25
v 72.42714691162109376 -3.91265916824340816 64.25
v 72.11835479736328124 -0.00187639577779918 95.25
v 72.11835479736328124 -0.00187639577779918 64.25
v 72.42514038085937504 3.90906381607055664 95.25
v 72.42514038085937504 3.90906381607055664 64.25
v 73.33995819091796876 7.72386169433593744 95.25
v 73.33995819091796876 7.72386169433593744 64.25
v 74.84028625488281248 11.34858322143554688 95.25
v 74.84028625488281248 11.34858322143554688 64.25
v 76.8891677856445312 14.69397735595703128 95.25
v 76.8891677856445312 14.69397735595703128 64.25
v 87.27254486083984376 8.32543182373046876 95.25
v 87.163177490234375 8.66173076629638672 95.25
v 87.16761016845703124 -8.6577768325805664 95.25
v 88.1029815673828125 7.72240543365478512 95.25
v 87.76663208007812496 7.83159875869750976 95.25
v 105.43925476074218752 9.8503341674804688 95.25
v 105.77555847167968752 9.95969963073730464 95.25
v 105.1532135009765625 9.6423988342285156 95.25
v 87.1630859375 9.0153665542602539 95.25
v 87.48047637939453128 8.03938770294189453 95.25
v 87.16770172119140624 -9.01141262054443359 95.25
v 106.1291961669921875 9.95979022979736336 95.25
v 106.46554565429687504 9.85059642791748048 95.25
v 88.45604705810546872 9.9552640914916992 95.25
v 104.83622741699218752 9.01989269256591797 95.25
v 104.9454269409179688 9.35624790191650392 95.25
v 88.45661926269531248 7.72249603271484368 95.25
v 89.39594268798828128 8.66230297088623048 95.25
v 105.15362548828125 8.04391384124755859 95.25
v 104.9456863403320312 8.3299570083618164 95.25
v 106.95963287353515632 9.35676383972167968 95.25
v 106.7517013549804688 9.64280796051025392 95.25
v 88.1024169921875 9.95517349243164064 95.25
v 87.27227783203125 9.35172271728515624 95.25
v 87.277069091796875 -9.34771251678466796 95.25
v 105.43977355957031248 7.83612489700317376 95.25
v 87.76611328125 9.84580802917480464 95.25
v 87.48007202148437504 9.6378726959228516 95.25
v 105.7761306762695312 7.72693157196044928 95.25
v 89.28675079345703124 8.32594680786132812 95.25
v 106.95989990234375008 8.3304729461669922 95.25
v 89.39585876464843752 9.01593875885009765 95.25
v 106.1297607421875 7.72702217102050784 95.25
v 105.78008270263671872 -7.7134437561035156 95.25
v 106.75210571289062496 8.04432296752929687 95.25
v 107.069091796875 8.66682910919189456 95.25
v 104.83631896972656256 8.6662569046020508 95.25
v 88.79292297363281248 7.83186149597167968 95.25
v 89.28649139404296876 9.35223770141601564 95.25
v 107.07361602783203125 -9.00631427764892578 95.25
v 106.96442413330078128 -9.34267044067382812 95.25
v 107.07352447509765625 -8.65267848968505856 95.25
v 106.13372039794921876 -7.71335315704345704 95.25
v 107.069000244140625 9.02046489715576172 95.25
v 104.95021057128906256 -9.34318637847900392 95.25
v 104.84085083007812496 -9.00688648223876953 95.25
v 89.0789642333984375 8.03979682922363281 95.25
v 105.15814971923828124 -9.62923049926757816 95.25
v 89.07855224609375 9.63828182220458984 95.25
v 88.79240417480468752 9.8460712432861328 95.25
v 106.47007751464843752 -7.8225464820861816 95.25
v 106.466064453125 7.83638763427734368 95.25
v 104.84075927734375008 -8.65325069427490232 95.25
v 87.48500823974609376 -9.63375568389892576 95.25
v 87.77115631103515632 -9.8415451049804688 95.25
v 88.79744720458984368 -9.84128189086914064 95.25
v 88.46114349365234376 -9.95064735412597664 95.25
v 106.96415710449218752 -8.31637954711914064 95.25
v 106.7562255859375 -8.0303354263305664 95.25
v 89.29128265380859376 -9.3471965789794922 95.25
v 105.44429779052734376 -9.83701896667480464 95.25
v 89.40047454833984376 -9.01084041595458984 95.25
v 88.4605712890625 -7.71787929534912112 95.25
v 88.107513427734375 -9.9507379531860352 95.25
v 89.08348846435546875 -9.63334655761718752 95.25
v 105.15773773193359376 -8.03074455261230469 95.25
v 105.44378662109375 -7.82280921936035152 95.25
v 89.40038299560546872 -8.65720462799072264 95.25
v 106.1342926025390625 -9.94612121582031248 95.25
v 105.78065490722656256 -9.94621181488037104 95.25
v 89.0830841064453125 -8.03486156463623047 95.25
v 88.10694122314453124 -7.71796989440917968 95.25
v 87.48459625244140624 -8.03527069091796875 95.25
v 87.7706375122070312 -7.82733535766601568 95.25
v 106.75663757324218752 -9.62882041931152344 95.25
v 104.949951171875 -8.3168954849243164 95.25
v 89.291015625 -8.32090568542480468 95.25
v 87.27680969238281248 -8.32142162322998048 95.25
v 106.47058868408203128 -9.83675575256347664 95.25
v 88.79692840576171872 -7.82707262039184576 95.25
v 88.10694122314453124 -7.71796989440917968 64.25
v 88.1029815673828125 7.72240543365478512 64.25
v 88.45661926269531248 7.72249603271484368 64.25
v 106.1297607421875 7.72702217102050784 64.25
v 106.13372039794921876 -7.71335315704345704 64.25
v 105.78008270263671872 -7.7134437561035156 64.25
v 87.163177490234375 8.66173076629638672 64.25
v 87.7706375122070312 -7.82733535766601568 64.25
v 87.76663208007812496 7.83159875869750976 64.25
v 106.47007751464843752 -7.8225464820861816 64.25
v 104.83631896972656256 8.6662569046020508 64.25
v 89.39594268798828128 8.66230297088623048 64.25
v 89.39585876464843752 9.01593875885009765 64.25
v 87.48459625244140624 -8.03527069091796875 64.25
v 87.1630859375 9.0153665542602539 64.25
v 88.79692840576171872 -7.82707262039184576 64.25
v 88.4605712890625 -7.71787929534912112 64.25
v 106.95989990234375008 8.3304729461669922 64.25
v 107.069091796875 8.66682910919189456 64.25
v 106.75210571289062496 8.04432296752929687 64.25
v 105.7761306762695312 7.72693157196044928 64.25
v 106.96415710449218752 -8.31637954711914064 64.25
v 107.07352447509765625 -8.65267848968505856 64.25
v 106.96442413330078128 -9.34267044067382812 64.25
v 89.28675079345703124 8.32594680786132812 64.25
v 87.27227783203125 9.35172271728515624 64.25
v 87.48047637939453128 8.03938770294189453 64.25
v 87.27254486083984376 8.32543182373046876 64.25
v 106.466064453125 7.83638763427734368 64.25
v 106.7562255859375 -8.0303354263305664 64.25
v 107.07361602783203125 -9.00631427764892578 64.25
v 104.83622741699218752 9.01989269256591797 64.25
v 88.79292297363281248 7.83186149597167968 64.25
v 104.84085083007812496 -9.00688648223876953 64.25
v 104.95021057128906256 -9.34318637847900392 64.25
v 89.40038299560546872 -8.65720462799072264 64.25
v 89.291015625 -8.32090568542480468 64.25
v 88.79744720458984368 -9.84128189086914064 64.25
v 105.1532135009765625 9.6423988342285156 64.25
v 105.43925476074218752 9.8503341674804688 64.25
v 89.28649139404296876 9.35223770141601564 64.25
v 88.45604705810546872 9.9552640914916992 64.25
v 104.9454269409179688 9.35624790191650392 64.25
v 105.78065490722656256 -9.94621181488037104 64.25
v 106.1342926025390625 -9.94612121582031248 64.25
v 89.08348846435546875 -9.63334655761718752 64.25
v 88.46114349365234376 -9.95064735412597664 64.25
v 87.27680969238281248 -8.32142162322998048 64.25
v 87.16761016845703124 -8.6577768325805664 64.25
v 105.77555847167968752 9.95969963073730464 64.25
v 106.46554565429687504 9.85059642791748048 64.25
v 106.95963287353515632 9.35676383972167968 64.25
v 106.7517013549804688 9.64280796051025392 64.25
v 107.069000244140625 9.02046489715576172 64.25
v 106.75663757324218752 -9.62882041931152344 64.25
v 106.47058868408203128 -9.83675575256347664 64.25
v 89.07855224609375 9.63828182220458984 64.25
v 88.79240417480468752 9.8460712432861328 64.25
v 104.9456863403320312 8.3299570083618164 64.25
v 105.44429779052734376 -9.83701896667480464 64.25
v 104.84075927734375008 -8.65325069427490232 64.25
v 89.0830841064453125 -8.03486156463623047 64.25
v 89.29128265380859376 -9.3471965789794922 64.25
v 89.40047454833984376 -9.01084041595458984 64.25
v 88.107513427734375 -9.9507379531860352 64.25
v 87.48500823974609376 -9.63375568389892576 64.25
v 87.277069091796875 -9.34771251678466796 64.25
v 87.16770172119140624 -9.01141262054443359 64.25
v 106.1291961669921875 9.95979022979736336 64.25
v 105.15362548828125 8.04391384124755859 64.25
v 87.76611328125 9.84580802917480464 64.25
v 87.48007202148437504 9.6378726959228516 64.25
v 88.1024169921875 9.95517349243164064 64.25
v 105.15814971923828124 -9.62923049926757816 64.25
v 104.949951171875 -8.3168954849243164 64.25
v 87.77115631103515632 -9.8415451049804688 64.25
v 105.44378662109375 -7.82280921936035152 64.25
v 105.15773773193359376 -8.03074455261230469 64.25
v 89.0789642333984375 8.03979682922363281 64.25
v 105.43977355957031248 7.83612489700317376 64.25
# 240 vertices

vn -0.6496427655220032 0.76023960113525392 0
vn -0.52271687984466552 0.85250633955001824 0
vn -0.3829200267791748 0.9237815141677856 0
vn -0.2336943745613098 0.97231012582778928 0
vn -0.07871440052986145 0.99689722061157232 0
vn 0.07820378243923187 0.99693739414215088 0
vn 0.23319633305072784 0.9724296927452088 0
vn 0.38244682550430296 0.9239774942398072 0
vn 0.52228021621704104 0.85277396440505984 0
vn 0.6492533087730408 0.76057225465774544 0
vn 0.76023960113525392 0.6496427655220032 0
vn 0.85250633955001824 0.52271687984466552 0
vn 0.9237815141677856 0.3829200267791748 0
vn 0.97231012582778928 0.2336943745613098 0
vn 0.99689722061157232 0.07871440052986145 0
vn 0.99693739414215088 -0.07820378243923187 0
vn 0.9724296927452088 -0.23319633305072784 0
vn 0.9239774942398072 -0.38244682550430296 0
vn 0.85277396440505984 -0.52228021621704104 0
vn 0.76057225465774544 -0.6492533087730408 0
vn 0.6496427655220032 -0.76023960113525392 0
vn 0.52271687984466552 -0.85250633955001824 0
vn 0.3829200267791748 -0.9237815141677856 0
vn 0.2336943745613098 -0.97231012582778928 0
vn 0.07871440052986145 -0.99689722061157232 0
vn -0.07820378243923187 -0.99693739414215088 0
vn -0.23319633305072784 -0.9724296927452088 0
vn -0.38244682550430296 -0.9239774942398072 0
vn -0.52228021621704104 -0.85277396440505984 0
vn -0.6492533087730408 -0.76057225465774544 0
vn -0.76023960113525392 -0.6496427655220032 0
vn -0.85250633955001824 -0.52271687984466552 0
vn -0.9237815141677856 -0.3829200267791748 0
vn -0.97231012582778928 -0.2336943745613098 0
vn -0.99689722061157232 -0.07871440052986145 0
vn -0.99693739414215088 0.07820378243923187 0
vn -0.9724296927452088 0.23319633305072784 0
vn -0.9239774942398072 0.38244682550430296 0
vn -0.85277396440505984 0.52228021621704104 0
vn -0.76057225465774544 0.6492533087730408 0
vn 0 0 1
vn 0 0 -1
vn 0.80916750431060784 -0.58757805824279784 0
vn 0.95113563537597664 -0.3087734282016754 0
vn 0.9999999403953552 0.00025609834119677544 0
vn 0.95097732543945312 0.30926054716110228 0
vn 0.80886644124984736 0.5879924297332764 0
vn 0.58757805824279784 0.80916750431060784 0
vn 0.3087734282016754 0.95113563537597664 0
vn -0.00025609834119677544 0.9999999403953552 0
vn -0.30926054716110228 0.95097732543945312 0
vn -0.5879924297332764 0.80886644124984736 0
vn -0.80916750431060784 0.58757805824279784 0
vn -0.95113563537597664 0.3087734282016754 0
vn -0.9999999403953552 -0.00025609834119677544 0
vn -0.95097732543945312 -0.30926054716110228 0
vn -0.80886644124984736 -0.5879924297332764 0
vn -0.58757805824279784 -0.80916750431060784 0
vn -0.3087734282016754 -0.95113563537597664 0
vn 0.00025609834119677544 -0.9999999403953552 0
vn 0.30926054716110228 -0.95097732543945312 0
vn 0.5879924297332764 -0.80886644124984736 0
# 62 vertex normals

g obj_43890810
s 1
f 1//1 2//1 3//1
f 4//2 3//2 5//2
f 6//3 5//3 7//3
f 8//4 7//4 9//4
f 10//5 9//5 11//5
f 12//6 11//6 13//6
f 14//7 13//7 15//7
f 16//8 15//8 17//8
f 18//9 17//9 19//9
f 20//10 19//10 21//10
f 22//11 21//11 23//11
f 24//12 23//12 25//12
f 26//13 25//13 27//13
f 28//14 27//14 29//14
f 30//15 29//15 31//15
f 32//16 31//16 33//16
f 34//17 33//17 35//17
f 36//18 35//18 37//18
f 38//19 37//19 39//19
f 40//20 39//20 41//20
f 42//21 41//21 43//21
f 44//22 43//22 45//22
f 46//23 45//23 47//23
f 48//24 47//24 49//24
f 50//25 49//25 51//25
f 52//26 51//26 53//26
f 54//27 53//27 55//27
f 56//28 55//28 57//28
f 58//29 57//29 59//29
f 60//30 59//30 61//30
f 62//31 61//31 63//31
f 64//32 63//32 65//32
f 66//33 65//33 67//33
f 68//34 67//34 69//34
f 70//35 69//35 71//35
f 72//36 71//36 73//36
f 74//37 73//37 75//37
f 76//38 75//38 77//38
f 78//39 77//39 79//39
f 80//40 79//40 2//40
f 2//40 1//40 80//40
f 79//39 80//39 78//39
f 77//38 78//38 76//38
f 75//37 76//37 74//37
f 73//36 74//36 72//36
f 71//35 72//35 70//35
f 69//34 70//34 68//34
f 67//33 68//33 66//33
f 65//32 66//32 64//32
f 63//31 64//31 62//31
f 61//30 62//30 60//30
f 59//29 60//29 58//29
f 57//28 58//28 56//28
f 55//27 56//27 54//27
f 53//26 54//26 52//26
f 51//25 52//25 50//25
f 49//24 50//24 48//24
f 47//23 48//23 46//23
f 45//22 46//22 44//22
f 43//21 44//21 42//21
f 41//20 42//20 40//20
f 39//19 40//19 38//19
f 37//18 38//18 36//18
f 35//17 36//17 34//17
f 33//16 34//16 32//16
f 31//15 32//15 30//15
f 29//14 30//14 28//14
f 27//13 28//13 26//13
f 25//12 26//12 24//12
f 23//11 24//11 22//11
f 21//10 22//10 20//10
f 19//9 20//9 18//9
f 17//8 18//8 16//8
f 15//7 16//7 14//7
f 13//6 14//6 12//6
f 11//5 12//5 10//5
f 9//4 10//4 8//4
f 7//3 8//3 6//3
f 5//2 6//2 4//2
f 3//1 4//1 1//1
f 81//41 82//41 75//41
f 83//41 84//41 85//41
f 86//41 87//41 15//41
f 88//41 86//41 11//41
f 82//41 89//41 77//41
f 75//41 73//41 81//41
f 90//41 81//41 71//41
f 65//41 91//41 83//41
f 17//41 92//41 93//41
f 87//41 92//41 17//41
f 15//41 13//41 86//41
f 11//41 9//41 88//41
f 94//41 95//41 96//41
f 73//41 71//41 81//41
f 71//41 69//41 90//41
f 85//41 90//41 67//41
f 83//41 97//41 84//41
f 98//41 99//41 100//41
f 25//41 23//41 101//41
f 23//41 21//41 102//41
f 17//41 15//41 87//41
f 9//41 7//41 88//41
f 96//41 88//41 7//41
f 5//41 103//41 94//41
f 77//41 89//41 104//41
f 69//41 67//41 90//41
f 85//41 65//41 83//41
f 65//41 63//41 105//41
f 98//41 106//41 99//41
f 102//41 101//41 23//41
f 19//41 93//41 102//41
f 13//41 11//41 86//41
f 96//41 5//41 94//41
f 5//41 3//41 107//41
f 3//41 2//41 108//41
f 77//41 75//41 82//41
f 105//41 91//41 65//41
f 109//41 98//41 110//41
f 98//41 109//41 106//41
f 111//41 29//41 27//41
f 102//41 21//41 19//41
f 7//41 5//41 96//41
f 108//41 107//41 3//41
f 79//41 104//41 108//41
f 67//41 65//41 85//41
f 100//41 112//41 98//41
f 113//41 109//41 114//41
f 115//41 33//41 31//41
f 111//41 31//41 29//41
f 116//41 27//41 25//41
f 93//41 19//41 17//41
f 94//41 100//41 117//41
f 108//41 2//41 79//41
f 83//41 118//41 97//41
f 100//41 119//41 112//41
f 37//41 120//41 121//41
f 122//41 120//41 37//41
f 114//41 123//41 113//41
f 115//41 35//41 33//41
f 25//41 124//41 116//41
f 117//41 95//41 94//41
f 104//41 79//41 77//41
f 110//41 125//41 126//41
f 127//41 128//41 125//41
f 100//41 129//41 119//41
f 100//41 94//41 130//41
f 37//41 35//41 122//41
f 131//41 132//41 113//41
f 27//41 116//41 111//41
f 107//41 103//41 5//41
f 125//41 110//41 127//41
f 126//41 133//41 110//41
f 130//41 129//41 100//41
f 63//41 61//41 134//41
f 59//41 135//41 134//41
f 136//41 137//41 55//41
f 35//41 138//41 122//41
f 115//41 131//41 139//41
f 131//41 115//41 132//41
f 140//41 45//41 141//41
f 142//41 141//41 128//41
f 143//41 127//41 118//41
f 101//41 124//41 25//41
f 110//41 133//41 109//41
f 134//41 61//41 59//41
f 57//41 144//41 135//41
f 137//41 144//41 57//41
f 55//41 53//41 136//41
f 145//41 136//41 51//41
f 35//41 139//41 138//41
f 123//41 131//41 113//41
f 109//41 146//41 147//41
f 128//41 148//41 142//41
f 45//41 149//41 150//41
f 128//41 127//41 151//41
f 118//41 152//41 143//41
f 118//41 153//41 154//41
f 135//41 59//41 57//41
f 53//41 51//41 136//41
f 51//41 49//41 145//41
f 39//41 121//41 155//41
f 139//41 35//41 115//41
f 109//41 156//41 146//41
f 140//41 145//41 47//41
f 150//41 141//41 45//41
f 151//41 157//41 128//41
f 154//41 152//41 118//41
f 118//41 83//41 158//41
f 134//41 105//41 63//41
f 49//41 47//41 145//41
f 121//41 39//41 37//41
f 109//41 133//41 156//41
f 141//41 142//41 140//41
f 45//41 43//41 159//41
f 127//41 160//41 151//41
f 158//41 153//41 118//41
f 57//41 55//41 137//41
f 147//41 114//41 109//41
f 159//41 149//41 45//41
f 143//41 160//41 127//41
f 155//41 41//41 39//41
f 157//41 148//41 128//41
f 47//41 45//41 140//41
f 43//41 41//41 155//41
f 155//41 159//41 43//41
f 31//41 111//41 115//41
f 161//42 162//42 163//42
f 164//42 165//42 166//42
f 167//42 161//42 168//42
f 161//42 169//42 162//42
f 164//42 170//42 165//42
f 171//42 172//42 173//42
f 168//42 174//42 76//42
f 78//42 175//42 167//42
f 163//42 176//42 177//42
f 26//42 178//42 179//42
f 26//42 170//42 180//42
f 166//42 181//42 164//42
f 182//42 34//42 36//42
f 183//42 36//42 38//42
f 38//42 40//42 184//42
f 171//42 185//42 172//42
f 168//42 78//42 167//42
f 78//42 80//42 186//42
f 161//42 187//42 169//42
f 161//42 167//42 188//42
f 180//42 178//42 26//42
f 164//42 189//42 170//42
f 190//42 30//42 32//42
f 182//42 32//42 34//42
f 184//42 191//42 38//42
f 173//42 192//42 171//42
f 193//42 194//42 195//42
f 186//42 175//42 78//42
f 188//42 187//42 161//42
f 48//42 196//42 197//42
f 198//42 54//42 56//42
f 199//42 10//42 12//42
f 200//42 14//42 16//42
f 189//42 180//42 170//42
f 170//42 26//42 28//42
f 190//42 28//42 30//42
f 38//42 191//42 183//42
f 173//42 201//42 192//42
f 202//42 6//42 203//42
f 204//42 205//42 46//42
f 195//42 48//42 193//42
f 163//42 177//42 161//42
f 197//42 193//42 48//42
f 206//42 50//42 52//42
f 198//42 52//42 54//42
f 207//42 56//42 58//42
f 208//42 209//42 68//42
f 174//42 208//42 72//42
f 199//42 8//42 10//42
f 200//42 12//42 14//42
f 210//42 16//42 18//42
f 18//42 20//42 211//42
f 24//42 212//42 213//42
f 26//42 214//42 212//42
f 28//42 190//42 170//42
f 36//42 183//42 182//42
f 40//42 42//42 215//42
f 44//42 216//42 215//42
f 192//42 217//42 218//42
f 171//42 219//42 185//42
f 203//42 192//42 202//42
f 203//42 6//42 8//42
f 48//42 220//42 204//42
f 193//42 221//42 194//42
f 76//42 78//42 168//42
f 197//42 222//42 193//42
f 48//42 223//42 224//42
f 206//42 48//42 50//42
f 58//42 225//42 207//42
f 60//42 62//42 226//42
f 64//42 227//42 226//42
f 66//42 228//42 227//42
f 209//42 228//42 66//42
f 68//42 70//42 208//42
f 72//42 74//42 174//42
f 16//42 210//42 200//42
f 211//42 229//42 18//42
f 20//42 22//42 213//42
f 212//42 24//42 26//42
f 32//42 182//42 190//42
f 215//42 42//42 44//42
f 185//42 219//42 230//42
f 4//42 231//42 232//42
f 6//42 233//42 231//42
f 201//42 217//42 192//42
f 8//42 199//42 203//42
f 48//42 234//42 220//42
f 193//42 235//42 221//42
f 222//42 176//42 193//42
f 80//42 1//42 232//42
f 48//42 206//42 223//42
f 56//42 207//42 198//42
f 58//42 60//42 236//42
f 226//42 62//42 64//42
f 66//42 68//42 209//42
f 74//42 76//42 174//42
f 18//42 229//42 210//42
f 213//42 22//42 24//42
f 181//42 166//42 237//42
f 215//42 184//42 40//42
f 230//42 238//42 185//42
f 231//42 4//42 6//42
f 202//42 233//42 6//42
f 46//42 205//42 216//42
f 195//42 234//42 48//42
f 193//42 239//42 238//42
f 232//42 186//42 80//42
f 52//42 198//42 206//42
f 226//42 236//42 60//42
f 70//42 72//42 208//42
f 213//42 211//42 20//42
f 179//42 214//42 26//42
f 230//42 240//42 238//42
f 218//42 202//42 192//42
f 46//42 48//42 204//42
f 238//42 235//42 193//42
f 224//42 196//42 48//42
f 227//42 64//42 66//42
f 237//42 238//42 181//42
f 232//42 1//42 4//42
f 239//42 185//42 238//42
f 236//42 225//42 58//42
f 240//42 181//42 238//42
f 163//42 193//42 176//42
f 216//42 44//42 46//42
f 12//42 200//42 199//42
f 235//43 238//43 146//43
f 221//44 235//44 156//44
f 194//45 221//45 133//45
f 195//46 194//46 126//46
f 234//47 195//47 125//47
f 220//48 234//48 128//48
f 204//49 220//49 141//49
f 205//50 204//50 150//50
f 216//51 205//51 149//51
f 215//52 216//52 159//52
f 184//53 215//53 155//53
f 191//54 184//54 121//54
f 183//55 191//55 120//55
f 182//56 183//56 122//56
f 190//57 182//57 138//57
f 170//58 190//58 139//58
f 165//59 170//59 131//59
f 166//60 165//60 123//60
f 237//61 166//61 114//61
f 238//62 237//62 147//62
f 147//62 146//62 238//62
f 114//61 147//61 237//61
f 123//60 114//60 166//60
f 131//59 123//59 165//59
f 139//58 131//58 170//58
f 138//57 139//57 190//57
f 122//56 138//56 182//56
f 120//55 122//55 183//55
f 121//54 120//54 191//54
f 155//53 121//53 184//53
f 159//52 155//52 215//52
f 149//51 159//51 216//51
f 150//50 149//50 205//50
f 141//49 150//49 204//49
f 128//48 141//48 220//48
f 125//47 128//47 234//47
f 126//46 125//46 195//46
f 133//45 126//45 194//45
f 156//44 133//44 221//44
f 146//43 156//43 235//43
f 208//43 174//43 153//43
f 209//44 208//44 158//44
f 228//45 209//45 83//45
f 227//46 228//46 91//46
f 226//47 227//47 105//47
f 236//48 226//48 134//48
f 225//49 236//49 135//49
f 207//50 225//50 144//50
f 198//51 207//51 137//51
f 206//52 198//52 136//52
f 223//53 206//53 145//53
f 224//54 223//54 140//54
f 196//55 224//55 142//55
f 197//56 196//56 148//56
f 222//57 197//57 157//57
f 176//58 222//58 151//58
f 177//59 176//59 160//59
f 161//60 177//60 143//60
f 168//61 161//61 152//61
f 174//62 168//62 154//62
f 154//62 153//62 174//62
f 152//61 154//61 168//61
f 143//60 152//60 161//60
f 160//59 143//59 177//59
f 151//58 160//58 176//58
f 157//57 151//57 222//57
f 148//56 157//56 197//56
f 142//55 148//55 196//55
f 140//54 142//54 224//54
f 145//53 140//53 223//53
f 136//52 145//52 206//52
f 137//51 136//51 198//51
f 144//50 137//50 207//50
f 135//49 144//49 225//49
f 134//48 135//48 236//48
f 105//47 134//47 226//47
f 91//46 105//46 227//46
f 83//45 91//45 228//45
f 158//44 83//44 209//44
f 153//43 158//43 208//43
f 186//43 232//43 108//43
f 175//44 186//44 104//44
f 167//45 175//45 89//45
f 188//46 167//46 82//46
f 187//47 188//47 81//47
f 169//48 187//48 90//48
f 162//49 169//49 85//49
f 163//50 162//50 84//50
f 193//51 163//51 97//51
f 239//52 193//52 118//52
f 185//53 239//53 127//53
f 172//54 185//54 110//54
f 173//55 172//55 98//55
f 201//56 173//56 112//56
f 217//57 201//57 119//57
f 218//58 217//58 129//58
f 202//59 218//59 130//59
f 233//60 202//60 94//60
f 231//61 233//61 103//61
f 232//62 231//62 107//62
f 107//62 108//62 232//62
f 103//61 107//61 231//61
f 94//60 103//60 233//60
f 130//59 94//59 202//59
f 129//58 130//58 218//58
f 119//57 129//57 217//57
f 112//56 119//56 201//56
f 98//55 112//55 173//55
f 110//54 98//54 172//54
f 127//53 110//53 185//53
f 118//52 127//52 239//52
f 97//51 118//51 193//51
f 84//50 97//50 163//50
f 85//49 84//49 162//49
f 90//48 85//48 169//48
f 81//47 90//47 187//47
f 82//46 81//46 188//46
f 89//45 82//45 167//45
f 104//44 89//44 175//44
f 108//43 104//43 186//43
f 203//43 199//43 88//43
f 192//44 203//44 96//44
f 171//45 192//45 95//45
f 219//46 171//46 117//46
f 230//47 219//47 100//47
f 240//48 230//48 99//48
f 181//49 240//49 106//49
f 164//50 181//50 109//50
f 189//51 164//51 113//51
f 180//52 189//52 132//52
f 178//53 180//53 115//53
f 179//54 178//54 111//54
f 214//55 179//55 116//55
f 212//56 214//56 124//56
f 213//57 212//57 101//57
f 211//58 213//58 102//58
f 229//59 211//59 93//59
f 210//60 229//60 92//60
f 200//61 210//61 87//61
f 199//62 200//62 86//62
f 86//62 88//62 199//62
f 87//61 86//61 200//61
f 92//60 87//60 210//60
f 93//59 92//59 229//59
f 102//58 93//58 211//58
f 101//57 102//57 213//57
f 124//56 101//56 212//56
f 116//55 124//55 214//55
f 111//54 116//54 179//54
f 115//53 111//53 178//53
f 132//52 115//52 180//52
f 113//51 132//51 189//51
f 109//50 113//50 164//50
f 106//49 109//49 181//49
f 99//48 106//48 240//48
f 100//47 99//47 230//47
f 117//46 100//46 219//46
f 95//45 117//45 171//45
f 96//44 95//44 192//44
f 88//43 96//43 203//43
#492 polygons

