# Aspose.3D Wavefront OBJ Exporter
# Copyright 2004-2023 Aspose Pty Ltd.
# File created: 06/30/2023 20:42:00


#
# object obj_41040351
#

v 105.95718383789062496 4.34336090087890624 58.58750152587890624
v 104.56661224365234376 4.56360673904418944 58.58750152587890624
v 105.29280090332031248 6.79858922958374016 58.58750152587890624
v 103.31215667724609376 5.20278453826904296 58.58750152587890624
v 104.69345092773437504 7.1039743423461914 58.58750152587890624
v 108.60221862792968752 5.20278453826904296 58.58750152587890624
v 107.22092437744140624 7.1039743423461914 58.58750152587890624
v 107.69657135009765624 7.579622745513916 58.58750152587890624
v 107.34776306152343752 4.56360673904418944 58.58750152587890624
v 106.62157440185546872 6.79858922958374016 58.58750152587890624
v 105.95718383789062496 6.69336080551147464 58.58750152587890624
v 102.31661224365234376 11.48839473724365232 58.58750152587890624
v 104.21779632568359376 10.10709953308105468 58.58750152587890624
v 103.91241455078124992 9.5077476501464844 58.58750152587890624
v 103.31215667724609376 12.48393726348876952 58.58750152587890624
v 104.69345092773437504 10.58274745941162112 58.58750152587890624
v 109.59776306152343752 6.19832706451416016 58.58750152587890624
v 108.00196075439453125 8.17897415161132812 58.58750152587890624
v 102.31661224365234376 6.19832706451416016 58.58750152587890624
v 104.21779632568359376 7.579622745513916 58.58750152587890624
v 101.67742919921875 7.45278453826904296 58.58750152587890624
v 103.91241455078124992 8.17897415161132812 58.58750152587890624
v 101.45718383789062496 8.84336090087890624 58.58750152587890624
v 103.80718994140624992 8.84336090087890624 58.58750152587890624
v 104.56661224365234376 13.12311553955078124 58.58750152587890624
v 105.29280090332031248 10.88813209533691408 58.58750152587890624
v 105.95718383789062496 13.34336090087890624 58.58750152587890624
v 105.95718383789062496 10.99336051940917968 58.58750152587890624
v 107.34776306152343752 13.12311553955078124 58.58750152587890624
v 106.62157440185546872 10.88813209533691408 58.58750152587890624
v 110.45718383789062496 8.84336090087890624 58.58750152587890624
v 110.2369384765625 7.45278453826904296 58.58750152587890624
v 108.60221862792968752 12.48393726348876952 58.58750152587890624
v 107.22092437744140624 10.58274745941162112 58.58750152587890624
v 109.59776306152343752 11.48839473724365232 58.58750152587890624
v 107.69657135009765624 10.10709953308105468 58.58750152587890624
v 110.2369384765625 10.23393726348876952 58.58750152587890624
v 108.00196075439453125 9.5077476501464844 58.58750152587890624
v 108.10718536376953124 8.84336090087890624 58.58750152587890624
v 101.67742919921875 10.23393726348876952 58.58750152587890624
v 101.45718383789062496 8.84336090087890624 59.48749923706054688
v 101.67742919921875 7.45278453826904296 59.48749923706054688
v 102.31661224365234376 6.19832706451416016 59.48749923706054688
v 103.31215667724609376 5.20278453826904296 59.48749923706054688
v 104.56661224365234376 4.56360673904418944 59.48749923706054688
v 105.95718383789062496 4.34336090087890624 59.48749923706054688
v 107.34776306152343752 4.56360673904418944 59.48749923706054688
v 108.60221862792968752 5.20278453826904296 59.48749923706054688
v 109.59776306152343752 6.19832706451416016 59.48749923706054688
v 110.2369384765625 7.45278453826904296 59.48749923706054688
v 110.45718383789062496 8.84336090087890624 59.48749923706054688
v 110.2369384765625 10.23393726348876952 59.48749923706054688
v 109.59776306152343752 11.48839473724365232 59.48749923706054688
v 108.60221862792968752 12.48393726348876952 59.48749923706054688
v 107.34776306152343752 13.12311553955078124 59.48749923706054688
v 105.95718383789062496 13.34336090087890624 59.48749923706054688
v 104.56661224365234376 13.12311553955078124 59.48749923706054688
v 103.31215667724609376 12.48393726348876952 59.48749923706054688
v 102.31661224365234376 11.48839473724365232 59.48749923706054688
v 101.67742919921875 10.23393726348876952 59.48749923706054688
v 103.91241455078124992 8.17897415161132812 59.48749923706054688
v 103.80718994140624992 8.84336090087890624 59.48749923706054688
v 104.21779632568359376 7.579622745513916 59.48749923706054688
v 104.69345092773437504 7.1039743423461914 59.48749923706054688
v 105.29280090332031248 6.79858922958374016 59.48749923706054688
v 105.95718383789062496 6.69336080551147464 59.48749923706054688
v 107.22092437744140624 7.1039743423461914 59.48749923706054688
v 106.62157440185546872 6.79858922958374016 59.48749923706054688
v 107.69657135009765624 7.579622745513916 59.48749923706054688
v 107.22092437744140624 10.58274745941162112 59.48749923706054688
v 107.69657135009765624 10.10709953308105468 59.48749923706054688
v 106.62157440185546872 10.88813209533691408 59.48749923706054688
v 105.95718383789062496 10.99336051940917968 59.48749923706054688
v 105.29280090332031248 10.88813209533691408 59.48749923706054688
v 108.00196075439453125 8.17897415161132812 59.48749923706054688
v 108.00196075439453125 9.5077476501464844 59.48749923706054688
v 108.10718536376953124 8.84336090087890624 59.48749923706054688
v 104.69345092773437504 10.58274745941162112 59.48749923706054688
v 104.21779632568359376 10.10709953308105468 59.48749923706054688
v 103.91241455078124992 9.5077476501464844 59.48749923706054688
v 103.37609100341796872 -12.52049255371093752 58.58750152587890624
v 102.36332702636718752 -11.5424766540527344 58.58750152587890624
v 104.24011993408203124 -10.12821102142333984 58.58750152587890624
v 101.70235443115234376 -10.29936504364013672 58.58750152587890624
v 103.9243240356445312 -9.53427982330322264 58.58750152587890624
v 106.0357208251953125 -13.33362293243408204 58.58750152587890624
v 105.99471282958984368 -10.98398113250732416 58.58750152587890624
v 106.65715789794921872 -10.86717319488525392 58.58750152587890624
v 104.64151763916015624 -13.1376800537109375 58.58750152587890624
v 105.32859039306640624 -10.89036369323730464 58.58750152587890624
v 104.7239990234375 -10.59548568725585936 58.58750152587890624
v 104.49212646484375 -4.57947492599487304 58.58750152587890624
v 105.25721740722656248 -6.80144357681274416 58.58750152587890624
v 104.66328430175781248 -7.11724233627319336 58.58750152587890624
v 105.8786544799804688 -4.334993839263916 58.58750152587890624
v 105.91966247558593744 -6.684636116027832 58.58750152587890624
v 107.4222412109375 -13.089141845703125 58.58750152587890624
v 107.25109100341796876 -10.55137538909912112 58.58750152587890624
v 101.45787048339843752 -8.91284465789794928 58.58750152587890624
v 103.80751037597656256 -8.87183094024658208 58.58750152587890624
v 101.65381622314453128 -7.51863622665405272 58.58750152587890624
v 103.9011306762695312 -8.20570945739746092 58.58750152587890624
v 102.27100372314453124 -6.25321483612060548 58.58750152587890624
v 104.19600677490234376 -7.60111951828002928 58.58750152587890624
v 107.272857666015625 -4.53093719482421872 58.58750152587890624
v 106.58578491210937504 -6.77825355529785152 58.58750152587890624
v 108.53828430175781248 -5.14812469482421876 58.58750152587890624
v 107.19037628173828124 -7.07313203811645508 58.58750152587890624
v 109.55104827880859376 -6.12614107131958008 58.58750152587890624
v 107.67425537109375 -7.5404062271118164 58.58750152587890624
v 109.64337158203125 -11.4154024124145508 58.58750152587890624
v 108.66535186767578128 -12.42816829681396488 58.58750152587890624
v 110.21202087402343752 -7.36925220489501952 58.58750152587890624
v 107.99005126953124992 -8.1343374252319336 58.58750152587890624
v 110.45650482177734376 -8.75577259063720704 58.58750152587890624
v 108.1068572998046875 -8.79678630828857424 58.58750152587890624
v 110.26055908203125 -10.14998149871826172 58.58750152587890624
v 108.01324462890625 -9.46290779113769528 58.58750152587890624
v 107.71836090087890624 -10.06749820709228516 58.58750152587890624
v 103.24901580810546876 -5.2404489517211914 58.58750152587890624
v 102.27100372314453124 -6.25321483612060548 59.48749923706054688
v 101.65381622314453128 -7.51863622665405272 59.48749923706054688
v 101.45787048339843752 -8.91284465789794928 59.48749923706054688
v 101.70235443115234376 -10.29936504364013672 59.48749923706054688
v 102.36332702636718752 -11.5424766540527344 59.48749923706054688
v 103.37609100341796872 -12.52049255371093752 59.48749923706054688
v 104.64151763916015624 -13.1376800537109375 59.48749923706054688
v 106.0357208251953125 -13.33362293243408204 59.48749923706054688
v 107.4222412109375 -13.089141845703125 59.48749923706054688
v 108.66535186767578128 -12.42816829681396488 59.48749923706054688
v 109.64337158203125 -11.4154024124145508 59.48749923706054688
v 110.26055908203125 -10.14998149871826172 59.48749923706054688
v 110.45650482177734376 -8.75577259063720704 59.48749923706054688
v 110.21202087402343752 -7.36925220489501952 59.48749923706054688
v 109.55104827880859376 -6.12614107131958008 59.48749923706054688
v 108.53828430175781248 -5.14812469482421876 59.48749923706054688
v 107.272857666015625 -4.53093719482421872 59.48749923706054688
v 105.8786544799804688 -4.334993839263916 59.48749923706054688
v 104.49212646484375 -4.57947492599487304 59.48749923706054688
v 103.24901580810546876 -5.2404489517211914 59.48749923706054688
v 103.9011306762695312 -8.20570945739746092 59.48749923706054688
v 104.19600677490234376 -7.60111951828002928 59.48749923706054688
v 103.80751037597656256 -8.87183094024658208 59.48749923706054688
v 103.9243240356445312 -9.53427982330322264 59.48749923706054688
v 104.24011993408203124 -10.12821102142333984 59.48749923706054688
v 104.7239990234375 -10.59548568725585936 59.48749923706054688
v 105.99471282958984368 -10.98398113250732416 59.48749923706054688
v 105.32859039306640624 -10.89036369323730464 59.48749923706054688
v 106.65715789794921872 -10.86717319488525392 59.48749923706054688
v 107.99005126953124992 -8.1343374252319336 59.48749923706054688
v 108.1068572998046875 -8.79678630828857424 59.48749923706054688
v 107.67425537109375 -7.5404062271118164 59.48749923706054688
v 107.19037628173828124 -7.07313203811645508 59.48749923706054688
v 106.58578491210937504 -6.77825355529785152 59.48749923706054688
v 107.25109100341796876 -10.55137538909912112 59.48749923706054688
v 108.01324462890625 -9.46290779113769528 59.48749923706054688
v 107.71836090087890624 -10.06749820709228516 59.48749923706054688
v 105.91966247558593744 -6.684636116027832 59.48749923706054688
v 105.25721740722656248 -6.80144357681274416 59.48749923706054688
v 104.66328430175781248 -7.11724233627319336 59.48749923706054688
v 88.27951812744140624 4.34336090087890624 58.58750152587890624
v 86.88893890380859376 4.56360673904418944 58.58750152587890624
v 87.61512756347656248 6.79858922958374016 58.58750152587890624
v 85.63448333740234376 5.20278453826904296 58.58750152587890624
v 87.015777587890625 7.1039743423461914 58.58750152587890624
v 90.9245529174804688 5.20278453826904296 58.58750152587890624
v 89.54325866699218752 7.1039743423461914 58.58750152587890624
v 90.0189056396484375 7.579622745513916 58.58750152587890624
v 89.67008972167968752 4.56360673904418944 58.58750152587890624
v 88.94390106201171872 6.79858922958374016 58.58750152587890624
v 88.27951812744140624 6.69336080551147464 58.58750152587890624
v 84.63893890380859376 11.48839473724365232 58.58750152587890624
v 86.54013061523437504 10.10709953308105468 58.58750152587890624
v 86.23474884033203124 9.5077476501464844 58.58750152587890624
v 85.63448333740234376 12.48393726348876952 58.58750152587890624
v 87.015777587890625 10.58274745941162112 58.58750152587890624
v 91.92008972167968752 6.19832706451416016 58.58750152587890624
v 90.32428741455078124 8.17897415161132812 58.58750152587890624
v 84.63893890380859376 6.19832706451416016 58.58750152587890624
v 86.54013061523437504 7.579622745513916 58.58750152587890624
v 83.9997634887695312 7.45278453826904296 58.58750152587890624
v 86.23474884033203124 8.17897415161132812 58.58750152587890624
v 83.77951812744140624 8.84336090087890624 58.58750152587890624
v 86.1295166015625 8.84336090087890624 58.58750152587890624
v 86.88893890380859376 13.12311553955078124 58.58750152587890624
v 87.61512756347656248 10.88813209533691408 58.58750152587890624
v 88.27951812744140624 13.34336090087890624 58.58750152587890624
v 88.27951812744140624 10.99336051940917968 58.58750152587890624
v 89.67008972167968752 13.12311553955078124 58.58750152587890624
v 88.94390106201171872 10.88813209533691408 58.58750152587890624
v 92.77951812744140624 8.84336090087890624 58.58750152587890624
v 92.55927276611328128 7.45278453826904296 58.58750152587890624
v 90.9245529174804688 12.48393726348876952 58.58750152587890624
v 89.54325866699218752 10.58274745941162112 58.58750152587890624
v 91.92008972167968752 11.48839473724365232 58.58750152587890624
v 90.0189056396484375 10.10709953308105468 58.58750152587890624
v 92.55927276611328128 10.23393726348876952 58.58750152587890624
v 90.32428741455078124 9.5077476501464844 58.58750152587890624
v 90.42951965332031248 8.84336090087890624 58.58750152587890624
v 83.9997634887695312 10.23393726348876952 58.58750152587890624
v 83.77951812744140624 8.84336090087890624 59.48749923706054688
v 83.9997634887695312 7.45278453826904296 59.48749923706054688
v 84.63893890380859376 6.19832706451416016 59.48749923706054688
v 85.63448333740234376 5.20278453826904296 59.48749923706054688
v 86.88893890380859376 4.56360673904418944 59.48749923706054688
v 88.27951812744140624 4.34336090087890624 59.48749923706054688
v 89.67008972167968752 4.56360673904418944 59.48749923706054688
v 90.9245529174804688 5.20278453826904296 59.48749923706054688
v 91.92008972167968752 6.19832706451416016 59.48749923706054688
v 92.55927276611328128 7.45278453826904296 59.48749923706054688
v 92.77951812744140624 8.84336090087890624 59.48749923706054688
v 92.55927276611328128 10.23393726348876952 59.48749923706054688
v 91.92008972167968752 11.48839473724365232 59.48749923706054688
v 90.9245529174804688 12.48393726348876952 59.48749923706054688
v 89.67008972167968752 13.12311553955078124 59.48749923706054688
v 88.27951812744140624 13.34336090087890624 59.48749923706054688
v 86.88893890380859376 13.12311553955078124 59.48749923706054688
v 85.63448333740234376 12.48393726348876952 59.48749923706054688
v 84.63893890380859376 11.48839473724365232 59.48749923706054688
v 83.9997634887695312 10.23393726348876952 59.48749923706054688
v 86.23474884033203124 8.17897415161132812 59.48749923706054688
v 86.1295166015625 8.84336090087890624 59.48749923706054688
v 86.54013061523437504 7.579622745513916 59.48749923706054688
v 87.015777587890625 7.1039743423461914 59.48749923706054688
v 87.61512756347656248 6.79858922958374016 59.48749923706054688
v 88.27951812744140624 6.69336080551147464 59.48749923706054688
v 89.54325866699218752 7.1039743423461914 59.48749923706054688
v 88.94390106201171872 6.79858922958374016 59.48749923706054688
v 90.0189056396484375 7.579622745513916 59.48749923706054688
v 89.54325866699218752 10.58274745941162112 59.48749923706054688
v 90.0189056396484375 10.10709953308105468 59.48749923706054688
v 88.94390106201171872 10.88813209533691408 59.48749923706054688
v 88.27951812744140624 10.99336051940917968 59.48749923706054688
v 87.61512756347656248 10.88813209533691408 59.48749923706054688
v 90.32428741455078124 8.17897415161132812 59.48749923706054688
v 90.32428741455078124 9.5077476501464844 59.48749923706054688
v 90.42951965332031248 8.84336090087890624 59.48749923706054688
v 87.015777587890625 10.58274745941162112 59.48749923706054688
v 86.54013061523437504 10.10709953308105468 59.48749923706054688
v 86.23474884033203124 9.5077476501464844 59.48749923706054688
v 88.27951812744140624 -13.33430862426757812 58.58750152587890624
v 86.88893890380859376 -13.11406326293945312 58.58750152587890624
v 87.61512756347656248 -10.87907981872558592 58.58750152587890624
v 85.63448333740234376 -12.47488498687744144 58.58750152587890624
v 87.015777587890625 -10.57369518280029296 58.58750152587890624
v 90.9245529174804688 -12.47488498687744144 58.58750152587890624
v 89.54325866699218752 -10.57369518280029296 58.58750152587890624
v 90.0189056396484375 -10.09804725646972656 58.58750152587890624
v 89.67008972167968752 -13.11406326293945312 58.58750152587890624
v 88.94390106201171872 -10.87907981872558592 58.58750152587890624
v 88.27951812744140624 -10.98430824279785152 58.58750152587890624
v 84.63893890380859376 -6.18927526473999024 58.58750152587890624
v 86.54013061523437504 -7.57057046890258792 58.58750152587890624
v 86.23474884033203124 -8.169921875 58.58750152587890624
v 85.63448333740234376 -5.19373226165771484 58.58750152587890624
v 87.015777587890625 -7.09492206573486328 58.58750152587890624
v 91.92008972167968752 -11.47934246063232424 58.58750152587890624
v 90.32428741455078124 -9.49869537353515624 58.58750152587890624
v 84.63893890380859376 -11.47934246063232424 58.58750152587890624
v 86.54013061523437504 -10.09804725646972656 58.58750152587890624
v 83.9997634887695312 -10.2248849868774414 58.58750152587890624
v 86.23474884033203124 -9.49869537353515624 58.58750152587890624
v 83.77951812744140624 -8.83430862426757808 58.58750152587890624
v 86.1295166015625 -8.83430862426757808 58.58750152587890624
v 86.88893890380859376 -4.55455446243286136 58.58750152587890624
v 87.61512756347656248 -6.78953742980957024 58.58750152587890624
v 88.27951812744140624 -4.33430862426757812 58.58750152587890624
v 88.27951812744140624 -6.68430852890014648 58.58750152587890624
v 89.67008972167968752 -4.55455446243286136 58.58750152587890624
v 88.94390106201171872 -6.78953742980957024 58.58750152587890624
v 92.77951812744140624 -8.83430862426757808 58.58750152587890624
v 92.55927276611328128 -10.2248849868774414 58.58750152587890624
v 90.9245529174804688 -5.19373226165771484 58.58750152587890624
v 89.54325866699218752 -7.09492206573486328 58.58750152587890624
v 91.92008972167968752 -6.18927526473999024 58.58750152587890624
v 90.0189056396484375 -7.57057046890258792 58.58750152587890624
v 92.55927276611328128 -7.44373226165771488 58.58750152587890624
v 90.32428741455078124 -8.169921875 58.58750152587890624
v 90.42951965332031248 -8.83430862426757808 58.58750152587890624
v 83.9997634887695312 -7.44373226165771488 58.58750152587890624
v 83.77951812744140624 -8.83430862426757808 59.48749923706054688
v 83.9997634887695312 -10.2248849868774414 59.48749923706054688
v 84.63893890380859376 -11.47934246063232424 59.48749923706054688
v 85.63448333740234376 -12.47488498687744144 59.48749923706054688
v 86.88893890380859376 -13.11406326293945312 59.48749923706054688
v 88.27951812744140624 -13.33430862426757812 59.48749923706054688
v 89.67008972167968752 -13.11406326293945312 59.48749923706054688
v 90.9245529174804688 -12.47488498687744144 59.48749923706054688
v 91.92008972167968752 -11.47934246063232424 59.48749923706054688
v 92.55927276611328128 -10.2248849868774414 59.48749923706054688
v 92.77951812744140624 -8.83430862426757808 59.48749923706054688
v 92.55927276611328128 -7.44373226165771488 59.48749923706054688
v 91.92008972167968752 -6.18927526473999024 59.48749923706054688
v 90.9245529174804688 -5.19373226165771484 59.48749923706054688
v 89.67008972167968752 -4.55455446243286136 59.48749923706054688
v 88.27951812744140624 -4.33430862426757812 59.48749923706054688
v 86.88893890380859376 -4.55455446243286136 59.48749923706054688
v 85.63448333740234376 -5.19373226165771484 59.48749923706054688
v 84.63893890380859376 -6.18927526473999024 59.48749923706054688
v 83.9997634887695312 -7.44373226165771488 59.48749923706054688
v 86.23474884033203124 -9.49869537353515624 59.48749923706054688
v 86.1295166015625 -8.83430862426757808 59.48749923706054688
v 86.54013061523437504 -10.09804725646972656 59.48749923706054688
v 87.015777587890625 -10.57369518280029296 59.48749923706054688
v 87.61512756347656248 -10.87907981872558592 59.48749923706054688
v 88.27951812744140624 -10.98430824279785152 59.48749923706054688
v 89.54325866699218752 -10.57369518280029296 59.48749923706054688
v 88.94390106201171872 -10.87907981872558592 59.48749923706054688
v 90.0189056396484375 -10.09804725646972656 59.48749923706054688
v 89.54325866699218752 -7.09492206573486328 59.48749923706054688
v 90.0189056396484375 -7.57057046890258792 59.48749923706054688
v 88.94390106201171872 -6.78953742980957024 59.48749923706054688
v 88.27951812744140624 -6.68430852890014648 59.48749923706054688
v 87.61512756347656248 -6.78953742980957024 59.48749923706054688
v 90.32428741455078124 -9.49869537353515624 59.48749923706054688
v 90.32428741455078124 -8.169921875 59.48749923706054688
v 90.42951965332031248 -8.83430862426757808 59.48749923706054688
v 87.015777587890625 -7.09492206573486328 59.48749923706054688
v 86.54013061523437504 -7.57057046890258792 59.48749923706054688
v 86.23474884033203124 -8.169921875 59.48749923706054688
# 320 vertices

vn 0 0 -1
vn -0.9876883625984192 -0.15643446147441864 0
vn -0.8910065293312072 -0.45399048924446104 0
vn -0.7071067690849304 -0.7071067690849304 0
vn -0.45399048924446104 -0.8910065293312072 0
vn -0.15643446147441864 -0.9876883625984192 0
vn 0.15643446147441864 -0.9876883625984192 0
vn 0.45399048924446104 -0.8910065293312072 0
vn 0.7071067690849304 -0.7071067690849304 0
vn 0.8910065293312072 -0.45399048924446104 0
vn 0.9876883625984192 -0.15643446147441864 0
vn 0.9876883625984192 0.15643446147441864 0
vn 0.8910065293312072 0.45399048924446104 0
vn 0.7071067690849304 0.7071067690849304 0
vn 0.45399048924446104 0.8910065293312072 0
vn 0.15643446147441864 0.9876883625984192 0
vn -0.15643446147441864 0.9876883625984192 0
vn -0.45399048924446104 0.8910065293312072 0
vn -0.7071067690849304 0.7071067690849304 0
vn -0.8910065293312072 0.45399048924446104 0
vn -0.9876883625984192 0.15643446147441864 0
vn 0 0 1
vn -0.8987940549850464 0.43837115168571472 0
vn -0.99026805162429808 0.13917310535907746 0
vn -0.98480772972106928 -0.1736481785774231 0
vn -0.88294756412506096 -0.46947157382965088 0
vn -0.69465839862823488 -0.71933978796005248 0
vn -0.43837115168571472 -0.8987940549850464 0
vn -0.13917310535907746 -0.99026805162429808 0
vn 0.1736481785774231 -0.98480772972106928 0
vn 0.46947157382965088 -0.88294756412506096 0
vn 0.71933978796005248 -0.69465839862823488 0
vn 0.8987940549850464 -0.43837115168571472 0
vn 0.99026805162429808 -0.13917310535907746 0
vn 0.98480772972106928 0.1736481785774231 0
vn 0.88294756412506096 0.46947157382965088 0
vn 0.69465839862823488 0.71933978796005248 0
vn 0.43837115168571472 0.8987940549850464 0
vn 0.13917310535907746 0.99026805162429808 0
vn -0.1736481785774231 0.98480772972106928 0
vn -0.46947157382965088 0.88294756412506096 0
vn -0.71933978796005248 0.69465839862823488 0
# 42 vertex normals

g obj_41040351
s 1
f 1//1 2//1 3//1
f 2//1 4//1 5//1
f 6//1 7//1 8//1
f 6//1 9//1 10//1
f 1//1 11//1 10//1
f 5//1 3//1 2//1
f 12//1 13//1 14//1
f 15//1 16//1 13//1
f 17//1 8//1 18//1
f 10//1 7//1 6//1
f 3//1 11//1 1//1
f 4//1 19//1 20//1
f 21//1 22//1 20//1
f 21//1 23//1 24//1
f 13//1 12//1 15//1
f 15//1 25//1 26//1
f 25//1 27//1 28//1
f 27//1 29//1 30//1
f 31//1 32//1 18//1
f 8//1 17//1 6//1
f 20//1 5//1 4//1
f 24//1 22//1 21//1
f 26//1 16//1 15//1
f 30//1 28//1 27//1
f 33//1 34//1 30//1
f 33//1 35//1 36//1
f 18//1 32//1 17//1
f 20//1 19//1 21//1
f 28//1 26//1 25//1
f 36//1 34//1 33//1
f 37//1 38//1 36//1
f 31//1 39//1 38//1
f 10//1 9//1 1//1
f 23//1 40//1 14//1
f 30//1 29//1 33//1
f 38//1 37//1 31//1
f 14//1 24//1 23//1
f 36//1 35//1 37//1
f 14//1 40//1 12//1
f 18//1 39//1 31//1
f 41//2 23//2 21//2
f 42//3 21//3 19//3
f 43//4 19//4 4//4
f 44//5 4//5 2//5
f 45//6 2//6 1//6
f 46//7 1//7 9//7
f 47//8 9//8 6//8
f 48//9 6//9 17//9
f 49//10 17//10 32//10
f 50//11 32//11 31//11
f 51//12 31//12 37//12
f 52//13 37//13 35//13
f 53//14 35//14 33//14
f 54//15 33//15 29//15
f 55//16 29//16 27//16
f 56//17 27//17 25//17
f 57//18 25//18 15//18
f 58//19 15//19 12//19
f 59//20 12//20 40//20
f 60//21 40//21 23//21
f 23//21 41//21 60//21
f 40//20 60//20 59//20
f 12//19 59//19 58//19
f 15//18 58//18 57//18
f 25//17 57//17 56//17
f 27//16 56//16 55//16
f 29//15 55//15 54//15
f 33//14 54//14 53//14
f 35//13 53//13 52//13
f 37//12 52//12 51//12
f 31//11 51//11 50//11
f 32//10 50//10 49//10
f 17//9 49//9 48//9
f 6//8 48//8 47//8
f 9//7 47//7 46//7
f 1//6 46//6 45//6
f 2//5 45//5 44//5
f 4//4 44//4 43//4
f 19//3 43//3 42//3
f 21//2 42//2 41//2
f 42//22 61//22 62//22
f 42//22 43//22 63//22
f 63//22 61//22 42//22
f 44//22 64//22 63//22
f 45//22 65//22 64//22
f 45//22 46//22 66//22
f 63//22 43//22 44//22
f 66//22 65//22 45//22
f 48//22 67//22 68//22
f 48//22 49//22 69//22
f 54//22 70//22 71//22
f 54//22 55//22 72//22
f 56//22 73//22 72//22
f 56//22 57//22 74//22
f 64//22 44//22 45//22
f 46//22 47//22 68//22
f 69//22 67//22 48//22
f 49//22 50//22 75//22
f 52//22 76//22 77//22
f 52//22 53//22 71//22
f 72//22 70//22 54//22
f 74//22 73//22 56//22
f 68//22 66//22 46//22
f 75//22 69//22 49//22
f 51//22 77//22 75//22
f 71//22 76//22 52//22
f 72//22 55//22 56//22
f 57//22 58//22 78//22
f 58//22 59//22 79//22
f 59//22 60//22 80//22
f 68//22 47//22 48//22
f 77//22 51//22 52//22
f 78//22 74//22 57//22
f 80//22 79//22 59//22
f 75//22 50//22 51//22
f 79//22 78//22 58//22
f 71//22 53//22 54//22
f 41//22 62//22 80//22
f 80//22 60//22 41//22
f 62//22 41//22 42//22
f 80//11 62//11 24//11
f 79//10 80//10 14//10
f 78//9 79//9 13//9
f 74//8 78//8 16//8
f 73//7 74//7 26//7
f 72//6 73//6 28//6
f 70//5 72//5 30//5
f 71//4 70//4 34//4
f 76//3 71//3 36//3
f 77//2 76//2 38//2
f 75//21 77//21 39//21
f 69//20 75//20 18//20
f 67//19 69//19 8//19
f 68//18 67//18 7//18
f 66//17 68//17 10//17
f 65//16 66//16 11//16
f 64//15 65//15 3//15
f 63//14 64//14 5//14
f 61//13 63//13 20//13
f 62//12 61//12 22//12
f 22//12 24//12 62//12
f 20//13 22//13 61//13
f 5//14 20//14 63//14
f 3//15 5//15 64//15
f 11//16 3//16 65//16
f 10//17 11//17 66//17
f 7//18 10//18 68//18
f 8//19 7//19 67//19
f 18//20 8//20 69//20
f 39//21 18//21 75//21
f 38//2 39//2 77//2
f 36//3 38//3 76//3
f 34//4 36//4 71//4
f 30//5 34//5 70//5
f 28//6 30//6 72//6
f 26//7 28//7 73//7
f 16//8 26//8 74//8
f 13//9 16//9 78//9
f 14//10 13//10 79//10
f 24//11 14//11 80//11
f 81//1 82//1 83//1
f 82//1 84//1 85//1
f 86//1 87//1 88//1
f 86//1 89//1 90//1
f 81//1 91//1 90//1
f 85//1 83//1 82//1
f 92//1 93//1 94//1
f 95//1 96//1 93//1
f 97//1 88//1 98//1
f 90//1 87//1 86//1
f 83//1 91//1 81//1
f 84//1 99//1 100//1
f 101//1 102//1 100//1
f 101//1 103//1 104//1
f 93//1 92//1 95//1
f 95//1 105//1 106//1
f 105//1 107//1 108//1
f 107//1 109//1 110//1
f 111//1 112//1 98//1
f 88//1 97//1 86//1
f 100//1 85//1 84//1
f 104//1 102//1 101//1
f 106//1 96//1 95//1
f 110//1 108//1 107//1
f 113//1 114//1 110//1
f 113//1 115//1 116//1
f 98//1 112//1 97//1
f 100//1 99//1 101//1
f 108//1 106//1 105//1
f 116//1 114//1 113//1
f 117//1 118//1 116//1
f 111//1 119//1 118//1
f 90//1 89//1 81//1
f 103//1 120//1 94//1
f 110//1 109//1 113//1
f 118//1 117//1 111//1
f 94//1 104//1 103//1
f 116//1 115//1 117//1
f 94//1 120//1 92//1
f 98//1 119//1 111//1
f 121//23 103//23 101//23
f 122//24 101//24 99//24
f 123//25 99//25 84//25
f 124//26 84//26 82//26
f 125//27 82//27 81//27
f 126//28 81//28 89//28
f 127//29 89//29 86//29
f 128//30 86//30 97//30
f 129//31 97//31 112//31
f 130//32 112//32 111//32
f 131//33 111//33 117//33
f 132//34 117//34 115//34
f 133//35 115//35 113//35
f 134//36 113//36 109//36
f 135//37 109//37 107//37
f 136//38 107//38 105//38
f 137//39 105//39 95//39
f 138//40 95//40 92//40
f 139//41 92//41 120//41
f 140//42 120//42 103//42
f 103//42 121//42 140//42
f 120//41 140//41 139//41
f 92//40 139//40 138//40
f 95//39 138//39 137//39
f 105//38 137//38 136//38
f 107//37 136//37 135//37
f 109//36 135//36 134//36
f 113//35 134//35 133//35
f 115//34 133//34 132//34
f 117//33 132//33 131//33
f 111//32 131//32 130//32
f 112//31 130//31 129//31
f 97//30 129//30 128//30
f 86//29 128//29 127//29
f 89//28 127//28 126//28
f 81//27 126//27 125//27
f 82//26 125//26 124//26
f 84//25 124//25 123//25
f 99//24 123//24 122//24
f 101//23 122//23 121//23
f 122//22 141//22 142//22
f 122//22 123//22 143//22
f 143//22 141//22 122//22
f 124//22 144//22 143//22
f 125//22 145//22 144//22
f 125//22 126//22 146//22
f 143//22 123//22 124//22
f 146//22 145//22 125//22
f 128//22 147//22 148//22
f 128//22 129//22 149//22
f 134//22 150//22 151//22
f 134//22 135//22 152//22
f 136//22 153//22 152//22
f 136//22 137//22 154//22
f 144//22 124//22 125//22
f 126//22 127//22 148//22
f 149//22 147//22 128//22
f 129//22 130//22 155//22
f 132//22 156//22 157//22
f 132//22 133//22 151//22
f 152//22 150//22 134//22
f 154//22 153//22 136//22
f 148//22 146//22 126//22
f 155//22 149//22 129//22
f 131//22 157//22 155//22
f 151//22 156//22 132//22
f 152//22 135//22 136//22
f 137//22 138//22 158//22
f 138//22 139//22 159//22
f 139//22 140//22 160//22
f 148//22 127//22 128//22
f 157//22 131//22 132//22
f 158//22 154//22 137//22
f 160//22 159//22 139//22
f 155//22 130//22 131//22
f 159//22 158//22 138//22
f 151//22 133//22 134//22
f 121//22 142//22 160//22
f 160//22 140//22 121//22
f 142//22 121//22 122//22
f 160//32 142//32 104//32
f 159//31 160//31 94//31
f 158//30 159//30 93//30
f 154//29 158//29 96//29
f 153//28 154//28 106//28
f 152//27 153//27 108//27
f 150//26 152//26 110//26
f 151//25 150//25 114//25
f 156//24 151//24 116//24
f 157//23 156//23 118//23
f 155//42 157//42 119//42
f 149//41 155//41 98//41
f 147//40 149//40 88//40
f 148//39 147//39 87//39
f 146//38 148//38 90//38
f 145//37 146//37 91//37
f 144//36 145//36 83//36
f 143//35 144//35 85//35
f 141//34 143//34 100//34
f 142//33 141//33 102//33
f 102//33 104//33 142//33
f 100//34 102//34 141//34
f 85//35 100//35 143//35
f 83//36 85//36 144//36
f 91//37 83//37 145//37
f 90//38 91//38 146//38
f 87//39 90//39 148//39
f 88//40 87//40 147//40
f 98//41 88//41 149//41
f 119//42 98//42 155//42
f 118//23 119//23 157//23
f 116//24 118//24 156//24
f 114//25 116//25 151//25
f 110//26 114//26 150//26
f 108//27 110//27 152//27
f 106//28 108//28 153//28
f 96//29 106//29 154//29
f 93//30 96//30 158//30
f 94//31 93//31 159//31
f 104//32 94//32 160//32
f 161//1 162//1 163//1
f 162//1 164//1 165//1
f 166//1 167//1 168//1
f 166//1 169//1 170//1
f 161//1 171//1 170//1
f 165//1 163//1 162//1
f 172//1 173//1 174//1
f 175//1 176//1 173//1
f 177//1 168//1 178//1
f 170//1 167//1 166//1
f 163//1 171//1 161//1
f 164//1 179//1 180//1
f 181//1 182//1 180//1
f 181//1 183//1 184//1
f 173//1 172//1 175//1
f 175//1 185//1 186//1
f 185//1 187//1 188//1
f 187//1 189//1 190//1
f 191//1 192//1 178//1
f 168//1 177//1 166//1
f 180//1 165//1 164//1
f 184//1 182//1 181//1
f 186//1 176//1 175//1
f 190//1 188//1 187//1
f 193//1 194//1 190//1
f 193//1 195//1 196//1
f 178//1 192//1 177//1
f 180//1 179//1 181//1
f 188//1 186//1 185//1
f 196//1 194//1 193//1
f 197//1 198//1 196//1
f 191//1 199//1 198//1
f 170//1 169//1 161//1
f 183//1 200//1 174//1
f 190//1 189//1 193//1
f 198//1 197//1 191//1
f 174//1 184//1 183//1
f 196//1 195//1 197//1
f 174//1 200//1 172//1
f 178//1 199//1 191//1
f 201//2 183//2 181//2
f 202//3 181//3 179//3
f 203//4 179//4 164//4
f 204//5 164//5 162//5
f 205//6 162//6 161//6
f 206//7 161//7 169//7
f 207//8 169//8 166//8
f 208//9 166//9 177//9
f 209//10 177//10 192//10
f 210//11 192//11 191//11
f 211//12 191//12 197//12
f 212//13 197//13 195//13
f 213//14 195//14 193//14
f 214//15 193//15 189//15
f 215//16 189//16 187//16
f 216//17 187//17 185//17
f 217//18 185//18 175//18
f 218//19 175//19 172//19
f 219//20 172//20 200//20
f 220//21 200//21 183//21
f 183//21 201//21 220//21
f 200//20 220//20 219//20
f 172//19 219//19 218//19
f 175//18 218//18 217//18
f 185//17 217//17 216//17
f 187//16 216//16 215//16
f 189//15 215//15 214//15
f 193//14 214//14 213//14
f 195//13 213//13 212//13
f 197//12 212//12 211//12
f 191//11 211//11 210//11
f 192//10 210//10 209//10
f 177//9 209//9 208//9
f 166//8 208//8 207//8
f 169//7 207//7 206//7
f 161//6 206//6 205//6
f 162//5 205//5 204//5
f 164//4 204//4 203//4
f 179//3 203//3 202//3
f 181//2 202//2 201//2
f 202//22 221//22 222//22
f 202//22 203//22 223//22
f 223//22 221//22 202//22
f 204//22 224//22 223//22
f 205//22 225//22 224//22
f 205//22 206//22 226//22
f 223//22 203//22 204//22
f 226//22 225//22 205//22
f 208//22 227//22 228//22
f 208//22 209//22 229//22
f 214//22 230//22 231//22
f 214//22 215//22 232//22
f 216//22 233//22 232//22
f 216//22 217//22 234//22
f 224//22 204//22 205//22
f 206//22 207//22 228//22
f 229//22 227//22 208//22
f 209//22 210//22 235//22
f 212//22 236//22 237//22
f 212//22 213//22 231//22
f 232//22 230//22 214//22
f 234//22 233//22 216//22
f 228//22 226//22 206//22
f 235//22 229//22 209//22
f 211//22 237//22 235//22
f 231//22 236//22 212//22
f 232//22 215//22 216//22
f 217//22 218//22 238//22
f 218//22 219//22 239//22
f 219//22 220//22 240//22
f 228//22 207//22 208//22
f 237//22 211//22 212//22
f 238//22 234//22 217//22
f 240//22 239//22 219//22
f 235//22 210//22 211//22
f 239//22 238//22 218//22
f 231//22 213//22 214//22
f 201//22 222//22 240//22
f 240//22 220//22 201//22
f 222//22 201//22 202//22
f 240//11 222//11 184//11
f 239//10 240//10 174//10
f 238//9 239//9 173//9
f 234//8 238//8 176//8
f 233//7 234//7 186//7
f 232//6 233//6 188//6
f 230//5 232//5 190//5
f 231//4 230//4 194//4
f 236//3 231//3 196//3
f 237//2 236//2 198//2
f 235//21 237//21 199//21
f 229//20 235//20 178//20
f 227//19 229//19 168//19
f 228//18 227//18 167//18
f 226//17 228//17 170//17
f 225//16 226//16 171//16
f 224//15 225//15 163//15
f 223//14 224//14 165//14
f 221//13 223//13 180//13
f 222//12 221//12 182//12
f 182//12 184//12 222//12
f 180//13 182//13 221//13
f 165//14 180//14 223//14
f 163//15 165//15 224//15
f 171//16 163//16 225//16
f 170//17 171//17 226//17
f 167//18 170//18 228//18
f 168//19 167//19 227//19
f 178//20 168//20 229//20
f 199//21 178//21 235//21
f 198//2 199//2 237//2
f 196//3 198//3 236//3
f 194//4 196//4 231//4
f 190//5 194//5 230//5
f 188//6 190//6 232//6
f 186//7 188//7 233//7
f 176//8 186//8 234//8
f 173//9 176//9 238//9
f 174//10 173//10 239//10
f 184//11 174//11 240//11
f 241//1 242//1 243//1
f 242//1 244//1 245//1
f 246//1 247//1 248//1
f 246//1 249//1 250//1
f 241//1 251//1 250//1
f 245//1 243//1 242//1
f 252//1 253//1 254//1
f 255//1 256//1 253//1
f 257//1 248//1 258//1
f 250//1 247//1 246//1
f 243//1 251//1 241//1
f 244//1 259//1 260//1
f 261//1 262//1 260//1
f 261//1 263//1 264//1
f 253//1 252//1 255//1
f 255//1 265//1 266//1
f 265//1 267//1 268//1
f 267//1 269//1 270//1
f 271//1 272//1 258//1
f 248//1 257//1 246//1
f 260//1 245//1 244//1
f 264//1 262//1 261//1
f 266//1 256//1 255//1
f 270//1 268//1 267//1
f 273//1 274//1 270//1
f 273//1 275//1 276//1
f 258//1 272//1 257//1
f 260//1 259//1 261//1
f 268//1 266//1 265//1
f 276//1 274//1 273//1
f 277//1 278//1 276//1
f 271//1 279//1 278//1
f 250//1 249//1 241//1
f 263//1 280//1 254//1
f 270//1 269//1 273//1
f 278//1 277//1 271//1
f 254//1 264//1 263//1
f 276//1 275//1 277//1
f 254//1 280//1 252//1
f 258//1 279//1 271//1
f 281//2 263//2 261//2
f 282//3 261//3 259//3
f 283//4 259//4 244//4
f 284//5 244//5 242//5
f 285//6 242//6 241//6
f 286//7 241//7 249//7
f 287//8 249//8 246//8
f 288//9 246//9 257//9
f 289//10 257//10 272//10
f 290//11 272//11 271//11
f 291//12 271//12 277//12
f 292//13 277//13 275//13
f 293//14 275//14 273//14
f 294//15 273//15 269//15
f 295//16 269//16 267//16
f 296//17 267//17 265//17
f 297//18 265//18 255//18
f 298//19 255//19 252//19
f 299//20 252//20 280//20
f 300//21 280//21 263//21
f 263//21 281//21 300//21
f 280//20 300//20 299//20
f 252//19 299//19 298//19
f 255//18 298//18 297//18
f 265//17 297//17 296//17
f 267//16 296//16 295//16
f 269//15 295//15 294//15
f 273//14 294//14 293//14
f 275//13 293//13 292//13
f 277//12 292//12 291//12
f 271//11 291//11 290//11
f 272//10 290//10 289//10
f 257//9 289//9 288//9
f 246//8 288//8 287//8
f 249//7 287//7 286//7
f 241//6 286//6 285//6
f 242//5 285//5 284//5
f 244//4 284//4 283//4
f 259//3 283//3 282//3
f 261//2 282//2 281//2
f 282//22 301//22 302//22
f 282//22 283//22 303//22
f 303//22 301//22 282//22
f 284//22 304//22 303//22
f 285//22 305//22 304//22
f 285//22 286//22 306//22
f 303//22 283//22 284//22
f 306//22 305//22 285//22
f 288//22 307//22 308//22
f 288//22 289//22 309//22
f 294//22 310//22 311//22
f 294//22 295//22 312//22
f 296//22 313//22 312//22
f 296//22 297//22 314//22
f 304//22 284//22 285//22
f 286//22 287//22 308//22
f 309//22 307//22 288//22
f 289//22 290//22 315//22
f 292//22 316//22 317//22
f 292//22 293//22 311//22
f 312//22 310//22 294//22
f 314//22 313//22 296//22
f 308//22 306//22 286//22
f 315//22 309//22 289//22
f 291//22 317//22 315//22
f 311//22 316//22 292//22
f 312//22 295//22 296//22
f 297//22 298//22 318//22
f 298//22 299//22 319//22
f 299//22 300//22 320//22
f 308//22 287//22 288//22
f 317//22 291//22 292//22
f 318//22 314//22 297//22
f 320//22 319//22 299//22
f 315//22 290//22 291//22
f 319//22 318//22 298//22
f 311//22 293//22 294//22
f 281//22 302//22 320//22
f 320//22 300//22 281//22
f 302//22 281//22 282//22
f 320//11 302//11 264//11
f 319//10 320//10 254//10
f 318//9 319//9 253//9
f 314//8 318//8 256//8
f 313//7 314//7 266//7
f 312//6 313//6 268//6
f 310//5 312//5 270//5
f 311//4 310//4 274//4
f 316//3 311//3 276//3
f 317//2 316//2 278//2
f 315//21 317//21 279//21
f 309//20 315//20 258//20
f 307//19 309//19 248//19
f 308//18 307//18 247//18
f 306//17 308//17 250//17
f 305//16 306//16 251//16
f 304//15 305//15 243//15
f 303//14 304//14 245//14
f 301//13 303//13 260//13
f 302//12 301//12 262//12
f 262//12 264//12 302//12
f 260//13 262//13 301//13
f 245//14 260//14 303//14
f 243//15 245//15 304//15
f 251//16 243//16 305//16
f 250//17 251//17 306//17
f 247//18 250//18 308//18
f 248//19 247//19 307//19
f 258//20 248//20 309//20
f 279//21 258//21 315//21
f 278//2 279//2 317//2
f 276//3 278//3 316//3
f 274//4 276//4 311//4
f 270//5 274//5 310//5
f 268//6 270//6 312//6
f 266//7 268//7 313//7
f 256//8 266//8 314//8
f 253//9 256//9 318//9
f 254//10 253//10 319//10
f 264//11 254//11 320//11
#640 polygons

