# Aspose.3D Wavefront OBJ Exporter
# Copyright 2004-2023 Aspose Pty Ltd.
# File created: 11/02/2023 20:18:04


#
# object obj_33398544
#

v 35 12.72792243957519536 25.22792243957519532
v 35 0 37.95584487915039056
v 0 12.72792243957519536 25.22792243957519532
v 0 0 37.95584487915039056
v 35 0 12.5
v 0 0 12.5
v 0 0 0
v 0 32.48064422607421872 4.31889438629150392
v 0 4.561486550258533E-31 50.7526969909667968
v 0 0.01364851836115121 51.01357650756835937
v 0 0.0544450469315052 51.27160263061523436
v 0 0.1219441369175911 51.52396392822265624
v 0 0.21540877223014832 51.76790618896484368
v 0 0.33381843566894532 52.00075912475585937
v 0 0.47588023543357848 52.21998977661132812
v 0 0.64004302024841312 52.42319488525390624
v 0 0.82451432943344112 52.60816192626953128
v 0 1.02727997303009033 52.77286911010742192
v 0 1.24612593650817872 52.9155197143554688
v 0 1.47866272926330568 53.03455352783203125
v 0 1.72235131263732912 53.12867355346679688
v 0 1.97453093528747552 53.19684982299804688
v 0 2.23244810104370116 53.23834228515625
v 0 2.49328660964965824 53.25268936157226564
v 0 2.75419831275939936 53.23974227905273436
v 0 4.65944719314575192 52.0123748779296875
v 0 3.01233434677124023 53.19963836669921876
v 0 3.2648766040802002 53.13281631469726562
v 0 3.5090670585632324 53.040008544921875
v 0 3.7422399520874024 52.92222213745117184
v 0 3.96184897422790528 52.7807502746582032
v 0 4.1654963493347168 52.61713409423828128
v 0 4.35095834732055664 52.4331626892089844
v 0 4.5162100791931152 52.23083877563476564
v 0 30 7.923825805015838E-32
v 35 4.561486550258533E-31 50.7526969909667968
v 35 0.01364851836115121 51.01357650756835937
v 30 0.01364851836115121 51.01357650756835937
v 25 0.01364851836115121 51.01357650756835937
v 20 0.01364851836115121 51.01357650756835937
v 20 0.0544450469315052 51.27160263061523436
v 15 0.0544450469315052 51.27160263061523436
v 15 0.1219441369175911 51.52396392822265624
v 10 0.1219441369175911 51.52396392822265624
v 10 0.21540877223014832 51.76790618896484368
v 5 0.21540877223014832 51.76790618896484368
v 5 0.33381843566894532 52.00075912475585937
v 5 0.47588023543357848 52.21998977661132812
v 5 0.64004302024841312 52.42319488525390624
v 5 0.82451432943344112 52.60816192626953128
v 5 1.02727997303009033 52.77286911010742192
v 5 1.24612593650817872 52.9155197143554688
v 5 1.47866272926330568 53.03455352783203125
v 5 1.72235131263732912 53.12867355346679688
v 5 1.97453093528747552 53.19684982299804688
v 5 2.23244810104370116 53.23834228515625
v 5 2.49328660964965824 53.25268936157226564
v 5 2.75419831275939936 53.23974227905273436
v 5 3.01233434677124023 53.19963836669921876
v 5 3.2648766040802002 53.13281631469726562
v 5 3.5090670585632324 53.040008544921875
v 5 3.7422399520874024 52.92222213745117184
v 5 3.96184897422790528 52.7807502746582032
v 5 4.1654963493347168 52.61713409423828128
v 5 4.35095834732055664 52.4331626892089844
v 5 4.5162100791931152 52.23083877563476564
v 10 4.5162100791931152 52.23083877563476564
v 15 4.5162100791931152 52.23083877563476564
v 15 4.35095834732055664 52.4331626892089844
v 20 4.35095834732055664 52.4331626892089844
v 20 4.1654963493347168 52.61713409423828128
v 25 4.1654963493347168 52.61713409423828128
v 25 3.96184897422790528 52.7807502746582032
v 30 3.96184897422790528 52.7807502746582032
v 30 3.7422399520874024 52.92222213745117184
v 35 3.7422399520874024 52.92222213745117184
v 35 3.5090670585632324 53.040008544921875
v 30 3.5090670585632324 53.040008544921875
v 35 3.2648766040802002 53.13281631469726562
v 30 3.2648766040802002 53.13281631469726562
v 35 3.01233434677124023 53.19963836669921876
v 30 3.01233434677124023 53.19963836669921876
v 35 2.75419831275939936 53.23974227905273436
v 30 2.75419831275939936 53.23974227905273436
v 35 2.49328660964965824 53.25268936157226564
v 30 2.49328660964965824 53.25268936157226564
v 35 2.23244810104370116 53.23834228515625
v 30 2.23244810104370116 53.23834228515625
v 35 1.97453093528747552 53.19684982299804688
v 30 1.97453093528747552 53.19684982299804688
v 35 1.72235131263732912 53.12867355346679688
v 30 1.72235131263732912 53.12867355346679688
v 35 1.47866272926330568 53.03455352783203125
v 30 1.47866272926330568 53.03455352783203125
v 35 1.24612593650817872 52.9155197143554688
v 30 1.24612593650817872 52.9155197143554688
v 35 1.02727997303009033 52.77286911010742192
v 30 1.02727997303009033 52.77286911010742192
v 35 0.82451432943344112 52.60816192626953128
v 30 0.82451432943344112 52.60816192626953128
v 35 0.64004302024841312 52.42319488525390624
v 30 0.64004302024841312 52.42319488525390624
v 35 0.47588023543357848 52.21998977661132812
v 30 0.47588023543357848 52.21998977661132812
v 35 0.33381843566894532 52.00075912475585937
v 30 0.33381843566894532 52.00075912475585937
v 35 0.21540877223014832 51.76790618896484368
v 30 0.21540877223014832 51.76790618896484368
v 35 0.1219441369175911 51.52396392822265624
v 30 0.1219441369175911 51.52396392822265624
v 35 0.0544450469315052 51.27160263061523436
v 30 0.0544450469315052 51.27160263061523436
v 35 3.96184897422790528 52.7807502746582032
v 30 4.1654963493347168 52.61713409423828128
v 25 4.35095834732055664 52.4331626892089844
v 20 4.5162100791931152 52.23083877563476564
v 35 4.1654963493347168 52.61713409423828128
v 30 4.35095834732055664 52.4331626892089844
v 25 4.5162100791931152 52.23083877563476564
v 35 4.65944719314575192 52.0123748779296875
v 35 4.35095834732055664 52.4331626892089844
v 30 4.5162100791931152 52.23083877563476564
v 35 4.5162100791931152 52.23083877563476564
v 5 0.1219441369175911 51.52396392822265624
v 10 0.0544450469315052 51.27160263061523436
v 15 0.01364851836115121 51.01357650756835937
v 5 0.0544450469315052 51.27160263061523436
v 10 0.01364851836115121 51.01357650756835937
v 5 0.01364851836115121 51.01357650756835937
v 25 0.0544450469315052 51.27160263061523436
v 25 0.1219441369175911 51.52396392822265624
v 25 0.21540877223014832 51.76790618896484368
v 25 0.33381843566894532 52.00075912475585937
v 25 0.47588023543357848 52.21998977661132812
v 25 0.64004302024841312 52.42319488525390624
v 25 0.82451432943344112 52.60816192626953128
v 25 1.02727997303009033 52.77286911010742192
v 25 1.24612593650817872 52.9155197143554688
v 25 1.47866272926330568 53.03455352783203125
v 25 1.72235131263732912 53.12867355346679688
v 25 1.97453093528747552 53.19684982299804688
v 25 2.23244810104370116 53.23834228515625
v 25 2.49328660964965824 53.25268936157226564
v 25 2.75419831275939936 53.23974227905273436
v 25 3.01233434677124023 53.19963836669921876
v 25 3.2648766040802002 53.13281631469726562
v 25 3.5090670585632324 53.040008544921875
v 25 3.7422399520874024 52.92222213745117184
v 20 0.1219441369175911 51.52396392822265624
v 15 0.21540877223014832 51.76790618896484368
v 10 0.33381843566894532 52.00075912475585937
v 20 0.21540877223014832 51.76790618896484368
v 20 0.33381843566894532 52.00075912475585937
v 20 0.47588023543357848 52.21998977661132812
v 20 0.64004302024841312 52.42319488525390624
v 20 0.82451432943344112 52.60816192626953128
v 20 1.02727997303009033 52.77286911010742192
v 20 1.24612593650817872 52.9155197143554688
v 20 1.47866272926330568 53.03455352783203125
v 20 1.72235131263732912 53.12867355346679688
v 20 1.97453093528747552 53.19684982299804688
v 20 2.23244810104370116 53.23834228515625
v 20 2.49328660964965824 53.25268936157226564
v 20 2.75419831275939936 53.23974227905273436
v 20 3.01233434677124023 53.19963836669921876
v 20 3.2648766040802002 53.13281631469726562
v 20 3.5090670585632324 53.040008544921875
v 20 3.7422399520874024 52.92222213745117184
v 20 3.96184897422790528 52.7807502746582032
v 15 0.33381843566894532 52.00075912475585937
v 10 0.47588023543357848 52.21998977661132812
v 15 0.47588023543357848 52.21998977661132812
v 15 0.64004302024841312 52.42319488525390624
v 15 0.82451432943344112 52.60816192626953128
v 15 1.02727997303009033 52.77286911010742192
v 15 1.24612593650817872 52.9155197143554688
v 15 1.47866272926330568 53.03455352783203125
v 15 1.72235131263732912 53.12867355346679688
v 15 1.97453093528747552 53.19684982299804688
v 15 2.23244810104370116 53.23834228515625
v 15 2.49328660964965824 53.25268936157226564
v 15 2.75419831275939936 53.23974227905273436
v 15 3.01233434677124023 53.19963836669921876
v 15 3.2648766040802002 53.13281631469726562
v 15 3.5090670585632324 53.040008544921875
v 15 3.7422399520874024 52.92222213745117184
v 15 3.96184897422790528 52.7807502746582032
v 15 4.1654963493347168 52.61713409423828128
v 10 0.64004302024841312 52.42319488525390624
v 10 0.82451432943344112 52.60816192626953128
v 10 1.02727997303009033 52.77286911010742192
v 10 1.24612593650817872 52.9155197143554688
v 10 1.47866272926330568 53.03455352783203125
v 10 1.72235131263732912 53.12867355346679688
v 10 1.97453093528747552 53.19684982299804688
v 10 2.23244810104370116 53.23834228515625
v 10 2.49328660964965824 53.25268936157226564
v 10 2.75419831275939936 53.23974227905273436
v 10 3.01233434677124023 53.19963836669921876
v 10 3.2648766040802002 53.13281631469726562
v 10 3.5090670585632324 53.040008544921875
v 10 3.7422399520874024 52.92222213745117184
v 10 3.96184897422790528 52.7807502746582032
v 10 4.1654963493347168 52.61713409423828128
v 10 4.35095834732055664 52.4331626892089844
v 35 0 0
v 35 30 7.923825805015838E-32
v 35 32.48064422607421872 4.31889438629150392
v 22.5 1.9516090592913303E-32 5
v 12.5 1.9516090592913303E-32 5
v 12.5 0 0
v 22.5 0 0
v 12.5 30 7.923825805015838E-32
v 12.5 32.48064422607421872 4.31889438629150392
v 12.5 32.08333206176757812 5
v 22.5 32.08333206176757812 5
v 22.5 32.48064422607421872 4.31889438629150392
v 22.5 30 7.923825805015838E-32
# 218 vertices

vn 0 -0.7071067690849304 -0.7071067690849304
vn 0 -0.7071067690849304 0.7071067690849304
vn -1 0 0
vn 0 -1 3.5645373310860324E-32
vn 1.1087067033006733E-16 -0.99863421916961664 0.0522465668618679
vn 0 -0.99863421916961664 0.0522465668618679
vn 0 -0.98773032426834112 0.15616922080516816
vn 0 -0.96604156494140624 0.25838670134544372
vn 0 -0.9338048100471496 0.35778290033340456
vn 5.312421238589521E-17 -0.9338048100471496 0.35778290033340456
vn 4.948108397508506E-17 -0.89137196540832512 0.45327255129814144
vn -9.827979026692818E-17 -0.89137196540832512 0.45327255129814144
vn -9.317063311287805E-17 -0.8392064571380616 0.54381299018859864
vn -2.7951189933863414E-16 -0.8392064571380616 0.54381299018859864
vn -2.5908532923868226E-16 -0.77787774801254272 0.62841564416885376
vn 1.727235572374181E-16 -0.77787774801254272 0.62841564416885376
vn 1.5721991615712862E-16 -0.70805555582046512 0.70615673065185544
vn 1.1005394528045698E-16 -0.70805555582046512 0.70615673065185544
vn 9.799973999874222E-17 -0.63050228357315064 0.77618741989135744
vn -2.799992609206606E-16 -0.63050228357315064 0.77618741989135744
vn -2.425014035132883E-16 -0.54606461524963376 0.83774304389953616
vn -1.4550084475495095E-16 -0.54606461524963376 0.83774304389953616
vn -1.214134379616354E-16 -0.45566460490226744 0.89015156030654912
vn -2.0235572442152157E-17 -0.45566460490226744 0.89015156030654912
vn -1.6000056981300933E-17 -0.36028924584388736 0.93284064531326288
vn -6.400022792520373E-17 -0.36028924584388736 0.93284064531326288
vn -4.635935728286914E-17 -0.26097998023033144 0.96534419059753424
vn 4.635935728286914E-17 -0.26097998023033144 0.96534419059753424
vn 2.821229842776639E-17 -0.15882112085819244 0.98730736970901488
vn -1.4171543069086984E-15 -0.15882112085819244 0.98730736970901488
vn -1.4238186562585769E-15 -0.05492810904979706 0.99849033355712896
vn 1.4189400641197473E-15 -0.05492810904979706 0.99849033355712896
vn 1.4193388048796673E-15 0.04956464469432831 0.99877089262008672
vn 0 0.04956464469432831 0.99877089262008672
vn 0 0.15351621806621552 0.98814612627029424
vn -1.3634978865166866E-17 0.15351621806621552 0.98814612627029424
vn -2.2718854667820052E-17 0.255791574716568 0.96673196554183952
vn -1.4874029843892338E-15 0.255791574716568 0.96673196554183952
vn -1.4861503285393631E-15 0.35527396202087404 0.9347622394561768
vn 6.310933455314942E-17 0.35527396202087404 0.9347622394561768
vn 8.009188192445511E-17 0.45087721943855288 0.8925859928131104
vn -1.2013781957796022E-16 0.45087721943855288 0.8925859928131104
vn -1.4429988438464236E-16 0.54155743122100832 0.84066379070281984
vn 9.619992071727994E-17 0.54155743122100832 0.84066379070281984
vn 1.1125756586361554E-16 0.6263244152069092 0.7795624732971192
vn -3.337727240606262E-16 0.6263244152069092 0.7795624732971192
vn -3.7530126715684686E-16 0.7042527794837952 0.7099493145942688
vn -2.502008271247115E-16 0.7042527794837952 0.7099493145942688
vn -2.7515462950906E-16 0.7744914293289184 0.63258439302444456
vn 0 0.7744914293289184 0.63258439302444456
vn 0 0.83627361059188848 0.54831230640411376
vn 0 0.7042527794837952 0.7099493145942688
vn 0 0.6263244152069092 0.7795624732971192
vn 0 0.54155743122100832 0.84066379070281984
vn 1.4343536814796114E-16 0.54155743122100832 0.84066379070281984
vn 1.2013781957796022E-16 0.45087721943855288 0.8925859928131104
vn -8.009188192445511E-17 0.45087721943855288 0.8925859928131104
vn -6.310933455314942E-17 0.35527396202087404 0.9347622394561768
vn 1.4545957042761803E-15 0.35527396202087404 0.9347622394561768
vn 1.4646841843153342E-15 0.255791574716568 0.96673196554183952
vn 2.2718854667820052E-17 0.255791574716568 0.96673196554183952
vn 1.3634978865166866E-17 0.15351621806621552 0.98814612627029424
vn -1.4193388048796673E-15 0.04956464469432831 0.99877089262008672
vn -1.4189400641197473E-15 -0.05492810904979706 0.99849033355712896
vn 1.4238186562585769E-15 -0.05492810904979706 0.99849033355712896
vn 1.4171543069086984E-15 -0.15882112085819244 0.98730736970901488
vn -2.115922216646357E-17 -0.15882112085819244 0.98730736970901488
vn -3.476951796215185E-17 -0.26097998023033144 0.96534419059753424
vn 6.400022792520373E-17 -0.36028924584388736 0.93284064531326288
vn 4.8000169289541574E-17 -0.36028924584388736 0.93284064531326288
vn 6.07067189808177E-17 -0.45566460490226744 0.89015156030654912
vn 1.214134379616354E-16 -0.45566460490226744 0.89015156030654912
vn 1.4550084475495095E-16 -0.54606461524963376 0.83774304389953616
vn 2.667515332767053E-16 -0.54606461524963376 0.83774304389953616
vn 3.0799917907179276E-16 -0.63050228357315064 0.77618741989135744
vn -8.399977430573123E-17 -0.63050228357315064 0.77618741989135744
vn -9.43319549882331E-17 -0.70805555582046512 0.70615673065185544
vn -1.1005394528045698E-16 -0.70805555582046512 0.70615673065185544
vn -1.209064887427037E-16 -0.77787774801254272 0.62841564416885376
vn 3.0226622185675924E-16 -0.77787774801254272 0.62841564416885376
vn 3.2609720266018336E-16 -0.8392064571380616 0.54381299018859864
vn 9.317063311287805E-17 -0.8392064571380616 0.54381299018859864
vn 9.896216795017012E-17 -0.89137196540832512 0.45327255129814144
vn -3.463676010604852E-16 -0.89137196540832512 0.45327255129814144
vn -3.6285605029085584E-16 -0.9338048100471496 0.35778290033340456
vn 2.0734632012401325E-16 -0.9338048100471496 0.35778290033340456
vn 2.1450431762857353E-16 -0.96604156494140624 0.25838670134544372
vn 5.362607940714338E-17 -0.96604156494140624 0.25838670134544372
vn 5.4830047406159214E-17 -0.98773032426834112 0.15616922080516816
vn 1.0966009481231843E-16 -0.98773032426834112 0.15616922080516816
vn -9.56235809711224E-17 0.54155743122100832 0.84066379070281984
vn -1.1125756586361554E-16 0.6263244152069092 0.7795624732971192
vn 2.2312168672680396E-16 0.6263244152069092 0.7795624732971192
vn 2.502008271247115E-16 0.7042527794837952 0.7099493145942688
vn 2.4968379291975156E-16 0.7042527794837952 0.7099493145942688
vn 2.7515462950906E-16 0.7744914293289184 0.63258439302444456
vn 3.4796356995178994E-16 -0.89137196540832512 0.45327255129814144
vn 3.6285605029085584E-16 -0.9338048100471496 0.35778290033340456
vn -2.0718441771707947E-16 -0.9338048100471496 0.35778290033340456
vn -2.1450431762857353E-16 -0.96604156494140624 0.25838670134544372
vn -1.1023273540677664E-16 -0.98773032426834112 0.15616922080516816
vn -1.1087067033006733E-16 -0.99863421916961664 0.0522465668618679
vn 0 -0.89137196540832512 0.45327255129814144
vn 0 -0.8392064571380616 0.54381299018859864
vn 0 -0.77787774801254272 0.62841564416885376
vn 0 -0.70805555582046512 0.70615673065185544
vn 0 -0.63050228357315064 0.77618741989135744
vn 0 -0.54606461524963376 0.83774304389953616
vn 0 -0.45566460490226744 0.89015156030654912
vn 0 -0.36028924584388736 0.93284064531326288
vn 0 -0.26097998023033144 0.96534419059753424
vn 0 -0.15882112085819244 0.98730736970901488
vn 0 -0.05492810904979706 0.99849033355712896
vn 0 0.255791574716568 0.96673196554183952
vn 0 0.35527396202087404 0.9347622394561768
vn 0 0.45087721943855288 0.8925859928131104
vn 2.0235572442152157E-17 -0.45566460490226744 0.89015156030654912
vn 1.6000056981300933E-17 -0.36028924584388736 0.93284064531326288
vn 1.4106149213883196E-17 -0.15882112085819244 0.98730736970901488
vn 4.878596274732612E-18 -0.05492810904979706 0.99849033355712896
vn -4.809996035863997E-17 0.54155743122100832 0.84066379070281984
vn -5.562878293180777E-17 0.6263244152069092 0.7795624732971192
vn 4.515557788103297E-17 -0.8392064571380616 0.54381299018859864
vn 4.3180889309354527E-17 -0.77787774801254272 0.62841564416885376
vn 2.317967864143457E-17 -0.26097998023033144 0.96534419059753424
vn 3.2000113962601866E-17 -0.36028924584388736 0.93284064531326288
vn 2.39058952427806E-17 -0.26097998023033144 0.96534419059753424
vn 1 0 0
vn -1.5612871886583467E-33 -1 0
vn 0 -1 -2.602145375654242E-33
vn 1.5612871886583467E-33 -1 0
vn 0 -1 3.903217971645867E-33
vn 0 0.86714214086532592 -0.49806073307991024
vn 8.274388517228218E-16 0.86714214086532592 -0.49806073307991024
vn 0 0.86377888917922976 0.50387102365493776
vn 1.3297956697727446E-16 0.86377888917922976 0.50387102365493776
vn -1.2953473692035042E-16 0.86377888917922976 0.50387102365493776
vn -8.46806683578265E-16 0.86714214086532592 -0.49806073307991024
vn 0 0 -1
vn 0 2.641275378541208E-33 -1
# 140 vertex normals

g obj_33398544
s 1
f 1//1 2//1 3//1
f 3//1 2//1 4//1
f 5//2 1//2 6//2
f 6//2 1//2 3//2
f 7//3 6//3 8//3
f 8//3 6//3 3//3
f 8//3 3//3 9//3
f 9//3 3//3 4//3
f 9//3 10//3 8//3
f 8//3 10//3 11//3
f 8//3 11//3 12//3
f 13//3 14//3 12//3
f 12//3 14//3 15//3
f 12//3 15//3 16//3
f 16//3 17//3 12//3
f 12//3 17//3 18//3
f 12//3 18//3 19//3
f 19//3 20//3 12//3
f 12//3 20//3 21//3
f 12//3 21//3 22//3
f 22//3 23//3 12//3
f 12//3 23//3 24//3
f 12//3 24//3 25//3
f 12//3 25//3 26//3
f 26//3 25//3 27//3
f 26//3 27//3 28//3
f 28//3 29//3 26//3
f 26//3 29//3 30//3
f 26//3 30//3 31//3
f 31//3 32//3 26//3
f 26//3 32//3 33//3
f 26//3 33//3 34//3
f 26//3 8//3 12//3
f 8//3 35//3 7//3
f 2//4 36//4 4//4
f 4//4 36//4 9//4
f 37//5 38//5 36//5
f 36//6 38//6 39//6
f 36//6 39//6 40//6
f 40//7 39//7 41//7
f 40//7 41//7 42//7
f 42//8 41//8 43//8
f 42//8 43//8 44//8
f 44//9 43//9 45//9
f 44//10 45//10 46//10
f 46//11 45//11 47//11
f 46//12 47//12 14//12
f 14//13 47//13 15//13
f 15//14 47//14 48//14
f 15//15 48//15 16//15
f 16//16 48//16 49//16
f 16//17 49//17 17//17
f 17//18 49//18 50//18
f 17//19 50//19 18//19
f 18//20 50//20 51//20
f 18//21 51//21 19//21
f 19//22 51//22 52//22
f 19//23 52//23 20//23
f 20//24 52//24 53//24
f 20//25 53//25 21//25
f 21//26 53//26 54//26
f 21//27 54//27 22//27
f 22//28 54//28 55//28
f 22//29 55//29 23//29
f 23//30 55//30 56//30
f 23//31 56//31 24//31
f 24//32 56//32 57//32
f 24//33 57//33 25//33
f 25//34 57//34 58//34
f 25//35 58//35 27//35
f 27//36 58//36 59//36
f 27//37 59//37 28//37
f 28//38 59//38 60//38
f 28//39 60//39 29//39
f 29//40 60//40 61//40
f 29//41 61//41 30//41
f 30//42 61//42 62//42
f 30//43 62//43 31//43
f 31//44 62//44 63//44
f 31//45 63//45 32//45
f 32//46 63//46 64//46
f 32//47 64//47 33//47
f 33//48 64//48 65//48
f 33//49 65//49 34//49
f 34//50 65//50 66//50
f 34//51 66//51 26//51
f 26//51 66//51 67//51
f 26//51 67//51 68//51
f 68//50 67//50 69//50
f 68//50 69//50 70//50
f 70//52 69//52 71//52
f 70//52 71//52 72//52
f 72//53 71//53 73//53
f 72//53 73//53 74//53
f 74//54 73//54 75//54
f 74//55 75//55 76//55
f 76//56 75//56 77//56
f 77//57 75//57 78//57
f 77//58 78//58 79//58
f 79//59 78//59 80//59
f 79//60 80//60 81//60
f 81//61 80//61 82//61
f 81//62 82//62 83//62
f 83//35 82//35 84//35
f 83//34 84//34 85//34
f 85//63 84//63 86//63
f 85//64 86//64 87//64
f 87//65 86//65 88//65
f 87//66 88//66 89//66
f 89//67 88//67 90//67
f 89//68 90//68 91//68
f 91//28 90//28 92//28
f 91//69 92//69 93//69
f 93//70 92//70 94//70
f 93//71 94//71 95//71
f 95//72 94//72 96//72
f 95//73 96//73 97//73
f 97//74 96//74 98//74
f 97//75 98//75 99//75
f 99//76 98//76 100//76
f 99//77 100//77 101//77
f 101//78 100//78 102//78
f 101//79 102//79 103//79
f 103//80 102//80 104//80
f 103//81 104//81 105//81
f 105//82 104//82 106//82
f 105//83 106//83 107//83
f 107//84 106//84 108//84
f 107//85 108//85 109//85
f 109//86 108//86 110//86
f 109//87 110//87 111//87
f 111//88 110//88 112//88
f 111//89 112//89 37//89
f 37//90 112//90 38//90
f 76//91 113//91 74//91
f 74//92 113//92 114//92
f 74//53 114//53 72//53
f 72//52 114//52 115//52
f 72//52 115//52 70//52
f 70//50 115//50 116//50
f 70//50 116//50 68//50
f 68//51 116//51 26//51
f 113//93 117//93 114//93
f 114//94 117//94 118//94
f 114//52 118//52 115//52
f 115//50 118//50 119//50
f 115//50 119//50 116//50
f 116//51 119//51 120//51
f 116//51 120//51 26//51
f 117//95 121//95 118//95
f 118//96 121//96 122//96
f 118//50 122//50 119//50
f 119//51 122//51 120//51
f 121//50 123//50 122//50
f 122//51 123//51 120//51
f 14//97 13//97 46//97
f 46//98 13//98 124//98
f 46//9 124//9 44//9
f 44//8 124//8 125//8
f 44//8 125//8 42//8
f 42//7 125//7 126//7
f 42//7 126//7 40//7
f 40//6 126//6 36//6
f 13//99 12//99 124//99
f 124//100 12//100 127//100
f 124//8 127//8 125//8
f 125//7 127//7 128//7
f 125//7 128//7 126//7
f 126//6 128//6 9//6
f 126//6 9//6 36//6
f 12//8 11//8 127//8
f 127//7 11//7 129//7
f 127//7 129//7 128//7
f 128//6 129//6 9//6
f 11//101 10//101 129//101
f 129//102 10//102 9//102
f 39//7 38//7 130//7
f 130//7 38//7 112//7
f 130//8 112//8 131//8
f 131//8 112//8 110//8
f 131//9 110//9 132//9
f 132//9 110//9 108//9
f 132//103 108//103 133//103
f 133//103 108//103 106//103
f 133//104 106//104 134//104
f 134//104 106//104 104//104
f 134//105 104//105 135//105
f 135//105 104//105 102//105
f 135//106 102//106 136//106
f 136//106 102//106 100//106
f 136//107 100//107 137//107
f 137//107 100//107 98//107
f 137//108 98//108 138//108
f 138//108 98//108 96//108
f 138//109 96//109 139//109
f 139//109 96//109 94//109
f 139//110 94//110 140//110
f 140//110 94//110 92//110
f 140//111 92//111 141//111
f 141//111 92//111 90//111
f 141//112 90//112 142//112
f 142//112 90//112 88//112
f 142//113 88//113 143//113
f 143//113 88//113 86//113
f 143//34 86//34 144//34
f 144//34 86//34 84//34
f 144//35 84//35 145//35
f 145//35 84//35 82//35
f 145//114 82//114 146//114
f 146//114 82//114 80//114
f 146//115 80//115 147//115
f 147//115 80//115 78//115
f 147//116 78//116 148//116
f 148//116 78//116 75//116
f 148//54 75//54 73//54
f 39//7 130//7 41//7
f 41//8 130//8 149//8
f 41//8 149//8 43//8
f 43//9 149//9 150//9
f 43//9 150//9 45//9
f 45//103 150//103 151//103
f 45//103 151//103 47//103
f 47//104 151//104 48//104
f 149//8 130//8 131//8
f 149//9 131//9 152//9
f 152//9 131//9 132//9
f 152//103 132//103 153//103
f 153//103 132//103 133//103
f 153//104 133//104 154//104
f 154//104 133//104 134//104
f 154//105 134//105 155//105
f 155//105 134//105 135//105
f 155//106 135//106 156//106
f 156//106 135//106 136//106
f 156//107 136//107 157//107
f 157//107 136//107 137//107
f 157//108 137//108 158//108
f 158//108 137//108 138//108
f 158//109 138//109 159//109
f 159//117 138//117 139//117
f 159//118 139//118 160//118
f 160//110 139//110 140//110
f 160//111 140//111 161//111
f 161//111 140//111 141//111
f 161//112 141//112 162//112
f 162//119 141//119 142//119
f 162//120 142//120 163//120
f 163//113 142//113 143//113
f 163//34 143//34 164//34
f 164//34 143//34 144//34
f 164//35 144//35 165//35
f 165//36 144//36 145//36
f 165//37 145//37 166//37
f 166//114 145//114 146//114
f 166//115 146//115 167//115
f 167//115 146//115 147//115
f 167//116 147//116 168//116
f 168//116 147//116 148//116
f 168//54 148//54 169//54
f 169//54 148//54 73//54
f 169//53 73//53 71//53
f 149//9 152//9 150//9
f 150//103 152//103 170//103
f 150//103 170//103 151//103
f 151//104 170//104 171//104
f 151//104 171//104 48//104
f 48//105 171//105 49//105
f 170//103 152//103 153//103
f 170//104 153//104 172//104
f 172//104 153//104 154//104
f 172//105 154//105 173//105
f 173//105 154//105 155//105
f 173//106 155//106 174//106
f 174//106 155//106 156//106
f 174//107 156//107 175//107
f 175//107 156//107 157//107
f 175//108 157//108 176//108
f 176//108 157//108 158//108
f 176//109 158//109 177//109
f 177//109 158//109 159//109
f 177//110 159//110 178//110
f 178//110 159//110 160//110
f 178//111 160//111 179//111
f 179//111 160//111 161//111
f 179//112 161//112 180//112
f 180//112 161//112 162//112
f 180//113 162//113 181//113
f 181//113 162//113 163//113
f 181//34 163//34 182//34
f 182//34 163//34 164//34
f 182//35 164//35 183//35
f 183//35 164//35 165//35
f 183//114 165//114 184//114
f 184//114 165//114 166//114
f 184//115 166//115 185//115
f 185//115 166//115 167//115
f 185//116 167//116 186//116
f 186//116 167//116 168//116
f 186//54 168//54 187//54
f 187//121 168//121 169//121
f 187//122 169//122 188//122
f 188//53 169//53 71//53
f 188//52 71//52 69//52
f 170//123 172//123 171//123
f 171//124 172//124 189//124
f 171//105 189//105 49//105
f 49//106 189//106 50//106
f 189//105 172//105 173//105
f 189//106 173//106 190//106
f 190//106 173//106 174//106
f 190//107 174//107 191//107
f 191//107 174//107 175//107
f 191//108 175//108 192//108
f 192//108 175//108 176//108
f 192//109 176//109 193//109
f 193//109 176//109 177//109
f 193//110 177//110 194//110
f 194//110 177//110 178//110
f 194//111 178//111 195//111
f 195//125 178//125 179//125
f 195//119 179//119 196//119
f 196//112 179//112 180//112
f 196//113 180//113 197//113
f 197//113 180//113 181//113
f 197//34 181//34 198//34
f 198//34 181//34 182//34
f 198//35 182//35 199//35
f 199//35 182//35 183//35
f 199//114 183//114 200//114
f 200//114 183//114 184//114
f 200//115 184//115 201//115
f 201//115 184//115 185//115
f 201//116 185//116 202//116
f 202//116 185//116 186//116
f 202//54 186//54 203//54
f 203//54 186//54 187//54
f 203//53 187//53 204//53
f 204//53 187//53 188//53
f 204//52 188//52 205//52
f 205//52 188//52 69//52
f 205//50 69//50 67//50
f 51//107 50//107 190//107
f 190//106 50//106 189//106
f 51//107 190//107 191//107
f 52//108 51//108 191//108
f 52//108 191//108 192//108
f 53//109 52//109 192//109
f 53//109 192//109 193//109
f 54//110 53//110 193//110
f 54//126 193//126 194//126
f 55//127 54//127 194//127
f 55//111 194//111 195//111
f 56//112 55//112 195//112
f 56//112 195//112 196//112
f 57//113 56//113 196//113
f 57//113 196//113 197//113
f 58//34 57//34 197//34
f 58//34 197//34 198//34
f 59//35 58//35 198//35
f 59//35 198//35 199//35
f 60//114 59//114 199//114
f 60//114 199//114 200//114
f 61//115 60//115 200//115
f 61//115 200//115 201//115
f 62//116 61//116 201//116
f 62//116 201//116 202//116
f 63//54 62//54 202//54
f 63//54 202//54 203//54
f 64//53 63//53 203//53
f 64//53 203//53 204//53
f 65//52 64//52 204//52
f 65//52 204//52 205//52
f 66//50 65//50 205//50
f 66//50 205//50 67//50
f 5//128 206//128 1//128
f 1//128 206//128 207//128
f 1//128 207//128 208//128
f 208//128 120//128 1//128
f 1//128 120//128 2//128
f 2//128 120//128 37//128
f 2//128 37//128 36//128
f 123//128 121//128 120//128
f 120//128 121//128 117//128
f 120//128 117//128 113//128
f 113//128 76//128 120//128
f 120//128 76//128 77//128
f 120//128 77//128 79//128
f 79//128 81//128 120//128
f 120//128 81//128 37//128
f 81//128 83//128 37//128
f 37//128 83//128 85//128
f 37//128 85//128 87//128
f 87//128 89//128 37//128
f 37//128 89//128 91//128
f 37//128 91//128 93//128
f 93//128 95//128 37//128
f 37//128 95//128 97//128
f 37//128 97//128 99//128
f 99//128 101//128 37//128
f 37//128 101//128 103//128
f 37//128 103//128 105//128
f 105//128 107//128 37//128
f 37//128 107//128 109//128
f 37//128 109//128 111//128
f 206//129 5//129 209//129
f 209//130 5//130 6//130
f 209//130 6//130 210//130
f 210//131 6//131 7//131
f 210//132 7//132 211//132
f 209//132 212//132 206//132
f 35//133 8//133 213//133
f 213//134 8//134 214//134
f 211//128 213//128 210//128
f 210//128 213//128 214//128
f 210//128 214//128 215//128
f 120//135 216//135 26//135
f 26//135 216//135 215//135
f 26//135 215//135 8//135
f 8//136 215//136 214//136
f 120//135 208//135 216//135
f 216//137 208//137 217//137
f 208//138 207//138 217//138
f 217//133 207//133 218//133
f 216//3 217//3 209//3
f 209//3 217//3 218//3
f 209//3 218//3 212//3
f 215//139 216//139 210//139
f 210//139 216//139 209//139
f 207//140 206//140 218//140
f 218//140 206//140 212//140
f 213//140 211//140 35//140
f 35//140 211//140 7//140
#432 polygons

