# Aspose.3D Wavefront OBJ Exporter
# Copyright 2004-2023 Aspose Pty Ltd.
# File created: 06/29/2023 04:25:43


#
# object obj_55120448
#

v -20.18955230712890624 -279.1881103515625 33.20597839355468752
v -15.30711078643798828 -303.82611083984375008 25.17577552795410156
v -12.03104877471923828 -303.82611083984375008 26.8957462310791016
v -15.8685379028320312 -279.1881103515625 35.47456359863281248
v -8.5652494430541992 -303.82611083984375008 28.19155502319335936
v -11.2972688674926758 -279.1881103515625 37.18368911743164064
v -4.96437120437622064 -303.82611083984375008 29.04276657104492187
v -6.54783439636230472 -279.1881103515625 38.30640792846679688
v -1.28520166873931884 -303.82611083984375008 29.43595695495605472
v -1.69513666629791256 -279.1881103515625 38.82501220703124992
v 2.41423630714416504 -303.82611083984375008 29.3649234771728516
v 3.1842942237854004 -279.1881103515625 38.7313232421875
v 6.07560014724731445 -303.82611083984375008 28.83078956604003904
v 8.01350688934326172 -279.1881103515625 38.02681732177734375
v 9.64114856719970704 -303.82611083984375008 27.84197425842285152
v 12.71634197235107424 -279.1881103515625 36.72260284423828128
v 13.05464935302734375 -303.82611083984375008 26.41407585144042968
v 17.21863174438476564 -279.1881103515625 34.83925628662109376
v 16.26227188110351564 -303.82611083984375008 24.56961250305175784
v 21.44937515258789064 -279.1881103515625 32.40647125244140624
v 19.21342658996582032 -303.82611083984375008 22.33766937255859376
v 25.34184837341308592 -279.1881103515625 29.46261596679687504
v 21.8615760803222656 -303.82611083984375008 19.75345039367675776
v 28.83466529846191408 -279.1881103515625 26.05411911010742188
v 24.16495513916015624 -303.82611083984375008 16.85770606994628912
v 31.87274169921875008 -279.1881103515625 22.23473358154296876
v 26.08723831176757812 -303.82611083984375008 13.69610595703125
v 34.40816879272460936 -279.1881103515625 18.06469154357910156
v 27.59811019897460936 -303.82611083984375008 10.3185100555419922
v 36.40095520019531248 -279.1881103515625 13.60975933074951168
v 28.67374229431152344 -303.82611083984375008 6.77818536758422848
v 37.81967926025390624 -279.1881103515625 8.9401931762695312
v 29.29717254638671876 -303.82611083984375008 3.13096451759338378
v 38.64196014404296872 -279.1881103515625 4.12963438034057618
v 29.45857048034667968 -303.82611083984375008 -0.56563341617584232
v 38.85483932495117184 -279.1881103515625 -0.746051013469696
v 29.15538787841796876 -303.82611083984375008 -4.25331115722656248
v 38.4549522399902344 -279.1881103515625 -5.60997056961059568
v 28.39240837097167968 -303.82611083984375008 -7.87391138076782224
v 37.4486083984375 -279.1881103515625 -10.38541793823242184
v 27.18166160583496092 -303.82611083984375008 -11.37033557891845704
v 35.8516769409179688 -279.1881103515625 -14.99708080291748048
v 25.54224586486816408 -303.82611083984375008 -14.6874427795410156
v 33.68934249877929688 -279.1881103515625 -19.37223052978515624
v 23.50001335144042968 -303.82611083984375008 -17.77292060852050784
v 30.99570655822753904 -279.1881103515625 -23.44186973571777344
v 21.08717155456542969 -303.82611083984375008 -20.57810783386230472
v 27.81325149536132816 -279.1881103515625 -27.141815185546875
v 18.34177207946777344 -303.82611083984375008 -23.05876731872558594
v 24.19216346740722656 -279.1881103515625 -30.41371726989746096
v 15.30711078643798828 -303.82611083984375008 -25.17577552795410156
v 20.18955230712890624 -279.1881103515625 -33.20597839355468752
v 12.03104877471923828 -303.82611083984375008 -26.8957462310791016
v 15.8685379028320312 -279.1881103515625 -35.47456359863281248
v 8.5652494430541992 -303.82611083984375008 -28.19155502319335936
v 11.2972688674926758 -279.1881103515625 -37.18368911743164064
v 4.96437120437622064 -303.82611083984375008 -29.04276657104492187
v 6.54783439636230472 -279.1881103515625 -38.30640792846679688
v 1.28520166873931884 -303.82611083984375008 -29.43595695495605472
v 1.69513666629791256 -279.1881103515625 -38.82501220703124992
v -2.41423630714416504 -303.82611083984375008 -29.3649234771728516
v -3.1842942237854004 -279.1881103515625 -38.7313232421875
v -6.07560014724731445 -303.82611083984375008 -28.83078956604003904
v -8.01350688934326172 -279.1881103515625 -38.02681732177734375
v -9.64114856719970704 -303.82611083984375008 -27.84197425842285152
v -12.71634197235107424 -279.1881103515625 -36.72260284423828128
v -13.05464935302734375 -303.82611083984375008 -26.41407585144042968
v -17.21863174438476564 -279.1881103515625 -34.83925628662109376
v -16.26227188110351564 -303.82611083984375008 -24.56961250305175784
v -21.44937515258789064 -279.1881103515625 -32.40647125244140624
v -19.21342658996582032 -303.82611083984375008 -22.33766937255859376
v -25.34184837341308592 -279.1881103515625 -29.46261596679687504
v -21.8615760803222656 -303.82611083984375008 -19.75345039367675776
v -28.83466529846191408 -279.1881103515625 -26.05411911010742188
v -24.16495513916015624 -303.82611083984375008 -16.85770606994628912
v -31.87274169921875008 -279.1881103515625 -22.23473358154296876
v -26.08723831176757812 -303.82611083984375008 -13.69610595703125
v -34.40816879272460936 -279.1881103515625 -18.06469154357910156
v -27.59811019897460936 -303.82611083984375008 -10.3185100555419922
v -36.40095520019531248 -279.1881103515625 -13.60975933074951168
v -28.67374229431152344 -303.82611083984375008 -6.77818536758422848
v -37.81967926025390624 -279.1881103515625 -8.9401931762695312
v -29.29717254638671876 -303.82611083984375008 -3.13096451759338378
v -38.64196014404296872 -279.1881103515625 -4.12963438034057618
v -29.45857048034667968 -303.82611083984375008 0.56563341617584232
v -38.85483932495117184 -279.1881103515625 0.746051013469696
v -29.15538787841796876 -303.82611083984375008 4.25331115722656248
v -38.4549522399902344 -279.1881103515625 5.60997056961059568
v -28.39240837097167968 -303.82611083984375008 7.87391138076782224
v -37.4486083984375 -279.1881103515625 10.38541793823242184
v -27.18166160583496092 -303.82611083984375008 11.37033557891845704
v -35.8516769409179688 -279.1881103515625 14.99708080291748048
v -25.54224586486816408 -303.82611083984375008 14.6874427795410156
v -33.68934249877929688 -279.1881103515625 19.37223052978515624
v -23.50001335144042968 -303.82611083984375008 17.77292060852050784
v -30.99570655822753904 -279.1881103515625 23.44186973571777344
v -21.08717155456542969 -303.82611083984375008 20.57810783386230472
v -27.81325149536132816 -279.1881103515625 27.141815185546875
v -18.34177207946777344 -303.82611083984375008 23.05876731872558594
v -24.19216346740722656 -279.1881103515625 30.41371726989746096
v 7.15060043334960938 -303.82611083984375008 -18.34034156799316408
v 3.85719990730285648 -303.82611083984375008 -19.30340003967285156
v 0.44660016894340512 -303.82611083984375008 -19.6799335479736328
v 18.64583396911621096 -303.82611083984375008 -6.31126689910888672
v 17.26662254333496092 -303.82611083984375008 -9.45319938659667968
v -6.31126689910888672 -303.82611083984375008 -18.64583396911621096
v -2.97756934165954592 -303.82611083984375008 -19.4585018157958984
v 15.36277294158935544 -303.82611083984375008 -12.30790138244628908
v 19.4585018157958984 -303.82611083984375008 -2.97756934165954592
v 19.30340003967285156 -303.82611083984375008 3.85719990730285648
v 10.22673416137695312 -303.82611083984375008 -16.82002258300781248
v 12.9921331405639648 -303.82611083984375008 -14.7886343002319336
v 19.6799335479736328 -303.82611083984375008 0.44660016894340512
v 18.34034156799316408 -303.82611083984375008 7.15060043334960938
v 14.7886343002319336 -303.82611083984375008 12.9921331405639648
v 16.82002258300781248 -303.82611083984375008 10.22673416137695312
v -15.36277294158935544 -303.82611083984375008 12.30790138244628908
v -18.64583396911621096 -303.82611083984375008 6.31126689910888672
v -17.26662254333496092 -303.82611083984375008 9.45319938659667968
v 12.30790138244628908 -303.82611083984375008 15.36277294158935544
v 9.45319938659667968 -303.82611083984375008 17.26662254333496092
v -0.44660016894340512 -303.82611083984375008 19.6799335479736328
v -7.15060043334960938 -303.82611083984375008 18.34034156799316408
v -3.85719990730285648 -303.82611083984375008 19.30340003967285156
v -10.22673416137695312 -303.82611083984375008 16.82002258300781248
v -12.9921331405639648 -303.82611083984375008 14.7886343002319336
v -19.4585018157958984 -303.82611083984375008 2.97756934165954592
v -9.45319938659667968 -303.82611083984375008 -17.26662254333496092
v -12.30790138244628908 -303.82611083984375008 -15.36277294158935544
v 6.31126689910888672 -303.82611083984375008 18.64583396911621096
v 2.97756934165954592 -303.82611083984375008 19.4585018157958984
v -19.6799335479736328 -303.82611083984375008 -0.44660016894340512
v -19.30340003967285156 -303.82611083984375008 -3.85719990730285648
v -14.7886343002319336 -303.82611083984375008 -12.9921331405639648
v -18.34034156799316408 -303.82611083984375008 -7.15060043334960938
v -16.82002258300781248 -303.82611083984375008 -10.22673416137695312
v -10.22673416137695312 -298.23809814453125 16.82002258300781248
v -7.15060043334960938 -298.23809814453125 18.34034156799316408
v -3.85719990730285648 -298.23809814453125 19.30340003967285156
v -0.44660016894340512 -298.23809814453125 19.6799335479736328
v 2.97756934165954592 -298.23809814453125 19.4585018157958984
v 6.31126689910888672 -298.23809814453125 18.64583396911621096
v 9.45319938659667968 -298.23809814453125 17.26662254333496092
v 12.30790138244628908 -298.23809814453125 15.36277294158935544
v 14.7886343002319336 -298.23809814453125 12.9921331405639648
v 16.82002258300781248 -298.23809814453125 10.22673416137695312
v 18.34034156799316408 -298.23809814453125 7.15060043334960938
v 19.30340003967285156 -298.23809814453125 3.85719990730285648
v 19.6799335479736328 -298.23809814453125 0.44660016894340512
v 19.4585018157958984 -298.23809814453125 -2.97756934165954592
v 18.64583396911621096 -298.23809814453125 -6.31126689910888672
v 17.26662254333496092 -298.23809814453125 -9.45319938659667968
v 15.36277294158935544 -298.23809814453125 -12.30790138244628908
v 12.9921331405639648 -298.23809814453125 -14.7886343002319336
v 10.22673416137695312 -298.23809814453125 -16.82002258300781248
v 7.15060043334960938 -298.23809814453125 -18.34034156799316408
v 3.85719990730285648 -298.23809814453125 -19.30340003967285156
v 0.44660016894340512 -298.23809814453125 -19.6799335479736328
v -2.97756934165954592 -298.23809814453125 -19.4585018157958984
v -6.31126689910888672 -298.23809814453125 -18.64583396911621096
v -9.45319938659667968 -298.23809814453125 -17.26662254333496092
v -12.30790138244628908 -298.23809814453125 -15.36277294158935544
v -14.7886343002319336 -298.23809814453125 -12.9921331405639648
v -16.82002258300781248 -298.23809814453125 -10.22673416137695312
v -18.34034156799316408 -298.23809814453125 -7.15060043334960938
v -19.30340003967285156 -298.23809814453125 -3.85719990730285648
v -19.6799335479736328 -298.23809814453125 -0.44660016894340512
v -19.4585018157958984 -298.23809814453125 2.97756934165954592
v -18.64583396911621096 -298.23809814453125 6.31126689910888672
v -17.26662254333496092 -298.23809814453125 9.45319938659667968
v -15.36277294158935544 -298.23809814453125 12.30790138244628908
v -12.9921331405639648 -298.23809814453125 14.7886343002319336
v 11.86760330200195312 -279.1881103515625 -27.79875946044921872
v 15.70298480987548832 -279.1881103515625 -25.82687187194824224
v 7.79063272476196288 -279.1881103515625 -29.2047443389892578
v -0.75287020206451424 -279.1881103515625 -30.21662139892578124
v 3.55506658554077152 -279.1881103515625 -30.016204833984375
v -5.04548072814941406 -279.1881103515625 -29.80191612243652336
v -9.2353801727294922 -279.1881103515625 -28.7805290222167968
v -13.2372732162475586 -279.1881103515625 -27.17325210571289062
v -16.96969413757324224 -279.1881103515625 -25.01280784606933593
v -11.86760330200195312 -279.1881103515625 27.79875946044921872
v -15.70298480987548832 -279.1881103515625 25.82687187194824224
v -7.79063272476196288 -279.1881103515625 29.2047443389892578
v -20.3566608428955078 -279.1881103515625 -22.34317398071289064
v -23.3292236328125 -279.1881103515625 -19.21869850158691408
v -25.01280784606933593 -279.1881103515625 16.96969413757324224
v 29.80191612243652336 -279.1881103515625 -5.04548072814941406
v 30.21662139892578124 -279.1881103515625 -0.75287020206451424
v 28.7805290222167968 -279.1881103515625 -9.2353801727294922
v -27.17325210571289062 -279.1881103515625 13.2372732162475586
v -28.7805290222167968 -279.1881103515625 9.2353801727294922
v -22.34317398071289064 -279.1881103515625 20.3566608428955078
v -19.21869850158691408 -279.1881103515625 23.3292236328125
v -3.55506658554077152 -279.1881103515625 30.016204833984375
v 0.75287020206451424 -279.1881103515625 30.21662139892578124
v 30.016204833984375 -279.1881103515625 3.55506658554077152
v 27.17325210571289062 -279.1881103515625 -13.2372732162475586
v 25.01280784606933593 -279.1881103515625 -16.96969413757324224
v 22.34317398071289064 -279.1881103515625 -20.3566608428955078
v 19.21869850158691408 -279.1881103515625 -23.3292236328125
v -27.79875946044921872 -279.1881103515625 -11.86760330200195312
v -29.80191612243652336 -279.1881103515625 5.04548072814941406
v -30.21662139892578124 -279.1881103515625 0.75287020206451424
v -25.82687187194824224 -279.1881103515625 -15.70298480987548832
v -29.2047443389892578 -279.1881103515625 -7.79063272476196288
v 5.04548072814941406 -279.1881103515625 29.80191612243652336
v 9.2353801727294922 -279.1881103515625 28.7805290222167968
v 13.2372732162475586 -279.1881103515625 27.17325210571289062
v 25.82687187194824224 -279.1881103515625 15.70298480987548832
v 23.3292236328125 -279.1881103515625 19.21869850158691408
v 27.79875946044921872 -279.1881103515625 11.86760330200195312
v 29.2047443389892578 -279.1881103515625 7.79063272476196288
v -30.016204833984375 -279.1881103515625 -3.55506658554077152
v 16.96969413757324224 -279.1881103515625 25.01280784606933593
v 20.3566608428955078 -279.1881103515625 22.34317398071289064
v 30.016204833984375 -298.23809814453125 3.55506658554077152
v 30.21662139892578124 -298.23809814453125 -0.75287020206451424
v 29.2047443389892578 -298.23809814453125 7.79063272476196288
v 29.80191612243652336 -298.23809814453125 -5.04548072814941406
v 28.7805290222167968 -298.23809814453125 -9.2353801727294922
v 27.17325210571289062 -298.23809814453125 -13.2372732162475586
v 25.01280784606933593 -298.23809814453125 -16.96969413757324224
v -16.96969413757324224 -298.23809814453125 -25.01280784606933593
v -25.01280784606933593 -298.23809814453125 16.96969413757324224
v 22.34317398071289064 -298.23809814453125 -20.3566608428955078
v 19.21869850158691408 -298.23809814453125 -23.3292236328125
v 15.70298480987548832 -298.23809814453125 -25.82687187194824224
v 3.55506658554077152 -298.23809814453125 -30.016204833984375
v -0.75287020206451424 -298.23809814453125 -30.21662139892578124
v -13.2372732162475586 -298.23809814453125 -27.17325210571289062
v -20.3566608428955078 -298.23809814453125 -22.34317398071289064
v -23.3292236328125 -298.23809814453125 -19.21869850158691408
v -27.17325210571289062 -298.23809814453125 13.2372732162475586
v -22.34317398071289064 -298.23809814453125 20.3566608428955078
v -19.21869850158691408 -298.23809814453125 23.3292236328125
v -3.55506658554077152 -298.23809814453125 30.016204833984375
v 0.75287020206451424 -298.23809814453125 30.21662139892578124
v 7.79063272476196288 -298.23809814453125 -29.2047443389892578
v -25.82687187194824224 -298.23809814453125 -15.70298480987548832
v -30.016204833984375 -298.23809814453125 -3.55506658554077152
v -30.21662139892578124 -298.23809814453125 0.75287020206451424
v -29.80191612243652336 -298.23809814453125 5.04548072814941406
v -28.7805290222167968 -298.23809814453125 9.2353801727294922
v -15.70298480987548832 -298.23809814453125 25.82687187194824224
v -7.79063272476196288 -298.23809814453125 29.2047443389892578
v 5.04548072814941406 -298.23809814453125 29.80191612243652336
v 9.2353801727294922 -298.23809814453125 28.7805290222167968
v 16.96969413757324224 -298.23809814453125 25.01280784606933593
v 11.86760330200195312 -298.23809814453125 -27.79875946044921872
v -5.04548072814941406 -298.23809814453125 -29.80191612243652336
v -27.79875946044921872 -298.23809814453125 -11.86760330200195312
v -29.2047443389892578 -298.23809814453125 -7.79063272476196288
v -11.86760330200195312 -298.23809814453125 27.79875946044921872
v 13.2372732162475586 -298.23809814453125 27.17325210571289062
v -9.2353801727294922 -298.23809814453125 -28.7805290222167968
v 20.3566608428955078 -298.23809814453125 22.34317398071289064
v 23.3292236328125 -298.23809814453125 19.21869850158691408
v 25.82687187194824224 -298.23809814453125 15.70298480987548832
v 27.79875946044921872 -298.23809814453125 11.86760330200195312
v -19.93528366088867184 33.35924911499023436 282.74411010742187504
v -15.11433219909667968 25.29198074340820312 307.38211059570312496
v -11.82522583007812496 26.98687362670898432 307.38211059570312496
v -15.59706497192382816 35.59475708007812496 282.74411010742187504
v -8.34962844848632812 28.25616836547851564 307.38211059570312496
v -11.01287174224853515 37.26890945434570312 282.74411010742187504
v -4.74235200881958 29.07984542846679688 307.38211059570312496
v -6.25499916076660156 38.35531234741210936 282.74411010742187504
v -1.06028628349304199 29.44491577148437504 307.38211059570312496
v -1.398481011390686 38.83683013916015632 282.74411010742187504
v 2.63850092887878416 29.34562301635742188 307.38211059570312496
v 3.4800918102264404 38.70586395263671872 282.74411010742187504
v 6.29567766189575196 28.78353309631347664 307.38211059570312496
v 8.30378150939941408 37.9644851684570312 282.74411010742187504
v 9.85356712341308592 27.76750755310058592 307.38211059570312496
v 12.99651527404785152 36.6243858337402344 282.74411010742187504
v 13.25606060028076172 26.31357383728027344 307.38211059570312496
v 17.48428726196289064 34.70669555664062496 282.74411010742187504
v 16.44949722290039064 24.44465827941894528 307.38211059570312496
v 21.69631958007812496 32.24166107177734376 282.74411010742187504
v 19.38351631164550784 22.19023513793945312 307.38211059570312496
v 25.56619071960449216 29.2681560516357422 282.74411010742187504
v 22.01184654235839843 19.58586120605468752 307.38211059570312496
v 29.03286552429199219 25.83307456970214848 282.74411010742187504
v 24.29303550720214844 16.6726036071777344 307.38211059570312496
v 32.04167556762695312 21.990591049194336 282.74411010742187504
v 26.19110870361328124 13.49641132354736328 307.38211059570312496
v 34.5451698303222656 17.80130195617675776 282.74411010742187504
v 27.67613220214843752 10.10737133026123046 307.38211059570312496
v 36.50386428833007816 13.33127498626708984 282.74411010742187504
v 28.72468757629394528 6.5589327812194824 307.38211059570312496
v 37.88687133789062496 8.651005744934082 282.74411010742187504
v 29.32023811340332032 2.90705561637878416 307.38211059570312496
v 38.67238235473632816 3.834306001663208 282.74411010742187504
v 29.45339012145996096 -0.79066753387451168 307.38211059570312496
v 38.84800338745117184 -1.04286324977874756 282.74411010742187504
v 29.12204360961914062 -4.47592163085937504 307.38211059570312496
v 38.41097259521484376 -5.9035859107971192 282.74411010742187504
v 28.33142662048339844 -8.09058761596679688 307.38211059570312496
v 37.36817550659179688 -10.6712055206298828 282.74411010742187504
v 27.09400558471679688 -11.57765960693359376 307.38211059570312496
v 35.73605728149414064 -15.27053451538085936 282.74411010742187504
v 25.42929458618164064 -14.882145881652832 307.38211059570312496
v 33.54036331176757816 -19.62903785705566408 282.74411010742187504
v 23.36355018615722656 -17.95193099975585936 307.38211059570312496
v 30.81571578979492192 -23.677978515625 282.74411010742187504
v 20.92934799194335936 -20.73860359191894528 307.38211059570312496
v 27.60508728027343752 -27.35350418090820312 282.74411010742187504
v 18.16507720947265624 -23.19821739196777344 307.38211059570312496
v 23.9591102600097656 -30.59764862060546872 282.74411010742187504
v 15.11433219909667968 -25.29198074340820312 307.38211059570312496
v 19.93528366088867184 -33.35924911499023436 282.74411010742187504
v 11.82522583007812496 -26.98687362670898432 307.38211059570312496
v 15.59706497192382816 -35.59475708007812496 282.74411010742187504
v 8.34962844848632812 -28.25616836547851564 307.38211059570312496
v 11.01287174224853515 -37.26890945434570312 282.74411010742187504
v 4.74235200881958 -29.07984542846679688 307.38211059570312496
v 6.25499916076660156 -38.35531234741210936 282.74411010742187504
v 1.06028628349304199 -29.44491577148437504 307.38211059570312496
v 1.398481011390686 -38.83683013916015632 282.74411010742187504
v -2.63850092887878416 -29.34562301635742188 307.38211059570312496
v -3.4800918102264404 -38.70586395263671872 282.74411010742187504
v -6.29567766189575196 -28.78353309631347664 307.38211059570312496
v -8.30378150939941408 -37.9644851684570312 282.74411010742187504
v -9.85356712341308592 -27.76750755310058592 307.38211059570312496
v -12.99651527404785152 -36.6243858337402344 282.74411010742187504
v -13.25606060028076172 -26.31357383728027344 307.38211059570312496
v -17.48428726196289064 -34.70669555664062496 282.74411010742187504
v -16.44949722290039064 -24.44465827941894528 307.38211059570312496
v -21.69631958007812496 -32.24166107177734376 282.74411010742187504
v -19.38351631164550784 -22.19023513793945312 307.38211059570312496
v -25.56619071960449216 -29.2681560516357422 282.74411010742187504
v -22.01184654235839843 -19.58586120605468752 307.38211059570312496
v -29.03286552429199219 -25.83307456970214848 282.74411010742187504
v -24.29303550720214844 -16.6726036071777344 307.38211059570312496
v -32.04167556762695312 -21.990591049194336 282.74411010742187504
v -26.19110870361328124 -13.49641132354736328 307.38211059570312496
v -34.5451698303222656 -17.80130195617675776 282.74411010742187504
v -27.67613220214843752 -10.10737133026123046 307.38211059570312496
v -36.50386428833007816 -13.33127498626708984 282.74411010742187504
v -28.72468757629394528 -6.5589327812194824 307.38211059570312496
v -37.88687133789062496 -8.651005744934082 282.74411010742187504
v -29.32023811340332032 -2.90705561637878416 307.38211059570312496
v -38.67238235473632816 -3.834306001663208 282.74411010742187504
v -29.45339012145996096 0.79066753387451168 307.38211059570312496
v -38.84800338745117184 1.04286324977874756 282.74411010742187504
v -29.12204360961914062 4.47592163085937504 307.38211059570312496
v -38.41097259521484376 5.9035859107971192 282.74411010742187504
v -28.33142662048339844 8.09058761596679688 307.38211059570312496
v -37.36817550659179688 10.6712055206298828 282.74411010742187504
v -27.09400558471679688 11.57765960693359376 307.38211059570312496
v -35.73605728149414064 15.27053451538085936 282.74411010742187504
v -25.42929458618164064 14.882145881652832 307.38211059570312496
v -33.54036331176757816 19.62903785705566408 282.74411010742187504
v -23.36355018615722656 17.95193099975585936 307.38211059570312496
v -30.81571578979492192 23.677978515625 282.74411010742187504
v -20.92934799194335936 20.73860359191894528 307.38211059570312496
v -27.60508728027343752 27.35350418090820312 282.74411010742187504
v -18.16507720947265624 23.19821739196777344 307.38211059570312496
v -23.9591102600097656 30.59764862060546872 282.74411010742187504
v 7.01027965545654296 -18.39443397521972656 307.38211059570312496
v 3.70961785316467288 -19.3323040008544922 307.38211059570312496
v 0.29624101519584656 -19.68277168273925784 307.38211059570312496
v 18.59707450866699216 -6.45352840423583984 307.38211059570312496
v 17.19389915466308592 -9.5848331451416016 307.38211059570312496
v -6.45352840423583984 -18.59707450866699216 307.38211059570312496
v -3.12613677978515624 -19.4351863861083984 307.38211059570312496
v 15.26829719543457032 -12.42490768432617184 307.38211059570312496
v 19.4351863861083984 -3.12613677978515624 307.38211059570312496
v 19.3323040008544922 3.70961785316467288 307.38211059570312496
v 10.09793758392333984 -16.89765930175781248 307.38211059570312496
v 12.878774642944336 -14.8874568939208984 307.38211059570312496
v 19.68277168273925784 0.29624101519584656 307.38211059570312496
v 18.39443397521972656 7.01027965545654296 307.38211059570312496
v 14.8874568939208984 12.878774642944336 307.38211059570312496
v 16.89765930175781248 10.09793758392333984 307.38211059570312496
v -15.26829719543457032 12.42490768432617184 307.38211059570312496
v -18.59707450866699216 6.45352840423583984 307.38211059570312496
v -17.19389915466308592 9.5848331451416016 307.38211059570312496
v 12.42490768432617184 15.26829719543457032 307.38211059570312496
v 9.5848331451416016 17.19389915466308592 307.38211059570312496
v -0.29624101519584656 19.68277168273925784 307.38211059570312496
v -7.01027965545654296 18.39443397521972656 307.38211059570312496
v -3.70961785316467288 19.3323040008544922 307.38211059570312496
v -10.09793758392333984 16.89765930175781248 307.38211059570312496
v -12.878774642944336 14.8874568939208984 307.38211059570312496
v -19.4351863861083984 3.12613677978515624 307.38211059570312496
v -9.5848331451416016 -17.19389915466308592 307.38211059570312496
v -12.42490768432617184 -15.26829719543457032 307.38211059570312496
v 6.45352840423583984 18.59707450866699216 307.38211059570312496
v 3.12613677978515624 19.4351863861083984 307.38211059570312496
v -19.68277168273925784 -0.29624101519584656 307.38211059570312496
v -19.3323040008544922 -3.70961785316467288 307.38211059570312496
v -14.8874568939208984 -12.878774642944336 307.38211059570312496
v -18.39443397521972656 -7.01027965545654296 307.38211059570312496
v -16.89765930175781248 -10.09793758392333984 307.38211059570312496
v -10.09793758392333984 16.89765930175781248 301.79409790039062496
v -7.01027965545654296 18.39443397521972656 301.79409790039062496
v -3.70961785316467288 19.3323040008544922 301.79409790039062496
v -0.29624101519584656 19.68277168273925784 301.79409790039062496
v 3.12613677978515624 19.4351863861083984 301.79409790039062496
v 6.45352840423583984 18.59707450866699216 301.79409790039062496
v 9.5848331451416016 17.19389915466308592 301.79409790039062496
v 12.42490768432617184 15.26829719543457032 301.79409790039062496
v 14.8874568939208984 12.878774642944336 301.79409790039062496
v 16.89765930175781248 10.09793758392333984 301.79409790039062496
v 18.39443397521972656 7.01027965545654296 301.79409790039062496
v 19.3323040008544922 3.70961785316467288 301.79409790039062496
v 19.68277168273925784 0.29624101519584656 301.79409790039062496
v 19.4351863861083984 -3.12613677978515624 301.79409790039062496
v 18.59707450866699216 -6.45352840423583984 301.79409790039062496
v 17.19389915466308592 -9.5848331451416016 301.79409790039062496
v 15.26829719543457032 -12.42490768432617184 301.79409790039062496
v 12.878774642944336 -14.8874568939208984 301.79409790039062496
v 10.09793758392333984 -16.89765930175781248 301.79409790039062496
v 7.01027965545654296 -18.39443397521972656 301.79409790039062496
v 3.70961785316467288 -19.3323040008544922 301.79409790039062496
v 0.29624101519584656 -19.68277168273925784 301.79409790039062496
v -3.12613677978515624 -19.4351863861083984 301.79409790039062496
v -6.45352840423583984 -18.59707450866699216 301.79409790039062496
v -9.5848331451416016 -17.19389915466308592 301.79409790039062496
v -12.42490768432617184 -15.26829719543457032 301.79409790039062496
v -14.8874568939208984 -12.878774642944336 301.79409790039062496
v -16.89765930175781248 -10.09793758392333984 301.79409790039062496
v -18.39443397521972656 -7.01027965545654296 301.79409790039062496
v -19.3323040008544922 -3.70961785316467288 301.79409790039062496
v -19.68277168273925784 -0.29624101519584656 301.79409790039062496
v -19.4351863861083984 3.12613677978515624 301.79409790039062496
v -18.59707450866699216 6.45352840423583984 301.79409790039062496
v -17.19389915466308592 9.5848331451416016 301.79409790039062496
v -15.26829719543457032 12.42490768432617184 301.79409790039062496
v -12.878774642944336 14.8874568939208984 301.79409790039062496
v 11.65488719940185544 -27.88861274719238288 282.74411010742187504
v 15.50522041320800784 -25.94608306884765632 282.74411010742187504
v 7.567293643951416 -29.26340866088867188 282.74411010742187504
v -0.98369002342224128 -30.2099895477294922 282.74411010742187504
v 3.3256521224975586 -30.04248809814453125 282.74411010742187504
v -5.2730073928833008 -29.76250076293945312 282.74411010742187504
v -9.45498085021972656 -28.70913505554199216 282.74411010742187504
v -13.44447898864746096 -27.07133293151855469 282.74411010742187504
v -17.16028594970703124 -24.882436752319336 282.74411010742187504
v -11.65488719940185544 27.88861274719238288 282.74411010742187504
v -15.50522041320800784 25.94608306884765632 282.74411010742187504
v -7.567293643951416 29.26340866088867188 282.74411010742187504
v -20.52675819396972656 -22.18700599670410156 282.74411010742187504
v -23.47536659240722656 -19.03991127014160156 282.74411010742187504
v -24.882436752319336 17.16028594970703124 282.74411010742187504
v 29.76250076293945312 -5.2730073928833008 282.74411010742187504
v 30.2099895477294922 -0.98369002342224128 282.74411010742187504
v 28.70913505554199216 -9.45498085021972656 282.74411010742187504
v -27.07133293151855469 13.44447898864746096 282.74411010742187504
v -28.70913505554199216 9.45498085021972656 282.74411010742187504
v -22.18700599670410156 20.52675819396972656 282.74411010742187504
v -19.03991127014160156 23.47536659240722656 282.74411010742187504
v -3.3256521224975586 30.04248809814453125 282.74411010742187504
v 0.98369002342224128 30.2099895477294922 282.74411010742187504
v 30.04248809814453125 3.3256521224975586 282.74411010742187504
v 27.07133293151855469 -13.44447898864746096 282.74411010742187504
v 24.882436752319336 -17.16028594970703124 282.74411010742187504
v 22.18700599670410156 -20.52675819396972656 282.74411010742187504
v 19.03991127014160156 -23.47536659240722656 282.74411010742187504
v -27.88861274719238288 -11.65488719940185544 282.74411010742187504
v -29.76250076293945312 5.2730073928833008 282.74411010742187504
v -30.2099895477294922 0.98369002342224128 282.74411010742187504
v -25.94608306884765632 -15.50522041320800784 282.74411010742187504
v -29.26340866088867188 -7.567293643951416 282.74411010742187504
v 5.2730073928833008 29.76250076293945312 282.74411010742187504
v 9.45498085021972656 28.70913505554199216 282.74411010742187504
v 13.44447898864746096 27.07133293151855469 282.74411010742187504
v 25.94608306884765632 15.50522041320800784 282.74411010742187504
v 23.47536659240722656 19.03991127014160156 282.74411010742187504
v 27.88861274719238288 11.65488719940185544 282.74411010742187504
v 29.26340866088867188 7.567293643951416 282.74411010742187504
v -30.04248809814453125 -3.3256521224975586 282.74411010742187504
v 17.16028594970703124 24.882436752319336 282.74411010742187504
v 20.52675819396972656 22.18700599670410156 282.74411010742187504
v 30.04248809814453125 3.3256521224975586 301.79409790039062496
v 30.2099895477294922 -0.98369002342224128 301.79409790039062496
v 29.26340866088867188 7.567293643951416 301.79409790039062496
v 29.76250076293945312 -5.2730073928833008 301.79409790039062496
v 28.70913505554199216 -9.45498085021972656 301.79409790039062496
v 27.07133293151855469 -13.44447898864746096 301.79409790039062496
v 24.882436752319336 -17.16028594970703124 301.79409790039062496
v -17.16028594970703124 -24.882436752319336 301.79409790039062496
v -24.882436752319336 17.16028594970703124 301.79409790039062496
v 22.18700599670410156 -20.52675819396972656 301.79409790039062496
v 19.03991127014160156 -23.47536659240722656 301.79409790039062496
v 15.50522041320800784 -25.94608306884765632 301.79409790039062496
v 3.3256521224975586 -30.04248809814453125 301.79409790039062496
v -0.98369002342224128 -30.2099895477294922 301.79409790039062496
v -13.44447898864746096 -27.07133293151855469 301.79409790039062496
v -20.52675819396972656 -22.18700599670410156 301.79409790039062496
v -23.47536659240722656 -19.03991127014160156 301.79409790039062496
v -27.07133293151855469 13.44447898864746096 301.79409790039062496
v -22.18700599670410156 20.52675819396972656 301.79409790039062496
v -19.03991127014160156 23.47536659240722656 301.79409790039062496
v -3.3256521224975586 30.04248809814453125 301.79409790039062496
v 0.98369002342224128 30.2099895477294922 301.79409790039062496
v 7.567293643951416 -29.26340866088867188 301.79409790039062496
v -25.94608306884765632 -15.50522041320800784 301.79409790039062496
v -30.04248809814453125 -3.3256521224975586 301.79409790039062496
v -30.2099895477294922 0.98369002342224128 301.79409790039062496
v -29.76250076293945312 5.2730073928833008 301.79409790039062496
v -28.70913505554199216 9.45498085021972656 301.79409790039062496
v -15.50522041320800784 25.94608306884765632 301.79409790039062496
v -7.567293643951416 29.26340866088867188 301.79409790039062496
v 5.2730073928833008 29.76250076293945312 301.79409790039062496
v 9.45498085021972656 28.70913505554199216 301.79409790039062496
v 17.16028594970703124 24.882436752319336 301.79409790039062496
v 11.65488719940185544 -27.88861274719238288 301.79409790039062496
v -5.2730073928833008 -29.76250076293945312 301.79409790039062496
v -27.88861274719238288 -11.65488719940185544 301.79409790039062496
v -29.26340866088867188 -7.567293643951416 301.79409790039062496
v -11.65488719940185544 27.88861274719238288 301.79409790039062496
v 13.44447898864746096 27.07133293151855469 301.79409790039062496
v -9.45498085021972656 -28.70913505554199216 301.79409790039062496
v 20.52675819396972656 22.18700599670410156 301.79409790039062496
v 23.47536659240722656 19.03991127014160156 301.79409790039062496
v 25.94608306884765632 15.50522041320800784 301.79409790039062496
v 27.88861274719238288 11.65488719940185544 301.79409790039062496
# 520 vertices

vn -0.43442702293396 -0.3557816743850708 0.82746154069900512
vn -0.32729300856590272 -0.3557816743850708 0.87538486719131472
vn -0.21499738097190856 -0.3557816743850708 0.90950292348861696
vn -0.09931112080812454 -0.3557816743850708 0.92927753925323488
vn 0.01794133707880973 -0.3557816743850708 0.93439686298370368
vn 0.13491085171699524 -0.3557816743850708 0.92478024959564208
vn 0.24975273013114928 -0.3557816743850708 0.90057921409606928
vn 0.36065587401390072 -0.3557816743850708 0.86217558383941648
vn 0.46587124466896056 -0.3557816743850708 0.8101748824119568
vn 0.56373953819274904 -0.3557816743850708 0.74539726972579952
vn 0.65271735191345216 -0.3557816743850708 0.66886430978775024
vn 0.73140138387680048 -0.3557816743850708 0.58178293704986576
vn 0.79855084419250496 -0.3557816743850708 0.48552650213241576
vn 0.8531066179275512 -0.3557816743850708 0.38161301612854
vn 0.89420843124389648 -0.3557816743850708 0.27168127894401552
vn 0.92120802402496336 -0.3557816743850708 0.15746496617794036
vn 0.93367958068847664 -0.3557816743850708 0.04076533019542694
vn 0.93142652511596672 -0.3557816743850708 -0.07657720148563385
vn 0.91448426246643072 -0.3557816743850708 -0.19271205365657808
vn 0.88312005996704096 -0.3557816743850708 -0.30580773949623108
vn 0.837828516960144 -0.3557816743850708 -0.41408064961433408
vn 0.779323935508728 -0.3557816743850708 -0.51582324504852296
vn 0.70852893590927128 -0.3557816743850708 -0.60943102836608888
vn 0.62655997276306152 -0.3557816743850708 -0.69342768192291256
vn 0.53470987081527712 -0.3557816743850708 -0.76648861169815056
vn 0.43442702293396 -0.3557816743850708 -0.82746154069900512
vn 0.32729300856590272 -0.3557816743850708 -0.87538486719131472
vn 0.21499738097190856 -0.3557816743850708 -0.90950292348861696
vn 0.09931112080812454 -0.3557816743850708 -0.92927753925323488
vn -0.01794133707880973 -0.3557816743850708 -0.93439686298370368
vn -0.13491085171699524 -0.3557816743850708 -0.92478024959564208
vn -0.24975273013114928 -0.3557816743850708 -0.90057921409606928
vn -0.36065587401390072 -0.3557816743850708 -0.86217558383941648
vn -0.46587124466896056 -0.3557816743850708 -0.8101748824119568
vn -0.56373953819274904 -0.3557816743850708 -0.74539726972579952
vn -0.65271735191345216 -0.3557816743850708 -0.66886430978775024
vn -0.73140138387680048 -0.3557816743850708 -0.58178293704986576
vn -0.79855084419250496 -0.3557816743850708 -0.48552650213241576
vn -0.8531066179275512 -0.3557816743850708 -0.38161301612854
vn -0.89420843124389648 -0.3557816743850708 -0.27168127894401552
vn -0.92120802402496336 -0.3557816743850708 -0.15746496617794036
vn -0.93367958068847664 -0.3557816743850708 -0.04076533019542694
vn -0.93142652511596672 -0.3557816743850708 0.07657720148563385
vn -0.91448426246643072 -0.3557816743850708 0.19271205365657808
vn -0.88312005996704096 -0.3557816743850708 0.30580773949623108
vn -0.837828516960144 -0.3557816743850708 0.41408064961433408
vn -0.779323935508728 -0.3557816743850708 0.51582324504852296
vn -0.70852893590927128 -0.3557816743850708 0.60943102836608888
vn -0.62655997276306152 -0.3557816743850708 0.69342768192291256
vn -0.53470987081527712 -0.3557816743850708 0.76648861169815056
vn 0 -1 0
vn 0.44307118654251096 0 -0.8964864015579224
vn 0.28066670894622804 0 -0.95980530977249152
vn 0.10973431169986724 0 -0.99396097660064704
vn -0.06453230977058411 0 -0.99791562557220464
vn -0.23683814704418184 0 -0.97154909372329712
vn -0.40194776654243472 0 -0.91566258668899536
vn -0.5548444390296936 0 -0.83195412158966064
vn -0.69088238477706912 0 -0.72296714782714848
vn -0.80592828989028928 0 -0.59201318025588992
vn -0.8964864015579224 0 -0.44307118654251096
vn -0.95980530977249152 0 -0.28066670894622804
vn -0.99396097660064704 0 -0.10973431169986724
vn -0.99791562557220464 0 0.06453230977058411
vn -0.97154909372329712 0 0.23683814704418184
vn -0.91566258668899536 0 0.40194776654243472
vn -0.83195412158966064 0 0.5548444390296936
vn -0.72296714782714848 0 0.69088238477706912
vn -0.59201318025588992 0 0.80592828989028928
vn -0.44307118654251096 0 0.8964864015579224
vn -0.28066670894622804 0 0.95980530977249152
vn -0.10973431169986724 0 0.99396097660064704
vn 0.06453230977058411 0 0.99791562557220464
vn 0.23683814704418184 0 0.97154909372329712
vn 0.40194776654243472 0 0.91566258668899536
vn 0.5548444390296936 0 0.83195412158966064
vn 0.69088238477706912 0 0.72296714782714848
vn 0.80592828989028928 0 0.59201318025588992
vn 0.8964864015579224 0 0.44307118654251096
vn 0.95980530977249152 0 0.28066670894622804
vn 0.99396097660064704 0 0.10973431169986724
vn 0.99791562557220464 0 -0.06453230977058411
vn 0.97154909372329712 0 -0.23683814704418184
vn 0.91566258668899536 0 -0.40194776654243472
vn 0.83195412158966064 0 -0.5548444390296936
vn 0.72296714782714848 0 -0.69088238477706912
vn 0.59201318025588992 0 -0.80592828989028928
vn 0 1 0
vn 0.45723903179168704 0 -0.88934385776519776
vn 0.32601818442344664 0 -0.94536352157592768
vn 0.18816053867340088 0 -0.98213827610015872
vn 0.04647248238325119 0 -0.99891954660415648
vn -0.0961616188287735 0 -0.99536573886871344
vn -0.3726933300495148 0 -0.92795455455780032
vn -0.50096154212951664 0 -0.86546951532363888
vn -0.61903166770935056 0 -0.78536605834960944
vn -0.72450006008148192 0 -0.689274787902832
vn -0.81521970033645632 0 -0.57915180921554568
vn -0.88934385776519776 0 -0.45723903179168704
vn -0.94536352157592768 0 -0.32601818442344664
vn -0.98213827610015872 0 -0.18816053867340088
vn -0.99891954660415648 0 -0.04647248238325119
vn -0.99536573886871344 0 0.0961616188287735
vn -0.92795455455780032 0 0.3726933300495148
vn -0.86546951532363888 0 0.50096154212951664
vn -0.78536605834960944 0 0.61903166770935056
vn -0.689274787902832 0 0.72450006008148192
vn -0.57915180921554568 0 0.81521970033645632
vn -0.45723903179168704 0 0.88934385776519776
vn -0.32601818442344664 0 0.94536352157592768
vn -0.18816053867340088 0 0.98213827610015872
vn -0.04647248238325119 0 0.99891954660415648
vn 0.0961616188287735 0 0.99536573886871344
vn 0.3726933300495148 0 0.92795455455780032
vn 0.50096154212951664 0 0.86546951532363888
vn 0.61903166770935056 0 0.78536605834960944
vn 0.72450006008148192 0 0.689274787902832
vn 0.81521970033645632 0 0.57915180921554568
vn 0.88934385776519776 0 0.45723903179168704
vn 0.94536352157592768 0 0.32601818442344664
vn 0.98213827610015872 0 0.18816053867340088
vn 0.99891954660415648 0 0.04647248238325119
vn 0.99536573886871344 0 -0.0961616188287735
vn 0.92795455455780032 0 -0.3726933300495148
vn 0.86546951532363888 0 -0.50096154212951664
vn 0.78536605834960944 0 -0.61903166770935056
vn 0.689274787902832 0 -0.72450006008148192
vn 0.57915180921554568 0 -0.81521970033645632
vn -0.428092896938324 0.8307561874389648 0.3557816743850708
vn -0.3205958902835846 0.87785971164703376 0.3557816743850708
vn -0.20804288983345032 0.91111886501312256 0.3557816743850708
vn -0.09220894426107406 0.9300090670585632 0.3557816743850708
vn 0.02507919631898403 0.93423253297805792 0.3557816743850708
vn 0.14197182655334472 0.92372256517410272 0.3557816743850708
vn 0.25662547349929808 0.8986449837684632 0.3557816743850708
vn 0.3672319948673248 0.85939520597457888 0.3557816743850708
vn 0.47204703092575072 0.8065922260284424 0.3557816743850708
vn 0.56941759586334232 0.74106884002685552 0.3557816743850708
vn 0.65780812501907352 0.66385829448699952 0.3557816743850708
vn 0.73582464456558224 0.57617837190628048 0.3557816743850708
vn 0.80223673582077024 0.4794117510318756 0.3557816743850708
vn 0.85599708557128912 0.37508451938629152 0.3557816743850708
vn 0.8962578177452088 0.26484200358390808 0.3557816743850708
vn 0.92238408327102656 0.15042275190353394 0.3557816743850708
vn 0.9339637756347656 0.03363123536109924 0.3557816743850708
vn 0.93081432580947872 -0.08369065821170807 0.3557816743850708
vn 0.9129853248596192 -0.19969269633293152 0.3557816743850708
vn 0.88075804710388176 -0.31254547834396364 0.3557816743850708
vn 0.83464068174362176 -0.42046919465065 0.3557816743850708
vn 0.77536052465438848 -0.52176189422607424 0.3557816743850708
vn 0.70385247468948368 -0.61482608318328856 0.3557816743850708
vn 0.62124425172805784 -0.69819408655166624 0.3557816743850708
vn 0.5288386344909668 -0.77055120468139648 0.3557816743850708
vn 0.428092896938324 -0.8307561874389648 0.3557816743850708
vn 0.3205958902835846 -0.87785971164703376 0.3557816743850708
vn 0.20804288983345032 -0.91111886501312256 0.3557816743850708
vn 0.09220894426107406 -0.9300090670585632 0.3557816743850708
vn -0.02507919631898403 -0.93423253297805792 0.3557816743850708
vn -0.14197182655334472 -0.92372256517410272 0.3557816743850708
vn -0.25662547349929808 -0.8986449837684632 0.3557816743850708
vn -0.3672319948673248 -0.85939520597457888 0.3557816743850708
vn -0.47204703092575072 -0.8065922260284424 0.3557816743850708
vn -0.56941759586334232 -0.74106884002685552 0.3557816743850708
vn -0.65780812501907352 -0.66385829448699952 0.3557816743850708
vn -0.73582464456558224 -0.57617837190628048 0.3557816743850708
vn -0.80223673582077024 -0.4794117510318756 0.3557816743850708
vn -0.85599708557128912 -0.37508451938629152 0.3557816743850708
vn -0.8962578177452088 -0.26484200358390808 0.3557816743850708
vn -0.92238408327102656 -0.15042275190353394 0.3557816743850708
vn -0.9339637756347656 -0.03363123536109924 0.3557816743850708
vn -0.93081432580947872 0.08369065821170807 0.3557816743850708
vn -0.9129853248596192 0.19969269633293152 0.3557816743850708
vn -0.88075804710388176 0.31254547834396364 0.3557816743850708
vn -0.83464068174362176 0.42046919465065 0.3557816743850708
vn -0.77536052465438848 0.52176189422607424 0.3557816743850708
vn -0.70385247468948368 0.61482608318328856 0.3557816743850708
vn -0.62124425172805784 0.69819408655166624 0.3557816743850708
vn -0.5288386344909668 0.77055120468139648 0.3557816743850708
vn 0 0 1
vn 0.436209499835968 -0.89984512329101568 0
vn 0.27332603931427 -0.96192145347595216 0
vn 0.10213767737150192 -0.9947702884674072 0
vn -0.07215406745672226 -0.99739348888397216 0
vn -0.24425344169139864 -0.96971142292022704 0
vn -0.40893131494522096 -0.91256517171859744 0
vn -0.56118398904800416 -0.8276910781860352 0
vn -0.69638538360595704 -0.71766799688339232 0
vn -0.81042748689651488 -0.58583897352218624 0
vn -0.89984512329101568 -0.436209499835968 0
vn -0.96192145347595216 -0.27332603931427 0
vn -0.9947702884674072 -0.10213767737150192 0
vn -0.99739348888397216 0.07215406745672226 0
vn -0.96971142292022704 0.24425344169139864 0
vn -0.91256517171859744 0.40893131494522096 0
vn -0.8276910781860352 0.56118398904800416 0
vn -0.71766799688339232 0.69638538360595704 0
vn -0.58583897352218624 0.81042748689651488 0
vn -0.436209499835968 0.89984512329101568 0
vn -0.27332603931427 0.96192145347595216 0
vn -0.10213767737150192 0.9947702884674072 0
vn 0.07215406745672226 0.99739348888397216 0
vn 0.24425344169139864 0.96971142292022704 0
vn 0.40893131494522096 0.91256517171859744 0
vn 0.56118398904800416 0.8276910781860352 0
vn 0.69638538360595704 0.71766799688339232 0
vn 0.81042748689651488 0.58583897352218624 0
vn 0.89984512329101568 0.436209499835968 0
vn 0.96192145347595216 0.27332603931427 0
vn 0.9947702884674072 0.10213767737150192 0
vn 0.99739348888397216 -0.07215406745672226 0
vn 0.96971142292022704 -0.24425344169139864 0
vn 0.91256517171859744 -0.40893131494522096 0
vn 0.8276910781860352 -0.56118398904800416 0
vn 0.71766799688339232 -0.69638538360595704 0
vn 0.58583897352218624 -0.81042748689651488 0
vn 0 0 -1
vn 0.45043149590492248 -0.89281100034713744 0
vn 0.31878650188446044 -0.94782656431198128 0
vn 0.1806519329547882 -0.98354709148406976 0
vn 0.03883981332182884 -0.99924546480178832 0
vn -0.10376296937465668 -0.99460202455520624 0
vn -0.37977162003517152 -0.92508029937744144 0
vn -0.5075587630271912 -0.86161714792251584 0
vn -0.62501341104507448 -0.78061401844024656 0
vn -0.72974467277526848 -0.6837197542190552 0
vn -0.81962037086486816 -0.572907030582428 0
vn -0.89281100034713744 -0.45043149590492248 0
vn -0.94782656431198128 -0.31878650188446044 0
vn -0.98354709148406976 -0.1806519329547882 0
vn -0.99924546480178832 -0.03883981332182884 0
vn -0.99460202455520624 0.10376296937465668 0
vn -0.92508029937744144 0.37977162003517152 0
vn -0.86161714792251584 0.5075587630271912 0
vn -0.78061401844024656 0.62501341104507448 0
vn -0.6837197542190552 0.72974467277526848 0
vn -0.572907030582428 0.81962037086486816 0
vn -0.45043149590492248 0.89281100034713744 0
vn -0.31878650188446044 0.94782656431198128 0
vn -0.1806519329547882 0.98354709148406976 0
vn -0.03883981332182884 0.99924546480178832 0
vn 0.10376296937465668 0.99460202455520624 0
vn 0.37977162003517152 0.92508029937744144 0
vn 0.5075587630271912 0.86161714792251584 0
vn 0.62501341104507448 0.78061401844024656 0
vn 0.72974467277526848 0.6837197542190552 0
vn 0.81962037086486816 0.572907030582428 0
vn 0.89281100034713744 0.45043149590492248 0
vn 0.94782656431198128 0.31878650188446044 0
vn 0.98354709148406976 0.1806519329547882 0
vn 0.99924546480178832 0.03883981332182884 0
vn 0.99460202455520624 -0.10376296937465668 0
vn 0.92508029937744144 -0.37977162003517152 0
vn 0.86161714792251584 -0.5075587630271912 0
vn 0.78061401844024656 -0.62501341104507448 0
vn 0.6837197542190552 -0.72974467277526848 0
vn 0.572907030582428 -0.81962037086486816 0
# 256 vertex normals

g obj_55120448
s 1
f 1//1 2//1 3//1
f 4//2 3//2 5//2
f 6//3 5//3 7//3
f 8//4 7//4 9//4
f 10//5 9//5 11//5
f 12//6 11//6 13//6
f 14//7 13//7 15//7
f 16//8 15//8 17//8
f 18//9 17//9 19//9
f 20//10 19//10 21//10
f 22//11 21//11 23//11
f 24//12 23//12 25//12
f 26//13 25//13 27//13
f 28//14 27//14 29//14
f 30//15 29//15 31//15
f 32//16 31//16 33//16
f 34//17 33//17 35//17
f 36//18 35//18 37//18
f 38//19 37//19 39//19
f 40//20 39//20 41//20
f 42//21 41//21 43//21
f 44//22 43//22 45//22
f 46//23 45//23 47//23
f 48//24 47//24 49//24
f 50//25 49//25 51//25
f 51//25 52//25 50//25
f 49//24 50//24 48//24
f 47//23 48//23 46//23
f 45//22 46//22 44//22
f 43//21 44//21 42//21
f 41//20 42//20 40//20
f 39//19 40//19 38//19
f 37//18 38//18 36//18
f 35//17 36//17 34//17
f 33//16 34//16 32//16
f 31//15 32//15 30//15
f 29//14 30//14 28//14
f 27//13 28//13 26//13
f 25//12 26//12 24//12
f 23//11 24//11 22//11
f 21//10 22//10 20//10
f 19//9 20//9 18//9
f 17//8 18//8 16//8
f 15//7 16//7 14//7
f 13//6 14//6 12//6
f 11//5 12//5 10//5
f 9//4 10//4 8//4
f 7//3 8//3 6//3
f 5//2 6//2 4//2
f 3//1 4//1 1//1
f 52//26 51//26 53//26
f 54//27 53//27 55//27
f 56//28 55//28 57//28
f 58//29 57//29 59//29
f 60//30 59//30 61//30
f 62//31 61//31 63//31
f 64//32 63//32 65//32
f 66//33 65//33 67//33
f 68//34 67//34 69//34
f 70//35 69//35 71//35
f 72//36 71//36 73//36
f 74//37 73//37 75//37
f 76//38 75//38 77//38
f 78//39 77//39 79//39
f 80//40 79//40 81//40
f 82//41 81//41 83//41
f 84//42 83//42 85//42
f 86//43 85//43 87//43
f 88//44 87//44 89//44
f 90//45 89//45 91//45
f 92//46 91//46 93//46
f 94//47 93//47 95//47
f 96//48 95//48 97//48
f 98//49 97//49 99//49
f 100//50 99//50 2//50
f 2//50 1//50 100//50
f 99//49 100//49 98//49
f 97//48 98//48 96//48
f 95//47 96//47 94//47
f 93//46 94//46 92//46
f 91//45 92//45 90//45
f 89//44 90//44 88//44
f 87//43 88//43 86//43
f 85//42 86//42 84//42
f 83//41 84//41 82//41
f 81//40 82//40 80//40
f 79//39 80//39 78//39
f 77//38 78//38 76//38
f 75//37 76//37 74//37
f 73//36 74//36 72//36
f 71//35 72//35 70//35
f 69//34 70//34 68//34
f 67//33 68//33 66//33
f 65//32 66//32 64//32
f 63//31 64//31 62//31
f 61//30 62//30 60//30
f 59//29 60//29 58//29
f 57//28 58//28 56//28
f 55//27 56//27 54//27
f 53//26 54//26 52//26
f 55//51 101//51 102//51
f 61//51 59//51 103//51
f 57//51 102//51 103//51
f 102//51 57//51 55//51
f 41//51 104//51 105//51
f 67//51 65//51 106//51
f 63//51 107//51 106//51
f 107//51 63//51 61//51
f 55//51 53//51 101//51
f 45//51 43//51 105//51
f 105//51 43//51 41//51
f 106//51 65//51 63//51
f 103//51 59//51 57//51
f 47//51 45//51 108//51
f 41//51 39//51 104//51
f 39//51 37//51 109//51
f 33//51 31//51 110//51
f 103//51 107//51 61//51
f 53//51 51//51 111//51
f 49//51 112//51 111//51
f 112//51 49//51 47//51
f 109//51 104//51 39//51
f 35//51 113//51 109//51
f 113//51 35//51 33//51
f 31//51 29//51 114//51
f 25//51 23//51 115//51
f 111//51 101//51 53//51
f 108//51 112//51 47//51
f 109//51 37//51 35//51
f 114//51 110//51 31//51
f 27//51 116//51 114//51
f 116//51 27//51 25//51
f 97//51 95//51 117//51
f 91//51 118//51 119//51
f 111//51 51//51 49//51
f 110//51 113//51 33//51
f 115//51 116//51 25//51
f 21//51 120//51 115//51
f 19//51 121//51 120//51
f 11//51 9//51 122//51
f 5//51 123//51 124//51
f 3//51 2//51 125//51
f 99//51 126//51 125//51
f 126//51 99//51 97//51
f 95//51 93//51 119//51
f 119//51 93//51 91//51
f 89//51 87//51 127//51
f 69//51 128//51 129//51
f 105//51 108//51 45//51
f 115//51 23//51 21//51
f 120//51 21//51 19//51
f 17//51 15//51 130//51
f 13//51 131//51 130//51
f 131//51 13//51 11//51
f 7//51 124//51 122//51
f 124//51 7//51 5//51
f 125//51 2//51 99//51
f 119//51 117//51 95//51
f 127//51 118//51 89//51
f 85//51 132//51 127//51
f 83//51 81//51 133//51
f 71//51 129//51 134//51
f 129//51 71//51 69//51
f 114//51 29//51 27//51
f 130//51 121//51 17//51
f 122//51 131//51 11//51
f 5//51 3//51 123//51
f 117//51 126//51 97//51
f 127//51 87//51 85//51
f 132//51 85//51 83//51
f 81//51 79//51 135//51
f 75//51 73//51 134//51
f 69//51 67//51 128//51
f 19//51 17//51 121//51
f 122//51 9//51 7//51
f 91//51 89//51 118//51
f 135//51 133//51 81//51
f 77//51 136//51 135//51
f 134//51 73//51 71//51
f 130//51 15//51 13//51
f 133//51 132//51 83//51
f 135//51 79//51 77//51
f 106//51 128//51 67//51
f 77//51 75//51 136//51
f 125//51 123//51 3//51
f 134//51 136//51 75//51
f 123//52 125//52 137//52
f 124//53 123//53 138//53
f 122//54 124//54 139//54
f 131//55 122//55 140//55
f 130//56 131//56 141//56
f 121//57 130//57 142//57
f 120//58 121//58 143//58
f 115//59 120//59 144//59
f 116//60 115//60 145//60
f 114//61 116//61 146//61
f 110//62 114//62 147//62
f 113//63 110//63 148//63
f 109//64 113//64 149//64
f 104//65 109//65 150//65
f 105//66 104//66 151//66
f 108//67 105//67 152//67
f 112//68 108//68 153//68
f 111//69 112//69 154//69
f 154//69 155//69 111//69
f 153//68 154//68 112//68
f 152//67 153//67 108//67
f 151//66 152//66 105//66
f 150//65 151//65 104//65
f 149//64 150//64 109//64
f 148//63 149//63 113//63
f 147//62 148//62 110//62
f 146//61 147//61 114//61
f 145//60 146//60 116//60
f 144//59 145//59 115//59
f 143//58 144//58 120//58
f 142//57 143//57 121//57
f 141//56 142//56 130//56
f 140//55 141//55 131//55
f 139//54 140//54 122//54
f 138//53 139//53 124//53
f 137//52 138//52 123//52
f 101//70 111//70 155//70
f 102//71 101//71 156//71
f 103//72 102//72 157//72
f 107//73 103//73 158//73
f 106//74 107//74 159//74
f 128//75 106//75 160//75
f 129//76 128//76 161//76
f 134//77 129//77 162//77
f 136//78 134//78 163//78
f 135//79 136//79 164//79
f 133//80 135//80 165//80
f 132//81 133//81 166//81
f 127//82 132//82 167//82
f 118//83 127//83 168//83
f 119//84 118//84 169//84
f 117//85 119//85 170//85
f 126//86 117//86 171//86
f 125//87 126//87 172//87
f 172//87 137//87 125//87
f 171//86 172//86 126//86
f 170//85 171//85 117//85
f 169//84 170//84 119//84
f 168//83 169//83 118//83
f 167//82 168//82 127//82
f 166//81 167//81 132//81
f 165//80 166//80 133//80
f 164//79 165//79 135//79
f 163//78 164//78 136//78
f 162//77 163//77 134//77
f 161//76 162//76 129//76
f 160//75 161//75 128//75
f 159//74 160//74 106//74
f 158//73 159//73 107//73
f 157//72 158//72 103//72
f 156//71 157//71 102//71
f 155//70 156//70 101//70
f 54//88 173//88 174//88
f 56//88 175//88 173//88
f 60//88 176//88 177//88
f 62//88 64//88 178//88
f 64//88 66//88 179//88
f 66//88 68//88 180//88
f 70//88 181//88 180//88
f 4//88 182//88 183//88
f 6//88 184//88 182//88
f 50//88 52//88 174//88
f 173//88 54//88 56//88
f 58//88 177//88 175//88
f 177//88 58//88 60//88
f 179//88 178//88 64//88
f 180//88 68//88 70//88
f 72//88 185//88 181//88
f 74//88 186//88 185//88
f 94//88 96//88 187//88
f 100//88 1//88 183//88
f 182//88 4//88 6//88
f 38//88 188//88 189//88
f 40//88 190//88 188//88
f 174//88 52//88 54//88
f 60//88 62//88 176//88
f 180//88 179//88 66//88
f 185//88 72//88 74//88
f 92//88 191//88 192//88
f 191//88 92//88 94//88
f 96//88 98//88 193//88
f 98//88 100//88 194//88
f 183//88 1//88 4//88
f 8//88 195//88 184//88
f 10//88 196//88 195//88
f 32//88 34//88 197//88
f 34//88 36//88 189//88
f 188//88 38//88 40//88
f 42//88 198//88 190//88
f 44//88 46//88 199//88
f 46//88 48//88 200//88
f 48//88 50//88 201//88
f 175//88 56//88 58//88
f 181//88 70//88 72//88
f 78//88 80//88 202//88
f 88//88 203//88 204//88
f 90//88 192//88 203//88
f 187//88 191//88 94//88
f 194//88 193//88 98//88
f 184//88 6//88 8//88
f 195//88 8//88 10//88
f 189//88 197//88 34//88
f 190//88 40//88 42//88
f 198//88 42//88 44//88
f 201//88 200//88 48//88
f 178//88 176//88 62//88
f 76//88 205//88 186//88
f 205//88 76//88 78//88
f 80//88 82//88 206//88
f 203//88 88//88 90//88
f 193//88 187//88 96//88
f 10//88 12//88 196//88
f 12//88 14//88 207//88
f 14//88 16//88 208//88
f 16//88 18//88 209//88
f 26//88 210//88 211//88
f 28//88 30//88 212//88
f 30//88 32//88 213//88
f 189//88 36//88 38//88
f 200//88 199//88 46//88
f 186//88 74//88 76//88
f 206//88 202//88 80//88
f 82//88 84//88 214//88
f 84//88 86//88 204//88
f 192//88 90//88 92//88
f 207//88 196//88 12//88
f 209//88 208//88 16//88
f 20//88 215//88 209//88
f 24//88 211//88 216//88
f 211//88 24//88 26//88
f 213//88 212//88 30//88
f 199//88 198//88 44//88
f 202//88 205//88 78//88
f 204//88 214//88 84//88
f 183//88 194//88 100//88
f 209//88 18//88 20//88
f 22//88 216//88 215//88
f 26//88 28//88 210//88
f 197//88 213//88 32//88
f 214//88 206//88 82//88
f 208//88 207//88 14//88
f 216//88 22//88 24//88
f 174//88 201//88 50//88
f 215//88 20//88 22//88
f 204//88 86//88 88//88
f 212//88 210//88 28//88
f 217//88 218//88 149//88
f 219//88 148//88 147//88
f 148//88 219//88 217//88
f 149//88 148//88 217//88
f 218//88 220//88 150//88
f 150//88 149//88 218//88
f 220//88 221//88 151//88
f 151//88 150//88 220//88
f 222//88 152//88 151//88
f 223//88 153//88 152//88
f 224//88 162//88 161//88
f 225//88 171//88 170//88
f 151//88 221//88 222//88
f 152//88 222//88 223//88
f 226//88 227//88 154//88
f 227//88 228//88 155//88
f 229//88 230//88 158//88
f 161//88 231//88 224//88
f 232//88 233//88 163//88
f 170//88 234//88 225//88
f 235//88 236//88 172//88
f 237//88 238//88 140//88
f 223//88 226//88 153//88
f 155//88 154//88 227//88
f 239//88 157//88 156//88
f 157//88 239//88 229//88
f 163//88 162//88 232//88
f 233//88 240//88 164//88
f 241//88 242//88 167//88
f 242//88 243//88 168//88
f 244//88 169//88 168//88
f 172//88 171//88 235//88
f 236//88 245//88 137//88
f 246//88 139//88 138//88
f 139//88 246//88 237//88
f 238//88 247//88 141//88
f 247//88 248//88 142//88
f 249//88 144//88 143//88
f 154//88 153//88 226//88
f 250//88 156//88 155//88
f 158//88 157//88 229//88
f 230//88 251//88 159//88
f 164//88 163//88 233//88
f 252//88 165//88 164//88
f 253//88 166//88 165//88
f 166//88 253//88 241//88
f 168//88 243//88 244//88
f 234//88 170//88 169//88
f 137//88 172//88 236//88
f 254//88 138//88 137//88
f 140//88 139//88 237//88
f 142//88 141//88 247//88
f 255//88 143//88 142//88
f 143//88 255//88 249//88
f 155//88 228//88 250//88
f 159//88 158//88 230//88
f 251//88 256//88 160//88
f 231//88 161//88 160//88
f 164//88 240//88 252//88
f 167//88 166//88 241//88
f 169//88 244//88 234//88
f 137//88 245//88 254//88
f 141//88 140//88 238//88
f 249//88 257//88 144//88
f 257//88 258//88 145//88
f 258//88 259//88 146//88
f 156//88 250//88 239//88
f 160//88 256//88 231//88
f 165//88 252//88 253//88
f 225//88 235//88 171//88
f 142//88 248//88 255//88
f 146//88 145//88 258//88
f 260//88 147//88 146//88
f 160//88 159//88 251//88
f 168//88 167//88 242//88
f 145//88 144//88 257//88
f 147//88 260//88 219//88
f 138//88 254//88 246//88
f 224//88 232//88 162//88
f 146//88 259//88 260//88
f 254//89 245//89 183//89
f 246//90 254//90 182//90
f 237//91 246//91 184//91
f 238//92 237//92 195//92
f 247//93 238//93 196//93
f 248//56 247//56 207//56
f 255//94 248//94 208//94
f 249//95 255//95 209//95
f 257//96 249//96 215//96
f 258//97 257//97 216//97
f 259//98 258//98 211//98
f 260//99 259//99 210//99
f 219//100 260//100 212//100
f 217//101 219//101 213//101
f 218//102 217//102 197//102
f 220//103 218//103 189//103
f 221//65 220//65 188//65
f 222//104 221//104 190//104
f 223//105 222//105 198//105
f 226//106 223//106 199//106
f 227//107 226//107 200//107
f 228//108 227//108 201//108
f 201//108 174//108 228//108
f 200//107 201//107 227//107
f 199//106 200//106 226//106
f 198//105 199//105 223//105
f 190//104 198//104 222//104
f 188//65 190//65 221//65
f 189//103 188//103 220//103
f 197//102 189//102 218//102
f 213//101 197//101 217//101
f 212//100 213//100 219//100
f 210//99 212//99 260//99
f 211//98 210//98 259//98
f 216//97 211//97 258//97
f 215//96 216//96 257//96
f 209//95 215//95 249//95
f 208//94 209//94 255//94
f 207//56 208//56 248//56
f 196//93 207//93 247//93
f 195//92 196//92 238//92
f 184//91 195//91 237//91
f 182//90 184//90 246//90
f 183//89 182//89 254//89
f 250//109 228//109 174//109
f 239//110 250//110 173//110
f 229//111 239//111 175//111
f 230//112 229//112 177//112
f 251//113 230//113 176//113
f 256//74 251//74 178//74
f 231//114 256//114 179//114
f 224//115 231//115 180//115
f 232//116 224//116 181//116
f 233//117 232//117 185//117
f 240//118 233//118 186//118
f 252//119 240//119 205//119
f 253//120 252//120 202//120
f 241//121 253//121 206//121
f 242//122 241//122 214//122
f 243//123 242//123 204//123
f 244//83 243//83 203//83
f 234//124 244//124 192//124
f 225//125 234//125 191//125
f 235//126 225//126 187//126
f 236//127 235//127 193//127
f 245//128 236//128 194//128
f 194//128 183//128 245//128
f 193//127 194//127 236//127
f 187//126 193//126 235//126
f 191//125 187//125 225//125
f 192//124 191//124 234//124
f 203//83 192//83 244//83
f 204//123 203//123 243//123
f 214//122 204//122 242//122
f 206//121 214//121 241//121
f 202//120 206//120 253//120
f 205//119 202//119 252//119
f 186//118 205//118 240//118
f 185//117 186//117 233//117
f 181//116 185//116 232//116
f 180//115 181//115 224//115
f 179//114 180//114 231//114
f 178//74 179//74 256//74
f 176//113 178//113 251//113
f 177//112 176//112 230//112
f 175//111 177//111 229//111
f 173//110 175//110 239//110
f 174//109 173//109 250//109
f 261//129 262//129 263//129
f 264//130 263//130 265//130
f 266//131 265//131 267//131
f 268//132 267//132 269//132
f 270//133 269//133 271//133
f 272//134 271//134 273//134
f 274//135 273//135 275//135
f 276//136 275//136 277//136
f 278//137 277//137 279//137
f 280//138 279//138 281//138
f 282//139 281//139 283//139
f 284//140 283//140 285//140
f 286//141 285//141 287//141
f 288//142 287//142 289//142
f 290//143 289//143 291//143
f 292//144 291//144 293//144
f 294//145 293//145 295//145
f 296//146 295//146 297//146
f 298//147 297//147 299//147
f 300//148 299//148 301//148
f 302//149 301//149 303//149
f 304//150 303//150 305//150
f 306//151 305//151 307//151
f 308//152 307//152 309//152
f 310//153 309//153 311//153
f 311//153 312//153 310//153
f 309//152 310//152 308//152
f 307//151 308//151 306//151
f 305//150 306//150 304//150
f 303//149 304//149 302//149
f 301//148 302//148 300//148
f 299//147 300//147 298//147
f 297//146 298//146 296//146
f 295//145 296//145 294//145
f 293//144 294//144 292//144
f 291//143 292//143 290//143
f 289//142 290//142 288//142
f 287//141 288//141 286//141
f 285//140 286//140 284//140
f 283//139 284//139 282//139
f 281//138 282//138 280//138
f 279//137 280//137 278//137
f 277//136 278//136 276//136
f 275//135 276//135 274//135
f 273//134 274//134 272//134
f 271//133 272//133 270//133
f 269//132 270//132 268//132
f 267//131 268//131 266//131
f 265//130 266//130 264//130
f 263//129 264//129 261//129
f 312//154 311//154 313//154
f 314//155 313//155 315//155
f 316//156 315//156 317//156
f 318//157 317//157 319//157
f 320//158 319//158 321//158
f 322//159 321//159 323//159
f 324//160 323//160 325//160
f 326//161 325//161 327//161
f 328//162 327//162 329//162
f 330//163 329//163 331//163
f 332//164 331//164 333//164
f 334//165 333//165 335//165
f 336//166 335//166 337//166
f 338//167 337//167 339//167
f 340//168 339//168 341//168
f 342//169 341//169 343//169
f 344//170 343//170 345//170
f 346//171 345//171 347//171
f 348//172 347//172 349//172
f 350//173 349//173 351//173
f 352//174 351//174 353//174
f 354//175 353//175 355//175
f 356//176 355//176 357//176
f 358//177 357//177 359//177
f 360//178 359//178 262//178
f 262//178 261//178 360//178
f 359//177 360//177 358//177
f 357//176 358//176 356//176
f 355//175 356//175 354//175
f 353//174 354//174 352//174
f 351//173 352//173 350//173
f 349//172 350//172 348//172
f 347//171 348//171 346//171
f 345//170 346//170 344//170
f 343//169 344//169 342//169
f 341//168 342//168 340//168
f 339//167 340//167 338//167
f 337//166 338//166 336//166
f 335//165 336//165 334//165
f 333//164 334//164 332//164
f 331//163 332//163 330//163
f 329//162 330//162 328//162
f 327//161 328//161 326//161
f 325//160 326//160 324//160
f 323//159 324//159 322//159
f 321//158 322//158 320//158
f 319//157 320//157 318//157
f 317//156 318//156 316//156
f 315//155 316//155 314//155
f 313//154 314//154 312//154
f 315//179 361//179 362//179
f 321//179 319//179 363//179
f 317//179 362//179 363//179
f 362//179 317//179 315//179
f 301//179 364//179 365//179
f 327//179 325//179 366//179
f 323//179 367//179 366//179
f 367//179 323//179 321//179
f 315//179 313//179 361//179
f 305//179 303//179 365//179
f 365//179 303//179 301//179
f 366//179 325//179 323//179
f 363//179 319//179 317//179
f 307//179 305//179 368//179
f 301//179 299//179 364//179
f 299//179 297//179 369//179
f 293//179 291//179 370//179
f 363//179 367//179 321//179
f 313//179 311//179 371//179
f 309//179 372//179 371//179
f 372//179 309//179 307//179
f 369//179 364//179 299//179
f 295//179 373//179 369//179
f 373//179 295//179 293//179
f 291//179 289//179 374//179
f 285//179 283//179 375//179
f 371//179 361//179 313//179
f 368//179 372//179 307//179
f 369//179 297//179 295//179
f 374//179 370//179 291//179
f 287//179 376//179 374//179
f 376//179 287//179 285//179
f 357//179 355//179 377//179
f 351//179 378//179 379//179
f 371//179 311//179 309//179
f 370//179 373//179 293//179
f 375//179 376//179 285//179
f 281//179 380//179 375//179
f 279//179 381//179 380//179
f 271//179 269//179 382//179
f 265//179 383//179 384//179
f 263//179 262//179 385//179
f 359//179 386//179 385//179
f 386//179 359//179 357//179
f 355//179 353//179 379//179
f 379//179 353//179 351//179
f 349//179 347//179 387//179
f 329//179 388//179 389//179
f 365//179 368//179 305//179
f 375//179 283//179 281//179
f 380//179 281//179 279//179
f 277//179 275//179 390//179
f 273//179 391//179 390//179
f 391//179 273//179 271//179
f 267//179 384//179 382//179
f 384//179 267//179 265//179
f 385//179 262//179 359//179
f 379//179 377//179 355//179
f 387//179 378//179 349//179
f 345//179 392//179 387//179
f 343//179 341//179 393//179
f 331//179 389//179 394//179
f 389//179 331//179 329//179
f 374//179 289//179 287//179
f 390//179 381//179 277//179
f 382//179 391//179 271//179
f 265//179 263//179 383//179
f 377//179 386//179 357//179
f 387//179 347//179 345//179
f 392//179 345//179 343//179
f 341//179 339//179 395//179
f 335//179 333//179 394//179
f 329//179 327//179 388//179
f 279//179 277//179 381//179
f 382//179 269//179 267//179
f 351//179 349//179 378//179
f 395//179 393//179 341//179
f 337//179 396//179 395//179
f 394//179 333//179 331//179
f 390//179 275//179 273//179
f 393//179 392//179 343//179
f 395//179 339//179 337//179
f 366//179 388//179 327//179
f 337//179 335//179 396//179
f 385//179 383//179 263//179
f 394//179 396//179 335//179
f 383//180 385//180 397//180
f 384//181 383//181 398//181
f 382//182 384//182 399//182
f 391//183 382//183 400//183
f 390//184 391//184 401//184
f 381//185 390//185 402//185
f 380//186 381//186 403//186
f 375//187 380//187 404//187
f 376//188 375//188 405//188
f 374//189 376//189 406//189
f 370//190 374//190 407//190
f 373//191 370//191 408//191
f 369//192 373//192 409//192
f 364//193 369//193 410//193
f 365//194 364//194 411//194
f 368//195 365//195 412//195
f 372//196 368//196 413//196
f 371//197 372//197 414//197
f 414//197 415//197 371//197
f 413//196 414//196 372//196
f 412//195 413//195 368//195
f 411//194 412//194 365//194
f 410//193 411//193 364//193
f 409//192 410//192 369//192
f 408//191 409//191 373//191
f 407//190 408//190 370//190
f 406//189 407//189 374//189
f 405//188 406//188 376//188
f 404//187 405//187 375//187
f 403//186 404//186 380//186
f 402//185 403//185 381//185
f 401//184 402//184 390//184
f 400//183 401//183 391//183
f 399//182 400//182 382//182
f 398//181 399//181 384//181
f 397//180 398//180 383//180
f 361//198 371//198 415//198
f 362//199 361//199 416//199
f 363//200 362//200 417//200
f 367//201 363//201 418//201
f 366//202 367//202 419//202
f 388//203 366//203 420//203
f 389//204 388//204 421//204
f 394//205 389//205 422//205
f 396//206 394//206 423//206
f 395//207 396//207 424//207
f 393//208 395//208 425//208
f 392//209 393//209 426//209
f 387//210 392//210 427//210
f 378//211 387//211 428//211
f 379//212 378//212 429//212
f 377//213 379//213 430//213
f 386//214 377//214 431//214
f 385//215 386//215 432//215
f 432//215 397//215 385//215
f 431//214 432//214 386//214
f 430//213 431//213 377//213
f 429//212 430//212 379//212
f 428//211 429//211 378//211
f 427//210 428//210 387//210
f 426//209 427//209 392//209
f 425//208 426//208 393//208
f 424//207 425//207 395//207
f 423//206 424//206 396//206
f 422//205 423//205 394//205
f 421//204 422//204 389//204
f 420//203 421//203 388//203
f 419//202 420//202 366//202
f 418//201 419//201 367//201
f 417//200 418//200 363//200
f 416//199 417//199 362//199
f 415//198 416//198 361//198
f 314//216 433//216 434//216
f 316//216 435//216 433//216
f 320//216 436//216 437//216
f 322//216 324//216 438//216
f 324//216 326//216 439//216
f 326//216 328//216 440//216
f 330//216 441//216 440//216
f 264//216 442//216 443//216
f 266//216 444//216 442//216
f 310//216 312//216 434//216
f 433//216 314//216 316//216
f 318//216 437//216 435//216
f 437//216 318//216 320//216
f 439//216 438//216 324//216
f 440//216 328//216 330//216
f 332//216 445//216 441//216
f 334//216 446//216 445//216
f 354//216 356//216 447//216
f 360//216 261//216 443//216
f 442//216 264//216 266//216
f 298//216 448//216 449//216
f 300//216 450//216 448//216
f 434//216 312//216 314//216
f 320//216 322//216 436//216
f 440//216 439//216 326//216
f 445//216 332//216 334//216
f 352//216 451//216 452//216
f 451//216 352//216 354//216
f 356//216 358//216 453//216
f 358//216 360//216 454//216
f 443//216 261//216 264//216
f 268//216 455//216 444//216
f 270//216 456//216 455//216
f 292//216 294//216 457//216
f 294//216 296//216 449//216
f 448//216 298//216 300//216
f 302//216 458//216 450//216
f 304//216 306//216 459//216
f 306//216 308//216 460//216
f 308//216 310//216 461//216
f 435//216 316//216 318//216
f 441//216 330//216 332//216
f 338//216 340//216 462//216
f 348//216 463//216 464//216
f 350//216 452//216 463//216
f 447//216 451//216 354//216
f 454//216 453//216 358//216
f 444//216 266//216 268//216
f 455//216 268//216 270//216
f 449//216 457//216 294//216
f 450//216 300//216 302//216
f 458//216 302//216 304//216
f 461//216 460//216 308//216
f 438//216 436//216 322//216
f 336//216 465//216 446//216
f 465//216 336//216 338//216
f 340//216 342//216 466//216
f 463//216 348//216 350//216
f 453//216 447//216 356//216
f 270//216 272//216 456//216
f 272//216 274//216 467//216
f 274//216 276//216 468//216
f 276//216 278//216 469//216
f 286//216 470//216 471//216
f 288//216 290//216 472//216
f 290//216 292//216 473//216
f 449//216 296//216 298//216
f 460//216 459//216 306//216
f 446//216 334//216 336//216
f 466//216 462//216 340//216
f 342//216 344//216 474//216
f 344//216 346//216 464//216
f 452//216 350//216 352//216
f 467//216 456//216 272//216
f 469//216 468//216 276//216
f 280//216 475//216 469//216
f 284//216 471//216 476//216
f 471//216 284//216 286//216
f 473//216 472//216 290//216
f 459//216 458//216 304//216
f 462//216 465//216 338//216
f 464//216 474//216 344//216
f 443//216 454//216 360//216
f 469//216 278//216 280//216
f 282//216 476//216 475//216
f 286//216 288//216 470//216
f 457//216 473//216 292//216
f 474//216 466//216 342//216
f 468//216 467//216 274//216
f 476//216 282//216 284//216
f 434//216 461//216 310//216
f 475//216 280//216 282//216
f 464//216 346//216 348//216
f 472//216 470//216 288//216
f 477//216 478//216 409//216
f 479//216 408//216 407//216
f 408//216 479//216 477//216
f 409//216 408//216 477//216
f 478//216 480//216 410//216
f 410//216 409//216 478//216
f 480//216 481//216 411//216
f 411//216 410//216 480//216
f 482//216 412//216 411//216
f 483//216 413//216 412//216
f 484//216 422//216 421//216
f 485//216 431//216 430//216
f 411//216 481//216 482//216
f 412//216 482//216 483//216
f 486//216 487//216 414//216
f 487//216 488//216 415//216
f 489//216 490//216 418//216
f 421//216 491//216 484//216
f 492//216 493//216 423//216
f 430//216 494//216 485//216
f 495//216 496//216 432//216
f 497//216 498//216 400//216
f 483//216 486//216 413//216
f 415//216 414//216 487//216
f 499//216 417//216 416//216
f 417//216 499//216 489//216
f 423//216 422//216 492//216
f 493//216 500//216 424//216
f 501//216 502//216 427//216
f 502//216 503//216 428//216
f 504//216 429//216 428//216
f 432//216 431//216 495//216
f 496//216 505//216 397//216
f 506//216 399//216 398//216
f 399//216 506//216 497//216
f 498//216 507//216 401//216
f 507//216 508//216 402//216
f 509//216 404//216 403//216
f 414//216 413//216 486//216
f 510//216 416//216 415//216
f 418//216 417//216 489//216
f 490//216 511//216 419//216
f 424//216 423//216 493//216
f 512//216 425//216 424//216
f 513//216 426//216 425//216
f 426//216 513//216 501//216
f 428//216 503//216 504//216
f 494//216 430//216 429//216
f 397//216 432//216 496//216
f 514//216 398//216 397//216
f 400//216 399//216 497//216
f 402//216 401//216 507//216
f 515//216 403//216 402//216
f 403//216 515//216 509//216
f 415//216 488//216 510//216
f 419//216 418//216 490//216
f 511//216 516//216 420//216
f 491//216 421//216 420//216
f 424//216 500//216 512//216
f 427//216 426//216 501//216
f 429//216 504//216 494//216
f 397//216 505//216 514//216
f 401//216 400//216 498//216
f 509//216 517//216 404//216
f 517//216 518//216 405//216
f 518//216 519//216 406//216
f 416//216 510//216 499//216
f 420//216 516//216 491//216
f 425//216 512//216 513//216
f 485//216 495//216 431//216
f 402//216 508//216 515//216
f 406//216 405//216 518//216
f 520//216 407//216 406//216
f 420//216 419//216 511//216
f 428//216 427//216 502//216
f 405//216 404//216 517//216
f 407//216 520//216 479//216
f 398//216 514//216 506//216
f 484//216 492//216 422//216
f 406//216 519//216 520//216
f 514//217 505//217 443//217
f 506//218 514//218 442//218
f 497//219 506//219 444//219
f 498//220 497//220 455//220
f 507//221 498//221 456//221
f 508//184 507//184 467//184
f 515//222 508//222 468//222
f 509//223 515//223 469//223
f 517//224 509//224 475//224
f 518//225 517//225 476//225
f 519//226 518//226 471//226
f 520//227 519//227 470//227
f 479//228 520//228 472//228
f 477//229 479//229 473//229
f 478//230 477//230 457//230
f 480//231 478//231 449//231
f 481//193 480//193 448//193
f 482//232 481//232 450//232
f 483//233 482//233 458//233
f 486//234 483//234 459//234
f 487//235 486//235 460//235
f 488//236 487//236 461//236
f 461//236 434//236 488//236
f 460//235 461//235 487//235
f 459//234 460//234 486//234
f 458//233 459//233 483//233
f 450//232 458//232 482//232
f 448//193 450//193 481//193
f 449//231 448//231 480//231
f 457//230 449//230 478//230
f 473//229 457//229 477//229
f 472//228 473//228 479//228
f 470//227 472//227 520//227
f 471//226 470//226 519//226
f 476//225 471//225 518//225
f 475//224 476//224 517//224
f 469//223 475//223 509//223
f 468//222 469//222 515//222
f 467//184 468//184 508//184
f 456//221 467//221 507//221
f 455//220 456//220 498//220
f 444//219 455//219 497//219
f 442//218 444//218 506//218
f 443//217 442//217 514//217
f 510//237 488//237 434//237
f 499//238 510//238 433//238
f 489//239 499//239 435//239
f 490//240 489//240 437//240
f 511//241 490//241 436//241
f 516//202 511//202 438//202
f 491//242 516//242 439//242
f 484//243 491//243 440//243
f 492//244 484//244 441//244
f 493//245 492//245 445//245
f 500//246 493//246 446//246
f 512//247 500//247 465//247
f 513//248 512//248 462//248
f 501//249 513//249 466//249
f 502//250 501//250 474//250
f 503//251 502//251 464//251
f 504//211 503//211 463//211
f 494//252 504//252 452//252
f 485//253 494//253 451//253
f 495//254 485//254 447//254
f 496//255 495//255 453//255
f 505//256 496//256 454//256
f 454//256 443//256 505//256
f 453//255 454//255 496//255
f 447//254 453//254 495//254
f 451//253 447//253 485//253
f 452//252 451//252 494//252
f 463//211 452//211 504//211
f 464//251 463//251 503//251
f 474//250 464//250 502//250
f 466//249 474//249 501//249
f 462//248 466//248 513//248
f 465//247 462//247 512//247
f 446//246 465//246 500//246
f 445//245 446//245 493//245
f 441//244 445//244 492//244
f 440//243 441//243 484//243
f 439//242 440//242 491//242
f 438//202 439//202 516//202
f 436//241 438//241 511//241
f 437//240 436//240 490//240
f 435//239 437//239 489//239
f 433//238 435//238 499//238
f 434//237 433//237 510//237
#1040 polygons

