# Aspose.3D Wavefront OBJ Exporter
# Copyright 2004-2023 Aspose Pty Ltd.
# File created: 06/29/2023 04:23:43


#
# object obj_20169662
#

v 4.65808820724487304 35.38169097900390624 173.227996826171875
v 0 35.68700027465820312 173.227996826171875
v 0 35.68700027465820312 158.49600219726562496
v 9.23647499084472656 34.47099685668945312 173.227996826171875
v 4.65808820724487304 35.38169097900390624 158.49600219726562496
v 13.65682411193847656 32.97048950195312496 173.227996826171875
v 9.23647499084472656 34.47099685668945312 158.49600219726562496
v 17.8435001373291016 30.90584945678710944 173.227996826171875
v 13.65682411193847656 32.97048950195312496 158.49600219726562496
v 21.72486877441406256 28.31240081787109376 173.227996826171875
v 17.8435001373291016 30.90584945678710944 158.49600219726562496
v 25.23451995849609376 25.23451995849609376 173.227996826171875
v 21.72486877441406256 28.31240081787109376 158.49600219726562496
v 28.31240081787109376 21.72486877441406256 173.227996826171875
v 25.23451995849609376 25.23451995849609376 158.49600219726562496
v 30.90584945678710944 17.8435001373291016 173.227996826171875
v 28.31240081787109376 21.72486877441406256 158.49600219726562496
v 32.97048950195312496 13.65682411193847656 173.227996826171875
v 30.90584945678710944 17.8435001373291016 158.49600219726562496
v 34.47099685668945312 9.23647499084472656 173.227996826171875
v 32.97048950195312496 13.65682411193847656 158.49600219726562496
v 35.38169097900390624 4.65808820724487304 173.227996826171875
v 34.47099685668945312 9.23647499084472656 158.49600219726562496
v 35.68700027465820312 0 173.227996826171875
v 35.38169097900390624 4.65808820724487304 158.49600219726562496
v 35.38169097900390624 -4.65808820724487304 173.227996826171875
v 35.68700027465820312 0 158.49600219726562496
v 34.47099685668945312 -9.23647499084472656 173.227996826171875
v 35.38169097900390624 -4.65808820724487304 158.49600219726562496
v 32.97048950195312496 -13.65682411193847656 173.227996826171875
v 34.47099685668945312 -9.23647499084472656 158.49600219726562496
v 30.90584945678710944 -17.8435001373291016 173.227996826171875
v 32.97048950195312496 -13.65682411193847656 158.49600219726562496
v 28.31240081787109376 -21.72486877441406256 173.227996826171875
v 30.90584945678710944 -17.8435001373291016 158.49600219726562496
v 25.23451995849609376 -25.23451995849609376 173.227996826171875
v 28.31240081787109376 -21.72486877441406256 158.49600219726562496
v 21.72486877441406256 -28.31240081787109376 173.227996826171875
v 25.23451995849609376 -25.23451995849609376 158.49600219726562496
v 17.8435001373291016 -30.90584945678710944 173.227996826171875
v 21.72486877441406256 -28.31240081787109376 158.49600219726562496
v 13.65682411193847656 -32.97048950195312496 173.227996826171875
v 17.8435001373291016 -30.90584945678710944 158.49600219726562496
v 9.23647499084472656 -34.47099685668945312 173.227996826171875
v 13.65682411193847656 -32.97048950195312496 158.49600219726562496
v 4.65808820724487304 -35.38169097900390624 173.227996826171875
v 9.23647499084472656 -34.47099685668945312 158.49600219726562496
v 0 -35.68700027465820312 173.227996826171875
v 4.65808820724487304 -35.38169097900390624 158.49600219726562496
v 0 -35.68700027465820312 158.49600219726562496
v -4.65808820724487304 -35.38169097900390624 173.227996826171875
v -9.23647499084472656 -34.47099685668945312 173.227996826171875
v -4.65808820724487304 -35.38169097900390624 158.49600219726562496
v -13.65682411193847656 -32.97048950195312496 173.227996826171875
v -9.23647499084472656 -34.47099685668945312 158.49600219726562496
v -17.8435001373291016 -30.90584945678710944 173.227996826171875
v -13.65682411193847656 -32.97048950195312496 158.49600219726562496
v -21.72486877441406256 -28.31240081787109376 173.227996826171875
v -17.8435001373291016 -30.90584945678710944 158.49600219726562496
v -25.23451995849609376 -25.23451995849609376 173.227996826171875
v -21.72486877441406256 -28.31240081787109376 158.49600219726562496
v -28.31240081787109376 -21.72486877441406256 173.227996826171875
v -25.23451995849609376 -25.23451995849609376 158.49600219726562496
v -30.90584945678710944 -17.8435001373291016 173.227996826171875
v -28.31240081787109376 -21.72486877441406256 158.49600219726562496
v -32.97048950195312496 -13.65682411193847656 173.227996826171875
v -30.90584945678710944 -17.8435001373291016 158.49600219726562496
v -34.47099685668945312 -9.23647499084472656 173.227996826171875
v -32.97048950195312496 -13.65682411193847656 158.49600219726562496
v -35.38169097900390624 -4.65808820724487304 173.227996826171875
v -34.47099685668945312 -9.23647499084472656 158.49600219726562496
v -35.68700027465820312 0 173.227996826171875
v -35.38169097900390624 -4.65808820724487304 158.49600219726562496
v -35.38169097900390624 4.65808820724487304 173.227996826171875
v -35.68700027465820312 0 158.49600219726562496
v -34.47099685668945312 9.23647499084472656 173.227996826171875
v -35.38169097900390624 4.65808820724487304 158.49600219726562496
v -32.97048950195312496 13.65682411193847656 173.227996826171875
v -34.47099685668945312 9.23647499084472656 158.49600219726562496
v -30.90584945678710944 17.8435001373291016 173.227996826171875
v -32.97048950195312496 13.65682411193847656 158.49600219726562496
v -28.31240081787109376 21.72486877441406256 173.227996826171875
v -30.90584945678710944 17.8435001373291016 158.49600219726562496
v -25.23451995849609376 25.23451995849609376 173.227996826171875
v -28.31240081787109376 21.72486877441406256 158.49600219726562496
v -21.72486877441406256 28.31240081787109376 173.227996826171875
v -25.23451995849609376 25.23451995849609376 158.49600219726562496
v -17.8435001373291016 30.90584945678710944 173.227996826171875
v -21.72486877441406256 28.31240081787109376 158.49600219726562496
v -13.65682411193847656 32.97048950195312496 173.227996826171875
v -17.8435001373291016 30.90584945678710944 158.49600219726562496
v -9.23647499084472656 34.47099685668945312 173.227996826171875
v -13.65682411193847656 32.97048950195312496 158.49600219726562496
v -4.65808820724487304 35.38169097900390624 173.227996826171875
v -9.23647499084472656 34.47099685668945312 158.49600219726562496
v -4.65808820724487304 35.38169097900390624 158.49600219726562496
v -34.47391128540039064 -16.22219085693359376 173.227996826171875
v -32.16889572143554688 -20.41500091552734376 173.227996826171875
v -29.35655403137207032 -24.28585433959960936 173.227996826171875
v -18.35481452941894532 -33.38728332519531248 173.227996826171875
v -14.02554512023925781 -35.42448425292968752 173.227996826171875
v -9.47508430480957032 -36.90301895141601568 173.227996826171875
v -26.08124542236328125 -27.77370452880859376 173.227996826171875
v -4.77519607543945312 -37.7995719909667968 173.227996826171875
v -37.42514419555664064 -7.13922786712646484 173.227996826171875
v -36.23525238037109376 -11.77354717254638672 173.227996826171875
v -22.39461898803710936 -30.82354736328124992 173.227996826171875
v 0 -38.09999847412109376 173.227996826171875
v 4.77519607543945312 -37.7995719909667968 173.227996826171875
v 22.39461898803710936 -30.82354736328124992 173.227996826171875
v 26.08124542236328125 -27.77370452880859376 173.227996826171875
v 29.35655403137207032 24.28585433959960936 173.227996826171875
v 26.08124542236328125 27.77370452880859376 173.227996826171875
v 22.39461898803710936 30.82354736328124992 173.227996826171875
v 14.02554512023925781 35.42448425292968752 173.227996826171875
v 9.47508430480957032 36.90301895141601568 173.227996826171875
v 4.77519607543945312 37.7995719909667968 173.227996826171875
v 9.47508430480957032 -36.90301895141601568 173.227996826171875
v 14.02554512023925781 -35.42448425292968752 173.227996826171875
v 18.35481452941894532 -33.38728332519531248 173.227996826171875
v 29.35655403137207032 -24.28585433959960936 173.227996826171875
v 32.16889572143554688 -20.41500091552734376 173.227996826171875
v 34.47391128540039064 -16.22219085693359376 173.227996826171875
v 36.23525238037109376 -11.77354717254638672 173.227996826171875
v 36.23525238037109376 11.77354717254638672 173.227996826171875
v 34.47391128540039064 16.22219085693359376 173.227996826171875
v 32.16889572143554688 20.41500091552734376 173.227996826171875
v 18.35481452941894532 33.38728332519531248 173.227996826171875
v -9.47508430480957032 36.90301895141601568 173.227996826171875
v -14.02554512023925781 35.42448425292968752 173.227996826171875
v -22.39461898803710936 30.82354736328124992 173.227996826171875
v -26.08124542236328125 27.77370452880859376 173.227996826171875
v -29.35655403137207032 24.28585433959960936 173.227996826171875
v -32.16889572143554688 20.41500091552734376 173.227996826171875
v -34.47391128540039064 16.22219085693359376 173.227996826171875
v -36.23525238037109376 11.77354717254638672 173.227996826171875
v -38.02481842041015625 -2.39231872558593752 173.227996826171875
v 37.42514419555664064 7.13922786712646484 173.227996826171875
v 0 38.09999847412109376 173.227996826171875
v -4.77519607543945312 37.7995719909667968 173.227996826171875
v -18.35481452941894532 33.38728332519531248 173.227996826171875
v -37.42514419555664064 7.13922786712646484 173.227996826171875
v -38.02481842041015625 2.39231872558593752 173.227996826171875
v 37.42514419555664064 -7.13922786712646484 173.227996826171875
v 38.02481842041015625 -2.39231872558593752 173.227996826171875
v 38.02481842041015625 2.39231872558593752 173.227996826171875
v 4.77519607543945312 37.7995719909667968 177.54600524902343752
v 0 38.09999847412109376 177.54600524902343752
v 9.47508430480957032 36.90301895141601568 177.54600524902343752
v 14.02554512023925781 35.42448425292968752 177.54600524902343752
v 18.35481452941894532 33.38728332519531248 177.54600524902343752
v 22.39461898803710936 30.82354736328124992 177.54600524902343752
v 26.08124542236328125 27.77370452880859376 177.54600524902343752
v 29.35655403137207032 24.28585433959960936 177.54600524902343752
v 32.16889572143554688 20.41500091552734376 177.54600524902343752
v 34.47391128540039064 16.22219085693359376 177.54600524902343752
v 36.23525238037109376 11.77354717254638672 177.54600524902343752
v 37.42514419555664064 7.13922786712646484 177.54600524902343752
v 38.02481842041015625 2.39231872558593752 177.54600524902343752
v 38.02481842041015625 -2.39231872558593752 177.54600524902343752
v 37.42514419555664064 -7.13922786712646484 177.54600524902343752
v 36.23525238037109376 -11.77354717254638672 177.54600524902343752
v 34.47391128540039064 -16.22219085693359376 177.54600524902343752
v 32.16889572143554688 -20.41500091552734376 177.54600524902343752
v 29.35655403137207032 -24.28585433959960936 177.54600524902343752
v 26.08124542236328125 -27.77370452880859376 177.54600524902343752
v 22.39461898803710936 -30.82354736328124992 177.54600524902343752
v 18.35481452941894532 -33.38728332519531248 177.54600524902343752
v 14.02554512023925781 -35.42448425292968752 177.54600524902343752
v 9.47508430480957032 -36.90301895141601568 177.54600524902343752
v 4.77519607543945312 -37.7995719909667968 177.54600524902343752
v 0 -38.09999847412109376 177.54600524902343752
v -4.77519607543945312 -37.7995719909667968 177.54600524902343752
v -9.47508430480957032 -36.90301895141601568 177.54600524902343752
v -14.02554512023925781 -35.42448425292968752 177.54600524902343752
v -18.35481452941894532 -33.38728332519531248 177.54600524902343752
v -22.39461898803710936 -30.82354736328124992 177.54600524902343752
v -26.08124542236328125 -27.77370452880859376 177.54600524902343752
v -29.35655403137207032 -24.28585433959960936 177.54600524902343752
v -32.16889572143554688 -20.41500091552734376 177.54600524902343752
v -34.47391128540039064 -16.22219085693359376 177.54600524902343752
v -36.23525238037109376 -11.77354717254638672 177.54600524902343752
v -37.42514419555664064 -7.13922786712646484 177.54600524902343752
v -38.02481842041015625 -2.39231872558593752 177.54600524902343752
v -38.02481842041015625 2.39231872558593752 177.54600524902343752
v -37.42514419555664064 7.13922786712646484 177.54600524902343752
v -36.23525238037109376 11.77354717254638672 177.54600524902343752
v -34.47391128540039064 16.22219085693359376 177.54600524902343752
v -32.16889572143554688 20.41500091552734376 177.54600524902343752
v -29.35655403137207032 24.28585433959960936 177.54600524902343752
v -26.08124542236328125 27.77370452880859376 177.54600524902343752
v -22.39461898803710936 30.82354736328124992 177.54600524902343752
v -18.35481452941894532 33.38728332519531248 177.54600524902343752
v -14.02554512023925781 35.42448425292968752 177.54600524902343752
v -9.47508430480957032 36.90301895141601568 177.54600524902343752
v -4.77519607543945312 37.7995719909667968 177.54600524902343752
v 24.89259338378906256 -37.28508377075195312 158.49600219726562496
v -15.50717735290527344 -42.06359481811523438 158.49600219726562496
v -20.3406963348388672 -39.95090484619140624 158.49600219726562496
v -32.90420532226562496 -30.44883728027343752 158.49600219726562496
v -36.25300216674804688 -26.37306213378906248 158.49600219726562496
v -39.09986495971679688 -21.93214607238769536 158.49600219726562496
v -44.7946739196777344 -1.80434548854827888 158.49600219726562496
v -44.69652175903320312 3.46981167793273928 158.49600219726562496
v -43.97953414916992192 8.6959285736083984 158.49600219726562496
v -42.65364074707031248 13.80164813995361328 158.49600219726562496
v 25.68462181091308592 38.26284027099609376 158.49600219726562496
v 43.13763427734375 -12.20503902435302736 158.49600219726562496
v 41.40538406372070312 -17.18757629394531248 158.49600219726562496
v 39.09986495971679688 -21.93214607238769536 158.49600219726562496
v 36.25300216674804688 -26.37306213378906248 158.49600219726562496
v 32.90420532226562496 -30.44883728027343752 158.49600219726562496
v 29.09984588623046876 -34.1030426025390625 158.49600219726562496
v 5.2659330368041992 -44.52065277099609376 158.49600219726562496
v 0 -44.83100128173828128 158.49600219726562496
v -5.2659330368041992 -44.52065277099609376 158.49600219726562496
v -10.45895862579345704 -43.59390640258789064 158.49600219726562496
v -41.40538406372070312 -17.18757629394531248 158.49600219726562496
v -25.39999961853027344 40.14265060424804688 158.49600219726562496
v 20.3406963348388672 -39.95090484619140624 158.49600219726562496
v 15.50717735290527344 -42.06359481811523438 158.49600219726562496
v -24.89259338378906256 -37.28508377075195312 158.49600219726562496
v -29.09984588623046876 -34.1030426025390625 158.49600219726562496
v -43.13763427734375 -12.20503902435302736 158.49600219726562496
v -44.27263641357421876 -7.05352115631103516 158.49600219726562496
v -40.73719787597656256 18.71628189086914064 158.49600219726562496
v -38.25674057006835936 23.37178421020507816 158.49600219726562496
v -35.246612548828125 27.70369911193847656 158.49600219726562496
v -31.74848556518554688 31.65205001831054688 158.49600219726562496
v -27.8107948303222656 35.16217041015625 158.49600219726562496
v 40.73719787597656256 18.71628189086914064 158.49600219726562496
v 42.65364074707031248 13.80164813995361328 158.49600219726562496
v 43.97953414916992192 8.6959285736083984 158.49600219726562496
v 25.39999961853027344 44.9580001831054688 158.49600219726562496
v 25.39999961853027344 40.14265060424804688 158.49600219726562496
v 10.45895862579345704 -43.59390640258789064 158.49600219726562496
v 26.51297187805175784 36.55154418945312496 158.49600219726562496
v 27.8107948303222656 35.16217041015625 158.49600219726562496
v 31.74848556518554688 31.65205001831054688 158.49600219726562496
v -25.39999961853027344 44.9580001831054688 158.49600219726562496
v 44.7946739196777344 -1.80434548854827888 158.49600219726562496
v 44.27263641357421876 -7.05352115631103516 158.49600219726562496
v -26.51297187805175784 36.55154418945312496 158.49600219726562496
v 35.246612548828125 27.70369911193847656 158.49600219726562496
v 38.25674057006835936 23.37178421020507816 158.49600219726562496
v 44.69652175903320312 3.46981167793273928 158.49600219726562496
v -25.68462181091308592 38.26284027099609376 158.49600219726562496
v -27.8107948303222656 35.16217041015625 177.54600524902343752
v -31.74848556518554688 31.65205001831054688 177.54600524902343752
v -35.246612548828125 27.70369911193847656 177.54600524902343752
v -38.25674057006835936 23.37178421020507816 177.54600524902343752
v -40.73719787597656256 18.71628189086914064 177.54600524902343752
v -42.65364074707031248 13.80164813995361328 177.54600524902343752
v -43.97953414916992192 8.6959285736083984 177.54600524902343752
v -44.69652175903320312 3.46981167793273928 177.54600524902343752
v -44.7946739196777344 -1.80434548854827888 177.54600524902343752
v -44.27263641357421876 -7.05352115631103516 177.54600524902343752
v -43.13763427734375 -12.20503902435302736 177.54600524902343752
v -41.40538406372070312 -17.18757629394531248 177.54600524902343752
v -39.09986495971679688 -21.93214607238769536 177.54600524902343752
v -36.25300216674804688 -26.37306213378906248 177.54600524902343752
v -32.90420532226562496 -30.44883728027343752 177.54600524902343752
v -29.09984588623046876 -34.1030426025390625 177.54600524902343752
v -24.89259338378906256 -37.28508377075195312 177.54600524902343752
v -20.3406963348388672 -39.95090484619140624 177.54600524902343752
v -15.50717735290527344 -42.06359481811523438 177.54600524902343752
v -10.45895862579345704 -43.59390640258789064 177.54600524902343752
v -5.2659330368041992 -44.52065277099609376 177.54600524902343752
v 0 -44.83100128173828128 177.54600524902343752
v 5.2659330368041992 -44.52065277099609376 177.54600524902343752
v 10.45895862579345704 -43.59390640258789064 177.54600524902343752
v 15.50717735290527344 -42.06359481811523438 177.54600524902343752
v 20.3406963348388672 -39.95090484619140624 177.54600524902343752
v 24.89259338378906256 -37.28508377075195312 177.54600524902343752
v 29.09984588623046876 -34.1030426025390625 177.54600524902343752
v 32.90420532226562496 -30.44883728027343752 177.54600524902343752
v 36.25300216674804688 -26.37306213378906248 177.54600524902343752
v 39.09986495971679688 -21.93214607238769536 177.54600524902343752
v 41.40538406372070312 -17.18757629394531248 177.54600524902343752
v 43.13763427734375 -12.20503902435302736 177.54600524902343752
v 44.27263641357421876 -7.05352115631103516 177.54600524902343752
v 44.7946739196777344 -1.80434548854827888 177.54600524902343752
v 44.69652175903320312 3.46981167793273928 177.54600524902343752
v 43.97953414916992192 8.6959285736083984 177.54600524902343752
v 42.65364074707031248 13.80164813995361328 177.54600524902343752
v 40.73719787597656256 18.71628189086914064 177.54600524902343752
v 38.25674057006835936 23.37178421020507816 177.54600524902343752
v 35.246612548828125 27.70369911193847656 177.54600524902343752
v 31.74848556518554688 31.65205001831054688 177.54600524902343752
v 27.8107948303222656 35.16217041015625 177.54600524902343752
v -25.68462181091308592 38.26284027099609376 177.54600524902343752
v -25.39999961853027344 40.14265060424804688 177.54600524902343752
v -26.51297187805175784 36.55154418945312496 177.54600524902343752
v 25.39999961853027344 40.14265060424804688 177.54600524902343752
v 25.68462181091308592 38.26284027099609376 177.54600524902343752
v 26.51297187805175784 36.55154418945312496 177.54600524902343752
v 25.39999961853027344 44.9580001831054688 177.54600524902343752
v -25.39999961853027344 44.9580001831054688 177.54600524902343752
v 25.39999961853027344 53.62478637695312496 177.24993896484375
v -25.39999961853027344 53.62478637695312496 177.24993896484375
v 25.39999961853027344 62.25116348266601564 176.36311340332031248
v -25.39999961853027344 62.25116348266601564 176.36311340332031248
v 25.39999961853027344 70.79691314697265632 174.88967895507812496
v -25.39999961853027344 70.79691314697265632 174.88967895507812496
v 25.39999961853027344 79.22219085693359376 172.83650207519531248
v -25.39999961853027344 79.22219085693359376 172.83650207519531248
v 25.39999961853027344 87.48770904541015624 170.213134765625
v -25.39999961853027344 87.48770904541015624 170.213134765625
v 25.39999961853027344 95.55493927001953128 167.031829833984375
v -25.39999961853027344 95.55493927001953128 167.031829833984375
v 25.39999961853027344 103.38626098632812496 163.30741882324218752
v -25.39999961853027344 103.38626098632812496 163.30741882324218752
v 25.39999961853027344 110.94515991210937504 159.0572662353515625
v -25.39999961853027344 110.94515991210937504 159.0572662353515625
v 25.39999961853027344 118.19640350341796876 154.301177978515625
v -25.39999961853027344 118.19640350341796876 154.301177978515625
v 25.39999961853027344 125.106170654296875 149.06134033203125
v -25.39999961853027344 125.106170654296875 149.06134033203125
v 25.39999961853027344 131.64224243164062496 143.36216735839843752
v -25.39999961853027344 131.64224243164062496 143.36216735839843752
v 25.39999961853027344 137.774169921875 137.230255126953125
v -25.39999961853027344 137.774169921875 137.230255126953125
v 25.39999961853027344 143.47332763671875 130.69416809082031248
v -25.39999961853027344 143.47332763671875 130.69416809082031248
v 25.39999961853027344 148.71318054199218752 123.78440093994140624
v -25.39999961853027344 148.71318054199218752 123.78440093994140624
v 25.39999961853027344 153.46926879882812496 116.53316497802734376
v -25.39999961853027344 153.46926879882812496 116.53316497802734376
v 25.39999961853027344 157.71942138671875 108.97425842285156256
v -25.39999961853027344 157.71942138671875 108.97425842285156256
v 25.39999961853027344 161.44383239746093752 101.14293670654296876
v -25.39999961853027344 161.44383239746093752 101.14293670654296876
v 25.39999961853027344 164.62513732910156248 93.075714111328125
v -25.39999961853027344 164.62513732910156248 93.075714111328125
v 25.39999961853027344 167.24848937988281248 84.8101882934570312
v -25.39999961853027344 167.24848937988281248 84.8101882934570312
v 25.39999961853027344 169.30168151855468752 76.38491058349609376
v -25.39999961853027344 169.30168151855468752 76.38491058349609376
v 25.39999961853027344 170.77511596679687504 67.83916473388671872
v -25.39999961853027344 170.77511596679687504 67.83916473388671872
v 25.39999961853027344 171.66192626953125 59.21278762817382812
v -25.39999961853027344 171.66192626953125 59.21278762817382812
v 25.39999961853027344 171.95799255371093744 50.54600143432617184
v -25.39999961853027344 171.95799255371093744 50.54600143432617184
v -25.39999961853027344 152.60615539550781248 58.61311340332031248
v -25.39999961853027344 152.90800476074218752 50.54600143432617184
v 25.39999961853027344 152.90800476074218752 50.54600143432617184
v -25.39999961853027344 151.70228576660156248 66.63510894775390624
v 25.39999961853027344 152.60615539550781248 58.61311340332031248
v -25.39999961853027344 150.20146179199218752 74.56713104248046872
v 25.39999961853027344 151.70228576660156248 66.63510894775390624
v -25.39999961853027344 148.112091064453125 82.36482238769531248
v 25.39999961853027344 150.20146179199218752 74.56713104248046872
v -25.39999961853027344 145.44581604003906248 89.98456573486328128
v 25.39999961853027344 148.112091064453125 82.36482238769531248
v -25.39999961853027344 142.21759033203125 97.38375091552734376
v 25.39999961853027344 145.44581604003906248 89.98456573486328128
v -25.39999961853027344 138.44544982910156248 104.52100372314453128
v 25.39999961853027344 142.21759033203125 97.38375091552734376
v -25.39999961853027344 134.150482177734375 111.35639953613281248
v 25.39999961853027344 138.44544982910156248 104.52100372314453128
v -25.39999961853027344 129.35670471191406248 117.85172271728515632
v 25.39999961853027344 134.150482177734375 111.35639953613281248
v -25.39999961853027344 124.09095001220703124 123.97064971923828128
v 25.39999961853027344 129.35670471191406248 117.85172271728515632
v -25.39999961853027344 118.38264465332031248 129.678955078125
v 25.39999961853027344 124.09095001220703124 123.97064971923828128
v -25.39999961853027344 112.26372528076171876 134.9447021484375
v 25.39999961853027344 118.38264465332031248 129.678955078125
v -25.39999961853027344 105.76840209960937504 139.73847961425781248
v 25.39999961853027344 112.26372528076171876 134.9447021484375
v -25.39999961853027344 98.93299865722656256 144.033447265625
v 25.39999961853027344 105.76840209960937504 139.73847961425781248
v -25.39999961853027344 91.79574584960937504 147.80558776855468752
v 25.39999961853027344 98.93299865722656256 144.033447265625
v -25.39999961853027344 84.39656066894531248 151.0338287353515625
v 25.39999961853027344 91.79574584960937504 147.80558776855468752
v -25.39999961853027344 76.77681732177734368 153.70008850097656248
v 25.39999961853027344 84.39656066894531248 151.0338287353515625
v -25.39999961853027344 68.9791336059570312 155.78947448730468752
v 25.39999961853027344 76.77681732177734368 153.70008850097656248
v -25.39999961853027344 61.04711151123046875 157.290283203125
v 25.39999961853027344 68.9791336059570312 155.78947448730468752
v -25.39999961853027344 53.02511215209960937 158.19415283203125
v 25.39999961853027344 61.04711151123046875 157.290283203125
v 25.39999961853027344 53.02511215209960937 158.19415283203125
v 25.39999961853027344 152.90800476074218752 25.16427421569824218
v 25.39999961853027344 171.95799255371093744 25.16427421569824218
v -25.39999961853027344 152.90800476074218752 25.16427421569824218
v -25.39999961853027344 171.95799255371093744 25.16427421569824218
v 25.5577964782714844 171.95799255371093744 23.75745964050292976
v 26.02334785461425781 171.95799255371093744 22.42056274414062496
v 25.5577964782714844 152.90800476074218752 23.75745964050292976
v 26.77351188659667968 171.95799255371093744 21.2200298309326172
v 26.02334785461425781 152.90800476074218752 22.42056274414062496
v 26.77351188659667968 152.90800476074218752 21.2200298309326172
v 13.61057662963867184 171.95799255371093744 31.33469009399414064
v 9.21706676483154296 171.95799255371093744 32.89614486694335936
v 21.55985832214355472 171.95799255371093744 26.50062561035156248
v -17.75054740905761712 171.95799255371093744 29.18952941894531248
v -25.5577964782714844 171.95799255371093744 23.75745964050292976
v 4.6518611907958984 171.95799255371093744 33.84480285644531248
v 0 171.95799255371093744 34.16299819946289062
v 17.75054740905761712 171.95799255371093744 29.18952941894531248
v -13.61057662963867184 171.95799255371093744 31.33469009399414064
v -4.6518611907958984 171.95799255371093744 33.84480285644531248
v -9.21706676483154296 171.95799255371093744 32.89614486694335936
v 24.96754837036132816 171.95799255371093744 23.31806373596191408
v -21.55985832214355472 171.95799255371093744 26.50062561035156248
v -26.02334785461425781 171.95799255371093744 22.42056274414062496
v -24.96754837036132816 171.95799255371093744 23.31806373596191408
v -26.77351188659667968 171.95799255371093744 21.2200298309326172
v -25.5577964782714844 152.90800476074218752 23.75745964050292976
v -26.02334785461425781 152.90800476074218752 22.42056274414062496
v -26.77351188659667968 152.90800476074218752 21.2200298309326172
v 27.91014289855957024 188.46800231933593752 19.70112991333007816
v 27.91014289855957024 152.90800476074218752 19.70112991333007816
v 30.3328227996826172 152.90800476074218752 15.71720218658447264
v 30.3328227996826172 188.46800231933593752 15.71720218658447264
v 32.190460205078125 152.90800476074218752 11.4404926300048828
v 32.190460205078125 188.46800231933593752 11.4404926300048828
v 33.44844818115234376 152.90800476074218752 6.95066785812377936
v 33.44844818115234376 188.46800231933593752 6.95066785812377936
v 34.0833587646484375 152.90800476074218752 2.33136558532714844
v 34.0833587646484375 188.46800231933593752 2.33136558532714844
v 34.0833587646484375 152.90800476074218752 -2.33136558532714844
v 34.0833587646484375 188.46800231933593752 -2.33136558532714844
v 33.44844818115234376 152.90800476074218752 -6.95066785812377936
v 33.44844818115234376 188.46800231933593752 -6.95066785812377936
v 32.190460205078125 152.90800476074218752 -11.4404926300048828
v 32.190460205078125 188.46800231933593752 -11.4404926300048828
v 30.3328227996826172 152.90800476074218752 -15.71720218658447264
v 30.3328227996826172 188.46800231933593752 -15.71720218658447264
v 27.91014289855957024 152.90800476074218752 -19.70112991333007816
v 27.91014289855957024 188.46800231933593752 -19.70112991333007816
v 24.96754837036132816 152.90800476074218752 -23.31806373596191408
v 24.96754837036132816 188.46800231933593752 -23.31806373596191408
v 21.55985832214355472 152.90800476074218752 -26.50062561035156248
v 21.55985832214355472 188.46800231933593752 -26.50062561035156248
v 17.75054740905761712 152.90800476074218752 -29.18952941894531248
v 17.75054740905761712 188.46800231933593752 -29.18952941894531248
v 13.61057662963867184 152.90800476074218752 -31.33469009399414064
v 13.61057662963867184 188.46800231933593752 -31.33469009399414064
v 9.21706676483154296 152.90800476074218752 -32.89614486694335936
v 9.21706676483154296 188.46800231933593752 -32.89614486694335936
v 4.6518611907958984 152.90800476074218752 -33.84480285644531248
v 4.6518611907958984 188.46800231933593752 -33.84480285644531248
v 0 152.90800476074218752 -34.16299819946289062
v 0 188.46800231933593752 34.16299819946289062
v 4.6518611907958984 188.46800231933593752 33.84480285644531248
v 9.21706676483154296 188.46800231933593752 32.89614486694335936
v 13.61057662963867184 188.46800231933593752 31.33469009399414064
v 17.75054740905761712 188.46800231933593752 29.18952941894531248
v 21.55985832214355472 188.46800231933593752 26.50062561035156248
v 24.96754837036132816 188.46800231933593752 23.31806373596191408
v 0 188.46800231933593752 -34.16299819946289062
v -4.6518611907958984 152.90800476074218752 -33.84480285644531248
v -4.6518611907958984 188.46800231933593752 -33.84480285644531248
v -9.21706676483154296 152.90800476074218752 -32.89614486694335936
v -9.21706676483154296 188.46800231933593752 -32.89614486694335936
v -13.61057662963867184 152.90800476074218752 -31.33469009399414064
v -13.61057662963867184 188.46800231933593752 -31.33469009399414064
v -17.75054740905761712 152.90800476074218752 -29.18952941894531248
v -17.75054740905761712 188.46800231933593752 -29.18952941894531248
v -21.55985832214355472 152.90800476074218752 -26.50062561035156248
v -21.55985832214355472 188.46800231933593752 -26.50062561035156248
v -24.96754837036132816 152.90800476074218752 -23.31806373596191408
v -24.96754837036132816 188.46800231933593752 -23.31806373596191408
v -27.91014289855957024 152.90800476074218752 -19.70112991333007816
v -27.91014289855957024 188.46800231933593752 -19.70112991333007816
v -30.3328227996826172 152.90800476074218752 -15.71720218658447264
v -30.3328227996826172 188.46800231933593752 -15.71720218658447264
v -32.190460205078125 152.90800476074218752 -11.4404926300048828
v -32.190460205078125 188.46800231933593752 -11.4404926300048828
v -33.44844818115234376 152.90800476074218752 -6.95066785812377936
v -33.44844818115234376 188.46800231933593752 -6.95066785812377936
v -34.0833587646484375 152.90800476074218752 -2.33136558532714844
v -34.0833587646484375 188.46800231933593752 -2.33136558532714844
v -34.0833587646484375 152.90800476074218752 2.33136558532714844
v -34.0833587646484375 188.46800231933593752 2.33136558532714844
v -33.44844818115234376 152.90800476074218752 6.95066785812377936
v -33.44844818115234376 188.46800231933593752 6.95066785812377936
v -32.190460205078125 152.90800476074218752 11.4404926300048828
v -32.190460205078125 188.46800231933593752 11.4404926300048828
v -30.3328227996826172 152.90800476074218752 15.71720218658447264
v -30.3328227996826172 188.46800231933593752 15.71720218658447264
v -27.91014289855957024 152.90800476074218752 19.70112991333007816
v -24.96754837036132816 188.46800231933593752 23.31806373596191408
v -21.55985832214355472 188.46800231933593752 26.50062561035156248
v -17.75054740905761712 188.46800231933593752 29.18952941894531248
v -13.61057662963867184 188.46800231933593752 31.33469009399414064
v -9.21706676483154296 188.46800231933593752 32.89614486694335936
v -4.6518611907958984 188.46800231933593752 33.84480285644531248
v -27.91014289855957024 188.46800231933593752 19.70112991333007816
v 20.24079704284667968 152.90800476074218752 -14.70579910278320312
v 22.29209136962890624 152.90800476074218752 -11.35838794708251952
v 24.71097373962402344 152.90800476074218752 3.9138338565826416
v 23.79448318481445312 152.90800476074218752 7.7312960624694824
v 22.29209136962890624 152.90800476074218752 11.35838794708251952
v -24.71097373962402344 152.90800476074218752 -3.9138338565826416
v 23.79448318481445312 152.90800476074218752 -7.7312960624694824
v 25.01899909973144531 152.90800476074218752 0
v -25.01899909973144531 152.90800476074218752 0
v -23.79448318481445312 152.90800476074218752 -7.7312960624694824
v -22.29209136962890624 152.90800476074218752 -11.35838794708251952
v -20.24079704284667968 152.90800476074218752 -14.70579910278320312
v -11.35838794708251952 152.90800476074218752 -22.29209136962890624
v -14.70579910278320312 152.90800476074218752 -20.24079704284667968
v 24.71097373962402344 152.90800476074218752 -3.9138338565826416
v 20.24079704284667968 152.90800476074218752 14.70579910278320312
v 17.6911048889160156 152.90800476074218752 17.6911048889160156
v -17.6911048889160156 152.90800476074218752 -17.6911048889160156
v -7.7312960624694824 152.90800476074218752 -23.79448318481445312
v 14.70579910278320312 152.90800476074218752 -20.24079704284667968
v 11.35838794708251952 152.90800476074218752 22.29209136962890624
v 14.70579910278320312 152.90800476074218752 20.24079704284667968
v -3.9138338565826416 152.90800476074218752 -24.71097373962402344
v 11.35838794708251952 152.90800476074218752 -22.29209136962890624
v 7.7312960624694824 152.90800476074218752 -23.79448318481445312
v 0 152.90800476074218752 -25.01899909973144531
v 3.9138338565826416 152.90800476074218752 -24.71097373962402344
v 17.6911048889160156 152.90800476074218752 -17.6911048889160156
v -17.6911048889160156 152.90800476074218752 17.6911048889160156
v -22.29209136962890624 152.90800476074218752 11.35838794708251952
v -23.79448318481445312 152.90800476074218752 7.7312960624694824
v 7.7312960624694824 152.90800476074218752 23.79448318481445312
v 0 152.90800476074218752 25.01899909973144531
v -11.35838794708251952 152.90800476074218752 22.29209136962890624
v -20.24079704284667968 152.90800476074218752 14.70579910278320312
v -24.71097373962402344 152.90800476074218752 3.9138338565826416
v 3.9138338565826416 152.90800476074218752 24.71097373962402344
v -3.9138338565826416 152.90800476074218752 24.71097373962402344
v -7.7312960624694824 152.90800476074218752 23.79448318481445312
v -14.70579910278320312 152.90800476074218752 20.24079704284667968
v 3.9138338565826416 181.61000061035156248 -24.71097373962402344
v 0 181.61000061035156248 -25.01899909973144531
v 7.7312960624694824 181.61000061035156248 -23.79448318481445312
v 11.35838794708251952 181.61000061035156248 -22.29209136962890624
v 14.70579910278320312 181.61000061035156248 -20.24079704284667968
v 17.6911048889160156 181.61000061035156248 -17.6911048889160156
v 20.24079704284667968 181.61000061035156248 -14.70579910278320312
v 22.29209136962890624 181.61000061035156248 -11.35838794708251952
v 23.79448318481445312 181.61000061035156248 -7.7312960624694824
v 24.71097373962402344 181.61000061035156248 -3.9138338565826416
v 25.01899909973144531 181.61000061035156248 0
v 24.71097373962402344 181.61000061035156248 3.9138338565826416
v 23.79448318481445312 181.61000061035156248 7.7312960624694824
v 22.29209136962890624 181.61000061035156248 11.35838794708251952
v 20.24079704284667968 181.61000061035156248 14.70579910278320312
v 17.6911048889160156 181.61000061035156248 17.6911048889160156
v 14.70579910278320312 181.61000061035156248 20.24079704284667968
v 11.35838794708251952 181.61000061035156248 22.29209136962890624
v 7.7312960624694824 181.61000061035156248 23.79448318481445312
v 3.9138338565826416 181.61000061035156248 24.71097373962402344
v 0 181.61000061035156248 25.01899909973144531
v -3.9138338565826416 181.61000061035156248 24.71097373962402344
v -7.7312960624694824 181.61000061035156248 23.79448318481445312
v -11.35838794708251952 181.61000061035156248 22.29209136962890624
v -14.70579910278320312 181.61000061035156248 20.24079704284667968
v -17.6911048889160156 181.61000061035156248 17.6911048889160156
v -20.24079704284667968 181.61000061035156248 14.70579910278320312
v -22.29209136962890624 181.61000061035156248 11.35838794708251952
v -23.79448318481445312 181.61000061035156248 7.7312960624694824
v -24.71097373962402344 181.61000061035156248 3.9138338565826416
v -25.01899909973144531 181.61000061035156248 0
v -24.71097373962402344 181.61000061035156248 -3.9138338565826416
v -23.79448318481445312 181.61000061035156248 -7.7312960624694824
v -22.29209136962890624 181.61000061035156248 -11.35838794708251952
v -20.24079704284667968 181.61000061035156248 -14.70579910278320312
v -17.6911048889160156 181.61000061035156248 -17.6911048889160156
v -14.70579910278320312 181.61000061035156248 -20.24079704284667968
v -11.35838794708251952 181.61000061035156248 -22.29209136962890624
v -7.7312960624694824 181.61000061035156248 -23.79448318481445312
v -3.9138338565826416 181.61000061035156248 -24.71097373962402344
v -20.03704261779785156 181.61000061035156248 -24.62883377075195312
v -23.2040424346923828 181.61000061035156248 -21.67106246948242184
v -25.93879318237304688 181.61000061035156248 -18.309600830078125
v -28.19035530090332032 181.61000061035156248 -14.60706520080566408
v -29.91678428649902336 181.61000061035156248 -10.63242721557617184
v -31.67598342895507816 181.61000061035156248 -2.16669654846191406
v -31.08592033386230469 181.61000061035156248 -6.45972824096679688
v -16.49678993225097656 181.61000061035156248 -27.12781524658203124
v -31.67598342895507816 181.61000061035156248 2.16669654846191406
v -31.08592033386230469 181.61000061035156248 6.45972824096679688
v -29.91678428649902336 181.61000061035156248 10.63242721557617184
v -28.19035530090332032 181.61000061035156248 14.60706520080566408
v -25.93879318237304688 181.61000061035156248 18.309600830078125
v -23.2040424346923828 181.61000061035156248 21.67106246948242184
v -20.03704261779785156 181.61000061035156248 24.62883377075195312
v 20.03704261779785156 181.61000061035156248 24.62883377075195312
v 23.2040424346923828 181.61000061035156248 21.67106246948242184
v 25.93879318237304688 181.61000061035156248 18.309600830078125
v -12.6492347717285156 181.61000061035156248 -29.12145805358886718
v 16.49678993225097656 181.61000061035156248 27.12781524658203124
v 28.19035530090332032 181.61000061035156248 14.60706520080566408
v 29.91678428649902336 181.61000061035156248 10.63242721557617184
v 31.08592033386230469 181.61000061035156248 6.45972824096679688
v 31.08592033386230469 181.61000061035156248 -6.45972824096679688
v 29.91678428649902336 181.61000061035156248 -10.63242721557617184
v 28.19035530090332032 181.61000061035156248 -14.60706520080566408
v 25.93879318237304688 181.61000061035156248 -18.309600830078125
v 23.2040424346923828 181.61000061035156248 -21.67106246948242184
v -8.56604766845703128 181.61000061035156248 -30.57262420654296872
v -16.49678993225097656 181.61000061035156248 27.12781524658203124
v 12.6492347717285156 181.61000061035156248 29.12145805358886718
v 31.67598342895507816 181.61000061035156248 -2.16669654846191406
v 16.49678993225097656 181.61000061035156248 -27.12781524658203124
v 4.32329130172729492 181.61000061035156248 -31.4542789459228516
v 0 181.61000061035156248 -31.75
v -4.32329130172729492 181.61000061035156248 -31.4542789459228516
v -12.6492347717285156 181.61000061035156248 29.12145805358886718
v -8.56604766845703128 181.61000061035156248 30.57262420654296872
v 8.56604766845703128 181.61000061035156248 30.57262420654296872
v 31.67598342895507816 181.61000061035156248 2.16669654846191406
v 20.03704261779785156 181.61000061035156248 -24.62883377075195312
v 12.6492347717285156 181.61000061035156248 -29.12145805358886718
v 8.56604766845703128 181.61000061035156248 -30.57262420654296872
v -4.32329130172729492 181.61000061035156248 31.4542789459228516
v 0 181.61000061035156248 31.75
v 4.32329130172729492 181.61000061035156248 31.4542789459228516
v -29.91678428649902336 188.46800231933593752 -10.63242721557617184
v -28.19035530090332032 188.46800231933593752 -14.60706520080566408
v -31.08592033386230469 188.46800231933593752 -6.45972824096679688
v -31.67598342895507816 188.46800231933593752 -2.16669654846191406
v -29.91678428649902336 188.46800231933593752 10.63242721557617184
v -31.08592033386230469 188.46800231933593752 6.45972824096679688
v -28.19035530090332032 188.46800231933593752 14.60706520080566408
v -20.03704261779785156 188.46800231933593752 -24.62883377075195312
v -23.2040424346923828 188.46800231933593752 -21.67106246948242184
v -31.67598342895507816 188.46800231933593752 2.16669654846191406
v 29.91678428649902336 188.46800231933593752 -10.63242721557617184
v 28.19035530090332032 188.46800231933593752 -14.60706520080566408
v 25.93879318237304688 188.46800231933593752 -18.309600830078125
v 23.2040424346923828 188.46800231933593752 -21.67106246948242184
v 20.03704261779785156 188.46800231933593752 -24.62883377075195312
v 16.49678993225097656 188.46800231933593752 -27.12781524658203124
v 12.6492347717285156 188.46800231933593752 -29.12145805358886718
v 8.56604766845703128 188.46800231933593752 -30.57262420654296872
v 4.32329130172729492 188.46800231933593752 -31.4542789459228516
v 0 188.46800231933593752 -31.75
v -4.32329130172729492 188.46800231933593752 -31.4542789459228516
v -8.56604766845703128 188.46800231933593752 -30.57262420654296872
v -12.6492347717285156 188.46800231933593752 -29.12145805358886718
v -16.49678993225097656 188.46800231933593752 -27.12781524658203124
v -25.93879318237304688 188.46800231933593752 -18.309600830078125
v 31.08592033386230469 188.46800231933593752 -6.45972824096679688
v 31.67598342895507816 188.46800231933593752 -2.16669654846191406
v -25.93879318237304688 188.46800231933593752 18.309600830078125
v -20.03704261779785156 188.46800231933593752 24.62883377075195312
v -16.49678993225097656 188.46800231933593752 27.12781524658203124
v -23.2040424346923828 188.46800231933593752 21.67106246948242184
v -12.6492347717285156 188.46800231933593752 29.12145805358886718
v -8.56604766845703128 188.46800231933593752 30.57262420654296872
v -4.32329130172729492 188.46800231933593752 31.4542789459228516
v 0 188.46800231933593752 31.75
v 4.32329130172729492 188.46800231933593752 31.4542789459228516
v 8.56604766845703128 188.46800231933593752 30.57262420654296872
v 12.6492347717285156 188.46800231933593752 29.12145805358886718
v 16.49678993225097656 188.46800231933593752 27.12781524658203124
v 20.03704261779785156 188.46800231933593752 24.62883377075195312
v 23.2040424346923828 188.46800231933593752 21.67106246948242184
v 29.91678428649902336 188.46800231933593752 10.63242721557617184
v 31.08592033386230469 188.46800231933593752 6.45972824096679688
v 25.93879318237304688 188.46800231933593752 18.309600830078125
v 31.67598342895507816 188.46800231933593752 2.16669654846191406
v 28.19035530090332032 188.46800231933593752 14.60706520080566408
# 666 vertices

vn -0.06540312618017197 -0.9978589415550232 0
vn -0.19509032368659972 -0.98078525066375728 0
vn -0.32143947482109068 -0.94693011045455936 0
vn -0.44228869676589968 -0.89687275886535648 0
vn -0.55557024478912352 -0.83146959543228144 0
vn -0.65934580564498904 -0.75183981657028192 0
vn -0.75183981657028192 -0.65934580564498904 0
vn -0.83146959543228144 -0.55557024478912352 0
vn -0.89687275886535648 -0.44228869676589968 0
vn -0.94693011045455936 -0.32143947482109068 0
vn -0.98078525066375728 -0.19509032368659972 0
vn -0.9978589415550232 -0.06540312618017197 0
vn -0.9978589415550232 0.06540312618017197 0
vn -0.98078525066375728 0.19509032368659972 0
vn -0.94693011045455936 0.32143947482109068 0
vn -0.89687275886535648 0.44228869676589968 0
vn -0.83146959543228144 0.55557024478912352 0
vn -0.75183981657028192 0.65934580564498904 0
vn -0.65934580564498904 0.75183981657028192 0
vn -0.55557024478912352 0.83146959543228144 0
vn -0.44228869676589968 0.89687275886535648 0
vn -0.32143947482109068 0.94693011045455936 0
vn -0.19509032368659972 0.98078525066375728 0
vn -0.06540312618017197 0.9978589415550232 0
vn 0.06540312618017197 0.9978589415550232 0
vn 0.19509032368659972 0.98078525066375728 0
vn 0.32143947482109068 0.94693011045455936 0
vn 0.44228869676589968 0.89687275886535648 0
vn 0.55557024478912352 0.83146959543228144 0
vn 0.65934580564498904 0.75183981657028192 0
vn 0.75183981657028192 0.65934580564498904 0
vn 0.83146959543228144 0.55557024478912352 0
vn 0.89687275886535648 0.44228869676589968 0
vn 0.94693011045455936 0.32143947482109068 0
vn 0.98078525066375728 0.19509032368659972 0
vn 0.9978589415550232 0.06540312618017197 0
vn 0.9978589415550232 -0.06540312618017197 0
vn 0.98078525066375728 -0.19509032368659972 0
vn 0.94693011045455936 -0.32143947482109068 0
vn 0.89687275886535648 -0.44228869676589968 0
vn 0.83146959543228144 -0.55557024478912352 0
vn 0.75183981657028192 -0.65934580564498904 0
vn 0.65934580564498904 -0.75183981657028192 0
vn 0.55557024478912352 -0.83146959543228144 0
vn 0.44228869676589968 -0.89687275886535648 0
vn 0.32143947482109068 -0.94693011045455936 0
vn 0.19509032368659972 -0.98078525066375728 0
vn 0.06540312618017197 -0.9978589415550232 0
vn 0 0 1
vn -0.06279052048921585 -0.99802672863006592 0
vn -0.187381312251091 -0.98228722810745232 0
vn -0.30901700258255004 -0.95105654001235968 0
vn -0.4257792830467224 -0.90482705831527712 0
vn -0.53582680225372312 -0.84432792663574224 0
vn -0.6374239921569824 -0.77051323652267456 0
vn -0.72896862030029296 -0.6845471262931824 0
vn -0.80901700258255008 -0.58778524398803712 0
vn -0.87630665302276608 -0.48175367712974552 0
vn -0.9297764897346496 -0.36812454462051392 0
vn -0.96858316659927376 -0.24868988990783692 0
vn -0.99211472272872928 -0.12533323466777802 0
vn -1 0 0
vn -0.99211472272872928 0.12533323466777802 0
vn -0.96858316659927376 0.24868988990783692 0
vn -0.9297764897346496 0.36812454462051392 0
vn -0.87630665302276608 0.48175367712974552 0
vn -0.80901700258255008 0.58778524398803712 0
vn -0.72896862030029296 0.6845471262931824 0
vn -0.6374239921569824 0.77051323652267456 0
vn -0.53582680225372312 0.84432792663574224 0
vn -0.4257792830467224 0.90482705831527712 0
vn -0.30901700258255004 0.95105654001235968 0
vn -0.187381312251091 0.98228722810745232 0
vn -0.06279052048921585 0.99802672863006592 0
vn 0.06279052048921585 0.99802672863006592 0
vn 0.187381312251091 0.98228722810745232 0
vn 0.30901700258255004 0.95105654001235968 0
vn 0.4257792830467224 0.90482705831527712 0
vn 0.53582680225372312 0.84432792663574224 0
vn 0.6374239921569824 0.77051323652267456 0
vn 0.72896862030029296 0.6845471262931824 0
vn 0.80901700258255008 0.58778524398803712 0
vn 0.87630665302276608 0.48175367712974552 0
vn 0.9297764897346496 0.36812454462051392 0
vn 0.96858316659927376 0.24868988990783692 0
vn 0.99211472272872928 0.12533323466777802 0
vn 1 0 0
vn 0.99211472272872928 -0.12533323466777802 0
vn 0.96858316659927376 -0.24868988990783692 0
vn 0.9297764897346496 -0.36812454462051392 0
vn 0.87630665302276608 -0.48175367712974552 0
vn 0.80901700258255008 -0.58778524398803712 0
vn 0.72896862030029296 -0.6845471262931824 0
vn 0.6374239921569824 -0.77051323652267456 0
vn 0.53582680225372312 -0.84432792663574224 0
vn 0.4257792830467224 -0.90482705831527712 0
vn 0.30901700258255004 -0.95105654001235968 0
vn 0.187381312251091 -0.98228722810745232 0
vn 0.06279052048921585 -0.99802672863006592 0
vn 0 0 -1
vn -0.66541707515716552 0.74647182226181024 0
vn -0.7484925985336304 0.6631431579589844 0
vn -0.82120513916015632 0.5706331133842468 0
vn -0.88254785537719728 0.4702225625514984 0
vn -0.9316715598106384 0.3633016645908356 0
vn -0.96789604425430304 0.25135079026222228 0
vn -0.99071985483169552 0.13591989874839782 0
vn -0.99982684850692752 0.01860716752707958 0
vn -0.99509108066558832 -0.0989631786942482 0
vn -0.9765780568122864 -0.21516335010528564 0
vn -0.94454413652420048 -0.32838454842567444 0
vn -0.89943271875381472 -0.4370591938495636 0
vn -0.84186851978302 -0.53968268632888792 0
vn -0.77264845371246336 -0.63483411073684696 0
vn -0.69273090362548832 -0.72119611501693728 0
vn -0.60322237014770504 -0.79757302999496464 0
vn -0.50536209344863888 -0.8629074096679688 0
vn -0.4005049467086792 -0.9162945747375488 0
vn -0.29010272026062012 -0.95699548721313472 0
vn -0.17568397521972656 -0.98444664478302 0
vn -0.05883284285664558 -0.9982678294181824 0
vn 0.05883284285664558 -0.9982678294181824 0
vn 0.17568397521972656 -0.98444664478302 0
vn 0.29010272026062012 -0.95699548721313472 0
vn 0.4005049467086792 -0.9162945747375488 0
vn 0.50536209344863888 -0.8629074096679688 0
vn 0.60322237014770504 -0.79757302999496464 0
vn 0.69273090362548832 -0.72119611501693728 0
vn 0.77264845371246336 -0.63483411073684696 0
vn 0.84186851978302 -0.53968268632888792 0
vn 0.89943271875381472 -0.4370591938495636 0
vn 0.94454413652420048 -0.32838454842567444 0
vn 0.9765780568122864 -0.21516335010528564 0
vn 0.99509108066558832 -0.0989631786942482 0
vn 0.99982684850692752 0.01860716752707958 0
vn 0.99071985483169552 0.13591989874839782 0
vn 0.96789604425430304 0.25135079026222228 0
vn 0.9316715598106384 0.3633016645908356 0
vn 0.88254785537719728 0.4702225625514984 0
vn 0.82120513916015632 0.5706331133842468 0
vn 0.7484925985336304 0.6631431579589844 0
vn 0.66541707515716552 0.74647182226181024 0
vn -0.9887309074401856 0.14970357716083526 0
vn -0.90009647607803344 0.43569061160087584 0
vn -0.73077321052551264 0.68262028694152832 0
vn 0.9887309074401856 0.14970357716083526 0
vn 0.90009647607803344 0.43569061160087584 0
vn 0.73077321052551264 0.68262028694152832 0
vn 0 0.03414110839366913 0.99941700696945184
vn 0 0.1022641509771347 0.99475729465484624
vn 0 0.16991038620471954 0.98545950651168816
vn 0 0.23676441609859468 0.97156709432601936
vn 0 0.30251455307006836 0.95314478874206544
vn 0 0.3668542206287384 0.9302784204483032
vn 0 0.42948344349861144 0.90307474136352544
vn 0 0.49011021852493288 0.87166047096252448
vn 0 0.54845190048217776 0.83618211746215824
vn 0 0.604236364364624 0.7968050837516784
vn 0 0.65720367431640624 0.75371301174163824
vn 0 0.7071067690849304 0.7071067690849304
vn 0 0.75371301174163824 0.65720367431640624
vn 0 0.7968050837516784 0.604236364364624
vn 0 0.83618211746215824 0.54845190048217776
vn 0 0.87166047096252448 0.49011021852493288
vn 0 0.90307474136352544 0.42948344349861144
vn 0 0.9302784204483032 0.3668542206287384
vn 0 0.95314478874206544 0.30251455307006836
vn 0 0.97156709432601936 0.23676441609859468
vn 0 0.98545950651168816 0.16991038620471954
vn 0 0.99475729465484624 0.1022641509771347
vn 0 0.99941700696945184 0.03414110839366913
vn 0 -0.99930071830749504 -0.03739119321107864
vn 0 -0.99371218681335456 -0.11196447908878326
vn 0 -0.98256647586822512 -0.1859116107225418
vn 0 -0.96592581272125248 -0.25881904363632204
vn 0 -0.94388335943222048 -0.33027905225753784
vn 0 -0.91656225919723504 -0.39989203214645384
vn 0 -0.88411539793014528 -0.4672686159610748
vn 0 -0.8467242121696472 -0.53203207254409792
vn 0 -0.80459779500961296 -0.59382021427154544
vn 0 -0.75797170400619504 -0.65228742361068728
vn 0 -0.7071067690849304 -0.7071067690849304
vn 0 -0.65228742361068728 -0.75797170400619504
vn 0 -0.59382021427154544 -0.80459779500961296
vn 0 -0.53203207254409792 -0.8467242121696472
vn 0 -0.4672686159610748 -0.88411539793014528
vn 0 -0.39989203214645384 -0.91656225919723504
vn 0 -0.33027905225753784 -0.94388335943222048
vn 0 -0.25881904363632204 -0.96592581272125248
vn 0 -0.1859116107225418 -0.98256647586822512
vn 0 -0.11196447908878326 -0.99371218681335456
vn 0 -0.03739119321107864 -0.99930071830749504
vn 0.99376809597015376 0 0.11146743595600128
vn 0.94437783956527712 0 0.32886239886283876
vn 0.84805208444595344 0 0.52991288900375368
vn 0 1 0
vn -0.99376809597015376 0 0.11146743595600128
vn -0.94437783956527712 0 0.32886239886283876
vn -0.84805208444595344 0 0.52991288900375368
vn 0.85441941022872928 0 0.51958394050598144
vn 0.9172112941741944 0 0.39840108156204224
vn 0.96291726827621456 0 0.26979675889015196
vn 0.9906859397888184 0 0.13616664707660676
vn 0.9906859397888184 0 -0.13616664707660676
vn 0.96291726827621456 0 -0.26979675889015196
vn 0.9172112941741944 0 -0.39840108156204224
vn 0.85441941022872928 0 -0.51958394050598144
vn 0.77571129798889168 0 -0.6310879588127136
vn 0.6825531721115112 0 -0.73083597421646112
vn 0.57668030261993408 0 -0.81696987152099616
vn 0.46006503701210024 0 -0.8878852128982544
vn 0.33487960696220396 0 -0.9422609210014344
vn 0.20345601439476012 0 -0.97908407449722288
vn 0.06824241578578949 0 -0.99766874313354496
vn 0.06824241578578949 0 0.99766874313354496
vn 0.20345601439476012 0 0.97908407449722288
vn 0.33487960696220396 0 0.9422609210014344
vn 0.46006503701210024 0 0.8878852128982544
vn 0.57668030261993408 0 0.81696987152099616
vn 0.6825531721115112 0 0.73083597421646112
vn 0.80064314603805536 0 0.5991414785385132
vn 0.75788980722427376 0 0.65238261222839352
vn 0.77570289373397824 0.00465541845187544 0.63108110427856448
vn -0.06824241578578949 0 -0.99766874313354496
vn -0.20345601439476012 0 -0.97908407449722288
vn -0.33487960696220396 0 -0.9422609210014344
vn -0.46006503701210024 0 -0.8878852128982544
vn -0.57668030261993408 0 -0.81696987152099616
vn -0.6825531721115112 0 -0.73083597421646112
vn -0.77571129798889168 0 -0.6310879588127136
vn -0.85441941022872928 0 -0.51958394050598144
vn -0.9172112941741944 0 -0.39840108156204224
vn -0.96291726827621456 0 -0.26979675889015196
vn -0.9906859397888184 0 -0.13616664707660676
vn -0.9906859397888184 0 0.13616664707660676
vn -0.96291726827621456 0 0.26979675889015196
vn -0.9172112941741944 0 0.39840108156204224
vn -0.85441941022872928 0 0.51958394050598144
vn -0.6825531721115112 0 0.73083597421646112
vn -0.57668030261993408 0 0.81696987152099616
vn -0.46006503701210024 0 0.8878852128982544
vn -0.33487960696220396 0 0.9422609210014344
vn -0.20345601439476012 0 0.97908407449722288
vn -0.06824241578578949 0 0.99766874313354496
vn -0.77570289373397824 0.00465541845187544 0.63108110427856448
vn -0.80064314603805536 0 0.5991414785385132
vn -0.75788980722427376 0 0.65238261222839352
vn 0 -1 0
vn -0.07845909893512726 0 0.9969173073768616
vn -0.23344536125659944 0 0.97236990928649904
vn -0.38268342614173888 0 0.92387950420379632
vn -0.52249854803085328 0 0.85264015197753904
vn -0.649448037147522 0 0.76040595769882208
vn -0.76040595769882208 0 0.649448037147522
vn -0.85264015197753904 0 0.52249854803085328
vn -0.92387950420379632 0 0.38268342614173888
vn -0.97236990928649904 0 0.23344536125659944
vn -0.9969173073768616 0 0.07845909893512726
vn -0.9969173073768616 0 -0.07845909893512726
vn -0.97236990928649904 0 -0.23344536125659944
vn -0.92387950420379632 0 -0.38268342614173888
vn -0.85264015197753904 0 -0.52249854803085328
vn -0.76040595769882208 0 -0.649448037147522
vn -0.649448037147522 0 -0.76040595769882208
vn -0.52249854803085328 0 -0.85264015197753904
vn -0.38268342614173888 0 -0.92387950420379632
vn -0.23344536125659944 0 -0.97236990928649904
vn -0.07845909893512726 0 -0.9969173073768616
vn 0.07845909893512726 0 -0.9969173073768616
vn 0.23344536125659944 0 -0.97236990928649904
vn 0.38268342614173888 0 -0.92387950420379632
vn 0.52249854803085328 0 -0.85264015197753904
vn 0.649448037147522 0 -0.76040595769882208
vn 0.76040595769882208 0 -0.649448037147522
vn 0.85264015197753904 0 -0.52249854803085328
vn 0.92387950420379632 0 -0.38268342614173888
vn 0.97236990928649904 0 -0.23344536125659944
vn 0.9969173073768616 0 -0.07845909893512726
vn 0.9969173073768616 0 0.07845909893512726
vn 0.97236990928649904 0 0.23344536125659944
vn 0.92387950420379632 0 0.38268342614173888
vn 0.85264015197753904 0 0.52249854803085328
vn 0.76040595769882208 0 0.649448037147522
vn 0.649448037147522 0 0.76040595769882208
vn 0.52249854803085328 0 0.85264015197753904
vn 0.38268342614173888 0 0.92387950420379632
vn 0.23344536125659944 0 0.97236990928649904
vn 0.07845909893512726 0 0.9969173073768616
vn -0.77571129798889168 0 0.6310879588127136
vn 0.77571129798889168 0 0.6310879588127136
# 290 vertex normals

g obj_20169662
s 1
f 1//1 2//1 3//1
f 4//2 1//2 5//2
f 6//3 4//3 7//3
f 8//4 6//4 9//4
f 10//5 8//5 11//5
f 12//6 10//6 13//6
f 14//7 12//7 15//7
f 16//8 14//8 17//8
f 18//9 16//9 19//9
f 20//10 18//10 21//10
f 22//11 20//11 23//11
f 24//12 22//12 25//12
f 26//13 24//13 27//13
f 28//14 26//14 29//14
f 30//15 28//15 31//15
f 32//16 30//16 33//16
f 34//17 32//17 35//17
f 36//18 34//18 37//18
f 38//19 36//19 39//19
f 40//20 38//20 41//20
f 42//21 40//21 43//21
f 44//22 42//22 45//22
f 46//23 44//23 47//23
f 48//24 46//24 49//24
f 49//24 50//24 48//24
f 47//23 49//23 46//23
f 45//22 47//22 44//22
f 43//21 45//21 42//21
f 41//20 43//20 40//20
f 39//19 41//19 38//19
f 37//18 39//18 36//18
f 35//17 37//17 34//17
f 33//16 35//16 32//16
f 31//15 33//15 30//15
f 29//14 31//14 28//14
f 27//13 29//13 26//13
f 25//12 27//12 24//12
f 23//11 25//11 22//11
f 21//10 23//10 20//10
f 19//9 21//9 18//9
f 17//8 19//8 16//8
f 15//7 17//7 14//7
f 13//6 15//6 12//6
f 11//5 13//5 10//5
f 9//4 11//4 8//4
f 7//3 9//3 6//3
f 5//2 7//2 4//2
f 3//1 5//1 1//1
f 51//25 48//25 50//25
f 52//26 51//26 53//26
f 54//27 52//27 55//27
f 56//28 54//28 57//28
f 58//29 56//29 59//29
f 60//30 58//30 61//30
f 62//31 60//31 63//31
f 64//32 62//32 65//32
f 66//33 64//33 67//33
f 68//34 66//34 69//34
f 70//35 68//35 71//35
f 72//36 70//36 73//36
f 74//37 72//37 75//37
f 76//38 74//38 77//38
f 78//39 76//39 79//39
f 80//40 78//40 81//40
f 82//41 80//41 83//41
f 84//42 82//42 85//42
f 86//43 84//43 87//43
f 88//44 86//44 89//44
f 90//45 88//45 91//45
f 92//46 90//46 93//46
f 94//47 92//47 95//47
f 2//48 94//48 96//48
f 96//48 3//48 2//48
f 95//47 96//47 94//47
f 93//46 95//46 92//46
f 91//45 93//45 90//45
f 89//44 91//44 88//44
f 87//43 89//43 86//43
f 85//42 87//42 84//42
f 83//41 85//41 82//41
f 81//40 83//40 80//40
f 79//39 81//39 78//39
f 77//38 79//38 76//38
f 75//37 77//37 74//37
f 73//36 75//36 72//36
f 71//35 73//35 70//35
f 69//34 71//34 68//34
f 67//33 69//33 66//33
f 65//32 67//32 64//32
f 63//31 65//31 62//31
f 61//30 63//30 60//30
f 59//29 61//29 58//29
f 57//28 59//28 56//28
f 55//27 57//27 54//27
f 53//26 55//26 52//26
f 50//25 53//25 51//25
f 97//49 98//49 64//49
f 98//49 99//49 62//49
f 100//49 101//49 54//49
f 101//49 102//49 52//49
f 62//49 64//49 98//49
f 99//49 103//49 60//49
f 52//49 54//49 101//49
f 102//49 104//49 51//49
f 105//49 106//49 68//49
f 106//49 97//49 66//49
f 60//49 62//49 99//49
f 103//49 107//49 58//49
f 107//49 100//49 56//49
f 51//49 52//49 102//49
f 104//49 108//49 48//49
f 109//49 46//49 48//49
f 110//49 38//49 40//49
f 111//49 36//49 38//49
f 112//49 113//49 12//49
f 113//49 114//49 10//49
f 115//49 116//49 4//49
f 116//49 117//49 1//49
f 66//49 68//49 106//49
f 58//49 60//49 103//49
f 54//49 56//49 100//49
f 48//49 108//49 109//49
f 118//49 44//49 46//49
f 119//49 42//49 44//49
f 120//49 40//49 42//49
f 38//49 110//49 111//49
f 121//49 34//49 36//49
f 122//49 32//49 34//49
f 123//49 30//49 32//49
f 124//49 28//49 30//49
f 125//49 126//49 18//49
f 126//49 127//49 16//49
f 10//49 12//49 113//49
f 114//49 128//49 8//49
f 128//49 115//49 6//49
f 1//49 4//49 116//49
f 129//49 92//49 94//49
f 130//49 90//49 92//49
f 131//49 86//49 88//49
f 132//49 84//49 86//49
f 133//49 82//49 84//49
f 134//49 80//49 82//49
f 135//49 78//49 80//49
f 136//49 76//49 78//49
f 137//49 105//49 70//49
f 64//49 66//49 97//49
f 48//49 51//49 104//49
f 44//49 118//49 119//49
f 40//49 120//49 110//49
f 34//49 121//49 122//49
f 30//49 123//49 124//49
f 138//49 125//49 20//49
f 16//49 18//49 126//49
f 8//49 10//49 114//49
f 4//49 6//49 115//49
f 117//49 139//49 2//49
f 140//49 94//49 2//49
f 92//49 129//49 130//49
f 141//49 88//49 90//49
f 86//49 131//49 132//49
f 82//49 133//49 134//49
f 78//49 135//49 136//49
f 142//49 74//49 76//49
f 72//49 143//49 137//49
f 56//49 58//49 107//49
f 42//49 119//49 120//49
f 32//49 122//49 123//49
f 144//49 26//49 28//49
f 145//49 24//49 26//49
f 146//49 138//49 22//49
f 18//49 20//49 125//49
f 127//49 112//49 14//49
f 6//49 8//49 128//49
f 2//49 139//49 140//49
f 90//49 130//49 141//49
f 84//49 132//49 133//49
f 76//49 136//49 142//49
f 143//49 72//49 74//49
f 68//49 70//49 105//49
f 36//49 111//49 121//49
f 26//49 144//49 145//49
f 24//49 145//49 146//49
f 14//49 16//49 127//49
f 2//49 1//49 117//49
f 88//49 141//49 131//49
f 74//49 142//49 143//49
f 46//49 109//49 118//49
f 22//49 24//49 146//49
f 12//49 14//49 112//49
f 80//49 134//49 135//49
f 28//49 124//49 144//49
f 94//49 140//49 129//49
f 20//49 22//49 138//49
f 70//49 72//49 137//49
f 147//50 148//50 139//50
f 149//51 147//51 117//51
f 150//52 149//52 116//52
f 151//53 150//53 115//53
f 152//54 151//54 128//54
f 153//55 152//55 114//55
f 154//56 153//56 113//56
f 155//57 154//57 112//57
f 156//58 155//58 127//58
f 157//59 156//59 126//59
f 158//60 157//60 125//60
f 159//61 158//61 138//61
f 160//62 159//62 146//62
f 161//63 160//63 145//63
f 162//64 161//64 144//64
f 163//65 162//65 124//65
f 164//66 163//66 123//66
f 165//67 164//67 122//67
f 166//68 165//68 121//68
f 167//69 166//69 111//69
f 168//70 167//70 110//70
f 169//71 168//71 120//71
f 170//72 169//72 119//72
f 171//73 170//73 118//73
f 172//74 171//74 109//74
f 109//74 108//74 172//74
f 118//73 109//73 171//73
f 119//72 118//72 170//72
f 120//71 119//71 169//71
f 110//70 120//70 168//70
f 111//69 110//69 167//69
f 121//68 111//68 166//68
f 122//67 121//67 165//67
f 123//66 122//66 164//66
f 124//65 123//65 163//65
f 144//64 124//64 162//64
f 145//63 144//63 161//63
f 146//62 145//62 160//62
f 138//61 146//61 159//61
f 125//60 138//60 158//60
f 126//59 125//59 157//59
f 127//58 126//58 156//58
f 112//57 127//57 155//57
f 113//56 112//56 154//56
f 114//55 113//55 153//55
f 128//54 114//54 152//54
f 115//53 128//53 151//53
f 116//52 115//52 150//52
f 117//51 116//51 149//51
f 139//50 117//50 147//50
f 173//75 172//75 108//75
f 174//76 173//76 104//76
f 175//77 174//77 102//77
f 176//78 175//78 101//78
f 177//79 176//79 100//79
f 178//80 177//80 107//80
f 179//81 178//81 103//81
f 180//82 179//82 99//82
f 181//83 180//83 98//83
f 182//84 181//84 97//84
f 183//85 182//85 106//85
f 184//86 183//86 105//86
f 185//87 184//87 137//87
f 186//88 185//88 143//88
f 187//89 186//89 142//89
f 188//90 187//90 136//90
f 189//91 188//91 135//91
f 190//92 189//92 134//92
f 191//93 190//93 133//93
f 192//94 191//94 132//94
f 193//95 192//95 131//95
f 194//96 193//96 141//96
f 195//97 194//97 130//97
f 196//98 195//98 129//98
f 148//99 196//99 140//99
f 140//99 139//99 148//99
f 129//98 140//98 196//98
f 130//97 129//97 195//97
f 141//96 130//96 194//96
f 131//95 141//95 193//95
f 132//94 131//94 192//94
f 133//93 132//93 191//93
f 134//92 133//92 190//92
f 135//91 134//91 189//91
f 136//90 135//90 188//90
f 142//89 136//89 187//89
f 143//88 142//88 186//88
f 137//87 143//87 185//87
f 105//86 137//86 184//86
f 106//85 105//85 183//85
f 97//84 106//84 182//84
f 98//83 97//83 181//83
f 99//82 98//82 180//82
f 103//81 99//81 179//81
f 107//80 103//80 178//80
f 100//79 107//79 177//79
f 101//78 100//78 176//78
f 102//77 101//77 175//77
f 104//76 102//76 174//76
f 108//75 104//75 173//75
f 197//100 43//100 41//100
f 198//100 57//100 55//100
f 199//100 59//100 57//100
f 200//100 201//100 65//100
f 201//100 202//100 67//100
f 203//100 75//100 73//100
f 204//100 77//100 75//100
f 205//100 206//100 79//100
f 207//100 5//100 3//100
f 208//100 209//100 33//100
f 210//100 35//100 33//100
f 211//100 37//100 35//100
f 212//100 39//100 37//100
f 213//100 41//100 39//100
f 41//100 213//100 197//100
f 214//100 215//100 50//100
f 216//100 53//100 50//100
f 217//100 55//100 53//100
f 57//100 198//100 199//100
f 67//100 65//100 201//100
f 202//100 218//100 69//100
f 75//100 203//100 204//100
f 77//100 204//100 205//100
f 3//100 219//100 207//100
f 33//100 209//100 210//100
f 37//100 211//100 212//100
f 197//100 220//100 43//100
f 220//100 221//100 45//100
f 50//100 215//100 216//100
f 55//100 217//100 198//100
f 222//100 223//100 61//100
f 223//100 200//100 63//100
f 69//100 67//100 202//100
f 224//100 71//100 69//100
f 225//100 73//100 71//100
f 79//100 77//100 205//100
f 206//100 226//100 81//100
f 227//100 228//100 85//100
f 228//100 229//100 87//100
f 230//100 89//100 87//100
f 231//100 21//100 19//100
f 232//100 23//100 21//100
f 233//100 25//100 23//100
f 234//100 235//100 219//100
f 219//100 96//100 95//100
f 207//100 7//100 5//100
f 35//100 210//100 211//100
f 45//100 43//100 220//100
f 221//100 236//100 47//100
f 236//100 214//100 49//100
f 53//100 216//100 217//100
f 59//100 199//100 222//100
f 65//100 63//100 200//100
f 71//100 224//100 225//100
f 81//100 79//100 206//100
f 226//100 227//100 83//100
f 87//100 85//100 228//100
f 87//100 229//100 230//100
f 13//100 11//100 237//100
f 238//100 239//100 15//100
f 21//100 231//100 232//100
f 23//100 232//100 233//100
f 207//100 237//100 11//100
f 219//100 240//100 234//100
f 3//100 96//100 219//100
f 241//100 242//100 29//100
f 242//100 208//100 31//100
f 39//100 212//100 213//100
f 49//100 47//100 236//100
f 61//100 59//100 222//100
f 69//100 218//100 224//100
f 83//100 81//100 226//100
f 230//100 243//100 89//100
f 15//100 13//100 238//100
f 244//100 17//100 15//100
f 245//100 19//100 17//100
f 233//100 246//100 25//100
f 11//100 9//100 207//100
f 95//100 247//100 219//100
f 91//100 89//100 243//100
f 247//100 95//100 93//100
f 31//100 29//100 242//100
f 47//100 45//100 221//100
f 63//100 61//100 223//100
f 85//100 83//100 227//100
f 15//100 239//100 244//100
f 19//100 245//100 231//100
f 235//100 207//100 219//100
f 93//100 91//100 247//100
f 33//100 31//100 208//100
f 73//100 225//100 203//100
f 17//100 244//100 245//100
f 246//100 241//100 27//100
f 243//100 247//100 91//100
f 50//100 49//100 214//100
f 27//100 25//100 246//100
f 29//100 27//100 241//100
f 9//100 7//100 207//100
f 237//100 238//100 13//100
f 248//101 230//101 229//101
f 249//102 229//102 228//102
f 250//103 228//103 227//103
f 251//104 227//104 226//104
f 252//105 226//105 206//105
f 253//106 206//106 205//106
f 254//107 205//107 204//107
f 255//108 204//108 203//108
f 256//109 203//109 225//109
f 257//110 225//110 224//110
f 258//111 224//111 218//111
f 259//112 218//112 202//112
f 260//113 202//113 201//113
f 261//114 201//114 200//114
f 262//115 200//115 223//115
f 263//116 223//116 222//116
f 264//117 222//117 199//117
f 265//118 199//118 198//118
f 266//119 198//119 217//119
f 267//120 217//120 216//120
f 268//121 216//121 215//121
f 269//122 215//122 214//122
f 270//123 214//123 236//123
f 271//124 236//124 221//124
f 272//125 221//125 220//125
f 273//126 220//126 197//126
f 274//127 197//127 213//127
f 275//128 213//128 212//128
f 276//129 212//129 211//129
f 277//130 211//130 210//130
f 278//131 210//131 209//131
f 279//132 209//132 208//132
f 280//133 208//133 242//133
f 281//134 242//134 241//134
f 282//135 241//135 246//135
f 283//136 246//136 233//136
f 284//137 233//137 232//137
f 285//138 232//138 231//138
f 286//139 231//139 245//139
f 287//140 245//140 244//140
f 288//141 244//141 239//141
f 289//142 239//142 238//142
f 238//142 290//142 289//142
f 239//141 289//141 288//141
f 244//140 288//140 287//140
f 245//139 287//139 286//139
f 231//138 286//138 285//138
f 232//137 285//137 284//137
f 233//136 284//136 283//136
f 246//135 283//135 282//135
f 241//134 282//134 281//134
f 242//133 281//133 280//133
f 208//132 280//132 279//132
f 209//131 279//131 278//131
f 210//130 278//130 277//130
f 211//129 277//129 276//129
f 212//128 276//128 275//128
f 213//127 275//127 274//127
f 197//126 274//126 273//126
f 220//125 273//125 272//125
f 221//124 272//124 271//124
f 236//123 271//123 270//123
f 214//122 270//122 269//122
f 215//121 269//121 268//121
f 216//120 268//120 267//120
f 217//119 267//119 266//119
f 198//118 266//118 265//118
f 199//117 265//117 264//117
f 222//116 264//116 263//116
f 223//115 263//115 262//115
f 200//114 262//114 261//114
f 201//113 261//113 260//113
f 202//112 260//112 259//112
f 218//111 259//111 258//111
f 224//110 258//110 257//110
f 225//109 257//109 256//109
f 203//108 256//108 255//108
f 204//107 255//107 254//107
f 205//106 254//106 253//106
f 206//105 253//105 252//105
f 226//104 252//104 251//104
f 227//103 251//103 250//103
f 228//102 250//102 249//102
f 229//101 249//101 248//101
f 291//143 292//143 219//143
f 293//144 291//144 247//144
f 248//145 293//145 243//145
f 243//145 230//145 248//145
f 247//144 243//144 293//144
f 219//143 247//143 291//143
f 207//146 235//146 294//146
f 237//147 207//147 295//147
f 238//148 237//148 296//148
f 296//148 290//148 238//148
f 295//147 296//147 237//147
f 294//146 295//146 207//146
f 261//49 179//49 180//49
f 263//49 264//49 177//49
f 264//49 265//49 176//49
f 180//49 260//49 261//49
f 262//49 263//49 178//49
f 176//49 177//49 264//49
f 265//49 266//49 175//49
f 280//49 281//49 161//49
f 281//49 282//49 160//49
f 178//49 179//49 262//49
f 175//49 176//49 265//49
f 266//49 267//49 174//49
f 267//49 268//49 173//49
f 268//49 269//49 172//49
f 270//49 171//49 172//49
f 277//49 278//49 164//49
f 160//49 161//49 281//49
f 282//49 283//49 159//49
f 283//49 284//49 158//49
f 284//49 285//49 157//49
f 290//49 152//49 153//49
f 193//49 291//49 293//49
f 292//49 291//49 194//49
f 297//49 298//49 196//49
f 177//49 178//49 263//49
f 173//49 174//49 267//49
f 172//49 269//49 270//49
f 271//49 170//49 171//49
f 272//49 169//49 170//49
f 273//49 168//49 169//49
f 274//49 167//49 168//49
f 275//49 166//49 167//49
f 276//49 165//49 166//49
f 165//49 276//49 277//49
f 159//49 160//49 282//49
f 157//49 158//49 284//49
f 287//49 155//49 156//49
f 288//49 154//49 155//49
f 289//49 153//49 154//49
f 153//49 289//49 290//49
f 293//49 192//49 193//49
f 293//49 190//49 191//49
f 194//49 195//49 292//49
f 298//49 292//49 196//49
f 151//49 152//49 296//49
f 257//49 183//49 184//49
f 258//49 182//49 183//49
f 259//49 181//49 182//49
f 260//49 180//49 181//49
f 174//49 175//49 266//49
f 171//49 270//49 271//49
f 169//49 272//49 273//49
f 167//49 274//49 275//49
f 164//49 165//49 277//49
f 278//49 279//49 163//49
f 158//49 159//49 283//49
f 286//49 156//49 157//49
f 155//49 287//49 288//49
f 290//49 296//49 152//49
f 188//49 250//49 251//49
f 188//49 248//49 249//49
f 191//49 192//49 293//49
f 293//49 188//49 189//49
f 196//49 294//49 297//49
f 294//49 196//49 148//49
f 295//49 150//49 151//49
f 183//49 257//49 258//49
f 181//49 259//49 260//49
f 172//49 173//49 268//49
f 168//49 273//49 274//49
f 163//49 164//49 278//49
f 279//49 280//49 162//49
f 157//49 285//49 286//49
f 154//49 288//49 289//49
f 249//49 250//49 188//49
f 252//49 253//49 187//49
f 254//49 186//49 187//49
f 255//49 185//49 186//49
f 189//49 190//49 293//49
f 148//49 295//49 294//49
f 295//49 149//49 150//49
f 295//49 148//49 147//49
f 182//49 258//49 259//49
f 170//49 271//49 272//49
f 162//49 163//49 279//49
f 156//49 286//49 287//49
f 187//49 188//49 252//49
f 186//49 254//49 255//49
f 256//49 184//49 185//49
f 195//49 196//49 292//49
f 147//49 149//49 295//49
f 261//49 262//49 179//49
f 161//49 162//49 280//49
f 188//49 293//49 248//49
f 185//49 255//49 256//49
f 296//49 295//49 151//49
f 166//49 275//49 276//49
f 187//49 253//49 254//49
f 184//49 256//49 257//49
f 193//49 194//49 291//49
f 251//49 252//49 188//49
f 298//149 297//149 299//149
f 300//150 299//150 301//150
f 302//151 301//151 303//151
f 304//152 303//152 305//152
f 306//153 305//153 307//153
f 308//154 307//154 309//154
f 310//155 309//155 311//155
f 312//156 311//156 313//156
f 314//157 313//157 315//157
f 316//158 315//158 317//158
f 318//159 317//159 319//159
f 320//160 319//160 321//160
f 322//161 321//161 323//161
f 324//162 323//162 325//162
f 326//163 325//163 327//163
f 328//164 327//164 329//164
f 330//165 329//165 331//165
f 332//166 331//166 333//166
f 334//167 333//167 335//167
f 336//168 335//168 337//168
f 338//169 337//169 339//169
f 340//170 339//170 341//170
f 342//171 341//171 343//171
f 343//171 344//171 342//171
f 341//170 342//170 340//170
f 339//169 340//169 338//169
f 337//168 338//168 336//168
f 335//167 336//167 334//167
f 333//166 334//166 332//166
f 331//165 332//165 330//165
f 329//164 330//164 328//164
f 327//163 328//163 326//163
f 325//162 326//162 324//162
f 323//161 324//161 322//161
f 321//160 322//160 320//160
f 319//159 320//159 318//159
f 317//158 318//158 316//158
f 315//157 316//157 314//157
f 313//156 314//156 312//156
f 311//155 312//155 310//155
f 309//154 310//154 308//154
f 307//153 308//153 306//153
f 305//152 306//152 304//152
f 303//151 304//151 302//151
f 301//150 302//150 300//150
f 299//149 300//149 298//149
f 345//172 346//172 347//172
f 348//173 345//173 349//173
f 350//174 348//174 351//174
f 352//175 350//175 353//175
f 354//176 352//176 355//176
f 356//177 354//177 357//177
f 358//178 356//178 359//178
f 360//179 358//179 361//179
f 362//180 360//180 363//180
f 364//181 362//181 365//181
f 366//182 364//182 367//182
f 368//183 366//183 369//183
f 370//184 368//184 371//184
f 372//185 370//185 373//185
f 374//186 372//186 375//186
f 376//187 374//187 377//187
f 378//188 376//188 379//188
f 380//189 378//189 381//189
f 382//190 380//190 383//190
f 384//191 382//191 385//191
f 240//192 384//192 386//192
f 386//192 234//192 240//192
f 385//191 386//191 384//191
f 383//190 385//190 382//190
f 381//189 383//189 380//189
f 379//188 381//188 378//188
f 377//187 379//187 376//187
f 375//186 377//186 374//186
f 373//185 375//185 372//185
f 371//184 373//184 370//184
f 369//183 371//183 368//183
f 367//182 369//182 366//182
f 365//181 367//181 364//181
f 363//180 365//180 362//180
f 361//179 363//179 360//179
f 359//178 361//178 358//178
f 357//177 359//177 356//177
f 355//176 357//176 354//176
f 353//175 355//175 352//175
f 351//174 353//174 350//174
f 349//173 351//173 348//173
f 347//172 349//172 345//172
f 317//87 371//87 369//87
f 315//87 373//87 371//87
f 313//87 375//87 373//87
f 311//87 377//87 375//87
f 309//87 379//87 377//87
f 371//87 317//87 315//87
f 375//87 313//87 311//87
f 377//87 311//87 309//87
f 307//87 305//87 381//87
f 331//87 329//87 359//87
f 323//87 321//87 367//87
f 319//87 369//87 367//87
f 373//87 315//87 313//87
f 381//87 379//87 307//87
f 347//87 387//87 388//87
f 341//87 349//87 347//87
f 357//87 333//87 331//87
f 329//87 327//87 361//87
f 367//87 321//87 319//87
f 309//87 307//87 379//87
f 303//87 301//87 385//87
f 301//87 299//87 386//87
f 299//87 297//87 234//87
f 235//87 234//87 297//87
f 347//87 343//87 341//87
f 339//87 351//87 349//87
f 361//87 359//87 329//87
f 327//87 325//87 363//87
f 369//87 319//87 317//87
f 305//87 303//87 383//87
f 386//87 385//87 301//87
f 297//87 294//87 235//87
f 349//87 341//87 339//87
f 337//87 353//87 351//87
f 335//87 355//87 353//87
f 333//87 357//87 355//87
f 363//87 361//87 327//87
f 325//87 323//87 365//87
f 383//87 381//87 305//87
f 234//87 386//87 299//87
f 351//87 339//87 337//87
f 355//87 335//87 333//87
f 365//87 363//87 325//87
f 385//87 383//87 303//87
f 353//87 337//87 335//87
f 367//87 365//87 323//87
f 359//87 357//87 331//87
f 388//87 343//87 347//87
f 310//62 312//62 374//62
f 308//62 376//62 378//62
f 376//62 308//62 310//62
f 312//62 314//62 372//62
f 314//62 316//62 370//62
f 374//62 376//62 310//62
f 370//62 372//62 314//62
f 240//62 219//62 292//62
f 300//62 384//62 240//62
f 302//62 382//62 384//62
f 304//62 380//62 382//62
f 306//62 378//62 380//62
f 372//62 374//62 312//62
f 316//62 318//62 368//62
f 318//62 320//62 366//62
f 332//62 354//62 356//62
f 240//62 298//62 300//62
f 382//62 302//62 304//62
f 378//62 306//62 308//62
f 366//62 368//62 318//62
f 330//62 356//62 358//62
f 356//62 330//62 332//62
f 342//62 344//62 346//62
f 389//62 346//62 344//62
f 384//62 300//62 302//62
f 368//62 370//62 316//62
f 320//62 322//62 364//62
f 324//62 362//62 364//62
f 328//62 358//62 360//62
f 332//62 334//62 354//62
f 340//62 342//62 345//62
f 344//62 390//62 389//62
f 380//62 304//62 306//62
f 364//62 322//62 324//62
f 326//62 360//62 362//62
f 358//62 328//62 330//62
f 334//62 336//62 352//62
f 336//62 338//62 350//62
f 338//62 340//62 348//62
f 346//62 345//62 342//62
f 364//62 366//62 320//62
f 360//62 326//62 328//62
f 350//62 352//62 336//62
f 345//62 348//62 340//62
f 362//62 324//62 326//62
f 348//62 350//62 338//62
f 352//62 354//62 334//62
f 292//62 298//62 240//62
f 391//193 388//193 387//193
f 392//194 391//194 393//194
f 394//195 392//195 395//195
f 395//195 396//195 394//195
f 393//194 395//194 392//194
f 387//193 393//193 391//193
f 343//196 397//196 398//196
f 343//196 388//196 399//196
f 400//196 401//196 390//196
f 343//196 402//196 403//196
f 343//196 404//196 397//196
f 399//196 404//196 343//196
f 344//196 405//196 400//196
f 344//196 406//196 407//196
f 403//196 344//196 343//196
f 388//196 391//196 399//196
f 391//196 392//196 408//196
f 407//196 405//196 344//196
f 398//196 402//196 343//196
f 408//196 399//196 391//196
f 403//196 406//196 344//196
f 401//196 400//196 409//196
f 410//196 409//196 411//196
f 390//196 344//196 400//196
f 411//196 412//196 410//196
f 409//196 410//196 401//196
f 392//196 394//196 408//196
f 413//197 389//197 390//197
f 414//198 413//198 401//198
f 415//199 414//199 410//199
f 410//199 412//199 415//199
f 401//198 410//198 414//198
f 390//197 401//197 413//197
f 416//200 417//200 418//200
f 419//201 418//201 420//201
f 421//202 420//202 422//202
f 423//203 422//203 424//203
f 425//87 424//87 426//87
f 427//204 426//204 428//204
f 429//205 428//205 430//205
f 431//206 430//206 432//206
f 433//207 432//207 434//207
f 435//208 434//208 436//208
f 437//209 436//209 438//209
f 439//210 438//210 440//210
f 441//211 440//211 442//211
f 443//212 442//212 444//212
f 445//213 444//213 446//213
f 447//214 446//214 448//214
f 449//215 403//215 402//215
f 450//216 402//216 398//216
f 451//217 398//217 397//217
f 452//218 397//218 404//218
f 453//219 404//219 399//219
f 454//220 399//220 408//220
f 417//221 416//221 394//221
f 455//222 408//222 394//222
f 394//223 416//223 455//223
f 394//221 396//221 417//221
f 408//220 455//220 454//220
f 399//219 454//219 453//219
f 404//218 453//218 452//218
f 397//217 452//217 451//217
f 398//216 451//216 450//216
f 402//215 450//215 449//215
f 448//214 456//214 447//214
f 446//213 447//213 445//213
f 444//212 445//212 443//212
f 442//211 443//211 441//211
f 440//210 441//210 439//210
f 438//209 439//209 437//209
f 436//208 437//208 435//208
f 434//207 435//207 433//207
f 432//206 433//206 431//206
f 430//205 431//205 429//205
f 428//204 429//204 427//204
f 426//87 427//87 425//87
f 424//203 425//203 423//203
f 422//202 423//202 421//202
f 420//201 421//201 419//201
f 418//200 419//200 416//200
f 456//224 448//224 457//224
f 458//225 457//225 459//225
f 460//226 459//226 461//226
f 462//227 461//227 463//227
f 464//228 463//228 465//228
f 466//229 465//229 467//229
f 468//230 467//230 469//230
f 470//231 469//231 471//231
f 472//232 471//232 473//232
f 474//233 473//233 475//233
f 476//234 475//234 477//234
f 478//62 477//62 479//62
f 480//235 479//235 481//235
f 482//236 481//236 483//236
f 484//237 483//237 485//237
f 486//238 485//238 487//238
f 488//239 411//239 409//239
f 489//240 409//240 400//240
f 490//241 400//241 405//241
f 491//242 405//242 407//242
f 492//243 407//243 406//243
f 493//244 406//244 403//244
f 488//245 494//245 412//245
f 487//246 415//246 412//246
f 412//246 494//246 487//246
f 412//247 411//247 488//247
f 403//244 449//244 493//244
f 406//243 493//243 492//243
f 407//242 492//242 491//242
f 405//241 491//241 490//241
f 400//240 490//240 489//240
f 409//239 489//239 488//239
f 487//238 494//238 486//238
f 485//237 486//237 484//237
f 483//236 484//236 482//236
f 481//235 482//235 480//235
f 479//62 480//62 478//62
f 477//234 478//234 476//234
f 475//233 476//233 474//233
f 473//232 474//232 472//232
f 471//231 472//231 470//231
f 469//230 470//230 468//230
f 467//229 468//229 466//229
f 465//228 466//228 464//228
f 463//227 464//227 462//227
f 461//226 462//226 460//226
f 459//225 460//225 458//225
f 457//224 458//224 456//224
f 436//248 434//248 495//248
f 434//248 432//248 496//248
f 424//248 422//248 497//248
f 422//248 420//248 498//248
f 420//248 418//248 499//248
f 477//248 475//248 500//248
f 496//248 495//248 434//248
f 430//248 501//248 496//248
f 502//248 426//248 424//248
f 499//248 498//248 420//248
f 503//248 479//248 477//248
f 475//248 473//248 504//248
f 473//248 471//248 505//248
f 469//248 506//248 505//248
f 463//248 507//248 508//248
f 496//248 432//248 430//248
f 428//248 509//248 501//248
f 498//248 497//248 422//248
f 417//248 510//248 499//248
f 511//248 510//248 396//248
f 504//248 500//248 475//248
f 505//248 471//248 469//248
f 467//248 512//248 506//248
f 465//248 508//248 512//248
f 508//248 465//248 463//248
f 461//248 459//248 513//248
f 440//248 438//248 514//248
f 501//248 430//248 428//248
f 426//248 502//248 509//248
f 499//248 418//248 417//248
f 510//248 417//248 396//248
f 387//248 515//248 516//248
f 505//248 504//248 473//248
f 512//248 467//248 465//248
f 513//248 507//248 461//248
f 459//248 457//248 517//248
f 442//248 518//248 519//248
f 518//248 442//248 440//248
f 509//248 428//248 426//248
f 396//248 395//248 511//248
f 516//248 393//248 387//248
f 506//248 469//248 467//248
f 517//248 513//248 459//248
f 457//248 448//248 520//248
f 446//248 521//248 520//248
f 444//248 519//248 521//248
f 514//248 518//248 440//248
f 438//248 436//248 522//248
f 497//248 502//248 424//248
f 523//248 414//248 415//248
f 487//248 485//248 524//248
f 483//248 525//248 524//248
f 347//248 526//248 515//248
f 347//248 346//248 527//248
f 389//248 413//248 528//248
f 463//248 461//248 507//248
f 520//248 448//248 446//248
f 519//248 444//248 442//248
f 495//248 522//248 436//248
f 415//248 529//248 523//248
f 524//248 485//248 483//248
f 481//248 530//248 525//248
f 479//248 503//248 530//248
f 347//248 531//248 526//248
f 346//248 532//248 527//248
f 533//248 346//248 389//248
f 520//248 517//248 457//248
f 522//248 514//248 438//248
f 524//248 529//248 487//248
f 530//248 481//248 479//248
f 413//248 414//248 523//248
f 527//248 531//248 347//248
f 528//248 533//248 389//248
f 393//248 516//248 511//248
f 521//248 446//248 444//248
f 525//248 483//248 481//248
f 523//248 534//248 413//248
f 533//248 532//248 346//248
f 500//248 503//248 477//248
f 534//248 528//248 413//248
f 511//248 395//248 393//248
f 387//248 347//248 515//248
f 415//248 487//248 529//248
f 535//249 536//249 520//249
f 537//250 535//250 521//250
f 538//251 537//251 519//251
f 539//252 538//252 518//252
f 540//253 539//253 514//253
f 541//254 540//254 522//254
f 542//255 541//255 495//255
f 543//256 542//256 496//256
f 544//257 543//257 501//257
f 545//258 544//258 509//258
f 546//259 545//259 502//259
f 547//260 546//260 497//260
f 548//261 547//261 498//261
f 549//262 548//262 499//262
f 550//263 549//263 510//263
f 551//264 550//264 511//264
f 552//265 551//265 516//265
f 553//266 552//266 515//266
f 554//267 553//267 526//267
f 555//268 554//268 531//268
f 531//268 527//268 555//268
f 526//267 531//267 554//267
f 515//266 526//266 553//266
f 516//265 515//265 552//265
f 511//264 516//264 551//264
f 510//263 511//263 550//263
f 499//262 510//262 549//262
f 498//261 499//261 548//261
f 497//260 498//260 547//260
f 502//259 497//259 546//259
f 509//258 502//258 545//258
f 501//257 509//257 544//257
f 496//256 501//256 543//256
f 495//255 496//255 542//255
f 522//254 495//254 541//254
f 514//253 522//253 540//253
f 518//252 514//252 539//252
f 519//251 518//251 538//251
f 521//250 519//250 537//250
f 520//249 521//249 535//249
f 556//269 555//269 527//269
f 557//270 556//270 532//270
f 558//271 557//271 533//271
f 559//272 558//272 528//272
f 560//273 559//273 534//273
f 561//274 560//274 523//274
f 562//275 561//275 529//275
f 563//276 562//276 524//276
f 564//277 563//277 525//277
f 565//278 564//278 530//278
f 566//279 565//279 503//279
f 567//280 566//280 500//280
f 568//281 567//281 504//281
f 569//282 568//282 505//282
f 570//283 569//283 506//283
f 571//284 570//284 512//284
f 572//285 571//285 508//285
f 573//286 572//286 507//286
f 574//287 573//287 513//287
f 536//288 574//288 517//288
f 517//288 520//288 536//288
f 513//287 517//287 574//287
f 507//286 513//286 573//286
f 508//285 507//285 572//285
f 512//284 508//284 571//284
f 506//283 512//283 570//283
f 505//282 506//282 569//282
f 504//281 505//281 568//281
f 500//280 504//280 567//280
f 503//279 500//279 566//279
f 530//278 503//278 565//278
f 525//277 530//277 564//277
f 524//276 525//276 563//276
f 529//275 524//275 562//275
f 523//274 529//274 561//274
f 534//273 523//273 560//273
f 528//272 534//272 559//272
f 533//271 528//271 558//271
f 532//270 533//270 557//270
f 527//269 532//269 556//269
f 575//196 576//196 570//196
f 576//196 577//196 569//196
f 577//196 578//196 568//196
f 579//196 567//196 568//196
f 580//196 565//196 566//196
f 569//196 570//196 576//196
f 568//196 578//196 579//196
f 581//196 566//196 567//196
f 566//196 581//196 580//196
f 582//196 575//196 571//196
f 568//196 569//196 577//196
f 580//196 583//196 565//196
f 583//196 584//196 564//196
f 584//196 585//196 563//196
f 585//196 586//196 562//196
f 587//196 561//196 562//196
f 588//196 560//196 561//196
f 589//196 559//196 560//196
f 590//196 591//196 550//196
f 591//196 592//196 549//196
f 593//196 572//196 573//196
f 572//196 593//196 582//196
f 567//196 579//196 581//196
f 563//196 564//196 584//196
f 562//196 586//196 587//196
f 560//196 588//196 589//196
f 594//196 590//196 551//196
f 549//196 550//196 591//196
f 592//196 595//196 548//196
f 596//196 547//196 548//196
f 597//196 546//196 547//196
f 598//196 599//196 543//196
f 599//196 600//196 542//196
f 601//196 541//196 542//196
f 602//196 540//196 541//196
f 603//196 573//196 574//196
f 571//196 572//196 582//196
f 564//196 565//196 583//196
f 561//196 587//196 588//196
f 604//196 558//196 559//196
f 605//196 552//196 553//196
f 552//196 605//196 594//196
f 548//196 549//196 592//196
f 547//196 596//196 597//196
f 606//196 598//196 544//196
f 542//196 543//196 599//196
f 541//196 601//196 602//196
f 607//196 538//196 539//196
f 608//196 609//196 536//196
f 610//196 574//196 536//196
f 573//196 603//196 593//196
f 562//196 563//196 585//196
f 559//196 589//196 604//196
f 611//196 612//196 557//196
f 613//196 553//196 554//196
f 551//196 552//196 594//196
f 548//196 595//196 596//196
f 614//196 545//196 546//196
f 545//196 614//196 606//196
f 542//196 600//196 601//196
f 539//196 615//196 607//196
f 616//196 617//196 537//196
f 536//196 609//196 610//196
f 570//196 571//196 575//196
f 557//196 558//196 611//196
f 612//196 618//196 556//196
f 618//196 619//196 555//196
f 620//196 554//196 555//196
f 553//196 613//196 605//196
f 546//196 597//196 614//196
f 543//196 544//196 598//196
f 615//196 539//196 540//196
f 537//196 538//196 616//196
f 617//196 608//196 535//196
f 574//196 610//196 603//196
f 556//196 557//196 612//196
f 555//196 619//196 620//196
f 550//196 551//196 590//196
f 540//196 602//196 615//196
f 535//196 537//196 617//196
f 604//196 611//196 558//196
f 554//196 620//196 613//196
f 607//196 616//196 538//196
f 555//196 556//196 618//196
f 536//196 535//196 608//196
f 544//196 545//196 606//196
f 474//196 621//196 622//196
f 474//196 476//196 623//196
f 623//196 621//196 474//196
f 476//196 478//196 624//196
f 484//196 625//196 626//196
f 484//196 486//196 627//196
f 464//196 466//196 628//196
f 468//196 629//196 628//196
f 624//196 623//196 476//196
f 478//196 480//196 630//196
f 482//196 626//196 630//196
f 627//196 625//196 484//196
f 429//196 431//196 631//196
f 431//196 433//196 632//196
f 433//196 435//196 633//196
f 435//196 437//196 634//196
f 437//196 439//196 635//196
f 441//196 636//196 635//196
f 443//196 637//196 636//196
f 443//196 445//196 638//196
f 447//196 639//196 638//196
f 456//196 640//196 639//196
f 458//196 641//196 640//196
f 458//196 460//196 642//196
f 460//196 462//196 643//196
f 462//196 464//196 644//196
f 628//196 466//196 468//196
f 470//196 645//196 629//196
f 630//196 624//196 478//196
f 626//196 482//196 484//196
f 429//196 646//196 647//196
f 632//196 631//196 431//196
f 634//196 633//196 435//196
f 635//196 439//196 441//196
f 638//196 637//196 443//196
f 639//196 447//196 456//196
f 642//196 641//196 458//196
f 644//196 643//196 462//196
f 629//196 468//196 470//196
f 472//196 622//196 645//196
f 630//196 480//196 482//196
f 486//196 494//196 648//196
f 488//196 489//196 649//196
f 489//196 490//196 650//196
f 631//196 646//196 429//196
f 635//196 634//196 437//196
f 638//196 445//196 447//196
f 643//196 642//196 460//196
f 645//196 470//196 472//196
f 648//196 627//196 486//196
f 494//196 488//196 651//196
f 650//196 649//196 489//196
f 491//196 652//196 650//196
f 491//196 492//196 653//196
f 493//196 654//196 653//196
f 493//196 449//196 655//196
f 450//196 656//196 655//196
f 451//196 657//196 656//196
f 452//196 658//196 657//196
f 452//196 453//196 659//196
f 454//196 660//196 659//196
f 455//196 661//196 660//196
f 419//196 421//196 662//196
f 421//196 423//196 663//196
f 633//196 632//196 433//196
f 640//196 456//196 458//196
f 622//196 472//196 474//196
f 649//196 651//196 488//196
f 653//196 652//196 491//196
f 655//196 654//196 493//196
f 656//196 450//196 451//196
f 659//196 658//196 452//196
f 660//196 454//196 455//196
f 416//196 664//196 661//196
f 663//196 662//196 421//196
f 425//196 665//196 663//196
f 636//196 441//196 443//196
f 651//196 648//196 494//196
f 653//196 492//196 493//196
f 657//196 451//196 452//196
f 661//196 455//196 416//196
f 419//196 666//196 664//196
f 663//196 423//196 425//196
f 427//196 647//196 665//196
f 628//196 644//196 464//196
f 655//196 449//196 450//196
f 664//196 416//196 419//196
f 665//196 425//196 427//196
f 650//196 490//196 491//196
f 662//196 666//196 419//196
f 659//196 453//196 454//196
f 647//196 427//196 429//196
f 639//244 640//244 609//244
f 638//243 639//243 608//243
f 637//242 638//242 617//242
f 636//241 637//241 616//241
f 635//240 636//240 607//240
f 634//239 635//239 615//239
f 633//289 634//289 602//289
f 632//238 633//238 601//238
f 631//237 632//237 600//237
f 646//236 631//236 599//236
f 647//235 646//235 598//235
f 665//62 647//62 606//62
f 663//234 665//234 614//234
f 662//233 663//233 597//233
f 666//232 662//232 596//232
f 664//231 666//231 595//231
f 661//230 664//230 592//230
f 660//229 661//229 591//229
f 659//228 660//228 590//228
f 658//227 659//227 594//227
f 657//226 658//226 605//226
f 656//225 657//225 613//225
f 655//224 656//224 620//224
f 620//224 619//224 655//224
f 613//225 620//225 656//225
f 605//226 613//226 657//226
f 594//227 605//227 658//227
f 590//228 594//228 659//228
f 591//229 590//229 660//229
f 592//230 591//230 661//230
f 595//231 592//231 664//231
f 596//232 595//232 666//232
f 597//233 596//233 662//233
f 614//234 597//234 663//234
f 606//62 614//62 665//62
f 598//235 606//235 647//235
f 599//236 598//236 646//236
f 600//237 599//237 631//237
f 601//238 600//238 632//238
f 602//289 601//289 633//289
f 615//239 602//239 634//239
f 607//240 615//240 635//240
f 616//241 607//241 636//241
f 617//242 616//242 637//242
f 608//243 617//243 638//243
f 609//244 608//244 639//244
f 654//214 655//214 619//214
f 653//213 654//213 618//213
f 652//212 653//212 612//212
f 650//211 652//211 611//211
f 649//210 650//210 604//210
f 651//209 649//209 589//209
f 648//208 651//208 588//208
f 627//207 648//207 587//207
f 625//206 627//206 586//206
f 626//205 625//205 585//205
f 630//204 626//204 584//204
f 624//87 630//87 583//87
f 623//203 624//203 580//203
f 621//202 623//202 581//202
f 622//201 621//201 579//201
f 645//200 622//200 578//200
f 629//290 645//290 577//290
f 628//220 629//220 576//220
f 644//219 628//219 575//219
f 643//218 644//218 582//218
f 642//217 643//217 593//217
f 641//216 642//216 603//216
f 640//215 641//215 610//215
f 610//215 609//215 640//215
f 603//216 610//216 641//216
f 593//217 603//217 642//217
f 582//218 593//218 643//218
f 575//219 582//219 644//219
f 576//220 575//220 628//220
f 577//290 576//290 629//290
f 578//200 577//200 645//200
f 579//201 578//201 622//201
f 581//202 579//202 621//202
f 580//203 581//203 623//203
f 583//87 580//87 624//87
f 584//204 583//204 630//204
f 585//205 584//205 626//205
f 586//206 585//206 625//206
f 587//207 586//207 627//207
f 588//208 587//208 648//208
f 589//209 588//209 651//209
f 604//210 589//210 649//210
f 611//211 604//211 650//211
f 612//212 611//212 652//212
f 618//213 612//213 653//213
f 619//214 618//214 654//214
#1336 polygons

