# Aspose.3D Wavefront OBJ Exporter
# Copyright 2004-2023 Aspose Pty Ltd.
# File created: 07/03/2023 18:02:49


#
# object obj_45613878
#

v 1.9680799941541828E-15 0.01016000006347894 -0.18669000267982484
v 0.08407782018184662 0.02688411623239517 -0.18669000267982484
v 0.08572500199079514 0.01016000006347894 -0.18669000267982484
v 0.08407782018184662 -0.00656411703675985 -0.18669000267982484
v 0.0849420502781868 -0.00139959820080548 -0.01155960280448198
v 0.08572500199079514 0.01016000006347894 2.679825694684723E-09
v 0.08407782018184662 0.02688411623239517 -0.01672412268817424
v 0.0849420502781868 0.02171959728002548 -0.01155960280448198
v 0.08554142713546753 -0.04571999981999397 0.00560713093727827
v 0.0849420502781868 0.05587999895215034 -0.01155960280448198
v 0.08554142713546753 0.05587999895215034 0.00560713093727827
v 0.0849420502781868 -0.04571999981999397 -0.01155960280448198
v 0.08270629495382309 0.05587999895215034 0.0225487221032381
v 0.08270629495382309 -0.04571999981999397 0.0225487221032381
v -0.06500923633575439 -0.04571999981999397 -0.05588000640273094
v -0.07251521944999695 0.05587999895215034 -0.04571999236941338
v 0.08093221485614777 -0.04571999981999397 -0.02826219610869884
v 0.08093221485614777 -0.01810220070183277 -0.02826219610869884
v 0.08407782018184662 -0.00656411703675985 -0.01672412268817424
v 0.08093221485614777 0.05587999895215034 -0.02826219610869884
v 0.07919957488775253 -0.02264553681015968 -0.18669000267982484
v 0.07919957488775253 0.04296553507447242 -0.18669000267982484
v 0.07919957488775253 0.04296553507447242 -0.03280554339289665
v 0.08093221485614777 0.03842220082879066 -0.02826219610869884
v 0.07655047625303268 0.05587999895215034 0.03858498111367225
v 0.07655047625303268 -0.04571999981999397 0.03858498111367225
v 0.07367293536663055 -0.04571999981999397 -0.04383006319403648
v 0.07367293536663055 -0.03367006778717041 -0.04383006319403648
v 0.07919957488775253 -0.02264553681015968 -0.03280554339289665
v 0.07367293536663055 0.05587999895215034 -0.04383006319403648
v 0.07127773016691208 -0.03746625781059265 -0.18669000267982484
v 0.07127773016691208 0.0577862560749054 -0.18669000267982484
v 0.07367293536663055 0.05399006605148315 -0.04383006319403648
v 0.07127773016691208 0.0577862560749054 -0.04762625321745872
v 0.07251521944999695 0.05587999895215034 -0.04571999236941338
v 0.06732112914323807 0.05587999895215034 0.05307203903794289
v 0.06732112914323807 -0.04571999981999397 0.05307203903794289
v 0.06500923633575439 -0.04571999981999397 -0.05588000640273094
v 0.07127773016691208 -0.03746625781059265 -0.04762625321745872
v -0.06353840231895447 0.05587999895215034 -0.05754690989851952
v 0.06353840231895447 0.05587999895215034 -0.05754690989851952
v 0.06061672791838646 -0.05045672878623009 -0.18669000267982484
v 0.06061672791838646 0.07077673077583313 -0.18669000267982484
v 0.06061672791838646 0.07077673077583313 -0.06061672791838646
v 0.06353840231895447 0.06770691275596619 -0.05754690989851952
v 0.05538881942629814 0.05587999895215034 0.065428227186203
v 0.05538881942629814 -0.04571999981999397 0.065428227186203
v -0.07367293536663055 -0.04571999981999397 -0.04383006319403648
v -0.07367293536663055 0.05587999895215034 -0.04383006319403648
v 0.06061672791838646 -0.05045672878623009 -0.06061672791838646
v 0.05373804643750191 -0.04571999981999397 -0.06679070740938187
v 0.05183315277099609 0.05587999895215034 -0.06827957183122635
v 0.04762625694274902 -0.06111773103475571 -0.18669000267982484
v 0.04762625694274902 0.08143772929906845 -0.18669000267982484
v 0.05373804643750191 -0.0566307008266449 -0.06679070740938187
v 0.04762625694274902 0.08143772929906845 -0.07127773761749268
v 0.05183315277099609 0.07843957096338272 -0.06827957183122635
v 0.0412326343357563 0.05587999895215034 0.07515746355056763
v 0.0412326343357563 -0.04571999981999397 0.07515746355056763
v 0.04762625694274902 -0.06111773103475571 -0.07127773761749268
v -0.05373804643750191 -0.04571999981999397 -0.06679070740938187
v -0.03988571092486381 -0.04571999981999397 -0.07588087022304535
v -0.02454342134296894 -0.04571999981999397 -0.08213645219802856
v 0.03988571092486381 -0.04571999981999397 -0.07588087022304535
v 0.03834904357790947 0.05587999895215034 -0.07666894793510437
v 0.03280553594231605 -0.06903957575559616 -0.18669000267982484
v 0.03280553594231605 0.08935957401990891 -0.18669000267982484
v 0.03988571092486381 -0.06572086364030838 -0.07588087022304535
v 0.03280553594231605 0.08935957401990891 -0.07919957488775253
v 0.03834904357790947 0.08682893961668015 -0.07666894793510437
v 0.02542094141244888 0.05587999895215034 0.08186909556388855
v 0.02542094141244888 -0.04571999981999397 0.08186909556388855
v 0.03280553594231605 -0.06903957575559616 -0.07919957488775253
v 0.02454342134296894 -0.04571999981999397 -0.08213645219802856
v 0.02354883030056953 0.05587999895215034 -0.08242711424827576
v 0.0167241171002388 -0.07391782104969025 -0.18669000267982484
v 0.0167241171002388 0.094237819314003 -0.18669000267982484
v 0.02454342134296894 -0.0719764456152916 -0.08213645219802856
v 0.0167241171002388 0.094237819314003 -0.08407782018184662
v 0.02354883030056953 0.09258710592985154 -0.08242711424827576
v 0.00858859252184629 0.05587999895215034 0.08529368042945862
v 0.00858859252184629 -0.04571999981999397 0.08529368042945862
v 0.0167241171002388 -0.07391782104969025 -0.08407782018184662
v -0.00828429497778415 -0.04571999981999397 -0.08532377332448959
v 0.00828429497778415 -0.04571999981999397 -0.08532377332448959
v 0.00794044602662324 0.05587999895215034 -0.0853564590215683
v 1.9828465312819038E-15 -0.07556500285863876 -0.18669000267982484
v 1.942815118919955E-15 0.0958850011229515 -0.18669000267982484
v 0.00828429497778415 -0.07516377419233322 -0.08532377332448959
v 8.667159283056813E-16 0.0958850011229515 -0.08572500199079514
v 0.00794044602662324 0.09551645815372468 -0.0853564590215683
v -0.00858859252184629 0.05587999895215034 0.08529368042945862
v -0.00858859252184629 -0.04571999981999397 0.08529368042945862
v 9.067472877280708E-16 -0.07556500285863876 -0.08572500199079514
v -0.00794044602662324 0.05587999895215034 -0.0853564590215683
v -0.0167241171002388 -0.07391782104969025 -0.18669000267982484
v -0.0167241171002388 0.094237819314003 -0.18669000267982484
v -0.06061672791838646 0.07077673077583313 -0.18669000267982484
v -0.04762625694274902 0.08143772929906845 -0.18669000267982484
v -0.03280553594231605 0.08935957401990891 -0.18669000267982484
v -0.08407782018184662 0.02688411623239517 -0.18669000267982484
v -0.07919957488775253 0.04296553507447242 -0.18669000267982484
v -0.07127773016691208 0.0577862560749054 -0.18669000267982484
v -0.07919957488775253 -0.02264553681015968 -0.18669000267982484
v -0.08407782018184662 -0.00656411703675985 -0.18669000267982484
v -0.08572500199079514 0.01016000006347894 -0.18669000267982484
v -0.04762625694274902 -0.06111773103475571 -0.18669000267982484
v -0.06061672791838646 -0.05045672878623009 -0.18669000267982484
v -0.07127773016691208 -0.03746625781059265 -0.18669000267982484
v -0.03280553594231605 -0.06903957575559616 -0.18669000267982484
v -0.00828429497778415 -0.07516377419233322 -0.08532377332448959
v -0.00794044602662324 0.09551645815372468 -0.0853564590215683
v -0.02354883030056953 0.05587999895215034 -0.08242711424827576
v -0.0167241171002388 0.094237819314003 -0.08407782018184662
v -0.0167241171002388 -0.07391782104969025 -0.08407782018184662
v -0.02542094141244888 0.05587999895215034 0.08186909556388855
v -0.02542094141244888 -0.04571999981999397 0.08186909556388855
v -0.02354883030056953 0.09258710592985154 -0.08242711424827576
v -0.02454342134296894 -0.0719764456152916 -0.08213645219802856
v -0.05183315277099609 0.05587999895215034 -0.06827957183122635
v -0.03834904357790947 0.05587999895215034 -0.07666894793510437
v -0.03280553594231605 0.08935957401990891 -0.07919957488775253
v -0.03280553594231605 -0.06903957575559616 -0.07919957488775253
v -0.0412326343357563 0.05587999895215034 0.07515746355056763
v -0.0412326343357563 -0.04571999981999397 0.07515746355056763
v -0.08093221485614777 -0.04571999981999397 -0.02826219610869884
v -0.0849420502781868 -0.04571999981999397 -0.01155960280448198
v -0.08093221485614777 0.05587999895215034 -0.02826219610869884
v -0.0849420502781868 0.05587999895215034 -0.01155960280448198
v -0.08554142713546753 0.05587999895215034 0.00560713093727827
v -0.08270629495382309 0.05587999895215034 0.0225487221032381
v -0.03834904357790947 0.08682893961668015 -0.07666894793510437
v -0.03988571092486381 -0.06572086364030838 -0.07588087022304535
v -0.04762625694274902 0.08143772929906845 -0.07127773761749268
v -0.04762625694274902 -0.06111773103475571 -0.07127773761749268
v -0.05373804643750191 -0.0566307008266449 -0.06679070740938187
v -0.05538881942629814 0.05587999895215034 0.065428227186203
v -0.05538881942629814 -0.04571999981999397 0.065428227186203
v -0.05183315277099609 0.07843957096338272 -0.06827957183122635
v -0.06061672791838646 0.07077673077583313 -0.06061672791838646
v -0.06061672791838646 -0.05045672878623009 -0.06061672791838646
v -0.06732112914323807 0.05587999895215034 0.05307203903794289
v -0.06732112914323807 -0.04571999981999397 0.05307203903794289
v -0.08270629495382309 -0.04571999981999397 0.0225487221032381
v -0.08554142713546753 -0.04571999981999397 0.00560713093727827
v -0.06353840231895447 0.06770691275596619 -0.05754690989851952
v -0.07127773016691208 0.0577862560749054 -0.04762625321745872
v -0.07127773016691208 -0.03746625781059265 -0.04762625321745872
v -0.07655047625303268 0.05587999895215034 0.03858498111367225
v -0.07655047625303268 -0.04571999981999397 0.03858498111367225
v -0.07367293536663055 -0.03367006778717041 -0.04383006319403648
v -0.07367293536663055 0.05399006605148315 -0.04383006319403648
v -0.07919957488775253 -0.02264553681015968 -0.03280554339289665
v -0.07919957488775253 0.04296553507447242 -0.03280554339289665
v -0.08093221485614777 0.03842220082879066 -0.02826219610869884
v -0.08093221485614777 -0.01810220070183277 -0.02826219610869884
v -0.08407782018184662 -0.00656411703675985 -0.01672412268817424
v -0.08407782018184662 0.02688411623239517 -0.01672412268817424
v -0.0849420502781868 0.02171959728002548 -0.01155960280448198
v -0.0849420502781868 -0.00139959820080548 -0.01155960280448198
v -0.08572500199079514 0.01016000006347894 2.679823918327884E-09
# 161 vertices

vn 1.130569010128089E-14 -3.2554495835439724E-15 -1
vn 1.130569010128089E-14 3.2554495835439724E-15 -1
vn 0.99518269300460816 -0.09801694005727768 -0.00202053156681358
vn 0.99771404266357424 -0.06757690757513046 1.0630588748693215E-14
vn 0.99518471956253056 0.0980171412229538 1.0606819310127365E-14
vn 0.98724114894866944 0.15911592543125152 -0.00608891434967517
vn 0.99771404266357424 0.06757690757513046 1.0636910155578574E-14
vn 0.99824744462966912 -0.00914610736072063 -0.05846689268946648
vn 0.99771404266357424 1.718608806504192E-16 -0.06757687032222748
vn 0.9993566870689392 0.00829185917973518 -0.03489255905151367
vn 0.99946451187133792 1.7216239790986213E-16 0.03272201865911484
vn 0.99939101934432976 1.7214974535521252E-16 -0.03489375859498977
vn 0.98628485202789312 1.698921378529838E-16 0.16505225002765656
vn 1.7225464509177405E-16 -1 1.8359143485831877E-30
vn -1.7225464509177405E-16 1 -1.8359143485831877E-30
vn 0.9723712801933288 1.6749547136361755E-16 -0.23343974351882936
vn 0.98628604412078864 1.698923496112206E-16 -0.16504500806331634
vn 0.96766954660415648 -0.01187226921319961 -0.25194182991981508
vn 0.98628604412078864 -0.16504500806331634 1.0511975336957406E-14
vn 0.97229415178298944 0.01259566564112901 -0.2334212213754654
vn 1.0658141036401503E-14 0 -1
vn 1.0010591971522115E-14 3.2554495835439724E-15 -1
vn 0.9569381475448608 -0.29028403759002684 -0.00214085774496197
vn 0.96478813886642464 -0.26302832365036012 1.0282847842527434E-14
vn 0.9569403529167176 0.2902846932411194 1.0199205033051967E-14
vn 0.93662130832672112 0.35027518868446352 -0.00691332574933767
vn 0.96478813886642464 0.26302832365036012 1.0282847842527434E-14
vn 0.96478807926177984 1.6618922744494321E-16 -0.26302853226661684
vn 0.93357896804809568 1.6081330785206718E-16 0.3583718240261078
vn 0.90631085634231568 1.5611624546174607E-16 -0.42261171340942384
vn 0.90082740783691408 -0.01777531765401363 -0.43381333351135256
vn 0.93436175584793088 1.6094815814424803E-16 -0.35632580518722536
vn 0.93436145782470704 -0.35632669925689696 9.958556196473442E-15
vn 0.9059786200523376 0.02707305178046226 -0.42245680093765256
vn 1.1231991458606188E-14 3.0672968844209537E-16 -1
vn 0.88191890716552736 -0.47139573097229 -0.00226003862917423
vn 0.89396047592163088 -0.44814580678939816 9.527956833341351E-15
vn 0.89396047592163088 0.44814580678939816 9.527956833341351E-15
vn 0.8819211721420288 0.47139692306518552 9.399639812161797E-15
vn 0.84295016527175904 0.53791111707687376 -0.00930875353515148
vn 0.85573202371597296 0.51737433671951296 -0.00682127801701426
vn 0.89396029710769648 1.539888163355985E-16 -0.44814616441726688
vn 0.8433895111083984 1.4527775745246785E-16 0.53730267286300656
vn 0.81148749589920048 -0.03285665810108185 -0.58344537019729616
vn 0.84572905302047728 1.4568075984690369E-16 -0.53361254930496216
vn 0.84572905302047728 -0.53361254930496216 9.013899313916295E-15
vn 0.85272741317749024 1.4688625978441397E-16 -0.52235615253448488
vn -0.79350811243057248 0.08716289699077606 0.6022852063179016
vn 8.81407661836248E-15 -2.7598368418200884E-15 -1
vn 1.3005189712146127E-14 -2.3470482522281507E-15 -1
vn 0.77300703525543216 -0.63439041376113888 -0.00298528163693845
vn 0.79636436700820928 -0.60481721162796024 8.487763951696339E-15
vn 0.77301049232482912 0.63439321517944336 8.23885484981619E-15
vn 0.72878056764602656 0.68468916416168216 -0.00892262067645788
vn 0.78845542669296272 0.61509186029434208 8.403469773884432E-15
vn -0.78845542669296272 -1.3581511564732664E-16 0.61509186029434208
vn 0.71933764219284056 1.239092470104998E-16 0.69466060400009152
vn 0.7332473993301392 -0.67996191978454592 7.81505462015171E-15
vn -0.6936509609222412 -0.07332527637481689 0.71656942367553712
vn -0.6758220195770264 -1.1641348188333206E-16 0.73706483840942384
vn -0.70008718967437744 0.04625535383820534 0.71255761384963992
vn 1.3417977666463354E-14 1.8440639945225493E-15 -1
vn 8.311092360656878E-15 2.3470482522281507E-15 -1
vn 0.63438951969146728 -0.77300602197647088 -0.00340914400294423
vn 0.66795748472213744 -0.74419945478439328 7.119184866730306E-15
vn 0.63439321517944336 0.77301049232482912 6.761452359918714E-15
vn 0.584652841091156 0.81123220920562752 -0.00912929140031337
vn 0.65739685297012328 0.75354456901550288 7.006628164083839E-15
vn -0.66795766353607176 -1.1505881150287642E-16 0.74419927597045904
vn -0.65739661455154416 -1.132396229601906E-16 0.75354474782943728
vn 0.56640464067459104 9.756582751917651E-17 0.82412725687026976
vn 0.5917968153953552 -0.80608719587326048 6.307453711618723E-15
vn -0.5917968153953552 -1.019397468401201E-16 0.80608719587326048
vn -0.54845476150512696 -0.02585650980472564 0.835780382156372
vn -0.52826845645904544 -9.099669658397028E-17 0.84907740354537968
vn -0.56521052122116088 0.03127487748861313 0.82435363531112672
vn 1.3724706931388976E-14 -1.2702131488013906E-15 -1
vn 0.47139370441436768 -0.88191509246826176 -0.0037066217046231
vn 0.51112836599349976 -0.85950440168380736 5.447678424222403E-15
vn 0.47139692306518552 0.8819211721420288 5.024214890154456E-15
vn 0.41872975230216976 0.90806442499160768 -0.00918843224644661
vn 0.50244504213333128 0.86460918188095088 5.3551299103395036E-15
vn -0.51112836599349976 -8.804423751486231E-17 0.85950440168380736
vn -0.50244504213333128 -8.654848982657452E-17 0.86460918188095088
vn 0.39072948694229128 6.730496667358579E-17 0.92050558328628544
vn 0.42442131042480472 -0.90546482801437376 4.523542185361912E-15
vn -0.42442053556442264 -7.310840629425373E-17 0.9054651856422424
vn -0.37750118970870968 -0.0171465091407299 0.92585033178329472
vn -0.36256489157676696 0.01040667667984962 0.931900441646576
vn -0.41527810692787168 -7.153358675685077E-17 0.90969449281692512
vn 0.29028242826461792 -0.95693290233612064 -0.0039409534074366
vn 0.33493161201477052 -0.94224244356155392 3.569748358402732E-15
vn 0.2902846932411194 0.9569403529167176 3.0938952012723965E-15
vn 0.23714424669742584 0.97143262624740608 -0.00901716109365224
vn 0.32923105359077452 0.94424939155578608 3.508991108612655E-15
vn -0.3349323868751526 -5.769365735131164E-17 0.94224214553833008
vn -0.32923173904418944 -5.671169470253769E-17 0.94424915313720704
vn 0.19936820864677428 3.434209719603345E-17 0.97992467880249024
vn 0.24096401035785676 -0.97053402662277216 2.568228460030509E-15
vn -0.24096314609050752 -4.150701985668202E-17 0.97053426504135136
vn -0.1923518478870392 -0.01421590056270361 0.98122304677963264
vn -0.18444891273975372 0.00947647541761398 0.98279643058776848
vn -0.2350928783416748 -4.049583787995025E-17 0.97197288274765008
vn 7.402691029341057E-15 6.475491178189465E-16 -1
vn 0.09801632910966874 -0.99517649412155152 -0.00407140376046299
vn 0.1460450142621994 -0.98927795886993408 1.5565684126093494E-15
vn 0.0980171412229538 0.99518471956253056 1.0446805680786844E-15
vn 0.04675779491662979 0.99886965751647952 -0.00855085533112287
vn 0.14405171573162078 0.98957014083862304 1.5353234498636723E-15
vn -0.1460450142621994 -2.5156931473011923E-17 0.98927795886993408
vn -0.14405171573162078 -2.4813575418186062E-17 0.98957014083862304
vn -1.0658141036401503E-14 0 1
vn 0.04837574064731598 -0.99882918596267696 5.155954665594746E-16
vn -0.04837574064731598 -8.332946353326521E-18 0.99882918596267696
vn -1.0654862171862681E-14 -0.01344253215938806 0.99990963935852048
vn -1.0659275213517876E-14 0.00921203102916479 0.99995756149292
vn -0.0463634729385376 -7.986323762261688E-18 0.9989246129989624
vn 1.0594362843605043E-14 6.475491178189465E-16 -1
vn 1.0245352235051328E-14 5.029843106451606E-16 -1
vn 7.59157514141403E-15 -1.2702131488013906E-15 -1
vn 1.3724707778421923E-14 1.2702133605596274E-15 -1
vn 1.2502205454440526E-14 2.7598368418200884E-15 -1
vn 1.0084290614196818E-14 -3.0672968844209537E-16 -1
vn -0.0980171412229538 -0.99518471956253056 -1.0446805680786844E-15
vn -0.04877108708024025 -0.99877619743347168 -0.00821584276854991
vn 0.04837574064731598 8.332946353326521E-18 0.99882918596267696
vn 0.0463634729385376 7.986323762261688E-18 0.9989246129989624
vn -0.09801633656024932 0.99517649412155152 -0.00406112428754568
vn -0.0463634729385376 0.9989246129989624 -4.941484335163181E-16
vn 0.18444891273975372 0.00947647541761398 0.98279643058776848
vn 0.14405171573162078 2.4813575418186062E-17 0.98957014083862304
vn -0.14405171573162078 0.98957014083862304 -1.5353234498636723E-15
vn -0.1460450142621994 -0.98927795886993408 -1.5565684126093494E-15
vn 0.1460450142621994 2.5156931473011923E-17 0.98927795886993408
vn 0.1923518478870392 -0.01421590056270361 0.98122304677963264
vn -0.19936820864677428 -3.434209719603345E-17 0.97992467880249024
vn -0.2902846932411194 -0.9569403529167176 -3.0938952012723965E-15
vn -0.29028254747390748 0.95693325996398928 -0.00385057972744107
vn -0.2350938767194748 0.97197264432907104 -2.505663641930991E-15
vn -0.24284020066261292 -0.970032811164856 -0.00805794447660446
vn 0.24096314609050752 4.150701985668202E-17 0.97053426504135136
vn 0.2350928783416748 4.049583787995025E-17 0.97197288274765008
vn 0.36256489157676696 0.01040667667984962 0.931900441646576
vn 0.32923173904418944 5.671169470253769E-17 0.94424915313720704
vn -0.32923105359077452 0.94424939155578608 -3.508991108612655E-15
vn -0.33493161201477052 -0.94224244356155392 -3.569748358402732E-15
vn 0.3349323868751526 5.769365735131164E-17 0.94224214553833008
vn 0.37750118970870968 -0.0171465091407299 0.92585033178329472
vn -0.39072948694229128 -6.730496667358579E-17 0.92050558328628544
vn -0.47139692306518552 -0.8819211721420288 -5.024214890154456E-15
vn -0.47139409184455872 0.88191586732864384 -0.00346633838489651
vn -0.41527912020683288 0.90969401597976688 -4.426103750274513E-15
vn -0.42736610770225528 -0.90404582023620608 -0.00770149333402514
vn 0.42442053556442264 7.310840629425373E-17 0.9054651856422424
vn 0.41527810692787168 7.153358675685077E-17 0.90969449281692512
vn 0.52822619676589968 0.01264895405620336 0.84900945425033568
vn 0.50244504213333128 8.654848982657452E-17 0.86460918188095088
vn -0.50244504213333128 0.86460918188095088 -5.3551299103395036E-15
vn -0.51112836599349976 -0.85950440168380736 -5.447678424222403E-15
vn 0.51112836599349976 8.804423751486231E-17 0.85950440168380736
vn 0.5486382246017456 9.450547762841202E-17 0.83605986833572384
vn 0.57106167078018192 -0.04198873415589332 0.81983262300491328
vn -0.56640464067459104 -9.756582751917651E-17 0.82412725687026976
vn -0.63439321517944336 -0.77301049232482912 -6.761452359918714E-15
vn -0.63439041376113888 0.77300709486007696 -0.00296609639190137
vn -0.58037042617797848 0.81435257196426384 -6.1856702790778154E-15
vn -0.59522384405136112 -0.80352741479873664 -0.00722773699089884
vn 0.58037137985229496 9.997166578717474E-17 0.81435191631317136
vn 0.67569565773010256 0.01933775469660759 0.7369270324707032
vn 0.65739661455154416 1.132396229601906E-16 0.75354474782943728
vn -0.65739685297012328 0.75354456901550288 -7.006628164083839E-15
vn -0.66795748472213744 -0.74419945478439328 -7.119184866730306E-15
vn 0.66795766353607176 1.1505881150287642E-16 0.74419927597045904
vn 0.6936509609222412 -0.07332527637481689 0.71656942367553712
vn -0.71933764219284056 -1.239092470104998E-16 0.69466060400009152
vn -0.77301049232482912 -0.63439321517944336 -8.23885484981619E-15
vn -0.77300828695297248 0.63439136743545536 -0.00240829540416598
vn -0.72436863183975216 0.68941283226013184 -7.720423252251512E-15
vn -0.73687720298767088 -0.6759867072105408 -0.0073412568308413
vn 0.7243690490722656 1.2477593376910835E-16 0.6894124150276184
vn 0.79350811243057248 0.08716289699077606 0.6022852063179016
vn 0.78845542669296272 1.3581511564732664E-16 0.61509186029434208
vn -0.78845542669296272 0.61509186029434208 -8.403469773884432E-15
vn -0.79636436700820928 -0.60481721162796024 -8.487763951696339E-15
vn -0.81148749589920048 -0.03285665810108185 -0.58344537019729616
vn -0.8433895111083984 -1.4527775745246785E-16 0.53730267286300656
vn -0.8819211721420288 -0.47139692306518552 -9.399639812161797E-15
vn -0.88192033767700192 0.47139650583267208 -0.00136741169262677
vn -0.8387607336044312 0.54450023174285888 -8.939629771035143E-15
vn -0.84924364089965824 -0.52794224023818968 -0.00788781233131885
vn -0.84572905302047728 -1.4568075984690369E-16 -0.53361254930496216
vn -0.85573202371597296 0.51737433671951296 -0.00682127801701426
vn -0.85272741317749024 -1.4688625978441397E-16 -0.52235615253448488
vn -0.90620672702789312 -0.01515623554587364 -0.42256316542625424
vn -0.89396029710769648 -1.539888163355985E-16 -0.44814616441726688
vn -0.89396047592163088 -0.44814580678939816 -9.527956833341351E-15
vn -0.89396047592163088 0.44814580678939816 -9.527956833341351E-15
vn -0.90631085634231568 -1.5611624546174607E-16 -0.42261171340942384
vn -0.9046319723129272 0.02823885716497898 -0.4252570569515228
vn -0.93357896804809568 -1.6081330785206718E-16 0.3583718240261078
vn -0.9569403529167176 -0.2902846932411194 -1.0199205033051967E-14
vn -0.93436145782470704 0.35632669925689696 -9.958556196473442E-15
vn -0.9569381475448608 0.29028403759002684 -0.00214085774496197
vn -0.93662130832672112 -0.35027518868446352 -0.00691332574933767
vn -0.93436175584793088 -1.6094815814424803E-16 -0.35632580518722536
vn -0.9723289608955384 -0.00932773109525442 -0.23342958092689516
vn -0.96478807926177984 -1.6618922744494321E-16 -0.26302853226661684
vn -0.96478813886642464 -0.26302832365036012 -1.0282847842527434E-14
vn -0.96478813886642464 0.26302832365036012 -1.0282847842527434E-14
vn -0.9723712801933288 -1.6749547136361755E-16 -0.23343974351882936
vn -0.968478798866272 0.0154162049293518 -0.2486185133457184
vn -0.98628485202789312 -1.698921378529838E-16 0.16505225002765656
vn -0.99518471956253056 -0.0980171412229538 -1.0606819310127365E-14
vn -0.98628604412078864 0.16504500806331634 -1.0511975336957406E-14
vn -0.99518269300460816 0.09801694005727768 -0.00202053156681358
vn -0.98724114894866944 -0.15911592543125152 -0.00608891434967517
vn -0.98628604412078864 -1.698923496112206E-16 -0.16504500806331634
vn -0.99936801195144656 -0.00678432546555996 -0.03489295393228531
vn -0.99771404266357424 -1.718608806504192E-16 -0.06757687032222748
vn -0.99771404266357424 -0.06757690757513046 -1.0634388538494598E-14
vn -0.99771404266357424 0.06757690757513046 -1.0633165422918762E-14
vn -0.99939101934432976 -1.7214974535521252E-16 -0.03489375859498977
vn -0.99833333492279056 0.01095748599618673 -0.05666133388876915
vn -0.99946451187133792 -1.7216239790986213E-16 0.03272201865911484
# 224 vertex normals

g obj_45613878
s 1
f 1//1 2//1 3//1
f 4//2 1//2 3//2
f 5//3 4//3 3//3
f 6//4 5//4 3//4
f 2//5 7//5 3//5
f 7//6 8//6 3//6
f 8//7 6//7 3//7
f 9//8 5//8 6//8
f 8//9 10//9 6//9
f 10//10 11//10 6//10
f 11//11 9//11 6//11
f 12//12 5//12 9//12
f 11//13 13//13 9//13
f 13//13 14//13 9//13
f 15//14 12//14 9//14
f 14//14 15//14 9//14
f 16//15 13//15 11//15
f 10//15 16//15 11//15
f 17//16 18//16 12//16
f 19//17 5//17 12//17
f 18//18 19//18 12//18
f 15//14 17//14 12//14
f 19//19 4//19 5//19
f 7//17 10//17 8//17
f 7//20 20//20 10//20
f 20//15 16//15 10//15
f 21//21 1//21 4//21
f 1//22 22//22 2//22
f 18//23 21//23 4//23
f 19//24 18//24 4//24
f 22//25 23//25 2//25
f 23//26 24//26 2//26
f 24//27 7//27 2//27
f 24//28 20//28 7//28
f 13//29 25//29 14//29
f 25//29 26//29 14//29
f 26//14 15//14 14//14
f 16//15 25//15 13//15
f 27//30 28//30 17//30
f 28//31 29//31 17//31
f 29//32 18//32 17//32
f 15//14 27//14 17//14
f 29//33 21//33 18//33
f 23//32 20//32 24//32
f 23//34 30//34 20//34
f 30//15 16//15 20//15
f 31//21 1//21 21//21
f 1//35 32//35 22//35
f 28//36 31//36 21//36
f 29//37 28//37 21//37
f 33//38 23//38 22//38
f 32//39 34//39 22//39
f 34//40 35//40 22//40
f 35//41 33//41 22//41
f 33//42 30//42 23//42
f 25//43 36//43 26//43
f 36//43 37//43 26//43
f 37//14 15//14 26//14
f 16//15 36//15 25//15
f 38//44 39//44 27//44
f 39//45 28//45 27//45
f 15//14 38//14 27//14
f 39//46 31//46 28//46
f 35//47 30//47 33//47
f 35//15 16//15 30//15
f 40//15 16//15 35//15
f 41//15 40//15 35//15
f 34//48 41//48 35//48
f 42//49 1//49 31//49
f 1//50 43//50 32//50
f 38//51 42//51 31//51
f 39//52 38//52 31//52
f 43//53 44//53 32//53
f 44//54 45//54 32//54
f 45//55 34//55 32//55
f 45//56 41//56 34//56
f 36//57 46//57 37//57
f 46//57 47//57 37//57
f 48//14 15//14 37//14
f 47//14 48//14 37//14
f 49//15 46//15 36//15
f 16//15 49//15 36//15
f 50//58 42//58 38//58
f 15//14 51//14 38//14
f 51//59 50//59 38//59
f 52//15 40//15 41//15
f 45//60 52//60 41//60
f 44//61 52//61 45//61
f 53//62 1//62 42//62
f 1//63 54//63 43//63
f 55//64 53//64 42//64
f 50//65 55//65 42//65
f 54//66 56//66 43//66
f 56//67 57//67 43//67
f 57//68 44//68 43//68
f 51//69 55//69 50//69
f 57//70 52//70 44//70
f 46//71 58//71 47//71
f 58//71 59//71 47//71
f 59//14 48//14 47//14
f 49//15 58//15 46//15
f 60//72 53//72 55//72
f 51//73 60//73 55//73
f 15//14 61//14 51//14
f 61//14 62//14 51//14
f 62//14 63//14 51//14
f 63//14 64//14 51//14
f 64//74 60//74 51//74
f 65//15 40//15 52//15
f 57//75 65//75 52//75
f 56//76 65//76 57//76
f 66//21 1//21 53//21
f 1//77 67//77 54//77
f 68//78 66//78 53//78
f 60//79 68//79 53//79
f 67//80 69//80 54//80
f 69//81 70//81 54//81
f 70//82 56//82 54//82
f 64//83 68//83 60//83
f 70//84 65//84 56//84
f 58//85 71//85 59//85
f 71//85 72//85 59//85
f 72//14 48//14 59//14
f 49//15 71//15 58//15
f 73//86 66//86 68//86
f 64//87 73//87 68//87
f 63//14 74//14 64//14
f 74//88 73//88 64//88
f 75//15 40//15 65//15
f 69//89 75//89 65//89
f 70//90 69//90 65//90
f 76//21 1//21 66//21
f 1//21 77//21 67//21
f 78//91 76//91 66//91
f 73//92 78//92 66//92
f 77//93 79//93 67//93
f 79//94 80//94 67//94
f 80//95 69//95 67//95
f 74//96 78//96 73//96
f 80//97 75//97 69//97
f 71//98 81//98 72//98
f 81//98 82//98 72//98
f 82//14 48//14 72//14
f 49//15 81//15 71//15
f 83//99 76//99 78//99
f 74//100 83//100 78//100
f 84//14 85//14 74//14
f 63//14 84//14 74//14
f 85//101 83//101 74//101
f 86//15 40//15 75//15
f 79//102 86//102 75//102
f 80//103 79//103 75//103
f 87//21 1//21 76//21
f 1//104 88//104 77//104
f 89//105 87//105 76//105
f 83//106 89//106 76//106
f 88//107 90//107 77//107
f 90//108 91//108 77//108
f 91//109 79//109 77//109
f 85//110 89//110 83//110
f 91//111 86//111 79//111
f 81//112 92//112 82//112
f 92//112 93//112 82//112
f 93//14 48//14 82//14
f 49//15 92//15 81//15
f 94//113 87//113 89//113
f 85//114 94//114 89//114
f 84//115 94//115 85//115
f 95//15 40//15 86//15
f 90//116 95//116 86//116
f 91//117 90//117 86//117
f 96//21 1//21 87//21
f 97//118 88//118 1//118
f 98//119 99//119 1//119
f 99//120 100//120 1//120
f 100//121 97//121 1//121
f 101//21 102//21 1//21
f 102//21 103//21 1//21
f 103//122 98//122 1//122
f 104//1 105//1 1//1
f 105//21 106//21 1//21
f 106//21 101//21 1//21
f 107//21 108//21 1//21
f 108//63 109//63 1//63
f 109//123 104//123 1//123
f 96//21 110//21 1//21
f 110//21 107//21 1//21
f 94//124 96//124 87//124
f 111//125 96//125 94//125
f 84//126 111//126 94//126
f 112//127 95//127 90//127
f 97//128 112//128 88//128
f 112//129 90//129 88//129
f 113//15 40//15 95//15
f 114//130 113//130 95//130
f 112//131 114//131 95//131
f 97//132 114//132 112//132
f 115//133 96//133 111//133
f 84//134 115//134 111//134
f 63//135 115//135 84//135
f 92//136 116//136 93//136
f 116//136 117//136 93//136
f 117//14 48//14 93//14
f 49//15 116//15 92//15
f 115//137 110//137 96//137
f 100//138 118//138 97//138
f 118//139 114//139 97//139
f 119//140 110//140 115//140
f 63//141 119//141 115//141
f 118//142 113//142 114//142
f 120//15 40//15 113//15
f 121//15 120//15 113//15
f 122//143 121//143 113//143
f 118//144 122//144 113//144
f 100//145 122//145 118//145
f 123//146 110//146 119//146
f 63//147 123//147 119//147
f 62//148 123//148 63//148
f 116//149 124//149 117//149
f 124//149 125//149 117//149
f 126//14 48//14 117//14
f 127//14 126//14 117//14
f 125//14 127//14 117//14
f 128//15 129//15 116//15
f 49//15 128//15 116//15
f 129//15 130//15 116//15
f 130//15 131//15 116//15
f 131//15 124//15 116//15
f 123//150 107//150 110//150
f 99//151 132//151 100//151
f 132//152 122//152 100//152
f 133//153 107//153 123//153
f 62//154 133//154 123//154
f 132//155 121//155 122//155
f 134//156 120//156 121//156
f 132//157 134//157 121//157
f 99//158 134//158 132//158
f 135//159 107//159 133//159
f 62//160 135//160 133//160
f 61//161 136//161 62//161
f 136//162 135//162 62//162
f 124//163 137//163 125//163
f 137//163 138//163 125//163
f 138//14 127//14 125//14
f 131//15 137//15 124//15
f 135//164 108//164 107//164
f 98//165 139//165 99//165
f 139//166 134//166 99//166
f 136//167 108//167 135//167
f 139//168 120//168 134//168
f 140//169 40//169 120//169
f 139//170 140//170 120//170
f 98//171 140//171 139//171
f 141//172 108//172 136//172
f 61//173 141//173 136//173
f 15//174 141//174 61//174
f 137//175 142//175 138//175
f 142//175 143//175 138//175
f 143//14 144//14 138//14
f 145//14 127//14 138//14
f 144//14 145//14 138//14
f 131//15 142//15 137//15
f 141//176 109//176 108//176
f 103//177 146//177 98//177
f 146//178 140//178 98//178
f 15//179 109//179 141//179
f 146//180 40//180 140//180
f 147//181 16//181 40//181
f 146//182 147//182 40//182
f 103//183 147//183 146//183
f 148//184 109//184 15//184
f 48//185 148//185 15//185
f 142//186 149//186 143//186
f 149//186 150//186 143//186
f 150//14 144//14 143//14
f 131//15 149//15 142//15
f 148//187 104//187 109//187
f 102//188 16//188 103//188
f 16//189 147//189 103//189
f 151//190 104//190 148//190
f 48//191 151//191 148//191
f 102//192 152//192 16//192
f 152//193 49//193 16//193
f 126//194 153//194 48//194
f 153//195 151//195 48//195
f 153//196 104//196 151//196
f 102//197 154//197 152//197
f 128//198 49//198 152//198
f 154//199 128//199 152//199
f 149//200 131//200 150//200
f 131//200 144//200 150//200
f 153//201 105//201 104//201
f 155//202 154//202 102//202
f 101//203 155//203 102//203
f 156//204 105//204 153//204
f 126//205 156//205 153//205
f 155//205 128//205 154//205
f 127//206 157//206 126//206
f 157//207 156//207 126//207
f 157//208 105//208 156//208
f 101//209 158//209 155//209
f 129//210 128//210 155//210
f 158//211 129//211 155//211
f 131//212 130//212 144//212
f 130//212 145//212 144//212
f 157//213 106//213 105//213
f 159//214 158//214 101//214
f 106//215 159//215 101//215
f 160//216 106//216 157//216
f 127//217 160//217 157//217
f 159//217 129//217 158//217
f 145//218 161//218 127//218
f 161//219 160//219 127//219
f 161//220 106//220 160//220
f 106//221 161//221 159//221
f 130//222 129//222 159//222
f 161//223 130//223 159//223
f 130//224 161//224 145//224
#318 polygons

