# Aspose.3D Wavefront OBJ Exporter
# Copyright 2004-2023 Aspose Pty Ltd.
# File created: 06/29/2023 05:33:37


#
# object obj_12089800
#

v -68.92400360107421872 -42.97445678710937504 76.20184326171875
v -68.49220275878906248 -42.97445678710937504 76.94974517822265632
v -69.37548065185546872 -43.94309997558593744 77.45970916748046872
v -69.80728149414062496 -43.94309997558593744 76.71180725097656248
v -70.47475433349609376 -44.54915618896484376 78.0943756103515625
v -70.90655517578124992 -44.54915618896484376 77.34647369384765624
v -71.68241882324218752 -44.73330688476562496 78.7916183471679688
v -72.11421966552734376 -44.73330688476562496 78.0437164306640625
v -72.8802566528320312 -44.47751998901367184 79.48319244384765624
v -73.31205749511718752 -44.47751998901367184 78.73529052734375008
v -73.95101928710937504 -43.80683898925781248 80.1013946533203125
v -74.38282012939453128 -43.80683898925781248 79.35349273681640624
v -74.78988647460937504 -42.78691482543945312 80.58571624755859376
v -75.22168731689453124 -42.78691482543945312 79.83781433105468752
v -75.31475067138671876 -41.5175819396972656 80.88874053955078128
v -75.74654388427734368 -41.5175819396972656 80.14084625244140624
v -75.47422790527343752 -40.1230926513671875 80.98081970214843744
v -75.90602874755859376 -40.1230926513671875 80.23291778564453124
v -75.25270843505859376 -38.73994827270507808 80.85292816162109376
v -75.68450927734375 -38.73994827270507808 80.1050262451171875
v -74.67188262939453128 -37.5035438537597656 80.51758575439453128
v -75.1036834716796875 -37.5035438537597656 79.76968383789062496
v -73.78860473632812496 -36.53490066528320312 80.00762176513671875
v -74.22039794921875 -36.53490066528320312 79.25972747802734376
v -72.68932342529296872 -35.9288444519042968 79.37295532226562496
v -73.121124267578125 -35.9288444519042968 78.62505340576171872
v -71.48166656494140624 -35.74469375610351568 78.67571258544921872
v -71.9134597778320312 -35.74469375610351568 77.92781066894531248
v -70.28382873535156248 -36.00048065185546875 77.9841384887695312
v -70.71562194824218752 -36.00048065185546875 77.236236572265625
v -69.21306610107421876 -36.67115783691406248 77.36593627929687504
v -69.64486694335937504 -36.67115783691406248 76.61803436279296872
v -68.37419891357421872 -37.69108581542968752 76.88161468505859376
v -68.80599975585937504 -37.69108581542968752 76.13372039794921876
v -67.84933471679687504 -38.96041870117187504 76.57859039306640624
v -68.28113555908203124 -38.96041870117187504 75.8306884765625
v -67.68985748291015624 -40.35490798950195312 76.48651123046875
v -68.1216583251953125 -40.35490798950195312 75.73861694335937504
v -67.911376953125 -41.73805236816406256 76.61440277099609376
v -68.34317779541015624 -41.73805236816406256 75.86650848388671872
v -73.60401916503906248 -39.41324996948242184 79.90105438232421872
v -73.72604370117187504 -40.17515182495117188 79.97150421142578128
v -73.63819122314453128 -40.94330215454101568 79.9207839965820312
v -73.34907531738281248 -41.6425132751464844 79.75386047363281248
v -72.88698577880859376 -42.20433425903320312 79.48707580566406248
v -72.29716491699218752 -42.57378005981445312 79.14653778076171876
v -71.63733673095703128 -42.71467590332031248 78.76558685302734368
v -70.97209930419921872 -42.61323928833007816 78.38151550292968752
v -69.56006622314453128 -41.06475067138671875 77.56627655029296872
v -69.43804168701171872 -40.30284881591796876 77.49582672119140624
v -70.36656188964843752 -42.27939224243164064 78.0319061279296875
v -69.8800125122070312 -41.74581909179687504 77.75099945068359376
v -69.52589416503906248 -39.53469467163085936 77.54654693603515624
v -69.81501007080078128 -38.83548736572265632 77.71347045898437504
v -70.277099609375 -38.27366256713867188 77.98025512695312496
v -70.86692047119140624 -37.90422058105468752 78.32079315185546876
v -71.52674865722656248 -37.76332473754882816 78.70174407958984376
v -72.191986083984375 -37.86476135253906256 79.0858154296875
v -72.79752349853515632 -38.1986083984375 79.4354248046875
v -73.28407287597656248 -38.7321815490722656 79.71633148193359376
v -73.31878662109375 -42.20433425903320312 78.73917388916015632
v -72.72895812988281248 -42.57378005981445312 78.39864349365234376
v -73.7808761596679688 -41.6425132751464844 79.0059661865234375
v -74.15784454345703124 -40.17515182495117188 79.223602294921875
v -74.0699920654296875 -40.94330215454101568 79.172882080078125
v -74.03582000732421875 -39.41324996948242184 79.1531524658203125
v -71.29872131347656248 -37.90422058105468752 77.57289123535156248
v -71.95854949951171872 -37.76332473754882816 77.95384216308593744
v -70.70890045166015624 -38.27366256713867188 77.23235321044921876
v -70.24681091308593752 -38.83548736572265632 76.9655685424804688
v -69.95769500732421872 -39.53469467163085936 76.79864501953124992
v -70.79836273193359376 -42.27939224243164064 77.28401184082031248
v -70.31181335449218752 -41.74581909179687504 77.0030975341796875
v -71.40390014648437504 -42.61323928833007816 77.63361358642578128
v -72.0691375732421875 -42.71467590332031248 78.01769256591796875
v -73.71587371826171872 -38.7321815490722656 78.96843719482421872
v -73.22931671142578124 -38.1986083984375 78.68752288818359376
v -72.62378692626953128 -37.86476135253906256 78.337921142578125
v -69.86984252929687504 -40.30284881591796876 76.7479248046875
v -69.99186706542968752 -41.06475067138671875 76.81837463378906256
v -100.67400360107421872 -43.85354232788085936 21.20923233032226564
v -101.105804443359375 -43.85354232788085936 20.46133232116699216
v -101.98908233642578128 -42.88490295410156256 20.97129631042480464
v -101.55728149414062496 -42.88490295410156256 21.71919631958007816
v -103.08835601806640625 -42.27884292602539064 21.6059627532958984
v -102.65655517578125 -42.27884292602539064 22.35386276245117188
v -104.2960205078125 -42.094696044921875 22.30320739746093752
v -103.86421966552734368 -42.094696044921875 23.05110740661621094
v -105.49385833740234376 -42.35047912597656248 22.99477958679199216
v -105.0620574951171875 -42.35047912597656248 23.7426795959472656
v -106.56462097167968752 -43.02116012573242187 23.6129817962646484
v -106.13282012939453124 -43.02116012573242187 24.36088180541992184
v -107.40348815917968752 -44.04108428955078125 24.09730339050292968
v -106.9716873168945312 -44.04108428955078125 24.84520149230957024
v -107.9283447265625 -45.31041717529296876 24.4003314971923828
v -107.49654388427734376 -45.31041717529296876 25.14823150634765624
v -108.08782196044921875 -46.70490646362304688 24.49240684509277344
v -107.65602874755859376 -46.70490646362304688 25.24030494689941408
v -107.86631011962890624 -48.08805084228515625 24.36451339721679688
v -107.43450927734375 -48.08805084228515625 25.11241340637207032
v -107.28548431396484376 -49.32445907592773436 24.0291748046875
v -106.85368347167968752 -49.32445907592773436 24.77707290649414064
v -106.40219879150390624 -50.29309844970703124 23.51921081542968752
v -105.97039794921875008 -50.29309844970703124 24.26711082458496092
v -105.30292510986328124 -50.89915466308593744 22.88454437255859376
v -104.87112426757812496 -50.89915466308593744 23.6324443817138672
v -104.0952606201171875 -51.08330535888671875 22.18729972839355468
v -103.66345977783203128 -51.08330535888671875 22.93519973754882816
v -102.89742279052734368 -50.8275222778320312 21.4957275390625
v -102.46562194824218752 -50.8275222778320312 22.24362754821777344
v -101.8266677856445312 -50.15684127807617188 20.87752532958984368
v -101.39486694335937504 -50.15684127807617188 21.6254234313964844
v -100.9878005981445312 -49.1369171142578125 20.39320373535156248
v -100.55599975585937504 -49.1369171142578125 21.14110374450683594
v -100.46293640136718752 -47.86758041381835936 20.09017562866210938
v -100.03113555908203125 -47.86758041381835936 20.83807563781738288
v -100.30345916748046876 -46.47309112548828128 19.99810028076171872
v -99.87165832519531248 -46.47309112548828128 20.74600028991699216
v -100.52497863769531248 -45.08994674682617188 20.12599372863769532
v -100.09317779541015624 -45.08994674682617188 20.873891830444336
v -106.217620849609375 -47.41474914550781248 23.41264343261718752
v -106.33963775634765624 -46.65284729003906248 23.4830913543701172
v -106.25179290771484376 -45.88469696044921872 23.432373046875
v -105.96267700195312496 -45.18548583984375 23.26544952392578124
v -105.50058746337890624 -44.62366485595703128 22.9986629486083984
v -104.9107589721679688 -44.25422286987304688 22.65812873840332032
v -104.25093841552734376 -44.11332321166992188 22.27717781066894532
v -103.58570098876953128 -44.21475982666015624 21.89310073852539056
v -102.17366790771484376 -45.76325225830078128 21.07786369323730469
v -102.05164337158203125 -46.52515411376953128 21.007415771484375
v -102.98016357421875008 -44.54860687255859376 21.54349708557128904
v -102.49361419677734376 -45.08218002319335938 21.26258468627929688
v -102.13948822021484376 -47.293304443359375 21.05813407897949219
v -102.42861175537109376 -47.99251174926757808 21.22505760192871092
v -102.89070129394531248 -48.55433654785156248 21.49184417724609376
v -103.48052215576171872 -48.92377853393554688 21.83237838745117184
v -104.140350341796875 -49.06467819213867188 22.21332931518554688
v -104.80558776855468752 -48.96323776245117184 22.59740447998046872
v -105.41111755371093752 -48.62939453125 22.9470100402832032
v -105.89767456054687504 -48.09582138061523438 23.22792243957519532
v -105.06878662109375 -44.62366485595703128 23.74656295776367184
v -104.47895812988281248 -44.25422286987304688 23.40602684020996096
v -105.53087615966796872 -45.18548583984375 24.01334953308105468
v -105.9078445434570312 -46.65284729003906248 24.23099136352539064
v -105.81999206542968752 -45.88469696044921872 24.18027305603027344
v -105.78582000732421872 -47.41474914550781248 24.16054153442382812
v -103.0487213134765625 -48.92377853393554688 22.58027839660644528
v -103.70854949951171872 -49.06467819213867188 22.96122932434082032
v -102.45890045166015624 -48.55433654785156248 22.23974227905273436
v -101.99681091308593744 -47.99251174926757808 21.97295570373535152
v -101.70769500732421872 -47.293304443359375 21.8060340881347656
v -102.54836273193359376 -44.54860687255859376 22.29139709472656248
v -102.0618133544921875 -45.08218002319335938 22.01048469543457031
v -103.153900146484375 -44.21475982666015624 22.64100074768066408
v -103.81913757324218752 -44.11332321166992188 23.02507591247558594
v -105.46587371826171872 -48.09582138061523438 23.975820541381836
v -104.97931671142578128 -48.62939453125 23.69491004943847656
v -104.37378692626953128 -48.96323776245117184 23.3453044891357422
v -101.61984252929687504 -46.52515411376953128 21.75531387329101568
v -101.74186706542968752 -45.76325225830078128 21.82576370239257808
v -100.67400360107421872 -18.45354270935058592 21.20923233032226564
v -101.105804443359375 -18.45354270935058592 20.46133232116699216
v -101.98908233642578128 -17.48490142822265624 20.97129631042480464
v -101.55728149414062496 -17.48490142822265624 21.71919631958007816
v -103.08835601806640625 -16.87884330749511712 21.6059627532958984
v -102.65655517578125 -16.87884330749511712 22.35386276245117188
v -104.2960205078125 -16.69469451904296872 22.30320739746093752
v -103.86421966552734368 -16.69469451904296872 23.05110740661621094
v -105.49385833740234376 -16.95047950744628912 22.99477958679199216
v -105.0620574951171875 -16.95047950744628912 23.7426795959472656
v -106.56462097167968752 -17.6211585998535156 23.6129817962646484
v -106.13282012939453124 -17.6211585998535156 24.36088180541992184
v -107.40348815917968752 -18.64108467102050784 24.09730339050292968
v -106.9716873168945312 -18.64108467102050784 24.84520149230957024
v -107.9283447265625 -19.91041755676269536 24.4003314971923828
v -107.49654388427734376 -19.91041755676269536 25.14823150634765624
v -108.08782196044921875 -21.30490875244140624 24.49240684509277344
v -107.65602874755859376 -21.30490875244140624 25.24030494689941408
v -107.86631011962890624 -22.6880512237548828 24.36451339721679688
v -107.43450927734375 -22.6880512237548828 25.11241340637207032
v -107.28548431396484376 -23.92445755004882816 24.0291748046875
v -106.85368347167968752 -23.92445755004882816 24.77707290649414064
v -106.40219879150390624 -24.89309883117675776 23.51921081542968752
v -105.97039794921875008 -24.89309883117675776 24.26711082458496092
v -105.30292510986328124 -25.49915695190429688 22.88454437255859376
v -104.87112426757812496 -25.49915695190429688 23.6324443817138672
v -104.0952606201171875 -25.68330574035644528 22.18729972839355468
v -103.66345977783203128 -25.68330574035644528 22.93519973754882816
v -102.89742279052734368 -25.42752075195312496 21.4957275390625
v -102.46562194824218752 -25.42752075195312496 22.24362754821777344
v -101.8266677856445312 -24.7568416595458984 20.87752532958984368
v -101.39486694335937504 -24.7568416595458984 21.6254234313964844
v -100.9878005981445312 -23.73691558837890624 20.39320373535156248
v -100.55599975585937504 -23.73691558837890624 21.14110374450683594
v -100.46293640136718752 -22.46758270263671872 20.09017562866210938
v -100.03113555908203125 -22.46758270263671872 20.83807563781738288
v -100.30345916748046876 -21.07309150695800781 19.99810028076171872
v -99.87165832519531248 -21.07309150695800781 20.74600028991699216
v -100.52497863769531248 -19.68994903564453128 20.12599372863769532
v -100.09317779541015624 -19.68994903564453128 20.873891830444336
v -106.217620849609375 -22.01474952697753906 23.41264343261718752
v -106.33963775634765624 -21.25284767150878908 23.4830913543701172
v -106.25179290771484376 -20.48469734191894528 23.432373046875
v -105.96267700195312496 -19.78548812866210944 23.26544952392578124
v -105.50058746337890624 -19.223663330078125 22.9986629486083984
v -104.9107589721679688 -18.85422134399414064 22.65812873840332032
v -104.25093841552734376 -18.7133235931396484 22.27717781066894532
v -103.58570098876953128 -18.81476211547851568 21.89310073852539056
v -102.17366790771484376 -20.36325073242187504 21.07786369323730469
v -102.05164337158203125 -21.125152587890625 21.007415771484375
v -102.98016357421875008 -19.14860725402832032 21.54349708557128904
v -102.49361419677734376 -19.68218040466308592 21.26258468627929688
v -102.13948822021484376 -21.8933029174804688 21.05813407897949219
v -102.42861175537109376 -22.59251213073730472 21.22505760192871092
v -102.89070129394531248 -23.15433692932128906 21.49184417724609376
v -103.48052215576171872 -23.52377891540527344 21.83237838745117184
v -104.140350341796875 -23.6646766662597656 22.21332931518554688
v -104.80558776855468752 -23.5632381439208984 22.59740447998046872
v -105.41111755371093752 -23.22939300537109376 22.9470100402832032
v -105.89767456054687504 -22.69581985473632816 23.22792243957519532
v -105.06878662109375 -19.223663330078125 23.74656295776367184
v -104.47895812988281248 -18.85422134399414064 23.40602684020996096
v -105.53087615966796872 -19.78548812866210944 24.01334953308105468
v -105.9078445434570312 -21.25284767150878908 24.23099136352539064
v -105.81999206542968752 -20.48469734191894528 24.18027305603027344
v -105.78582000732421872 -22.01474952697753906 24.16054153442382812
v -103.0487213134765625 -23.52377891540527344 22.58027839660644528
v -103.70854949951171872 -23.6646766662597656 22.96122932434082032
v -102.45890045166015624 -23.15433692932128906 22.23974227905273436
v -101.99681091308593744 -22.59251213073730472 21.97295570373535152
v -101.70769500732421872 -21.8933029174804688 21.8060340881347656
v -102.54836273193359376 -19.14860725402832032 22.29139709472656248
v -102.0618133544921875 -19.68218040466308592 22.01048469543457031
v -103.153900146484375 -18.81476211547851568 22.64100074768066408
v -103.81913757324218752 -18.7133235931396484 23.02507591247558594
v -105.46587371826171872 -22.69581985473632816 23.975820541381836
v -104.97931671142578128 -23.22939300537109376 23.69491004943847656
v -104.37378692626953128 -23.5632381439208984 23.3453044891357422
v -101.61984252929687504 -21.125152587890625 21.75531387329101568
v -101.74186706542968752 -20.36325073242187504 21.82576370239257808
# 240 vertices

vn 0.59638106822967528 -0.72510188817977904 -0.34432077407836916
vn 0.3731428384780884 -0.90241485834121712 -0.21543411910533904
vn 0.11337877064943314 -0.9913931488990784 -0.06545926630496979
vn -0.15748360753059388 -0.98332697153091424 0.09092320501804352
vn -0.41293039917945864 -0.87900584936141968 0.23840548098087312
vn -0.62795668840408328 -0.68864154815673832 0.36255094408988952
vn -0.78151416778564448 -0.43086823821067808 0.45120742917060856
vn -0.85857164859771728 -0.13091853260993958 0.4956965744495392
vn -0.85158610343933104 0.18184641003608704 0.49166348576545712
vn -0.76124143600463872 0.47681096196174624 0.43950292468070984
vn -0.59638106822967528 0.72510188817977904 0.34432077407836916
vn -0.3731428384780884 0.90241485834121712 0.21543411910533904
vn -0.11337877064943314 0.9913931488990784 0.06545926630496979
vn 0.15748360753059388 0.98332697153091424 -0.09092320501804352
vn 0.41293039917945864 0.87900584936141968 -0.23840548098087312
vn 0.62795668840408328 0.68864154815673832 -0.36255094408988952
vn 0.78151416778564448 0.43086823821067808 -0.45120742917060856
vn 0.85857164859771728 0.13091853260993958 -0.4956965744495392
vn 0.85158610343933104 -0.18184641003608704 -0.49166348576545712
vn 0.76124143600463872 -0.47681096196174624 -0.43950292468070984
vn 0.5 0 0.86602538824081424
vn -0.5 0 -0.86602538824081424
vn 0.59638106822967528 0.72510188817977904 -0.34432077407836916
vn 0.3731428384780884 0.90241485834121712 -0.21543411910533904
vn 0.11337877064943314 0.9913931488990784 -0.06545926630496979
vn -0.15748360753059388 0.98332697153091424 0.09092320501804352
vn -0.41293039917945864 0.87900584936141968 0.23840548098087312
vn -0.62795668840408328 0.68864154815673832 0.36255094408988952
vn -0.78151416778564448 0.43086823821067808 0.45120742917060856
vn -0.85857164859771728 0.13091853260993958 0.4956965744495392
vn -0.85158610343933104 -0.18184641003608704 0.49166348576545712
vn -0.76124143600463872 -0.47681096196174624 0.43950292468070984
vn -0.59638106822967528 -0.72510188817977904 0.34432077407836916
vn -0.3731428384780884 -0.90241485834121712 0.21543411910533904
vn -0.11337877064943314 -0.9913931488990784 0.06545926630496979
vn 0.15748360753059388 -0.98332697153091424 -0.09092320501804352
vn 0.41293039917945864 -0.87900584936141968 -0.23840548098087312
vn 0.62795668840408328 -0.68864154815673832 -0.36255094408988952
vn 0.78151416778564448 -0.43086823821067808 -0.45120742917060856
vn 0.85857164859771728 -0.13091853260993958 -0.4956965744495392
vn 0.85158610343933104 0.18184641003608704 -0.49166348576545712
vn 0.76124143600463872 0.47681096196174624 -0.43950292468070984
# 42 vertex normals

g obj_12089800
s 1
f 1//1 2//1 3//1
f 4//2 3//2 5//2
f 6//3 5//3 7//3
f 8//4 7//4 9//4
f 10//5 9//5 11//5
f 12//6 11//6 13//6
f 14//7 13//7 15//7
f 16//8 15//8 17//8
f 18//9 17//9 19//9
f 20//10 19//10 21//10
f 22//11 21//11 23//11
f 24//12 23//12 25//12
f 26//13 25//13 27//13
f 28//14 27//14 29//14
f 30//15 29//15 31//15
f 32//16 31//16 33//16
f 34//17 33//17 35//17
f 36//18 35//18 37//18
f 38//19 37//19 39//19
f 40//20 39//20 2//20
f 2//20 1//20 40//20
f 39//19 40//19 38//19
f 37//18 38//18 36//18
f 35//17 36//17 34//17
f 33//16 34//16 32//16
f 31//15 32//15 30//15
f 29//14 30//14 28//14
f 27//13 28//13 26//13
f 25//12 26//12 24//12
f 23//11 24//11 22//11
f 21//10 22//10 20//10
f 19//9 20//9 18//9
f 17//8 18//8 16//8
f 15//7 16//7 14//7
f 13//6 14//6 12//6
f 11//5 12//5 10//5
f 9//4 10//4 8//4
f 7//3 8//3 6//3
f 5//2 6//2 4//2
f 3//1 4//1 1//1
f 21//21 19//21 41//21
f 19//21 17//21 42//21
f 42//21 41//21 19//21
f 17//21 15//21 43//21
f 43//21 42//21 17//21
f 15//21 13//21 44//21
f 13//21 11//21 45//21
f 11//21 9//21 46//21
f 44//21 43//21 15//21
f 46//21 45//21 11//21
f 9//21 7//21 47//21
f 7//21 5//21 48//21
f 2//21 39//21 49//21
f 39//21 37//21 50//21
f 45//21 44//21 13//21
f 48//21 47//21 7//21
f 5//21 3//21 51//21
f 3//21 2//21 52//21
f 50//21 49//21 39//21
f 37//21 35//21 53//21
f 35//21 33//21 54//21
f 33//21 31//21 55//21
f 47//21 46//21 9//21
f 52//21 51//21 3//21
f 53//21 50//21 37//21
f 55//21 54//21 33//21
f 31//21 29//21 56//21
f 29//21 27//21 57//21
f 51//21 48//21 5//21
f 54//21 53//21 35//21
f 57//21 56//21 29//21
f 27//21 25//21 58//21
f 49//21 52//21 2//21
f 58//21 57//21 27//21
f 25//21 23//21 59//21
f 23//21 21//21 60//21
f 56//21 55//21 31//21
f 60//21 59//21 23//21
f 59//21 58//21 25//21
f 41//21 60//21 21//21
f 12//22 61//22 62//22
f 14//22 63//22 61//22
f 18//22 64//22 65//22
f 20//22 66//22 64//22
f 30//22 67//22 68//22
f 32//22 69//22 67//22
f 34//22 70//22 69//22
f 36//22 71//22 70//22
f 4//22 72//22 73//22
f 6//22 74//22 72//22
f 8//22 75//22 74//22
f 10//22 62//22 75//22
f 61//22 12//22 14//22
f 16//22 65//22 63//22
f 64//22 18//22 20//22
f 22//22 76//22 66//22
f 24//22 77//22 76//22
f 26//22 78//22 77//22
f 28//22 68//22 78//22
f 67//22 30//22 32//22
f 70//22 34//22 36//22
f 38//22 79//22 71//22
f 40//22 80//22 79//22
f 1//22 73//22 80//22
f 72//22 4//22 6//22
f 75//22 8//22 10//22
f 63//22 14//22 16//22
f 66//22 20//22 22//22
f 77//22 24//22 26//22
f 68//22 28//22 30//22
f 71//22 36//22 38//22
f 80//22 40//22 1//22
f 74//22 6//22 8//22
f 65//22 16//22 18//22
f 78//22 26//22 28//22
f 79//22 38//22 40//22
f 62//22 10//22 12//22
f 69//22 32//22 34//22
f 76//22 22//22 24//22
f 73//22 1//22 4//22
f 59//1 60//1 76//1
f 58//2 59//2 77//2
f 57//3 58//3 78//3
f 56//4 57//4 68//4
f 55//5 56//5 67//5
f 54//6 55//6 69//6
f 53//7 54//7 70//7
f 50//8 53//8 71//8
f 49//9 50//9 79//9
f 52//10 49//10 80//10
f 51//11 52//11 73//11
f 48//12 51//12 72//12
f 47//13 48//13 74//13
f 46//14 47//14 75//14
f 45//15 46//15 62//15
f 44//16 45//16 61//16
f 43//17 44//17 63//17
f 42//18 43//18 65//18
f 41//19 42//19 64//19
f 60//20 41//20 66//20
f 66//20 76//20 60//20
f 64//19 66//19 41//19
f 65//18 64//18 42//18
f 63//17 65//17 43//17
f 61//16 63//16 44//16
f 62//15 61//15 45//15
f 75//14 62//14 46//14
f 74//13 75//13 47//13
f 72//12 74//12 48//12
f 73//11 72//11 51//11
f 80//10 73//10 52//10
f 79//9 80//9 49//9
f 71//8 79//8 50//8
f 70//7 71//7 53//7
f 69//6 70//6 54//6
f 67//5 69//5 55//5
f 68//4 67//4 56//4
f 78//3 68//3 57//3
f 77//2 78//2 58//2
f 76//1 77//1 59//1
f 81//23 82//23 83//23
f 84//24 83//24 85//24
f 86//25 85//25 87//25
f 88//26 87//26 89//26
f 90//27 89//27 91//27
f 92//28 91//28 93//28
f 94//29 93//29 95//29
f 96//30 95//30 97//30
f 98//31 97//31 99//31
f 100//32 99//32 101//32
f 102//33 101//33 103//33
f 104//34 103//34 105//34
f 106//35 105//35 107//35
f 108//36 107//36 109//36
f 110//37 109//37 111//37
f 112//38 111//38 113//38
f 114//39 113//39 115//39
f 116//40 115//40 117//40
f 118//41 117//41 119//41
f 120//42 119//42 82//42
f 82//42 81//42 120//42
f 119//41 120//41 118//41
f 117//40 118//40 116//40
f 115//39 116//39 114//39
f 113//38 114//38 112//38
f 111//37 112//37 110//37
f 109//36 110//36 108//36
f 107//35 108//35 106//35
f 105//34 106//34 104//34
f 103//33 104//33 102//33
f 101//32 102//32 100//32
f 99//31 100//31 98//31
f 97//30 98//30 96//30
f 95//29 96//29 94//29
f 93//28 94//28 92//28
f 91//27 92//27 90//27
f 89//26 90//26 88//26
f 87//25 88//25 86//25
f 85//24 86//24 84//24
f 83//23 84//23 81//23
f 101//22 99//22 121//22
f 99//22 97//22 122//22
f 122//22 121//22 99//22
f 97//22 95//22 123//22
f 123//22 122//22 97//22
f 95//22 93//22 124//22
f 93//22 91//22 125//22
f 91//22 89//22 126//22
f 124//22 123//22 95//22
f 126//22 125//22 91//22
f 89//22 87//22 127//22
f 87//22 85//22 128//22
f 82//22 119//22 129//22
f 119//22 117//22 130//22
f 125//22 124//22 93//22
f 128//22 127//22 87//22
f 85//22 83//22 131//22
f 83//22 82//22 132//22
f 130//22 129//22 119//22
f 117//22 115//22 133//22
f 115//22 113//22 134//22
f 113//22 111//22 135//22
f 127//22 126//22 89//22
f 132//22 131//22 83//22
f 133//22 130//22 117//22
f 135//22 134//22 113//22
f 111//22 109//22 136//22
f 109//22 107//22 137//22
f 131//22 128//22 85//22
f 134//22 133//22 115//22
f 137//22 136//22 109//22
f 107//22 105//22 138//22
f 129//22 132//22 82//22
f 138//22 137//22 107//22
f 105//22 103//22 139//22
f 103//22 101//22 140//22
f 136//22 135//22 111//22
f 140//22 139//22 103//22
f 139//22 138//22 105//22
f 121//22 140//22 101//22
f 92//21 141//21 142//21
f 94//21 143//21 141//21
f 98//21 144//21 145//21
f 100//21 146//21 144//21
f 110//21 147//21 148//21
f 112//21 149//21 147//21
f 114//21 150//21 149//21
f 116//21 151//21 150//21
f 84//21 152//21 153//21
f 86//21 154//21 152//21
f 88//21 155//21 154//21
f 90//21 142//21 155//21
f 141//21 92//21 94//21
f 96//21 145//21 143//21
f 144//21 98//21 100//21
f 102//21 156//21 146//21
f 104//21 157//21 156//21
f 106//21 158//21 157//21
f 108//21 148//21 158//21
f 147//21 110//21 112//21
f 150//21 114//21 116//21
f 118//21 159//21 151//21
f 120//21 160//21 159//21
f 81//21 153//21 160//21
f 152//21 84//21 86//21
f 155//21 88//21 90//21
f 143//21 94//21 96//21
f 146//21 100//21 102//21
f 157//21 104//21 106//21
f 148//21 108//21 110//21
f 151//21 116//21 118//21
f 160//21 120//21 81//21
f 154//21 86//21 88//21
f 145//21 96//21 98//21
f 158//21 106//21 108//21
f 159//21 118//21 120//21
f 142//21 90//21 92//21
f 149//21 112//21 114//21
f 156//21 102//21 104//21
f 153//21 81//21 84//21
f 139//23 140//23 156//23
f 138//24 139//24 157//24
f 137//25 138//25 158//25
f 136//26 137//26 148//26
f 135//27 136//27 147//27
f 134//28 135//28 149//28
f 133//29 134//29 150//29
f 130//30 133//30 151//30
f 129//31 130//31 159//31
f 132//32 129//32 160//32
f 131//33 132//33 153//33
f 128//34 131//34 152//34
f 127//35 128//35 154//35
f 126//36 127//36 155//36
f 125//37 126//37 142//37
f 124//38 125//38 141//38
f 123//39 124//39 143//39
f 122//40 123//40 145//40
f 121//41 122//41 144//41
f 140//42 121//42 146//42
f 146//42 156//42 140//42
f 144//41 146//41 121//41
f 145//40 144//40 122//40
f 143//39 145//39 123//39
f 141//38 143//38 124//38
f 142//37 141//37 125//37
f 155//36 142//36 126//36
f 154//35 155//35 127//35
f 152//34 154//34 128//34
f 153//33 152//33 131//33
f 160//32 153//32 132//32
f 159//31 160//31 129//31
f 151//30 159//30 130//30
f 150//29 151//29 133//29
f 149//28 150//28 134//28
f 147//27 149//27 135//27
f 148//26 147//26 136//26
f 158//25 148//25 137//25
f 157//24 158//24 138//24
f 156//23 157//23 139//23
f 161//23 162//23 163//23
f 164//24 163//24 165//24
f 166//25 165//25 167//25
f 168//26 167//26 169//26
f 170//27 169//27 171//27
f 172//28 171//28 173//28
f 174//29 173//29 175//29
f 176//30 175//30 177//30
f 178//31 177//31 179//31
f 180//32 179//32 181//32
f 182//33 181//33 183//33
f 184//34 183//34 185//34
f 186//35 185//35 187//35
f 188//36 187//36 189//36
f 190//37 189//37 191//37
f 192//38 191//38 193//38
f 194//39 193//39 195//39
f 196//40 195//40 197//40
f 198//41 197//41 199//41
f 200//42 199//42 162//42
f 162//42 161//42 200//42
f 199//41 200//41 198//41
f 197//40 198//40 196//40
f 195//39 196//39 194//39
f 193//38 194//38 192//38
f 191//37 192//37 190//37
f 189//36 190//36 188//36
f 187//35 188//35 186//35
f 185//34 186//34 184//34
f 183//33 184//33 182//33
f 181//32 182//32 180//32
f 179//31 180//31 178//31
f 177//30 178//30 176//30
f 175//29 176//29 174//29
f 173//28 174//28 172//28
f 171//27 172//27 170//27
f 169//26 170//26 168//26
f 167//25 168//25 166//25
f 165//24 166//24 164//24
f 163//23 164//23 161//23
f 181//22 179//22 201//22
f 179//22 177//22 202//22
f 202//22 201//22 179//22
f 177//22 175//22 203//22
f 203//22 202//22 177//22
f 175//22 173//22 204//22
f 173//22 171//22 205//22
f 171//22 169//22 206//22
f 204//22 203//22 175//22
f 206//22 205//22 171//22
f 169//22 167//22 207//22
f 167//22 165//22 208//22
f 162//22 199//22 209//22
f 199//22 197//22 210//22
f 205//22 204//22 173//22
f 208//22 207//22 167//22
f 165//22 163//22 211//22
f 163//22 162//22 212//22
f 210//22 209//22 199//22
f 197//22 195//22 213//22
f 195//22 193//22 214//22
f 193//22 191//22 215//22
f 207//22 206//22 169//22
f 212//22 211//22 163//22
f 213//22 210//22 197//22
f 215//22 214//22 193//22
f 191//22 189//22 216//22
f 189//22 187//22 217//22
f 211//22 208//22 165//22
f 214//22 213//22 195//22
f 217//22 216//22 189//22
f 187//22 185//22 218//22
f 209//22 212//22 162//22
f 218//22 217//22 187//22
f 185//22 183//22 219//22
f 183//22 181//22 220//22
f 216//22 215//22 191//22
f 220//22 219//22 183//22
f 219//22 218//22 185//22
f 201//22 220//22 181//22
f 172//21 221//21 222//21
f 174//21 223//21 221//21
f 178//21 224//21 225//21
f 180//21 226//21 224//21
f 190//21 227//21 228//21
f 192//21 229//21 227//21
f 194//21 230//21 229//21
f 196//21 231//21 230//21
f 164//21 232//21 233//21
f 166//21 234//21 232//21
f 168//21 235//21 234//21
f 170//21 222//21 235//21
f 221//21 172//21 174//21
f 176//21 225//21 223//21
f 224//21 178//21 180//21
f 182//21 236//21 226//21
f 184//21 237//21 236//21
f 186//21 238//21 237//21
f 188//21 228//21 238//21
f 227//21 190//21 192//21
f 230//21 194//21 196//21
f 198//21 239//21 231//21
f 200//21 240//21 239//21
f 161//21 233//21 240//21
f 232//21 164//21 166//21
f 235//21 168//21 170//21
f 223//21 174//21 176//21
f 226//21 180//21 182//21
f 237//21 184//21 186//21
f 228//21 188//21 190//21
f 231//21 196//21 198//21
f 240//21 200//21 161//21
f 234//21 166//21 168//21
f 225//21 176//21 178//21
f 238//21 186//21 188//21
f 239//21 198//21 200//21
f 222//21 170//21 172//21
f 229//21 192//21 194//21
f 236//21 182//21 184//21
f 233//21 161//21 164//21
f 219//23 220//23 236//23
f 218//24 219//24 237//24
f 217//25 218//25 238//25
f 216//26 217//26 228//26
f 215//27 216//27 227//27
f 214//28 215//28 229//28
f 213//29 214//29 230//29
f 210//30 213//30 231//30
f 209//31 210//31 239//31
f 212//32 209//32 240//32
f 211//33 212//33 233//33
f 208//34 211//34 232//34
f 207//35 208//35 234//35
f 206//36 207//36 235//36
f 205//37 206//37 222//37
f 204//38 205//38 221//38
f 203//39 204//39 223//39
f 202//40 203//40 225//40
f 201//41 202//41 224//41
f 220//42 201//42 226//42
f 226//42 236//42 220//42
f 224//41 226//41 201//41
f 225//40 224//40 202//40
f 223//39 225//39 203//39
f 221//38 223//38 204//38
f 222//37 221//37 205//37
f 235//36 222//36 206//36
f 234//35 235//35 207//35
f 232//34 234//34 208//34
f 233//33 232//33 211//33
f 240//32 233//32 212//32
f 239//31 240//31 209//31
f 231//30 239//30 210//30
f 230//29 231//29 213//29
f 229//28 230//28 214//28
f 227//27 229//27 215//27
f 228//26 227//26 216//26
f 238//25 228//25 217//25
f 237//24 238//24 218//24
f 236//23 237//23 219//23
#480 polygons

