# Aspose.3D Wavefront OBJ Exporter
# Copyright 2004-2023 Aspose Pty Ltd.
# File created: 06/29/2023 05:33:59


#
# object obj_60526196
#

v -69.30500030517578124 -42.97445678710937504 75.54193115234375
v -68.87319946289062496 -42.97445678710937504 76.28983306884765624
v -69.75648498535156256 -43.94309997558593744 76.7997970581054688
v -70.18828582763671876 -43.94309997558593744 76.0518951416015625
v -70.85575866699218752 -44.54915618896484376 77.43446350097656248
v -71.28755950927734376 -44.54915618896484376 76.68656158447265624
v -72.06342315673828125 -44.73330688476562496 78.13170623779296876
v -72.49522399902343752 -44.73330688476562496 77.38381195068359376
v -73.261260986328125 -44.47751998901367184 78.82328033447265632
v -73.69306182861328128 -44.47751998901367184 78.07537841796875
v -74.33201599121093752 -43.80683898925781248 79.44148254394531248
v -74.76381683349609376 -43.80683898925781248 78.69358062744140624
v -75.1708831787109375 -42.78691482543945312 79.92580413818359376
v -75.60268402099609376 -42.78691482543945312 79.1779022216796875
v -75.69574737548828128 -41.5175819396972656 80.22883605957031248
v -76.1275482177734375 -41.5175819396972656 79.48093414306640624
v -75.855224609375 -40.1230926513671875 80.32090759277343752
v -76.28702545166015624 -40.1230926513671875 79.57300567626953128
v -75.63371276855468752 -38.73994827270507808 80.19301605224609376
v -76.0655059814453125 -38.73994827270507808 79.44511413574218752
v -75.05287933349609375 -37.5035438537597656 79.8576736450195312
v -75.48468017578125 -37.5035438537597656 79.109771728515625
v -74.1696014404296875 -36.53490066528320312 79.34770965576171876
v -74.60140228271484376 -36.53490066528320312 78.59981536865234376
v -73.0703277587890625 -35.9288444519042968 78.71304321289062496
v -73.50212860107421872 -35.9288444519042968 77.96514892578124992
v -71.8626632690429688 -35.74469375610351568 78.01580047607421875
v -72.294464111328125 -35.74469375610351568 77.26789855957031248
v -70.66482543945312496 -36.00048065185546875 77.32422637939453124
v -71.09662628173828124 -36.00048065185546875 76.57633209228515624
v -69.59406280517578128 -36.67115783691406248 76.70602416992187504
v -70.0258636474609375 -36.67115783691406248 75.9581222534179688
v -68.75519561767578128 -37.69108581542968752 76.22170257568359376
v -69.18699645996093752 -37.69108581542968752 75.47380828857421872
v -68.23033905029296876 -38.96041870117187504 75.91867828369140624
v -68.66213989257812496 -38.96041870117187504 75.1707763671875
v -68.07086181640625 -40.35490798950195312 75.82659912109375008
v -68.50266265869140624 -40.35490798950195312 75.078704833984375
v -68.29237365722656248 -41.73805236816406256 75.95449066162109376
v -68.72417449951171872 -41.73805236816406256 75.20659637451171876
v -73.98502349853515632 -39.41324996948242184 79.24114227294921876
v -74.1070404052734375 -40.17515182495117188 79.31159210205078124
v -74.019195556640625 -40.94330215454101568 79.26087188720703124
v -73.73007202148437504 -41.6425132751464844 79.0939483642578125
v -73.26799011230468752 -42.20433425903320312 78.82716369628906256
v -72.67816162109375 -42.57378005981445312 78.48662567138671872
v -72.01833343505859375 -42.71467590332031248 78.10567474365234376
v -71.35309600830078124 -42.61323928833007816 77.72160339355468752
v -69.94106292724609376 -41.06475067138671875 76.9063644409179688
v -69.81904602050781248 -40.30284881591796876 76.83591461181640624
v -70.7475662231445312 -42.27939224243164064 77.37200164794921872
v -70.26100921630859376 -41.74581909179687504 77.09108734130859376
v -69.90689086914062496 -39.53469467163085936 76.88663482666015632
v -70.19600677490234376 -38.83548736572265632 77.053558349609375
v -70.65809631347656248 -38.27366256713867188 77.320343017578125
v -71.2479248046875 -37.90422058105468752 77.66088104248046872
v -71.90774536132812496 -37.76332473754882816 78.04183197021484375
v -72.57299041748046872 -37.86476135253906256 78.4259033203125
v -73.17852020263671876 -38.1986083984375 78.7755126953125
v -73.66506958007812496 -38.7321815490722656 79.05641937255859375
v -73.69978332519531248 -42.20433425903320312 78.07926177978515625
v -73.10996246337890624 -42.57378005981445312 77.73873138427734368
v -74.16187286376953124 -41.6425132751464844 78.34605407714843752
v -74.53884124755859376 -40.17515182495117188 78.56369018554687504
v -74.45099639892578128 -40.94330215454101568 78.51297760009765624
v -74.41681671142578128 -39.41324996948242184 78.49324035644531248
v -71.67972564697265624 -37.90422058105468752 76.91297912597656256
v -72.33954620361328124 -37.76332473754882816 77.29393005371093752
v -71.08989715576171875 -38.27366256713867188 76.57244110107421872
v -70.6278076171875 -38.83548736572265632 76.30565643310546876
v -70.33869171142578124 -39.53469467163085936 76.13873291015625
v -71.1793670654296875 -42.27939224243164064 76.62409973144531248
v -70.69281005859375 -41.74581909179687504 76.34318542480468752
v -71.78489685058593744 -42.61323928833007816 76.97370147705078128
v -72.45013427734375 -42.71467590332031248 77.35778045654296876
v -74.09687042236328124 -38.7321815490722656 78.30852508544921876
v -73.61032104492187504 -38.1986083984375 78.02761077880859375
v -73.00478363037109375 -37.86476135253906256 77.67800903320312496
v -70.25084686279296876 -40.30284881591796876 76.0880126953125
v -70.37286376953125 -41.06475067138671875 76.1584625244140625
v -100.20874786376953124 -43.9351768493652344 21.82049942016601568
v -100.64054870605468752 -43.9351768493652344 21.072601318359375
v -101.52382659912109376 -42.96653747558593744 21.58256340026855472
v -101.0920257568359375 -42.96653747558593744 22.33046340942382812
v -102.62310791015625 -42.3604774475097656 22.21722984313964844
v -102.19130706787109376 -42.3604774475097656 22.96512985229492192
v -103.83076477050781248 -42.17632675170898438 22.91447448730468752
v -103.39897155761718752 -42.17632675170898438 23.66237449645996096
v -105.02860260009765625 -42.43211364746093752 23.60604667663574216
v -104.59680938720703128 -42.43211364746093752 24.35394668579101564
v -106.099365234375 -43.10279464721679688 24.22425079345703124
v -105.66756439208984376 -43.10279464721679688 24.97214889526367184
v -106.938232421875 -44.12271881103515624 24.70857048034667968
v -106.50643157958984376 -44.12271881103515624 25.45647048950195312
v -107.46309661865234376 -45.39205169677734376 25.01159858703613281
v -107.0312957763671875 -45.39205169677734376 25.75949859619140624
v -107.62257385253906248 -46.78654098510742192 25.10367393493652344
v -107.19077301025390624 -46.78654098510742192 25.8515739440917968
v -107.40105438232421872 -48.16968536376953124 24.97578239440917968
v -106.96925354003906256 -48.16968536376953124 25.72368049621582032
v -106.82022857666015632 -49.40609359741210936 24.64044189453125
v -106.388427734375 -49.40609359741210936 25.38833999633789064
v -105.93695068359375008 -50.37473297119140624 24.1304779052734375
v -105.50514984130859376 -50.37473297119140624 24.87837791442871088
v -104.83767700195312496 -50.98078918457031248 23.49581146240234376
v -104.40587615966796872 -50.98078918457031248 24.2437114715576172
v -103.63001251220703128 -51.16493988037109376 22.79856681823730464
v -103.198211669921875 -51.16493988037109376 23.54646682739257816
v -102.43217468261718752 -50.90915679931640624 22.10699462890625
v -102.00037384033203125 -50.90915679931640624 22.85489463806152336
v -101.36141204833984376 -50.23847579956054688 21.48879241943359376
v -100.92961120605468752 -50.23847579956054688 22.2366924285888672
v -100.52254486083984376 -49.21854782104492188 21.0044708251953125
v -100.0907440185546875 -49.21854782104492188 21.75237083435058592
v -99.9976806640625 -47.9492149353027344 20.70144271850585936
v -99.56588745117187504 -47.9492149353027344 21.4493427276611328
v -99.83820343017578128 -46.55472564697265624 20.60936737060546872
v -99.40640258789062496 -46.55472564697265624 21.3572673797607422
v -100.059722900390625 -45.17158126831054688 20.73726081848144528
v -99.62792205810546872 -45.17158126831054688 21.48516082763671872
v -105.75236511230468752 -47.49638366699218752 24.0239105224609375
v -105.8743896484375 -46.73448181152343744 24.0943603515625
v -105.78653717041015632 -45.96633148193359376 24.04364013671875
v -105.49742126464843752 -45.267120361328125 23.876718521118164
v -105.03533172607421875 -44.70529937744140624 23.60993194580078128
v -104.44551086425781248 -44.33585739135742188 23.26939582824707032
v -103.78568267822265632 -44.19495773315429688 22.88844490051269536
v -103.12044525146484376 -44.29639434814453124 22.50436973571777344
v -101.70841217041015624 -45.84488677978515632 21.68913078308105472
v -101.58638763427734376 -46.60678482055664064 21.61868286132812496
v -102.51490783691406248 -44.63024139404296872 22.15476417541503906
v -102.02835845947265625 -45.16381454467773438 21.87385368347167968
v -101.67424011230468752 -47.37493896484375 21.66940116882324216
v -101.96335601806640624 -48.07414627075195312 21.83632469177246096
v -102.42544555664062496 -48.63597106933593752 22.10311126708984376
v -103.01526641845703125 -49.00541305541992187 22.44364738464355472
v -103.67509460449218752 -49.14631271362304688 22.8245964050292968
v -104.34033203125 -49.04487228393554687 23.20867347717285156
v -104.94586944580078128 -48.71102905273437504 23.55827713012695312
v -105.43241882324218752 -48.17745590209960938 23.83918952941894528
v -104.60353088378906248 -44.70529937744140624 24.35783004760742188
v -104.01371002197265625 -44.33585739135742188 24.01729583740234375
v -105.06562042236328125 -45.267120361328125 24.62461662292480472
v -105.44258880615234376 -46.73448181152343744 24.84225845336914064
v -105.354736328125 -45.96633148193359376 24.79154014587402336
v -105.32056427001953124 -47.49638366699218752 24.77181053161621088
v -102.58346557617187504 -49.00541305541992187 23.19154548645019532
v -103.24329376220703124 -49.14631271362304688 23.57249641418457032
v -101.9936447143554688 -48.63597106933593752 22.85101127624511712
v -101.53155517578125 -48.07414627075195312 22.5842247009277344
v -101.24243927001953124 -47.37493896484375 22.4173011779785156
v -102.0831146240234375 -44.63024139404296872 22.90266418457031248
v -101.5965576171875 -45.16381454467773438 22.62175178527832032
v -102.68864440917968752 -44.29639434814453124 23.25226783752441408
v -103.3538818359375 -44.19495773315429688 23.63634490966796872
v -105.00061798095703125 -48.17745590209960938 24.58708763122558592
v -104.51406860351562496 -48.71102905273437504 24.30617713928222656
v -103.90853118896484368 -49.04487228393554687 23.95657157897949216
v -101.1545867919921875 -46.60678482055664064 22.3665828704833984
v -101.276611328125 -45.84488677978515632 22.43703079223632816
v -100.292999267578125 -18.45354270935058592 21.8691444396972656
v -100.72480010986328128 -18.45354270935058592 21.12124443054199218
v -101.60808563232421872 -17.48490142822265624 21.63120651245117184
v -101.1762847900390625 -17.48490142822265624 22.37910652160644528
v -102.70735931396484376 -16.87884330749511712 22.26587295532226564
v -102.27555847167968752 -16.87884330749511712 23.01377296447753906
v -103.91502380371093744 -16.69469451904296872 22.96311950683593744
v -103.48322296142578128 -16.69469451904296872 23.71101760864257816
v -105.11286163330078124 -16.95047950744628912 23.65468978881835936
v -104.68106079101562496 -16.95047950744628912 24.4025897979736328
v -106.18361663818359376 -17.6211585998535156 24.27289390563964844
v -105.75181579589843744 -17.6211585998535156 25.02079391479492187
v -107.02248382568359375 -18.64108467102050784 24.7572135925292968
v -106.59068298339843752 -18.64108467102050784 25.50511360168457032
v -107.54734802246093752 -19.91041755676269536 25.06024360656738281
v -107.11554718017578124 -19.91041755676269536 25.80814170837402336
v -107.70682525634765624 -21.30490875244140624 25.15231704711914062
v -107.2750244140625 -21.30490875244140624 25.90021705627441408
v -107.48530578613281248 -22.6880512237548828 25.02442550659179687
v -107.0535125732421875 -22.6880512237548828 25.77232551574707024
v -106.90447998046875008 -23.92445755004882816 24.6890850067138672
v -106.47268676757812496 -23.92445755004882816 25.43698501586914064
v -106.02120208740234375 -24.89309883117675776 24.1791229248046875
v -105.58940124511718752 -24.89309883117675776 24.92702102661132816
v -104.92192840576171872 -25.49915695190429688 23.54445648193359376
v -104.49012756347656248 -25.49915695190429688 24.29235458374023436
v -103.71426391601562496 -25.68330574035644528 22.84721183776855472
v -103.28246307373046876 -25.68330574035644528 23.59510993957519528
v -102.51642608642578128 -25.42752075195312496 22.1556396484375
v -102.084625244140625 -25.42752075195312496 22.90353775024414064
v -101.44566345214843752 -24.7568416595458984 21.53743553161621096
v -101.01386260986328125 -24.7568416595458984 22.28533554077148436
v -100.60679626464843752 -23.73691558837890624 21.0531158447265625
v -100.17499542236328124 -23.73691558837890624 21.801015853881836
v -100.081939697265625 -22.46758270263671872 20.75008583068847664
v -99.65013885498046872 -22.46758270263671872 21.49798583984375
v -99.92246246337890624 -21.07309150695800781 20.65801239013671872
v -99.49066162109375 -21.07309150695800781 21.40591239929199216
v -100.14397430419921876 -19.68994903564453128 20.78590393066406256
v -99.71217346191406248 -19.68994903564453128 21.53380393981933592
v -105.83661651611328128 -22.01474952697753906 24.07255363464355469
v -105.95864105224609376 -21.25284767150878908 24.14300346374511718
v -105.87079620361328128 -20.48469734191894528 24.09228324890136718
v -105.58167266845703128 -19.78548812866210944 23.92536163330078128
v -105.1195831298828125 -19.223663330078125 23.6585750579833984
v -104.52976226806640624 -18.85422134399414064 23.31803894042968752
v -103.86993408203124992 -18.7133235931396484 22.93708801269531248
v -103.20469665527343752 -18.81476211547851568 22.55301284790039064
v -101.79266357421875008 -20.36325073242187504 21.73777580261230464
v -101.67064666748046872 -21.125152587890625 21.66732597351074216
v -102.59916687011718752 -19.14860725402832032 22.20340919494628908
v -102.11260986328125 -19.68218040466308592 21.9224967956542968
v -101.75849151611328128 -21.8933029174804688 21.71804618835449216
v -102.047607421875 -22.59251213073730472 21.88496780395507808
v -102.50969696044921872 -23.15433692932128906 22.15175437927246094
v -103.09952545166015624 -23.52377891540527344 22.49229049682617184
v -103.75934600830078128 -23.6646766662597656 22.87324142456054688
v -104.42458343505859376 -23.5632381439208984 23.25731658935546876
v -105.030120849609375 -23.22939300537109376 23.60692024230957032
v -105.51667022705078128 -22.69581985473632816 23.88783264160156256
v -104.68778991699218752 -19.223663330078125 24.40647506713867184
v -104.09796142578125 -18.85422134399414064 24.06593894958496094
v -105.149871826171875 -19.78548812866210944 24.67326164245605472
v -105.52684020996093752 -21.25284767150878908 24.89090347290039056
v -105.43899536132812496 -20.48469734191894528 24.84018325805664064
v -105.40482330322265624 -22.01474952697753906 24.82045364379882816
v -102.667724609375 -23.52377891540527344 23.24019050598144532
v -103.327545166015625 -23.6646766662597656 23.62114143371582032
v -102.0778961181640625 -23.15433692932128906 22.8996543884277344
v -101.61580657958984376 -22.59251213073730472 22.6328678131103516
v -101.326690673828125 -21.8933029174804688 22.4659442901611328
v -102.16736602783203124 -19.14860725402832032 22.95130729675292976
v -101.68080902099609376 -19.68218040466308592 22.67039680480957032
v -102.77289581298828128 -18.81476211547851568 23.30091285705566408
v -103.43813323974609376 -18.7133235931396484 23.68498802185058592
v -105.08487701416015625 -22.69581985473632816 24.63573265075683592
v -104.59832000732421872 -23.22939300537109376 24.35482025146484376
v -103.9927902221679688 -23.5632381439208984 24.00521659851074218
v -101.23884582519531248 -21.125152587890625 22.4152259826660156
v -101.36086273193359376 -20.36325073242187504 22.48567581176757816
# 240 vertices

vn 0.59638106822967528 -0.72510188817977904 -0.34432077407836916
vn 0.3731428384780884 -0.90241485834121712 -0.21543411910533904
vn 0.11337877064943314 -0.9913931488990784 -0.06545926630496979
vn -0.15748360753059388 -0.98332697153091424 0.09092320501804352
vn -0.41293039917945864 -0.87900584936141968 0.23840548098087312
vn -0.62795668840408328 -0.68864154815673832 0.36255094408988952
vn -0.78151416778564448 -0.43086823821067808 0.45120742917060856
vn -0.85857164859771728 -0.13091853260993958 0.4956965744495392
vn -0.85158610343933104 0.18184641003608704 0.49166348576545712
vn -0.76124143600463872 0.47681096196174624 0.43950292468070984
vn -0.59638106822967528 0.72510188817977904 0.34432077407836916
vn -0.3731428384780884 0.90241485834121712 0.21543411910533904
vn -0.11337877064943314 0.9913931488990784 0.06545926630496979
vn 0.15748360753059388 0.98332697153091424 -0.09092320501804352
vn 0.41293039917945864 0.87900584936141968 -0.23840548098087312
vn 0.62795668840408328 0.68864154815673832 -0.36255094408988952
vn 0.78151416778564448 0.43086823821067808 -0.45120742917060856
vn 0.85857164859771728 0.13091853260993958 -0.4956965744495392
vn 0.85158610343933104 -0.18184641003608704 -0.49166348576545712
vn 0.76124143600463872 -0.47681096196174624 -0.43950292468070984
vn 0.5 0 0.86602538824081424
vn -0.5 0 -0.86602538824081424
vn 0.59638106822967528 0.72510188817977904 -0.34432077407836916
vn 0.3731428384780884 0.90241485834121712 -0.21543411910533904
vn 0.11337877064943314 0.9913931488990784 -0.06545926630496979
vn -0.15748360753059388 0.98332697153091424 0.09092320501804352
vn -0.41293039917945864 0.87900584936141968 0.23840548098087312
vn -0.62795668840408328 0.68864154815673832 0.36255094408988952
vn -0.78151416778564448 0.43086823821067808 0.45120742917060856
vn -0.85857164859771728 0.13091853260993958 0.4956965744495392
vn -0.85158610343933104 -0.18184641003608704 0.49166348576545712
vn -0.76124143600463872 -0.47681096196174624 0.43950292468070984
vn -0.59638106822967528 -0.72510188817977904 0.34432077407836916
vn -0.3731428384780884 -0.90241485834121712 0.21543411910533904
vn -0.11337877064943314 -0.9913931488990784 0.06545926630496979
vn 0.15748360753059388 -0.98332697153091424 -0.09092320501804352
vn 0.41293039917945864 -0.87900584936141968 -0.23840548098087312
vn 0.62795668840408328 -0.68864154815673832 -0.36255094408988952
vn 0.78151416778564448 -0.43086823821067808 -0.45120742917060856
vn 0.85857164859771728 -0.13091853260993958 -0.4956965744495392
vn 0.85158610343933104 0.18184641003608704 -0.49166348576545712
vn 0.76124143600463872 0.47681096196174624 -0.43950292468070984
# 42 vertex normals

g obj_60526196
s 1
f 1//1 2//1 3//1
f 4//2 3//2 5//2
f 6//3 5//3 7//3
f 8//4 7//4 9//4
f 10//5 9//5 11//5
f 12//6 11//6 13//6
f 14//7 13//7 15//7
f 16//8 15//8 17//8
f 18//9 17//9 19//9
f 20//10 19//10 21//10
f 22//11 21//11 23//11
f 24//12 23//12 25//12
f 26//13 25//13 27//13
f 28//14 27//14 29//14
f 30//15 29//15 31//15
f 32//16 31//16 33//16
f 34//17 33//17 35//17
f 36//18 35//18 37//18
f 38//19 37//19 39//19
f 40//20 39//20 2//20
f 2//20 1//20 40//20
f 39//19 40//19 38//19
f 37//18 38//18 36//18
f 35//17 36//17 34//17
f 33//16 34//16 32//16
f 31//15 32//15 30//15
f 29//14 30//14 28//14
f 27//13 28//13 26//13
f 25//12 26//12 24//12
f 23//11 24//11 22//11
f 21//10 22//10 20//10
f 19//9 20//9 18//9
f 17//8 18//8 16//8
f 15//7 16//7 14//7
f 13//6 14//6 12//6
f 11//5 12//5 10//5
f 9//4 10//4 8//4
f 7//3 8//3 6//3
f 5//2 6//2 4//2
f 3//1 4//1 1//1
f 21//21 19//21 41//21
f 19//21 17//21 42//21
f 42//21 41//21 19//21
f 17//21 15//21 43//21
f 43//21 42//21 17//21
f 15//21 13//21 44//21
f 13//21 11//21 45//21
f 11//21 9//21 46//21
f 44//21 43//21 15//21
f 46//21 45//21 11//21
f 9//21 7//21 47//21
f 7//21 5//21 48//21
f 2//21 39//21 49//21
f 39//21 37//21 50//21
f 45//21 44//21 13//21
f 48//21 47//21 7//21
f 5//21 3//21 51//21
f 3//21 2//21 52//21
f 50//21 49//21 39//21
f 37//21 35//21 53//21
f 35//21 33//21 54//21
f 33//21 31//21 55//21
f 47//21 46//21 9//21
f 52//21 51//21 3//21
f 53//21 50//21 37//21
f 55//21 54//21 33//21
f 31//21 29//21 56//21
f 29//21 27//21 57//21
f 51//21 48//21 5//21
f 54//21 53//21 35//21
f 57//21 56//21 29//21
f 27//21 25//21 58//21
f 49//21 52//21 2//21
f 58//21 57//21 27//21
f 25//21 23//21 59//21
f 23//21 21//21 60//21
f 56//21 55//21 31//21
f 60//21 59//21 23//21
f 59//21 58//21 25//21
f 41//21 60//21 21//21
f 12//22 61//22 62//22
f 14//22 63//22 61//22
f 18//22 64//22 65//22
f 20//22 66//22 64//22
f 30//22 67//22 68//22
f 32//22 69//22 67//22
f 34//22 70//22 69//22
f 36//22 71//22 70//22
f 4//22 72//22 73//22
f 6//22 74//22 72//22
f 8//22 75//22 74//22
f 10//22 62//22 75//22
f 61//22 12//22 14//22
f 16//22 65//22 63//22
f 64//22 18//22 20//22
f 22//22 76//22 66//22
f 24//22 77//22 76//22
f 26//22 78//22 77//22
f 28//22 68//22 78//22
f 67//22 30//22 32//22
f 70//22 34//22 36//22
f 38//22 79//22 71//22
f 40//22 80//22 79//22
f 1//22 73//22 80//22
f 72//22 4//22 6//22
f 75//22 8//22 10//22
f 63//22 14//22 16//22
f 66//22 20//22 22//22
f 77//22 24//22 26//22
f 68//22 28//22 30//22
f 71//22 36//22 38//22
f 80//22 40//22 1//22
f 74//22 6//22 8//22
f 65//22 16//22 18//22
f 78//22 26//22 28//22
f 79//22 38//22 40//22
f 62//22 10//22 12//22
f 69//22 32//22 34//22
f 76//22 22//22 24//22
f 73//22 1//22 4//22
f 59//1 60//1 76//1
f 58//2 59//2 77//2
f 57//3 58//3 78//3
f 56//4 57//4 68//4
f 55//5 56//5 67//5
f 54//6 55//6 69//6
f 53//7 54//7 70//7
f 50//8 53//8 71//8
f 49//9 50//9 79//9
f 52//10 49//10 80//10
f 51//11 52//11 73//11
f 48//12 51//12 72//12
f 47//13 48//13 74//13
f 46//14 47//14 75//14
f 45//15 46//15 62//15
f 44//16 45//16 61//16
f 43//17 44//17 63//17
f 42//18 43//18 65//18
f 41//19 42//19 64//19
f 60//20 41//20 66//20
f 66//20 76//20 60//20
f 64//19 66//19 41//19
f 65//18 64//18 42//18
f 63//17 65//17 43//17
f 61//16 63//16 44//16
f 62//15 61//15 45//15
f 75//14 62//14 46//14
f 74//13 75//13 47//13
f 72//12 74//12 48//12
f 73//11 72//11 51//11
f 80//10 73//10 52//10
f 79//9 80//9 49//9
f 71//8 79//8 50//8
f 70//7 71//7 53//7
f 69//6 70//6 54//6
f 67//5 69//5 55//5
f 68//4 67//4 56//4
f 78//3 68//3 57//3
f 77//2 78//2 58//2
f 76//1 77//1 59//1
f 81//23 82//23 83//23
f 84//24 83//24 85//24
f 86//25 85//25 87//25
f 88//26 87//26 89//26
f 90//27 89//27 91//27
f 92//28 91//28 93//28
f 94//29 93//29 95//29
f 96//30 95//30 97//30
f 98//31 97//31 99//31
f 100//32 99//32 101//32
f 102//33 101//33 103//33
f 104//34 103//34 105//34
f 106//35 105//35 107//35
f 108//36 107//36 109//36
f 110//37 109//37 111//37
f 112//38 111//38 113//38
f 114//39 113//39 115//39
f 116//40 115//40 117//40
f 118//41 117//41 119//41
f 120//42 119//42 82//42
f 82//42 81//42 120//42
f 119//41 120//41 118//41
f 117//40 118//40 116//40
f 115//39 116//39 114//39
f 113//38 114//38 112//38
f 111//37 112//37 110//37
f 109//36 110//36 108//36
f 107//35 108//35 106//35
f 105//34 106//34 104//34
f 103//33 104//33 102//33
f 101//32 102//32 100//32
f 99//31 100//31 98//31
f 97//30 98//30 96//30
f 95//29 96//29 94//29
f 93//28 94//28 92//28
f 91//27 92//27 90//27
f 89//26 90//26 88//26
f 87//25 88//25 86//25
f 85//24 86//24 84//24
f 83//23 84//23 81//23
f 101//22 99//22 121//22
f 99//22 97//22 122//22
f 122//22 121//22 99//22
f 97//22 95//22 123//22
f 123//22 122//22 97//22
f 95//22 93//22 124//22
f 93//22 91//22 125//22
f 91//22 89//22 126//22
f 124//22 123//22 95//22
f 126//22 125//22 91//22
f 89//22 87//22 127//22
f 87//22 85//22 128//22
f 82//22 119//22 129//22
f 119//22 117//22 130//22
f 125//22 124//22 93//22
f 128//22 127//22 87//22
f 85//22 83//22 131//22
f 83//22 82//22 132//22
f 130//22 129//22 119//22
f 117//22 115//22 133//22
f 115//22 113//22 134//22
f 113//22 111//22 135//22
f 127//22 126//22 89//22
f 132//22 131//22 83//22
f 133//22 130//22 117//22
f 135//22 134//22 113//22
f 111//22 109//22 136//22
f 109//22 107//22 137//22
f 131//22 128//22 85//22
f 134//22 133//22 115//22
f 137//22 136//22 109//22
f 107//22 105//22 138//22
f 129//22 132//22 82//22
f 138//22 137//22 107//22
f 105//22 103//22 139//22
f 103//22 101//22 140//22
f 136//22 135//22 111//22
f 140//22 139//22 103//22
f 139//22 138//22 105//22
f 121//22 140//22 101//22
f 92//21 141//21 142//21
f 94//21 143//21 141//21
f 98//21 144//21 145//21
f 100//21 146//21 144//21
f 110//21 147//21 148//21
f 112//21 149//21 147//21
f 114//21 150//21 149//21
f 116//21 151//21 150//21
f 84//21 152//21 153//21
f 86//21 154//21 152//21
f 88//21 155//21 154//21
f 90//21 142//21 155//21
f 141//21 92//21 94//21
f 96//21 145//21 143//21
f 144//21 98//21 100//21
f 102//21 156//21 146//21
f 104//21 157//21 156//21
f 106//21 158//21 157//21
f 108//21 148//21 158//21
f 147//21 110//21 112//21
f 150//21 114//21 116//21
f 118//21 159//21 151//21
f 120//21 160//21 159//21
f 81//21 153//21 160//21
f 152//21 84//21 86//21
f 155//21 88//21 90//21
f 143//21 94//21 96//21
f 146//21 100//21 102//21
f 157//21 104//21 106//21
f 148//21 108//21 110//21
f 151//21 116//21 118//21
f 160//21 120//21 81//21
f 154//21 86//21 88//21
f 145//21 96//21 98//21
f 158//21 106//21 108//21
f 159//21 118//21 120//21
f 142//21 90//21 92//21
f 149//21 112//21 114//21
f 156//21 102//21 104//21
f 153//21 81//21 84//21
f 139//23 140//23 156//23
f 138//24 139//24 157//24
f 137//25 138//25 158//25
f 136//26 137//26 148//26
f 135//27 136//27 147//27
f 134//28 135//28 149//28
f 133//29 134//29 150//29
f 130//30 133//30 151//30
f 129//31 130//31 159//31
f 132//32 129//32 160//32
f 131//33 132//33 153//33
f 128//34 131//34 152//34
f 127//35 128//35 154//35
f 126//36 127//36 155//36
f 125//37 126//37 142//37
f 124//38 125//38 141//38
f 123//39 124//39 143//39
f 122//40 123//40 145//40
f 121//41 122//41 144//41
f 140//42 121//42 146//42
f 146//42 156//42 140//42
f 144//41 146//41 121//41
f 145//40 144//40 122//40
f 143//39 145//39 123//39
f 141//38 143//38 124//38
f 142//37 141//37 125//37
f 155//36 142//36 126//36
f 154//35 155//35 127//35
f 152//34 154//34 128//34
f 153//33 152//33 131//33
f 160//32 153//32 132//32
f 159//31 160//31 129//31
f 151//30 159//30 130//30
f 150//29 151//29 133//29
f 149//28 150//28 134//28
f 147//27 149//27 135//27
f 148//26 147//26 136//26
f 158//25 148//25 137//25
f 157//24 158//24 138//24
f 156//23 157//23 139//23
f 161//23 162//23 163//23
f 164//24 163//24 165//24
f 166//25 165//25 167//25
f 168//26 167//26 169//26
f 170//27 169//27 171//27
f 172//28 171//28 173//28
f 174//29 173//29 175//29
f 176//30 175//30 177//30
f 178//31 177//31 179//31
f 180//32 179//32 181//32
f 182//33 181//33 183//33
f 184//34 183//34 185//34
f 186//35 185//35 187//35
f 188//36 187//36 189//36
f 190//37 189//37 191//37
f 192//38 191//38 193//38
f 194//39 193//39 195//39
f 196//40 195//40 197//40
f 198//41 197//41 199//41
f 200//42 199//42 162//42
f 162//42 161//42 200//42
f 199//41 200//41 198//41
f 197//40 198//40 196//40
f 195//39 196//39 194//39
f 193//38 194//38 192//38
f 191//37 192//37 190//37
f 189//36 190//36 188//36
f 187//35 188//35 186//35
f 185//34 186//34 184//34
f 183//33 184//33 182//33
f 181//32 182//32 180//32
f 179//31 180//31 178//31
f 177//30 178//30 176//30
f 175//29 176//29 174//29
f 173//28 174//28 172//28
f 171//27 172//27 170//27
f 169//26 170//26 168//26
f 167//25 168//25 166//25
f 165//24 166//24 164//24
f 163//23 164//23 161//23
f 181//22 179//22 201//22
f 179//22 177//22 202//22
f 202//22 201//22 179//22
f 177//22 175//22 203//22
f 203//22 202//22 177//22
f 175//22 173//22 204//22
f 173//22 171//22 205//22
f 171//22 169//22 206//22
f 204//22 203//22 175//22
f 206//22 205//22 171//22
f 169//22 167//22 207//22
f 167//22 165//22 208//22
f 162//22 199//22 209//22
f 199//22 197//22 210//22
f 205//22 204//22 173//22
f 208//22 207//22 167//22
f 165//22 163//22 211//22
f 163//22 162//22 212//22
f 210//22 209//22 199//22
f 197//22 195//22 213//22
f 195//22 193//22 214//22
f 193//22 191//22 215//22
f 207//22 206//22 169//22
f 212//22 211//22 163//22
f 213//22 210//22 197//22
f 215//22 214//22 193//22
f 191//22 189//22 216//22
f 189//22 187//22 217//22
f 211//22 208//22 165//22
f 214//22 213//22 195//22
f 217//22 216//22 189//22
f 187//22 185//22 218//22
f 209//22 212//22 162//22
f 218//22 217//22 187//22
f 185//22 183//22 219//22
f 183//22 181//22 220//22
f 216//22 215//22 191//22
f 220//22 219//22 183//22
f 219//22 218//22 185//22
f 201//22 220//22 181//22
f 172//21 221//21 222//21
f 174//21 223//21 221//21
f 178//21 224//21 225//21
f 180//21 226//21 224//21
f 190//21 227//21 228//21
f 192//21 229//21 227//21
f 194//21 230//21 229//21
f 196//21 231//21 230//21
f 164//21 232//21 233//21
f 166//21 234//21 232//21
f 168//21 235//21 234//21
f 170//21 222//21 235//21
f 221//21 172//21 174//21
f 176//21 225//21 223//21
f 224//21 178//21 180//21
f 182//21 236//21 226//21
f 184//21 237//21 236//21
f 186//21 238//21 237//21
f 188//21 228//21 238//21
f 227//21 190//21 192//21
f 230//21 194//21 196//21
f 198//21 239//21 231//21
f 200//21 240//21 239//21
f 161//21 233//21 240//21
f 232//21 164//21 166//21
f 235//21 168//21 170//21
f 223//21 174//21 176//21
f 226//21 180//21 182//21
f 237//21 184//21 186//21
f 228//21 188//21 190//21
f 231//21 196//21 198//21
f 240//21 200//21 161//21
f 234//21 166//21 168//21
f 225//21 176//21 178//21
f 238//21 186//21 188//21
f 239//21 198//21 200//21
f 222//21 170//21 172//21
f 229//21 192//21 194//21
f 236//21 182//21 184//21
f 233//21 161//21 164//21
f 219//23 220//23 236//23
f 218//24 219//24 237//24
f 217//25 218//25 238//25
f 216//26 217//26 228//26
f 215//27 216//27 227//27
f 214//28 215//28 229//28
f 213//29 214//29 230//29
f 210//30 213//30 231//30
f 209//31 210//31 239//31
f 212//32 209//32 240//32
f 211//33 212//33 233//33
f 208//34 211//34 232//34
f 207//35 208//35 234//35
f 206//36 207//36 235//36
f 205//37 206//37 222//37
f 204//38 205//38 221//38
f 203//39 204//39 223//39
f 202//40 203//40 225//40
f 201//41 202//41 224//41
f 220//42 201//42 226//42
f 226//42 236//42 220//42
f 224//41 226//41 201//41
f 225//40 224//40 202//40
f 223//39 225//39 203//39
f 221//38 223//38 204//38
f 222//37 221//37 205//37
f 235//36 222//36 206//36
f 234//35 235//35 207//35
f 232//34 234//34 208//34
f 233//33 232//33 211//33
f 240//32 233//32 212//32
f 239//31 240//31 209//31
f 231//30 239//30 210//30
f 230//29 231//29 213//29
f 229//28 230//28 214//28
f 227//27 229//27 215//27
f 228//26 227//26 216//26
f 238//25 228//25 217//25
f 237//24 238//24 218//24
f 236//23 237//23 219//23
#480 polygons

