# Aspose.3D Wavefront OBJ Exporter
# Copyright 2004-2023 Aspose Pty Ltd.
# File created: 06/29/2023 04:14:48


#
# object obj_34672322
#

v -21.2553424835205078 284.39511108398437504 -32.53406524658203128
v -16.11516189575195312 309.033111572265625 -24.66635131835937504
v -12.89657592773437504 309.033111572265625 -26.49161338806152344
v -17.01013946533203125 284.39511108398437504 -34.9415245056152344
v -9.47460269927978512 309.033111572265625 -27.89908981323242192
v -12.49667453765869144 284.39511108398437504 -36.79793548583984368
v -5.9032096862792968 309.033111572265625 -28.8665790557861328
v -7.78612995147705072 284.39511108398437504 -38.07402420043945312
v -2.23871922492980956 309.033111572265625 -29.37882614135742184
v -2.95279335975646976 284.39511108398437504 -38.74966049194335936
v 1.461077094078064 309.033111572265625 -29.42775154113769528
v 1.92711019515991216 284.39511108398437504 -38.81418991088867184
v 5.1378312110900879 309.033111572265625 -29.01258277893066406
v 6.77662229537963872 284.39511108398437504 -38.26659774780273436
v 8.73355865478515632 309.033111572265625 -28.13986968994140624
v 11.51926326751708984 284.39511108398437504 -37.11551666259765624
v 12.19155311584472656 309.033111572265625 -26.823373794555664
v 16.08023834228515625 284.39511108398437504 -35.37910461425781248
v 15.4572792053222656 309.033111572265625 -25.08385658264160156
v 20.38761711120605472 284.39511108398437504 -33.08473968505859375
v 18.47923469543457032 309.033111572265625 -22.94875144958496096
v 24.3734722137451172 284.39511108398437504 -30.26861190795898436
v 21.20976066589355468 309.033111572265625 -20.45173072814941408
v 27.97494316101074224 284.39511108398437504 -26.97512817382812496
v 23.60579681396484376 309.033111572265625 -17.63217544555664064
v 31.13523292541503906 284.39511108398437504 -23.25623130798339844
v 25.62955665588378904 309.033111572265625 -14.5345497131347656
v 33.80450057983398432 284.39511108398437504 -19.17057037353515624
v 27.24912261962890624 309.033111572265625 -11.2077054977416992
v 35.94065093994140624 284.39511108398437504 -14.78257656097412112
v 28.43895149230957032 309.033111572265625 -7.70410823822021488
v 37.50999832153320312 284.39511108398437504 -10.1614532470703125
v 29.18028259277343752 309.033111572265625 -4.07901334762573242
v 38.4877891540527344 284.39511108398437504 -5.38007783889770504
v 29.4614238739013672 309.033111572265625 -0.38958984613418576
v 38.85860443115234368 284.39511108398437504 -0.51385557651519776
v 29.27794075012207032 309.033111572265625 3.30597782135009764
v 38.61659240722656248 284.39511108398437504 4.3604707717895508
v 28.63272666931152344 309.033111572265625 6.94940805435180672
v 37.76557922363281248 284.39511108398437504 9.1660299301147461
v 27.53595733642578128 309.033111572265625 10.48324203491210936
v 36.31897735595703124 284.39511108398437504 13.82703495025634768
v 26.0049285888671875 309.033111572265625 13.85174942016601568
v 34.29960632324218752 284.39511108398437504 18.26997947692871092
v 24.06378746032714844 309.033111572265625 17.00180625915527343
v 31.73930740356445312 284.39511108398437504 22.42479515075683592
v 21.74314689636230464 309.033111572265625 19.88373374938964848
v 28.6784610748291016 284.39511108398437504 26.22595977783203124
v 19.07960319519042969 309.033111572265625 22.4520835876464844
v 25.16533851623535156 284.39511108398437504 29.6135234832763672
v 16.11516189575195312 309.033111572265625 24.66635131835937504
v 21.2553424835205078 284.39511108398437504 32.53406524658203128
v 12.89657592773437504 309.033111572265625 26.49161338806152344
v 17.01013946533203125 284.39511108398437504 34.9415245056152344
v 9.47460269927978512 309.033111572265625 27.89908981323242192
v 12.49667453765869144 284.39511108398437504 36.79793548583984368
v 5.9032096862792968 309.033111572265625 28.8665790557861328
v 7.78612995147705072 284.39511108398437504 38.07402420043945312
v 2.23871922492980956 309.033111572265625 29.37882614135742184
v 2.95279335975646976 284.39511108398437504 38.74966049194335936
v -1.461077094078064 309.033111572265625 29.42775154113769528
v -1.92711019515991216 284.39511108398437504 38.81418991088867184
v -5.1378312110900879 309.033111572265625 29.01258277893066406
v -6.77662229537963872 284.39511108398437504 38.26659774780273436
v -8.73355865478515632 309.033111572265625 28.13986968994140624
v -11.51926326751708984 284.39511108398437504 37.11551666259765624
v -12.19155311584472656 309.033111572265625 26.823373794555664
v -16.08023834228515625 284.39511108398437504 35.37910461425781248
v -15.4572792053222656 309.033111572265625 25.08385658264160156
v -20.38761711120605472 284.39511108398437504 33.08473968505859375
v -18.47923469543457032 309.033111572265625 22.94875144958496096
v -24.3734722137451172 284.39511108398437504 30.26861190795898436
v -21.20976066589355468 309.033111572265625 20.45173072814941408
v -27.97494316101074224 284.39511108398437504 26.97512817382812496
v -23.60579681396484376 309.033111572265625 17.63217544555664064
v -31.13523292541503906 284.39511108398437504 23.25623130798339844
v -25.62955665588378904 309.033111572265625 14.5345497131347656
v -33.80450057983398432 284.39511108398437504 19.17057037353515624
v -27.24912261962890624 309.033111572265625 11.2077054977416992
v -35.94065093994140624 284.39511108398437504 14.78257656097412112
v -28.43895149230957032 309.033111572265625 7.70410823822021488
v -37.50999832153320312 284.39511108398437504 10.1614532470703125
v -29.18028259277343752 309.033111572265625 4.07901334762573242
v -38.4877891540527344 284.39511108398437504 5.38007783889770504
v -29.4614238739013672 309.033111572265625 0.38958984613418576
v -38.85860443115234368 284.39511108398437504 0.51385557651519776
v -29.27794075012207032 309.033111572265625 -3.30597782135009764
v -38.61659240722656248 284.39511108398437504 -4.3604707717895508
v -28.63272666931152344 309.033111572265625 -6.94940805435180672
v -37.76557922363281248 284.39511108398437504 -9.1660299301147461
v -27.53595733642578128 309.033111572265625 -10.48324203491210936
v -36.31897735595703124 284.39511108398437504 -13.82703495025634768
v -26.0049285888671875 309.033111572265625 -13.85174942016601568
v -34.29960632324218752 284.39511108398437504 -18.26997947692871092
v -24.06378746032714844 309.033111572265625 -17.00180625915527343
v -31.73930740356445312 284.39511108398437504 -22.42479515075683592
v -21.74314689636230464 309.033111572265625 -19.88373374938964848
v -28.6784610748291016 284.39511108398437504 -26.22595977783203124
v -19.07960319519042969 309.033111572265625 -22.4520835876464844
v -25.16533851623535156 284.39511108398437504 -29.6135234832763672
v 7.74136114120483392 309.033111572265625 18.09890937805175782
v 4.48090982437133792 309.033111572265625 19.16822052001953124
v 1.08430814743041992 309.033111572265625 19.65511322021484376
v 18.84062004089355472 309.033111572265625 5.70352840423583984
v 17.56398200988769528 309.033111572265625 8.88851833343505856
v -5.70352840423583984 309.033111572265625 18.84062004089355472
v -2.34523963928222656 309.033111572265625 19.5447959899902344
v 15.75367069244384768 309.033111572265625 11.80343532562255856
v 19.5447959899902344 309.033111572265625 2.34523963928222656
v 19.16822052001953124 309.033111572265625 -4.48090982437133792
v 10.7665958404541016 309.033111572265625 16.4796733856201172
v 13.46469211578369144 309.033111572265625 14.359710693359375
v 19.65511322021484376 309.033111572265625 -1.08430814743041992
v 18.09890937805175782 309.033111572265625 -7.74136114120483392
v 14.359710693359375 309.033111572265625 -13.46469211578369144
v 16.4796733856201172 309.033111572265625 -10.7665958404541016
v -15.75367069244384768 309.033111572265625 -11.80343532562255856
v -18.84062004089355472 309.033111572265625 -5.70352840423583984
v -17.56398200988769528 309.033111572265625 -8.88851833343505856
v 11.80343532562255856 309.033111572265625 -15.75367069244384768
v 8.88851833343505856 309.033111572265625 -17.56398200988769528
v -1.08430814743041992 309.033111572265625 -19.65511322021484376
v -7.74136114120483392 309.033111572265625 -18.09890937805175782
v -4.48090982437133792 309.033111572265625 -19.16822052001953124
v -10.7665958404541016 309.033111572265625 -16.4796733856201172
v -13.46469211578369144 309.033111572265625 -14.359710693359375
v -19.5447959899902344 309.033111572265625 -2.34523963928222656
v -8.88851833343505856 309.033111572265625 17.56398200988769528
v -11.80343532562255856 309.033111572265625 15.75367069244384768
v 5.70352840423583984 309.033111572265625 -18.84062004089355472
v 2.34523963928222656 309.033111572265625 -19.5447959899902344
v -19.65511322021484376 309.033111572265625 1.08430814743041992
v -19.16822052001953124 309.033111572265625 4.48090982437133792
v -14.359710693359375 309.033111572265625 13.46469211578369144
v -18.09890937805175782 309.033111572265625 7.74136114120483392
v -16.4796733856201172 309.033111572265625 10.7665958404541016
v -10.7665958404541016 303.44509887695312496 -16.4796733856201172
v -7.74136114120483392 303.44509887695312496 -18.09890937805175782
v -4.48090982437133792 303.44509887695312496 -19.16822052001953124
v -1.08430814743041992 303.44509887695312496 -19.65511322021484376
v 2.34523963928222656 303.44509887695312496 -19.5447959899902344
v 5.70352840423583984 303.44509887695312496 -18.84062004089355472
v 8.88851833343505856 303.44509887695312496 -17.56398200988769528
v 11.80343532562255856 303.44509887695312496 -15.75367069244384768
v 14.359710693359375 303.44509887695312496 -13.46469211578369144
v 16.4796733856201172 303.44509887695312496 -10.7665958404541016
v 18.09890937805175782 303.44509887695312496 -7.74136114120483392
v 19.16822052001953124 303.44509887695312496 -4.48090982437133792
v 19.65511322021484376 303.44509887695312496 -1.08430814743041992
v 19.5447959899902344 303.44509887695312496 2.34523963928222656
v 18.84062004089355472 303.44509887695312496 5.70352840423583984
v 17.56398200988769528 303.44509887695312496 8.88851833343505856
v 15.75367069244384768 303.44509887695312496 11.80343532562255856
v 13.46469211578369144 303.44509887695312496 14.359710693359375
v 10.7665958404541016 303.44509887695312496 16.4796733856201172
v 7.74136114120483392 303.44509887695312496 18.09890937805175782
v 4.48090982437133792 303.44509887695312496 19.16822052001953124
v 1.08430814743041992 303.44509887695312496 19.65511322021484376
v -2.34523963928222656 303.44509887695312496 19.5447959899902344
v -5.70352840423583984 303.44509887695312496 18.84062004089355472
v -8.88851833343505856 303.44509887695312496 17.56398200988769528
v -11.80343532562255856 303.44509887695312496 15.75367069244384768
v -14.359710693359375 303.44509887695312496 13.46469211578369144
v -16.4796733856201172 303.44509887695312496 10.7665958404541016
v -18.09890937805175782 303.44509887695312496 7.74136114120483392
v -19.16822052001953124 303.44509887695312496 4.48090982437133792
v -19.65511322021484376 303.44509887695312496 1.08430814743041992
v -19.5447959899902344 303.44509887695312496 -2.34523963928222656
v -18.84062004089355472 303.44509887695312496 -5.70352840423583984
v -17.56398200988769528 303.44509887695312496 -8.88851833343505856
v -15.75367069244384768 303.44509887695312496 -11.80343532562255856
v -13.46469211578369144 303.44509887695312496 -14.359710693359375
v 12.76248836517333984 284.39511108398437504 27.39945220947265624
v 16.53193283081054688 284.39511108398437504 25.30427360534667968
v 8.73323631286621088 284.39511108398437504 28.93685722351074224
v 0.22702446579933168 284.39511108398437504 30.22514724731445312
v 4.52620077133178712 284.39511108398437504 29.88519096374511712
v -4.07677316665649414 284.39511108398437504 29.94980812072753904
v -8.2975797653198242 284.39511108398437504 29.06477737426757812
v -12.34947109222412108 284.39511108398437504 27.5880699157714844
v -16.14996337890625 284.39511108398437504 25.54975128173828128
v -12.76248836517333984 284.39511108398437504 -27.39945220947265624
v -16.53193283081054688 284.39511108398437504 -25.30427360534667968
v -8.73323631286621088 284.39511108398437504 -28.93685722351074224
v -19.62168884277343752 284.39511108398437504 22.99131202697753904
v -22.6939735412597656 284.39511108398437504 19.9648361206054688
v -25.54975128173828128 284.39511108398437504 -16.14996337890625
v 29.94980812072753904 284.39511108398437504 4.07677316665649414
v 30.22514724731445312 284.39511108398437504 -0.22702446579933168
v 29.06477737426757812 284.39511108398437504 8.2975797653198242
v -27.5880699157714844 284.39511108398437504 -12.34947109222412108
v -29.06477737426757812 284.39511108398437504 -8.2975797653198242
v -22.99131202697753904 284.39511108398437504 -19.62168884277343752
v -19.9648361206054688 284.39511108398437504 -22.6939735412597656
v -4.52620077133178712 284.39511108398437504 -29.88519096374511712
v -0.22702446579933168 284.39511108398437504 -30.22514724731445312
v 29.88519096374511712 284.39511108398437504 -4.52620077133178712
v 27.5880699157714844 284.39511108398437504 12.34947109222412108
v 25.54975128173828128 284.39511108398437504 16.14996337890625
v 22.99131202697753904 284.39511108398437504 19.62168884277343752
v 19.9648361206054688 284.39511108398437504 22.6939735412597656
v -27.39945220947265624 284.39511108398437504 12.76248836517333984
v -29.94980812072753904 284.39511108398437504 -4.07677316665649414
v -30.22514724731445312 284.39511108398437504 0.22702446579933168
v -25.30427360534667968 284.39511108398437504 16.53193283081054688
v -28.93685722351074224 284.39511108398437504 8.73323631286621088
v 4.07677316665649414 284.39511108398437504 -29.94980812072753904
v 8.2975797653198242 284.39511108398437504 -29.06477737426757812
v 12.34947109222412108 284.39511108398437504 -27.5880699157714844
v 25.30427360534667968 284.39511108398437504 -16.53193283081054688
v 22.6939735412597656 284.39511108398437504 -19.9648361206054688
v 27.39945220947265624 284.39511108398437504 -12.76248836517333984
v 28.93685722351074224 284.39511108398437504 -8.73323631286621088
v -29.88519096374511712 284.39511108398437504 4.52620077133178712
v 16.14996337890625 284.39511108398437504 -25.54975128173828128
v 19.62168884277343752 284.39511108398437504 -22.99131202697753904
v 29.88519096374511712 303.44509887695312496 -4.52620077133178712
v 30.22514724731445312 303.44509887695312496 -0.22702446579933168
v 28.93685722351074224 303.44509887695312496 -8.73323631286621088
v 29.94980812072753904 303.44509887695312496 4.07677316665649414
v 29.06477737426757812 303.44509887695312496 8.2975797653198242
v 27.5880699157714844 303.44509887695312496 12.34947109222412108
v 25.54975128173828128 303.44509887695312496 16.14996337890625
v -16.14996337890625 303.44509887695312496 25.54975128173828128
v -25.54975128173828128 303.44509887695312496 -16.14996337890625
v 22.99131202697753904 303.44509887695312496 19.62168884277343752
v 19.9648361206054688 303.44509887695312496 22.6939735412597656
v 16.53193283081054688 303.44509887695312496 25.30427360534667968
v 4.52620077133178712 303.44509887695312496 29.88519096374511712
v 0.22702446579933168 303.44509887695312496 30.22514724731445312
v -12.34947109222412108 303.44509887695312496 27.5880699157714844
v -19.62168884277343752 303.44509887695312496 22.99131202697753904
v -22.6939735412597656 303.44509887695312496 19.9648361206054688
v -27.5880699157714844 303.44509887695312496 -12.34947109222412108
v -22.99131202697753904 303.44509887695312496 -19.62168884277343752
v -19.9648361206054688 303.44509887695312496 -22.6939735412597656
v -4.52620077133178712 303.44509887695312496 -29.88519096374511712
v -0.22702446579933168 303.44509887695312496 -30.22514724731445312
v 8.73323631286621088 303.44509887695312496 28.93685722351074224
v -25.30427360534667968 303.44509887695312496 16.53193283081054688
v -29.88519096374511712 303.44509887695312496 4.52620077133178712
v -30.22514724731445312 303.44509887695312496 0.22702446579933168
v -29.94980812072753904 303.44509887695312496 -4.07677316665649414
v -29.06477737426757812 303.44509887695312496 -8.2975797653198242
v -16.53193283081054688 303.44509887695312496 -25.30427360534667968
v -8.73323631286621088 303.44509887695312496 -28.93685722351074224
v 4.07677316665649414 303.44509887695312496 -29.94980812072753904
v 8.2975797653198242 303.44509887695312496 -29.06477737426757812
v 16.14996337890625 303.44509887695312496 -25.54975128173828128
v 12.76248836517333984 303.44509887695312496 27.39945220947265624
v -4.07677316665649414 303.44509887695312496 29.94980812072753904
v -27.39945220947265624 303.44509887695312496 12.76248836517333984
v -28.93685722351074224 303.44509887695312496 8.73323631286621088
v -12.76248836517333984 303.44509887695312496 -27.39945220947265624
v 12.34947109222412108 303.44509887695312496 -27.5880699157714844
v -8.2975797653198242 303.44509887695312496 29.06477737426757812
v 19.62168884277343752 303.44509887695312496 -22.99131202697753904
v 22.6939735412597656 303.44509887695312496 -19.9648361206054688
v 25.30427360534667968 303.44509887695312496 -16.53193283081054688
v 27.39945220947265624 303.44509887695312496 -12.76248836517333984
# 260 vertices

vn -0.46102160215377808 0.3557816743850708 -0.81294429302215584
vn -0.35549739003181456 0.3557816743850708 -0.86431533098220832
vn -0.24436673521995544 0.3557816743850708 -0.90205562114715584
vn -0.12938229739665986 0.3557816743850708 -0.9255698919296264
vn -0.01235740724951028 0.3557816743850708 -0.93448740243911744
vn 0.10486236214637756 0.3557816743850708 -0.92866748571395872
vn 0.22042839229106904 0.3557816743850708 -0.90820193290710448
vn 0.33251813054084776 0.3557816743850708 -0.87341344356536864
vn 0.43936386704444888 0.3557816743850708 -0.82485079765319824
vn 0.5392805337905884 0.3557816743850708 -0.76327967643737792
vn 0.63069248199462888 0.3557816743850708 -0.68967121839523312
vn 0.71215802431106568 0.3557816743850708 -0.60518622398376464
vn 0.78239238262176512 0.3557816743850708 -0.51115709543228152
vn 0.84028792381286624 0.3557816743850708 -0.40906670689582824
vn 0.88493168354034416 0.3557816743850708 -0.30052506923675536
vn 0.91561949253082272 0.3557816743850708 -0.18724399805068968
vn 0.9318674802780152 0.3557816743850708 -0.07100997120141983
vn 0.9334193468093872 0.3557816743850708 0.04634392634034157
vn 0.92025059461593632 0.3557816743850708 0.16296695172786712
vn 0.89256894588470464 0.3557816743850708 0.27701988816261292
vn 0.85081100463867184 0.3557816743850708 0.38670405745506288
vn 0.79563522338867184 0.3557816743850708 0.4902896881103516
vn 0.72791182994842528 0.3557816743850708 0.58614313602447512
vn 0.6487088203430176 0.3557816743850708 0.6727527379989624
vn 0.55927526950836184 0.3557816743850708 0.74875265359878544
vn 0.46102160215377808 0.3557816743850708 0.81294429302215584
vn 0.35549739003181456 0.3557816743850708 0.86431533098220832
vn 0.24436673521995544 0.3557816743850708 0.90205562114715584
vn 0.12938229739665986 0.3557816743850708 0.9255698919296264
vn 0.01235740724951028 0.3557816743850708 0.93448740243911744
vn -0.10486236214637756 0.3557816743850708 0.92866748571395872
vn -0.22042839229106904 0.3557816743850708 0.90820193290710448
vn -0.33251813054084776 0.3557816743850708 0.87341344356536864
vn -0.43936386704444888 0.3557816743850708 0.82485079765319824
vn -0.5392805337905884 0.3557816743850708 0.76327967643737792
vn -0.63069248199462888 0.3557816743850708 0.68967121839523312
vn -0.71215802431106568 0.3557816743850708 0.60518622398376464
vn -0.78239238262176512 0.3557816743850708 0.51115709543228152
vn -0.84028792381286624 0.3557816743850708 0.40906670689582824
vn -0.88493168354034416 0.3557816743850708 0.30052506923675536
vn -0.91561949253082272 0.3557816743850708 0.18724399805068968
vn -0.9318674802780152 0.3557816743850708 0.07100997120141983
vn -0.9334193468093872 0.3557816743850708 -0.04634392634034157
vn -0.92025059461593632 0.3557816743850708 -0.16296695172786712
vn -0.89256894588470464 0.3557816743850708 -0.27701988816261292
vn -0.85081100463867184 0.3557816743850708 -0.38670405745506288
vn -0.79563522338867184 0.3557816743850708 -0.4902896881103516
vn -0.72791182994842528 0.3557816743850708 -0.58614313602447512
vn -0.6487088203430176 0.3557816743850708 -0.6727527379989624
vn -0.55927526950836184 0.3557816743850708 -0.74875265359878544
vn 0 1 0
vn 0.47189876437187192 0 0.88165277242660528
vn 0.31163215637207032 0 0.95020282268524176
vn 0.1418967843055725 0 0.98988145589828496
vn -0.03215006366372108 0 0.99948304891586304
vn -0.2052200436592102 0 0.97871583700180048
vn -0.37205451726913456 0 0.9282108545303344
vn -0.52758431434631344 0 0.849502682685852
vn -0.66708368062973024 0 0.74498277902603152
vn -0.78631412982940672 0 0.6178269386291504
vn -0.88165277242660528 0 0.47189876437187192
vn -0.95020282268524176 0 0.31163215637207032
vn -0.98988145589828496 0 0.1418967843055725
vn -0.99948304891586304 0 -0.03215006366372108
vn -0.97871583700180048 0 -0.2052200436592102
vn -0.9282108545303344 0 -0.37205451726913456
vn -0.849502682685852 0 -0.52758431434631344
vn -0.74498277902603152 0 -0.66708368062973024
vn -0.6178269386291504 0 -0.78631412982940672
vn -0.47189876437187192 0 -0.88165277242660528
vn -0.31163215637207032 0 -0.95020282268524176
vn -0.1418967843055725 0 -0.98988145589828496
vn 0.03215006366372108 0 -0.99948304891586304
vn 0.2052200436592102 0 -0.97871583700180048
vn 0.37205451726913456 0 -0.9282108545303344
vn 0.52758431434631344 0 -0.849502682685852
vn 0.66708368062973024 0 -0.74498277902603152
vn 0.78631412982940672 0 -0.6178269386291504
vn 0.88165277242660528 0 -0.47189876437187192
vn 0.95020282268524176 0 -0.31163215637207032
vn 0.98988145589828496 0 -0.1418967843055725
vn 0.99948304891586304 0 0.03215006366372108
vn 0.97871583700180048 0 0.2052200436592102
vn 0.9282108545303344 0 0.37205451726913456
vn 0.849502682685852 0 0.52758431434631344
vn 0.74498277902603152 0 0.66708368062973024
vn 0.6178269386291504 0 0.78631412982940672
vn 0 -1 0
vn 0.48582762479782104 0 0.87405467033386224
vn 0.35649165511131288 0 0.93429851531982416
vn 0.2198985517024994 0 0.97552275657653808
vn 0.07882893085479736 0 0.9968881607055664
vn -0.06384541094303131 0 0.9979597926139832
vn -0.34241697192192076 0 0.9395480751991272
vn -0.47264331579208376 0 0.88125383853912352
vn -0.59324795007705688 0 0.80501979589462288
vn -0.70177584886550904 0 0.71239787340164184
vn -0.79601752758026128 0 0.60527354478836056
vn -0.87405467033386224 0 0.48582762479782104
vn -0.93429851531982416 0 0.35649165511131288
vn -0.97552275657653808 0 0.2198985517024994
vn -0.9968881607055664 0 0.07882893085479736
vn -0.9979597926139832 0 -0.06384541094303131
vn -0.9395480751991272 0 -0.34241697192192076
vn -0.88125383853912352 0 -0.47264331579208376
vn -0.80501979589462288 0 -0.59324795007705688
vn -0.71239787340164184 0 -0.70177584886550904
vn -0.60527354478836056 0 -0.79601752758026128
vn -0.48582762479782104 0 -0.87405467033386224
vn -0.35649165511131288 0 -0.93429851531982416
vn -0.2198985517024994 0 -0.97552275657653808
vn -0.07882893085479736 0 -0.9968881607055664
vn 0.06384541094303131 0 -0.9979597926139832
vn 0.34241697192192076 0 -0.9395480751991272
vn 0.47264331579208376 0 -0.88125383853912352
vn 0.59324795007705688 0 -0.80501979589462288
vn 0.70177584886550904 0 -0.71239787340164184
vn 0.79601752758026128 0 -0.60527354478836056
vn 0.87405467033386224 0 -0.48582762479782104
vn 0.93429851531982416 0 -0.35649165511131288
vn 0.97552275657653808 0 -0.2198985517024994
vn 0.9968881607055664 0 -0.07882893085479736
vn 0.9979597926139832 0 0.06384541094303131
vn 0.9395480751991272 0 0.34241697192192076
vn 0.88125383853912352 0 0.47264331579208376
vn 0.80501979589462288 0 0.59324795007705688
vn 0.71239787340164184 0 0.70177584886550904
vn 0.60527354478836056 0 0.79601752758026128
# 128 vertex normals

g obj_34672322
s 1
f 1//1 2//1 3//1
f 4//2 3//2 5//2
f 6//3 5//3 7//3
f 8//4 7//4 9//4
f 10//5 9//5 11//5
f 12//6 11//6 13//6
f 14//7 13//7 15//7
f 16//8 15//8 17//8
f 18//9 17//9 19//9
f 20//10 19//10 21//10
f 22//11 21//11 23//11
f 24//12 23//12 25//12
f 26//13 25//13 27//13
f 28//14 27//14 29//14
f 30//15 29//15 31//15
f 32//16 31//16 33//16
f 34//17 33//17 35//17
f 36//18 35//18 37//18
f 38//19 37//19 39//19
f 40//20 39//20 41//20
f 42//21 41//21 43//21
f 44//22 43//22 45//22
f 46//23 45//23 47//23
f 48//24 47//24 49//24
f 50//25 49//25 51//25
f 51//25 52//25 50//25
f 49//24 50//24 48//24
f 47//23 48//23 46//23
f 45//22 46//22 44//22
f 43//21 44//21 42//21
f 41//20 42//20 40//20
f 39//19 40//19 38//19
f 37//18 38//18 36//18
f 35//17 36//17 34//17
f 33//16 34//16 32//16
f 31//15 32//15 30//15
f 29//14 30//14 28//14
f 27//13 28//13 26//13
f 25//12 26//12 24//12
f 23//11 24//11 22//11
f 21//10 22//10 20//10
f 19//9 20//9 18//9
f 17//8 18//8 16//8
f 15//7 16//7 14//7
f 13//6 14//6 12//6
f 11//5 12//5 10//5
f 9//4 10//4 8//4
f 7//3 8//3 6//3
f 5//2 6//2 4//2
f 3//1 4//1 1//1
f 52//26 51//26 53//26
f 54//27 53//27 55//27
f 56//28 55//28 57//28
f 58//29 57//29 59//29
f 60//30 59//30 61//30
f 62//31 61//31 63//31
f 64//32 63//32 65//32
f 66//33 65//33 67//33
f 68//34 67//34 69//34
f 70//35 69//35 71//35
f 72//36 71//36 73//36
f 74//37 73//37 75//37
f 76//38 75//38 77//38
f 78//39 77//39 79//39
f 80//40 79//40 81//40
f 82//41 81//41 83//41
f 84//42 83//42 85//42
f 86//43 85//43 87//43
f 88//44 87//44 89//44
f 90//45 89//45 91//45
f 92//46 91//46 93//46
f 94//47 93//47 95//47
f 96//48 95//48 97//48
f 98//49 97//49 99//49
f 100//50 99//50 2//50
f 2//50 1//50 100//50
f 99//49 100//49 98//49
f 97//48 98//48 96//48
f 95//47 96//47 94//47
f 93//46 94//46 92//46
f 91//45 92//45 90//45
f 89//44 90//44 88//44
f 87//43 88//43 86//43
f 85//42 86//42 84//42
f 83//41 84//41 82//41
f 81//40 82//40 80//40
f 79//39 80//39 78//39
f 77//38 78//38 76//38
f 75//37 76//37 74//37
f 73//36 74//36 72//36
f 71//35 72//35 70//35
f 69//34 70//34 68//34
f 67//33 68//33 66//33
f 65//32 66//32 64//32
f 63//31 64//31 62//31
f 61//30 62//30 60//30
f 59//29 60//29 58//29
f 57//28 58//28 56//28
f 55//27 56//27 54//27
f 53//26 54//26 52//26
f 55//51 101//51 102//51
f 61//51 59//51 103//51
f 57//51 102//51 103//51
f 102//51 57//51 55//51
f 41//51 104//51 105//51
f 67//51 65//51 106//51
f 63//51 107//51 106//51
f 107//51 63//51 61//51
f 55//51 53//51 101//51
f 45//51 43//51 105//51
f 105//51 43//51 41//51
f 106//51 65//51 63//51
f 103//51 59//51 57//51
f 47//51 45//51 108//51
f 41//51 39//51 104//51
f 39//51 37//51 109//51
f 33//51 31//51 110//51
f 103//51 107//51 61//51
f 53//51 51//51 111//51
f 49//51 112//51 111//51
f 112//51 49//51 47//51
f 109//51 104//51 39//51
f 35//51 113//51 109//51
f 113//51 35//51 33//51
f 31//51 29//51 114//51
f 25//51 23//51 115//51
f 111//51 101//51 53//51
f 108//51 112//51 47//51
f 109//51 37//51 35//51
f 114//51 110//51 31//51
f 27//51 116//51 114//51
f 116//51 27//51 25//51
f 97//51 95//51 117//51
f 91//51 118//51 119//51
f 111//51 51//51 49//51
f 110//51 113//51 33//51
f 115//51 116//51 25//51
f 21//51 120//51 115//51
f 19//51 121//51 120//51
f 11//51 9//51 122//51
f 5//51 123//51 124//51
f 3//51 2//51 125//51
f 99//51 126//51 125//51
f 126//51 99//51 97//51
f 95//51 93//51 119//51
f 119//51 93//51 91//51
f 89//51 87//51 127//51
f 69//51 128//51 129//51
f 105//51 108//51 45//51
f 115//51 23//51 21//51
f 120//51 21//51 19//51
f 17//51 15//51 130//51
f 13//51 131//51 130//51
f 131//51 13//51 11//51
f 7//51 124//51 122//51
f 124//51 7//51 5//51
f 125//51 2//51 99//51
f 119//51 117//51 95//51
f 127//51 118//51 89//51
f 85//51 132//51 127//51
f 83//51 81//51 133//51
f 71//51 129//51 134//51
f 129//51 71//51 69//51
f 114//51 29//51 27//51
f 130//51 121//51 17//51
f 122//51 131//51 11//51
f 5//51 3//51 123//51
f 117//51 126//51 97//51
f 127//51 87//51 85//51
f 132//51 85//51 83//51
f 81//51 79//51 135//51
f 75//51 73//51 134//51
f 69//51 67//51 128//51
f 19//51 17//51 121//51
f 122//51 9//51 7//51
f 91//51 89//51 118//51
f 135//51 133//51 81//51
f 77//51 136//51 135//51
f 134//51 73//51 71//51
f 130//51 15//51 13//51
f 133//51 132//51 83//51
f 135//51 79//51 77//51
f 106//51 128//51 67//51
f 77//51 75//51 136//51
f 125//51 123//51 3//51
f 134//51 136//51 75//51
f 123//52 125//52 137//52
f 124//53 123//53 138//53
f 122//54 124//54 139//54
f 131//55 122//55 140//55
f 130//56 131//56 141//56
f 121//57 130//57 142//57
f 120//58 121//58 143//58
f 115//59 120//59 144//59
f 116//60 115//60 145//60
f 114//61 116//61 146//61
f 110//62 114//62 147//62
f 113//63 110//63 148//63
f 109//64 113//64 149//64
f 104//65 109//65 150//65
f 105//66 104//66 151//66
f 108//67 105//67 152//67
f 112//68 108//68 153//68
f 111//69 112//69 154//69
f 154//69 155//69 111//69
f 153//68 154//68 112//68
f 152//67 153//67 108//67
f 151//66 152//66 105//66
f 150//65 151//65 104//65
f 149//64 150//64 109//64
f 148//63 149//63 113//63
f 147//62 148//62 110//62
f 146//61 147//61 114//61
f 145//60 146//60 116//60
f 144//59 145//59 115//59
f 143//58 144//58 120//58
f 142//57 143//57 121//57
f 141//56 142//56 130//56
f 140//55 141//55 131//55
f 139//54 140//54 122//54
f 138//53 139//53 124//53
f 137//52 138//52 123//52
f 101//70 111//70 155//70
f 102//71 101//71 156//71
f 103//72 102//72 157//72
f 107//73 103//73 158//73
f 106//74 107//74 159//74
f 128//75 106//75 160//75
f 129//76 128//76 161//76
f 134//77 129//77 162//77
f 136//78 134//78 163//78
f 135//79 136//79 164//79
f 133//80 135//80 165//80
f 132//81 133//81 166//81
f 127//82 132//82 167//82
f 118//83 127//83 168//83
f 119//84 118//84 169//84
f 117//85 119//85 170//85
f 126//86 117//86 171//86
f 125//87 126//87 172//87
f 172//87 137//87 125//87
f 171//86 172//86 126//86
f 170//85 171//85 117//85
f 169//84 170//84 119//84
f 168//83 169//83 118//83
f 167//82 168//82 127//82
f 166//81 167//81 132//81
f 165//80 166//80 133//80
f 164//79 165//79 135//79
f 163//78 164//78 136//78
f 162//77 163//77 134//77
f 161//76 162//76 129//76
f 160//75 161//75 128//75
f 159//74 160//74 106//74
f 158//73 159//73 107//73
f 157//72 158//72 103//72
f 156//71 157//71 102//71
f 155//70 156//70 101//70
f 54//88 173//88 174//88
f 56//88 175//88 173//88
f 60//88 176//88 177//88
f 62//88 64//88 178//88
f 64//88 66//88 179//88
f 66//88 68//88 180//88
f 70//88 181//88 180//88
f 4//88 182//88 183//88
f 6//88 184//88 182//88
f 50//88 52//88 174//88
f 173//88 54//88 56//88
f 58//88 177//88 175//88
f 177//88 58//88 60//88
f 179//88 178//88 64//88
f 180//88 68//88 70//88
f 72//88 185//88 181//88
f 74//88 186//88 185//88
f 94//88 96//88 187//88
f 100//88 1//88 183//88
f 182//88 4//88 6//88
f 38//88 188//88 189//88
f 40//88 190//88 188//88
f 174//88 52//88 54//88
f 60//88 62//88 176//88
f 180//88 179//88 66//88
f 185//88 72//88 74//88
f 92//88 191//88 192//88
f 191//88 92//88 94//88
f 96//88 98//88 193//88
f 98//88 100//88 194//88
f 183//88 1//88 4//88
f 8//88 195//88 184//88
f 10//88 196//88 195//88
f 32//88 34//88 197//88
f 34//88 36//88 189//88
f 188//88 38//88 40//88
f 42//88 198//88 190//88
f 44//88 46//88 199//88
f 46//88 48//88 200//88
f 48//88 50//88 201//88
f 175//88 56//88 58//88
f 181//88 70//88 72//88
f 78//88 80//88 202//88
f 88//88 203//88 204//88
f 90//88 192//88 203//88
f 187//88 191//88 94//88
f 194//88 193//88 98//88
f 184//88 6//88 8//88
f 195//88 8//88 10//88
f 189//88 197//88 34//88
f 190//88 40//88 42//88
f 198//88 42//88 44//88
f 201//88 200//88 48//88
f 178//88 176//88 62//88
f 76//88 205//88 186//88
f 205//88 76//88 78//88
f 80//88 82//88 206//88
f 203//88 88//88 90//88
f 193//88 187//88 96//88
f 10//88 12//88 196//88
f 12//88 14//88 207//88
f 14//88 16//88 208//88
f 16//88 18//88 209//88
f 26//88 210//88 211//88
f 28//88 30//88 212//88
f 30//88 32//88 213//88
f 189//88 36//88 38//88
f 200//88 199//88 46//88
f 186//88 74//88 76//88
f 206//88 202//88 80//88
f 82//88 84//88 214//88
f 84//88 86//88 204//88
f 192//88 90//88 92//88
f 207//88 196//88 12//88
f 209//88 208//88 16//88
f 20//88 215//88 209//88
f 24//88 211//88 216//88
f 211//88 24//88 26//88
f 213//88 212//88 30//88
f 199//88 198//88 44//88
f 202//88 205//88 78//88
f 204//88 214//88 84//88
f 183//88 194//88 100//88
f 209//88 18//88 20//88
f 22//88 216//88 215//88
f 26//88 28//88 210//88
f 197//88 213//88 32//88
f 214//88 206//88 82//88
f 208//88 207//88 14//88
f 216//88 22//88 24//88
f 174//88 201//88 50//88
f 215//88 20//88 22//88
f 204//88 86//88 88//88
f 212//88 210//88 28//88
f 217//88 218//88 149//88
f 219//88 148//88 147//88
f 148//88 219//88 217//88
f 149//88 148//88 217//88
f 218//88 220//88 150//88
f 150//88 149//88 218//88
f 220//88 221//88 151//88
f 151//88 150//88 220//88
f 222//88 152//88 151//88
f 223//88 153//88 152//88
f 224//88 162//88 161//88
f 225//88 171//88 170//88
f 151//88 221//88 222//88
f 152//88 222//88 223//88
f 226//88 227//88 154//88
f 227//88 228//88 155//88
f 229//88 230//88 158//88
f 161//88 231//88 224//88
f 232//88 233//88 163//88
f 170//88 234//88 225//88
f 235//88 236//88 172//88
f 237//88 238//88 140//88
f 223//88 226//88 153//88
f 155//88 154//88 227//88
f 239//88 157//88 156//88
f 157//88 239//88 229//88
f 163//88 162//88 232//88
f 233//88 240//88 164//88
f 241//88 242//88 167//88
f 242//88 243//88 168//88
f 244//88 169//88 168//88
f 172//88 171//88 235//88
f 236//88 245//88 137//88
f 246//88 139//88 138//88
f 139//88 246//88 237//88
f 238//88 247//88 141//88
f 247//88 248//88 142//88
f 249//88 144//88 143//88
f 154//88 153//88 226//88
f 250//88 156//88 155//88
f 158//88 157//88 229//88
f 230//88 251//88 159//88
f 164//88 163//88 233//88
f 252//88 165//88 164//88
f 253//88 166//88 165//88
f 166//88 253//88 241//88
f 168//88 243//88 244//88
f 234//88 170//88 169//88
f 137//88 172//88 236//88
f 254//88 138//88 137//88
f 140//88 139//88 237//88
f 142//88 141//88 247//88
f 255//88 143//88 142//88
f 143//88 255//88 249//88
f 155//88 228//88 250//88
f 159//88 158//88 230//88
f 251//88 256//88 160//88
f 231//88 161//88 160//88
f 164//88 240//88 252//88
f 167//88 166//88 241//88
f 169//88 244//88 234//88
f 137//88 245//88 254//88
f 141//88 140//88 238//88
f 249//88 257//88 144//88
f 257//88 258//88 145//88
f 258//88 259//88 146//88
f 156//88 250//88 239//88
f 160//88 256//88 231//88
f 165//88 252//88 253//88
f 225//88 235//88 171//88
f 142//88 248//88 255//88
f 146//88 145//88 258//88
f 260//88 147//88 146//88
f 160//88 159//88 251//88
f 168//88 167//88 242//88
f 145//88 144//88 257//88
f 147//88 260//88 219//88
f 138//88 254//88 246//88
f 224//88 232//88 162//88
f 146//88 259//88 260//88
f 254//89 245//89 183//89
f 246//90 254//90 182//90
f 237//91 246//91 184//91
f 238//92 237//92 195//92
f 247//93 238//93 196//93
f 248//56 247//56 207//56
f 255//94 248//94 208//94
f 249//95 255//95 209//95
f 257//96 249//96 215//96
f 258//97 257//97 216//97
f 259//98 258//98 211//98
f 260//99 259//99 210//99
f 219//100 260//100 212//100
f 217//101 219//101 213//101
f 218//102 217//102 197//102
f 220//103 218//103 189//103
f 221//65 220//65 188//65
f 222//104 221//104 190//104
f 223//105 222//105 198//105
f 226//106 223//106 199//106
f 227//107 226//107 200//107
f 228//108 227//108 201//108
f 201//108 174//108 228//108
f 200//107 201//107 227//107
f 199//106 200//106 226//106
f 198//105 199//105 223//105
f 190//104 198//104 222//104
f 188//65 190//65 221//65
f 189//103 188//103 220//103
f 197//102 189//102 218//102
f 213//101 197//101 217//101
f 212//100 213//100 219//100
f 210//99 212//99 260//99
f 211//98 210//98 259//98
f 216//97 211//97 258//97
f 215//96 216//96 257//96
f 209//95 215//95 249//95
f 208//94 209//94 255//94
f 207//56 208//56 248//56
f 196//93 207//93 247//93
f 195//92 196//92 238//92
f 184//91 195//91 237//91
f 182//90 184//90 246//90
f 183//89 182//89 254//89
f 250//109 228//109 174//109
f 239//110 250//110 173//110
f 229//111 239//111 175//111
f 230//112 229//112 177//112
f 251//113 230//113 176//113
f 256//74 251//74 178//74
f 231//114 256//114 179//114
f 224//115 231//115 180//115
f 232//116 224//116 181//116
f 233//117 232//117 185//117
f 240//118 233//118 186//118
f 252//119 240//119 205//119
f 253//120 252//120 202//120
f 241//121 253//121 206//121
f 242//122 241//122 214//122
f 243//123 242//123 204//123
f 244//83 243//83 203//83
f 234//124 244//124 192//124
f 225//125 234//125 191//125
f 235//126 225//126 187//126
f 236//127 235//127 193//127
f 245//128 236//128 194//128
f 194//128 183//128 245//128
f 193//127 194//127 236//127
f 187//126 193//126 235//126
f 191//125 187//125 225//125
f 192//124 191//124 234//124
f 203//83 192//83 244//83
f 204//123 203//123 243//123
f 214//122 204//122 242//122
f 206//121 214//121 241//121
f 202//120 206//120 253//120
f 205//119 202//119 252//119
f 186//118 205//118 240//118
f 185//117 186//117 233//117
f 181//116 185//116 232//116
f 180//115 181//115 224//115
f 179//114 180//114 231//114
f 178//74 179//74 256//74
f 176//113 178//113 251//113
f 177//112 176//112 230//112
f 175//111 177//111 229//111
f 173//110 175//110 239//110
f 174//109 173//109 250//109
#520 polygons

