# Aspose.3D Wavefront OBJ Exporter
# Copyright 2004-2023 Aspose Pty Ltd.
# File created: 06/29/2023 04:23:28


#
# object obj_13288245
#

v -19.15567588806152344 33.81294250488281248 263.94808959960937504
v -14.5232582092285156 25.63595581054687504 288.58609008789062496
v -11.19570064544677736 27.2540569305419922 288.58609008789062496
v -14.76674270629882816 35.94715881347656256 263.94808959960937504
v -7.69158029556274416 28.44234275817871096 288.58609008789062496
v -10.1449289321899414 37.5144691467285156 263.94808959960937504
v -4.06615877151489258 29.18207740783691408 288.58609008789062496
v -5.3631234169006348 38.49015426635742184 263.94808959960937504
v -0.37661197781562808 29.46159362792968752 288.58609008789062496
v -0.49673822522163392 38.85882568359375008 263.94808959960937504
v 3.31887435913085936 29.27648162841796876 288.58609008789062496
v 4.37748098373413088 38.61466979980468752 263.94808959960937504
v 6.96202039718627936 28.62966156005859376 288.58609008789062496
v 9.18266487121582032 37.76153564453124992 263.94808959960937504
v 10.49537086486816408 27.53133583068847656 288.58609008789062496
v 13.84303188323974608 36.31288528442382812 263.94808959960937504
v 13.86320304870605472 25.99882507324218752 288.58609008789062496
v 18.28508758544921876 34.29155349731445312 263.94808959960937504
v 17.01240348815917968 24.05629730224609375 288.58609008789062496
v 22.43877410888671872 31.72942543029785152 263.94808959960937504
v 19.893310546875 21.7343864440917968 288.58609008789062496
v 26.23859024047851564 28.66690444946289064 263.94808959960937504
v 22.46048545837402344 19.06970977783203125 288.58609008789062496
v 29.62460708618164064 25.15229034423828124 263.94808959960937504
v 24.67344665527343752 16.10429573059082032 288.58609008789062496
v 32.54342651367187504 21.24101066589355468 263.94808959960937504
v 26.49729347229003904 12.88490486145019536 288.58609008789062496
v 34.94901657104492192 16.9947452545166016 263.94808959960937504
v 27.90326118469238288 9.46231174468994144 288.58609008789062496
v 36.80344009399414064 12.4804630279541016 263.94808959960937504
v 28.86917686462402336 5.890493392944336 288.58609008789062496
v 38.07744979858398438 7.76935720443725584 263.94808959960937504
v 29.37981033325195312 2.22577762603759764 288.58609008789062496
v 38.75095748901367184 2.93572378158569328 263.94808959960937504
v 29.42710494995117184 -1.47403991222381592 288.58609008789062496
v 38.81333541870117184 -1.94420778751373296 263.94808959960937504
v 29.01031684875488281 -5.15061092376708984 288.58609008789062496
v 38.26360702514648436 -6.79347801208496096 263.94808959960937504
v 28.13601875305175782 -8.74595355987548832 288.58609008789062496
v 37.11043930053710938 -11.53561115264892576 263.94808959960937504
v 26.8180007934570312 -12.2033672332763672 288.58609008789062496
v 35.37201690673828128 -16.09582138061523438 263.94808959960937504
v 25.07704353332519531 -15.4683265686035156 288.58609008789062496
v 33.07575607299804688 -20.40218925476074216 263.94808959960937504
v 22.94060897827148432 -18.48934173583984376 288.58609008789062496
v 30.2578716278076172 -24.38680458068847656 263.94808959960937504
v 20.4423866271972656 -21.21876907348632812 288.58609008789062496
v 26.96280288696289056 -27.9868240356445312 263.94808959960937504
v 17.62177467346191408 -23.61356163024902344 288.58609008789062496
v 23.24251365661621092 -31.14547538757324218 263.94808959960937504
v 14.5232582092285156 -25.63595581054687504 288.58609008789062496
v 19.15567588806152344 -33.81294250488281248 263.94808959960937504
v 11.19570064544677736 -27.2540569305419922 288.58609008789062496
v 14.76674270629882816 -35.94715881347656256 263.94808959960937504
v 7.69158029556274416 -28.44234275817871096 288.58609008789062496
v 10.1449289321899414 -37.5144691467285156 263.94808959960937504
v 4.06615877151489258 -29.18207740783691408 288.58609008789062496
v 5.3631234169006348 -38.49015426635742184 263.94808959960937504
v 0.37661197781562808 -29.46159362792968752 288.58609008789062496
v 0.49673822522163392 -38.85882568359375008 263.94808959960937504
v -3.31887435913085936 -29.27648162841796876 288.58609008789062496
v -4.37748098373413088 -38.61466979980468752 263.94808959960937504
v -6.96202039718627936 -28.62966156005859376 288.58609008789062496
v -9.18266487121582032 -37.76153564453124992 263.94808959960937504
v -10.49537086486816408 -27.53133583068847656 288.58609008789062496
v -13.84303188323974608 -36.31288528442382812 263.94808959960937504
v -13.86320304870605472 -25.99882507324218752 288.58609008789062496
v -18.28508758544921876 -34.29155349731445312 263.94808959960937504
v -17.01240348815917968 -24.05629730224609375 288.58609008789062496
v -22.43877410888671872 -31.72942543029785152 263.94808959960937504
v -19.893310546875 -21.7343864440917968 288.58609008789062496
v -26.23859024047851564 -28.66690444946289064 263.94808959960937504
v -22.46048545837402344 -19.06970977783203125 288.58609008789062496
v -29.62460708618164064 -25.15229034423828124 263.94808959960937504
v -24.67344665527343752 -16.10429573059082032 288.58609008789062496
v -32.54342651367187504 -21.24101066589355468 263.94808959960937504
v -26.49729347229003904 -12.88490486145019536 288.58609008789062496
v -34.94901657104492192 -16.9947452545166016 263.94808959960937504
v -27.90326118469238288 -9.46231174468994144 288.58609008789062496
v -36.80344009399414064 -12.4804630279541016 263.94808959960937504
v -28.86917686462402336 -5.890493392944336 288.58609008789062496
v -38.07744979858398438 -7.76935720443725584 263.94808959960937504
v -29.37981033325195312 -2.22577762603759764 288.58609008789062496
v -38.75095748901367184 -2.93572378158569328 263.94808959960937504
v -29.42710494995117184 1.47403991222381592 288.58609008789062496
v -38.81333541870117184 1.94420778751373296 263.94808959960937504
v -29.01031684875488281 5.15061092376708984 288.58609008789062496
v -38.26360702514648436 6.79347801208496096 263.94808959960937504
v -28.13601875305175782 8.74595355987548832 288.58609008789062496
v -37.11043930053710938 11.53561115264892576 263.94808959960937504
v -26.8180007934570312 12.2033672332763672 288.58609008789062496
v -35.37201690673828128 16.09582138061523438 263.94808959960937504
v -25.07704353332519531 15.4683265686035156 288.58609008789062496
v -33.07575607299804688 20.40218925476074216 263.94808959960937504
v -22.94060897827148432 18.48934173583984376 288.58609008789062496
v -30.2578716278076172 24.38680458068847656 263.94808959960937504
v -20.4423866271972656 21.21876907348632812 288.58609008789062496
v -26.96280288696289056 27.9868240356445312 263.94808959960937504
v -17.62177467346191408 23.61356163024902344 288.58609008789062496
v -23.24251365661621092 31.14547538757324218 263.94808959960937504
v 6.58147382736206056 -18.5521812438964844 288.58609008789062496
v 3.25993394851684572 -19.41319274902343752 288.58609008789062496
v -0.16065727174282074 -19.68434524536132816 288.58609008789062496
v 18.44228553771972656 -6.88341093063354496 288.58609008789062496
v 16.96681404113769536 -9.98130512237548832 288.58609008789062496
v -6.88341093063354496 -18.44228553771972656 288.58609008789062496
v -3.57636713981628416 -19.35739707946777344 288.58609008789062496
v 14.97581386566162112 -12.77592372894287104 288.58609008789062496
v 19.35739707946777344 -3.57636713981628416 288.58609008789062496
v 19.41319274902343752 3.25993394851684572 288.58609008789062496
v 9.70303916931152344 -17.12747001647949218 288.58609008789062496
v 12.5297822952270508 -15.18235111236572264 288.58609008789062496
v 19.68434524536132816 -0.16065727174282074 288.58609008789062496
v 18.5521812438964844 6.58147382736206056 288.58609008789062496
v 15.18235111236572264 12.5297822952270508 288.58609008789062496
v 17.12747001647949218 9.70303916931152344 288.58609008789062496
v -14.97581386566162112 12.77592372894287104 288.58609008789062496
v -18.44228553771972656 6.88341093063354496 288.58609008789062496
v -16.96681404113769536 9.98130512237548832 288.58609008789062496
v 12.77592372894287104 14.97581386566162112 288.58609008789062496
v 9.98130512237548832 16.96681404113769536 288.58609008789062496
v 0.16065727174282074 19.68434524536132816 288.58609008789062496
v -6.58147382736206056 18.5521812438964844 288.58609008789062496
v -3.25993394851684572 19.41319274902343752 288.58609008789062496
v -9.70303916931152344 17.12747001647949218 288.58609008789062496
v -12.5297822952270508 15.18235111236572264 288.58609008789062496
v -19.35739707946777344 3.57636713981628416 288.58609008789062496
v -9.98130512237548832 -16.96681404113769536 288.58609008789062496
v -12.77592372894287104 -14.97581386566162112 288.58609008789062496
v 6.88341093063354496 18.44228553771972656 288.58609008789062496
v 3.57636713981628416 19.35739707946777344 288.58609008789062496
v -19.68434524536132816 0.16065727174282074 288.58609008789062496
v -19.41319274902343752 -3.25993394851684572 288.58609008789062496
v -15.18235111236572264 -12.5297822952270508 288.58609008789062496
v -18.5521812438964844 -6.58147382736206056 288.58609008789062496
v -17.12747001647949218 -9.70303916931152344 288.58609008789062496
v -9.70303916931152344 17.12747001647949218 282.99810791015624992
v -6.58147382736206056 18.5521812438964844 282.99810791015624992
v -3.25993394851684572 19.41319274902343752 282.99810791015624992
v 0.16065727174282074 19.68434524536132816 282.99810791015624992
v 3.57636713981628416 19.35739707946777344 282.99810791015624992
v 6.88341093063354496 18.44228553771972656 282.99810791015624992
v 9.98130512237548832 16.96681404113769536 282.99810791015624992
v 12.77592372894287104 14.97581386566162112 282.99810791015624992
v 15.18235111236572264 12.5297822952270508 282.99810791015624992
v 17.12747001647949218 9.70303916931152344 282.99810791015624992
v 18.5521812438964844 6.58147382736206056 282.99810791015624992
v 19.41319274902343752 3.25993394851684572 282.99810791015624992
v 19.68434524536132816 -0.16065727174282074 282.99810791015624992
v 19.35739707946777344 -3.57636713981628416 282.99810791015624992
v 18.44228553771972656 -6.88341093063354496 282.99810791015624992
v 16.96681404113769536 -9.98130512237548832 282.99810791015624992
v 14.97581386566162112 -12.77592372894287104 282.99810791015624992
v 12.5297822952270508 -15.18235111236572264 282.99810791015624992
v 9.70303916931152344 -17.12747001647949218 282.99810791015624992
v 6.58147382736206056 -18.5521812438964844 282.99810791015624992
v 3.25993394851684572 -19.41319274902343752 282.99810791015624992
v -0.16065727174282074 -19.68434524536132816 282.99810791015624992
v -3.57636713981628416 -19.35739707946777344 282.99810791015624992
v -6.88341093063354496 -18.44228553771972656 282.99810791015624992
v -9.98130512237548832 -16.96681404113769536 282.99810791015624992
v -12.77592372894287104 -14.97581386566162112 282.99810791015624992
v -15.18235111236572264 -12.5297822952270508 282.99810791015624992
v -17.12747001647949218 -9.70303916931152344 282.99810791015624992
v -18.5521812438964844 -6.58147382736206056 282.99810791015624992
v -19.41319274902343752 -3.25993394851684572 282.99810791015624992
v -19.68434524536132816 0.16065727174282074 282.99810791015624992
v -19.35739707946777344 3.57636713981628416 282.99810791015624992
v -18.44228553771972656 6.88341093063354496 282.99810791015624992
v -16.96681404113769536 9.98130512237548832 282.99810791015624992
v -14.97581386566162112 12.77592372894287104 282.99810791015624992
v -12.5297822952270508 15.18235111236572264 282.99810791015624992
v 11.00447940826416015 -28.15159797668457032 263.94808959960937504
v 14.898859977722168 -26.29895591735839844 263.94808959960937504
v 6.8860793113708496 -29.4311561584472656 263.94808959960937504
v -1.6845703125 -30.17901992797851562 263.94808959960937504
v 2.6274986267089844 -30.11158180236816406 263.94808959960937504
v -5.962346076965332 -29.63210296630859376 263.94808959960937504
v -10.11874580383300782 -28.48196029663085936 263.94808959960937504
v -14.06915760040283203 -26.75200653076171872 263.94808959960937504
v -17.7331619262695312 -24.47746086120605472 263.94808959960937504
v -11.00447940826416015 28.15159797668457032 263.94808959960937504
v -14.898859977722168 26.29895591735839844 263.94808959960937504
v -6.8860793113708496 29.4311561584472656 263.94808959960937504
v -21.03616905212402344 -21.70462226867675784 263.94808959960937504
v -23.91094017028808592 -18.48994255065917968 263.94808959960937504
v -24.47746086120605472 17.7331619262695312 263.94808959960937504
v 29.63210296630859376 -5.962346076965332 263.94808959960937504
v 30.17901992797851562 -1.6845703125 263.94808959960937504
v 28.48196029663085936 -10.11874580383300782 263.94808959960937504
v -26.75200653076171872 14.06915760040283203 263.94808959960937504
v -28.48196029663085936 10.11874580383300782 263.94808959960937504
v -21.70462226867675784 21.03616905212402344 263.94808959960937504
v -18.48994255065917968 23.91094017028808592 263.94808959960937504
v -2.6274986267089844 30.11158180236816406 263.94808959960937504
v 1.6845703125 30.17901992797851562 263.94808959960937504
v 30.11158180236816406 2.6274986267089844 263.94808959960937504
v 26.75200653076171872 -14.06915760040283203 263.94808959960937504
v 24.47746086120605472 -17.7331619262695312 263.94808959960937504
v 21.70462226867675784 -21.03616905212402344 263.94808959960937504
v 18.48994255065917968 -23.91094017028808592 263.94808959960937504
v -28.15159797668457032 -11.00447940826416015 263.94808959960937504
v -29.63210296630859376 5.962346076965332 263.94808959960937504
v -30.17901992797851562 1.6845703125 263.94808959960937504
v -26.29895591735839844 -14.898859977722168 263.94808959960937504
v -29.4311561584472656 -6.8860793113708496 263.94808959960937504
v 5.962346076965332 29.63210296630859376 263.94808959960937504
v 10.11874580383300782 28.48196029663085936 263.94808959960937504
v 14.06915760040283203 26.75200653076171872 263.94808959960937504
v 26.29895591735839844 14.898859977722168 263.94808959960937504
v 23.91094017028808592 18.48994255065917968 263.94808959960937504
v 28.15159797668457032 11.00447940826416015 263.94808959960937504
v 29.4311561584472656 6.8860793113708496 263.94808959960937504
v -30.11158180236816406 -2.6274986267089844 263.94808959960937504
v 17.7331619262695312 24.47746086120605472 263.94808959960937504
v 21.03616905212402344 21.70462226867675784 263.94808959960937504
v 30.11158180236816406 2.6274986267089844 282.99810791015624992
v 30.17901992797851562 -1.6845703125 282.99810791015624992
v 29.4311561584472656 6.8860793113708496 282.99810791015624992
v 29.63210296630859376 -5.962346076965332 282.99810791015624992
v 28.48196029663085936 -10.11874580383300782 282.99810791015624992
v 26.75200653076171872 -14.06915760040283203 282.99810791015624992
v 24.47746086120605472 -17.7331619262695312 282.99810791015624992
v -17.7331619262695312 -24.47746086120605472 282.99810791015624992
v -24.47746086120605472 17.7331619262695312 282.99810791015624992
v 21.70462226867675784 -21.03616905212402344 282.99810791015624992
v 18.48994255065917968 -23.91094017028808592 282.99810791015624992
v 14.898859977722168 -26.29895591735839844 282.99810791015624992
v 2.6274986267089844 -30.11158180236816406 282.99810791015624992
v -1.6845703125 -30.17901992797851562 282.99810791015624992
v -14.06915760040283203 -26.75200653076171872 282.99810791015624992
v -21.03616905212402344 -21.70462226867675784 282.99810791015624992
v -23.91094017028808592 -18.48994255065917968 282.99810791015624992
v -26.75200653076171872 14.06915760040283203 282.99810791015624992
v -21.70462226867675784 21.03616905212402344 282.99810791015624992
v -18.48994255065917968 23.91094017028808592 282.99810791015624992
v -2.6274986267089844 30.11158180236816406 282.99810791015624992
v 1.6845703125 30.17901992797851562 282.99810791015624992
v 6.8860793113708496 -29.4311561584472656 282.99810791015624992
v -26.29895591735839844 -14.898859977722168 282.99810791015624992
v -30.11158180236816406 -2.6274986267089844 282.99810791015624992
v -30.17901992797851562 1.6845703125 282.99810791015624992
v -29.63210296630859376 5.962346076965332 282.99810791015624992
v -28.48196029663085936 10.11874580383300782 282.99810791015624992
v -14.898859977722168 26.29895591735839844 282.99810791015624992
v -6.8860793113708496 29.4311561584472656 282.99810791015624992
v 5.962346076965332 29.63210296630859376 282.99810791015624992
v 10.11874580383300782 28.48196029663085936 282.99810791015624992
v 17.7331619262695312 24.47746086120605472 282.99810791015624992
v 11.00447940826416015 -28.15159797668457032 282.99810791015624992
v -5.962346076965332 -29.63210296630859376 282.99810791015624992
v -28.15159797668457032 -11.00447940826416015 282.99810791015624992
v -29.4311561584472656 -6.8860793113708496 282.99810791015624992
v -11.00447940826416015 28.15159797668457032 282.99810791015624992
v 14.06915760040283203 26.75200653076171872 282.99810791015624992
v -10.11874580383300782 -28.48196029663085936 282.99810791015624992
v 21.03616905212402344 21.70462226867675784 282.99810791015624992
v 23.91094017028808592 18.48994255065917968 282.99810791015624992
v 26.29895591735839844 14.898859977722168 282.99810791015624992
v 28.15159797668457032 11.00447940826416015 282.99810791015624992
# 260 vertices

vn -0.40869650244712832 0.84046804904937744 0.3557816743850708
vn -0.30013522505760192 0.8850639462471008 0.3557816743850708
vn -0.18684065341949464 0.91570192575454704 0.3557816743850708
vn -0.07059947401285172 0.93189865350723264 0.3557816743850708
vn 0.04675509408116341 0.93339884281158448 0.3557816743850708
vn 0.16337230801582336 0.92017871141433712 0.3557816743850708
vn 0.2774130403995514 0.89244687557220464 0.3557816743850708
vn 0.38707882165908816 0.85064059495925904 0.3557816743850708
vn 0.49064010381698608 0.79541915655136112 0.3557816743850708
vn 0.58646374940872192 0.7276535630226136 0.3557816743850708
vn 0.6730384826660156 0.6484124064445496 0.3557816743850708
vn 0.74899899959564208 0.55894535779953 0.3557816743850708
vn 0.8131473064422608 0.46066346764564512 0.3557816743850708
vn 0.86447185277938848 0.355116605758667 0.3557816743850708
vn 0.90216314792633056 0.24396936595439912 0.3557816743850708
vn 0.92562681436538704 0.1289745569229126 0.3557816743850708
vn 0.9344927668571472 0.01194576174020767 0.3557816743850708
vn 0.92862117290496832 -0.10527142882347106 0.3557816743850708
vn 0.90810471773147584 -0.22082842886447908 0.3557816743850708
vn 0.87326693534851072 -0.33290284872055052 0.3557816743850708
vn 0.82465714216232304 -0.43972715735435488 0.3557816743850708
vn 0.7630420327186584 -0.5396167039871216 0.3557816743850708
vn 0.68939334154129032 -0.63099622726440432 0.3557816743850708
vn 0.60487246513366696 -0.71242451667785648 0.3557816743850708
vn 0.51081240177154544 -0.78261744976043696 0.3557816743850708
vn 0.40869650244712832 -0.84046804904937744 0.3557816743850708
vn 0.30013522505760192 -0.8850639462471008 0.3557816743850708
vn 0.18684065341949464 -0.91570192575454704 0.3557816743850708
vn 0.07059947401285172 -0.93189865350723264 0.3557816743850708
vn -0.04675509408116341 -0.93339884281158448 0.3557816743850708
vn -0.16337230801582336 -0.92017871141433712 0.3557816743850708
vn -0.2774130403995514 -0.89244687557220464 0.3557816743850708
vn -0.38707882165908816 -0.85064059495925904 0.3557816743850708
vn -0.49064010381698608 -0.79541915655136112 0.3557816743850708
vn -0.58646374940872192 -0.7276535630226136 0.3557816743850708
vn -0.6730384826660156 -0.6484124064445496 0.3557816743850708
vn -0.74899899959564208 -0.55894535779953 0.3557816743850708
vn -0.8131473064422608 -0.46066346764564512 0.3557816743850708
vn -0.86447185277938848 -0.355116605758667 0.3557816743850708
vn -0.90216314792633056 -0.24396936595439912 0.3557816743850708
vn -0.92562681436538704 -0.1289745569229126 0.3557816743850708
vn -0.9344927668571472 -0.01194576174020767 0.3557816743850708
vn -0.92862117290496832 0.10527142882347106 0.3557816743850708
vn -0.90810471773147584 0.22082842886447908 0.3557816743850708
vn -0.87326693534851072 0.33290284872055052 0.3557816743850708
vn -0.82465714216232304 0.43972715735435488 0.3557816743850708
vn -0.7630420327186584 0.5396167039871216 0.3557816743850708
vn -0.68939334154129032 0.63099622726440432 0.3557816743850708
vn -0.60487246513366696 0.71242451667785648 0.3557816743850708
vn -0.51081240177154544 0.78261744976043696 0.3557816743850708
vn 0 0 1
vn 0.41520744562149048 -0.90972673892974848 0
vn 0.2509271204471588 -0.9680059552192688 0
vn 0.07902248948812485 -0.9968728423118592 0
vn -0.09528318792581558 -0.99545019865036016 0
vn -0.26669374108314516 -0.96378135681152336 0
vn -0.43000093102455136 -0.90282845497131344 0
vn -0.5802427530288696 -0.814443588256836 0
vn -0.71285420656204224 -0.70131224393844608 0
vn -0.8238059282302856 -0.56687188148498536 0
vn -0.90972673892974848 -0.41520744562149048 0
vn -0.9680059552192688 -0.2509271204471588 0
vn -0.9968728423118592 -0.07902248948812485 0
vn -0.99545019865036016 0.09528318792581558 0
vn -0.96378135681152336 0.26669374108314516 0
vn -0.90282845497131344 0.43000093102455136 0
vn -0.814443588256836 0.5802427530288696 0
vn -0.70131224393844608 0.71285420656204224 0
vn -0.56687188148498536 0.8238059282302856 0
vn -0.41520744562149048 0.90972673892974848 0
vn -0.2509271204471588 0.9680059552192688 0
vn -0.07902248948812485 0.9968728423118592 0
vn 0.09528318792581558 0.99545019865036016 0
vn 0.26669374108314516 0.96378135681152336 0
vn 0.43000093102455136 0.90282845497131344 0
vn 0.5802427530288696 0.814443588256836 0
vn 0.71285420656204224 0.70131224393844608 0
vn 0.8238059282302856 0.56687188148498536 0
vn 0.90972673892974848 0.41520744562149048 0
vn 0.9680059552192688 0.2509271204471588 0
vn 0.9968728423118592 0.07902248948812485 0
vn 0.99545019865036016 -0.09528318792581558 0
vn 0.96378135681152336 -0.26669374108314516 0
vn 0.90282845497131344 -0.43000093102455136 0
vn 0.814443588256836 -0.5802427530288696 0
vn 0.70131224393844608 -0.71285420656204224 0
vn 0.56687188148498536 -0.8238059282302856 0
vn 0 0 -1
vn 0.42958888411521912 -0.90302461385726928 0
vn 0.29670247435569764 -0.95496994256973264 0
vn 0.15777607262134552 -0.98747491836547856 0
vn 0.01563781127333641 -0.9998777508735656 0
vn -0.12681879103183746 -0.9919258952140808 0
vn -0.4011395573616028 -0.91601693630218512 0
vn -0.5274193286895752 -0.84960508346557616 0
vn -0.64296239614486696 -0.76589775085449216 0
vn -0.74541658163070672 -0.666598916053772 0
vn -0.83269619941711424 -0.55373007059097288 0
vn -0.90302461385726928 -0.42958888411521912 0
vn -0.95496994256973264 -0.29670247435569764 0
vn -0.98747491836547856 -0.15777607262134552 0
vn -0.9998777508735656 -0.01563781127333641 0
vn -0.9919258952140808 0.12681879103183746 0
vn -0.91601693630218512 0.4011395573616028 0
vn -0.84960508346557616 0.5274193286895752 0
vn -0.76589775085449216 0.64296239614486696 0
vn -0.666598916053772 0.74541658163070672 0
vn -0.55373007059097288 0.83269619941711424 0
vn -0.42958888411521912 0.90302461385726928 0
vn -0.29670247435569764 0.95496994256973264 0
vn -0.15777607262134552 0.98747491836547856 0
vn -0.01563781127333641 0.9998777508735656 0
vn 0.12681879103183746 0.9919258952140808 0
vn 0.4011395573616028 0.91601693630218512 0
vn 0.5274193286895752 0.84960508346557616 0
vn 0.64296239614486696 0.76589775085449216 0
vn 0.74541658163070672 0.666598916053772 0
vn 0.83269619941711424 0.55373007059097288 0
vn 0.90302461385726928 0.42958888411521912 0
vn 0.95496994256973264 0.29670247435569764 0
vn 0.98747491836547856 0.15777607262134552 0
vn 0.9998777508735656 0.01563781127333641 0
vn 0.9919258952140808 -0.12681879103183746 0
vn 0.91601693630218512 -0.4011395573616028 0
vn 0.84960508346557616 -0.5274193286895752 0
vn 0.76589775085449216 -0.64296239614486696 0
vn 0.666598916053772 -0.74541658163070672 0
vn 0.55373007059097288 -0.83269619941711424 0
# 128 vertex normals

g obj_13288245
s 1
f 1//1 2//1 3//1
f 4//2 3//2 5//2
f 6//3 5//3 7//3
f 8//4 7//4 9//4
f 10//5 9//5 11//5
f 12//6 11//6 13//6
f 14//7 13//7 15//7
f 16//8 15//8 17//8
f 18//9 17//9 19//9
f 20//10 19//10 21//10
f 22//11 21//11 23//11
f 24//12 23//12 25//12
f 26//13 25//13 27//13
f 28//14 27//14 29//14
f 30//15 29//15 31//15
f 32//16 31//16 33//16
f 34//17 33//17 35//17
f 36//18 35//18 37//18
f 38//19 37//19 39//19
f 40//20 39//20 41//20
f 42//21 41//21 43//21
f 44//22 43//22 45//22
f 46//23 45//23 47//23
f 48//24 47//24 49//24
f 50//25 49//25 51//25
f 51//25 52//25 50//25
f 49//24 50//24 48//24
f 47//23 48//23 46//23
f 45//22 46//22 44//22
f 43//21 44//21 42//21
f 41//20 42//20 40//20
f 39//19 40//19 38//19
f 37//18 38//18 36//18
f 35//17 36//17 34//17
f 33//16 34//16 32//16
f 31//15 32//15 30//15
f 29//14 30//14 28//14
f 27//13 28//13 26//13
f 25//12 26//12 24//12
f 23//11 24//11 22//11
f 21//10 22//10 20//10
f 19//9 20//9 18//9
f 17//8 18//8 16//8
f 15//7 16//7 14//7
f 13//6 14//6 12//6
f 11//5 12//5 10//5
f 9//4 10//4 8//4
f 7//3 8//3 6//3
f 5//2 6//2 4//2
f 3//1 4//1 1//1
f 52//26 51//26 53//26
f 54//27 53//27 55//27
f 56//28 55//28 57//28
f 58//29 57//29 59//29
f 60//30 59//30 61//30
f 62//31 61//31 63//31
f 64//32 63//32 65//32
f 66//33 65//33 67//33
f 68//34 67//34 69//34
f 70//35 69//35 71//35
f 72//36 71//36 73//36
f 74//37 73//37 75//37
f 76//38 75//38 77//38
f 78//39 77//39 79//39
f 80//40 79//40 81//40
f 82//41 81//41 83//41
f 84//42 83//42 85//42
f 86//43 85//43 87//43
f 88//44 87//44 89//44
f 90//45 89//45 91//45
f 92//46 91//46 93//46
f 94//47 93//47 95//47
f 96//48 95//48 97//48
f 98//49 97//49 99//49
f 100//50 99//50 2//50
f 2//50 1//50 100//50
f 99//49 100//49 98//49
f 97//48 98//48 96//48
f 95//47 96//47 94//47
f 93//46 94//46 92//46
f 91//45 92//45 90//45
f 89//44 90//44 88//44
f 87//43 88//43 86//43
f 85//42 86//42 84//42
f 83//41 84//41 82//41
f 81//40 82//40 80//40
f 79//39 80//39 78//39
f 77//38 78//38 76//38
f 75//37 76//37 74//37
f 73//36 74//36 72//36
f 71//35 72//35 70//35
f 69//34 70//34 68//34
f 67//33 68//33 66//33
f 65//32 66//32 64//32
f 63//31 64//31 62//31
f 61//30 62//30 60//30
f 59//29 60//29 58//29
f 57//28 58//28 56//28
f 55//27 56//27 54//27
f 53//26 54//26 52//26
f 55//51 101//51 102//51
f 61//51 59//51 103//51
f 57//51 102//51 103//51
f 102//51 57//51 55//51
f 41//51 104//51 105//51
f 67//51 65//51 106//51
f 63//51 107//51 106//51
f 107//51 63//51 61//51
f 55//51 53//51 101//51
f 45//51 43//51 105//51
f 105//51 43//51 41//51
f 106//51 65//51 63//51
f 103//51 59//51 57//51
f 47//51 45//51 108//51
f 41//51 39//51 104//51
f 39//51 37//51 109//51
f 33//51 31//51 110//51
f 103//51 107//51 61//51
f 53//51 51//51 111//51
f 49//51 112//51 111//51
f 112//51 49//51 47//51
f 109//51 104//51 39//51
f 35//51 113//51 109//51
f 113//51 35//51 33//51
f 31//51 29//51 114//51
f 25//51 23//51 115//51
f 111//51 101//51 53//51
f 108//51 112//51 47//51
f 109//51 37//51 35//51
f 114//51 110//51 31//51
f 27//51 116//51 114//51
f 116//51 27//51 25//51
f 97//51 95//51 117//51
f 91//51 118//51 119//51
f 111//51 51//51 49//51
f 110//51 113//51 33//51
f 115//51 116//51 25//51
f 21//51 120//51 115//51
f 19//51 121//51 120//51
f 11//51 9//51 122//51
f 5//51 123//51 124//51
f 3//51 2//51 125//51
f 99//51 126//51 125//51
f 126//51 99//51 97//51
f 95//51 93//51 119//51
f 119//51 93//51 91//51
f 89//51 87//51 127//51
f 69//51 128//51 129//51
f 105//51 108//51 45//51
f 115//51 23//51 21//51
f 120//51 21//51 19//51
f 17//51 15//51 130//51
f 13//51 131//51 130//51
f 131//51 13//51 11//51
f 7//51 124//51 122//51
f 124//51 7//51 5//51
f 125//51 2//51 99//51
f 119//51 117//51 95//51
f 127//51 118//51 89//51
f 85//51 132//51 127//51
f 83//51 81//51 133//51
f 71//51 129//51 134//51
f 129//51 71//51 69//51
f 114//51 29//51 27//51
f 130//51 121//51 17//51
f 122//51 131//51 11//51
f 5//51 3//51 123//51
f 117//51 126//51 97//51
f 127//51 87//51 85//51
f 132//51 85//51 83//51
f 81//51 79//51 135//51
f 75//51 73//51 134//51
f 69//51 67//51 128//51
f 19//51 17//51 121//51
f 122//51 9//51 7//51
f 91//51 89//51 118//51
f 135//51 133//51 81//51
f 77//51 136//51 135//51
f 134//51 73//51 71//51
f 130//51 15//51 13//51
f 133//51 132//51 83//51
f 135//51 79//51 77//51
f 106//51 128//51 67//51
f 77//51 75//51 136//51
f 125//51 123//51 3//51
f 134//51 136//51 75//51
f 123//52 125//52 137//52
f 124//53 123//53 138//53
f 122//54 124//54 139//54
f 131//55 122//55 140//55
f 130//56 131//56 141//56
f 121//57 130//57 142//57
f 120//58 121//58 143//58
f 115//59 120//59 144//59
f 116//60 115//60 145//60
f 114//61 116//61 146//61
f 110//62 114//62 147//62
f 113//63 110//63 148//63
f 109//64 113//64 149//64
f 104//65 109//65 150//65
f 105//66 104//66 151//66
f 108//67 105//67 152//67
f 112//68 108//68 153//68
f 111//69 112//69 154//69
f 154//69 155//69 111//69
f 153//68 154//68 112//68
f 152//67 153//67 108//67
f 151//66 152//66 105//66
f 150//65 151//65 104//65
f 149//64 150//64 109//64
f 148//63 149//63 113//63
f 147//62 148//62 110//62
f 146//61 147//61 114//61
f 145//60 146//60 116//60
f 144//59 145//59 115//59
f 143//58 144//58 120//58
f 142//57 143//57 121//57
f 141//56 142//56 130//56
f 140//55 141//55 131//55
f 139//54 140//54 122//54
f 138//53 139//53 124//53
f 137//52 138//52 123//52
f 101//70 111//70 155//70
f 102//71 101//71 156//71
f 103//72 102//72 157//72
f 107//73 103//73 158//73
f 106//74 107//74 159//74
f 128//75 106//75 160//75
f 129//76 128//76 161//76
f 134//77 129//77 162//77
f 136//78 134//78 163//78
f 135//79 136//79 164//79
f 133//80 135//80 165//80
f 132//81 133//81 166//81
f 127//82 132//82 167//82
f 118//83 127//83 168//83
f 119//84 118//84 169//84
f 117//85 119//85 170//85
f 126//86 117//86 171//86
f 125//87 126//87 172//87
f 172//87 137//87 125//87
f 171//86 172//86 126//86
f 170//85 171//85 117//85
f 169//84 170//84 119//84
f 168//83 169//83 118//83
f 167//82 168//82 127//82
f 166//81 167//81 132//81
f 165//80 166//80 133//80
f 164//79 165//79 135//79
f 163//78 164//78 136//78
f 162//77 163//77 134//77
f 161//76 162//76 129//76
f 160//75 161//75 128//75
f 159//74 160//74 106//74
f 158//73 159//73 107//73
f 157//72 158//72 103//72
f 156//71 157//71 102//71
f 155//70 156//70 101//70
f 54//88 173//88 174//88
f 56//88 175//88 173//88
f 60//88 176//88 177//88
f 62//88 64//88 178//88
f 64//88 66//88 179//88
f 66//88 68//88 180//88
f 70//88 181//88 180//88
f 4//88 182//88 183//88
f 6//88 184//88 182//88
f 50//88 52//88 174//88
f 173//88 54//88 56//88
f 58//88 177//88 175//88
f 177//88 58//88 60//88
f 179//88 178//88 64//88
f 180//88 68//88 70//88
f 72//88 185//88 181//88
f 74//88 186//88 185//88
f 94//88 96//88 187//88
f 100//88 1//88 183//88
f 182//88 4//88 6//88
f 38//88 188//88 189//88
f 40//88 190//88 188//88
f 174//88 52//88 54//88
f 60//88 62//88 176//88
f 180//88 179//88 66//88
f 185//88 72//88 74//88
f 92//88 191//88 192//88
f 191//88 92//88 94//88
f 96//88 98//88 193//88
f 98//88 100//88 194//88
f 183//88 1//88 4//88
f 8//88 195//88 184//88
f 10//88 196//88 195//88
f 32//88 34//88 197//88
f 34//88 36//88 189//88
f 188//88 38//88 40//88
f 42//88 198//88 190//88
f 44//88 46//88 199//88
f 46//88 48//88 200//88
f 48//88 50//88 201//88
f 175//88 56//88 58//88
f 181//88 70//88 72//88
f 78//88 80//88 202//88
f 88//88 203//88 204//88
f 90//88 192//88 203//88
f 187//88 191//88 94//88
f 194//88 193//88 98//88
f 184//88 6//88 8//88
f 195//88 8//88 10//88
f 189//88 197//88 34//88
f 190//88 40//88 42//88
f 198//88 42//88 44//88
f 201//88 200//88 48//88
f 178//88 176//88 62//88
f 76//88 205//88 186//88
f 205//88 76//88 78//88
f 80//88 82//88 206//88
f 203//88 88//88 90//88
f 193//88 187//88 96//88
f 10//88 12//88 196//88
f 12//88 14//88 207//88
f 14//88 16//88 208//88
f 16//88 18//88 209//88
f 26//88 210//88 211//88
f 28//88 30//88 212//88
f 30//88 32//88 213//88
f 189//88 36//88 38//88
f 200//88 199//88 46//88
f 186//88 74//88 76//88
f 206//88 202//88 80//88
f 82//88 84//88 214//88
f 84//88 86//88 204//88
f 192//88 90//88 92//88
f 207//88 196//88 12//88
f 209//88 208//88 16//88
f 20//88 215//88 209//88
f 24//88 211//88 216//88
f 211//88 24//88 26//88
f 213//88 212//88 30//88
f 199//88 198//88 44//88
f 202//88 205//88 78//88
f 204//88 214//88 84//88
f 183//88 194//88 100//88
f 209//88 18//88 20//88
f 22//88 216//88 215//88
f 26//88 28//88 210//88
f 197//88 213//88 32//88
f 214//88 206//88 82//88
f 208//88 207//88 14//88
f 216//88 22//88 24//88
f 174//88 201//88 50//88
f 215//88 20//88 22//88
f 204//88 86//88 88//88
f 212//88 210//88 28//88
f 217//88 218//88 149//88
f 219//88 148//88 147//88
f 148//88 219//88 217//88
f 149//88 148//88 217//88
f 218//88 220//88 150//88
f 150//88 149//88 218//88
f 220//88 221//88 151//88
f 151//88 150//88 220//88
f 222//88 152//88 151//88
f 223//88 153//88 152//88
f 224//88 162//88 161//88
f 225//88 171//88 170//88
f 151//88 221//88 222//88
f 152//88 222//88 223//88
f 226//88 227//88 154//88
f 227//88 228//88 155//88
f 229//88 230//88 158//88
f 161//88 231//88 224//88
f 232//88 233//88 163//88
f 170//88 234//88 225//88
f 235//88 236//88 172//88
f 237//88 238//88 140//88
f 223//88 226//88 153//88
f 155//88 154//88 227//88
f 239//88 157//88 156//88
f 157//88 239//88 229//88
f 163//88 162//88 232//88
f 233//88 240//88 164//88
f 241//88 242//88 167//88
f 242//88 243//88 168//88
f 244//88 169//88 168//88
f 172//88 171//88 235//88
f 236//88 245//88 137//88
f 246//88 139//88 138//88
f 139//88 246//88 237//88
f 238//88 247//88 141//88
f 247//88 248//88 142//88
f 249//88 144//88 143//88
f 154//88 153//88 226//88
f 250//88 156//88 155//88
f 158//88 157//88 229//88
f 230//88 251//88 159//88
f 164//88 163//88 233//88
f 252//88 165//88 164//88
f 253//88 166//88 165//88
f 166//88 253//88 241//88
f 168//88 243//88 244//88
f 234//88 170//88 169//88
f 137//88 172//88 236//88
f 254//88 138//88 137//88
f 140//88 139//88 237//88
f 142//88 141//88 247//88
f 255//88 143//88 142//88
f 143//88 255//88 249//88
f 155//88 228//88 250//88
f 159//88 158//88 230//88
f 251//88 256//88 160//88
f 231//88 161//88 160//88
f 164//88 240//88 252//88
f 167//88 166//88 241//88
f 169//88 244//88 234//88
f 137//88 245//88 254//88
f 141//88 140//88 238//88
f 249//88 257//88 144//88
f 257//88 258//88 145//88
f 258//88 259//88 146//88
f 156//88 250//88 239//88
f 160//88 256//88 231//88
f 165//88 252//88 253//88
f 225//88 235//88 171//88
f 142//88 248//88 255//88
f 146//88 145//88 258//88
f 260//88 147//88 146//88
f 160//88 159//88 251//88
f 168//88 167//88 242//88
f 145//88 144//88 257//88
f 147//88 260//88 219//88
f 138//88 254//88 246//88
f 224//88 232//88 162//88
f 146//88 259//88 260//88
f 254//89 245//89 183//89
f 246//90 254//90 182//90
f 237//91 246//91 184//91
f 238//92 237//92 195//92
f 247//93 238//93 196//93
f 248//56 247//56 207//56
f 255//94 248//94 208//94
f 249//95 255//95 209//95
f 257//96 249//96 215//96
f 258//97 257//97 216//97
f 259//98 258//98 211//98
f 260//99 259//99 210//99
f 219//100 260//100 212//100
f 217//101 219//101 213//101
f 218//102 217//102 197//102
f 220//103 218//103 189//103
f 221//65 220//65 188//65
f 222//104 221//104 190//104
f 223//105 222//105 198//105
f 226//106 223//106 199//106
f 227//107 226//107 200//107
f 228//108 227//108 201//108
f 201//108 174//108 228//108
f 200//107 201//107 227//107
f 199//106 200//106 226//106
f 198//105 199//105 223//105
f 190//104 198//104 222//104
f 188//65 190//65 221//65
f 189//103 188//103 220//103
f 197//102 189//102 218//102
f 213//101 197//101 217//101
f 212//100 213//100 219//100
f 210//99 212//99 260//99
f 211//98 210//98 259//98
f 216//97 211//97 258//97
f 215//96 216//96 257//96
f 209//95 215//95 249//95
f 208//94 209//94 255//94
f 207//56 208//56 248//56
f 196//93 207//93 247//93
f 195//92 196//92 238//92
f 184//91 195//91 237//91
f 182//90 184//90 246//90
f 183//89 182//89 254//89
f 250//109 228//109 174//109
f 239//110 250//110 173//110
f 229//111 239//111 175//111
f 230//112 229//112 177//112
f 251//113 230//113 176//113
f 256//74 251//74 178//74
f 231//114 256//114 179//114
f 224//115 231//115 180//115
f 232//116 224//116 181//116
f 233//117 232//117 185//117
f 240//118 233//118 186//118
f 252//119 240//119 205//119
f 253//120 252//120 202//120
f 241//121 253//121 206//121
f 242//122 241//122 214//122
f 243//123 242//123 204//123
f 244//83 243//83 203//83
f 234//124 244//124 192//124
f 225//125 234//125 191//125
f 235//126 225//126 187//126
f 236//127 235//127 193//127
f 245//128 236//128 194//128
f 194//128 183//128 245//128
f 193//127 194//127 236//127
f 187//126 193//126 235//126
f 191//125 187//125 225//125
f 192//124 191//124 234//124
f 203//83 192//83 244//83
f 204//123 203//123 243//123
f 214//122 204//122 242//122
f 206//121 214//121 241//121
f 202//120 206//120 253//120
f 205//119 202//119 252//119
f 186//118 205//118 240//118
f 185//117 186//117 233//117
f 181//116 185//116 232//116
f 180//115 181//115 224//115
f 179//114 180//114 231//114
f 178//74 179//74 256//74
f 176//113 178//113 251//113
f 177//112 176//112 230//112
f 175//111 177//111 229//111
f 173//110 175//110 239//110
f 174//109 173//109 250//109
#520 polygons

