# Aspose.3D Wavefront OBJ Exporter
# Copyright 2004-2023 Aspose Pty Ltd.
# File created: 06/29/2023 05:39:43


#
# object obj_13774201
#

v -73.99175262451171872 54.63422393798828128 -93.217498779296875
v -74.4052734375 55.27628707885742188 -94.29248046875
v -74.57991027832031248 54.97380065917968752 -94.34780120849609376
v -74.24772644042968752 55.54916381835937504 -94.13193511962890624
v -74.1226959228515625 55.76572036743164064 -93.88187408447265632
v -74.04242706298828125 55.90475845336914064 -93.56678009033203128
v -74.01476287841796875 55.95266723632812496 -93.217498779296875
v -74.04242706298828125 55.90475845336914064 -92.86821746826171872
v -74.1226959228515625 55.76572036743164064 -92.55312347412109376
v -74.24772644042968752 55.54916381835937504 -92.303070068359375
v -74.4052734375 55.27628707885742188 -92.14251708984375
v -74.57991027832031248 54.97380065917968752 -92.08719635009765625
v -74.75455474853515632 54.67131423950195312 -92.14251708984375
v -74.9121017456054688 54.3984336853027344 -92.303070068359375
v -75.03713226318359375 54.18187713623046876 -92.55312347412109376
v -75.117401123046875 54.04283905029296875 -92.86821746826171872
v -75.1450653076171875 53.99493026733398432 -93.217498779296875
v -75.117401123046875 54.04283905029296875 -93.56678009033203128
v -75.03713226318359375 54.18187713623046876 -93.88187408447265632
v -74.9121017456054688 54.3984336853027344 -94.13193511962890624
v -74.75455474853515632 54.67131423950195312 -94.29248046875
v -82.82880401611328128 59.73630142211914064 -92.08719635009765625
v -82.65416717529296872 60.038787841796875 -92.14251708984375
v -82.49662017822265624 60.31166458129882812 -92.303070068359375
v -82.37158966064453128 60.52822113037109376 -92.55312347412109376
v -82.29131317138671876 60.66725921630859376 -92.86821746826171872
v -82.26365661621093752 60.71516799926757816 -93.217498779296875
v -82.29131317138671876 60.66725921630859376 -93.56678009033203128
v -82.37158966064453128 60.52822113037109376 -93.88187408447265632
v -82.49662017822265624 60.31166458129882812 -94.13193511962890624
v -82.65416717529296872 60.038787841796875 -94.29248046875
v -82.82880401611328128 59.73630142211914064 -94.34780120849609376
v -83.003448486328125 59.43381118774414064 -94.29248046875
v -83.1609954833984375 59.1609344482421875 -94.13193511962890624
v -83.28601837158203124 58.94437789916992192 -93.88187408447265632
v -83.36629486083984376 58.80533981323242192 -93.56678009033203128
v -83.39395904541015624 58.75743103027343744 -93.217498779296875
v -83.36629486083984376 58.80533981323242192 -92.86821746826171872
v -83.28601837158203124 58.94437789916992192 -92.55312347412109376
v -83.1609954833984375 59.1609344482421875 -92.303070068359375
v -83.003448486328125 59.43381118774414064 -92.14251708984375
v -92.61006927490234376 42.79465866088867184 -92.86821746826171872
v -79.65380859375 65.23555755615234376 -90.04250335693359375
v -96.32255554199218752 36.36444091796875 -90.04250335693359375
v -93.68504333496093752 40.9327392578125 -92.86821746826171872
v -93.71270751953125 40.88483047485351568 -93.217498779296875
v -93.32219696044921876 41.5612144470214844 -92.14251708984375
v -93.47974395751953128 41.28833770751953124 -92.303070068359375
v -92.58240509033203128 42.84256744384765632 -93.217498779296875
v -93.60477447509765624 41.07177734375 -92.55312347412109376
v -93.147552490234375 41.86370086669921872 -92.08719635009765625
v -92.69033813476562496 42.65562057495117184 -92.55312347412109376
v -92.81536865234375008 42.43906402587890624 -92.303070068359375
v -92.61006927490234376 42.79465866088867184 -93.56678009033203128
v -92.97291564941406256 42.16618728637695312 -92.14251708984375
v -96.32255554199218752 36.36444091796875 -96.39250183105468752
v -92.97291564941406256 42.16618728637695312 -94.29248046875
v -92.81536865234375008 42.43906402587890624 -94.13193511962890624
v -93.147552490234375 41.86370086669921872 -94.34780120849609376
v -93.68504333496093752 40.9327392578125 -93.56678009033203128
v -79.65380859375 65.23555755615234376 -96.39250183105468752
v -92.69033813476562496 42.65562057495117184 -93.88187408447265632
v -93.47974395751953128 41.28833770751953124 -94.13193511962890624
v -93.32219696044921876 41.5612144470214844 -94.29248046875
v -93.60477447509765624 41.07177734375 -93.88187408447265632
v -71.40491485595703128 60.47306060791015624 -90.04250335693359375
v -71.40491485595703128 60.47306060791015624 -96.39250183105468752
v -88.07366180419921875 31.60193824768066408 -96.39250183105468752
v -88.07366180419921875 31.60193824768066408 -90.04250335693359375
v -84.72402191162109376 37.4036865234375 -92.14251708984375
v -84.89866638183593744 37.10120010375976562 -92.08719635009765625
v -84.56647491455078128 37.67656326293945312 -92.303070068359375
v -84.44144439697265624 37.89311981201171872 -92.55312347412109376
v -84.36117553710937504 38.03215789794921875 -92.86821746826171872
v -84.33351135253906248 38.08007049560546875 -93.217498779296875
v -84.36117553710937504 38.03215789794921875 -93.56678009033203128
v -84.44144439697265624 37.89311981201171872 -93.88187408447265632
v -84.56647491455078128 37.67656326293945312 -94.13193511962890624
v -84.72402191162109376 37.4036865234375 -94.29248046875
v -84.89866638183593744 37.10120010375976562 -94.34780120849609376
v -85.07330322265625 36.7987136840820312 -94.29248046875
v -85.23085021972656248 36.52583694458007816 -94.13193511962890624
v -85.35588073730468752 36.30928039550781248 -93.88187408447265632
v -85.4361572265625 36.1702423095703125 -93.56678009033203128
v -85.46381378173828128 36.12233352661132812 -93.217498779296875
v -85.4361572265625 36.1702423095703125 -92.86821746826171872
v -85.35588073730468752 36.30928039550781248 -92.55312347412109376
v -85.23085021972656248 36.52583694458007816 -92.303070068359375
v -85.07330322265625 36.7987136840820312 -92.14251708984375
v -84.31050109863281248 36.76162338256835936 -93.217498779296875
v -92.83616638183593744 23.35304641723632812 -82.42250061035156248
v -90.94548034667968752 26.6278095245361328 -84.16539764404296876
v -91.38802337646484376 25.86130142211914064 -84.61637115478515624
v -88.07366180419921875 31.60193824768066408 -82.42250061035156248
v -90.45491027832031248 27.47749328613281248 -84.01000213623046875
v -89.9643478393554688 28.32717514038085936 -84.16539764404296876
v -89.17060089111328124 29.70199012756347656 -85.31877899169921876
v -89.52180480957031248 29.09368515014648438 -84.61637115478515624
v -89.02616119384765625 29.9521598815917968 -98.29750061035156248
v -89.52180480957031248 29.09368515014648438 -96.10363006591796876
v -92.83616638183593744 23.35304641723632812 -95.12249755859375
v -92.04241180419921875 24.72786331176757808 -87.18499755859375
v -88.86741638183593744 30.22712326049804688 -87.18499755859375
v -88.86741638183593744 30.22712326049804688 -93.53500366210937504
v -89.9643478393554688 28.32717514038085936 -96.55460357666015624
v -91.24866485595703124 26.10267829895019532 -98.29750061035156248
v -91.73922729492187504 25.25299453735351564 -95.40121459960937504
v -92.04241180419921875 24.72786331176757808 -93.53500366210937504
v -91.73922729492187504 25.25299453735351564 -85.31877899169921876
v -89.17060089111328124 29.70199012756347656 -95.40121459960937504
v -90.45491027832031248 27.47749328613281248 -96.70999908447265624
v -91.9647140502929688 24.8624382019042968 -94.51612854003906248
v -91.9647140502929688 24.8624382019042968 -86.20387268066406248
v -88.94511413574218752 30.09254646301269532 -86.20387268066406248
v -88.94511413574218752 30.09254646301269532 -94.51612854003906248
v -91.38802337646484376 25.86130142211914064 -96.10363006591796876
v -90.94548034667968752 26.6278095245361328 -96.55460357666015624
v -79.3079833984375 15.5425472259521484 -82.42250061035156248
v -79.3079833984375 15.5425472259521484 -95.12249755859375
v -75.49797821044921872 22.14166069030761718 -98.29750061035156248
v -77.72048187255859376 18.2921772003173828 -98.29750061035156248
v -74.54547882080078128 23.79143905639648432 -82.42250061035156248
v -74.54547882080078128 23.79143905639648432 -90.04250335693359375
v -74.54547882080078128 23.79143905639648432 -96.39250183105468752
v -88.74285888671875008 22.82286262512207024 -93.53500366210937504
v -88.74285888671875008 22.82286262512207024 -87.18499755859375
v -88.6651611328125 22.95743942260742192 -94.51612854003906248
v -88.43967437744140624 23.34799575805664064 -95.40121459960937504
v -88.08846282958984375 23.9563007354736328 -96.10363006591796876
v -87.64591979980468752 24.72281074523925776 -96.55460357666015624
v -87.15535736083984376 25.57249259948730472 -96.70999908447265624
v -86.664794921875 26.4221763610839844 -96.55460357666015624
v -86.22225189208984376 27.18868446350097656 -96.10363006591796876
v -85.87104034423828128 27.7969913482666016 -95.40121459960937504
v -85.64555358886718752 28.18754768371582032 -94.51612854003906248
v -85.56785583496093752 28.32212448120117188 -93.53500366210937504
v -85.56785583496093752 28.32212448120117188 -87.18499755859375
v -85.64555358886718752 28.18754768371582032 -86.20387268066406248
v -85.87104034423828128 27.7969913482666016 -85.31877899169921876
v -86.22225189208984376 27.18868446350097656 -84.61637115478515624
v -86.664794921875 26.4221763610839844 -84.16539764404296876
v -87.15535736083984376 25.57249259948730472 -84.01000213623046875
v -87.64591979980468752 24.72281074523925776 -84.16539764404296876
v -88.08846282958984375 23.9563007354736328 -84.61637115478515624
v -88.43967437744140624 23.34799575805664064 -85.31877899169921876
v -88.6651611328125 22.95743942260742192 -86.20387268066406248
v -86.41558837890625 26.85380363464355472 -94.60993957519531248
v -86.28571319580078124 27.07876396179199219 -94.100128173828125
v -86.61788940429687504 26.5034198760986328 -95.0145263671875
v -87.43791961669921872 25.08307647705078125 -88.92429351806640624
v -87.43791961669921872 25.08307647705078125 -91.79570770263671872
v -87.69282531738281248 24.64156532287597656 -92.05547332763671875
v -87.15535736083984376 25.57249259948730472 -89.01380157470703125
v -87.15535736083984376 25.57249259948730472 -91.70619964599609376
v -86.8727951049804688 26.06191062927246094 -95.2742919921875
v -87.15535736083984376 25.57249259948730472 -95.36380004882812496
v -87.43791961669921872 25.08307647705078125 -95.2742919921875
v -87.89511871337890624 24.29118156433105468 -92.46006011962890624
v -87.89511871337890624 24.29118156433105468 -88.25994110107421876
v -87.69282531738281248 24.64156532287597656 -88.66452789306640624
v -86.8727951049804688 26.06191062927246094 -88.92429351806640624
v -86.8727951049804688 26.06191062927246094 -91.79570770263671872
v -87.69282531738281248 24.64156532287597656 -95.0145263671875
v -87.89511871337890624 24.29118156433105468 -94.60993957519531248
v -88.02500152587890625 24.06622123718261719 -94.100128173828125
v -88.06975555419921875 23.98870658874511712 -93.53500366210937504
v -88.02500152587890625 24.06622123718261719 -92.96987152099609376
v -86.41558837890625 26.85380363464355472 -92.46006011962890624
v -86.41558837890625 26.85380363464355472 -88.25994110107421876
v -86.61788940429687504 26.5034198760986328 -88.66452789306640624
v -86.61788940429687504 26.5034198760986328 -92.05547332763671875
v -86.28571319580078124 27.07876396179199219 -92.96987152099609376
v -88.02500152587890625 24.06622123718261719 -87.7501296997070312
v -88.02500152587890625 24.06622123718261719 -86.619873046875
v -88.06975555419921875 23.98870658874511712 -87.18499755859375
v -87.89511871337890624 24.29118156433105468 -86.1100616455078125
v -87.69282531738281248 24.64156532287597656 -85.70546722412109376
v -87.43791961669921872 25.08307647705078125 -85.44570922851562496
v -87.15535736083984376 25.57249259948730472 -85.356201171875
v -86.8727951049804688 26.06191062927246094 -85.44570922851562496
v -86.28571319580078124 27.07876396179199219 -87.7501296997070312
v -86.24095916748046876 27.156280517578125 -93.53500366210937504
v -86.61788940429687504 26.5034198760986328 -85.70546722412109376
v -86.41558837890625 26.85380363464355472 -86.1100616455078125
v -86.28571319580078124 27.07876396179199219 -86.619873046875
v -86.24095916748046876 27.156280517578125 -87.18499755859375
v -76.6441650390625 20.15641021728515624 -85.44570922851562496
v -76.92673492431640624 19.6669921875 -85.356201171875
v -76.38925933837890624 20.59791946411132816 -85.70546722412109376
v -76.18696594238281248 20.94830322265624992 -86.1100616455078125
v -76.0570831298828125 21.1732635498046875 -86.619873046875
v -76.0123291015625 21.25078010559082032 -87.18499755859375
v -76.0570831298828125 21.1732635498046875 -87.7501296997070312
v -76.18696594238281248 20.94830322265624992 -88.25994110107421876
v -76.38925933837890624 20.59791946411132816 -88.66452789306640624
v -76.6441650390625 20.15641021728515624 -88.92429351806640624
v -76.92673492431640624 19.6669921875 -89.01380157470703125
v -77.20929718017578124 19.17757606506347656 -88.92429351806640624
v -77.46420288085937504 18.73606681823730464 -88.66452789306640624
v -77.66649627685546872 18.3856830596923828 -88.25994110107421876
v -77.7963790893554688 18.16072273254394532 -87.7501296997070312
v -77.84113311767578128 18.0832061767578125 -87.18499755859375
v -77.7963790893554688 18.16072273254394532 -86.619873046875
v -77.66649627685546872 18.3856830596923828 -86.1100616455078125
v -77.46420288085937504 18.73606681823730464 -85.70546722412109376
v -77.20929718017578124 19.17757606506347656 -85.44570922851562496
v -76.6441650390625 20.15641021728515624 -91.79570770263671872
v -76.92673492431640624 19.6669921875 -91.70619964599609376
v -76.38925933837890624 20.59791946411132816 -92.05547332763671875
v -76.18696594238281248 20.94830322265624992 -92.46006011962890624
v -76.0570831298828125 21.1732635498046875 -92.96987152099609376
v -76.0123291015625 21.25078010559082032 -93.53500366210937504
v -76.0570831298828125 21.1732635498046875 -94.100128173828125
v -76.18696594238281248 20.94830322265624992 -94.60993957519531248
v -76.38925933837890624 20.59791946411132816 -95.0145263671875
v -76.6441650390625 20.15641021728515624 -95.2742919921875
v -76.92673492431640624 19.6669921875 -95.36380004882812496
v -77.20929718017578124 19.17757606506347656 -95.2742919921875
v -77.46420288085937504 18.73606681823730464 -95.0145263671875
v -77.66649627685546872 18.3856830596923828 -94.60993957519531248
v -77.7963790893554688 18.16072273254394532 -94.100128173828125
v -77.84113311767578128 18.0832061767578125 -93.53500366210937504
v -77.7963790893554688 18.16072273254394532 -92.96987152099609376
v -77.66649627685546872 18.3856830596923828 -92.46006011962890624
v -77.46420288085937504 18.73606681823730464 -92.05547332763671875
v -77.20929718017578124 19.17757606506347656 -91.79570770263671872
v -74.41847991943359376 24.01140975952148437 -96.39250183105468752
v -74.41847991943359376 24.01140975952148437 -90.04250335693359375
v -61.33086013793945312 16.4552669525146484 -96.39250183105468752
v -61.33086013793945312 16.4552669525146484 -90.04250335693359375
v -59.80580902099609376 21.342803955078125 -96.39250183105468752
v -57.8919601440429688 26.09158897399902344 -96.39250183105468752
v -57.8919601440429688 26.09158897399902344 -90.04250335693359375
v -59.80580902099609376 21.342803955078125 -90.04250335693359375
v -71.9157638549804688 34.18824005126953124 -90.04250335693359375
v -68.26151275634765624 32.07845687866210938 -93.217498779296875
v -68.26151275634765624 32.07845687866210938 -96.39250183105468752
v -71.9157638549804688 34.18824005126953124 -93.217498779296875
v -70.77457427978515632 31.26924896240234376 -93.217498779296875
v -73.40805816650390624 31.0821533203125 -93.217498779296875
v -70.77457427978515632 31.26924896240234376 -96.39250183105468752
v -76.01027679443359375 31.52794456481933592 -93.217498779296875
v -73.40805816650390624 31.0821533203125 -96.39250183105468752
v -78.43132019042968752 32.58094406127929688 -93.217498779296875
v -76.01027679443359375 31.52794456481933592 -96.39250183105468752
v -80.53172302246093752 34.18049240112304688 -93.217498779296875
v -78.43132019042968752 32.58094406127929688 -96.39250183105468752
v -82.19049835205078124 36.23444747924804688 -93.217498779296875
v -80.53172302246093752 34.18049240112304688 -96.39250183105468752
v -83.31208038330078124 38.62449264526367184 -93.217498779296875
v -82.19049835205078124 36.23444747924804688 -96.39250183105468752
v -83.83187103271484368 41.21294403076171876 -93.217498779296875
v -83.31208038330078124 38.62449264526367184 -96.39250183105468752
v -83.71991729736328128 43.85069274902343744 -93.217498779296875
v -83.83187103271484368 41.21294403076171876 -96.39250183105468752
v -82.98268127441406256 46.38579559326171872 -93.217498779296875
v -83.71991729736328128 43.85069274902343744 -96.39250183105468752
v -81.66261291503906248 48.67221069335937504 -93.217498779296875
v -82.98268127441406256 46.38579559326171872 -96.39250183105468752
v -79.83577728271484368 50.57823181152343752 -93.217498779296875
v -81.66261291503906248 48.67221069335937504 -96.39250183105468752
v -77.60739135742187504 51.99405670166015632 -93.217498779296875
v -79.83577728271484368 50.57823181152343752 -96.39250183105468752
v -75.1058349609375 52.838134765625 -93.217498779296875
v -77.60739135742187504 51.99405670166015632 -96.39250183105468752
v -72.47520446777343752 53.06183242797851562 -93.217498779296875
v -75.1058349609375 52.838134765625 -96.39250183105468752
v -69.86703491210937504 52.65227127075195312 -93.217498779296875
v -72.47520446777343752 53.06183242797851562 -96.39250183105468752
v -67.43158721923828128 51.63304138183593752 -93.217498779296875
v -69.86703491210937504 52.65227127075195312 -96.39250183105468752
v -65.30913543701171876 50.06285476684570312 -93.217498779296875
v -67.43158721923828128 51.63304138183593752 -96.39250183105468752
v -63.62196350097656248 48.03216552734375 -93.217498779296875
v -65.30913543701171876 50.06285476684570312 -96.39250183105468752
v -62.46725082397460936 45.65795135498046872 -93.217498779296875
v -63.62196350097656248 48.03216552734375 -96.39250183105468752
v -61.91151428222656256 43.07697677612304688 -93.217498779296875
v -62.46725082397460936 45.65795135498046872 -96.39250183105468752
v -61.91151428222656256 43.07697677612304688 -96.39250183105468752
v -74.10538482666015624 34.22873306274414064 -90.04250335693359375
v -76.200592041015625 34.86603164672851568 -90.04250335693359375
v -74.10538482666015624 34.22873306274414064 -93.217498779296875
v -78.04190826416015625 36.05162811279296875 -90.04250335693359375
v -76.200592041015625 34.86603164672851568 -93.217498779296875
v -79.48915100097656248 37.69526672363281248 -90.04250335693359375
v -78.04190826416015625 36.05162811279296875 -93.217498779296875
v -80.43215942382812496 39.67182922363281248 -90.04250335693359375
v -79.48915100097656248 37.69526672363281248 -93.217498779296875
v -80.79914855957031248 41.83085632324218752 -90.04250335693359375
v -80.43215942382812496 39.67182922363281248 -93.217498779296875
v -80.56217956542968752 44.00798797607421875 -90.04250335693359375
v -80.79914855957031248 41.83085632324218752 -93.217498779296875
v -79.73928833007812496 46.03749847412109375 -90.04250335693359375
v -80.56217956542968752 44.00798797607421875 -93.217498779296875
v -78.39312744140625 47.7648963928222656 -90.04250335693359375
v -79.73928833007812496 46.03749847412109375 -93.217498779296875
v -76.62615966796875 49.058685302734375 -90.04250335693359375
v -78.39312744140625 47.7648963928222656 -93.217498779296875
v -74.57289123535156248 49.82037734985351568 -90.04250335693359375
v -76.62615966796875 49.058685302734375 -93.217498779296875
v -72.38963317871093752 49.99198913574218752 -90.04250335693359375
v -74.57289123535156248 49.82037734985351568 -93.217498779296875
v -70.24257659912109376 49.56045913696289064 -90.04250335693359375
v -72.38963317871093752 49.99198913574218752 -93.217498779296875
v -68.295166015625 48.55863571166992184 -90.04250335693359375
v -70.24257659912109376 49.56045913696289064 -93.217498779296875
v -66.69564056396484376 47.06277847290039062 -90.04250335693359375
v -68.295166015625 48.55863571166992184 -93.217498779296875
v -65.56576538085937504 45.18675994873046876 -90.04250335693359375
v -66.69564056396484376 47.06277847290039062 -93.217498779296875
v -65.56576538085937504 45.18675994873046876 -93.217498779296875
v -51.54195785522460936 37.09011077880859376 -96.39250183105468752
v -51.54195785522460936 37.09011077880859376 -90.04250335693359375
v -48.38631439208984376 41.1219482421875 -96.39250183105468752
v -44.91610717773437504 44.88644790649414064 -96.39250183105468752
v -44.91610717773437504 44.88644790649414064 -90.04250335693359375
v -48.38631439208984376 41.1219482421875 -90.04250335693359375
v -58.00373077392578125 52.44258880615234376 -96.39250183105468752
v -58.00373077392578125 52.44258880615234376 -90.04250335693359375
v -81.15451812744140624 49.89064407348632816 -90.04250335693359375
v -85.7485427856445312 45.75416564941406256 -90.04250335693359375
v -75.039886474609375 31.48397064208984376 -90.04250335693359375
v -82.80165100097656256 45.5997276306152344 -90.04250335693359375
v -80.8913497924804688 48.90846633911132816 -90.04250335693359375
v -80.94456481933593744 47.89303588867187504 -90.04250335693359375
v -64.83908081054687504 48.22903060913085936 -90.04250335693359375
v -62.28259658813476564 45.3897705078125 -90.04250335693359375
v -74.187103271484375 32.03777313232421875 -90.04250335693359375
v -73.20493316650390624 32.30094528198242188 -90.04250335693359375
v -81.3089599609375 46.94374847412109376 -90.04250335693359375
v -81.94886779785156256 46.15353012084960938 -90.04250335693359375
v -64.42146301269531248 50.19374847412109376 -90.04250335693359375
v -64.78585815429687504 49.24446487426757812 -90.04250335693359375
v -64.02210235595703125 46.39407730102539064 -90.04250335693359375
v -64.57590484619140624 47.246856689453125 -90.04250335693359375
v -61.26716613769531248 45.33655548095703124 -90.04250335693359375
v -58.79230117797851568 46.94374847412109376 -90.04250335693359375
v -59.43220901489257816 46.15353012084960938 -90.04250335693359375
v -83.78382873535156256 45.33655548095703124 -90.04250335693359375
v -86.53876495361328128 46.39407730102539064 -90.04250335693359375
v -75.67979431152343752 30.69375038146972656 -90.04250335693359375
v -62.92877578735351568 51.53777313232421872 -90.04250335693359375
v -61.94659805297851568 51.80094528198242192 -90.04250335693359375
v -63.78155517578124992 50.98397064208984368 -90.04250335693359375
v -60.28498840332031248 45.5997276306152344 -90.04250335693359375
v -84.79925537109375008 45.3897705078125 -90.04250335693359375
v -57.87673187255859376 52.66255950927734376 -90.04250335693359375
v -63.23188400268554688 45.75416564941406256 -90.04250335693359375
v -58.42790222167968752 47.89303588867187504 -90.04250335693359375
v -87.09256744384765624 47.246856689453125 -90.04250335693359375
v -60.93116760253906256 51.74773025512695312 -90.04250335693359375
v -58.37468719482421872 48.90846633911132816 -90.04250335693359375
v -59.19166183471679688 50.74342346191406256 -90.04250335693359375
v -58.63785934448242184 49.89064407348632816 -90.04250335693359375
v -76.044189453125 29.74446296691894528 -90.04250335693359375
v -87.302520751953125 49.24446487426757812 -90.04250335693359375
v -86.93812561035156256 50.19374847412109376 -90.04250335693359375
v -87.35573577880859376 48.22903060913085936 -90.04250335693359375
v -75.8342361450195312 27.74685668945312496 -90.04250335693359375
v -76.097412109375 28.72903251647949216 -90.04250335693359375
v -59.98188400268554688 51.38333129882812496 -90.04250335693359375
v -81.70832061767578128 50.74342346191406256 -90.04250335693359375
v -82.49854278564453128 51.38333129882812496 -90.04250335693359375
v -72.52549743652343752 25.8365535736083984 -90.04250335693359375
v -70.69053649902343752 26.65353012084960936 -90.04250335693359375
v -69.68623352050781248 28.39303779602050784 -90.04250335693359375
v -73.54092407226562496 25.8897705078125 -90.04250335693359375
v -71.54331970214843752 26.09972763061523438 -90.04250335693359375
v -70.050628662109375 27.44375038146972656 -90.04250335693359375
v -74.49021148681640624 26.25416755676269532 -90.04250335693359375
v -85.4454345703125 51.53777313232421872 -90.04250335693359375
v -84.4632568359375 51.80094528198242192 -90.04250335693359375
v -72.18949890136718752 32.24773025512695312 -90.04250335693359375
v -69.89618682861328128 30.39064407348632816 -90.04250335693359375
v -69.63301849365234376 29.40846824645996096 -90.04250335693359375
v -71.24021148681640624 31.88333320617675776 -90.04250335693359375
v -70.44998931884765624 31.24342536926269532 -90.04250335693359375
v -83.44783020019531248 51.74773025512695312 -90.04250335693359375
v -86.2982177734375 50.98397064208984368 -90.04250335693359375
v -75.28043365478515624 26.89407539367675776 -90.04250335693359375
v -71.40491485595703128 60.47306060791015624 -82.42250061035156248
v -57.87673187255859376 52.66255950927734376 -82.42250061035156248
v -66.64241027832031248 68.72195434570312496 -82.42250061035156248
v -53.11423110961914062 60.91145324707031248 -82.42250061035156248
v -53.11423110961914062 60.91145324707031248 -95.12249755859375
v -66.64241027832031248 68.72195434570312496 -95.12249755859375
v -54.70173263549804688 58.16182327270507812 -98.29750061035156248
v -68.22991180419921876 65.97232055664062496 -98.29750061035156248
v -56.92423248291015632 54.31233978271484376 -98.29750061035156248
v -70.45241546630859376 62.12284088134765624 -98.29750061035156248
v -57.87673187255859376 52.66255950927734376 -96.39250183105468752
v -83.79608154296875008 50.10933303833007812 -91.71749877929687504
v -84.288177490234375 50.13512039184570312 -91.71749877929687504
v -84.7641525268554688 50.0075836181640625 -91.71749877929687504
v -85.17742156982421876 49.73920440673828128 -91.71749877929687504
v -85.48753356933593752 49.35625076293945312 -91.71749877929687504
v -85.66412353515625 48.89620971679687504 -91.71749877929687504
v -85.68991088867187504 48.4041175842285156 -91.71749877929687504
v -85.5623779296875 47.92813873291015632 -91.71749877929687504
v -85.29399871826171876 47.51486968994140624 -91.71749877929687504
v -84.91104125976562496 47.20476150512695312 -91.71749877929687504
v -84.45100402832031248 47.028167724609375 -91.71749877929687504
v -83.95890808105468752 47.00237655639648437 -91.71749877929687504
v -83.48293304443359376 47.12991714477539062 -91.71749877929687504
v -83.06966400146484375 47.39829635620117184 -91.71749877929687504
v -82.75955200195312496 47.78125 -91.71749877929687504
v -82.58296203613281248 48.24128723144531248 -91.71749877929687504
v -82.55716705322265624 48.73338317871093744 -91.71749877929687504
v -82.68470764160156248 49.20936203002929688 -91.71749877929687504
v -82.95308685302734368 49.62263107299804688 -91.71749877929687504
v -83.33604431152343752 49.9327392578125 -91.71749877929687504
v -84.45100402832031248 47.028167724609375 -96.39250183105468752
v -84.91104125976562496 47.20476150512695312 -96.39250183105468752
v -83.95890808105468752 47.00237655639648437 -96.39250183105468752
v -83.48293304443359376 47.12991714477539062 -96.39250183105468752
v -83.06966400146484375 47.39829635620117184 -96.39250183105468752
v -82.75955200195312496 47.78125 -96.39250183105468752
v -82.58296203613281248 48.24128723144531248 -96.39250183105468752
v -82.55716705322265624 48.73338317871093744 -96.39250183105468752
v -82.68470764160156248 49.20936203002929688 -96.39250183105468752
v -82.95308685302734368 49.62263107299804688 -96.39250183105468752
v -83.33604431152343752 49.9327392578125 -96.39250183105468752
v -83.79608154296875008 50.10933303833007812 -96.39250183105468752
v -84.288177490234375 50.13512039184570312 -96.39250183105468752
v -84.7641525268554688 50.0075836181640625 -96.39250183105468752
v -85.17742156982421876 49.73920440673828128 -96.39250183105468752
v -85.48753356933593752 49.35625076293945312 -96.39250183105468752
v -85.66412353515625 48.89620971679687504 -96.39250183105468752
v -85.68991088867187504 48.4041175842285156 -96.39250183105468752
v -85.5623779296875 47.92813873291015632 -96.39250183105468752
v -85.29399871826171876 47.51486968994140624 -96.39250183105468752
v -61.27942276000976564 50.10933303833007812 -91.71749877929687504
v -61.77151489257812496 50.13512039184570312 -91.71749877929687504
v -62.24749374389648436 50.0075836181640625 -91.71749877929687504
v -62.6607627868652344 49.73920440673828128 -91.71749877929687504
v -62.97087097167968752 49.35625076293945312 -91.71749877929687504
v -63.14746475219726562 48.89620971679687504 -91.71749877929687504
v -63.17325592041015624 48.4041175842285156 -91.71749877929687504
v -63.04571533203125 47.92813873291015632 -91.71749877929687504
v -62.7773361206054688 47.51486968994140624 -91.71749877929687504
v -62.39438247680664064 47.20476150512695312 -91.71749877929687504
v -61.93434143066406256 47.028167724609375 -91.71749877929687504
v -61.44224929809570312 47.00237655639648437 -91.71749877929687504
v -60.96627044677734368 47.12991714477539062 -91.71749877929687504
v -60.55300140380859376 47.39829635620117184 -91.71749877929687504
v -60.24289321899414064 47.78125 -91.71749877929687504
v -60.0662994384765625 48.24128723144531248 -91.71749877929687504
v -60.04050827026367187 48.73338317871093744 -91.71749877929687504
v -60.16804885864257812 49.20936203002929688 -91.71749877929687504
v -60.43642807006835936 49.62263107299804688 -91.71749877929687504
v -60.81938171386718752 49.9327392578125 -91.71749877929687504
v -61.93434143066406256 47.028167724609375 -96.39250183105468752
v -62.39438247680664064 47.20476150512695312 -96.39250183105468752
v -61.44224929809570312 47.00237655639648437 -96.39250183105468752
v -60.96627044677734368 47.12991714477539062 -96.39250183105468752
v -60.55300140380859376 47.39829635620117184 -96.39250183105468752
v -60.24289321899414064 47.78125 -96.39250183105468752
v -60.0662994384765625 48.24128723144531248 -96.39250183105468752
v -60.04050827026367187 48.73338317871093744 -96.39250183105468752
v -60.16804885864257812 49.20936203002929688 -96.39250183105468752
v -60.43642807006835936 49.62263107299804688 -96.39250183105468752
v -60.81938171386718752 49.9327392578125 -96.39250183105468752
v -61.27942276000976564 50.10933303833007812 -96.39250183105468752
v -61.77151489257812496 50.13512039184570312 -96.39250183105468752
v -62.24749374389648436 50.0075836181640625 -96.39250183105468752
v -62.6607627868652344 49.73920440673828128 -96.39250183105468752
v -62.97087097167968752 49.35625076293945312 -96.39250183105468752
v -63.14746475219726562 48.89620971679687504 -96.39250183105468752
v -63.17325592041015624 48.4041175842285156 -96.39250183105468752
v -63.04571533203125 47.92813873291015632 -96.39250183105468752
v -62.7773361206054688 47.51486968994140624 -96.39250183105468752
v -74.40579223632812496 29.39621162414550784 -96.39250183105468752
v -74.304046630859375 28.42814064025878904 -96.39250183105468752
v -74.03566741943359375 28.01486968994140625 -96.39250183105468752
v -73.91909027099609376 30.23920249938964844 -96.39250183105468752
v -74.22920227050781248 29.85625076293945312 -96.39250183105468752
v -74.43158721923828128 28.90411758422851568 -96.39250183105468752
v -72.53775024414062496 30.60933303833007816 -96.39250183105468752
v -73.02984619140625 30.63512229919433592 -96.39250183105468752
v -72.0777130126953125 30.4327392578125 -96.39250183105468752
v -71.81133270263671872 27.89829635620117184 -96.39250183105468752
v -71.501220703125 28.28125 -96.39250183105468752
v -72.70057678222656248 27.5023784637451172 -96.39250183105468752
v -73.50582122802734376 30.50758361816406248 -96.39250183105468752
v -71.42637634277343752 29.70936012268066408 -96.39250183105468752
v -71.69475555419921872 30.12263107299804688 -96.39250183105468752
v -71.29884338378906248 29.23338317871093752 -96.39250183105468752
v -71.32463073730468752 28.74128913879394528 -96.39250183105468752
v -72.22460174560546876 27.62991523742675784 -96.39250183105468752
v -73.19267272949218752 27.52816772460937504 -96.39250183105468752
v -73.6527099609375 27.70475959777832032 -96.39250183105468752
v -73.6527099609375 27.70475959777832032 -91.71749877929687504
v -73.19267272949218752 27.52816772460937504 -91.71749877929687504
v -72.70057678222656248 27.5023784637451172 -91.71749877929687504
v -72.22460174560546876 27.62991523742675784 -91.71749877929687504
v -71.81133270263671872 27.89829635620117184 -91.71749877929687504
v -71.501220703125 28.28125 -91.71749877929687504
v -71.32463073730468752 28.74128913879394528 -91.71749877929687504
v -71.29884338378906248 29.23338317871093752 -91.71749877929687504
v -71.42637634277343752 29.70936012268066408 -91.71749877929687504
v -71.69475555419921872 30.12263107299804688 -91.71749877929687504
v -72.0777130126953125 30.4327392578125 -91.71749877929687504
v -72.53775024414062496 30.60933303833007816 -91.71749877929687504
v -73.02984619140625 30.63512229919433592 -91.71749877929687504
v -73.50582122802734376 30.50758361816406248 -91.71749877929687504
v -73.91909027099609376 30.23920249938964844 -91.71749877929687504
v -74.22920227050781248 29.85625076293945312 -91.71749877929687504
v -74.40579223632812496 29.39621162414550784 -91.71749877929687504
v -74.43158721923828128 28.90411758422851568 -91.71749877929687504
v -74.304046630859375 28.42814064025878904 -91.71749877929687504
v -74.03566741943359375 28.01486968994140625 -91.71749877929687504
v -55.21291732788085936 57.27642440795898436 -88.92429351806640624
v -55.4954795837402344 56.78700637817382816 -89.01380157470703125
v -55.4954795837402344 56.78700637817382816 -91.70619964599609376
v -55.77804565429687504 56.29758834838867188 -91.79570770263671872
v -55.21291732788085936 57.27642440795898436 -91.79570770263671872
v -54.9580116271972656 57.71793365478515624 -88.66452789306640624
v -54.9580116271972656 57.71793365478515624 -92.05547332763671875
v -54.62583541870117184 58.29327774047851564 -87.7501296997070312
v -55.77804565429687504 56.29758834838867188 -88.92429351806640624
v -56.03295135498046875 55.8560791015625 -92.05547332763671875
v -54.58108139038085936 58.3707923889160156 -87.18499755859375
v -54.9580116271972656 57.71793365478515624 -85.70546722412109376
v -54.75571441650390624 58.06831741333007812 -86.1100616455078125
v -54.75571441650390624 58.06831741333007812 -92.46006011962890624
v -54.62583541870117184 58.29327774047851564 -92.96987152099609376
v -56.03295135498046875 55.8560791015625 -88.66452789306640624
v -54.75571441650390624 58.06831741333007812 -88.25994110107421876
v -54.62583541870117184 58.29327774047851564 -86.619873046875
v -54.75571441650390624 58.06831741333007812 -94.60993957519531248
v -54.9580116271972656 57.71793365478515624 -95.0145263671875
v -54.58108139038085936 58.3707923889160156 -93.53500366210937504
v -54.62583541870117184 58.29327774047851564 -94.100128173828125
v -56.40988159179687504 55.20322036743164064 -87.18499755859375
v -56.36512756347656248 55.28073501586914064 -92.96987152099609376
v -55.21291732788085936 57.27642440795898436 -95.2742919921875
v -56.23524475097656248 55.50569534301757816 -88.25994110107421876
v -56.36512756347656248 55.28073501586914064 -87.7501296997070312
v -56.40988159179687504 55.20322036743164064 -93.53500366210937504
v -56.23524475097656248 55.50569534301757816 -92.46006011962890624
v -55.4954795837402344 56.78700637817382816 -85.356201171875
v -55.21291732788085936 57.27642440795898436 -85.44570922851562496
v -56.03295135498046875 55.8560791015625 -85.70546722412109376
v -55.77804565429687504 56.29758834838867188 -85.44570922851562496
v -56.36512756347656248 55.28073501586914064 -94.100128173828125
v -56.36512756347656248 55.28073501586914064 -86.619873046875
v -56.23524475097656248 55.50569534301757816 -86.1100616455078125
v -56.23524475097656248 55.50569534301757816 -94.60993957519531248
v -55.4954795837402344 56.78700637817382816 -95.36380004882812496
v -55.77804565429687504 56.29758834838867188 -95.2742919921875
v -56.03295135498046875 55.8560791015625 -95.0145263671875
v -65.72410583496093744 62.6925086975097656 -85.356201171875
v -65.44154357910156248 63.18192291259765624 -85.44570922851562496
v -65.18663787841796876 63.62343215942382816 -85.70546722412109376
v -64.98434448242187504 63.97381591796875008 -86.1100616455078125
v -64.85446166992187504 64.19877624511718752 -86.619873046875
v -64.80970764160156256 64.27629089355468752 -87.18499755859375
v -64.85446166992187504 64.19877624511718752 -87.7501296997070312
v -64.98434448242187504 63.97381591796875008 -88.25994110107421876
v -65.18663787841796876 63.62343215942382816 -88.66452789306640624
v -65.44154357910156248 63.18192291259765624 -88.92429351806640624
v -65.72410583496093744 62.6925086975097656 -89.01380157470703125
v -66.00667572021484375 62.20309066772460936 -88.92429351806640624
v -66.26158142089843752 61.76158142089843744 -88.66452789306640624
v -66.46387481689453128 61.4111976623535156 -88.25994110107421876
v -66.59375 61.18623733520507812 -87.7501296997070312
v -66.63850402832031248 61.1087188720703125 -87.18499755859375
v -66.59375 61.18623733520507812 -86.619873046875
v -66.46387481689453128 61.4111976623535156 -86.1100616455078125
v -66.26158142089843752 61.76158142089843744 -85.70546722412109376
v -66.00667572021484375 62.20309066772460936 -85.44570922851562496
v -65.72410583496093744 62.6925086975097656 -91.70619964599609376
v -65.44154357910156248 63.18192291259765624 -91.79570770263671872
v -65.18663787841796876 63.62343215942382816 -92.05547332763671875
v -64.98434448242187504 63.97381591796875008 -92.46006011962890624
v -64.85446166992187504 64.19877624511718752 -92.96987152099609376
v -64.80970764160156256 64.27629089355468752 -93.53500366210937504
v -64.85446166992187504 64.19877624511718752 -94.100128173828125
v -64.98434448242187504 63.97381591796875008 -94.60993957519531248
v -65.18663787841796876 63.62343215942382816 -95.0145263671875
v -65.44154357910156248 63.18192291259765624 -95.2742919921875
v -65.72410583496093744 62.6925086975097656 -95.36380004882812496
v -66.00667572021484375 62.20309066772460936 -95.2742919921875
v -66.26158142089843752 61.76158142089843744 -95.0145263671875
v -66.46387481689453128 61.4111976623535156 -94.60993957519531248
v -66.59375 61.18623733520507812 -94.100128173828125
v -66.63850402832031248 61.1087188720703125 -93.53500366210937504
v -66.59375 61.18623733520507812 -92.96987152099609376
v -66.46387481689453128 61.4111976623535156 -92.46006011962890624
v -66.26158142089843752 61.76158142089843744 -92.05547332763671875
v -66.00667572021484375 62.20309066772460936 -91.79570770263671872
v -70.30797576904296876 62.37300872802734376 -95.40121459960937504
v -69.95677185058593744 62.9813156127929688 -96.10363006591796876
v -70.61116027832031248 61.84787750244140624 -87.18499755859375
v -70.61116027832031248 61.84787750244140624 -93.53500366210937504
v -70.53346252441406248 61.98245239257812496 -86.20387268066406248
v -70.53346252441406248 61.98245239257812496 -94.51612854003906248
v -69.95677185058593744 62.9813156127929688 -84.61637115478515624
v -70.30797576904296876 62.37300872802734376 -85.31877899169921876
v -68.53309631347656248 65.44718933105468752 -84.16539764404296876
v -69.0236663818359375 64.59750366210937504 -84.01000213623046875
v -69.51422882080078128 63.74782562255859376 -96.55460357666015624
v -69.0236663818359375 64.59750366210937504 -96.70999908447265624
v -69.51422882080078128 63.74782562255859376 -84.16539764404296876
v -68.09055328369140624 66.21369934082031248 -84.61637115478515624
v -67.43616485595703128 67.347137451171875 -93.53500366210937504
v -67.43616485595703128 67.347137451171875 -87.18499755859375
v -68.09055328369140624 66.21369934082031248 -96.10363006591796876
v -67.73934936523437504 66.82200622558593744 -95.40121459960937504
v -68.53309631347656248 65.44718933105468752 -96.55460357666015624
v -67.51386260986328128 67.21256256103515624 -86.20387268066406248
v -67.73934936523437504 66.82200622558593744 -85.31877899169921876
v -67.51386260986328128 67.21256256103515624 -94.51612854003906248
v -67.31160736083984376 59.9428749084472656 -93.53500366210937504
v -67.31160736083984376 59.9428749084472656 -87.18499755859375
v -67.23390960693359376 60.07745361328125 -86.20387268066406248
v -67.0084228515625 60.46800994873046872 -85.31877899169921876
v -66.65721893310546872 61.07631301879882812 -84.61637115478515624
v -64.13660430908203124 65.442138671875 -93.53500366210937504
v -67.0084228515625 60.46800994873046872 -95.40121459960937504
v -67.23390960693359376 60.07745361328125 -94.51612854003906248
v -64.13660430908203124 65.442138671875 -87.18499755859375
v -66.21466827392578124 61.84282302856445312 -84.16539764404296876
v -65.23354339599609376 63.54219055175781248 -84.16539764404296876
v -64.79100036621093744 64.30870056152343752 -84.61637115478515624
v -64.21430206298828124 65.30756378173828124 -94.51612854003906248
v -64.43979644775390624 64.91700744628906256 -95.40121459960937504
v -64.79100036621093744 64.30870056152343752 -96.10363006591796876
v -65.23354339599609376 63.54219055175781248 -96.55460357666015624
v -65.72410583496093744 62.6925086975097656 -96.70999908447265624
v -66.21466827392578124 61.84282302856445312 -96.55460357666015624
v -66.65721893310546872 61.07631301879882812 -96.10363006591796876
v -64.43979644775390624 64.91700744628906256 -85.31877899169921876
v -64.21430206298828124 65.30756378173828124 -86.20387268066406248
v -65.72410583496093744 62.6925086975097656 -84.01000213623046875
# 636 vertices

vn -0.78052306175231936 0.35675346851348876 0.51333296298980712
vn -0.85784769058227536 0.22282323241233824 0.4630843698978424
vn -0.92362397909164432 0.10889537632465362 0.36750581860542296
vn -0.97141325473785408 0.0261219423264265 0.23595327138900756
vn -0.9965375661849976 -0.01739462837576866 0.08130395412445068
vn -0.9965375661849976 -0.01739462837576866 -0.08130395412445068
vn -0.97141325473785408 0.0261219423264265 -0.23595327138900756
vn -0.92362397909164432 0.10889537632465362 -0.36750581860542296
vn -0.85784769058227536 0.22282323241233824 -0.4630843698978424
vn -0.78052306175231936 0.35675346851348876 -0.51333296298980712
vn -0.69921910762786864 0.4975760579109192 -0.51333296298980712
vn -0.62189441919326784 0.63150626420974728 -0.4630843698978424
vn -0.55611813068389896 0.74543416500091552 -0.36750581860542296
vn -0.508328914642334 0.82820755243301392 -0.23595327138900756
vn -0.48320457339286808 0.87172412872314448 -0.08130395412445068
vn -0.48320457339286808 0.87172412872314448 0.08130395412445068
vn -0.508328914642334 0.82820755243301392 0.23595327138900756
vn -0.55611813068389896 0.74543416500091552 0.36750581860542296
vn -0.62189441919326784 0.63150626420974728 0.4630843698978424
vn -0.69921910762786864 0.4975760579109192 0.51333296298980712
vn -0.07821723073720932 -0.13547621667385102 -0.9876883625984192
vn -0.22699524462223052 -0.39316731691360472 -0.8910065293312072
vn -0.3535533845424652 -0.6123724579811096 -0.7071067690849304
vn -0.4455032646656036 -0.77163428068161008 -0.45399048924446104
vn -0.4938441812992096 -0.85536319017410272 -0.15643446147441864
vn -0.4938441812992096 -0.85536319017410272 0.15643446147441864
vn -0.4455032646656036 -0.77163428068161008 0.45399048924446104
vn -0.3535533845424652 -0.6123724579811096 0.7071067690849304
vn -0.22699524462223052 -0.39316731691360472 0.8910065293312072
vn -0.07821723073720932 -0.13547621667385102 0.9876883625984192
vn 0.07821723073720932 0.13547621667385102 0.9876883625984192
vn 0.22699524462223052 0.39316731691360472 0.8910065293312072
vn 0.3535533845424652 0.6123724579811096 0.7071067690849304
vn 0.4455032646656036 0.77163428068161008 0.45399048924446104
vn 0.4938441812992096 0.85536319017410272 0.15643446147441864
vn 0.4938441812992096 0.85536319017410272 -0.15643446147441864
vn 0.4455032646656036 0.77163428068161008 -0.45399048924446104
vn 0.3535533845424652 0.6123724579811096 -0.7071067690849304
vn 0.22699524462223052 0.39316731691360472 -0.8910065293312072
vn 0.07821723073720932 0.13547621667385102 -0.9876883625984192
vn -0.86602538824081424 0.5 0
vn 0.5 0.86602538824081424 0
vn -0.5 -0.86602538824081424 0
vn 0 0 -1
vn 0 0 1
vn 0.86602538824081424 -0.5 0
vn 0.92750811576843264 -0.37380304932594296 0
vn 0.95460808277130128 -0.29786476492881776 0
vn -0.30650314688682556 0.95186966657638544 0
vn -0.07086651027202606 0.99748581647872928 0
vn 0.16885243356227874 0.98564136028289792 0
vn 0.39884454011917112 0.91701853275299072 0
vn 0.6058610677719116 0.79557049274444576 0
vn 0.77797663211822512 0.62829321622848512 0
vn 0.90527653694152832 0.42482280731201168 0
vn 0.98042756319046016 0.19688029587268828 0
vn 0.99910056591033936 -0.04240359738469124 0
vn 0.96021991968154912 -0.27924481034278868 0
vn 0.7219430804252624 -0.69195246696472168 0
vn 0.53627288341522216 -0.8440446853637696 0
vn 0.31971043348312376 -0.94751530885696416 0
vn 0.08473091572523117 -0.9964038729667664 0
vn -0.1551295518875122 -0.98789411783218384 0
vn -0.38605371117591856 -0.92247629165649408 0
vn -0.5947390794754028 -0.80391877889633184 0
vn -0.76916420459747312 -0.63905113935470584 0
vn -0.89928132295608528 -0.43737071752548216 0
vn -0.97759485244750976 -0.21049529314041136 0
vn 0.01849020272493362 0.99982905387878416 0
vn 0.29100623726844788 0.9567211270332336 0
vn 0.54136991500854496 0.84078449010848992 0
vn 0.75052279233932496 0.66084456443786624 0
vn 0.9025433659553528 0.43059900403022768 0
vn 0.9858593344688416 0.16757480800151824 0
vn 0.99412852525711056 -0.10820573568344116 0
vn 0.92672133445739744 -0.37574928998947144 0
vn 0.78876912593841552 -0.61468958854675296 0
vn 0.59077316522598264 -0.80683767795562752 0
vn 0.34780564904212952 -0.93756663799285888 0
vn 0.07836200296878815 -0.9969249963760376 0
vn -0.19704681634902956 -0.98039406538009648 0
vn -0.45745578408241272 -0.88923239707946784 0
vn -0.68304169178009032 -0.73037940263748176 0
vn -0.85663223266601568 -0.51592749357223512 0
vn 0.7352625131607056 -0.67778247594833376 0
vn 0.78747695684432976 -0.61634403467178344 0
vn -0.25496909022331236 -0.66421717405319216 0.70271348953247072
vn -0.03723561763763427 -0.71049785614013672 0.70271348953247072
vn 0.18414273858070372 -0.68723005056381224 0.70271348953247072
vn 0.38749593496322632 -0.59669142961502072 0.70271348953247072
vn 0.55291831493377688 -0.44774442911148072 0.70271348953247072
vn 0.66421717405319216 -0.25496909022331236 0.70271348953247072
vn 0.71049785614013672 -0.03723561763763427 0.70271348953247072
vn 0.68723005056381224 0.18414273858070372 0.70271348953247072
vn 0.59669142961502072 0.38749593496322632 0.70271348953247072
vn 0.44774442911148072 0.55291831493377688 0.70271348953247072
vn 0.25496909022331236 0.66421717405319216 0.70271348953247072
vn 0.03723561763763427 0.71049785614013672 0.70271348953247072
vn -0.18414273858070372 0.68723005056381224 0.70271348953247072
vn -0.38749593496322632 0.59669142961502072 0.70271348953247072
vn -0.55291831493377688 0.44774442911148072 0.70271348953247072
vn -0.66421717405319216 0.25496909022331236 0.70271348953247072
vn -0.71049785614013672 0.03723561763763427 0.70271348953247072
vn -0.68723005056381224 -0.18414273858070372 0.70271348953247072
vn -0.59669142961502072 -0.38749593496322632 0.70271348953247072
vn -0.44774442911148072 -0.55291831493377688 0.70271348953247072
vn 0.3583679497241974 0.93358039855957024 0
vn 0.0523359552025795 0.99862951040267952 0
vn -0.25881904363632204 0.96592581272125248 0
vn -0.5446390509605408 0.83867055177688592 0
vn -0.7771459817886352 0.62932038307189944 0
vn -0.93358039855957024 0.3583679497241974 0
vn -0.99862951040267952 0.0523359552025795 0
vn -0.96592581272125248 -0.25881904363632204 0
vn -0.83867055177688592 -0.5446390509605408 0
vn -0.62932038307189944 -0.7771459817886352 0
vn -0.3583679497241974 -0.93358039855957024 0
vn -0.0523359552025795 -0.99862951040267952 0
vn 0.25881904363632204 -0.96592581272125248 0
vn 0.5446390509605408 -0.83867055177688592 0
vn 0.7771459817886352 -0.62932038307189944 0
vn 0.93358039855957024 -0.3583679497241974 0
vn 0.99862951040267952 -0.0523359552025795 0
vn 0.96592581272125248 0.25881904363632204 0
vn 0.83867055177688592 0.5446390509605408 0
vn 0.62932038307189944 0.7771459817886352 0
# 126 vertex normals

g obj_13774201
s 1
f 1//1 2//1 3//1
f 1//2 4//2 2//2
f 1//3 5//3 4//3
f 1//4 6//4 5//4
f 1//5 7//5 6//5
f 1//6 8//6 7//6
f 1//7 9//7 8//7
f 1//8 10//8 9//8
f 1//9 11//9 10//9
f 1//10 12//10 11//10
f 1//11 13//11 12//11
f 1//12 14//12 13//12
f 1//13 15//13 14//13
f 1//14 16//14 15//14
f 1//15 17//15 16//15
f 1//16 18//16 17//16
f 1//17 19//17 18//17
f 1//18 20//18 19//18
f 1//19 21//19 20//19
f 1//20 3//20 21//20
f 11//21 12//21 22//21
f 10//22 11//22 23//22
f 9//23 10//23 24//23
f 8//24 9//24 25//24
f 7//25 8//25 26//25
f 6//26 7//26 27//26
f 5//27 6//27 28//27
f 4//28 5//28 29//28
f 2//29 4//29 30//29
f 3//30 2//30 31//30
f 21//31 3//31 32//31
f 20//32 21//32 33//32
f 19//33 20//33 34//33
f 18//34 19//34 35//34
f 17//35 18//35 36//35
f 16//36 17//36 37//36
f 15//37 16//37 38//37
f 14//38 15//38 39//38
f 13//39 14//39 40//39
f 12//40 13//40 41//40
f 41//40 22//40 12//40
f 40//39 41//39 13//39
f 39//38 40//38 14//38
f 38//37 39//37 15//37
f 37//36 38//36 16//36
f 36//35 37//35 17//35
f 35//34 36//34 18//34
f 34//33 35//33 19//33
f 33//32 34//32 20//32
f 32//31 33//31 21//31
f 31//30 32//30 3//30
f 30//29 31//29 2//29
f 29//28 30//28 4//28
f 28//27 29//27 5//27
f 27//26 28//26 6//26
f 26//25 27//25 7//25
f 25//24 26//24 8//24
f 24//23 25//23 9//23
f 23//22 24//22 10//22
f 22//21 23//21 11//21
f 42//41 43//41 22//41
f 43//41 23//41 22//41
f 44//41 45//41 46//41
f 44//41 47//41 48//41
f 22//41 49//41 42//41
f 44//41 50//41 45//41
f 44//41 51//41 47//41
f 43//41 52//41 53//41
f 43//41 24//41 23//41
f 36//41 54//41 49//41
f 48//41 50//41 44//41
f 43//41 55//41 51//41
f 42//41 52//41 43//41
f 43//41 26//41 25//41
f 56//41 33//41 32//41
f 49//41 38//41 37//41
f 36//41 57//41 58//41
f 56//41 59//41 57//41
f 56//41 46//41 60//41
f 51//41 44//41 43//41
f 25//41 24//41 43//41
f 43//41 61//41 27//41
f 61//41 29//41 28//41
f 56//41 34//41 33//41
f 56//41 36//41 35//41
f 36//41 62//41 54//41
f 57//41 36//41 56//41
f 56//41 63//41 64//41
f 60//41 65//41 56//41
f 53//41 55//41 43//41
f 28//41 27//41 61//41
f 35//41 34//41 56//41
f 58//41 62//41 36//41
f 49//41 40//41 39//41
f 49//41 22//41 41//41
f 65//41 63//41 56//41
f 27//41 26//41 43//41
f 49//41 37//41 36//41
f 41//41 40//41 49//41
f 39//41 38//41 49//41
f 46//41 56//41 44//41
f 61//41 31//41 30//41
f 32//41 61//41 56//41
f 61//41 32//41 31//41
f 30//41 29//41 61//41
f 64//41 59//41 56//41
f 43//42 66//42 67//42
f 67//42 61//42 43//42
f 44//43 56//43 68//43
f 68//43 69//43 44//43
f 70//21 71//21 51//21
f 72//22 70//22 55//22
f 73//23 72//23 53//23
f 74//24 73//24 52//24
f 75//25 74//25 42//25
f 76//26 75//26 49//26
f 77//27 76//27 54//27
f 78//28 77//28 62//28
f 79//29 78//29 58//29
f 80//30 79//30 57//30
f 81//31 80//31 59//31
f 82//32 81//32 64//32
f 83//33 82//33 63//33
f 84//34 83//34 65//34
f 85//35 84//35 60//35
f 86//36 85//36 46//36
f 87//37 86//37 45//37
f 88//38 87//38 50//38
f 89//39 88//39 48//39
f 71//40 89//40 47//40
f 47//40 51//40 71//40
f 48//39 47//39 89//39
f 50//38 48//38 88//38
f 45//37 50//37 87//37
f 46//36 45//36 86//36
f 60//35 46//35 85//35
f 65//34 60//34 84//34
f 63//33 65//33 83//33
f 64//32 63//32 82//32
f 59//31 64//31 81//31
f 57//30 59//30 80//30
f 58//29 57//29 79//29
f 62//28 58//28 78//28
f 54//27 62//27 77//27
f 49//26 54//26 76//26
f 42//25 49//25 75//25
f 52//24 42//24 74//24
f 53//23 52//23 73//23
f 55//22 53//22 72//22
f 51//21 55//21 70//21
f 90//1 79//1 80//1
f 90//2 78//2 79//2
f 90//3 77//3 78//3
f 90//4 76//4 77//4
f 90//5 75//5 76//5
f 90//6 74//6 75//6
f 90//7 73//7 74//7
f 90//8 72//8 73//8
f 90//9 70//9 72//9
f 90//10 71//10 70//10
f 90//11 89//11 71//11
f 90//12 88//12 89//12
f 90//13 87//13 88//13
f 90//14 86//14 87//14
f 90//15 85//15 86//15
f 90//16 84//16 85//16
f 90//17 83//17 84//17
f 90//18 82//18 83//18
f 90//19 81//19 82//19
f 90//20 80//20 81//20
f 91//41 92//41 93//41
f 91//41 94//41 95//41
f 95//41 92//41 91//41
f 94//41 96//41 95//41
f 94//41 97//41 98//41
f 68//41 99//41 100//41
f 101//41 91//41 102//41
f 98//41 96//41 94//41
f 94//41 69//41 103//41
f 69//41 68//41 104//41
f 99//41 105//41 100//41
f 106//41 101//41 107//41
f 102//41 108//41 101//41
f 93//41 109//41 91//41
f 104//41 103//41 69//41
f 100//41 110//41 68//41
f 99//41 106//41 111//41
f 101//41 112//41 107//41
f 91//41 113//41 102//41
f 94//41 114//41 97//41
f 68//41 115//41 104//41
f 111//41 105//41 99//41
f 107//41 116//41 106//41
f 109//41 113//41 91//41
f 110//41 115//41 68//41
f 116//41 117//41 106//41
f 103//41 114//41 94//41
f 108//41 112//41 101//41
f 117//41 111//41 106//41
f 118//43 91//43 101//43
f 101//43 119//43 118//43
f 99//44 120//44 121//44
f 121//44 106//44 99//44
f 94//42 122//42 123//42
f 123//42 69//42 94//42
f 118//45 122//45 94//45
f 94//45 91//45 118//45
f 68//38 124//38 120//38
f 120//38 99//38 68//38
f 106//23 121//23 119//23
f 119//23 101//23 106//23
f 125//42 108//42 102//42
f 102//42 126//42 125//42
f 112//35 108//35 125//35
f 107//34 112//34 127//34
f 116//33 107//33 128//33
f 117//32 116//32 129//32
f 111//31 117//31 130//31
f 105//30 111//30 131//30
f 100//29 105//29 132//29
f 110//28 100//28 133//28
f 115//27 110//27 134//27
f 104//26 115//26 135//26
f 135//26 136//26 104//26
f 134//27 135//27 115//27
f 133//28 134//28 110//28
f 132//29 133//29 100//29
f 131//30 132//30 105//30
f 130//31 131//31 111//31
f 129//32 130//32 117//32
f 128//33 129//33 116//33
f 127//34 128//34 107//34
f 125//35 127//35 112//35
f 103//43 104//43 136//43
f 136//43 137//43 103//43
f 114//25 103//25 137//25
f 97//24 114//24 138//24
f 98//23 97//23 139//23
f 96//22 98//22 140//22
f 95//21 96//21 141//21
f 92//40 95//40 142//40
f 93//39 92//39 143//39
f 109//38 93//38 144//38
f 113//37 109//37 145//37
f 102//36 113//36 146//36
f 146//36 126//36 102//36
f 145//37 146//37 113//37
f 144//38 145//38 109//38
f 143//39 144//39 93//39
f 142//40 143//40 92//40
f 141//21 142//21 95//21
f 140//22 141//22 96//22
f 139//23 140//23 98//23
f 138//24 139//24 97//24
f 137//25 138//25 114//25
f 134//41 147//41 148//41
f 134//41 133//41 149//41
f 150//41 151//41 152//41
f 150//41 153//41 154//41
f 149//41 147//41 134//41
f 133//41 132//41 155//41
f 132//41 131//41 156//41
f 131//41 130//41 157//41
f 154//41 151//41 150//41
f 158//41 159//41 160//41
f 161//41 162//41 154//41
f 155//41 149//41 133//41
f 157//41 156//41 131//41
f 130//41 129//41 163//41
f 128//41 164//41 163//41
f 127//41 165//41 164//41
f 125//41 166//41 165//41
f 125//41 159//41 158//41
f 160//41 150//41 158//41
f 154//41 153//41 161//41
f 156//41 155//41 132//41
f 163//41 129//41 128//41
f 165//41 127//41 125//41
f 158//41 167//41 125//41
f 137//41 168//41 169//41
f 161//41 170//41 162//41
f 170//41 168//41 171//41
f 163//41 157//41 130//41
f 167//41 166//41 125//41
f 168//41 170//41 169//41
f 171//41 162//41 170//41
f 164//41 128//41 127//41
f 152//41 158//41 150//41
f 137//41 136//41 172//41
f 125//41 126//41 173//41
f 146//41 174//41 175//41
f 145//41 176//41 174//41
f 144//41 177//41 176//41
f 143//41 178//41 177//41
f 142//41 179//41 178//41
f 141//41 180//41 179//41
f 169//41 181//41 137//41
f 136//41 182//41 172//41
f 126//41 175//41 173//41
f 174//41 146//41 145//41
f 177//41 144//41 143//41
f 179//41 142//41 141//41
f 172//41 168//41 137//41
f 175//41 126//41 146//41
f 178//41 143//41 142//41
f 140//41 183//41 180//41
f 136//41 135//41 148//41
f 173//41 159//41 125//41
f 180//41 141//41 140//41
f 139//41 184//41 183//41
f 138//41 185//41 184//41
f 138//41 137//41 186//41
f 148//41 135//41 134//41
f 183//41 140//41 139//41
f 186//41 185//41 138//41
f 148//41 182//41 136//41
f 184//41 139//41 138//41
f 176//41 145//41 144//41
f 181//41 186//41 137//41
f 187//21 188//21 179//21
f 189//22 187//22 180//22
f 190//23 189//23 183//23
f 191//24 190//24 184//24
f 192//25 191//25 185//25
f 193//26 192//26 186//26
f 194//27 193//27 181//27
f 195//28 194//28 169//28
f 196//29 195//29 170//29
f 197//30 196//30 161//30
f 198//31 197//31 153//31
f 199//32 198//32 150//32
f 200//33 199//33 160//33
f 201//34 200//34 159//34
f 202//35 201//35 173//35
f 203//36 202//36 175//36
f 204//37 203//37 174//37
f 205//38 204//38 176//38
f 206//39 205//39 177//39
f 188//40 206//40 178//40
f 178//40 179//40 188//40
f 177//39 178//39 206//39
f 176//38 177//38 205//38
f 174//37 176//37 204//37
f 175//36 174//36 203//36
f 173//35 175//35 202//35
f 159//34 173//34 201//34
f 160//33 159//33 200//33
f 150//32 160//32 199//32
f 153//31 150//31 198//31
f 161//30 153//30 197//30
f 170//29 161//29 196//29
f 169//28 170//28 195//28
f 181//27 169//27 194//27
f 186//26 181//26 193//26
f 185//25 186//25 192//25
f 184//24 185//24 191//24
f 183//23 184//23 190//23
f 180//22 183//22 189//22
f 179//21 180//21 187//21
f 207//21 208//21 154//21
f 209//22 207//22 162//22
f 210//23 209//23 171//23
f 211//24 210//24 168//24
f 212//25 211//25 172//25
f 213//26 212//26 182//26
f 214//27 213//27 148//27
f 215//28 214//28 147//28
f 216//29 215//29 149//29
f 217//30 216//30 155//30
f 218//31 217//31 156//31
f 219//32 218//32 157//32
f 220//33 219//33 163//33
f 221//34 220//34 164//34
f 222//35 221//35 165//35
f 223//36 222//36 166//36
f 224//37 223//37 167//37
f 225//38 224//38 158//38
f 226//39 225//39 152//39
f 208//40 226//40 151//40
f 151//40 154//40 208//40
f 152//39 151//39 226//39
f 158//38 152//38 225//38
f 167//37 158//37 224//37
f 166//36 167//36 223//36
f 165//35 166//35 222//35
f 164//34 165//34 221//34
f 163//33 164//33 220//33
f 157//32 163//32 219//32
f 156//31 157//31 218//31
f 155//30 156//30 217//30
f 149//29 155//29 216//29
f 147//28 149//28 215//28
f 148//27 147//27 214//27
f 182//26 148//26 213//26
f 172//25 182//25 212//25
f 168//24 172//24 211//24
f 171//23 168//23 210//23
f 162//22 171//22 209//22
f 154//21 162//21 207//21
f 207//46 196//46 197//46
f 198//46 226//46 208//46
f 122//46 191//46 192//46
f 197//46 208//46 207//46
f 198//46 225//46 226//46
f 122//46 190//46 191//46
f 118//46 206//46 188//46
f 199//46 119//46 223//46
f 208//46 197//46 198//46
f 192//46 123//46 122//46
f 122//46 188//46 187//46
f 118//46 205//46 206//46
f 119//46 222//46 223//46
f 198//46 224//46 225//46
f 209//46 123//46 195//46
f 122//46 189//46 190//46
f 188//46 122//46 118//46
f 120//46 216//46 217//46
f 223//46 198//46 199//46
f 198//46 223//46 224//46
f 123//46 194//46 195//46
f 187//46 189//46 122//46
f 119//46 220//46 221//46
f 119//46 121//46 219//46
f 121//46 217//46 218//46
f 120//46 215//46 216//46
f 124//46 214//46 215//46
f 124//46 210//46 211//46
f 207//46 209//46 196//46
f 123//46 193//46 194//46
f 118//46 204//46 205//46
f 118//46 202//46 203//46
f 123//46 210//46 124//46
f 219//46 220//46 119//46
f 217//46 121//46 120//46
f 124//46 213//46 214//46
f 211//46 212//46 124//46
f 119//46 201//46 202//46
f 195//46 196//46 209//46
f 203//46 204//46 118//46
f 227//46 228//46 123//46
f 218//46 219//46 121//46
f 212//46 213//46 124//46
f 119//46 200//46 201//46
f 192//46 193//46 123//46
f 123//46 209//46 210//46
f 215//46 120//46 124//46
f 199//46 200//46 119//46
f 221//46 222//46 119//46
f 124//46 227//46 123//46
f 202//46 118//46 119//46
f 228//43 227//43 229//43
f 229//43 230//43 228//43
f 231//47 232//47 233//47
f 229//48 231//48 234//48
f 234//48 230//48 229//48
f 233//47 234//47 231//47
f 235//42 233//42 236//42
f 232//42 237//42 236//42
f 236//42 233//42 232//42
f 236//42 238//42 235//42
f 239//49 236//49 237//49
f 240//50 239//50 241//50
f 242//51 240//51 243//51
f 244//52 242//52 245//52
f 246//53 244//53 247//53
f 248//54 246//54 249//54
f 250//55 248//55 251//55
f 252//56 250//56 253//56
f 254//57 252//57 255//57
f 256//58 254//58 257//58
f 258//46 256//46 259//46
f 260//59 258//59 261//59
f 262//60 260//60 263//60
f 264//61 262//61 265//61
f 266//62 264//62 267//62
f 268//63 266//63 269//63
f 270//64 268//64 271//64
f 272//65 270//65 273//65
f 274//66 272//66 275//66
f 276//67 274//67 277//67
f 278//68 276//68 279//68
f 279//68 280//68 278//68
f 277//67 279//67 276//67
f 275//66 277//66 274//66
f 273//65 275//65 272//65
f 271//64 273//64 270//64
f 269//63 271//63 268//63
f 267//62 269//62 266//62
f 265//61 267//61 264//61
f 263//60 265//60 262//60
f 261//59 263//59 260//59
f 259//46 261//46 258//46
f 257//58 259//58 256//58
f 255//57 257//57 254//57
f 253//56 255//56 252//56
f 251//55 253//55 250//55
f 249//54 251//54 248//54
f 247//53 249//53 246//53
f 245//52 247//52 244//52
f 243//51 245//51 242//51
f 241//50 243//50 240//50
f 237//49 241//49 239//49
f 281//69 235//69 238//69
f 282//70 281//70 283//70
f 284//71 282//71 285//71
f 286//72 284//72 287//72
f 288//73 286//73 289//73
f 290//74 288//74 291//74
f 292//75 290//75 293//75
f 294//76 292//76 295//76
f 296//77 294//77 297//77
f 298//78 296//78 299//78
f 300//79 298//79 301//79
f 302//80 300//80 303//80
f 304//81 302//81 305//81
f 306//82 304//82 307//82
f 308//83 306//83 309//83
f 310//84 308//84 311//84
f 311//84 312//84 310//84
f 309//83 311//83 308//83
f 307//82 309//82 306//82
f 305//81 307//81 304//81
f 303//80 305//80 302//80
f 301//79 303//79 300//79
f 299//78 301//78 298//78
f 297//77 299//77 296//77
f 295//76 297//76 294//76
f 293//75 295//75 292//75
f 291//74 293//74 290//74
f 289//73 291//73 288//73
f 287//72 289//72 286//72
f 285//71 287//71 284//71
f 283//70 285//70 282//70
f 238//69 283//69 281//69
f 258//44 260//44 299//44
f 256//44 297//44 295//44
f 297//44 256//44 258//44
f 254//44 295//44 293//44
f 299//44 297//44 258//44
f 262//44 264//44 303//44
f 266//44 305//44 303//44
f 252//44 293//44 291//44
f 295//44 254//44 256//44
f 260//44 262//44 301//44
f 303//44 264//44 266//44
f 240//44 283//44 238//44
f 242//44 244//44 285//44
f 246//44 248//44 289//44
f 248//44 250//44 291//44
f 293//44 252//44 254//44
f 303//44 301//44 262//44
f 268//44 307//44 305//44
f 270//44 309//44 307//44
f 272//44 311//44 309//44
f 274//44 276//44 312//44
f 238//44 236//44 239//44
f 283//44 240//44 242//44
f 244//44 246//44 287//44
f 291//44 289//44 248//44
f 301//44 299//44 260//44
f 307//44 268//44 270//44
f 309//44 270//44 272//44
f 312//44 311//44 274//44
f 285//44 283//44 242//44
f 289//44 287//44 246//44
f 305//44 266//44 268//44
f 276//44 278//44 312//44
f 287//44 285//44 244//44
f 272//44 274//44 311//44
f 291//44 250//44 252//44
f 238//44 239//44 240//44
f 313//43 314//43 278//43
f 310//43 312//43 278//43
f 278//43 314//43 310//43
f 278//43 280//43 313//43
f 315//85 316//85 317//85
f 313//86 315//86 318//86
f 318//86 314//86 313//86
f 317//85 318//85 315//85
f 316//42 319//42 320//42
f 320//42 317//42 316//42
f 321//45 300//45 302//45
f 322//45 323//45 286//45
f 324//45 290//45 292//45
f 325//45 326//45 296//45
f 321//45 325//45 300//45
f 327//45 306//45 308//45
f 310//45 314//45 328//45
f 281//45 329//45 330//45
f 323//45 284//45 286//45
f 323//45 329//45 282//45
f 324//45 288//45 290//45
f 294//45 331//45 332//45
f 294//45 296//45 326//45
f 296//45 298//45 325//45
f 302//45 333//45 321//45
f 334//45 302//45 304//45
f 327//45 304//45 306//45
f 310//45 335//45 336//45
f 314//45 337//45 328//45
f 318//45 338//45 339//45
f 330//45 235//45 281//45
f 282//45 284//45 323//45
f 340//45 286//45 288//45
f 341//45 44//45 342//45
f 321//45 343//45 344//45
f 332//45 292//45 294//45
f 298//45 300//45 325//45
f 321//45 333//45 345//45
f 304//45 327//45 334//45
f 336//45 308//45 310//45
f 314//45 346//45 337//45
f 339//45 314//45 318//45
f 286//45 347//45 322//45
f 288//45 324//45 340//45
f 342//45 323//45 341//45
f 344//45 348//45 321//45
f 326//45 331//45 294//45
f 302//45 334//45 333//45
f 310//45 349//45 335//45
f 339//45 346//45 314//45
f 350//45 338//45 318//45
f 340//45 347//45 286//45
f 341//45 351//45 44//45
f 342//45 44//45 69//45
f 344//45 352//45 348//45
f 345//45 343//45 321//45
f 328//45 349//45 310//45
f 317//45 353//45 350//45
f 320//45 354//45 355//45
f 281//45 282//45 329//45
f 69//45 356//45 342//45
f 292//45 332//45 324//45
f 318//45 317//45 350//45
f 355//45 317//45 320//45
f 44//45 357//45 358//45
f 351//45 359//45 44//45
f 69//45 360//45 361//45
f 308//45 336//45 327//45
f 320//45 362//45 354//45
f 66//45 363//45 321//45
f 66//45 43//45 364//45
f 228//45 230//45 365//45
f 366//45 230//45 234//45
f 234//45 233//45 367//45
f 44//45 359//45 357//45
f 361//45 356//45 69//45
f 355//45 353//45 317//45
f 364//45 363//45 66//45
f 365//45 368//45 228//45
f 230//45 366//45 369//45
f 367//45 370//45 234//45
f 322//45 341//45 323//45
f 321//45 348//45 66//45
f 368//45 371//45 228//45
f 234//45 370//45 366//45
f 43//45 372//45 373//45
f 235//45 330//45 374//45
f 352//45 362//45 348//45
f 69//45 123//45 228//45
f 369//45 365//45 230//45
f 233//45 375//45 376//45
f 235//45 377//45 378//45
f 373//45 379//45 43//45
f 43//45 358//45 380//45
f 358//45 43//45 44//45
f 228//45 381//45 69//45
f 376//45 367//45 233//45
f 378//45 233//45 235//45
f 380//45 372//45 43//45
f 381//45 360//45 69//45
f 378//45 375//45 233//45
f 374//45 377//45 235//45
f 379//45 364//45 43//45
f 371//45 381//45 228//45
f 320//45 348//45 362//45
f 382//43 66//43 348//43
f 348//43 383//43 382//43
f 384//45 382//45 383//45
f 383//45 385//45 384//45
f 385//42 386//42 387//42
f 387//42 384//42 385//42
f 387//38 386//38 388//38
f 388//38 389//38 387//38
f 389//44 388//44 390//44
f 390//44 391//44 389//44
f 390//23 392//23 67//23
f 67//23 391//23 390//23
f 364//87 379//87 393//87
f 379//88 373//88 394//88
f 373//89 372//89 395//89
f 372//90 380//90 396//90
f 380//91 358//91 397//91
f 358//92 357//92 398//92
f 357//93 359//93 399//93
f 359//94 351//94 400//94
f 351//95 341//95 401//95
f 341//96 322//96 402//96
f 322//97 347//97 403//97
f 347//98 340//98 404//98
f 340//99 324//99 405//99
f 324//100 332//100 406//100
f 332//101 331//101 407//101
f 331//102 326//102 408//102
f 326//103 325//103 409//103
f 325//104 321//104 410//104
f 321//105 363//105 411//105
f 363//106 364//106 412//106
f 412//106 411//106 363//106
f 411//105 410//105 321//105
f 410//104 409//104 325//104
f 409//103 408//103 326//103
f 408//102 407//102 331//102
f 407//101 406//101 332//101
f 406//100 405//100 324//100
f 405//99 404//99 340//99
f 404//98 403//98 347//98
f 403//97 402//97 322//97
f 402//96 401//96 341//96
f 401//95 400//95 351//95
f 400//94 399//94 359//94
f 399//93 398//93 357//93
f 398//92 397//92 358//92
f 397//91 396//91 380//91
f 396//90 395//90 372//90
f 395//89 394//89 373//89
f 394//88 393//88 379//88
f 393//87 412//87 364//87
f 413//107 414//107 402//107
f 415//108 413//108 403//108
f 416//109 415//109 404//109
f 417//110 416//110 405//110
f 418//111 417//111 406//111
f 419//112 418//112 407//112
f 420//113 419//113 408//113
f 421//114 420//114 409//114
f 422//115 421//115 410//115
f 423//116 422//116 411//116
f 424//117 423//117 412//117
f 425//118 424//118 393//118
f 426//119 425//119 394//119
f 427//120 426//120 395//120
f 428//121 427//121 396//121
f 429//122 428//122 397//122
f 430//123 429//123 398//123
f 431//124 430//124 399//124
f 432//125 431//125 400//125
f 414//126 432//126 401//126
f 401//126 402//126 414//126
f 400//125 401//125 432//125
f 399//124 400//124 431//124
f 398//123 399//123 430//123
f 397//122 398//122 429//122
f 396//121 397//121 428//121
f 395//120 396//120 427//120
f 394//119 395//119 426//119
f 393//118 394//118 425//118
f 412//117 393//117 424//117
f 411//116 412//116 423//116
f 410//115 411//115 422//115
f 409//114 410//114 421//114
f 408//113 409//113 420//113
f 407//112 408//112 419//112
f 406//111 407//111 418//111
f 405//110 406//110 417//110
f 404//109 405//109 416//109
f 403//108 404//108 415//108
f 402//107 403//107 413//107
f 362//87 352//87 433//87
f 352//88 344//88 434//88
f 344//89 343//89 435//89
f 343//90 345//90 436//90
f 345//91 333//91 437//91
f 333//92 334//92 438//92
f 334//93 327//93 439//93
f 327//94 336//94 440//94
f 336//95 335//95 441//95
f 335//96 349//96 442//96
f 349//97 328//97 443//97
f 328//98 337//98 444//98
f 337//99 346//99 445//99
f 346//100 339//100 446//100
f 339//101 338//101 447//101
f 338//102 350//102 448//102
f 350//103 353//103 449//103
f 353//104 355//104 450//104
f 355//105 354//105 451//105
f 354//106 362//106 452//106
f 452//106 451//106 354//106
f 451//105 450//105 355//105
f 450//104 449//104 353//104
f 449//103 448//103 350//103
f 448//102 447//102 338//102
f 447//101 446//101 339//101
f 446//100 445//100 346//100
f 445//99 444//99 337//99
f 444//98 443//98 328//98
f 443//97 442//97 349//97
f 442//96 441//96 335//96
f 441//95 440//95 336//95
f 440//94 439//94 327//94
f 439//93 438//93 334//93
f 438//92 437//92 333//92
f 437//91 436//91 345//91
f 436//90 435//90 343//90
f 435//89 434//89 344//89
f 434//88 433//88 352//88
f 433//87 452//87 362//87
f 453//107 454//107 442//107
f 455//108 453//108 443//108
f 456//109 455//109 444//109
f 457//110 456//110 445//110
f 458//111 457//111 446//111
f 459//112 458//112 447//112
f 460//113 459//113 448//113
f 461//114 460//114 449//114
f 462//115 461//115 450//115
f 463//116 462//116 451//116
f 464//117 463//117 452//117
f 465//118 464//118 433//118
f 466//119 465//119 434//119
f 467//120 466//120 435//120
f 468//121 467//121 436//121
f 469//122 468//122 437//122
f 470//123 469//123 438//123
f 471//124 470//124 439//124
f 472//125 471//125 440//125
f 454//126 472//126 441//126
f 441//126 442//126 454//126
f 440//125 441//125 472//125
f 439//124 440//124 471//124
f 438//123 439//123 470//123
f 437//122 438//122 469//122
f 436//121 437//121 468//121
f 435//120 436//120 467//120
f 434//119 435//119 466//119
f 433//118 434//118 465//118
f 452//117 433//117 464//117
f 451//116 452//116 463//116
f 450//115 451//115 462//115
f 449//114 450//114 461//114
f 448//113 449//113 460//113
f 447//112 448//112 459//112
f 446//111 447//111 458//111
f 445//110 446//110 457//110
f 444//109 445//109 456//109
f 443//108 444//108 455//108
f 442//107 443//107 453//107
f 422//44 67//44 265//44
f 467//44 468//44 273//44
f 67//44 267//44 265//44
f 273//44 67//44 467//44
f 67//44 269//44 267//44
f 273//44 271//44 67//44
f 67//44 422//44 423//44
f 468//44 469//44 275//44
f 271//44 269//44 67//44
f 473//44 68//44 247//44
f 423//44 61//44 67//44
f 265//44 421//44 422//44
f 421//44 265//44 263//44
f 319//44 280//44 458//44
f 68//44 249//44 247//44
f 413//44 415//44 257//44
f 277//44 470//44 471//44
f 275//44 469//44 470//44
f 61//44 425//44 426//44
f 275//44 273//44 468//44
f 263//44 419//44 420//44
f 458//44 459//44 319//44
f 68//44 251//44 249//44
f 257//44 68//44 413//44
f 470//44 277//44 275//44
f 61//44 424//44 425//44
f 263//44 420//44 421//44
f 463//44 392//44 319//44
f 319//44 460//44 461//44
f 280//44 457//44 458//44
f 280//44 455//44 456//44
f 455//44 280//44 279//44
f 68//44 253//44 251//44
f 257//44 255//44 68//44
f 471//44 472//44 277//44
f 423//44 424//44 61//44
f 67//44 465//44 466//44
f 67//44 392//44 464//44
f 319//44 462//44 463//44
f 459//44 460//44 319//44
f 279//44 453//44 455//44
f 279//44 277//44 454//44
f 255//44 253//44 68//44
f 56//44 431//44 432//44
f 56//44 429//44 430//44
f 56//44 61//44 428//44
f 426//44 427//44 61//44
f 464//44 465//44 67//44
f 461//44 462//44 319//44
f 454//44 453//44 279//44
f 68//44 474//44 475//44
f 415//44 416//44 259//44
f 247//44 476//44 477//44
f 68//44 56//44 414//44
f 430//44 431//44 56//44
f 61//44 427//44 428//44
f 466//44 467//44 67//44
f 456//44 457//44 280//44
f 261//44 259//44 418//44
f 68//44 478//44 474//44
f 259//44 257//44 415//44
f 414//44 413//44 68//44
f 428//44 429//44 56//44
f 463//44 464//44 392//44
f 419//44 263//44 261//44
f 68//44 473//44 478//44
f 247//44 477//44 473//44
f 476//44 247//44 245//44
f 245//44 479//44 480//44
f 241//44 481//44 479//44
f 482//44 483//44 231//44
f 229//44 227//44 484//44
f 472//44 454//44 277//44
f 259//44 417//44 418//44
f 416//44 417//44 259//44
f 480//44 485//44 245//44
f 479//44 245//44 243//44
f 486//44 487//44 241//44
f 237//44 232//44 488//44
f 231//44 483//44 489//44
f 229//44 490//44 482//44
f 227//44 491//44 484//44
f 418//44 419//44 261//44
f 245//44 485//44 476//44
f 241//44 487//44 481//44
f 488//44 486//44 237//44
f 489//44 232//44 231//44
f 484//44 490//44 229//44
f 475//44 124//44 68//44
f 241//44 237//44 486//44
f 231//44 229//44 482//44
f 432//44 414//44 56//44
f 489//44 488//44 232//44
f 280//44 319//44 315//44
f 479//44 243//44 241//44
f 319//44 316//44 315//44
f 227//44 492//44 491//44
f 475//44 492//44 124//44
f 315//44 313//44 280//44
f 227//44 124//44 492//44
f 491//107 492//107 493//107
f 484//108 491//108 494//108
f 490//109 484//109 495//109
f 482//110 490//110 496//110
f 483//111 482//111 497//111
f 489//112 483//112 498//112
f 488//113 489//113 499//113
f 486//114 488//114 500//114
f 487//115 486//115 501//115
f 481//116 487//116 502//116
f 479//117 481//117 503//117
f 480//118 479//118 504//118
f 485//119 480//119 505//119
f 476//120 485//120 506//120
f 477//121 476//121 507//121
f 473//122 477//122 508//122
f 478//123 473//123 509//123
f 474//124 478//124 510//124
f 475//125 474//125 511//125
f 492//126 475//126 512//126
f 512//126 493//126 492//126
f 511//125 512//125 475//125
f 510//124 511//124 474//124
f 509//123 510//123 478//123
f 508//122 509//122 473//122
f 507//121 508//121 477//121
f 506//120 507//120 476//120
f 505//119 506//119 485//119
f 504//118 505//118 480//118
f 503//117 504//117 479//117
f 502//116 503//116 481//116
f 501//115 502//115 487//115
f 500//114 501//114 486//114
f 499//113 500//113 488//113
f 498//112 499//112 489//112
f 497//111 498//111 483//111
f 496//110 497//110 482//110
f 495//109 496//109 490//109
f 494//108 495//108 484//108
f 493//107 494//107 491//107
f 377//87 374//87 504//87
f 374//88 330//88 505//88
f 330//89 329//89 506//89
f 329//90 323//90 507//90
f 323//91 342//91 508//91
f 342//92 356//92 509//92
f 356//93 361//93 510//93
f 361//94 360//94 511//94
f 360//95 381//95 512//95
f 381//96 371//96 493//96
f 371//97 368//97 494//97
f 368//98 365//98 495//98
f 365//99 369//99 496//99
f 369//100 366//100 497//100
f 366//101 370//101 498//101
f 370//102 367//102 499//102
f 367//103 376//103 500//103
f 376//104 375//104 501//104
f 375//105 378//105 502//105
f 378//106 377//106 503//106
f 503//106 502//106 378//106
f 502//105 501//105 375//105
f 501//104 500//104 376//104
f 500//103 499//103 367//103
f 499//102 498//102 370//102
f 498//101 497//101 366//101
f 497//100 496//100 369//100
f 496//99 495//99 365//99
f 495//98 494//98 368//98
f 494//97 493//97 371//97
f 493//96 512//96 381//96
f 512//95 511//95 360//95
f 511//94 510//94 361//94
f 510//93 509//93 356//93
f 509//92 508//92 342//92
f 508//91 507//91 323//91
f 507//90 506//90 329//90
f 506//89 505//89 330//89
f 505//88 504//88 374//88
f 504//87 503//87 377//87
f 513//46 514//46 515//46
f 516//46 515//46 514//46
f 517//46 518//46 513//46
f 519//46 385//46 520//46
f 521//46 522//46 516//46
f 515//46 517//46 513//46
f 385//46 523//46 520//46
f 385//46 524//46 525//46
f 385//46 526//46 527//46
f 522//46 521//46 528//46
f 517//46 519//46 518//46
f 520//46 529//46 519//46
f 525//46 530//46 385//46
f 386//46 531//46 532//46
f 386//46 533//46 534//46
f 385//46 519//46 526//46
f 514//46 521//46 516//46
f 530//46 523//46 385//46
f 535//46 319//46 536//46
f 537//46 392//46 390//46
f 534//46 531//46 386//46
f 527//46 386//46 385//46
f 522//46 538//46 539//46
f 529//46 518//46 519//46
f 319//46 540//46 536//46
f 388//46 532//46 537//46
f 527//46 533//46 386//46
f 528//46 538//46 522//46
f 536//46 541//46 535//46
f 385//46 383//46 542//46
f 532//46 388//46 386//46
f 541//46 522//46 535//46
f 542//46 543//46 385//46
f 383//46 544//46 545//46
f 546//46 319//46 392//46
f 539//46 535//46 522//46
f 545//46 542//46 383//46
f 383//46 547//46 548//46
f 383//46 348//46 535//46
f 392//46 549//46 546//46
f 392//46 550//46 551//46
f 543//46 524//46 385//46
f 535//46 547//46 383//46
f 392//46 552//46 549//46
f 392//46 537//46 550//46
f 548//46 544//46 383//46
f 551//46 552//46 392//46
f 319//46 535//46 348//46
f 546//46 540//46 319//46
f 390//46 388//46 537//46
f 348//46 320//46 319//46
f 543//21 542//21 553//21
f 524//22 543//22 554//22
f 525//23 524//23 555//23
f 530//24 525//24 556//24
f 523//25 530//25 557//25
f 520//26 523//26 558//26
f 529//27 520//27 559//27
f 518//28 529//28 560//28
f 513//29 518//29 561//29
f 514//30 513//30 562//30
f 521//31 514//31 563//31
f 528//32 521//32 564//32
f 538//33 528//33 565//33
f 539//34 538//34 566//34
f 535//35 539//35 567//35
f 547//36 535//36 568//36
f 548//37 547//37 569//37
f 544//38 548//38 570//38
f 545//39 544//39 571//39
f 542//40 545//40 572//40
f 572//40 553//40 542//40
f 571//39 572//39 545//39
f 570//38 571//38 544//38
f 569//37 570//37 548//37
f 568//36 569//36 547//36
f 567//35 568//35 535//35
f 566//34 567//34 539//34
f 565//33 566//33 538//33
f 564//32 565//32 528//32
f 563//31 564//31 521//31
f 562//30 563//30 514//30
f 561//29 562//29 513//29
f 560//28 561//28 518//28
f 559//27 560//27 529//27
f 558//26 559//26 520//26
f 557//25 558//25 523//25
f 556//24 557//24 530//24
f 555//23 556//23 525//23
f 554//22 555//22 524//22
f 553//21 554//21 543//21
f 517//21 515//21 573//21
f 519//22 517//22 574//22
f 526//23 519//23 575//23
f 527//24 526//24 576//24
f 533//25 527//25 577//25
f 534//26 533//26 578//26
f 531//27 534//27 579//27
f 532//28 531//28 580//28
f 537//29 532//29 581//29
f 550//30 537//30 582//30
f 551//31 550//31 583//31
f 552//32 551//32 584//32
f 549//33 552//33 585//33
f 546//34 549//34 586//34
f 540//35 546//35 587//35
f 536//36 540//36 588//36
f 541//37 536//37 589//37
f 522//38 541//38 590//38
f 516//39 522//39 591//39
f 515//40 516//40 592//40
f 592//40 573//40 515//40
f 591//39 592//39 516//39
f 590//38 591//38 522//38
f 589//37 590//37 541//37
f 588//36 589//36 536//36
f 587//35 588//35 540//35
f 586//34 587//34 546//34
f 585//33 586//33 549//33
f 584//32 585//32 552//32
f 583//31 584//31 551//31
f 582//30 583//30 550//30
f 581//29 582//29 537//29
f 580//28 581//28 532//28
f 579//27 580//27 531//27
f 578//26 579//26 534//26
f 577//25 578//25 533//25
f 576//24 577//24 527//24
f 575//23 576//23 526//23
f 574//22 575//22 519//22
f 573//21 574//21 517//21
f 67//41 593//41 594//41
f 66//41 595//41 596//41
f 382//41 597//41 595//41
f 594//41 391//41 67//41
f 595//41 66//41 382//41
f 67//41 598//41 593//41
f 596//41 67//41 66//41
f 596//41 598//41 67//41
f 382//41 599//41 600//41
f 384//41 601//41 602//41
f 391//41 603//41 604//41
f 600//41 597//41 382//41
f 382//41 602//41 605//41
f 384//41 606//41 601//41
f 387//41 607//41 608//41
f 389//41 609//41 610//41
f 594//41 603//41 391//41
f 602//41 382//41 384//41
f 608//41 384//41 387//41
f 610//41 387//41 389//41
f 389//41 604//41 611//41
f 605//41 599//41 382//41
f 384//41 612//41 613//41
f 387//41 614//41 607//41
f 611//41 609//41 389//41
f 613//41 606//41 384//41
f 610//41 614//41 387//41
f 608//41 612//41 384//41
f 604//41 389//41 391//41
f 615//41 565//41 590//41
f 590//41 589//41 615//41
f 565//41 592//41 591//41
f 592//41 564//41 563//41
f 615//41 616//41 567//41
f 591//41 590//41 565//41
f 592//41 565//41 564//41
f 616//41 568//41 567//41
f 562//41 574//41 573//41
f 563//41 573//41 592//41
f 567//41 566//41 615//41
f 573//41 563//41 562//41
f 566//41 565//41 615//41
f 617//41 569//41 568//41
f 618//41 570//41 569//41
f 619//41 571//41 570//41
f 620//41 560//41 559//41
f 561//41 575//41 574//41
f 620//41 577//41 576//41
f 621//41 586//41 585//41
f 622//41 587//41 586//41
f 568//41 616//41 617//41
f 570//41 618//41 619//41
f 559//41 623//41 620//41
f 561//41 576//41 575//41
f 620//41 578//41 577//41
f 586//41 621//41 622//41
f 615//41 588//41 587//41
f 569//41 617//41 618//41
f 624//41 572//41 571//41
f 620//41 561//41 560//41
f 576//41 561//41 620//41
f 587//41 622//41 615//41
f 571//41 619//41 624//41
f 625//41 554//41 553//41
f 626//41 555//41 554//41
f 620//41 627//41 579//41
f 627//41 628//41 580//41
f 629//41 630//41 582//41
f 630//41 631//41 583//41
f 631//41 632//41 584//41
f 632//41 633//41 585//41
f 562//41 561//41 574//41
f 589//41 588//41 615//41
f 554//41 625//41 626//41
f 634//41 556//41 555//41
f 635//41 557//41 556//41
f 635//41 623//41 558//41
f 580//41 579//41 627//41
f 628//41 629//41 581//41
f 583//41 582//41 630//41
f 585//41 584//41 632//41
f 585//41 633//41 621//41
f 636//41 553//41 572//41
f 555//41 626//41 634//41
f 558//41 557//41 635//41
f 581//41 580//41 628//41
f 584//41 583//41 631//41
f 572//41 624//41 636//41
f 556//41 634//41 635//41
f 582//41 581//41 629//41
f 553//41 636//41 625//41
f 559//41 558//41 623//41
f 579//41 578//41 620//41
f 623//43 608//43 607//43
f 607//43 620//43 623//43
f 598//35 596//35 615//35
f 593//34 598//34 622//34
f 594//33 593//33 621//33
f 603//32 594//32 633//32
f 604//31 603//31 632//31
f 611//30 604//30 631//30
f 609//29 611//29 630//29
f 610//28 609//28 629//28
f 614//27 610//27 628//27
f 607//26 614//26 627//26
f 627//26 620//26 607//26
f 628//27 627//27 614//27
f 629//28 628//28 610//28
f 630//29 629//29 609//29
f 631//30 630//30 611//30
f 632//31 631//31 604//31
f 633//32 632//32 603//32
f 621//33 633//33 594//33
f 622//34 621//34 593//34
f 615//35 622//35 598//35
f 616//42 615//42 596//42
f 596//42 595//42 616//42
f 612//25 608//25 623//25
f 613//24 612//24 635//24
f 606//23 613//23 634//23
f 601//22 606//22 626//22
f 602//21 601//21 625//21
f 605//40 602//40 636//40
f 599//39 605//39 624//39
f 600//38 599//38 619//38
f 597//37 600//37 618//37
f 595//36 597//36 617//36
f 617//36 616//36 595//36
f 618//37 617//37 597//37
f 619//38 618//38 600//38
f 624//39 619//39 599//39
f 636//40 624//40 605//40
f 625//21 636//21 602//21
f 626//22 625//22 601//22
f 634//23 626//23 606//23
f 635//24 634//24 613//24
f 623//25 635//25 612//25
#1296 polygons

