# Aspose.3D Wavefront OBJ Exporter
# Copyright 2004-2023 Aspose Pty Ltd.
# File created: 06/29/2023 05:44:02


#
# object obj_27616066
#

v 36.85285949707031248 45.87541198730468752 -144.14794921875
v 37.7073402404785156 45.3820762634277344 -145.15228271484375
v 38.91814041137695312 44.68302154541015624 -143.263427734375
v 38.78877639770507808 44.75770950317382816 -145.80256652832031248
v 39.43482589721679688 44.38471221923828128 -143.57411193847656248
v 36.12893295288085938 46.29336929321289064 -141.49539184570312496
v 38.16401290893554688 45.11841583251953124 -141.5162353515625
v 38.26024246215820312 45.06285476684570312 -140.85281372070312496
v 36.30897521972656248 46.189422607421875 -142.88786315917968752
v 38.25003433227539064 45.06875228881835938 -142.18153381347656248
v 38.5098876953125 44.91872406005859376 -142.7835693359375
v 43.721435546875 41.90983581542968752 -142.96382141113281248
v 41.79154205322265632 43.02405929565429687 -142.21781921386718752
v 41.52247619628906248 43.17940521240234376 -142.81443786621093744
v 43.9228553771972656 41.79354858398437504 -141.57525634765625
v 41.88777542114257808 42.9685020446777344 -141.55439758300781248
v 36.33034896850585936 46.17708206176757812 -140.1068267822265625
v 38.52931213378906248 44.90750885009765632 -140.256195068359375
v 39.99131011962890624 44.06342315673828125 -146.0351409912109375
v 40.009368896484375 44.05299758911132812 -143.68524169921875
v 41.19723129272460936 43.3671875 -145.82723999023437504
v 40.58553314208984376 43.72035217285156248 -143.58590698242187504
v 42.28849029541015624 42.73714447021484368 -145.19921875
v 41.10691070556640624 43.41933059692382816 -143.285858154296875
v 43.7428092956542968 41.89749526977539056 -140.18278503417968752
v 41.8017539978027344 43.01816558837890625 -140.88909912109375008
v 43.19892883300781248 42.21150588989257812 -138.92269897460937504
v 41.54189682006835936 43.16819381713867188 -140.28706359863281248
v 42.34444808959960936 42.70484161376953128 -137.91836547851562496
v 41.13364791870117188 43.40389633178710936 -139.80722045898437504
v 37.7632942199707032 45.34976959228515624 -137.87141418457031248
v 36.89351272583007808 45.8519401550292968 -138.85809326171875008
v 41.26300811767578124 43.32920837402343752 -137.26808166503906248
v 40.61695861816406248 43.7022056579589844 -139.49652099609375
v 40.06047439575195312 44.02349090576171875 -137.035491943359375
v 40.04241561889648437 44.0339202880859375 -139.38540649414062496
v 38.85455703735351568 44.7197303771972656 -137.24339294433593752
v 39.46625518798828128 44.36656570434570312 -139.4847412109375
v 38.94487380981445312 44.66758346557617184 -139.7847900390625
v 43.15827178955078124 42.23497772216796876 -144.212554931640625
v 42.73849105834960944 43.51657104492187504 -145.19921875
v 41.64722824096679688 44.14661026000976562 -145.82723999023437504
v 40.44131088256835936 44.84284591674804688 -146.0351409912109375
v 39.23877716064453124 45.53713226318359376 -145.80256652832031248
v 38.15733718872070312 46.1614990234375 -145.15228271484375
v 37.3028564453125 46.65483474731445312 -144.14794921875
v 36.75897598266601568 46.96884536743164064 -142.88786315917968752
v 36.57893371582031248 47.07279205322265625 -141.49539184570312496
v 36.78034973144531248 46.95650482177734368 -140.1068267822265625
v 37.34351348876953124 46.63136291503906248 -138.85809326171875008
v 38.21329498291015624 46.12919235229492188 -137.87141418457031248
v 39.30455398559570312 45.49915313720703128 -137.24339294433593752
v 40.51047515869140624 44.80291366577148432 -137.035491943359375
v 41.7130088806152344 44.10863113403320312 -137.26808166503906248
v 42.7944450378417968 43.48426437377929688 -137.91836547851562496
v 43.64892578125 42.99092864990234368 -138.92269897460937504
v 44.19281005859375 42.67691802978515624 -140.18278503417968752
v 44.37285232543945312 42.57297134399414064 -141.57525634765625
v 44.17143630981445312 42.68925857543945312 -142.96382141113281248
v 43.6082725524902344 43.01440048217773437 -144.212554931640625
v 41.03553009033203125 44.49977493286132816 -143.58590698242187504
v 41.55691146850585936 44.19875335693359376 -143.285858154296875
v 40.45936965942382816 44.83242034912109376 -143.68524169921875
v 39.88482666015624992 45.16413497924804688 -143.57411193847656248
v 39.36813735961914064 45.46244430541992184 -143.263427734375
v 38.95988845825195312 45.69814682006835936 -142.7835693359375
v 38.6140098571777344 45.8978385925292968 -141.5162353515625
v 38.70003128051757816 45.84817504882812496 -142.18153381347656248
v 38.71024322509765624 45.8422775268554688 -140.85281372070312496
v 41.06695938110351562 44.48162841796875 -139.49652099609375
v 40.49241638183593752 44.8133430480957032 -139.38540649414062496
v 41.58364486694335936 44.183319091796875 -139.80722045898437504
v 41.99189758300781248 43.94761657714843744 -140.28706359863281248
v 42.25175476074218752 43.79758834838867184 -140.88909912109375008
v 38.97931289672851568 45.68693161010742184 -140.256195068359375
v 39.9162521362304688 45.14598846435546876 -139.4847412109375
v 39.39487457275390624 45.44700622558593752 -139.7847900390625
v 42.33777236938476564 43.7479248046875 -141.55439758300781248
v 42.24154281616210936 43.80348205566406256 -142.21781921386718752
v 41.97247314453124992 43.95882797241210944 -142.81443786621093744
v 22.11030197143554688 48.52115249633789064 -132.35899353027343752
v 22.87762260437011712 48.07813644409179688 -133.45314025878906248
v 24.239410400390625 47.29190826416015624 -131.70675659179687504
v 23.90020179748535152 47.48775100708007816 -134.219940185546875
v 24.72797584533691408 47.00983428955078125 -132.0731048583984375
v 21.60953521728515624 48.81026840209960944 -129.63861083984375
v 23.6335468292236328 47.64170455932617184 -129.88424682617187504
v 23.78432083129882816 47.55465698242187504 -129.23451232910156248
v 21.67334747314453128 48.7734260559082032 -131.044586181640625
v 23.66403579711914064 47.62410354614257816 -130.55599975585937504
v 23.8728008270263672 47.50357055664062496 -131.183990478515625
v 29.04549217224121094 44.51711654663085936 -131.93930053710937504
v 27.1862812042236328 45.59053421020507816 -130.98347473144531248
v 26.86900329589843744 45.77371215820312496 -131.54762268066406248
v 29.36106681823730472 44.33491897583007812 -130.57936096191406248
v 27.33705520629882812 45.5034828186035156 -130.33372497558593752
v 21.92510986328124992 48.62807083129882816 -128.27867126464843752
v 24.10159873962402344 47.37147521972656248 -128.67036437988281248
v 25.07794189453125 46.80778121948242192 -134.58433532714843752
v 25.29067420959472656 46.68496322631835936 -132.24720764160156248
v 26.29555702209472656 46.10479354858398438 -134.51065063476562496
v 25.87242317199707024 46.349090576171875 -132.212005615234375
v 27.43385887145996096 45.44759368896484376 -134.006103515625
v 26.41627883911132816 46.03509521484375 -131.970947265625
v 29.29725456237792968 44.3717613220214844 -129.1733856201171875
v 27.30656814575195312 45.52108383178710936 -129.66197204589843752
v 28.86030197143554688 44.62403488159179688 -127.85898590087890624
v 27.09780120849609376 45.64161682128906248 -129.0339813232421875
v 28.09297943115234376 45.06705093383789062 -126.76483917236328128
v 26.731191635131836 45.8532791137695312 -128.51123046875
v 23.5367450714111328 47.69759368896484376 -126.21187591552734376
v 22.58918190002441408 48.24467086791992188 -127.097900390625
v 27.07040023803710938 45.65743637084960936 -125.99803161621093744
v 26.24262619018554688 46.13535308837890624 -128.144866943359375
v 25.89266014099121088 46.33740615844726564 -125.63364410400390624
v 25.6799278259277344 46.46022415161132816 -127.97076416015624992
v 24.6750450134277344 47.04039382934570312 -125.70732116699218752
v 25.09817886352539062 46.79610061645507808 -128.0059661865234375
v 24.5543231964111328 47.1100921630859375 -128.247039794921875
v 28.38142204284667968 44.9005165100097656 -133.1200714111328125
v 27.88385772705078128 46.22701644897460936 -134.006103515625
v 26.74555778503417968 46.88421630859375008 -134.51065063476562496
v 25.52794265747070312 47.58720397949218752 -134.58433532714843752
v 24.35020256042480468 48.26717376708984376 -134.219940185546875
v 23.32762336730957032 48.85755920410156256 -133.45314025878906248
v 22.5603008270263672 49.30057525634765624 -132.35899353027343752
v 22.12334823608398438 49.55284881591796872 -131.044586181640625
v 22.05953598022460938 49.58969116210937504 -129.63861083984375
v 22.37511062622070312 49.40749359130859376 -128.27867126464843752
v 23.03918075561523437 49.0240936279296875 -127.097900390625
v 23.98674392700195312 48.47701644897460936 -126.21187591552734376
v 25.1250457763671875 47.8198165893554688 -125.70732116699218752
v 26.34266090393066408 47.11682891845703124 -125.63364410400390624
v 27.52040100097656248 46.43685913085937504 -125.99803161621093744
v 28.54298019409179688 45.84647369384765632 -126.76483917236328128
v 29.3103008270263672 45.40345764160156248 -127.85898590087890624
v 29.74725341796875008 45.15118408203125 -129.1733856201171875
v 29.81106758117675776 45.11434173583984376 -130.57936096191406248
v 29.49549293518066408 45.296539306640625 -131.93930053710937504
v 28.8314208984375 45.67993927001953128 -133.1200714111328125
v 26.32242393493652344 47.12851333618164062 -132.212005615234375
v 26.86627769470214848 46.81451797485351568 -131.970947265625
v 25.74067497253417968 47.46438598632812496 -132.24720764160156248
v 25.17797660827636718 47.78925704956054688 -132.0731048583984375
v 24.68941116333007816 48.07133102416992188 -131.70675659179687504
v 24.32280158996582032 48.28299331665039064 -131.183990478515625
v 24.08354759216308594 48.42112731933593752 -129.88424682617187504
v 24.11403465270996094 48.40352630615234376 -130.55599975585937504
v 24.23432159423828124 48.33407974243164064 -129.23451232910156248
v 26.692626953125 46.91477584838867184 -128.144866943359375
v 26.1299285888671875 47.23964691162109376 -127.97076416015624992
v 27.18119239807128908 46.63270187377929688 -128.51123046875
v 27.54780197143554688 46.42103958129882816 -129.0339813232421875
v 27.75656700134277344 46.300506591796875 -129.66197204589843752
v 24.55159950256347656 48.15089797973632812 -128.67036437988281248
v 25.54817962646484376 47.57552337646484376 -128.0059661865234375
v 25.00432395935058593 47.8895149230957032 -128.247039794921875
v 27.78705596923828128 46.28290557861328124 -130.33372497558593752
v 27.63628196716308592 46.36995697021484376 -130.98347473144531248
v 27.31900405883789064 46.55313491821289064 -131.54762268066406248
v 26.95736312866210944 51.58857727050781248 -158.005035400390625
v 27.81184387207031248 51.09524154663085938 -159.009368896484375
v 29.02264595031738281 50.39618682861328128 -157.120513916015625
v 28.89328193664550784 50.47087478637695312 -159.65965270996093752
v 29.53933143615722656 50.09787750244140624 -157.43121337890625
v 26.23343849182128908 52.00653457641601562 -155.35247802734375
v 28.26851654052734376 50.83158111572265632 -155.37333679199218752
v 28.3647499084472656 50.77602386474609376 -154.70989990234375
v 26.41348266601562496 51.902587890625 -156.74494934082031248
v 28.35453796386718752 50.78191757202148432 -156.0386199951171875
v 28.61439323425292968 50.63188934326171872 -156.64067077636718752
v 33.82594299316406256 47.62300109863281248 -156.82090759277343744
v 31.89604759216308592 48.73722839355468752 -156.074920654296875
v 31.62697982788085936 48.8925743103027344 -156.67153930664062496
v 34.0273590087890625 47.5067138671875 -155.43234252929687504
v 31.99227905273437504 48.68166732788085936 -155.41148376464843752
v 26.43485450744628904 51.8902473449707032 -153.96391296386718752
v 28.63381767272949216 50.62067794799804688 -154.11328125
v 30.09581565856933594 49.77659225463867184 -159.89222717285156256
v 30.1138763427734375 49.76616287231445312 -157.54232788085937504
v 31.30173683166503908 49.080352783203125 -159.68434143066406248
v 30.69003677368164064 49.43351745605468752 -157.4429931640625
v 32.39299774169921872 48.4503135681152344 -159.0563201904296875
v 31.21141815185546876 49.13249588012695312 -157.1429443359375
v 33.84731674194335936 47.6106605529785156 -154.0398712158203125
v 31.906259536743164 48.7313308715820312 -154.74620056152343744
v 33.30343246459960936 47.9246711730957032 -152.77978515625
v 31.64640426635742184 48.8813591003417968 -154.1441497802734375
v 32.44895172119140624 48.41800689697265624 -151.77545166015624992
v 31.23815155029296876 49.11706161499023438 -153.664306640625
v 27.8677997589111328 51.06293487548828125 -151.72850036621093744
v 26.99801826477050784 51.56510543823242184 -152.71517944335937504
v 31.36751556396484376 49.0423736572265625 -151.1251678466796875
v 30.72146606445312496 49.41537094116210936 -153.35362243652343752
v 30.16498184204101562 49.73666000366210944 -150.89259338378906256
v 30.14692115783691406 49.74708557128906256 -153.24249267578125
v 28.95906066894531248 50.43289566040039064 -151.1004791259765625
v 29.57075881958007816 50.07973098754882812 -153.341827392578125
v 29.04937934875488281 50.38075256347656248 -153.64187622070312496
v 33.26277923583984376 47.94814300537109376 -158.06964111328125
v 32.84299850463867184 49.229736328125 -159.0563201904296875
v 31.75173568725585936 49.85977554321289056 -159.68434143066406248
v 30.54581642150878904 50.55601501464843752 -159.89222717285156256
v 29.34328079223632812 51.25029754638671876 -159.65965270996093752
v 28.26184463500976564 51.87466430664062496 -159.009368896484375
v 27.40736389160156248 52.36800003051757816 -158.005035400390625
v 26.86348152160644528 52.6820106506347656 -156.74494934082031248
v 26.68343734741210936 52.78595733642578128 -155.35247802734375
v 26.88485527038574224 52.66967010498046872 -153.96391296386718752
v 27.44801902770996096 52.34452819824218752 -152.71517944335937504
v 28.31780052185058592 51.84235763549804688 -151.72850036621093744
v 29.4090614318847656 51.21231842041015624 -151.1004791259765625
v 30.61498069763183592 50.51608276367187504 -150.89259338378906256
v 31.8175163269042968 49.82179641723632816 -151.1251678466796875
v 32.89895248413085936 49.19742965698242188 -151.77545166015624992
v 33.75343322753906256 48.70409393310546872 -152.77978515625
v 34.29731369018554688 48.39008331298828128 -154.0398712158203125
v 34.4773597717285156 48.28613662719726564 -155.43234252929687504
v 34.27594375610351564 48.40242385864257816 -156.82090759277343744
v 33.71277999877929688 48.72756576538085936 -158.06964111328125
v 31.14003753662109376 50.21294021606445312 -157.4429931640625
v 31.66141700744628904 49.91191864013671872 -157.1429443359375
v 30.56387519836425784 50.54558563232421872 -157.54232788085937504
v 29.98933219909667968 50.87730026245117184 -157.43121337890625
v 29.47264480590820312 51.17560958862304688 -157.120513916015625
v 29.06439399719238281 51.4113121032714844 -156.64067077636718752
v 28.71851730346679688 51.61100387573242184 -155.37333679199218752
v 28.80453872680664064 51.56134033203125 -156.0386199951171875
v 28.81475067138671872 51.55544662475585936 -154.70989990234375
v 31.17146492004394532 50.194793701171875 -153.35362243652343752
v 30.5969219207763672 50.52650833129882816 -153.24249267578125
v 31.68815231323242184 49.896484375 -153.664306640625
v 32.096405029296875 49.66078186035156248 -154.1441497802734375
v 32.35625839233398436 49.51075363159179688 -154.74620056152343744
v 29.0838165283203125 51.40010070800781248 -154.11328125
v 30.02075958251953125 50.85915374755859376 -153.341827392578125
v 29.49938011169433592 51.16017532348632812 -153.64187622070312496
v 32.44227981567382816 49.46109008789062496 -155.41148376464843752
v 32.34604644775390624 49.51665115356445312 -156.074920654296875
v 32.0769805908203125 49.6719970703125 -156.67153930664062496
v 14.95677280426025392 58.51712036132812496 -146.57870483398437504
v 15.81125354766845696 58.0237884521484375 -147.58303833007812496
v 17.02205276489257812 57.32472991943359376 -145.69418334960937504
v 16.892690658569336 57.3994178771972656 -148.23332214355468752
v 17.53874015808105472 57.02642059326171875 -146.0048675537109375
v 14.2328462600708008 58.93508148193359376 -143.9261474609375
v 16.26792526245117188 57.7601280212402344 -143.94700622558593744
v 16.36415863037109376 57.70456695556640624 -143.2835693359375
v 14.41289043426513672 58.83113098144531248 -145.31861877441406248
v 16.35394668579101564 57.71046066284179688 -144.61228942871093752
v 16.61380195617675784 57.56043624877929688 -145.214324951171875
v 21.82534980773925776 54.55154418945312496 -145.39457702636718752
v 19.89545631408691408 55.665771484375 -144.64859008789062496
v 19.62638854980468752 55.82111740112304688 -145.245208740234375
v 22.02676773071289062 54.43525695800781248 -144.006011962890625
v 19.9916877746582032 55.61021041870117184 -143.98515319824218752
v 14.4342641830444336 58.81879043579101568 -142.53758239746093752
v 16.63322448730468752 57.54922103881835936 -142.68695068359375
v 18.09522438049316406 56.7051353454589844 -148.46589660644531248
v 18.11328506469726562 56.69470977783203128 -146.115997314453125
v 19.30114364624023436 56.0088958740234375 -148.25801086425781248
v 18.68944549560546872 56.362060546875 -146.01666259765625
v 20.39240646362304688 55.37885665893554688 -147.62998962402343752
v 19.21082687377929688 56.06104278564453125 -145.71661376953125
v 21.84672355651855472 54.53920745849609376 -142.61354064941406248
v 19.90566825866699216 55.65987396240234376 -143.31986999511718752
v 21.30284118652343752 54.85321807861328128 -141.35345458984375
v 19.64581298828125 55.80990219116210944 -142.71781921386718752
v 20.4483604431152344 55.34654998779296876 -140.34912109375
v 19.23756027221679688 56.0456085205078125 -142.23797607421875
v 15.86720848083496096 57.99148178100585936 -140.30216979980468752
v 14.997426986694336 58.4936485290527344 -141.288848876953125
v 19.36692428588867184 55.97092056274414064 -139.69883728027343752
v 18.72087478637695312 56.34391784667968752 -141.92727661132812496
v 18.16439056396484376 56.66520309448242184 -139.46626281738281248
v 18.14632987976074218 56.67562866210937504 -141.816162109375
v 16.95846939086914064 57.36144256591796872 -139.67414855957031248
v 17.57016754150390624 57.00827789306640625 -141.91549682617187504
v 17.04878807067871094 57.309295654296875 -142.215545654296875
v 21.26218795776367188 54.87668991088867184 -146.643310546875
v 20.8424053192138672 56.1582794189453125 -147.62998962402343752
v 19.75114440917968752 56.7883186340332032 -148.25801086425781248
v 18.5452251434326172 57.48455810546875 -148.46589660644531248
v 17.34268951416015624 58.17884063720703124 -148.23332214355468752
v 16.26125335693359376 58.8032112121582032 -147.58303833007812496
v 15.40677261352539064 59.29654312133789064 -146.57870483398437504
v 14.86289024353027344 59.61055374145507816 -145.31861877441406248
v 14.68284606933593752 59.71450424194335936 -143.9261474609375
v 14.88426399230957024 59.59821319580078128 -142.53758239746093752
v 15.44742679595947264 59.2730712890625 -141.288848876953125
v 16.31720924377441408 58.77090454101562496 -140.30216979980468752
v 17.40847015380859376 58.14086532592773438 -139.67414855957031248
v 18.61438941955566408 57.44462585449218752 -139.46626281738281248
v 19.81692504882812496 56.75034332275390624 -139.69883728027343752
v 20.89836120605468752 56.12597274780273438 -140.34912109375
v 21.75284194946289056 55.63264083862304688 -141.35345458984375
v 22.2967243194580078 55.31863021850585936 -142.61354064941406248
v 22.47676849365234376 55.21467971801757812 -144.006011962890625
v 22.27535057067871092 55.33097076416015624 -145.39457702636718752
v 21.71218681335449216 55.65611267089843752 -146.643310546875
v 19.13944625854492188 57.14148330688476562 -146.01666259765625
v 19.6608257293701172 56.8404655456542968 -145.71661376953125
v 18.56328392028808592 57.47413253784179688 -146.115997314453125
v 17.98874092102050784 57.80584335327148432 -146.0048675537109375
v 17.47205352783203128 58.10415267944335938 -145.69418334960937504
v 17.06380081176757812 58.33985900878906248 -145.214324951171875
v 16.71792602539062496 58.53955078125 -143.94700622558593744
v 16.8039474487304688 58.48988342285156248 -144.61228942871093752
v 16.81415939331054688 58.48398971557617184 -143.2835693359375
v 19.17087364196777344 57.12334060668945312 -141.92727661132812496
v 18.59633064270019528 57.45505142211914064 -141.816162109375
v 19.68756103515625 56.82503128051757808 -142.23797607421875
v 20.09581184387207032 56.58932495117187504 -142.71781921386718752
v 20.35566711425781248 56.43929672241210936 -143.31986999511718752
v 17.08322525024414062 58.328643798828125 -142.68695068359375
v 18.02016830444335937 57.78770065307617184 -141.91549682617187504
v 17.49878883361816408 58.08871841430664062 -142.215545654296875
v 20.44168853759765624 56.38963317871093752 -143.98515319824218752
v 20.34545516967773436 56.4451942443847656 -144.64859008789062496
v 20.07638931274414062 56.60054016113281248 -145.245208740234375
# 320 vertices

vn -0.5 -0.86602538824081424 0
vn 0.38630443811416624 -0.22303298115730284 -0.8950001001358032
vn 0.1278805136680603 -0.07383184880018234 -0.98903763294219968
vn -0.14306126534938812 0.08259645849466324 -0.98626124858856208
vn -0.39999920129776 0.23093964159488676 -0.88694280385971072
vn -0.6177824139595032 0.35667684674263 -0.70080417394638064
vn -0.77509284019470208 0.4475000500679016 -0.44606596231460568
vn -0.85653173923492432 0.49451881647109984 -0.14766369760036468
vn -0.85412734746932976 0.49313062429428104 0.16519291698932648
vn -0.768114984035492 0.44347140192985536 0.46187928318977352
vn -0.606914222240448 0.35040208697319032 0.71335369348526
vn -0.38630443811416624 0.22303298115730284 0.8950001001358032
vn -0.1278805136680603 0.07383184880018234 0.98903763294219968
vn 0.14306126534938812 -0.08259645849466324 0.98626124858856208
vn 0.39999920129776 -0.23093964159488676 0.88694280385971072
vn 0.6177824139595032 -0.35667684674263 0.70080417394638064
vn 0.77509284019470208 -0.4475000500679016 0.44606596231460568
vn 0.85653173923492432 -0.49451881647109984 0.14766369760036468
vn 0.85412734746932976 -0.49313062429428104 -0.16519291698932648
vn 0.768114984035492 -0.44347140192985536 -0.46187928318977352
vn 0.606914222240448 -0.35040208697319032 -0.71335369348526
vn 0.5 0.86602538824081424 0
vn 0.31035575270652772 -0.1791839748620987 -0.93358039855957024
vn 0.04532426595687866 -0.02616797760128975 -0.99862951040267952
vn -0.2241438627243042 0.12940952181816102 -0.96592581272125248
vn -0.47167125344276432 0.2723195254802704 -0.83867055177688592
vn -0.67302817106246952 0.3885729908943176 -0.62932038307189944
vn -0.80850434303283696 0.46679019927978512 -0.3583679497241974
vn -0.86483854055404656 0.49931475520133976 -0.0523359552025795
vn -0.83651632070541376 0.48296290636062624 0.25881904363632204
vn -0.72631001472473152 0.41933527588844296 0.5446390509605408
vn -0.54500746726989744 0.31466019153594972 0.7771459817886352
vn -0.31035575270652772 0.1791839748620987 0.93358039855957024
vn -0.04532426595687866 0.02616797760128975 0.99862951040267952
vn 0.2241438627243042 -0.12940952181816102 0.96592581272125248
vn 0.47167125344276432 -0.2723195254802704 0.83867055177688592
vn 0.67302817106246952 -0.3885729908943176 0.62932038307189944
vn 0.80850434303283696 -0.46679019927978512 0.3583679497241974
vn 0.86483854055404656 -0.49931475520133976 0.0523359552025795
vn 0.83651632070541376 -0.48296290636062624 -0.25881904363632204
vn 0.72631001472473152 -0.41933527588844296 -0.5446390509605408
vn 0.54500746726989744 -0.31466019153594972 -0.7771459817886352
# 42 vertex normals

g obj_27616066
s 1
f 1//1 2//1 3//1
f 2//1 4//1 5//1
f 6//1 7//1 8//1
f 6//1 9//1 10//1
f 1//1 11//1 10//1
f 5//1 3//1 2//1
f 12//1 13//1 14//1
f 15//1 16//1 13//1
f 17//1 8//1 18//1
f 10//1 7//1 6//1
f 3//1 11//1 1//1
f 4//1 19//1 20//1
f 21//1 22//1 20//1
f 21//1 23//1 24//1
f 13//1 12//1 15//1
f 15//1 25//1 26//1
f 25//1 27//1 28//1
f 27//1 29//1 30//1
f 31//1 32//1 18//1
f 8//1 17//1 6//1
f 20//1 5//1 4//1
f 24//1 22//1 21//1
f 26//1 16//1 15//1
f 30//1 28//1 27//1
f 33//1 34//1 30//1
f 33//1 35//1 36//1
f 18//1 32//1 17//1
f 20//1 19//1 21//1
f 28//1 26//1 25//1
f 36//1 34//1 33//1
f 37//1 38//1 36//1
f 31//1 39//1 38//1
f 10//1 9//1 1//1
f 23//1 40//1 14//1
f 30//1 29//1 33//1
f 38//1 37//1 31//1
f 14//1 24//1 23//1
f 36//1 35//1 37//1
f 14//1 40//1 12//1
f 18//1 39//1 31//1
f 41//2 23//2 21//2
f 42//3 21//3 19//3
f 43//4 19//4 4//4
f 44//5 4//5 2//5
f 45//6 2//6 1//6
f 46//7 1//7 9//7
f 47//8 9//8 6//8
f 48//9 6//9 17//9
f 49//10 17//10 32//10
f 50//11 32//11 31//11
f 51//12 31//12 37//12
f 52//13 37//13 35//13
f 53//14 35//14 33//14
f 54//15 33//15 29//15
f 55//16 29//16 27//16
f 56//17 27//17 25//17
f 57//18 25//18 15//18
f 58//19 15//19 12//19
f 59//20 12//20 40//20
f 60//21 40//21 23//21
f 23//21 41//21 60//21
f 40//20 60//20 59//20
f 12//19 59//19 58//19
f 15//18 58//18 57//18
f 25//17 57//17 56//17
f 27//16 56//16 55//16
f 29//15 55//15 54//15
f 33//14 54//14 53//14
f 35//13 53//13 52//13
f 37//12 52//12 51//12
f 31//11 51//11 50//11
f 32//10 50//10 49//10
f 17//9 49//9 48//9
f 6//8 48//8 47//8
f 9//7 47//7 46//7
f 1//6 46//6 45//6
f 2//5 45//5 44//5
f 4//4 44//4 43//4
f 19//3 43//3 42//3
f 21//2 42//2 41//2
f 42//22 61//22 62//22
f 42//22 43//22 63//22
f 63//22 61//22 42//22
f 44//22 64//22 63//22
f 45//22 65//22 64//22
f 45//22 46//22 66//22
f 63//22 43//22 44//22
f 66//22 65//22 45//22
f 48//22 67//22 68//22
f 48//22 49//22 69//22
f 54//22 70//22 71//22
f 54//22 55//22 72//22
f 56//22 73//22 72//22
f 56//22 57//22 74//22
f 64//22 44//22 45//22
f 46//22 47//22 68//22
f 69//22 67//22 48//22
f 49//22 50//22 75//22
f 52//22 76//22 77//22
f 52//22 53//22 71//22
f 72//22 70//22 54//22
f 74//22 73//22 56//22
f 68//22 66//22 46//22
f 75//22 69//22 49//22
f 51//22 77//22 75//22
f 71//22 76//22 52//22
f 72//22 55//22 56//22
f 57//22 58//22 78//22
f 58//22 59//22 79//22
f 59//22 60//22 80//22
f 68//22 47//22 48//22
f 77//22 51//22 52//22
f 78//22 74//22 57//22
f 80//22 79//22 59//22
f 75//22 50//22 51//22
f 79//22 78//22 58//22
f 71//22 53//22 54//22
f 41//22 62//22 80//22
f 80//22 60//22 41//22
f 62//22 41//22 42//22
f 80//11 62//11 24//11
f 79//10 80//10 14//10
f 78//9 79//9 13//9
f 74//8 78//8 16//8
f 73//7 74//7 26//7
f 72//6 73//6 28//6
f 70//5 72//5 30//5
f 71//4 70//4 34//4
f 76//3 71//3 36//3
f 77//2 76//2 38//2
f 75//21 77//21 39//21
f 69//20 75//20 18//20
f 67//19 69//19 8//19
f 68//18 67//18 7//18
f 66//17 68//17 10//17
f 65//16 66//16 11//16
f 64//15 65//15 3//15
f 63//14 64//14 5//14
f 61//13 63//13 20//13
f 62//12 61//12 22//12
f 22//12 24//12 62//12
f 20//13 22//13 61//13
f 5//14 20//14 63//14
f 3//15 5//15 64//15
f 11//16 3//16 65//16
f 10//17 11//17 66//17
f 7//18 10//18 68//18
f 8//19 7//19 67//19
f 18//20 8//20 69//20
f 39//21 18//21 75//21
f 38//2 39//2 77//2
f 36//3 38//3 76//3
f 34//4 36//4 71//4
f 30//5 34//5 70//5
f 28//6 30//6 72//6
f 26//7 28//7 73//7
f 16//8 26//8 74//8
f 13//9 16//9 78//9
f 14//10 13//10 79//10
f 24//11 14//11 80//11
f 81//1 82//1 83//1
f 82//1 84//1 85//1
f 86//1 87//1 88//1
f 86//1 89//1 90//1
f 81//1 91//1 90//1
f 85//1 83//1 82//1
f 92//1 93//1 94//1
f 95//1 96//1 93//1
f 97//1 88//1 98//1
f 90//1 87//1 86//1
f 83//1 91//1 81//1
f 84//1 99//1 100//1
f 101//1 102//1 100//1
f 101//1 103//1 104//1
f 93//1 92//1 95//1
f 95//1 105//1 106//1
f 105//1 107//1 108//1
f 107//1 109//1 110//1
f 111//1 112//1 98//1
f 88//1 97//1 86//1
f 100//1 85//1 84//1
f 104//1 102//1 101//1
f 106//1 96//1 95//1
f 110//1 108//1 107//1
f 113//1 114//1 110//1
f 113//1 115//1 116//1
f 98//1 112//1 97//1
f 100//1 99//1 101//1
f 108//1 106//1 105//1
f 116//1 114//1 113//1
f 117//1 118//1 116//1
f 111//1 119//1 118//1
f 90//1 89//1 81//1
f 103//1 120//1 94//1
f 110//1 109//1 113//1
f 118//1 117//1 111//1
f 94//1 104//1 103//1
f 116//1 115//1 117//1
f 94//1 120//1 92//1
f 98//1 119//1 111//1
f 121//23 103//23 101//23
f 122//24 101//24 99//24
f 123//25 99//25 84//25
f 124//26 84//26 82//26
f 125//27 82//27 81//27
f 126//28 81//28 89//28
f 127//29 89//29 86//29
f 128//30 86//30 97//30
f 129//31 97//31 112//31
f 130//32 112//32 111//32
f 131//33 111//33 117//33
f 132//34 117//34 115//34
f 133//35 115//35 113//35
f 134//36 113//36 109//36
f 135//37 109//37 107//37
f 136//38 107//38 105//38
f 137//39 105//39 95//39
f 138//40 95//40 92//40
f 139//41 92//41 120//41
f 140//42 120//42 103//42
f 103//42 121//42 140//42
f 120//41 140//41 139//41
f 92//40 139//40 138//40
f 95//39 138//39 137//39
f 105//38 137//38 136//38
f 107//37 136//37 135//37
f 109//36 135//36 134//36
f 113//35 134//35 133//35
f 115//34 133//34 132//34
f 117//33 132//33 131//33
f 111//32 131//32 130//32
f 112//31 130//31 129//31
f 97//30 129//30 128//30
f 86//29 128//29 127//29
f 89//28 127//28 126//28
f 81//27 126//27 125//27
f 82//26 125//26 124//26
f 84//25 124//25 123//25
f 99//24 123//24 122//24
f 101//23 122//23 121//23
f 122//22 141//22 142//22
f 122//22 123//22 143//22
f 143//22 141//22 122//22
f 124//22 144//22 143//22
f 125//22 145//22 144//22
f 125//22 126//22 146//22
f 143//22 123//22 124//22
f 146//22 145//22 125//22
f 128//22 147//22 148//22
f 128//22 129//22 149//22
f 134//22 150//22 151//22
f 134//22 135//22 152//22
f 136//22 153//22 152//22
f 136//22 137//22 154//22
f 144//22 124//22 125//22
f 126//22 127//22 148//22
f 149//22 147//22 128//22
f 129//22 130//22 155//22
f 132//22 156//22 157//22
f 132//22 133//22 151//22
f 152//22 150//22 134//22
f 154//22 153//22 136//22
f 148//22 146//22 126//22
f 155//22 149//22 129//22
f 131//22 157//22 155//22
f 151//22 156//22 132//22
f 152//22 135//22 136//22
f 137//22 138//22 158//22
f 138//22 139//22 159//22
f 139//22 140//22 160//22
f 148//22 127//22 128//22
f 157//22 131//22 132//22
f 158//22 154//22 137//22
f 160//22 159//22 139//22
f 155//22 130//22 131//22
f 159//22 158//22 138//22
f 151//22 133//22 134//22
f 121//22 142//22 160//22
f 160//22 140//22 121//22
f 142//22 121//22 122//22
f 160//32 142//32 104//32
f 159//31 160//31 94//31
f 158//30 159//30 93//30
f 154//29 158//29 96//29
f 153//28 154//28 106//28
f 152//27 153//27 108//27
f 150//26 152//26 110//26
f 151//25 150//25 114//25
f 156//24 151//24 116//24
f 157//23 156//23 118//23
f 155//42 157//42 119//42
f 149//41 155//41 98//41
f 147//40 149//40 88//40
f 148//39 147//39 87//39
f 146//38 148//38 90//38
f 145//37 146//37 91//37
f 144//36 145//36 83//36
f 143//35 144//35 85//35
f 141//34 143//34 100//34
f 142//33 141//33 102//33
f 102//33 104//33 142//33
f 100//34 102//34 141//34
f 85//35 100//35 143//35
f 83//36 85//36 144//36
f 91//37 83//37 145//37
f 90//38 91//38 146//38
f 87//39 90//39 148//39
f 88//40 87//40 147//40
f 98//41 88//41 149//41
f 119//42 98//42 155//42
f 118//23 119//23 157//23
f 116//24 118//24 156//24
f 114//25 116//25 151//25
f 110//26 114//26 150//26
f 108//27 110//27 152//27
f 106//28 108//28 153//28
f 96//29 106//29 154//29
f 93//30 96//30 158//30
f 94//31 93//31 159//31
f 104//32 94//32 160//32
f 161//1 162//1 163//1
f 162//1 164//1 165//1
f 166//1 167//1 168//1
f 166//1 169//1 170//1
f 161//1 171//1 170//1
f 165//1 163//1 162//1
f 172//1 173//1 174//1
f 175//1 176//1 173//1
f 177//1 168//1 178//1
f 170//1 167//1 166//1
f 163//1 171//1 161//1
f 164//1 179//1 180//1
f 181//1 182//1 180//1
f 181//1 183//1 184//1
f 173//1 172//1 175//1
f 175//1 185//1 186//1
f 185//1 187//1 188//1
f 187//1 189//1 190//1
f 191//1 192//1 178//1
f 168//1 177//1 166//1
f 180//1 165//1 164//1
f 184//1 182//1 181//1
f 186//1 176//1 175//1
f 190//1 188//1 187//1
f 193//1 194//1 190//1
f 193//1 195//1 196//1
f 178//1 192//1 177//1
f 180//1 179//1 181//1
f 188//1 186//1 185//1
f 196//1 194//1 193//1
f 197//1 198//1 196//1
f 191//1 199//1 198//1
f 170//1 169//1 161//1
f 183//1 200//1 174//1
f 190//1 189//1 193//1
f 198//1 197//1 191//1
f 174//1 184//1 183//1
f 196//1 195//1 197//1
f 174//1 200//1 172//1
f 178//1 199//1 191//1
f 201//2 183//2 181//2
f 202//3 181//3 179//3
f 203//4 179//4 164//4
f 204//5 164//5 162//5
f 205//6 162//6 161//6
f 206//7 161//7 169//7
f 207//8 169//8 166//8
f 208//9 166//9 177//9
f 209//10 177//10 192//10
f 210//11 192//11 191//11
f 211//12 191//12 197//12
f 212//13 197//13 195//13
f 213//14 195//14 193//14
f 214//15 193//15 189//15
f 215//16 189//16 187//16
f 216//17 187//17 185//17
f 217//18 185//18 175//18
f 218//19 175//19 172//19
f 219//20 172//20 200//20
f 220//21 200//21 183//21
f 183//21 201//21 220//21
f 200//20 220//20 219//20
f 172//19 219//19 218//19
f 175//18 218//18 217//18
f 185//17 217//17 216//17
f 187//16 216//16 215//16
f 189//15 215//15 214//15
f 193//14 214//14 213//14
f 195//13 213//13 212//13
f 197//12 212//12 211//12
f 191//11 211//11 210//11
f 192//10 210//10 209//10
f 177//9 209//9 208//9
f 166//8 208//8 207//8
f 169//7 207//7 206//7
f 161//6 206//6 205//6
f 162//5 205//5 204//5
f 164//4 204//4 203//4
f 179//3 203//3 202//3
f 181//2 202//2 201//2
f 202//22 221//22 222//22
f 202//22 203//22 223//22
f 223//22 221//22 202//22
f 204//22 224//22 223//22
f 205//22 225//22 224//22
f 205//22 206//22 226//22
f 223//22 203//22 204//22
f 226//22 225//22 205//22
f 208//22 227//22 228//22
f 208//22 209//22 229//22
f 214//22 230//22 231//22
f 214//22 215//22 232//22
f 216//22 233//22 232//22
f 216//22 217//22 234//22
f 224//22 204//22 205//22
f 206//22 207//22 228//22
f 229//22 227//22 208//22
f 209//22 210//22 235//22
f 212//22 236//22 237//22
f 212//22 213//22 231//22
f 232//22 230//22 214//22
f 234//22 233//22 216//22
f 228//22 226//22 206//22
f 235//22 229//22 209//22
f 211//22 237//22 235//22
f 231//22 236//22 212//22
f 232//22 215//22 216//22
f 217//22 218//22 238//22
f 218//22 219//22 239//22
f 219//22 220//22 240//22
f 228//22 207//22 208//22
f 237//22 211//22 212//22
f 238//22 234//22 217//22
f 240//22 239//22 219//22
f 235//22 210//22 211//22
f 239//22 238//22 218//22
f 231//22 213//22 214//22
f 201//22 222//22 240//22
f 240//22 220//22 201//22
f 222//22 201//22 202//22
f 240//11 222//11 184//11
f 239//10 240//10 174//10
f 238//9 239//9 173//9
f 234//8 238//8 176//8
f 233//7 234//7 186//7
f 232//6 233//6 188//6
f 230//5 232//5 190//5
f 231//4 230//4 194//4
f 236//3 231//3 196//3
f 237//2 236//2 198//2
f 235//21 237//21 199//21
f 229//20 235//20 178//20
f 227//19 229//19 168//19
f 228//18 227//18 167//18
f 226//17 228//17 170//17
f 225//16 226//16 171//16
f 224//15 225//15 163//15
f 223//14 224//14 165//14
f 221//13 223//13 180//13
f 222//12 221//12 182//12
f 182//12 184//12 222//12
f 180//13 182//13 221//13
f 165//14 180//14 223//14
f 163//15 165//15 224//15
f 171//16 163//16 225//16
f 170//17 171//17 226//17
f 167//18 170//18 228//18
f 168//19 167//19 227//19
f 178//20 168//20 229//20
f 199//21 178//21 235//21
f 198//2 199//2 237//2
f 196//3 198//3 236//3
f 194//4 196//4 231//4
f 190//5 194//5 230//5
f 188//6 190//6 232//6
f 186//7 188//7 233//7
f 176//8 186//8 234//8
f 173//9 176//9 238//9
f 174//10 173//10 239//10
f 184//11 174//11 240//11
f 241//1 242//1 243//1
f 242//1 244//1 245//1
f 246//1 247//1 248//1
f 246//1 249//1 250//1
f 241//1 251//1 250//1
f 245//1 243//1 242//1
f 252//1 253//1 254//1
f 255//1 256//1 253//1
f 257//1 248//1 258//1
f 250//1 247//1 246//1
f 243//1 251//1 241//1
f 244//1 259//1 260//1
f 261//1 262//1 260//1
f 261//1 263//1 264//1
f 253//1 252//1 255//1
f 255//1 265//1 266//1
f 265//1 267//1 268//1
f 267//1 269//1 270//1
f 271//1 272//1 258//1
f 248//1 257//1 246//1
f 260//1 245//1 244//1
f 264//1 262//1 261//1
f 266//1 256//1 255//1
f 270//1 268//1 267//1
f 273//1 274//1 270//1
f 273//1 275//1 276//1
f 258//1 272//1 257//1
f 260//1 259//1 261//1
f 268//1 266//1 265//1
f 276//1 274//1 273//1
f 277//1 278//1 276//1
f 271//1 279//1 278//1
f 250//1 249//1 241//1
f 263//1 280//1 254//1
f 270//1 269//1 273//1
f 278//1 277//1 271//1
f 254//1 264//1 263//1
f 276//1 275//1 277//1
f 254//1 280//1 252//1
f 258//1 279//1 271//1
f 281//2 263//2 261//2
f 282//3 261//3 259//3
f 283//4 259//4 244//4
f 284//5 244//5 242//5
f 285//6 242//6 241//6
f 286//7 241//7 249//7
f 287//8 249//8 246//8
f 288//9 246//9 257//9
f 289//10 257//10 272//10
f 290//11 272//11 271//11
f 291//12 271//12 277//12
f 292//13 277//13 275//13
f 293//14 275//14 273//14
f 294//15 273//15 269//15
f 295//16 269//16 267//16
f 296//17 267//17 265//17
f 297//18 265//18 255//18
f 298//19 255//19 252//19
f 299//20 252//20 280//20
f 300//21 280//21 263//21
f 263//21 281//21 300//21
f 280//20 300//20 299//20
f 252//19 299//19 298//19
f 255//18 298//18 297//18
f 265//17 297//17 296//17
f 267//16 296//16 295//16
f 269//15 295//15 294//15
f 273//14 294//14 293//14
f 275//13 293//13 292//13
f 277//12 292//12 291//12
f 271//11 291//11 290//11
f 272//10 290//10 289//10
f 257//9 289//9 288//9
f 246//8 288//8 287//8
f 249//7 287//7 286//7
f 241//6 286//6 285//6
f 242//5 285//5 284//5
f 244//4 284//4 283//4
f 259//3 283//3 282//3
f 261//2 282//2 281//2
f 282//22 301//22 302//22
f 282//22 283//22 303//22
f 303//22 301//22 282//22
f 284//22 304//22 303//22
f 285//22 305//22 304//22
f 285//22 286//22 306//22
f 303//22 283//22 284//22
f 306//22 305//22 285//22
f 288//22 307//22 308//22
f 288//22 289//22 309//22
f 294//22 310//22 311//22
f 294//22 295//22 312//22
f 296//22 313//22 312//22
f 296//22 297//22 314//22
f 304//22 284//22 285//22
f 286//22 287//22 308//22
f 309//22 307//22 288//22
f 289//22 290//22 315//22
f 292//22 316//22 317//22
f 292//22 293//22 311//22
f 312//22 310//22 294//22
f 314//22 313//22 296//22
f 308//22 306//22 286//22
f 315//22 309//22 289//22
f 291//22 317//22 315//22
f 311//22 316//22 292//22
f 312//22 295//22 296//22
f 297//22 298//22 318//22
f 298//22 299//22 319//22
f 299//22 300//22 320//22
f 308//22 287//22 288//22
f 317//22 291//22 292//22
f 318//22 314//22 297//22
f 320//22 319//22 299//22
f 315//22 290//22 291//22
f 319//22 318//22 298//22
f 311//22 293//22 294//22
f 281//22 302//22 320//22
f 320//22 300//22 281//22
f 302//22 281//22 282//22
f 320//11 302//11 264//11
f 319//10 320//10 254//10
f 318//9 319//9 253//9
f 314//8 318//8 256//8
f 313//7 314//7 266//7
f 312//6 313//6 268//6
f 310//5 312//5 270//5
f 311//4 310//4 274//4
f 316//3 311//3 276//3
f 317//2 316//2 278//2
f 315//21 317//21 279//21
f 309//20 315//20 258//20
f 307//19 309//19 248//19
f 308//18 307//18 247//18
f 306//17 308//17 250//17
f 305//16 306//16 251//16
f 304//15 305//15 243//15
f 303//14 304//14 245//14
f 301//13 303//13 260//13
f 302//12 301//12 262//12
f 262//12 264//12 302//12
f 260//13 262//13 301//13
f 245//14 260//14 303//14
f 243//15 245//15 304//15
f 251//16 243//16 305//16
f 250//17 251//17 306//17
f 247//18 250//18 308//18
f 248//19 247//19 307//19
f 258//20 248//20 309//20
f 279//21 258//21 315//21
f 278//2 279//2 317//2
f 276//3 278//3 316//3
f 274//4 276//4 311//4
f 270//5 274//5 310//5
f 268//6 270//6 312//6
f 266//7 268//7 313//7
f 256//8 266//8 314//8
f 253//9 256//9 318//9
f 254//10 253//10 319//10
f 264//11 254//11 320//11
#640 polygons

