# Aspose.3D Wavefront OBJ Exporter
# Copyright 2004-2023 Aspose Pty Ltd.
# File created: 06/29/2023 05:42:22


#
# object obj_52981930
#

v 53.812255859375 91.36749267578125 -156.059722900390625
v 53.8962326049804688 91.31900787353515624 -155.44749450683593752
v 55.4202308654785156 93.95865631103515632 -155.44749450683593752
v 53.56855010986328128 91.50820159912109376 -156.61201477050781248
v 55.33625411987304688 94.00714111328125 -156.059722900390625
v 53.18896484375 91.72734832763671872 -157.050323486328125
v 55.09254837036132812 94.1478424072265625 -156.61201477050781248
v 52.71066284179687504 92.00350189208984375 -157.33172607421875
v 54.71296691894531248 94.36699676513671872 -157.050323486328125
v 52.18046188354492188 92.30960845947265624 -157.42869567871093752
v 54.23466491699218752 94.64314270019531248 -157.33172607421875
v 51.65026092529296872 92.61572265625 -157.33172607421875
v 53.7044639587402344 94.94925689697265632 -157.42869567871093752
v 51.17195892333984376 92.89186859130859376 -157.050323486328125
v 53.17425918579101562 95.25537109375 -157.33172607421875
v 50.79237365722656256 93.11102294921875 -156.61201477050781248
v 52.69595718383789064 95.53151702880859376 -157.050323486328125
v 50.54866790771484376 93.25173187255859376 -156.059722900390625
v 52.316375732421875 95.75067138671875008 -156.61201477050781248
v 50.46469116210937504 93.30020904541015624 -155.44749450683593752
v 52.07266998291015625 95.89137268066406256 -156.059722900390625
v 50.54866790771484376 93.25173187255859376 -154.83528137207031248
v 51.98869323730468752 95.93985748291015632 -155.44749450683593752
v 50.79237365722656256 93.11102294921875 -154.28297424316406248
v 52.07266998291015625 95.89137268066406256 -154.83528137207031248
v 51.17195892333984376 92.89186859130859376 -153.84468078613281248
v 52.316375732421875 95.75067138671875008 -154.28297424316406248
v 51.65026092529296872 92.61572265625 -153.56326293945312496
v 52.69595718383789064 95.53151702880859376 -153.84468078613281248
v 52.18046188354492188 92.30960845947265624 -153.46629333496093752
v 53.17425918579101562 95.25537109375 -153.56326293945312496
v 52.71066284179687504 92.00350189208984375 -153.56326293945312496
v 53.7044639587402344 94.94925689697265632 -153.46629333496093752
v 53.18896484375 91.72734832763671872 -153.84468078613281248
v 54.23466491699218752 94.64314270019531248 -153.56326293945312496
v 53.56855010986328128 91.50820159912109376 -154.28297424316406248
v 54.71296691894531248 94.36699676513671872 -153.84468078613281248
v 53.812255859375 91.36749267578125 -154.83528137207031248
v 55.09254837036132812 94.1478424072265625 -154.28297424316406248
v 55.33625411987304688 94.00714111328125 -154.83528137207031248
v 55.98126983642578128 93.63474273681640624 -314.197509765625
v 55.33625411987304688 94.00714111328125 -206.85972595214843744
v 55.4202308654785156 93.95865631103515632 -206.24749755859375
v 54.23466491699218752 94.64314270019531248 -204.36326599121093752
v 53.7044639587402344 94.94925689697265632 -204.26629638671875
v 50.32160568237304688 96.9023513793945312 -149.097503662109375
v 55.09254837036132812 94.1478424072265625 -207.41201782226562496
v 55.98126983642578128 93.63474273681640624 -149.097503662109375
v 53.17425918579101562 95.25537109375 -255.16326904296875
v 53.17425918579101562 95.25537109375 -208.1317291259765625
v 53.7044639587402344 94.94925689697265632 -208.22869873046875
v 54.71296691894531248 94.36699676513671872 -204.64466857910156248
v 55.33625411987304688 94.00714111328125 -205.63526916503906248
v 55.09254837036132812 94.1478424072265625 -205.082977294921875
v 53.17425918579101562 95.25537109375 -204.36326599121093752
v 54.23466491699218752 94.64314270019531248 -255.16326904296875
v 53.7044639587402344 94.94925689697265632 -255.0662994384765625
v 51.98869323730468752 95.93985748291015632 -206.24749755859375
v 54.71296691894531248 94.36699676513671872 -255.44467163085937504
v 52.07266998291015625 95.89137268066406256 -205.63526916503906248
v 52.07266998291015625 95.89137268066406256 -206.85972595214843744
v 55.4202308654785156 93.95865631103515632 -257.0474853515625
v 54.23466491699218752 94.64314270019531248 -258.93173217773437504
v 55.4202308654785156 93.95865631103515632 -307.84750366210937504
v 52.07266998291015625 95.89137268066406256 -256.43527221679687504
v 51.98869323730468752 95.93985748291015632 -257.0474853515625
v 52.69595718383789064 95.53151702880859376 -207.85032653808593744
v 52.316375732421875 95.75067138671875008 -207.41201782226562496
v 55.33625411987304688 94.00714111328125 -257.65972900390625
v 54.71296691894531248 94.36699676513671872 -207.85032653808593744
v 55.33625411987304688 94.00714111328125 -308.459716796875
v 52.316375732421875 95.75067138671875008 -255.88298034667968752
v 52.316375732421875 95.75067138671875008 -306.6829833984375
v 55.09254837036132812 94.1478424072265625 -255.88298034667968752
v 52.69595718383789064 95.53151702880859376 -204.64466857910156248
v 54.23466491699218752 94.64314270019531248 -208.1317291259765625
v 55.09254837036132812 94.1478424072265625 -309.01202392578125
v 52.69595718383789064 95.53151702880859376 -306.24468994140625
v 52.316375732421875 95.75067138671875008 -205.082977294921875
v 55.09254837036132812 94.1478424072265625 -258.212005615234375
v 53.7044639587402344 94.94925689697265632 -259.0286865234375
v 52.07266998291015625 95.89137268066406256 -307.23529052734375
v 53.17425918579101562 95.25537109375 -305.9632568359375
v 55.33625411987304688 94.00714111328125 -256.43527221679687504
v 54.71296691894531248 94.36699676513671872 -258.65032958984375
v 50.32160568237304688 96.9023513793945312 -314.197509765625
v 51.98869323730468752 95.93985748291015632 -307.84750366210937504
v 52.07266998291015625 95.89137268066406256 -308.459716796875
v 53.7044639587402344 94.94925689697265632 -305.86630249023437504
v 52.69595718383789064 95.53151702880859376 -255.44467163085937504
v 53.17425918579101562 95.25537109375 -309.73171997070312496
v 53.7044639587402344 94.94925689697265632 -309.82870483398437504
v 52.316375732421875 95.75067138671875008 -309.01202392578125
v 52.69595718383789064 95.53151702880859376 -309.4503173828125
v 54.23466491699218752 94.64314270019531248 -309.73171997070312496
v 54.71296691894531248 94.36699676513671872 -309.4503173828125
v 55.09254837036132812 94.1478424072265625 -306.6829833984375
v 52.69595718383789064 95.53151702880859376 -258.65032958984375
v 53.17425918579101562 95.25537109375 -258.93173217773437504
v 52.07266998291015625 95.89137268066406256 -257.65972900390625
v 52.316375732421875 95.75067138671875008 -258.212005615234375
v 54.71296691894531248 94.36699676513671872 -306.24468994140625
v 54.23466491699218752 94.64314270019531248 -305.9632568359375
v 55.33625411987304688 94.00714111328125 -307.23529052734375
v 53.812255859375 91.36749267578125 -206.85972595214843744
v 53.8962326049804688 91.31900787353515624 -206.24749755859375
v 53.56855010986328128 91.50820159912109376 -207.41201782226562496
v 53.18896484375 91.72734832763671872 -207.85032653808593744
v 52.71066284179687504 92.00350189208984375 -208.1317291259765625
v 52.18046188354492188 92.30960845947265624 -208.22869873046875
v 51.65026092529296872 92.61572265625 -208.1317291259765625
v 51.17195892333984376 92.89186859130859376 -207.85032653808593744
v 50.79237365722656256 93.11102294921875 -207.41201782226562496
v 50.54866790771484376 93.25173187255859376 -206.85972595214843744
v 50.46469116210937504 93.30020904541015624 -206.24749755859375
v 50.54866790771484376 93.25173187255859376 -205.63526916503906248
v 50.79237365722656256 93.11102294921875 -205.082977294921875
v 51.17195892333984376 92.89186859130859376 -204.64466857910156248
v 51.65026092529296872 92.61572265625 -204.36326599121093752
v 52.18046188354492188 92.30960845947265624 -204.26629638671875
v 52.71066284179687504 92.00350189208984375 -204.36326599121093752
v 53.18896484375 91.72734832763671872 -204.64466857910156248
v 53.56855010986328128 91.50820159912109376 -205.082977294921875
v 53.812255859375 91.36749267578125 -205.63526916503906248
v 53.812255859375 91.36749267578125 -257.65972900390625
v 53.8962326049804688 91.31900787353515624 -257.0474853515625
v 53.56855010986328128 91.50820159912109376 -258.212005615234375
v 53.18896484375 91.72734832763671872 -258.65032958984375
v 52.71066284179687504 92.00350189208984375 -258.93173217773437504
v 52.18046188354492188 92.30960845947265624 -259.0286865234375
v 51.65026092529296872 92.61572265625 -258.93173217773437504
v 51.17195892333984376 92.89186859130859376 -258.65032958984375
v 50.79237365722656256 93.11102294921875 -258.212005615234375
v 50.54866790771484376 93.25173187255859376 -257.65972900390625
v 50.46469116210937504 93.30020904541015624 -257.0474853515625
v 50.54866790771484376 93.25173187255859376 -256.43527221679687504
v 50.79237365722656256 93.11102294921875 -255.88298034667968752
v 51.17195892333984376 92.89186859130859376 -255.44467163085937504
v 51.65026092529296872 92.61572265625 -255.16326904296875
v 52.18046188354492188 92.30960845947265624 -255.0662994384765625
v 52.71066284179687504 92.00350189208984375 -255.16326904296875
v 53.18896484375 91.72734832763671872 -255.44467163085937504
v 53.56855010986328128 91.50820159912109376 -255.88298034667968752
v 53.812255859375 91.36749267578125 -256.43527221679687504
v 53.812255859375 91.36749267578125 -308.459716796875
v 53.8962326049804688 91.31900787353515624 -307.84750366210937504
v 53.56855010986328128 91.50820159912109376 -309.01202392578125
v 53.18896484375 91.72734832763671872 -309.4503173828125
v 52.71066284179687504 92.00350189208984375 -309.73171997070312496
v 52.18046188354492188 92.30960845947265624 -309.82870483398437504
v 51.65026092529296872 92.61572265625 -309.73171997070312496
v 51.17195892333984376 92.89186859130859376 -309.4503173828125
v 50.79237365722656256 93.11102294921875 -309.01202392578125
v 50.54866790771484376 93.25173187255859376 -308.459716796875
v 50.46469116210937504 93.30020904541015624 -307.84750366210937504
v 50.54866790771484376 93.25173187255859376 -307.23529052734375
v 50.79237365722656256 93.11102294921875 -306.6829833984375
v 51.17195892333984376 92.89186859130859376 -306.24468994140625
v 51.65026092529296872 92.61572265625 -305.9632568359375
v 52.18046188354492188 92.30960845947265624 -305.86630249023437504
v 52.71066284179687504 92.00350189208984375 -305.9632568359375
v 53.18896484375 91.72734832763671872 -306.24468994140625
v 53.56855010986328128 91.50820159912109376 -306.6829833984375
v 53.812255859375 91.36749267578125 -307.23529052734375
v 56.06341171264648438 93.57091522216796872 -149.097503662109375
v 56.06341171264648438 93.57091522216796872 -314.197509765625
v 56.12523269653320312 93.48725128173828128 -149.097503662109375
v 56.12523269653320312 93.48725128173828128 -314.197509765625
v 56.16212081909179688 93.38999176025390624 -149.097503662109375
v 56.16212081909179688 93.38999176025390624 -314.197509765625
v 56.17132186889648438 93.28636932373046876 -149.097503662109375
v 56.17132186889648438 93.28636932373046876 -314.197509765625
v 56.15215682983398438 93.18412780761718752 -149.097503662109375
v 56.15215682983398438 93.18412780761718752 -314.197509765625
v 56.14800262451171876 93.03696441650390625 -314.197509765625
v 56.22618484497070312 92.91221618652343744 -314.197509765625
v 56.14800262451171876 93.03696441650390625 -149.097503662109375
v 56.36043548583984376 92.85179138183593744 -314.197509765625
v 56.22618484497070312 92.91221618652343744 -149.097503662109375
v 56.50565338134765624 92.87599182128906256 -314.197509765625
v 56.36043548583984376 92.85179138183593744 -149.097503662109375
v 56.61305618286132816 92.9766845703125 -314.197509765625
v 56.50565338134765624 92.87599182128906256 -149.097503662109375
v 56.61305618286132816 92.9766845703125 -149.097503662109375
v 56.96865463256835936 93.59260559082031248 -149.097503662109375
v 56.96865463256835936 93.59260559082031248 -314.197509765625
v 57.043670654296875 93.68524169921875 -149.097503662109375
v 57.043670654296875 93.68524169921875 -314.197509765625
v 57.14364242553710938 93.75016784667968752 -149.097503662109375
v 57.14364242553710938 93.75016784667968752 -314.197509765625
v 57.25878524780273436 93.7810134887695312 -149.097503662109375
v 57.25878524780273436 93.7810134887695312 -314.197509765625
v 57.37782287597656248 93.7747802734375 -149.097503662109375
v 57.37782287597656248 93.7747802734375 -314.197509765625
v 57.48910903930664064 93.7320632934570312 -149.097503662109375
v 57.48910903930664064 93.7320632934570312 -314.197509765625
v 58.45228958129882816 93.17596435546875 -149.097503662109375
v 58.45228958129882816 93.17596435546875 -314.197509765625
v 58.53119659423828128 93.11541748046875 -149.097503662109375
v 58.53119659423828128 93.11541748046875 -314.197509765625
v 58.59174728393554688 93.0365142822265625 -149.097503662109375
v 58.59174728393554688 93.0365142822265625 -314.197509765625
v 58.62980651855468752 92.94461822509765632 -149.097503662109375
v 58.62980651855468752 92.94461822509765632 -314.197509765625
v 59.29652786254882812 90.45638275146484376 -149.097503662109375
v 59.29652786254882812 90.45638275146484376 -314.197509765625
v 59.30950927734375 90.35777282714843752 -149.097503662109375
v 59.30950927734375 90.35777282714843752 -314.197509765625
v 59.29652786254882812 90.25916290283203124 -149.097503662109375
v 59.29652786254882812 90.25916290283203124 -314.197509765625
v 59.25846862792968752 90.16727447509765624 -149.097503662109375
v 59.25846862792968752 90.16727447509765624 -314.197509765625
v 59.09878158569335938 89.89069366455078128 -149.097503662109375
v 59.09878158569335938 89.89069366455078128 -314.197509765625
v 59.03823471069335937 89.81178283691406256 -149.097503662109375
v 59.03823471069335937 89.81178283691406256 -314.197509765625
v 58.95932769775390624 89.75123596191406256 -149.097503662109375
v 58.95932769775390624 89.75123596191406256 -314.197509765625
v 58.8674354553222656 89.71317291259765624 -149.097503662109375
v 58.8674354553222656 89.71317291259765624 -314.197509765625
v 57.52420425415039064 89.35325622558593752 -149.097503662109375
v 57.52420425415039064 89.35325622558593752 -314.197509765625
v 57.4255943298339844 89.34027862548828124 -149.097503662109375
v 57.4255943298339844 89.34027862548828124 -314.197509765625
v 57.32698440551757812 89.35325622558593752 -149.097503662109375
v 57.32698440551757812 89.35325622558593752 -314.197509765625
v 57.23509216308593752 89.39131927490234376 -149.097503662109375
v 57.23509216308593752 89.39131927490234376 -314.197509765625
v 48.797607421875 94.26270294189453124 -149.097503662109375
v 48.797607421875 94.26270294189453124 -314.197509765625
v 50.03249740600585937 96.94041442871093744 -314.197509765625
v 50.03249740600585937 96.94041442871093744 -149.097503662109375
v 50.13110733032226562 96.95339202880859376 -149.097503662109375
v 50.13110733032226562 96.95339202880859376 -314.197509765625
v 50.22971725463867188 96.94041442871093744 -149.097503662109375
v 50.22971725463867188 96.94041442871093744 -314.197509765625
v 48.68926239013671872 96.58049011230468752 -314.197509765625
v 48.68926239013671872 96.58049011230468752 -149.097503662109375
v 48.45791625976562496 96.40297698974609376 -314.197509765625
v 48.45791625976562496 96.40297698974609376 -149.097503662109375
v 48.51846694946289064 96.48188018798828128 -149.097503662109375
v 48.51846694946289064 96.48188018798828128 -314.197509765625
v 48.59737396240234376 96.54243469238281248 -149.097503662109375
v 48.59737396240234376 96.54243469238281248 -314.197509765625
v 48.29823303222656248 96.12639617919921876 -314.197509765625
v 48.29823303222656248 96.12639617919921876 -149.097503662109375
v 48.71870040893554688 94.32324981689453124 -149.097503662109375
v 48.26016998291015624 96.0345001220703125 -149.097503662109375
v 48.24718856811523436 95.93589019775390624 -149.097503662109375
v 48.62009048461914064 94.49404907226562496 -149.097503662109375
v 48.65814971923828128 94.40216064453125 -149.097503662109375
v 48.26016998291015624 95.8372802734375 -149.097503662109375
v 48.26016998291015624 95.8372802734375 -314.197509765625
v 48.24718856811523436 95.93589019775390624 -314.197509765625
v 48.62009048461914064 94.49404907226562496 -314.197509765625
v 48.71870040893554688 94.32324981689453124 -314.197509765625
v 48.65814971923828128 94.40216064453125 -314.197509765625
v 48.26016998291015624 96.0345001220703125 -314.197509765625
# 258 vertices

vn -0.85536319017410272 0.4938441812992096 0.15643446147441864
vn -0.77163428068161008 0.4455032646656036 0.45399048924446104
vn -0.6123724579811096 0.3535533845424652 0.7071067690849304
vn -0.39316731691360472 0.22699524462223052 0.8910065293312072
vn -0.13547621667385102 0.07821723073720932 0.9876883625984192
vn 0.13547621667385102 -0.07821723073720932 0.9876883625984192
vn 0.39316731691360472 -0.22699524462223052 0.8910065293312072
vn 0.6123724579811096 -0.3535533845424652 0.7071067690849304
vn 0.77163428068161008 -0.4455032646656036 0.45399048924446104
vn 0.85536319017410272 -0.4938441812992096 0.15643446147441864
vn 0.85536319017410272 -0.4938441812992096 -0.15643446147441864
vn 0.77163428068161008 -0.4455032646656036 -0.45399048924446104
vn 0.6123724579811096 -0.3535533845424652 -0.7071067690849304
vn 0.39316731691360472 -0.22699524462223052 -0.8910065293312072
vn 0.13547621667385102 -0.07821723073720932 -0.9876883625984192
vn -0.13547621667385102 0.07821723073720932 -0.9876883625984192
vn -0.39316731691360472 0.22699524462223052 -0.8910065293312072
vn -0.6123724579811096 0.3535533845424652 -0.7071067690849304
vn -0.77163428068161008 0.4455032646656036 -0.45399048924446104
vn -0.85536319017410272 0.4938441812992096 -0.15643446147441864
vn 0.5 0.86602538824081424 0
vn 0.61354541778564456 0.7896594405174256 0
vn 0.80426067113876336 0.59427672624588016 0
vn 0.93502086400985712 0.35459262132644652 0
vn 0.9960784316062928 0.08847483247518539 0
vn 0.98288154602050784 -0.1842384785413742 0
vn 0.99960190057754512 -0.02821363694965839 0
vn 0.84734565019607536 0.5310418009757996 0
vn 0.41042476892471312 0.91189444065094 0
vn -0.16437773406505584 0.98639744520187376 0
vn -0.68395775556564328 0.72952163219451904 0
vn -0.86602538824081424 0.5 0
vn -0.7771459817886352 0.62932038307189944 0
vn -0.5446390509605408 0.83867055177688592 0
vn -0.25881904363632204 0.96592581272125248 0
vn 0.0523359552025795 0.99862951040267952 0
vn 0.3583679497241974 0.93358039855957024 0
vn 0.60876142978668216 0.79335331916809088 0
vn 0.79335331916809088 0.60876142978668216 0
vn 0.92387950420379632 0.38268342614173888 0
vn 0.96592581272125248 0.25881904363632204 0
vn 0.99144488573074336 0.13052618503570556 0
vn 0.99144488573074336 -0.13052618503570556 0
vn 0.92387950420379632 -0.38268342614173888 0
vn 0.86602538824081424 -0.5 0
vn 0.79335331916809088 -0.60876142978668216 0
vn 0.60876142978668216 -0.79335331916809088 0
vn 0.38268342614173888 -0.92387950420379632 0
vn 0.25881904363632204 -0.96592581272125248 0
vn 0.13052618503570556 -0.99144488573074336 0
vn -0.13052618503570556 -0.99144488573074336 0
vn -0.38268342614173888 -0.92387950420379632 0
vn -0.5 -0.86602538824081424 0
vn -0.13052618503570556 0.99144488573074336 0
vn 0.13052618503570556 0.99144488573074336 0
vn 0.38268342614173888 0.92387950420379632 0
vn -0.79335331916809088 0.60876142978668216 0
vn -0.60876142978668216 0.79335331916809088 0
vn -0.38268342614173888 0.92387950420379632 0
vn 0 0 1
vn 0 0 -1
vn -0.99144488573074336 -0.13052618503570556 0
vn -0.99144488573074336 0.13052618503570556 0
vn -0.92387950420379632 0.38268342614173888 0
vn -0.96592581272125248 -0.25881904363632204 0
vn -0.60876142978668216 -0.79335331916809088 0
vn -0.79335331916809088 -0.60876142978668216 0
vn -0.92387950420379632 -0.38268342614173888 0
# 68 vertex normals

g obj_52981930
s 1
f 1//1 2//1 3//1
f 4//2 1//2 5//2
f 6//3 4//3 7//3
f 8//4 6//4 9//4
f 10//5 8//5 11//5
f 12//6 10//6 13//6
f 14//7 12//7 15//7
f 16//8 14//8 17//8
f 18//9 16//9 19//9
f 20//10 18//10 21//10
f 22//11 20//11 23//11
f 24//12 22//12 25//12
f 26//13 24//13 27//13
f 28//14 26//14 29//14
f 30//15 28//15 31//15
f 32//16 30//16 33//16
f 34//17 32//17 35//17
f 36//18 34//18 37//18
f 38//19 36//19 39//19
f 2//20 38//20 40//20
f 40//20 3//20 2//20
f 39//19 40//19 38//19
f 37//18 39//18 36//18
f 35//17 37//17 34//17
f 33//16 35//16 32//16
f 31//15 33//15 30//15
f 29//14 31//14 28//14
f 27//13 29//13 26//13
f 25//12 27//12 24//12
f 23//11 25//11 22//11
f 21//10 23//10 20//10
f 19//9 21//9 18//9
f 17//8 19//8 16//8
f 15//7 17//7 14//7
f 13//6 15//6 12//6
f 11//5 13//5 10//5
f 9//4 11//4 8//4
f 7//3 9//3 6//3
f 5//2 7//2 4//2
f 3//1 5//1 1//1
f 41//21 42//21 43//21
f 17//21 44//21 45//21
f 46//21 23//21 21//21
f 43//21 5//21 3//21
f 41//21 47//21 42//21
f 43//21 48//21 41//21
f 49//21 50//21 51//21
f 17//21 52//21 44//21
f 17//21 53//21 54//21
f 13//21 43//21 53//21
f 55//21 21//21 19//21
f 46//21 25//21 23//21
f 3//21 48//21 43//21
f 51//21 56//21 57//21
f 49//21 46//21 58//21
f 54//21 52//21 17//21
f 53//21 17//21 15//21
f 21//21 55//21 46//21
f 46//21 29//21 27//21
f 46//21 48//21 33//21
f 48//21 40//21 39//21
f 43//21 7//21 5//21
f 51//21 59//21 56//21
f 46//21 60//21 58//21
f 58//21 61//21 49//21
f 53//21 15//21 13//21
f 45//21 55//21 17//21
f 27//21 25//21 46//21
f 33//21 31//21 46//21
f 48//21 37//21 35//21
f 48//21 3//21 40//21
f 43//21 9//21 7//21
f 47//21 41//21 62//21
f 63//21 41//21 64//21
f 46//21 65//21 66//21
f 49//21 67//21 50//21
f 61//21 68//21 49//21
f 19//21 17//21 55//21
f 35//21 33//21 48//21
f 43//21 13//21 11//21
f 41//21 69//21 62//21
f 62//21 70//21 47//21
f 41//21 71//21 64//21
f 46//21 72//21 65//21
f 66//21 73//21 46//21
f 51//21 74//21 59//21
f 46//21 55//21 75//21
f 31//21 29//21 46//21
f 11//21 9//21 43//21
f 62//21 76//21 70//21
f 41//21 77//21 71//21
f 66//21 78//21 73//21
f 68//21 67//21 49//21
f 75//21 79//21 46//21
f 39//21 37//21 48//21
f 41//21 80//21 69//21
f 64//21 81//21 63//21
f 46//21 73//21 82//21
f 66//21 83//21 78//21
f 79//21 60//21 46//21
f 51//21 62//21 84//21
f 63//21 85//21 41//21
f 86//21 87//21 88//21
f 82//21 86//21 46//21
f 82//21 87//21 86//21
f 66//21 89//21 83//21
f 46//21 49//21 90//21
f 84//21 74//21 51//21
f 85//21 80//21 41//21
f 86//21 91//21 92//21
f 86//21 93//21 94//21
f 90//21 72//21 46//21
f 41//21 95//21 96//21
f 97//21 98//21 99//21
f 97//21 100//21 101//21
f 89//21 66//21 100//21
f 100//21 97//21 102//21
f 94//21 91//21 86//21
f 62//21 51//21 76//21
f 41//21 92//21 95//21
f 101//21 98//21 97//21
f 102//21 103//21 100//21
f 88//21 93//21 86//21
f 96//21 77//21 41//21
f 100//21 103//21 89//21
f 99//21 81//21 97//21
f 81//21 64//21 104//21
f 51//21 57//21 49//21
f 104//21 97//21 81//21
f 92//21 41//21 86//21
f 105//1 106//1 43//1
f 107//2 105//2 42//2
f 108//3 107//3 47//3
f 109//4 108//4 70//4
f 110//5 109//5 76//5
f 111//6 110//6 51//6
f 112//7 111//7 50//7
f 113//8 112//8 67//8
f 114//9 113//9 68//9
f 115//10 114//10 61//10
f 116//11 115//11 58//11
f 117//12 116//12 60//12
f 118//13 117//13 79//13
f 119//14 118//14 75//14
f 120//15 119//15 55//15
f 121//16 120//16 45//16
f 122//17 121//17 44//17
f 123//18 122//18 52//18
f 124//19 123//19 54//19
f 106//20 124//20 53//20
f 53//20 43//20 106//20
f 54//19 53//19 124//19
f 52//18 54//18 123//18
f 44//17 52//17 122//17
f 45//16 44//16 121//16
f 55//15 45//15 120//15
f 75//14 55//14 119//14
f 79//13 75//13 118//13
f 60//12 79//12 117//12
f 58//11 60//11 116//11
f 61//10 58//10 115//10
f 68//9 61//9 114//9
f 67//8 68//8 113//8
f 50//7 67//7 112//7
f 51//6 50//6 111//6
f 76//5 51//5 110//5
f 70//4 76//4 109//4
f 47//3 70//3 108//3
f 42//2 47//2 107//2
f 43//1 42//1 105//1
f 125//1 126//1 62//1
f 127//2 125//2 69//2
f 128//3 127//3 80//3
f 129//4 128//4 85//4
f 130//5 129//5 63//5
f 131//6 130//6 81//6
f 132//7 131//7 99//7
f 133//8 132//8 98//8
f 134//9 133//9 101//9
f 135//10 134//10 100//10
f 136//11 135//11 66//11
f 137//12 136//12 65//12
f 138//13 137//13 72//13
f 139//14 138//14 90//14
f 140//15 139//15 49//15
f 141//16 140//16 57//16
f 142//17 141//17 56//17
f 143//18 142//18 59//18
f 144//19 143//19 74//19
f 126//20 144//20 84//20
f 84//20 62//20 126//20
f 74//19 84//19 144//19
f 59//18 74//18 143//18
f 56//17 59//17 142//17
f 57//16 56//16 141//16
f 49//15 57//15 140//15
f 90//14 49//14 139//14
f 72//13 90//13 138//13
f 65//12 72//12 137//12
f 66//11 65//11 136//11
f 100//10 66//10 135//10
f 101//9 100//9 134//9
f 98//8 101//8 133//8
f 99//7 98//7 132//7
f 81//6 99//6 131//6
f 63//5 81//5 130//5
f 85//4 63//4 129//4
f 80//3 85//3 128//3
f 69//2 80//2 127//2
f 62//1 69//1 125//1
f 145//1 146//1 64//1
f 147//2 145//2 71//2
f 148//3 147//3 77//3
f 149//4 148//4 96//4
f 150//5 149//5 95//5
f 151//6 150//6 92//6
f 152//7 151//7 91//7
f 153//8 152//8 94//8
f 154//9 153//9 93//9
f 155//10 154//10 88//10
f 156//11 155//11 87//11
f 157//12 156//12 82//12
f 158//13 157//13 73//13
f 159//14 158//14 78//14
f 160//15 159//15 83//15
f 161//16 160//16 89//16
f 162//17 161//17 103//17
f 163//18 162//18 102//18
f 164//19 163//19 97//19
f 146//20 164//20 104//20
f 104//20 64//20 146//20
f 97//19 104//19 164//19
f 102//18 97//18 163//18
f 103//17 102//17 162//17
f 89//16 103//16 161//16
f 83//15 89//15 160//15
f 78//14 83//14 159//14
f 73//13 78//13 158//13
f 82//12 73//12 157//12
f 87//11 82//11 156//11
f 88//10 87//10 155//10
f 93//9 88//9 154//9
f 94//8 93//8 153//8
f 91//7 94//7 152//7
f 92//6 91//6 151//6
f 95//5 92//5 150//5
f 96//4 95//4 149//4
f 77//3 96//3 148//3
f 71//2 77//2 147//2
f 64//1 71//1 145//1
f 41//22 48//22 165//22
f 166//23 165//23 167//23
f 168//24 167//24 169//24
f 170//25 169//25 171//25
f 172//26 171//26 173//26
f 173//26 174//26 172//26
f 171//25 172//25 170//25
f 169//24 170//24 168//24
f 167//23 168//23 166//23
f 165//22 166//22 41//22
f 175//27 174//27 173//27
f 176//28 175//28 177//28
f 178//29 176//29 179//29
f 180//30 178//30 181//30
f 182//31 180//31 183//31
f 183//31 184//31 182//31
f 181//30 183//30 180//30
f 179//29 181//29 178//29
f 177//28 179//28 176//28
f 173//27 177//27 175//27
f 185//32 186//32 182//32
f 182//32 184//32 185//32
f 186//33 185//33 187//33
f 188//34 187//34 189//34
f 190//35 189//35 191//35
f 192//36 191//36 193//36
f 194//37 193//37 195//37
f 195//37 196//37 194//37
f 193//36 194//36 192//36
f 191//35 192//35 190//35
f 189//34 190//34 188//34
f 187//33 188//33 186//33
f 197//21 198//21 196//21
f 196//21 195//21 197//21
f 198//38 197//38 199//38
f 200//39 199//39 201//39
f 202//40 201//40 203//40
f 203//40 204//40 202//40
f 201//39 202//39 200//39
f 199//38 200//38 198//38
f 205//41 206//41 204//41
f 204//41 203//41 205//41
f 206//42 205//42 207//42
f 208//43 207//43 209//43
f 210//44 209//44 211//44
f 211//44 212//44 210//44
f 209//43 210//43 208//43
f 207//42 208//42 206//42
f 213//45 214//45 212//45
f 212//45 211//45 213//45
f 214//46 213//46 215//46
f 216//47 215//47 217//47
f 218//48 217//48 219//48
f 219//48 220//48 218//48
f 217//47 218//47 216//47
f 215//46 216//46 214//46
f 221//49 222//49 220//49
f 220//49 219//49 221//49
f 222//50 221//50 223//50
f 224//51 223//51 225//51
f 226//52 225//52 227//52
f 227//52 228//52 226//52
f 225//51 226//51 224//51
f 223//50 224//50 222//50
f 229//53 139//53 115//53
f 121//53 227//53 2//53
f 139//53 114//53 115//53
f 115//53 18//53 229//53
f 227//53 38//53 2//53
f 18//53 20//53 229//53
f 2//53 119//53 120//53
f 229//53 22//53 24//53
f 139//53 140//53 112//53
f 2//53 120//53 121//53
f 227//53 34//53 36//53
f 20//53 22//53 229//53
f 115//53 14//53 16//53
f 112//53 113//53 139//53
f 227//53 122//53 123//53
f 36//53 38//53 227//53
f 227//53 229//53 30//53
f 16//53 18//53 115//53
f 140//53 141//53 112//53
f 115//53 10//53 12//53
f 115//53 6//53 8//53
f 115//53 2//53 1//53
f 131//53 230//53 155//53
f 109//53 110//53 143//53
f 121//53 122//53 227//53
f 30//53 32//53 227//53
f 229//53 26//53 28//53
f 139//53 113//53 114//53
f 141//53 142//53 112//53
f 8//53 10//53 115//53
f 1//53 4//53 115//53
f 161//53 227//53 126//53
f 230//53 154//53 155//53
f 143//53 144//53 109//53
f 123//53 124//53 227//53
f 28//53 30//53 229//53
f 142//53 143//53 112//53
f 4//53 6//53 115//53
f 227//53 106//53 126//53
f 230//53 153//53 154//53
f 155//53 128//53 129//53
f 110//53 111//53 143//53
f 32//53 34//53 227//53
f 12//53 14//53 115//53
f 227//53 161//53 162//53
f 126//53 160//53 161//53
f 155//53 130//53 131//53
f 155//53 127//53 128//53
f 111//53 112//53 143//53
f 24//53 26//53 229//53
f 2//53 117//53 118//53
f 2//53 115//53 116//53
f 106//53 105//53 126//53
f 229//53 135//53 136//53
f 230//53 134//53 135//53
f 230//53 132//53 133//53
f 129//53 130//53 155//53
f 124//53 106//53 227//53
f 116//53 117//53 2//53
f 118//53 119//53 2//53
f 126//53 107//53 108//53
f 162//53 163//53 227//53
f 229//53 137//53 138//53
f 135//53 229//53 230//53
f 136//53 137//53 229//53
f 131//53 132//53 230//53
f 155//53 126//53 125//53
f 227//53 163//53 164//53
f 105//53 107//53 126//53
f 125//53 127//53 155//53
f 230//53 151//53 152//53
f 164//53 228//53 227//53
f 164//53 146//53 228//53
f 108//53 109//53 126//53
f 133//53 134//53 230//53
f 230//53 150//53 151//53
f 126//53 157//53 158//53
f 144//53 126//53 109//53
f 152//53 153//53 230//53
f 158//53 159//53 126//53
f 126//53 155//53 156//53
f 228//53 149//53 150//53
f 228//53 147//53 148//53
f 138//53 139//53 229//53
f 156//53 157//53 126//53
f 148//53 149//53 228//53
f 228//53 146//53 145//53
f 159//53 160//53 126//53
f 145//53 147//53 228//53
f 150//53 230//53 228//53
f 231//54 232//54 233//54
f 234//55 233//55 235//55
f 236//56 235//56 46//56
f 46//56 86//56 236//56
f 235//55 236//55 234//55
f 233//54 234//54 231//54
f 232//35 231//35 237//35
f 237//35 238//35 232//35
f 239//57 240//57 241//57
f 242//58 241//58 243//58
f 244//59 243//59 238//59
f 238//59 237//59 244//59
f 243//58 244//58 242//58
f 241//57 242//57 239//57
f 240//32 239//32 245//32
f 245//32 246//32 240//32
f 229//60 169//60 167//60
f 229//60 173//60 171//60
f 48//60 247//60 229//60
f 171//60 169//60 229//60
f 46//60 248//60 249//60
f 240//60 46//60 232//60
f 46//60 235//60 233//60
f 167//60 165//60 229//60
f 48//60 250//60 251//60
f 46//60 246//60 248//60
f 240//60 238//60 243//60
f 233//60 232//60 46//60
f 185//60 191//60 189//60
f 185//60 195//60 193//60
f 251//60 247//60 48//60
f 250//60 48//60 46//60
f 46//60 240//60 246//60
f 232//60 238//60 240//60
f 183//60 219//60 217//60
f 193//60 191//60 185//60
f 46//60 252//60 250//60
f 243//60 241//60 240//60
f 183//60 181//60 227//60
f 217//60 215//60 183//60
f 185//60 197//60 195//60
f 184//60 203//60 201//60
f 249//60 252//60 46//60
f 227//60 225//60 183//60
f 183//60 207//60 205//60
f 183//60 211//60 209//60
f 215//60 213//60 183//60
f 189//60 187//60 185//60
f 201//60 199//60 184//60
f 229//60 177//60 173//60
f 229//60 227//60 179//60
f 225//60 223//60 183//60
f 209//60 207//60 183//60
f 183//60 221//60 219//60
f 199//60 197//60 184//60
f 179//60 177//60 229//60
f 223//60 221//60 183//60
f 213//60 211//60 183//60
f 184//60 205//60 203//60
f 181//60 179//60 227//60
f 185//60 184//60 197//60
f 205//60 184//60 183//60
f 229//60 165//60 48//60
f 41//61 166//61 168//61
f 168//61 170//61 41//61
f 170//61 172//61 41//61
f 230//61 86//61 41//61
f 230//61 231//61 234//61
f 230//61 242//61 244//61
f 245//61 253//61 254//61
f 245//61 230//61 255//61
f 192//61 186//61 188//61
f 41//61 174//61 230//61
f 234//61 236//61 230//61
f 230//61 239//61 242//61
f 255//61 253//61 245//61
f 230//61 256//61 257//61
f 188//61 190//61 192//61
f 180//61 182//61 206//61
f 236//61 86//61 230//61
f 230//61 245//61 239//61
f 257//61 255//61 230//61
f 182//61 198//61 200//61
f 192//61 194//61 186//61
f 180//61 214//61 216//61
f 206//61 208//61 180//61
f 180//61 226//61 228//61
f 230//61 237//61 231//61
f 254//61 258//61 245//61
f 200//61 202//61 182//61
f 194//61 196//61 186//61
f 216//61 218//61 180//61
f 208//61 210//61 180//61
f 180//61 224//61 226//61
f 244//61 237//61 230//61
f 202//61 204//61 182//61
f 198//61 182//61 186//61
f 218//61 220//61 180//61
f 210//61 212//61 180//61
f 180//61 222//61 224//61
f 230//61 175//61 176//61
f 172//61 174//61 41//61
f 196//61 198//61 186//61
f 212//61 214//61 180//61
f 228//61 176//61 178//61
f 174//61 175//61 230//61
f 220//61 222//61 180//61
f 176//61 228//61 230//61
f 228//61 178//61 180//61
f 204//61 206//61 182//61
f 253//62 252//62 249//62
f 254//63 249//63 248//63
f 258//64 248//64 246//64
f 246//64 245//64 258//64
f 248//63 258//63 254//63
f 249//62 254//62 253//62
f 252//65 253//65 255//65
f 255//65 250//65 252//65
f 230//66 229//66 247//66
f 256//67 247//67 251//67
f 257//68 251//68 250//68
f 250//68 255//68 257//68
f 251//67 257//67 256//67
f 247//66 256//66 230//66
#528 polygons

