# Aspose.3D Wavefront OBJ Exporter
# Copyright 2004-2023 Aspose Pty Ltd.
# File created: 06/29/2023 05:48:32


#
# object obj_54538947
#

v -70.50572967529296872 39.94425964355468752 -88.37562561035156248
v -71.2777099609375 39.31911849975585936 -88.37562561035156248
v -71.2777099609375 39.31911849975585936 -71.30999755859375
v -69.96470642089843744 40.77736282348632816 -88.37562561035156248
v -70.50572967529296872 39.94425964355468752 -71.30999755859375
v -69.70760345458984376 41.73687362670898432 -88.37562561035156248
v -69.96470642089843744 40.77736282348632816 -71.30999755859375
v -69.75959014892578128 42.7288703918457032 -88.37562561035156248
v -69.70760345458984376 41.73687362670898432 -71.30999755859375
v -70.1155853271484375 43.65625 -88.37562561035156248
v -69.75959014892578128 42.7288703918457032 -71.30999755859375
v -70.74072265625 44.42823410034179688 -88.37562561035156248
v -70.1155853271484375 43.65625 -71.30999755859375
v -71.57382202148437504 44.96925735473632816 -88.37562561035156248
v -70.74072265625 44.42823410034179688 -71.30999755859375
v -72.53333282470703128 45.22635650634765624 -88.37562561035156248
v -71.57382202148437504 44.96925735473632816 -71.30999755859375
v -73.52532958984375 45.17436981201171876 -88.37562561035156248
v -72.53333282470703128 45.22635650634765624 -71.30999755859375
v -74.45271301269531248 44.81838226318359376 -88.37562561035156248
v -73.52532958984375 45.17436981201171876 -71.30999755859375
v -75.224700927734375 44.19324111938476564 -88.37562561035156248
v -74.45271301269531248 44.81838226318359376 -71.30999755859375
v -75.76571655273437504 43.360137939453125 -88.37562561035156248
v -75.224700927734375 44.19324111938476564 -71.30999755859375
v -76.02281951904296875 42.40062713623046872 -88.37562561035156248
v -75.76571655273437504 43.360137939453125 -71.30999755859375
v -75.9708328247070312 41.40863037109375 -88.37562561035156248
v -76.02281951904296875 42.40062713623046872 -71.30999755859375
v -75.61484527587890624 40.48125076293945312 -88.37562561035156248
v -75.9708328247070312 41.40863037109375 -71.30999755859375
v -74.98970031738281248 39.70926666259765624 -88.37562561035156248
v -75.61484527587890624 40.48125076293945312 -71.30999755859375
v -74.1566009521484375 39.168243408203125 -88.37562561035156248
v -74.98970031738281248 39.70926666259765624 -71.30999755859375
v -73.19709014892578124 38.9111442565917968 -88.37562561035156248
v -74.1566009521484375 39.168243408203125 -71.30999755859375
v -72.20509338378906248 38.9631309509277344 -88.37562561035156248
v -73.19709014892578124 38.9111442565917968 -71.30999755859375
v -72.20509338378906248 38.9631309509277344 -71.30999755859375
v -71.9161376953125 29.40426254272460936 -88.37562561035156248
v -74.7580490112304688 29.51059913635253904 -88.37562561035156248
v -80.019378662109375 31.57551765441894528 -88.37562561035156248
v -85.52970123291015624 41.11967849731445312 -88.37562561035156248
v -85.42336273193359376 43.96158599853515632 -88.37562561035156248
v -69.12181854248046876 29.9329757690429688 -88.37562561035156248
v -77.50504302978515624 30.24665260314941408 -88.37562561035156248
v -85.00098419189453125 38.32535934448242188 -88.37562561035156248
v -84.68730926513671872 46.70858001708984376 -88.37562561035156248
v -83.35844421386718752 49.22291564941406248 -88.37562561035156248
v -81.50340270996093752 51.37850952148437504 -88.37562561035156248
v -79.2152099609375 53.06727218627929688 -88.37562561035156248
v -76.60860443115234376 54.20452499389648436 -88.37562561035156248
v -73.81428527832031248 54.73323822021484368 -88.37562561035156248
v -70.97237396240234368 54.62689971923828128 -88.37562561035156248
v -65.71104431152343752 52.56198120117187504 -88.37562561035156248
v -82.1749725341796875 33.43055725097656248 -88.37562561035156248
v -83.86373138427734368 35.71875 -88.37562561035156248
v -68.22537994384765624 53.89084625244140624 -88.37562561035156248
v -60.20072555541992188 43.017822265625 -88.37562561035156248
v -60.30706024169921876 40.17591476440429688 -88.37562561035156248
v -63.55545425415039064 50.70694351196289064 -88.37562561035156248
v -61.8666915893554688 48.41875076293945312 -88.37562561035156248
v -60.72943878173828128 45.8121414184570312 -88.37562561035156248
v -62.37197875976562496 34.91458511352539056 -88.37562561035156248
v -61.04311752319335937 37.42892074584960936 -88.37562561035156248
v -64.227020263671875 32.75899124145507808 -88.37562561035156248
v -66.51521301269531248 31.07022666931152344 -88.37562561035156248
v -79.2152099609375 53.06727218627929688 -80.83499908447265632
v -81.50340270996093752 51.37850952148437504 -80.83499908447265632
v -83.35844421386718752 49.22291564941406248 -80.83499908447265632
v -84.68730926513671872 46.70858001708984376 -80.83499908447265632
v -85.42336273193359376 43.96158599853515632 -80.83499908447265632
v -85.52970123291015624 41.11967849731445312 -80.83499908447265632
v -85.00098419189453125 38.32535934448242188 -80.83499908447265632
v -83.86373138427734368 35.71875 -80.83499908447265632
v -82.1749725341796875 33.43055725097656248 -80.83499908447265632
v -80.019378662109375 31.57551765441894528 -80.83499908447265632
v -77.50504302978515624 30.24665260314941408 -80.83499908447265632
v -74.7580490112304688 29.51059913635253904 -80.83499908447265632
v -71.9161376953125 29.40426254272460936 -80.83499908447265632
v -69.12181854248046876 29.9329757690429688 -80.83499908447265632
v -66.51521301269531248 31.07022666931152344 -80.83499908447265632
v -64.227020263671875 32.75899124145507808 -80.83499908447265632
v -62.37197875976562496 34.91458511352539056 -80.83499908447265632
v -61.04311752319335937 37.42892074584960936 -80.83499908447265632
v -60.30706024169921876 40.17591476440429688 -80.83499908447265632
v -60.20072555541992188 43.017822265625 -80.83499908447265632
v -60.72943878173828128 45.8121414184570312 -80.83499908447265632
v -61.8666915893554688 48.41875076293945312 -80.83499908447265632
v -63.55545425415039064 50.70694351196289064 -80.83499908447265632
v -65.71104431152343752 52.56198120117187504 -80.83499908447265632
v -68.22537994384765624 53.89084625244140624 -80.83499908447265632
v -70.97237396240234368 54.62689971923828128 -80.83499908447265632
v -73.81428527832031248 54.73323822021484368 -80.83499908447265632
v -76.60860443115234376 54.20452499389648436 -80.83499908447265632
v -79.02834320068359375 19.0676422119140625 -71.30999755859375
v -76.20024871826171876 18.49094963073730472 -71.30999755859375
v -89.37625885009765624 59.22743225097656248 -71.30999755859375
v -73.32315826416015624 18.26065444946289064 -71.30999755859375
v -49.25643157958984376 45.17690658569335938 -71.30999755859375
v -49.8059005737304688 48.01041412353515625 -71.30999755859375
v -50.69415283203125 50.75662612915039056 -71.30999755859375
v -49.05711746215820312 41.61080551147460936 -71.30999755859375
v -56.35416412353515624 24.91006660461425776 -71.30999755859375
v -53.97348785400390624 27.57261848449707032 -71.30999755859375
v -87.17900848388671876 61.0989990234375 -71.30999755859375
v -52.358428955078125 29.96474456787109376 -71.30999755859375
v -51.044647216796875 32.53469848632812496 -71.30999755859375
v -47.68251419067382816 45.38411712646484376 -71.30999755859375
v -64.177337646484375 19.89768981933593744 -71.30999755859375
v -60.95896148681640624 21.44651985168457032 -71.30999755859375
v -53.8349647521972656 56.38254547119140624 -71.30999755859375
v -55.70653152465820312 58.57979965209960936 -71.30999755859375
v -52.24298095703125 53.97499847412109376 -71.30999755859375
v -52.71403884887695312 26.60620880126953128 -71.30999755859375
v -58.55141448974609376 23.03850173950195312 -71.30999755859375
v -60.16521072387695312 20.07170486450195312 -71.30999755859375
v -82.39926147460937504 20.24818611145019532 -71.30999755859375
v -95.0362701416015625 33.38087081909179688 -71.30999755859375
v -93.48744201660156248 30.16250038146972656 -71.30999755859375
v -72.40726470947265624 65.87684631347656256 -71.30999755859375
v -75.97336578369140624 65.67752838134765624 -71.30999755859375
v -69.53017425537109376 65.64655303955078128 -71.30999755859375
v -63.33116149902343752 63.88931655883789056 -71.30999755859375
v -66.70208740234375 65.06986236572265625 -71.30999755859375
v -49.86410522460937504 35.90562057495117184 -71.30999755859375
v -49.28741073608398436 38.73371505737304688 -71.30999755859375
v -48.33069610595703124 35.4947471618652344 -71.30999755859375
v -55.25342559814453124 23.76615524291992192 -71.30999755859375
v -63.59814453125 18.4196186065673828 -71.30999755859375
v -69.75705718994140624 18.45996856689453128 -71.30999755859375
v -58.36907958984375 60.96047592163085936 -71.30999755859375
v -60.76120758056640624 62.57553482055664064 -71.30999755859375
v -57.40267181396484376 62.21992492675781248 -71.30999755859375
v -50.8681678771972656 54.76874923706054688 -71.30999755859375
v -91.89546203613281248 27.75495338439941408 -71.30999755859375
v -78.8068771362304688 65.12805938720703124 -71.30999755859375
v -76.18058013916015624 67.25144958496093752 -71.30999755859375
v -66.29120635986328124 66.60326385498046872 -71.30999755859375
v -49.58994293212890624 31.89909553527832032 -71.30999755859375
v -66.92355346679687504 19.00943946838378906 -71.30999755859375
v -69.54985046386718752 16.88605117797851568 -71.30999755859375
v -54.5626182556152344 59.6805381774902344 -71.30999755859375
v -49.21607971191406248 51.33581924438476564 -71.30999755859375
v -90.023895263671875 25.55769920349121096 -71.30999755859375
v -79.43921661376953128 17.53423309326171872 -71.30999755859375
v -96.67330932617187504 42.52669525146484376 -71.30999755859375
v -96.47399139404296872 38.96059417724609376 -71.30999755859375
v -94.68577575683593752 51.60279846191406248 -71.30999755859375
v -95.86631774902343744 48.23188018798828124 -71.30999755859375
v -85.56521606445312496 64.0657958984375 -71.30999755859375
v -84.77146148681640624 62.69097900390625 -71.30999755859375
v -81.55309295654296872 64.23980712890625 -71.30999755859375
v -72.37673950195312496 67.46405029296875 -71.30999755859375
v -62.6955604553222656 65.34401702880859376 -71.30999755859375
v -47.46990966796875 41.58027648925781248 -71.30999755859375
v -73.35369110107421876 16.67344665527343752 -71.30999755859375
v -87.36134338378906248 23.17702293395996094 -71.30999755859375
v -84.96921539306640624 21.56196594238281248 -71.30999755859375
v -88.32775115966796876 21.91757583618164064 -71.30999755859375
v -94.86225891113281248 29.36874961853027344 -71.30999755859375
v -95.92452239990234368 36.12708663940429688 -71.30999755859375
v -98.04791259765625 38.75338363647460944 -71.30999755859375
v -96.44301605224609376 45.40378570556640624 -71.30999755859375
v -97.39972686767578128 48.64275360107421872 -71.30999755859375
v -91.75693511962890624 56.56488037109375 -71.30999755859375
v -82.1322784423828125 65.71788024902343752 -71.30999755859375
v -91.16780853271484376 24.45696258544921872 -71.30999755859375
v -96.51434326171875 32.80168151855468752 -71.30999755859375
v -98.26051330566406248 42.55722427368164064 -71.30999755859375
v -96.14048004150390624 52.2384033203125 -71.30999755859375
v -93.37199401855468752 54.17275619506835938 -71.30999755859375
v -93.016387939453125 57.53129196166992184 -71.30999755859375
v -83.0348663330078125 18.79348182678222656 -71.30999755859375
v -90.47699737548828128 60.37134552001953128 -71.30999755859375
v -90.023895263671875 25.55769920349121096 -80.83499908447265632
v -91.89546203613281248 27.75495338439941408 -80.83499908447265632
v -93.48744201660156248 30.16250038146972656 -80.83499908447265632
v -81.55309295654296872 64.23980712890625 -80.83499908447265632
v -52.358428955078125 29.96474456787109376 -80.83499908447265632
v -53.97348785400390624 27.57261848449707032 -80.83499908447265632
v -78.8068771362304688 65.12805938720703124 -80.83499908447265632
v -75.97336578369140624 65.67752838134765624 -80.83499908447265632
v -72.40726470947265624 65.87684631347656256 -80.83499908447265632
v -51.044647216796875 32.53469848632812496 -80.83499908447265632
v -73.32315826416015624 18.26065444946289064 -80.83499908447265632
v -76.20024871826171876 18.49094963073730472 -80.83499908447265632
v -56.35416412353515624 24.91006660461425776 -80.83499908447265632
v -95.0362701416015625 33.38087081909179688 -80.83499908447265632
v -87.17900848388671876 61.0989990234375 -80.83499908447265632
v -84.77146148681640624 62.69097900390625 -80.83499908447265632
v -93.37199401855468752 54.17275619506835938 -80.83499908447265632
v -91.75693511962890624 56.56488037109375 -80.83499908447265632
v -79.02834320068359375 19.0676422119140625 -80.83499908447265632
v -76.18058013916015624 67.25144958496093752 -80.83499908447265632
v -72.37673950195312496 67.46405029296875 -80.83499908447265632
v -94.86225891113281248 29.36874961853027344 -80.83499908447265632
v -96.51434326171875 32.80168151855468752 -80.83499908447265632
v -85.56521606445312496 64.0657958984375 -80.83499908447265632
v -82.1322784423828125 65.71788024902343752 -80.83499908447265632
v -89.37625885009765624 59.22743225097656248 -80.83499908447265632
v -93.016387939453125 57.53129196166992184 -80.83499908447265632
v -90.47699737548828128 60.37134552001953128 -80.83499908447265632
v -94.68577575683593752 51.60279846191406248 -80.83499908447265632
v -96.44301605224609376 45.40378570556640624 -80.83499908447265632
v -95.86631774902343744 48.23188018798828124 -80.83499908447265632
v -52.71403884887695312 26.60620880126953128 -80.83499908447265632
v -55.25342559814453124 23.76615524291992192 -80.83499908447265632
v -88.32775115966796876 21.91757583618164064 -80.83499908447265632
v -91.16780853271484376 24.45696258544921872 -80.83499908447265632
v -82.39926147460937504 20.24818611145019532 -80.83499908447265632
v -84.96921539306640624 21.56196594238281248 -80.83499908447265632
v -97.39972686767578128 48.64275360107421872 -80.83499908447265632
v -96.14048004150390624 52.2384033203125 -80.83499908447265632
v -96.67330932617187504 42.52669525146484376 -80.83499908447265632
v -79.43921661376953128 17.53423309326171872 -80.83499908447265632
v -83.0348663330078125 18.79348182678222656 -80.83499908447265632
v -66.92355346679687504 19.00943946838378906 -80.83499908447265632
v -69.75705718994140624 18.45996856689453128 -80.83499908447265632
v -87.36134338378906248 23.17702293395996094 -80.83499908447265632
v -98.04791259765625 38.75338363647460944 -80.83499908447265632
v -98.26051330566406248 42.55722427368164064 -80.83499908447265632
v -95.92452239990234368 36.12708663940429688 -80.83499908447265632
v -69.54985046386718752 16.88605117797851568 -80.83499908447265632
v -73.35369110107421876 16.67344665527343752 -80.83499908447265632
v -64.177337646484375 19.89768981933593744 -80.83499908447265632
v -58.55141448974609376 23.03850173950195312 -80.83499908447265632
v -60.95896148681640624 21.44651985168457032 -80.83499908447265632
v -96.47399139404296872 38.96059417724609376 -80.83499908447265632
v -49.8059005737304688 48.01041412353515625 -80.83499908447265632
v -49.25643157958984376 45.17690658569335938 -80.83499908447265632
v -53.8349647521972656 56.38254547119140624 -80.83499908447265632
v -52.24298095703125 53.97499847412109376 -80.83499908447265632
v -49.28741073608398436 38.73371505737304688 -80.83499908447265632
v -49.86410522460937504 35.90562057495117184 -80.83499908447265632
v -47.68251419067382816 45.38411712646484376 -80.83499908447265632
v -47.46990966796875 41.58027648925781248 -80.83499908447265632
v -49.05711746215820312 41.61080551147460936 -80.83499908447265632
v -50.69415283203125 50.75662612915039056 -80.83499908447265632
v -50.8681678771972656 54.76874923706054688 -80.83499908447265632
v -49.21607971191406248 51.33581924438476564 -80.83499908447265632
v -55.70653152465820312 58.57979965209960936 -80.83499908447265632
v -60.76120758056640624 62.57553482055664064 -80.83499908447265632
v -58.36907958984375 60.96047592163085936 -80.83499908447265632
v -63.59814453125 18.4196186065673828 -80.83499908447265632
v -48.33069610595703124 35.4947471618652344 -80.83499908447265632
v -49.58994293212890624 31.89909553527832032 -80.83499908447265632
v -57.40267181396484376 62.21992492675781248 -80.83499908447265632
v -54.5626182556152344 59.6805381774902344 -80.83499908447265632
v -63.33116149902343752 63.88931655883789056 -80.83499908447265632
v -66.29120635986328124 66.60326385498046872 -80.83499908447265632
v -62.6955604553222656 65.34401702880859376 -80.83499908447265632
v -69.53017425537109376 65.64655303955078128 -80.83499908447265632
v -66.70208740234375 65.06986236572265625 -80.83499908447265632
v -60.16521072387695312 20.07170486450195312 -80.83499908447265632
# 256 vertices

vn -0.62932038307189944 0.7771459817886352 0
vn -0.83867055177688592 0.5446390509605408 0
vn -0.96592581272125248 0.25881904363632204 0
vn -0.99862951040267952 -0.0523359552025795 0
vn -0.93358039855957024 -0.3583679497241974 0
vn -0.7771459817886352 -0.62932038307189944 0
vn -0.5446390509605408 -0.83867055177688592 0
vn -0.25881904363632204 -0.96592581272125248 0
vn 0.0523359552025795 -0.99862951040267952 0
vn 0.3583679497241974 -0.93358039855957024 0
vn 0.62932038307189944 -0.7771459817886352 0
vn 0.83867055177688592 -0.5446390509605408 0
vn 0.96592581272125248 -0.25881904363632204 0
vn 0.99862951040267952 0.0523359552025795 0
vn 0.93358039855957024 0.3583679497241974 0
vn 0.7771459817886352 0.62932038307189944 0
vn 0.5446390509605408 0.83867055177688592 0
vn 0.25881904363632204 0.96592581272125248 0
vn -0.0523359552025795 0.99862951040267952 0
vn -0.3583679497241974 0.93358039855957024 0
vn 0 0 -1
vn -0.59382021427154544 0.80459779500961296 0
vn -0.75797170400619504 0.65228742361068728 0
vn -0.88411539793014528 0.4672686159610748 0
vn -0.99930071830749504 0.03739119321107864 0
vn -0.98256647586822512 -0.1859116107225418 0
vn -0.91656225919723504 -0.39989203214645384 0
vn -0.80459779500961296 -0.59382021427154544 0
vn -0.65228742361068728 -0.75797170400619504 0
vn -0.4672686159610748 -0.88411539793014528 0
vn -0.03739119321107864 -0.99930071830749504 0
vn 0.1859116107225418 -0.98256647586822512 0
vn 0.39989203214645384 -0.91656225919723504 0
vn 0.59382021427154544 -0.80459779500961296 0
vn 0.75797170400619504 -0.65228742361068728 0
vn 0.88411539793014528 -0.4672686159610748 0
vn 0.99930071830749504 -0.03739119321107864 0
vn 0.98256647586822512 0.1859116107225418 0
vn 0.91656225919723504 0.39989203214645384 0
vn 0.80459779500961296 0.59382021427154544 0
vn 0.65228742361068728 0.75797170400619504 0
vn 0.4672686159610748 0.88411539793014528 0
vn 0.03739119321107864 0.99930071830749504 0
vn -0.1859116107225418 0.98256647586822512 0
vn -0.39989203214645384 0.91656225919723504 0
vn 0 0 1
vn 0.9010843634605408 0.43364381790161136 0
vn 0.99844169616699216 0.05580459907650948 0
vn 0.943795382976532 -0.33053037524223328 0
vn 0.74546474218368528 -0.66654509305953976 0
vn 0.43364381790161136 -0.9010843634605408 0
vn 0.05580459907650948 -0.99844169616699216 0
vn -0.33053037524223328 -0.943795382976532 0
vn -0.66654509305953976 -0.74546474218368528 0
vn -0.9010843634605408 -0.43364381790161136 0
vn -0.99844169616699216 -0.05580459907650948 0
vn -0.943795382976532 0.33053037524223328 0
vn -0.74546474218368528 0.66654509305953976 0
vn -0.43364381790161136 0.9010843634605408 0
vn -0.05580459907650948 0.99844169616699216 0
vn 0.33053037524223328 0.943795382976532 0
vn 0.66654509305953976 0.74546474218368528 0
vn -0.5 0.86602538824081424 0
vn 0.69337743520736696 -0.72057461738586424 0
vn 0.76127189397811888 0.64843279123306272 0
vn 0.83413124084472656 0.5515660047531128 0
vn 0.91634917259216304 -0.40038007497787472 0
vn -0.79335331916809088 0.60876142978668216 0
vn 0.45517903566360472 0.89039993286132816 0
vn 0.5595616102218628 0.82878875732421872 0
vn 0.99981504678726192 -0.01923129707574844 0
vn 0.07978930324316025 0.99681174755096432 0
vn 0.19980378448963164 0.97983592748641968 0
vn 0.93106818199157712 0.36484524607658384 0
vn -0.99144488573074336 -0.13052618503570556 0
vn -0.30774763226509096 0.95146799087524416 0
vn -0.19037234783172608 0.98171198368072512 0
vn -0.86602538824081424 -0.5 0
vn 0.72057461738586424 0.69337743520736696 0
vn -0.64843279123306272 0.76127189397811888 0
vn -0.5515660047531128 0.83413124084472656 0
vn 0.40038007497787472 0.91634917259216304 0
vn -0.60876142978668216 -0.79335331916809088 0
vn -0.89039993286132816 0.45517903566360472 0
vn -0.82878875732421872 0.5595616102218628 0
vn 0.01923129707574844 0.99981504678726192 0
vn -0.99681174755096432 0.07978930324316025 0
vn -0.97983592748641968 0.19980378448963164 0
vn -0.36484524607658384 0.93106818199157712 0
vn 0.13052618503570556 -0.99144488573074336 0
vn -0.95146799087524416 -0.30774763226509096 0
vn -0.98171198368072512 -0.19037234783172608 0
vn 0.5 -0.86602538824081424 0
vn -0.69337743520736696 0.72057461738586424 0
vn -0.76127189397811888 -0.64843279123306272 0
vn -0.83413124084472656 -0.5515660047531128 0
vn -0.91634917259216304 0.40038007497787472 0
vn 0.79335331916809088 -0.60876142978668216 0
vn -0.45517903566360472 -0.89039993286132816 0
vn -0.5595616102218628 -0.82878875732421872 0
vn -0.99981504678726192 0.01923129707574844 0
vn -0.07978930324316025 -0.99681174755096432 0
vn -0.19980378448963164 -0.97983592748641968 0
vn -0.93106818199157712 -0.36484524607658384 0
vn 0.99144488573074336 0.13052618503570556 0
vn 0.30774763226509096 -0.95146799087524416 0
vn 0.19037234783172608 -0.98171198368072512 0
vn 0.86602538824081424 0.5 0
vn -0.72057461738586424 -0.69337743520736696 0
vn 0.64843279123306272 -0.76127189397811888 0
vn 0.5515660047531128 -0.83413124084472656 0
vn -0.40038007497787472 -0.91634917259216304 0
vn 0.60876142978668216 0.79335331916809088 0
vn 0.89039993286132816 -0.45517903566360472 0
vn 0.82878875732421872 -0.5595616102218628 0
vn -0.01923129707574844 -0.99981504678726192 0
vn 0.99681174755096432 -0.07978930324316025 0
vn 0.97983592748641968 -0.19980378448963164 0
vn 0.36484524607658384 -0.93106818199157712 0
vn -0.13052618503570556 0.99144488573074336 0
vn 0.95146799087524416 0.30774763226509096 0
vn 0.98171198368072512 0.19037234783172608 0
# 122 vertex normals

g obj_54538947
s 1
f 1//1 2//1 3//1
f 4//2 1//2 5//2
f 6//3 4//3 7//3
f 8//4 6//4 9//4
f 10//5 8//5 11//5
f 12//6 10//6 13//6
f 14//7 12//7 15//7
f 16//8 14//8 17//8
f 18//9 16//9 19//9
f 20//10 18//10 21//10
f 22//11 20//11 23//11
f 24//12 22//12 25//12
f 26//13 24//13 27//13
f 28//14 26//14 29//14
f 30//15 28//15 31//15
f 32//16 30//16 33//16
f 34//17 32//17 35//17
f 36//18 34//18 37//18
f 38//19 36//19 39//19
f 2//20 38//20 40//20
f 40//20 3//20 2//20
f 39//19 40//19 38//19
f 37//18 39//18 36//18
f 35//17 37//17 34//17
f 33//16 35//16 32//16
f 31//15 33//15 30//15
f 29//14 31//14 28//14
f 27//13 29//13 26//13
f 25//12 27//12 24//12
f 23//11 25//11 22//11
f 21//10 23//10 20//10
f 19//9 21//9 18//9
f 17//8 19//8 16//8
f 15//7 17//7 14//7
f 13//6 15//6 12//6
f 11//5 13//5 10//5
f 9//4 11//4 8//4
f 7//3 9//3 6//3
f 5//2 7//2 4//2
f 3//1 5//1 1//1
f 41//21 42//21 36//21
f 43//21 32//21 34//21
f 44//21 45//21 26//21
f 46//21 38//21 2//21
f 38//21 46//21 41//21
f 42//21 47//21 34//21
f 34//21 47//21 43//21
f 28//21 48//21 44//21
f 45//21 49//21 24//21
f 50//21 22//21 24//21
f 51//21 52//21 20//21
f 53//21 18//21 20//21
f 54//21 55//21 16//21
f 56//21 12//21 14//21
f 36//21 38//21 41//21
f 43//21 57//21 32//21
f 57//21 58//21 30//21
f 48//21 28//21 30//21
f 24//21 26//21 45//21
f 24//21 49//21 50//21
f 20//21 52//21 53//21
f 18//21 53//21 54//21
f 55//21 59//21 14//21
f 14//21 59//21 56//21
f 60//21 61//21 6//21
f 34//21 36//21 42//21
f 30//21 58//21 48//21
f 50//21 51//21 22//21
f 16//21 18//21 54//21
f 56//21 62//21 12//21
f 62//21 63//21 10//21
f 64//21 8//21 10//21
f 8//21 64//21 60//21
f 30//21 32//21 57//21
f 20//21 22//21 51//21
f 10//21 12//21 62//21
f 6//21 8//21 60//21
f 65//21 1//21 4//21
f 26//21 28//21 44//21
f 10//21 63//21 64//21
f 61//21 66//21 4//21
f 4//21 66//21 65//21
f 14//21 16//21 55//21
f 65//21 67//21 1//21
f 4//21 6//21 61//21
f 67//21 68//21 2//21
f 2//21 1//21 67//21
f 2//21 68//21 46//21
f 69//22 52//22 51//22
f 70//23 51//23 50//23
f 71//24 50//24 49//24
f 72//3 49//3 45//3
f 73//25 45//25 44//25
f 74//26 44//26 48//26
f 75//27 48//27 58//27
f 76//28 58//28 57//28
f 77//29 57//29 43//29
f 78//30 43//30 47//30
f 79//8 47//8 42//8
f 80//31 42//31 41//31
f 81//32 41//32 46//32
f 82//33 46//33 68//33
f 83//34 68//34 67//34
f 84//35 67//35 65//35
f 85//36 65//36 66//36
f 86//13 66//13 61//13
f 87//37 61//37 60//37
f 88//38 60//38 64//38
f 89//39 64//39 63//39
f 90//40 63//40 62//40
f 91//41 62//41 56//41
f 92//42 56//42 59//42
f 93//18 59//18 55//18
f 94//43 55//43 54//43
f 95//44 54//44 53//44
f 96//45 53//45 52//45
f 52//45 69//45 96//45
f 53//44 96//44 95//44
f 54//43 95//43 94//43
f 55//18 94//18 93//18
f 59//42 93//42 92//42
f 56//41 92//41 91//41
f 62//40 91//40 90//40
f 63//39 90//39 89//39
f 64//38 89//38 88//38
f 60//37 88//37 87//37
f 61//13 87//13 86//13
f 66//36 86//36 85//36
f 65//35 85//35 84//35
f 67//34 84//34 83//34
f 68//33 83//33 82//33
f 46//32 82//32 81//32
f 41//31 81//31 80//31
f 42//8 80//8 79//8
f 47//30 79//30 78//30
f 43//29 78//29 77//29
f 57//28 77//28 76//28
f 58//27 76//27 75//27
f 48//26 75//26 74//26
f 44//25 74//25 73//25
f 45//3 73//3 72//3
f 49//24 72//24 71//24
f 50//23 71//23 70//23
f 51//22 70//22 69//22
f 97//46 33//46 31//46
f 97//46 98//46 39//46
f 99//46 29//46 27//46
f 97//46 35//46 33//46
f 39//46 37//46 97//46
f 100//46 40//46 39//46
f 101//46 102//46 11//46
f 103//46 13//46 11//46
f 103//46 19//46 17//46
f 104//46 105//46 106//46
f 107//46 99//46 25//46
f 99//46 31//46 29//46
f 37//46 35//46 97//46
f 100//46 3//46 40//46
f 101//46 7//46 5//46
f 11//46 102//46 103//46
f 17//46 15//46 103//46
f 106//46 108//46 104//46
f 27//46 25//46 99//46
f 39//46 98//46 100//46
f 101//46 9//46 7//46
f 15//46 13//46 103//46
f 108//46 109//46 104//46
f 110//46 111//46 112//46
f 21//46 113//46 114//46
f 21//46 103//46 115//46
f 31//46 99//46 97//46
f 11//46 9//46 101//46
f 104//46 110//46 105//46
f 116//46 106//46 105//46
f 112//46 117//46 110//46
f 118//46 112//46 111//46
f 115//46 113//46 21//46
f 100//46 5//46 3//46
f 103//46 21//46 19//46
f 119//46 120//46 121//46
f 107//46 122//46 123//46
f 23//46 124//46 122//46
f 23//46 125//46 126//46
f 109//46 127//46 128//46
f 129//46 127//46 109//46
f 105//46 130//46 116//46
f 111//46 131//46 118//46
f 110//46 100//46 132//46
f 114//46 133//46 134//46
f 135//46 133//46 114//46
f 125//46 23//46 21//46
f 136//46 115//46 103//46
f 5//46 100//46 101//46
f 121//46 137//46 119//46
f 123//46 138//46 107//46
f 139//46 123//46 122//46
f 126//46 124//46 23//46
f 140//46 126//46 125//46
f 109//46 141//46 129//46
f 117//46 105//46 110//46
f 132//46 142//46 110//46
f 143//46 132//46 100//46
f 114//46 144//46 135//46
f 103//46 145//46 136//46
f 100//46 110//46 101//46
f 137//46 146//46 119//46
f 147//46 148//46 149//46
f 147//46 150//46 151//46
f 152//46 153//46 154//46
f 122//46 155//46 139//46
f 125//46 156//46 140//46
f 104//46 157//46 110//46
f 100//46 158//46 143//46
f 114//46 125//46 21//46
f 99//46 147//46 97//46
f 146//46 159//46 160//46
f 161//46 159//46 146//46
f 119//46 147//46 120//46
f 162//46 121//46 120//46
f 149//46 163//46 147//46
f 164//46 149//46 148//46
f 151//46 165//46 147//46
f 166//46 151//46 150//46
f 147//46 99//46 167//46
f 154//46 168//46 152//46
f 122//46 107//46 23//46
f 142//46 111//46 110//46
f 25//46 23//46 107//46
f 146//46 169//46 161//46
f 120//46 170//46 162//46
f 148//46 171//46 164//46
f 150//46 172//46 166//46
f 167//46 173//46 147//46
f 174//46 167//46 99//46
f 138//46 154//46 107//46
f 134//46 125//46 114//46
f 119//46 175//46 147//46
f 165//46 148//46 147//46
f 99//46 176//46 174//46
f 128//46 104//46 109//46
f 163//46 120//46 147//46
f 153//46 107//46 154//46
f 173//46 150//46 147//46
f 160//46 119//46 146//46
f 73//21 177//21 178//21
f 179//21 180//21 72//21
f 72//21 73//21 179//21
f 89//21 181//21 182//21
f 180//21 71//21 72//21
f 180//21 183//21 96//21
f 184//21 95//21 96//21
f 185//21 186//21 90//21
f 89//21 186//21 181//21
f 180//21 70//21 71//21
f 96//21 183//21 184//21
f 187//21 188//21 80//21
f 90//21 91//21 185//21
f 182//21 189//21 89//21
f 180//21 69//21 70//21
f 184//21 94//21 95//21
f 184//21 92//21 93//21
f 190//21 191//21 192//21
f 190//21 193//21 194//21
f 80//21 81//21 187//21
f 195//21 79//21 80//21
f 195//21 77//21 78//21
f 89//21 90//21 186//21
f 196//21 197//21 185//21
f 198//21 199//21 190//21
f 96//21 69//21 180//21
f 184//21 91//21 92//21
f 200//21 201//21 180//21
f 190//21 202//21 191//21
f 203//21 204//21 202//21
f 190//21 205//21 193//21
f 190//21 206//21 207//21
f 80//21 188//21 195//21
f 195//21 76//21 77//21
f 208//21 209//21 189//21
f 185//21 184//21 196//21
f 190//21 179//21 198//21
f 93//21 94//21 184//21
f 210//21 211//21 177//21
f 74//21 212//21 213//21
f 192//21 180//21 190//21
f 194//21 202//21 190//21
f 214//21 215//21 205//21
f 190//21 216//21 206//21
f 212//21 74//21 75//21
f 217//21 218//21 212//21
f 81//21 82//21 187//21
f 195//21 75//21 76//21
f 83//21 219//21 220//21
f 91//21 184//21 185//21
f 178//21 179//21 73//21
f 177//21 221//21 210//21
f 221//21 73//21 74//21
f 202//21 194//21 203//21
f 207//21 205//21 190//21
f 222//21 223//21 216//21
f 216//21 190//21 224//21
f 212//21 195//21 217//21
f 78//21 79//21 195//21
f 225//21 226//21 187//21
f 83//21 227//21 219//21
f 228//21 229//21 83//21
f 190//21 180//21 179//21
f 213//21 221//21 74//21
f 205//21 207//21 214//21
f 224//21 230//21 216//21
f 82//21 83//21 187//21
f 220//21 187//21 83//21
f 185//21 231//21 232//21
f 185//21 233//21 234//21
f 189//21 87//21 88//21
f 189//21 85//21 86//21
f 84//21 189//21 228//21
f 177//21 73//21 221//21
f 216//21 230//21 222//21
f 187//21 220//21 225//21
f 185//21 235//21 236//21
f 237//21 238//21 239//21
f 185//21 240//21 231//21
f 241//21 242//21 240//21
f 185//21 243//21 233//21
f 185//21 244//21 245//21
f 86//21 87//21 189//21
f 83//21 84//21 228//21
f 180//21 192//21 200//21
f 83//21 246//21 227//21
f 247//21 248//21 186//21
f 185//21 239//21 235//21
f 232//21 239//21 185//21
f 234//21 240//21 185//21
f 249//21 250//21 243//21
f 185//21 251//21 244//21
f 246//21 83//21 229//21
f 84//21 85//21 189//21
f 75//21 195//21 212//21
f 236//21 186//21 185//21
f 240//21 234//21 241//21
f 245//21 243//21 185//21
f 252//21 253//21 251//21
f 251//21 185//21 254//21
f 88//21 89//21 189//21
f 186//21 236//21 247//21
f 243//21 245//21 249//21
f 254//21 255//21 251//21
f 189//21 182//21 208//21
f 251//21 255//21 252//21
f 239//21 232//21 237//21
f 229//21 256//21 246//21
f 241//47 136//47 145//47
f 145//47 242//47 241//47
f 237//48 110//48 157//48
f 157//48 238//48 237//48
f 247//49 129//49 141//49
f 141//49 248//49 247//49
f 208//50 116//50 130//50
f 130//50 209//50 208//50
f 256//51 118//51 131//51
f 131//51 246//51 256//51
f 225//52 143//52 158//52
f 158//52 226//52 225//52
f 217//53 147//53 175//53
f 175//53 218//53 217//53
f 210//54 161//54 169//54
f 169//54 211//54 210//54
f 198//55 162//55 170//55
f 170//55 199//55 198//55
f 222//56 164//56 171//56
f 171//56 223//56 222//56
f 214//57 166//57 172//57
f 172//57 215//57 214//57
f 203//58 174//58 176//58
f 176//58 204//58 203//58
f 200//59 152//59 168//59
f 168//59 201//59 200//59
f 196//60 139//60 155//60
f 155//60 197//60 196//60
f 252//61 140//61 156//61
f 156//61 253//61 252//61
f 249//62 135//62 144//62
f 144//62 250//62 249//62
f 115//63 136//63 241//63
f 241//63 234//63 115//63
f 250//64 144//64 114//64
f 114//64 243//64 250//64
f 243//65 114//65 113//65
f 233//66 113//66 115//66
f 115//66 234//66 233//66
f 113//65 233//65 243//65
f 251//67 253//67 156//67
f 156//67 125//67 251//67
f 245//68 133//68 135//68
f 135//68 249//68 245//68
f 251//69 125//69 134//69
f 244//70 134//70 133//70
f 133//70 245//70 244//70
f 134//69 244//69 251//69
f 197//71 155//71 122//71
f 122//71 185//71 197//71
f 126//3 140//3 252//3
f 252//3 255//3 126//3
f 185//72 122//72 124//72
f 254//73 124//73 126//73
f 126//73 255//73 254//73
f 124//72 254//72 185//72
f 201//74 168//74 154//74
f 154//74 180//74 201//74
f 123//75 139//75 196//75
f 196//75 184//75 123//75
f 180//76 154//76 138//76
f 183//77 138//77 123//77
f 123//77 184//77 183//77
f 138//76 183//76 180//76
f 153//78 152//78 200//78
f 200//78 192//78 153//78
f 204//79 176//79 99//79
f 99//79 202//79 204//79
f 202//80 99//80 107//80
f 191//81 107//81 153//81
f 153//81 192//81 191//81
f 107//80 191//80 202//80
f 215//82 172//82 150//82
f 150//82 205//82 215//82
f 194//83 167//83 174//83
f 174//83 203//83 194//83
f 205//84 150//84 173//84
f 193//85 173//85 167//85
f 167//85 194//85 193//85
f 173//84 193//84 205//84
f 223//86 171//86 148//86
f 148//86 216//86 223//86
f 214//8 207//8 151//8
f 151//8 166//8 214//8
f 216//87 148//87 165//87
f 206//88 165//88 151//88
f 151//88 207//88 206//88
f 165//87 206//87 216//87
f 199//89 170//89 120//89
f 120//89 190//89 199//89
f 149//90 164//90 222//90
f 222//90 230//90 149//90
f 190//91 120//91 163//91
f 224//92 163//92 149//92
f 149//92 230//92 224//92
f 163//91 224//91 190//91
f 121//93 162//93 198//93
f 198//93 179//93 121//93
f 211//94 169//94 146//94
f 146//94 177//94 211//94
f 177//95 146//95 137//95
f 178//96 137//96 121//96
f 121//96 179//96 178//96
f 137//95 178//95 177//95
f 212//97 218//97 175//97
f 175//97 119//97 212//97
f 159//98 161//98 210//98
f 210//98 221//98 159//98
f 212//99 119//99 160//99
f 213//100 160//100 159//100
f 159//100 221//100 213//100
f 160//99 213//99 212//99
f 226//101 158//101 100//101
f 100//101 187//101 226//101
f 97//13 147//13 217//13
f 217//13 195//13 97//13
f 187//102 100//102 98//102
f 188//103 98//103 97//103
f 97//103 195//103 188//103
f 98//102 188//102 187//102
f 227//104 246//104 131//104
f 131//104 111//104 227//104
f 143//105 225//105 220//105
f 220//105 132//105 143//105
f 227//106 111//106 142//106
f 219//107 142//107 132//107
f 132//107 220//107 219//107
f 142//106 219//106 227//106
f 112//108 118//108 256//108
f 256//108 229//108 112//108
f 189//109 209//109 130//109
f 130//109 105//109 189//109
f 189//110 105//110 117//110
f 228//111 117//111 112//111
f 112//111 229//111 228//111
f 117//110 228//110 189//110
f 248//112 141//112 109//112
f 109//112 186//112 248//112
f 106//113 116//113 208//113
f 208//113 182//113 106//113
f 186//114 109//114 108//114
f 181//115 108//115 106//115
f 106//115 182//115 181//115
f 108//114 181//114 186//114
f 238//116 157//116 104//116
f 104//116 239//116 238//116
f 129//18 247//18 236//18
f 236//18 127//18 129//18
f 239//117 104//117 128//117
f 235//118 128//118 127//118
f 127//118 236//118 235//118
f 128//117 235//117 239//117
f 242//119 145//119 103//119
f 103//119 240//119 242//119
f 237//120 232//120 101//120
f 101//120 110//120 237//120
f 240//121 103//121 102//121
f 231//122 102//122 101//122
f 101//122 232//122 231//122
f 102//121 231//121 240//121
#512 polygons

