# Aspose.3D Wavefront OBJ Exporter
# Copyright 2004-2023 Aspose Pty Ltd.
# File created: 06/30/2023 18:27:48


#
# object obj_26274934
#

v -3.053132502373046E-07 -78.77300262451171872 0
v -0.71044212579727176 -78.77300262451171872 -2.18651509284973144
v -1.35134100914001464 -78.77300262451171872 -1.85996091365814208
v -1.85996115207672112 -78.77300262451171872 -1.351340651512146
v -2.18651556968688964 -78.77300262451171872 -0.71044182777404784
v -2.29903841018676756 -78.77300262451171872 0
v -2.18651556968688964 -78.77300262451171872 0.71044182777404784
v -1.85996115207672112 -78.77300262451171872 1.351340651512146
v -1.35134100914001464 -78.77300262451171872 1.85996091365814208
v -0.71044212579727176 -78.77300262451171872 2.18651509284973144
v -3.053132502373046E-07 -78.77300262451171872 2.29903817176818848
v 0.710441529750824 -78.77300262451171872 2.18651509284973144
v 1.35134041309356688 -78.77300262451171872 1.85996091365814208
v 1.85996055603027344 -78.77300262451171872 1.351340651512146
v 2.18651485443115236 -78.77300262451171872 0.71044182777404784
v 2.29903769493103028 -78.77300262451171872 0
v 2.18651485443115236 -78.77300262451171872 -0.71044182777404784
v 1.85996055603027344 -78.77300262451171872 -1.351340651512146
v 1.35134041309356688 -78.77300262451171872 -1.85996091365814208
v 0.710441529750824 -78.77300262451171872 -2.18651509284973144
v -3.053132502373046E-07 -78.77300262451171872 -2.29903817176818848
v -3.053132502373046E-07 -79.52300262451171872 -2.5
v 0.7725421786308288 -79.52300262451171872 -2.37764120101928712
v 1.46946287155151368 -79.52300262451171872 -2.02254247665405273
v 2.02254223823547363 -79.52300262451171872 -1.4694631099700928
v 2.377640962600708 -79.52300262451171872 -0.7725424766540528
v 2.49999976158142088 -79.52300262451171872 0
v 2.377640962600708 -79.52300262451171872 0.7725424766540528
v 2.02254223823547363 -79.52300262451171872 1.4694631099700928
v 1.46946287155151368 -79.52300262451171872 2.02254247665405273
v 0.7725421786308288 -79.52300262451171872 2.37764120101928712
v -3.053132502373046E-07 -79.52300262451171872 2.5
v -0.77254277467727664 -79.52300262451171872 2.37764120101928712
v -1.46946346759796144 -79.52300262451171872 2.02254247665405273
v -2.02254271507263183 -79.52300262451171872 1.4694631099700928
v -2.37764167785644528 -79.52300262451171872 0.7725424766540528
v -2.50000023841857912 -79.52300262451171872 0
v -2.37764167785644528 -79.52300262451171872 -0.7725424766540528
v -2.02254271507263183 -79.52300262451171872 -1.4694631099700928
v -1.46946346759796144 -79.52300262451171872 -2.02254247665405273
v -0.77254277467727664 -79.52300262451171872 -2.37764120101928712
v -3.0531327865901403E-07 -115.52300262451171872 -2.5
v -0.77254277467727664 -115.52300262451171872 -2.37764120101928712
v -1.46946346759796144 -115.52300262451171872 -2.02254247665405273
v -2.02254271507263183 -115.52300262451171872 -1.4694631099700928
v -2.37764167785644528 -115.52300262451171872 -0.7725424766540528
v -2.50000023841857912 -115.52300262451171872 0
v -2.37764167785644528 -115.52300262451171872 0.7725424766540528
v -2.02254271507263183 -115.52300262451171872 1.4694631099700928
v -1.46946346759796144 -115.52300262451171872 2.02254247665405273
v -0.77254277467727664 -115.52300262451171872 2.37764120101928712
v -3.0531327865901403E-07 -115.52300262451171872 2.5
v 0.7725421786308288 -115.52300262451171872 2.37764120101928712
v 1.46946287155151368 -115.52300262451171872 2.02254247665405273
v 2.02254223823547363 -115.52300262451171872 1.4694631099700928
v 2.377640962600708 -115.52300262451171872 0.7725424766540528
v 2.49999976158142088 -115.52300262451171872 0
v 2.377640962600708 -115.52300262451171872 -0.7725424766540528
v 2.02254223823547363 -115.52300262451171872 -1.4694631099700928
v 1.46946287155151368 -115.52300262451171872 -2.02254247665405273
v 0.7725421786308288 -115.52300262451171872 -2.37764120101928712
v -3.0531327865901403E-07 -116.27300262451171876 2.29903817176818848
v 0.710441529750824 -116.27300262451171876 2.18651509284973144
v 1.35134041309356688 -116.27300262451171876 1.85996091365814208
v 1.85996055603027344 -116.27300262451171876 1.351340651512146
v 2.18651485443115236 -116.27300262451171876 0.71044182777404784
v 2.29903769493103028 -116.27300262451171876 0
v 2.18651485443115236 -116.27300262451171876 -0.71044182777404784
v 1.85996055603027344 -116.27300262451171876 -1.351340651512146
v 1.35134041309356688 -116.27300262451171876 -1.85996091365814208
v 0.710441529750824 -116.27300262451171876 -2.18651509284973144
v -3.0531327865901403E-07 -116.27300262451171876 -2.29903817176818848
v -0.71044212579727176 -116.27300262451171876 -2.18651509284973144
v -1.35134100914001464 -116.27300262451171876 -1.85996091365814208
v -1.85996115207672112 -116.27300262451171876 -1.351340651512146
v -2.18651556968688964 -116.27300262451171876 -0.71044182777404784
v -2.29903841018676756 -116.27300262451171876 0
v -2.18651556968688964 -116.27300262451171876 0.71044182777404784
v -1.85996115207672112 -116.27300262451171876 1.351340651512146
v -1.35134100914001464 -116.27300262451171876 1.85996091365814208
v -0.71044212579727176 -116.27300262451171876 2.18651509284973144
v -3.0531327865901403E-07 -116.27300262451171876 0
# 82 vertices

vn 0 1 0
vn 0.15122810006141662 0.25584232807159424 -0.9548166394233704
vn 0.43888100981712344 0.25584232807159424 -0.86135250329971312
vn 0.68357324600219728 0.25584232807159424 -0.68357324600219728
vn 0.86135250329971312 0.25584232807159424 -0.43888100981712344
vn 0.9548166394233704 0.25584232807159424 -0.15122810006141662
vn 0.9548166394233704 0.25584232807159424 0.15122810006141662
vn 0.86135250329971312 0.25584232807159424 0.43888100981712344
vn 0.68357324600219728 0.25584232807159424 0.68357324600219728
vn 0.43888100981712344 0.25584232807159424 0.86135250329971312
vn 0.15122810006141662 0.25584232807159424 0.9548166394233704
vn -0.15122810006141662 0.25584232807159424 0.9548166394233704
vn -0.43888100981712344 0.25584232807159424 0.86135250329971312
vn -0.68357324600219728 0.25584232807159424 0.68357324600219728
vn -0.86135250329971312 0.25584232807159424 0.43888100981712344
vn -0.9548166394233704 0.25584232807159424 0.15122810006141662
vn -0.9548166394233704 0.25584232807159424 -0.15122810006141662
vn -0.86135250329971312 0.25584232807159424 -0.43888100981712344
vn -0.68357324600219728 0.25584232807159424 -0.68357324600219728
vn -0.43888100981712344 0.25584232807159424 -0.86135250329971312
vn -0.15122810006141662 0.25584232807159424 -0.9548166394233704
vn -0.15643446147441864 0 -0.9876883625984192
vn -0.45399048924446104 0 -0.8910065293312072
vn -0.7071067690849304 0 -0.7071067690849304
vn -0.8910065293312072 0 -0.45399048924446104
vn -0.9876883625984192 0 -0.15643446147441864
vn -0.9876883625984192 0 0.15643446147441864
vn -0.8910065293312072 0 0.45399048924446104
vn -0.7071067690849304 0 0.7071067690849304
vn -0.45399048924446104 0 0.8910065293312072
vn -0.15643446147441864 0 0.9876883625984192
vn 0.15643446147441864 0 0.9876883625984192
vn 0.45399048924446104 0 0.8910065293312072
vn 0.7071067690849304 0 0.7071067690849304
vn 0.8910065293312072 0 0.45399048924446104
vn 0.9876883625984192 0 0.15643446147441864
vn 0.9876883625984192 0 -0.15643446147441864
vn 0.8910065293312072 0 -0.45399048924446104
vn 0.7071067690849304 0 -0.7071067690849304
vn 0.45399048924446104 0 -0.8910065293312072
vn 0.15643446147441864 0 -0.9876883625984192
vn 0.15122810006141662 -0.25584232807159424 0.9548166394233704
vn 0.43888100981712344 -0.25584232807159424 0.86135250329971312
vn 0.68357324600219728 -0.25584232807159424 0.68357324600219728
vn 0.86135250329971312 -0.25584232807159424 0.43888100981712344
vn 0.9548166394233704 -0.25584232807159424 0.15122810006141662
vn 0.9548166394233704 -0.25584232807159424 -0.15122810006141662
vn 0.86135250329971312 -0.25584232807159424 -0.43888100981712344
vn 0.68357324600219728 -0.25584232807159424 -0.68357324600219728
vn 0.43888100981712344 -0.25584232807159424 -0.86135250329971312
vn 0.15122810006141662 -0.25584232807159424 -0.9548166394233704
vn -0.15122810006141662 -0.25584232807159424 -0.9548166394233704
vn -0.43888100981712344 -0.25584232807159424 -0.86135250329971312
vn -0.68357324600219728 -0.25584232807159424 -0.68357324600219728
vn -0.86135250329971312 -0.25584232807159424 -0.43888100981712344
vn -0.9548166394233704 -0.25584232807159424 -0.15122810006141662
vn -0.9548166394233704 -0.25584232807159424 0.15122810006141662
vn -0.86135250329971312 -0.25584232807159424 0.43888100981712344
vn -0.68357324600219728 -0.25584232807159424 0.68357324600219728
vn -0.43888100981712344 -0.25584232807159424 0.86135250329971312
vn -0.15122810006141662 -0.25584232807159424 0.9548166394233704
vn 0 -1 0
# 62 vertex normals

g obj_26274934
s 1
f 1//1 2//1 3//1
f 3//1 4//1 1//1
f 4//1 5//1 1//1
f 5//1 6//1 1//1
f 6//1 7//1 1//1
f 7//1 8//1 1//1
f 8//1 9//1 1//1
f 9//1 10//1 1//1
f 10//1 11//1 1//1
f 11//1 12//1 1//1
f 12//1 13//1 1//1
f 13//1 14//1 1//1
f 14//1 15//1 1//1
f 15//1 16//1 1//1
f 16//1 17//1 1//1
f 17//1 18//1 1//1
f 18//1 19//1 1//1
f 19//1 20//1 1//1
f 20//1 21//1 1//1
f 21//1 2//1 1//1
f 22//2 21//2 20//2
f 23//3 20//3 19//3
f 24//4 19//4 18//4
f 25//5 18//5 17//5
f 26//6 17//6 16//6
f 27//7 16//7 15//7
f 28//8 15//8 14//8
f 29//9 14//9 13//9
f 30//10 13//10 12//10
f 31//11 12//11 11//11
f 32//12 11//12 10//12
f 33//13 10//13 9//13
f 34//14 9//14 8//14
f 35//15 8//15 7//15
f 36//16 7//16 6//16
f 37//17 6//17 5//17
f 38//18 5//18 4//18
f 39//19 4//19 3//19
f 40//20 3//20 2//20
f 41//21 2//21 21//21
f 21//21 22//21 41//21
f 2//20 41//20 40//20
f 3//19 40//19 39//19
f 4//18 39//18 38//18
f 5//17 38//17 37//17
f 6//16 37//16 36//16
f 7//15 36//15 35//15
f 8//14 35//14 34//14
f 9//13 34//13 33//13
f 10//12 33//12 32//12
f 11//11 32//11 31//11
f 12//10 31//10 30//10
f 13//9 30//9 29//9
f 14//8 29//8 28//8
f 15//7 28//7 27//7
f 16//6 27//6 26//6
f 17//5 26//5 25//5
f 18//4 25//4 24//4
f 19//3 24//3 23//3
f 20//2 23//2 22//2
f 22//22 42//22 43//22
f 41//23 43//23 44//23
f 40//24 44//24 45//24
f 39//25 45//25 46//25
f 38//26 46//26 47//26
f 37//27 47//27 48//27
f 36//28 48//28 49//28
f 35//29 49//29 50//29
f 34//30 50//30 51//30
f 33//31 51//31 52//31
f 32//32 52//32 53//32
f 31//33 53//33 54//33
f 30//34 54//34 55//34
f 29//35 55//35 56//35
f 28//36 56//36 57//36
f 27//37 57//37 58//37
f 26//38 58//38 59//38
f 25//39 59//39 60//39
f 24//40 60//40 61//40
f 23//41 61//41 42//41
f 42//41 22//41 23//41
f 61//40 23//40 24//40
f 60//39 24//39 25//39
f 59//38 25//38 26//38
f 58//37 26//37 27//37
f 57//36 27//36 28//36
f 56//35 28//35 29//35
f 55//34 29//34 30//34
f 54//33 30//33 31//33
f 53//32 31//32 32//32
f 52//31 32//31 33//31
f 51//30 33//30 34//30
f 50//29 34//29 35//29
f 49//28 35//28 36//28
f 48//27 36//27 37//27
f 47//26 37//26 38//26
f 46//25 38//25 39//25
f 45//24 39//24 40//24
f 44//23 40//23 41//23
f 43//22 41//22 22//22
f 52//42 62//42 63//42
f 53//43 63//43 64//43
f 54//44 64//44 65//44
f 55//45 65//45 66//45
f 56//46 66//46 67//46
f 57//47 67//47 68//47
f 58//48 68//48 69//48
f 59//49 69//49 70//49
f 60//50 70//50 71//50
f 61//51 71//51 72//51
f 42//52 72//52 73//52
f 43//53 73//53 74//53
f 44//54 74//54 75//54
f 45//55 75//55 76//55
f 46//56 76//56 77//56
f 47//57 77//57 78//57
f 48//58 78//58 79//58
f 49//59 79//59 80//59
f 50//60 80//60 81//60
f 51//61 81//61 62//61
f 62//61 52//61 51//61
f 81//60 51//60 50//60
f 80//59 50//59 49//59
f 79//58 49//58 48//58
f 78//57 48//57 47//57
f 77//56 47//56 46//56
f 76//55 46//55 45//55
f 75//54 45//54 44//54
f 74//53 44//53 43//53
f 73//52 43//52 42//52
f 72//51 42//51 61//51
f 71//50 61//50 60//50
f 70//49 60//49 59//49
f 69//48 59//48 58//48
f 68//47 58//47 57//47
f 67//46 57//46 56//46
f 66//45 56//45 55//45
f 65//44 55//44 54//44
f 64//43 54//43 53//43
f 63//42 53//42 52//42
f 82//62 81//62 80//62
f 80//62 79//62 82//62
f 79//62 78//62 82//62
f 78//62 77//62 82//62
f 77//62 76//62 82//62
f 76//62 75//62 82//62
f 75//62 74//62 82//62
f 74//62 73//62 82//62
f 73//62 72//62 82//62
f 72//62 71//62 82//62
f 71//62 70//62 82//62
f 70//62 69//62 82//62
f 69//62 68//62 82//62
f 68//62 67//62 82//62
f 67//62 66//62 82//62
f 66//62 65//62 82//62
f 65//62 64//62 82//62
f 64//62 63//62 82//62
f 63//62 62//62 82//62
f 62//62 81//62 82//62
#160 polygons

