# Aspose.3D Wavefront OBJ Exporter
# Copyright 2004-2023 Aspose Pty Ltd.
# File created: 06/30/2023 18:28:11


#
# object obj_3369544
#

v 1.244652452214723E-07 -113.029998779296875 -52.18249893188476564
v -0.51977908611297608 -115.47537231445312496 -52.18249893188476564
v 0.26132127642631532 -115.51630401611328128 -52.18249893188476564
v 1.01684176921844482 -115.31386566162109376 -52.18249893188476564
v 1.67282664775848392 -114.88786315917968752 -52.18249893188476564
v 2.16506361961364746 -114.279998779296875 -52.18249893188476564
v 2.44536924362182616 -113.54978179931640624 -52.18249893188476564
v 2.48630475997924808 -112.7686767578125 -52.18249893188476564
v 2.28386378288269044 -112.01316070556640625 -52.18249893188476564
v 1.85786223411560064 -111.35717010498046876 -52.18249893188476564
v 1.25000011920928956 -110.86493682861328128 -52.18249893188476564
v 0.5197793245315552 -110.58463287353515624 -52.18249893188476564
v -0.2613210380077362 -110.54369354248046872 -52.18249893188476564
v -1.01684153079986572 -110.74613952636718752 -52.18249893188476564
v -1.6728264093399048 -111.1721343994140625 -52.18249893188476564
v -2.16506338119506836 -111.77999877929687504 -52.18249893188476564
v -2.445368766784668 -112.51022338867187504 -52.18249893188476564
v -2.48630452156066896 -113.29132080078125 -52.18249893188476564
v -2.28386354446411132 -114.046844482421875 -52.18249893188476564
v -1.85786199569702144 -114.70282745361328128 -52.18249893188476564
v -1.24999988079071044 -115.19506072998046876 -52.18249893188476564
v -1.24999976158142088 -115.19506072998046876 -62.18249893188476564
v -1.857861876487732 -114.70282745361328128 -62.18249893188476564
v -2.28386354446411132 -114.046844482421875 -62.18249893188476564
v -2.48630452156066896 -113.29132080078125 -62.18249893188476564
v -2.445368766784668 -112.51022338867187504 -62.18249893188476564
v -2.16506338119506836 -111.77999877929687504 -62.18249893188476564
v -1.6728262901306152 -111.1721343994140625 -62.18249893188476564
v -1.01684141159057617 -110.74613952636718752 -62.18249893188476564
v -0.26132094860076904 -110.54369354248046872 -62.18249893188476564
v 0.51977944374084472 -110.58463287353515624 -62.18249893188476564
v 1.25000023841857912 -110.86493682861328128 -62.18249893188476564
v 1.85786223411560064 -111.35717010498046876 -62.18249893188476564
v 2.28386378288269044 -112.01316070556640625 -62.18249893188476564
v 2.48630499839782712 -112.7686767578125 -62.18249893188476564
v 2.44536924362182616 -113.54978179931640624 -62.18249893188476564
v 2.16506361961364746 -114.279998779296875 -62.18249893188476564
v 1.67282676696777344 -114.88786315917968752 -62.18249893188476564
v 1.01684176921844482 -115.31386566162109376 -62.18249893188476564
v 0.26132136583328248 -115.51630401611328128 -62.18249893188476564
v -0.51977902650833128 -115.47537231445312496 -62.18249893188476564
v -6.08153963088989258 -110.101287841796875 -62.18249893188476564
v -6.67460775375366208 -112.02396392822265625 -62.18249893188476564
v -6.67460775375366208 -114.03603363037109375 -62.18249893188476564
v 2.46605205535888672 -106.74660491943359376 -62.18249893188476564
v 0.50442832708358768 -106.29887390136718752 -62.18249893188476564
v -1.5020160675048828 -106.44923400878906248 -62.18249893188476564
v -3.37499976158142088 -107.184326171875 -62.18249893188476564
v -4.94810009002685552 -108.43883514404296872 -62.18249893188476564
v -6.08153963088989258 -115.95871734619140624 -62.18249893188476564
v 2.46605205535888672 -119.31340026855468752 -62.18249893188476564
v 4.2085561752319336 -118.30736541748046876 -62.18249893188476564
v -4.94810009002685552 -117.62116241455078128 -62.18249893188476564
v -3.37499976158142088 -118.87567138671875008 -62.18249893188476564
v -1.5020160675048828 -119.61076354980468752 -62.18249893188476564
v 0.50442832708358768 -119.76112365722656256 -62.18249893188476564
v 5.57711172103881832 -116.83241271972656256 -62.18249893188476564
v 6.45011663436889648 -115.01959991455078125 -62.18249893188476564
v 6.75 -113.029998779296875 -62.18249893188476564
v 4.2085561752319336 -107.75263977050781248 -62.18249893188476564
v 6.45011663436889648 -111.0404052734375 -62.18249893188476564
v 5.57711172103881832 -109.22759246826171876 -62.18249893188476564
v -3.37499976158142088 -118.87567138671875008 -63.18249893188476564
v -4.94810009002685552 -117.62116241455078128 -63.18249893188476564
v -6.08153963088989258 -115.95871734619140624 -63.18249893188476564
v -6.67460775375366208 -114.03603363037109375 -63.18249893188476564
v -6.67460775375366208 -112.02396392822265625 -63.18249893188476564
v -6.08153963088989258 -110.101287841796875 -63.18249893188476564
v -4.94810009002685552 -108.43883514404296872 -63.18249893188476564
v -3.37499976158142088 -107.184326171875 -63.18249893188476564
v -1.5020160675048828 -106.44923400878906248 -63.18249893188476564
v 0.50442832708358768 -106.29887390136718752 -63.18249893188476564
v 2.46605205535888672 -106.74660491943359376 -63.18249893188476564
v 4.2085561752319336 -107.75263977050781248 -63.18249893188476564
v 5.57711172103881832 -109.22759246826171876 -63.18249893188476564
v 6.45011663436889648 -111.0404052734375 -63.18249893188476564
v 6.75 -113.029998779296875 -63.18249893188476564
v 6.45011663436889648 -115.01959991455078125 -63.18249893188476564
v 5.57711172103881832 -116.83241271972656256 -63.18249893188476564
v 4.2085561752319336 -118.30736541748046876 -63.18249893188476564
v 2.46605205535888672 -119.31340026855468752 -63.18249893188476564
v 0.50442832708358768 -119.76112365722656256 -63.18249893188476564
v -1.5020160675048828 -119.61076354980468752 -63.18249893188476564
v 7.20593690872192384 -109.92452239990234368 -63.18249893188476564
v 6.89349699020385744 -109.90814971923828128 -63.18249893188476564
v -0.9781473875045776 -121.02208709716796875 -63.18249893188476564
v -0.86602520942687984 -120.73000335693359376 -63.18249893188476564
v 0.91354566812515264 -120.82326507568359376 -63.18249893188476564
v 8.32921218872070312 -118.56391906738281248 -63.18249893188476564
v -7.30931997299194336 -109.90814971923828128 -63.18249893188476564
v -8.55364227294921872 -118.21027374267578124 -63.18249893188476564
v -6.99663305282592768 -120.1747283935546875 -63.18249893188476564
v 0.99452209472656256 -121.1254730224609375 -63.18249893188476564
v 6.69130611419677736 -120.46144866943359376 -63.18249893188476564
v -6.8934965133666992 -107.95185089111328128 -63.18249893188476564
v -5.70713567733764648 -104.81850433349609376 -63.18249893188476564
v -7.5699501037597656 -106.49579620361328128 -63.18249893188476564
v -8.95711708068847664 -108.58364868164062496 -63.18249893188476564
v -7.96743345260620112 -108.43000030517578128 -63.18249893188476564
v -7.7705388069152832 -108.18685150146484376 -63.18249893188476564
v -9.78147602081298832 -110.95088195800781248 -63.18249893188476564
v -8.01495361328125 -109.33673858642578124 -63.18249893188476564
v -8.09593009948730468 -109.0345306396484375 -63.18249893188476564
v -7.60140800476074216 -109.7960281372070312 -63.18249893188476564
v -9.99122810363769536 -113.44875335693359376 -63.18249893188476564
v -0.6691303849220276 -120.48685455322265624 -63.18249893188476564
v 0.74314504861831664 -120.56086730957031248 -63.18249893188476564
v -0.406736433506012 -120.31645202636718752 -63.18249893188476564
v -0.10452824831008912 -120.23548126220703124 -63.18249893188476564
v -6.60140800476074216 -108.06397247314453125 -63.18249893188476564
v -3.48572015762329104 -103.65718078613281248 -63.18249893188476564
v -7.5081448554992676 -108.01645660400390625 -63.18249893188476564
v -7.20593643188476564 -107.93547821044921872 -63.18249893188476564
v -8.07955551147460938 -108.72209167480468752 -63.18249893188476564
v -7.84455299377441408 -109.59912872314453128 -63.18249893188476564
v -9.57319450378417968 -115.92031860351562496 -63.18249893188476564
v -6.99687957763671872 -109.92452239990234368 -63.18249893188476564
v 6.6014084815979004 -109.7960281372070312 -63.18249893188476564
v 6.35826349258422852 -109.59912872314453128 -63.18249893188476564
v 0.97814780473709104 -121.43791198730468752 -63.18249893188476564
v 4.6329607963562012 -121.89203643798828128 -63.18249893188476564
v 7.50814533233642576 -109.84354400634765632 -63.18249893188476564
v 9.96492862701416016 -113.86677551269531248 -63.18249893188476564
v 9.85996055603027344 -111.36231231689453128 -63.18249893188476564
v -5 -121.69025421142578128 -63.18249893188476564
v -0.99452167749404912 -121.33452606201171876 -63.18249893188476564
v -2.68919801712036136 -122.66162872314453128 -63.18249893188476564
v 9.44376373291015624 -116.31866455078125 -63.18249893188476564
v 0.50000023841857912 -120.36397552490234376 -63.18249893188476564
v -0.9135452508926392 -121.63673400878906248 -63.18249893188476564
v -0.20942398905754088 -123.02780914306640625 -63.18249893188476564
v -0.20791147649288176 -122.20814514160156248 -63.18249893188476564
v -0.49999979138374328 -122.0960235595703125 -63.18249893188476564
v -6.69467163085937504 -109.84354400634765632 -63.18249893188476564
v 1.46083045005798336 -103.13727569580078124 -63.18249893188476564
v -1.04528439044952393 -103.08477783203125 -63.18249893188476564
v -6.35826349258422852 -108.26087188720703124 -63.18249893188476564
v -6.18786287307739256 -108.52326202392578128 -63.18249893188476564
v 7.77053928375244144 -109.67314147949218752 -63.18249893188476564
v 6.04599142074584961 -105.064697265625 -63.18249893188476564
v 6.99688005447387696 -107.93547821044921872 -63.18249893188476564
v 7.30932044982910156 -107.95185089111328128 -63.18249893188476564
v 6.6946721076965332 -108.01645660400390625 -63.18249893188476564
v 0.2079119086265564 -120.25185394287109376 -63.18249893188476564
v -0.7431446313858032 -121.89913177490234368 -63.18249893188476564
v -6.43227767944335936 -109.67314147949218752 -63.18249893188476564
v -6.123260498046875 -109.137908935546875 -63.18249893188476564
v -6.2353825569152832 -109.43000030517578128 -63.18249893188476564
v -6.1068863868713379 -108.82546997070312496 -63.18249893188476564
v 2.28350901603698732 -122.76578521728515632 -63.18249893188476564
v 0.86602562665939328 -121.73000335693359376 -63.18249893188476564
v 0.66913080215454104 -121.97314453125 -63.18249893188476564
v 9.13545513153076172 -108.96263122558593744 -63.18249893188476564
v 8.07955646514892578 -109.137908935546875 -63.18249893188476564
v 3.87515616416931152 -103.81137084960937504 -63.18249893188476564
v 6.2353830337524414 -108.43000030517578128 -63.18249893188476564
v 6.4322781562805176 -108.18685150146484376 -63.18249893188476564
v 7.96743392944335936 -109.43000030517578128 -63.18249893188476564
v 8.01495361328125 -108.52326202392578128 -63.18249893188476564
v 8.09593009948730468 -108.82546997070312496 -63.18249893188476564
v 6.1232609748840332 -108.72209167480468752 -63.18249893188476564
v 6.18786287307739256 -109.33673858642578124 -63.18249893188476564
v 0.40673685073852536 -122.14354705810546876 -63.18249893188476564
v 6.1068868637084961 -109.0345306396484375 -63.18249893188476564
v 0.10452868044376374 -122.22452545166015624 -63.18249893188476564
v 7.83693456649780272 -106.81851959228515632 -63.18249893188476564
v 7.84455347061157232 -108.26087188720703124 -63.18249893188476564
v 7.6014084815979004 -108.06397247314453125 -63.18249893188476564
v -6.42787504196166992 -120.69044494628906248 -141.3125
v -6.9966325759887696 -120.1747283935546875 -141.3125
v -8.55364131927490232 -118.21027374267578124 -141.3125
v -7.66044378280639648 -119.45787811279296872 -141.3125
v -9.39692497253417968 -116.45020294189453128 -141.3125
v -8.66025352478027344 -118.029998779296875 -141.3125
v -9.57319450378417968 -115.92031860351562496 -141.3125
v -9.99122714996337888 -113.44875335693359376 -141.3125
v -9.8480768203735352 -114.7664794921875 -141.3125
v -9.8480768203735352 -111.29351806640625 -141.3125
v -9.99999904632568352 -113.029998779296875 -141.3125
v -9.78147506713867184 -110.95088195800781248 -141.3125
v -9.39692497253417968 -109.60980224609375 -141.3125
v -8.95711708068847664 -108.58364868164062496 -141.3125
v -7.66044378280639648 -106.60212707519531248 -141.3125
v -8.66025352478027344 -108.029998779296875 -141.3125
v -7.56994962692260744 -106.49579620361328128 -141.3125
v -6.42787504196166992 -105.36955261230468752 -141.3125
v -5.70713472366333008 -104.81850433349609376 -141.3125
v -3.4857196807861328 -103.65718078613281248 -141.3125
v -4.99999904632568352 -104.36974334716796872 -141.3125
v -1.73648095130920416 -103.18192291259765624 -141.3125
v -3.42020058631896976 -103.63307189941406248 -141.3125
v -1.04528379440307617 -103.08477783203125 -141.3125
v 1.46083116531372072 -103.13727569580078124 -141.3125
v 8.582042596572137E-07 -103.029998779296875 -141.3125
v 3.42020225524902344 -103.63307189941406248 -141.3125
v 1.73648262023925776 -103.18192291259765624 -141.3125
v 3.87515664100646976 -103.81137084960937504 -141.3125
v 6.04599189758300781 -105.064697265625 -141.3125
v 5.0000009536743164 -104.36974334716796872 -141.3125
v 7.66044521331787112 -106.60212707519531248 -141.3125
v 6.42787694931030272 -105.36955261230468752 -141.3125
v 7.8369355201721192 -106.81851959228515632 -141.3125
v 8.66025447845458984 -108.029998779296875 -141.3125
v 9.13545513153076172 -108.96263122558593744 -141.3125
v 9.848078727722168 -111.29351806640625 -141.3125
v 9.39692687988281248 -109.60980224609375 -141.3125
v 9.85996150970458992 -111.36231231689453128 -141.3125
v 10.0000009536743164 -113.029998779296875 -141.3125
v 9.96492958068847664 -113.86677551269531248 -141.3125
v 9.44376468658447264 -116.31866455078125 -141.3125
v 9.848078727722168 -114.7664794921875 -141.3125
v 8.66025447845458984 -118.029998779296875 -141.3125
v 9.39692687988281248 -116.45020294189453128 -141.3125
v 8.32921314239501952 -118.56391906738281248 -141.3125
v 6.69130706787109376 -120.46144866943359376 -141.3125
v 7.66044521331787112 -119.45787811279296872 -141.3125
v 5.0000009536743164 -121.69025421142578128 -141.3125
v 6.42787694931030272 -120.69044494628906248 -141.3125
v 4.63296127319335936 -121.89203643798828128 -141.3125
v 3.42020225524902344 -122.42692565917968752 -141.3125
v 2.28350949287414552 -122.76578521728515632 -141.3125
v 8.582043733440514E-07 -123.029998779296875 -141.3125
v 1.73648262023925776 -122.87807464599609376 -141.3125
v -0.20942333340644836 -123.02780914306640625 -141.3125
v -1.73648095130920416 -122.87807464599609376 -141.3125
v -2.689197301864624 -122.66162872314453128 -141.3125
v -4.99999904632568352 -121.69025421142578128 -141.3125
v -3.42020058631896976 -122.42692565917968752 -141.3125
v -4.96892023086547856 -121.63642120361328128 -141.7049560546875
v -7.6128277778625488 -119.41792297363281248 -141.7049560546875
v -6.38792085647583008 -120.64282989501953128 -141.7049560546875
v -8.60642242431640624 -117.99892425537109376 -141.7049560546875
v -9.78686237335205072 -114.75569152832031248 -141.7049560546875
v -9.33851528167724608 -116.42893981933593752 -141.7049560546875
v -9.93784046173095696 -113.029998779296875 -141.7049560546875
v -9.33851528167724608 -109.63105773925781248 -141.7049560546875
v -9.78686237335205072 -111.30431365966796876 -141.7049560546875
v -8.60642242431640624 -108.0610809326171875 -141.7049560546875
v -6.38792085647583008 -105.41717529296875 -141.7049560546875
v -7.6128277778625488 -106.64208221435546872 -141.7049560546875
v -4.96892023086547856 -104.42357635498046872 -141.7049560546875
v -3.3989412784576416 -103.69148254394531248 -141.7049560546875
v 8.614350122115866E-07 -103.09215545654296876 -141.7049560546875
v -1.72568726539611824 -103.243133544921875 -141.7049560546875
v 1.72568893432617184 -103.243133544921875 -141.7049560546875
v 4.96892166137695312 -104.42357635498046872 -141.7049560546875
v 3.39894294738769528 -103.69148254394531248 -141.7049560546875
v 6.38792228698730472 -105.41717529296875 -141.7049560546875
v 8.60642433166503904 -108.0610809326171875 -141.7049560546875
v 7.61282920837402344 -106.64208221435546872 -141.7049560546875
v 9.33851718902587892 -109.63105773925781248 -141.7049560546875
v 9.93784236907958992 -113.029998779296875 -141.7049560546875
v 9.78686428070068352 -111.30431365966796876 -141.7049560546875
v 9.78686428070068352 -114.75569152832031248 -141.7049560546875
v 9.33851718902587892 -116.42893981933593752 -141.7049560546875
v 7.61282920837402344 -119.41792297363281248 -141.7049560546875
v 8.60642433166503904 -117.99892425537109376 -141.7049560546875
v 6.38792228698730472 -120.64282989501953128 -141.7049560546875
v 3.39894294738769528 -122.36851501464843752 -141.7049560546875
v 4.96892166137695312 -121.63642120361328128 -141.7049560546875
v 1.72568893432617184 -122.81686401367187504 -141.7049560546875
v -1.72568726539611824 -122.81686401367187504 -141.7049560546875
v 8.614350690550054E-07 -122.96784210205078128 -141.7049560546875
v -3.3989412784576416 -122.36851501464843752 -141.7049560546875
v -4.87872505187988288 -121.48020172119140624 -142.058990478515625
v -6.27196788787841796 -120.504638671875 -142.058990478515625
v -7.47464084625244144 -119.301971435546875 -142.058990478515625
v -8.450200080871582 -117.90872955322265632 -142.058990478515625
v -9.16900444030761718 -116.36724853515625 -142.058990478515625
v -9.60921287536621096 -114.724365234375 -142.058990478515625
v -9.75745105743408208 -113.029998779296875 -142.058990478515625
v -9.60921287536621096 -111.33563995361328124 -142.058990478515625
v -9.16900444030761718 -109.69275665283203128 -142.058990478515625
v -8.450200080871582 -108.151275634765625 -142.058990478515625
v -7.47464084625244144 -106.75803375244140624 -142.058990478515625
v -6.27196788787841796 -105.55535888671875 -142.058990478515625
v -4.87872505187988288 -104.57979583740234376 -142.058990478515625
v -3.33724403381347656 -103.86099243164062496 -142.058990478515625
v -1.69436287879943848 -103.42078399658203128 -142.058990478515625
v 8.643495448268368E-07 -103.27254486083984376 -142.058990478515625
v 1.69436454772949216 -103.42078399658203128 -142.058990478515625
v 3.33724594116210936 -103.86099243164062496 -142.058990478515625
v 4.87872648239135744 -104.57979583740234376 -142.058990478515625
v 6.2719697952270508 -105.55535888671875 -142.058990478515625
v 7.474642276763916 -106.75803375244140624 -142.058990478515625
v 8.45020198822021488 -108.151275634765625 -142.058990478515625
v 9.16900634765625 -109.69275665283203128 -142.058990478515625
v 9.60921478271484376 -111.33563995361328124 -142.058990478515625
v 9.7574520111083984 -113.029998779296875 -142.058990478515625
v 9.60921478271484376 -114.724365234375 -142.058990478515625
v 9.16900634765625 -116.36724853515625 -142.058990478515625
v 8.45020198822021488 -117.90872955322265632 -142.058990478515625
v 7.474642276763916 -119.301971435546875 -142.058990478515625
v 6.2719697952270508 -120.504638671875 -142.058990478515625
v 4.87872648239135744 -121.48020172119140624 -142.058990478515625
v 3.33724594116210936 -122.199005126953125 -142.058990478515625
v 1.69436454772949216 -122.63921356201171872 -142.058990478515625
v 8.643495448268368E-07 -122.78745269775390624 -142.058990478515625
v -1.69436287879943848 -122.63921356201171872 -142.058990478515625
v -3.33724403381347656 -122.199005126953125 -142.058990478515625
v -4.7382426261901856 -121.23687744140625 -142.33995056152343752
v -6.09136772155761718 -120.28941345214843752 -142.33995056152343752
v -7.25940942764282228 -119.121368408203125 -142.33995056152343752
v -8.2068777084350586 -117.76824188232421872 -142.33995056152343752
v -8.90498447418212896 -116.271148681640625 -142.33995056152343752
v -9.3325176239013672 -114.67557525634765624 -142.33995056152343752
v -9.47648620605468752 -113.029998779296875 -142.33995056152343752
v -9.3325176239013672 -111.38442230224609376 -142.33995056152343752
v -8.90498447418212896 -109.78884887695312496 -142.33995056152343752
v -8.2068777084350586 -108.29175567626953124 -142.33995056152343752
v -7.25940942764282228 -106.93862915039062496 -142.33995056152343752
v -6.09136772155761718 -105.77059173583984368 -142.33995056152343752
v -4.7382426261901856 -104.8231201171875 -142.33995056152343752
v -3.24114871025085448 -104.1250152587890625 -142.33995056152343752
v -1.64557385444641112 -103.69747924804687504 -142.33995056152343752
v 8.666625035402831E-07 -103.55351257324218752 -142.33995056152343752
v 1.6455756425857544 -103.69747924804687504 -142.33995056152343752
v 3.2411503791809082 -104.1250152587890625 -142.33995056152343752
v 4.7382445335388184 -104.8231201171875 -142.33995056152343752
v 6.09136962890625 -105.77059173583984368 -142.33995056152343752
v 7.25941133499145508 -106.93862915039062496 -142.33995056152343752
v 8.2068796157836914 -108.29175567626953124 -142.33995056152343752
v 8.90498638153076176 -109.78884887695312496 -142.33995056152343752
v 9.3325185775756836 -111.38442230224609376 -142.33995056152343752
v 9.47648811340332032 -113.029998779296875 -142.33995056152343752
v 9.3325185775756836 -114.67557525634765624 -142.33995056152343752
v 8.90498638153076176 -116.271148681640625 -142.33995056152343752
v 8.2068796157836914 -117.76824188232421872 -142.33995056152343752
v 7.25941133499145508 -119.121368408203125 -142.33995056152343752
v 6.09136962890625 -120.28941345214843752 -142.33995056152343752
v 4.7382445335388184 -121.23687744140625 -142.33995056152343752
v 3.2411503791809082 -121.93498229980468752 -142.33995056152343752
v 1.6455756425857544 -122.36251831054687504 -142.33995056152343752
v 8.666625603837019E-07 -122.50648498535156248 -142.33995056152343752
v -1.64557385444641112 -122.36251831054687504 -142.33995056152343752
v -3.24114871025085448 -121.93498229980468752 -142.33995056152343752
v -4.56122493743896488 -120.93027496337890624 -142.52033996582031248
v -5.86379814147949216 -120.0182037353515625 -142.52033996582031248
v -6.98820257186889648 -118.893798828125 -142.52033996582031248
v -7.90027379989624016 -117.59122467041015624 -142.52033996582031248
v -8.57229995727539064 -116.15006256103515624 -142.52033996582031248
v -8.98386001586914064 -114.61409759521484376 -142.52033996582031248
v -9.1224508285522461 -113.029998779296875 -142.52033996582031248
v -8.98386001586914064 -111.44589996337890624 -142.52033996582031248
v -8.57229995727539064 -109.90993499755859376 -142.52033996582031248
v -7.90027379989624016 -108.46877288818359376 -142.52033996582031248
v -6.98820257186889648 -107.16619873046875 -142.52033996582031248
v -5.86379814147949216 -106.0417938232421875 -142.52033996582031248
v -4.56122493743896488 -105.12972259521484376 -142.52033996582031248
v -3.12006139755249024 -104.45770263671875 -142.52033996582031248
v -1.58409619331359864 -104.046142578125 -142.52033996582031248
v 8.681475378580217E-07 -103.90754699707031248 -142.52033996582031248
v 1.58409798145294192 -104.046142578125 -142.52033996582031248
v 3.12006306648254394 -104.45770263671875 -142.52033996582031248
v 4.56122684478759768 -105.12972259521484376 -142.52033996582031248
v 5.86379957199096672 -106.0417938232421875 -142.52033996582031248
v 6.98820400238037104 -107.16619873046875 -142.52033996582031248
v 7.90027570724487312 -108.46877288818359376 -142.52033996582031248
v 8.57230091094970704 -109.90993499755859376 -142.52033996582031248
v 8.98386192321777344 -111.44589996337890624 -142.52033996582031248
v 9.1224527359008789 -113.029998779296875 -142.52033996582031248
v 8.98386192321777344 -114.61409759521484376 -142.52033996582031248
v 8.57230091094970704 -116.15006256103515624 -142.52033996582031248
v 7.90027570724487312 -117.59122467041015624 -142.52033996582031248
v 6.98820400238037104 -118.893798828125 -142.52033996582031248
v 5.86379957199096672 -120.0182037353515625 -142.52033996582031248
v 4.56122684478759768 -120.93027496337890624 -142.52033996582031248
v 3.12006306648254394 -121.60230255126953128 -142.52033996582031248
v 1.58409798145294192 -122.01386260986328125 -142.52033996582031248
v 8.681475378580217E-07 -122.1524505615234375 -142.52033996582031248
v -1.58409619331359864 -122.01386260986328125 -142.52033996582031248
v -3.12006139755249024 -121.60230255126953128 -142.52033996582031248
v -4.36499929428100584 -120.59040069580078128 -142.58250427246093752
v -5.61153507232666016 -119.71756744384765624 -142.58250427246093752
v -6.68756723403930664 -118.64153289794921872 -142.58250427246093752
v -7.56040096282958984 -117.39499664306640624 -142.58250427246093752
v -8.20351600646972656 -116.015838623046875 -142.58250427246093752
v -8.59737110137939456 -114.54595184326171872 -142.58250427246093752
v -8.72999954223632816 -113.029998779296875 -142.58250427246093752
v -8.59737110137939456 -111.51405334472656248 -142.58250427246093752
v -8.20351600646972656 -110.04416656494140625 -142.58250427246093752
v -7.56040096282958984 -108.66500091552734376 -142.58250427246093752
v -6.68756723403930664 -107.41846466064453128 -142.58250427246093752
v -5.61153507232666016 -106.34243011474609376 -142.58250427246093752
v -4.36499929428100584 -105.46959686279296872 -142.58250427246093752
v -2.98583507537841792 -104.82648468017578128 -142.58250427246093752
v -1.515947699546814 -104.43262481689453128 -142.58250427246093752
v 8.686592423146067E-07 -104.30000305175781248 -142.58250427246093752
v 1.5159494876861572 -104.43262481689453128 -142.58250427246093752
v 2.98583674430847168 -104.82648468017578128 -142.58250427246093752
v 4.36500072479248048 -105.46959686279296872 -142.58250427246093752
v 5.6115365028381348 -106.34243011474609376 -142.58250427246093752
v 6.68756866455078128 -107.41846466064453128 -142.58250427246093752
v 7.56040287017822264 -108.66500091552734376 -142.58250427246093752
v 8.20351791381835936 -110.04416656494140625 -142.58250427246093752
v 8.59737300872802736 -111.51405334472656248 -142.58250427246093752
v 8.73000049591064448 -113.029998779296875 -142.58250427246093752
v 8.59737300872802736 -114.54595184326171872 -142.58250427246093752
v 8.20351791381835936 -116.015838623046875 -142.58250427246093752
v 7.56040287017822264 -117.39499664306640624 -142.58250427246093752
v 6.68756866455078128 -118.64153289794921872 -142.58250427246093752
v 5.6115365028381348 -119.71756744384765624 -142.58250427246093752
v 4.36500072479248048 -120.59040069580078128 -142.58250427246093752
v 2.98583674430847168 -121.23351287841796876 -142.58250427246093752
v 1.5159494876861572 -121.62737274169921872 -142.58250427246093752
v 8.686592991580255E-07 -121.7600021362304688 -142.58250427246093752
v -1.515947699546814 -121.62737274169921872 -142.58250427246093752
v -2.98583507537841792 -121.23351287841796876 -142.58250427246093752
v 8.686592423146067E-07 -113.029998779296875 -142.58250427246093752
v -7.30931997299194336 -109.90814971923828128 -69.18250274658203124
v -7.60140800476074216 -109.7960281372070312 -69.18250274658203124
v -6.99687957763671872 -109.92452239990234368 -69.18250274658203124
v -6.69467163085937504 -109.84354400634765632 -69.18250274658203124
v -6.4322772026062012 -109.67314147949218752 -69.18250274658203124
v -6.2353825569152832 -109.43000030517578128 -69.18250274658203124
v -6.123260498046875 -109.137908935546875 -69.18250274658203124
v -6.1068863868713379 -108.82546997070312496 -69.18250274658203124
v -6.18786239624023436 -108.52326202392578128 -69.18250274658203124
v -6.35826301574707032 -108.26087188720703124 -69.18250274658203124
v -6.60140800476074216 -108.06397247314453125 -69.18250274658203124
v -6.8934965133666992 -107.95185089111328128 -69.18250274658203124
v -7.20593643188476564 -107.93547821044921872 -69.18250274658203124
v -7.5081448554992676 -108.01645660400390625 -69.18250274658203124
v -7.7705388069152832 -108.18685150146484376 -69.18250274658203124
v -7.96743345260620112 -108.43000030517578128 -69.18250274658203124
v -8.07955551147460938 -108.72209167480468752 -69.18250274658203124
v -8.09593009948730468 -109.0345306396484375 -69.18250274658203124
v -8.01495361328125 -109.33673858642578124 -69.18250274658203124
v -7.84455299377441408 -109.59912872314453128 -69.18250274658203124
v -7.10140800476074218 -108.93000030517578128 -69.78336334228515632
v -0.2079114317893982 -122.20814514160156248 -69.18250274658203124
v -0.49999973177909848 -122.0960235595703125 -69.18250274658203124
v 0.10452872514724732 -122.22452545166015624 -69.18250274658203124
v 0.40673691034317016 -122.14354705810546876 -69.18250274658203124
v 0.66913086175918576 -121.97314453125 -69.18250274658203124
v 0.86602568626403808 -121.73000335693359376 -69.18250274658203124
v 0.97814786434173584 -121.43791198730468752 -69.18250274658203124
v 0.9945221543312072 -121.1254730224609375 -69.18250274658203124
v 0.91354572772979744 -120.82326507568359376 -69.18250274658203124
v 0.74314510822296144 -120.56086730957031248 -69.18250274658203124
v 0.50000023841857912 -120.36397552490234376 -69.18250274658203124
v 0.20791195333003996 -120.25185394287109376 -69.18250274658203124
v -0.10452819615602494 -120.23548126220703124 -69.18250274658203124
v -0.4067363739013672 -120.31645202636718752 -69.18250274658203124
v -0.6691303253173828 -120.48685455322265624 -69.18250274658203124
v -0.86602514982223504 -120.73000335693359376 -69.18250274658203124
v -0.9781473278999328 -121.02208709716796875 -69.18250274658203124
v -0.99452161788940432 -121.33452606201171876 -69.18250274658203124
v -0.9135451912879944 -121.63673400878906248 -69.18250274658203124
v -0.7431445717811584 -121.89913177490234368 -69.18250274658203124
v 2.6935961727758695E-07 -121.23000335693359376 -69.78336334228515632
v 6.89349699020385744 -109.90814971923828128 -69.18250274658203124
v 6.6014084815979004 -109.7960281372070312 -69.18250274658203124
v 7.20593690872192384 -109.92452239990234368 -69.18250274658203124
v 7.50814533233642576 -109.84354400634765632 -69.18250274658203124
v 7.77053928375244144 -109.67314147949218752 -69.18250274658203124
v 7.96743392944335936 -109.43000030517578128 -69.18250274658203124
v 8.07955646514892578 -109.137908935546875 -69.18250274658203124
v 8.09593009948730468 -108.82546997070312496 -69.18250274658203124
v 8.01495361328125 -108.52326202392578128 -69.18250274658203124
v 7.84455347061157232 -108.26087188720703124 -69.18250274658203124
v 7.6014084815979004 -108.06397247314453125 -69.18250274658203124
v 7.30932044982910156 -107.95185089111328128 -69.18250274658203124
v 6.99688005447387696 -107.93547821044921872 -69.18250274658203124
v 6.6946721076965332 -108.01645660400390625 -69.18250274658203124
v 6.4322781562805176 -108.18685150146484376 -69.18250274658203124
v 6.2353830337524414 -108.43000030517578128 -69.18250274658203124
v 6.1232609748840332 -108.72209167480468752 -69.18250274658203124
v 6.1068868637084961 -109.0345306396484375 -69.18250274658203124
v 6.1878633499145508 -109.33673858642578124 -69.18250274658203124
v 6.35826396942138672 -109.59912872314453128 -69.18250274658203124
v 7.1014084815979004 -108.93000030517578128 -69.78336334228515632
# 472 vertices

vn -8.232285075848722E-09 0 1
vn -8.232184711687296E-09 0 1
vn -8.23226198320981E-09 0 1
vn -8.23217316536784E-09 0 1
vn -8.232264647745069E-09 0 1
vn -8.232238002392478E-09 0 1
vn -8.23223356150038E-09 0 1
vn -8.232208692504628E-09 0 1
vn -8.232236226035639E-09 0 1
vn -8.232197146185172E-09 0 1
vn -8.232287740383981E-09 0 1
vn -8.232317938450251E-09 0 1
vn -8.23226020685297E-09 0 1
vn -8.232177606259938E-09 0 1
vn -8.232190928936234E-09 0 1
vn -8.232222903359343E-09 0 1
vn -8.232272641350846E-09 0 1
vn -8.232205139790949E-09 0 1
vn -8.232179382616778E-09 0 1
vn -0.62932038307189944 -0.7771459817886352 -5.180714079955351E-09
vn -0.83867055177688592 -0.5446390509605408 -6.9041332650954246E-09
vn -0.96592581272125248 -0.25881904363632204 -7.951728164812266E-09
vn -0.99862951040267952 0.0523359552025795 -8.220951919213348E-09
vn -0.93358039855957024 0.3583679497241974 -7.685453162764588E-09
vn -0.7771459817886352 0.62932038307189944 -6.397646412636959E-09
vn -0.5446390509605408 0.83867055177688592 -4.4835948287413885E-09
vn -0.25881904363632204 0.96592581272125248 -2.1306576503121732E-09
vn 0.0523359552025795 0.99862951040267952 4.3084324996556234E-10
vn 0.3583679497241974 0.93358039855957024 2.950170108206862E-09
vn 0.62932038307189944 0.7771459817886352 5.180714079955351E-09
vn 0.83867055177688592 0.5446390509605408 6.9041332650954246E-09
vn 0.96592581272125248 0.25881904363632204 7.951728164812266E-09
vn 0.99862951040267952 -0.0523359552025795 8.220951919213348E-09
vn 0.93358039855957024 -0.3583679497241974 7.685453162764588E-09
vn 0.7771459817886352 -0.62932038307189944 6.397647744904589E-09
vn 0.5446390509605408 -0.83867055177688592 4.483593940562969E-09
vn 0.25881904363632204 -0.96592581272125248 2.130657872356778E-09
vn -0.0523359552025795 -0.99862951040267952 -4.3084324996556234E-10
vn -0.3583679497241974 -0.93358039855957024 -2.950170108206862E-09
vn 0.25881904363632204 -0.96592581272125248 2.1306576503121732E-09
vn 0.5446390509605408 -0.83867055177688592 4.483595716919808E-09
vn 0.7771459817886352 -0.62932038307189944 6.3976455244585395E-09
vn 0.99862951040267952 -0.0523359552025795 8.220953695570188E-09
vn -0.93358039855957024 0.3583679497241974 -7.685452274586169E-09
vn -0.99862951040267952 0.0523359552025795 -8.220953695570188E-09
vn -0.83867055177688592 -0.5446390509605408 -6.904134153273844E-09
vn -8.232227344251442E-09 0 1
vn -8.232228232429861E-09 0 1
vn -8.23220069889885E-09 0 1
vn -8.232258430496131E-09 0 1
vn -8.232209580683048E-09 0 1
vn -8.232217574288825E-09 0 1
vn -8.232225567894602E-09 0 1
vn -8.23226375956665E-09 0 1
vn -8.232212245218307E-09 0 1
vn -8.232180270795197E-09 0 1
vn -8.232191817114654E-09 0 1
vn -8.23220247525569E-09 0 1
vn -8.23232149116393E-09 0 1
vn -8.232286852205561E-09 0 1
vn -8.23226287138823E-09 0 1
vn -8.232249548711934E-09 0 1
vn -8.232219350645664E-09 0 1
vn -8.232106551986362E-09 0 1
vn -8.232267312280328E-09 0 1
vn -8.232124315554756E-09 0 1
vn -8.23220158707727E-09 0 1
vn -8.23223178514354E-09 0 1
vn -8.232214909753566E-09 0 1
vn -8.232285964027142E-09 0 1
vn -8.232244219641416E-09 0 1
vn -8.232226456073022E-09 0 1
vn -8.232221127002504E-09 0 1
vn -8.232255765960872E-09 0 1
vn -8.232253101425613E-09 0 1
vn -8.232310833022893E-09 0 1
vn -0.62348979711532592 -0.78183150291442864 -5.1327067041029295E-09
vn -0.82623875141143792 -0.56332004070281984 -6.8017933507746875E-09
vn -0.95557278394699104 -0.29475516080856324 -7.866487905516806E-09
vn -1 0 -8.232237114214058E-09
vn -0.95557278394699104 0.29475516080856324 -7.866502116371521E-09
vn -0.82623875141143792 0.56332004070281984 -6.801781804455231E-09
vn -0.62348979711532592 0.78183150291442864 -5.132707148192139E-09
vn -0.3653410375118256 0.93087375164031984 -3.007573745605896E-09
vn -0.07473009079694748 0.9972038269042968 -6.151958387157208E-10
vn 0.22252093255519868 0.97492790222167968 1.8318450090148986E-09
vn 0.5 0.86602538824081424 4.116118113017819E-09
vn 0.73305189609527584 0.68017274141311648 6.034656774289715E-09
vn 0.90096884965896608 0.43388372659683224 7.4169892450015595E-09
vn 0.98883080482482912 0.1490422636270523 8.140290219671442E-09
vn 0.98883080482482912 -0.1490422636270523 8.140290219671442E-09
vn 0.90096884965896608 -0.43388372659683224 7.4169892450015595E-09
vn 0.73305189609527584 -0.68017274141311648 6.034656774289715E-09
vn 0.5 -0.86602538824081424 4.116118557107029E-09
vn 0.22252093255519868 -0.97492790222167968 1.8318417893681271E-09
vn -0.07473009079694748 -0.9972038269042968 -6.151947840038474E-10
vn -0.3653410375118256 -0.93087375164031984 -3.007573967650501E-09
vn -0.3653410375118256 -0.93087375164031984 -3.0075686385799827E-09
vn -0.07473009079694748 -0.9972038269042968 -6.151958387157208E-10
vn 0.22252093255519868 -0.97492790222167968 1.8318419003904296E-09
vn 0.5 -0.86602538824081424 4.116111007590462E-09
vn 0.5 0.86602538824081424 4.116118557107029E-09
vn -0.3653410375118256 0.93087375164031984 -3.007573967650501E-09
vn -0.62348979711532592 0.78183150291442864 -5.1327155858871265E-09
vn -0.95557278394699104 0.29475516080856324 -7.866487905516806E-09
vn -0.95557278394699104 -0.29475516080856324 -7.866502116371521E-09
vn -0.82623875141143792 -0.56332004070281984 -6.801781804455231E-09
vn -0.62348979711532592 -0.78183150291442864 -5.132716029976336E-09
vn -8.23249912684787E-09 0 1
vn -8.232241555106157E-09 0 1
vn -8.232341919267583E-09 0 1
vn -8.23214207912315E-09 0 1
vn -8.232242443284576E-09 0 1
vn -8.232243331462996E-09 0 1
vn -8.232239778749317E-09 0 1
vn -8.232359682835977E-09 0 1
vn -8.232294845811339E-09 0 1
vn -8.232324155699189E-09 0 1
vn -8.232123427376337E-09 0 1
vn -8.232034609534367E-09 0 1
vn -8.232681203423908E-09 0 1
vn -8.232157178156285E-09 0 1
vn -8.232245107819836E-09 0 1
vn -8.232251325068773E-09 0 1
vn -8.232139414587891E-09 0 1
vn -8.23226109503139E-09 0 1
vn -8.232222015180923E-09 0 1
vn -8.23211454559214E-09 0 1
vn -8.232300174881857E-09 0 1
vn -8.232164283583643E-09 0 1
vn -8.232011516895454E-09 0 1
vn -8.23244050707217E-09 0 1
vn -8.232506232275227E-09 0 1
vn -8.232169612654161E-09 0 1
vn -8.232166948118902E-09 0 1
vn -8.232248660533514E-09 0 1
vn -8.23214474365841E-09 0 1
vn -8.232391657259086E-09 0 1
vn -8.23225931867455E-09 0 1
vn -8.232247772355095E-09 0 1
vn -8.232117210127399E-09 0 1
vn -8.23208257116903E-09 0 1
vn -8.231991976970221E-09 0 1
vn -8.231795689539467E-09 0 1
vn -8.232456494283724E-09 0 1
vn -8.232256654139292E-09 0 1
vn -8.232220238824084E-09 0 1
vn -8.232149184550508E-09 0 1
vn -8.232161619048384E-09 0 1
vn -8.23211099287846E-09 0 1
vn -8.232481363279476E-09 0 1
vn -8.23223089696512E-09 0 1
vn -8.232482251457895E-09 0 1
vn -8.232323267520769E-09 0 1
vn -8.232250436890354E-09 0 1
vn -8.232210468861467E-09 0 1
vn -8.232136750052632E-09 0 1
vn -8.232246884176675E-09 0 1
vn -8.232134973695793E-09 0 1
vn -8.232503567739968E-09 0 1
vn -8.232271753172427E-09 0 1
vn -8.232038162248045E-09 0 1
vn -8.232045267675403E-09 0 1
vn -8.23229040491924E-09 0 1
vn -8.232195369828332E-09 0 1
vn -8.2323516892302E-09 0 1
vn -8.232120762841078E-09 0 1
vn -8.232551529374632E-09 0 1
vn -8.23244139525059E-09 0 1
vn -8.23238188729647E-09 0 1
vn -8.232237114214058E-09 0 1
vn -8.232413861719579E-09 0 1
vn -8.232192705293073E-09 0 1
vn -8.23220425161253E-09 0 1
vn -8.232238890570898E-09 0 1
vn -8.232187376222555E-09 0 1
vn -8.232253989604033E-09 0 1
vn -8.232223791537763E-09 0 1
vn -8.23243695435849E-09 0 1
vn -8.23172996433641E-09 0 1
vn -8.232395209972765E-09 0 1
vn -8.232079018455352E-09 0 1
vn -8.232127868268435E-09 0 1
vn -8.232078130276932E-09 0 1
vn -8.23211543377056E-09 0 1
vn -8.232338366553904E-09 0 1
vn -8.232281523135043E-09 0 1
vn -8.23250001502629E-09 0 1
vn -8.231973325223407E-09 0 1
vn -8.231987536078123E-09 0 1
vn -8.232206916147788E-09 0 1
vn -8.23273360595067E-09 0 1
vn -0.60459887981414792 -0.79652965068817136 0.00085644371574744
vn -0.67172056436538696 -0.74080461263656624 -5.529761981648562E-09
vn -0.8131007552146912 -0.58212298154830936 -6.693636755983334E-09
vn -0.78369307518005376 -0.62114751338958744 0.00095934467390179
vn -0.9135452508926392 -0.40673655271530152 0.00069746433291584
vn -0.90630775690078736 -0.42261824011802672 0.0002615737612359226
vn -0.94887602329254144 -0.31564903259277344 -7.811370217325475E-09
vn -0.99415093660354608 -0.10799935460090638 -8.184083633011596E-09
vn -0.98599553108215328 -0.1667686551809311 0.0010061259381473
vn -0.9961945414543152 0.08715572953224182 0.00057896721409633
vn -0.98162716627120976 0.1908089965581894 -8.080984770231225E-09
vn -0.9964927434921264 0.08367783576250076 0.0004824821080546826
vn -0.99978065490722656 -0.02094241976737976 -8.230428782951549E-09
vn -0.94437587261199952 0.32886648178100584 0.00099676928948611
vn -0.919135332107544 0.39394190907478336 -7.566536730507778E-09
vn -0.8191516995429992 0.57357615232467648 0.00095203646924346
vn -0.76153832674026496 0.64811992645263672 -6.2691611901755095E-09
vn -0.83292120695114128 0.55339151620864872 0.00021159148309379816
vn -0.88130342960357664 0.47255077958106992 -7.255096079461509E-09
vn -0.6691303253173828 0.7431445121765136 0.00093127856962382
vn -0.60737586021423336 0.79441463947296144 -5.000059477566765E-09
vn -0.4257792830467224 0.90482705831527712 -3.505113976842722E-09
vn -0.46329584717750552 0.8862032294273376 0.00089697889052331
vn -0.22835078835487364 0.9735785722732544 0.00080968206748366
vn -0.25881904363632204 0.96592581272125248 8.09825723990798E-05
vn -0.13917310535907746 0.99026805162429808 -1.1457045312468495E-09
vn 0.07323819398880005 0.997314453125 6.029152732622833E-10
vn 0.02094241045415401 0.99978017807006832 0.00098118267487734
vn 0.26891976594924928 0.96316236257553104 0.00063203216996043
vn 0.25881901383399964 0.96592575311660768 0.00036118633579462767
vn 0.36487677693367008 0.93105584383010864 3.0037521359105313E-09
vn 0.55339157581329344 0.83292126655578608 4.555649635307191E-09
vn 0.49999973177909848 0.8660249710083008 0.0010092572774738
vn 0.70710659027099608 0.70710659027099608 0.0006971588009037
vn 0.77494448423385616 0.63202929496765136 6.379525352429027E-09
vn 0.69966328144073488 0.7144726514816284 0.00039840565295889974
vn 0.62387961149215696 0.78152048587799072 5.135924130428293E-09
vn 0.85536384582519536 0.5180267691612244 0.00098118954338133
vn 0.8910065293312072 0.45399048924446104 7.33497484972645E-09
vn 0.96592527627944944 0.25881889462471008 0.001088751363568
vn 0.9854078888893128 0.17020949721336364 8.112109206592777E-09
vn 0.95731949806213376 0.28903180360794068 0.00010890418343478814
vn 0.92718386650085456 0.37460657954216 7.632794840617407E-09
vn 0.999122440814972 0.04187563806772232 0.00089699093950912
vn 0.99912285804748528 -0.04187565296888351 8.225013559126637E-09
vn 0.96770918369293216 -0.252069354057312 7.96640797773307E-09
vn 0.97814714908599856 -0.20791159570217132 0.00093129213200882
vn 0.89571148157119744 -0.44463506340980528 0.00075669819489121
vn 0.90630775690078736 -0.42261826992034912 0.00016818732547108084
vn 0.84989267587661744 -0.52695578336715696 6.996515367063694E-09
vn 0.71933978796005248 -0.69465839862823488 5.921772849859508E-09
vn 0.7569946646690368 -0.65342026948928832 0.00099678325932472
vn 0.57071346044540408 -0.82114905118942256 0.00056037295144051
vn 0.5735763907432556 -0.8191519379615784 0.00046698874211870134
vn 0.48175367712974552 -0.87630665302276608 3.9659080464105045E-09
vn 0.34857186675071716 -0.93728148937225344 0.00100613688118755
vn 0.28568837046623228 -0.95832258462905888 2.3518524905341565E-09
vn 0.08715571463108063 -0.9961943626403808 0.00082151166861876
vn -0.01047178450971841 -0.99994516372680672 0
vn 0.10452845692634582 -0.99452185630798336 0.0003081019676756114
vn 0.2010779231786728 -0.97957527637481696 1.6553195480994987E-09
vn -0.14608296751976014 -0.98927187919616704 0.00095934991259127
vn -0.22154849767684936 -0.97514933347702032 -1.8238401899850487E-09
vn -0.42261826992034912 -0.90630781650543216 -3.4790934577699772E-09
vn -0.38751545548439024 -0.92186284065246576 0.00085644552018493
vn -0.30569529533386232 -0.95212936401367184 -2.5165565187279526E-09
vn -0.09758289903402328 -0.99522739648818976 -8.033264053963762E-10
vn 0.40354529023170472 -0.9149596691131592 3.322078390155525E-09
vn 0.65605902671813968 -0.75470960140228272 5.400830893620423E-09
vn 0.80073136091232304 -0.59902358055114744 6.591807544253925E-09
vn 0.9420574307441712 -0.33545157313346864 7.755237341200427E-09
vn 0.99167114496231072 -0.12879559397697448 8.163668852034789E-09
vn 0.996492862701416 0.08367784321308136 8.203362433789607E-09
vn 0.8270805478096008 0.56208336353302 6.808721586537558E-09
vn 0.44463518261909488 0.89571177959442144 3.6603420294767375E-09
vn 0.15988118946552276 0.9871362447738648 1.3161806089456718E-09
vn -0.0523359552025795 0.99862951040267952 -4.3084077971933255E-10
vn -0.3452982008457184 0.93849301338195808 -2.8425746201321545E-09
vn -0.53582680225372312 0.84432792663574224 -4.4110506358663315E-09
vn -0.70215302705764768 0.71202605962753296 -5.780287803958117E-09
vn -0.96126168966293328 0.27563735842704772 -7.91333132355021E-09
vn -0.97277587652206416 -0.23174791038036348 -8.008119500857447E-09
vn -0.86074203252792352 -0.50904142856597904 -7.085830588948738E-09
vn -0.7337298393249512 -0.6794413328170776 -6.040236755211481E-09
vn -0.5735764503479004 -0.81915205717086784 -4.721816715402838E-09
vn -0.56656742095947264 -0.8091421127319336 -0.15585367381572724
vn -0.68545114994049072 -0.68545114994049072 -0.245588019490242
vn -0.66346257925033568 -0.7316972613334656 -0.15632198750972748
vn -0.80314797163009648 -0.57499748468399048 -0.15598465502262116
vn -0.80344128608703616 -0.56257563829422 -0.19491223990917204
vn -0.8952328562736512 -0.41745394468307496 -0.15585367381572724
vn -0.93878954648971552 -0.25154790282249452 -0.23536738753318788
vn -0.93720269203186032 -0.31176584959030152 -0.1563749760389328
vn -0.98196411132812496 -0.10667543858289718 -0.15609893202781678
vn -0.97116112709045408 -0.08496558666229248 -0.22277095913887024
vn -0.98402136564254768 0.08609071373939514 -0.15585367381572724
vn -0.94340103864669792 0.25278353691101076 -0.21469731628894804
vn -0.96954536437988288 0.1884605288505554 -0.15641123056411744
vn -0.90785384178161616 0.38910666108131408 -0.15619650483131408
vn -0.87983703613281248 0.41027474403381344 -0.23991957306861876
vn -0.8091421127319336 0.56656742095947264 -0.15585367381572724
vn -0.69514435529708864 0.69514435529708864 -0.18316271901130676
vn -0.75216293334960944 0.64014083147048952 -0.15643075108528138
vn -0.59991312026977536 0.78465384244918816 -0.1562773734331131
vn -0.55584555864334104 0.79382967948913568 -0.24671876430511476
vn -0.42057326436042784 0.89376372098922736 -0.15589918196201324
vn -0.41645574569702152 0.89309227466583248 -0.17014937102794648
vn -0.25565630197525024 0.95412236452102656 -0.15585367381572724
vn -0.08453629165887833 0.9662542343139648 -0.24332356452941896
vn -0.13746169209480286 0.97809082269668576 -0.15634149312973022
vn 0.07234126329421997 0.98510050773620608 -0.15602459013462066
vn 0.08529710024595261 0.9749503135681152 -0.20541730523109436
vn 0.25565633177757264 0.95412236452102656 -0.15585367381572724
vn 0.41132250428199768 0.8820839524269104 -0.22965572774410248
vn 0.36038717627525328 0.91959971189498896 -0.15638890862464904
vn 0.5466047525405884 0.82270628213882448 -0.15613330900669098
vn 0.55824583768844608 0.79725766181945808 -0.22965572774410248
vn 0.6984660625457764 0.6984660625457764 -0.15585365891456604
vn 0.80168318748474128 0.56134462356567384 -0.20541729032993316
vn 0.76540547609329216 0.62424945831298832 -0.15641959011554718
vn 0.88006627559661872 0.44841614365577696 -0.1562253087759018
vn 0.8790688514709472 0.40991654992103576 -0.24332354962825776
vn 0.95412236452102656 0.25565630197525024 -0.15585365891456604
vn 0.98166847229003904 0.08588486164808273 -0.17014935612678528
vn 0.97327601909637456 0.16811396181583404 -0.15643352270126342
vn 0.96539944410324096 -0.084461510181427 -0.24671874940395356
vn 0.98684316873550416 -0.04136098176240921 -0.15630058944225312
vn 0.95587027072906496 -0.24898555874824524 -0.15594284236431122
vn 0.9495849013328552 -0.2544405162334442 -0.18316270411014556
vn 0.8952328562736512 -0.41745394468307496 -0.15585365891456604
vn 0.79522687196731568 -0.55682384967803952 -0.2399195581674576
vn 0.83943921327590944 -0.52047437429428104 -0.15635915100574494
vn 0.7105258107185364 -0.68614685535430912 -0.15606267750263214
vn 0.69061750173568728 -0.69061750173568728 -0.21469730138778688
vn 0.56656742095947264 -0.8091421127319336 -0.15585367381572724
vn 0.41199821233749392 -0.88353300094604496 -0.22277095913887024
vn 0.47582504153251648 -0.86552256345748896 -0.15640099346637726
vn 0.28218322992324828 -0.94656479358673088 -0.15616583824157714
vn 0.25154790282249452 -0.93878954648971552 -0.23536737263202668
vn 0.08609071373939514 -0.98402136564254768 -0.15585367381572724
vn -0.08548415452241898 -0.97708839178085328 -0.19491222500801088
vn -0.01034287177026271 -0.98763549327850336 -0.1564261019229889
vn -0.21882726252079012 -0.96317178010940544 -0.15625226497650146
vn -0.25089251995086668 -0.93634366989135744 -0.2455880045890808
vn -0.41745394468307496 -0.8952328562736512 -0.15585367381572724
vn -0.51146090030670168 -0.7304418087005616 -0.4526173770427704
vn -0.63053053617477416 -0.63053053617477416 -0.4526173770427704
vn -0.7304418087005616 -0.51146090030670168 -0.4526173770427704
vn -0.80815905332565312 -0.37685075402259824 -0.4526173770427704
vn -0.86132073402404784 -0.23079019784927368 -0.4526173770427704
vn -0.8883116245269776 -0.07771719992160797 -0.4526173770427704
vn -0.8883116245269776 0.07771719992160797 -0.4526173770427704
vn -0.86132073402404784 0.23079019784927368 -0.4526173770427704
vn -0.80815905332565312 0.37685075402259824 -0.4526173770427704
vn -0.7304418087005616 0.51146090030670168 -0.4526173770427704
vn -0.63053053617477416 0.63053053617477416 -0.4526173770427704
vn -0.51146090030670168 0.7304418087005616 -0.4526173770427704
vn -0.37685075402259824 0.80815905332565312 -0.4526173770427704
vn -0.23079018294811248 0.86132073402404784 -0.4526173770427704
vn -0.07771719247102737 0.8883116245269776 -0.4526173770427704
vn 0.07771719992160797 0.8883116245269776 -0.4526173770427704
vn 0.23079019784927368 0.86132073402404784 -0.4526173770427704
vn 0.37685075402259824 0.80815905332565312 -0.4526173770427704
vn 0.51146090030670168 0.7304418087005616 -0.4526173770427704
vn 0.63053053617477416 0.63053053617477416 -0.4526173770427704
vn 0.73044186830520624 0.51146090030670168 -0.4526173770427704
vn 0.80815905332565312 0.37685075402259824 -0.4526173770427704
vn 0.86132073402404784 0.23079019784927368 -0.4526173770427704
vn 0.8883116245269776 0.07771719992160797 -0.4526173770427704
vn 0.8883116245269776 -0.07771719992160797 -0.4526173770427704
vn 0.86132073402404784 -0.23079019784927368 -0.4526173770427704
vn 0.80815905332565312 -0.37685075402259824 -0.4526173770427704
vn 0.73044186830520624 -0.51146090030670168 -0.4526173770427704
vn 0.63053053617477416 -0.63053053617477416 -0.4526173770427704
vn 0.51146090030670168 -0.7304418087005616 -0.4526173770427704
vn 0.37685075402259824 -0.80815905332565312 -0.4526173770427704
vn 0.23079019784927368 -0.86132073402404784 -0.4526173770427704
vn 0.07771719992160797 -0.8883116245269776 -0.4526173770427704
vn -0.07771719247102737 -0.8883116245269776 -0.4526173770427704
vn -0.23079018294811248 -0.86132073402404784 -0.4526173770427704
vn -0.37685075402259824 -0.80815905332565312 -0.4526173770427704
vn -0.40635219216346744 -0.58033108711242672 -0.70575755834579464
vn -0.50095224380493168 -0.50095224380493168 -0.70575755834579464
vn -0.58033108711242672 -0.40635219216346744 -0.70575755834579464
vn -0.64207684993743896 -0.29940536618232728 -0.70575755834579464
vn -0.68431347608566288 -0.1833612471818924 -0.70575755834579464
vn -0.70575755834579464 -0.061745785176754 -0.70575755834579464
vn -0.70575755834579464 0.061745785176754 -0.70575755834579464
vn -0.68431347608566288 0.1833612471818924 -0.70575755834579464
vn -0.64207684993743896 0.29940536618232728 -0.70575755834579464
vn -0.58033108711242672 0.40635219216346744 -0.70575755834579464
vn -0.50095224380493168 0.50095224380493168 -0.70575755834579464
vn -0.40635219216346744 0.58033108711242672 -0.70575755834579464
vn -0.29940536618232728 0.64207684993743896 -0.70575755834579464
vn -0.1833612322807312 0.68431347608566288 -0.70575755834579464
vn -0.0617457814514637 0.70575755834579464 -0.70575755834579464
vn 0.06174579262733459 0.70575755834579464 -0.70575755834579464
vn 0.1833612471818924 0.68431347608566288 -0.70575755834579464
vn 0.29940536618232728 0.64207684993743896 -0.70575755834579464
vn 0.40635219216346744 0.58033108711242672 -0.70575755834579464
vn 0.50095224380493168 0.50095224380493168 -0.70575755834579464
vn 0.58033108711242672 0.40635219216346744 -0.70575755834579464
vn 0.64207684993743896 0.29940536618232728 -0.70575755834579464
vn 0.68431347608566288 0.1833612471818924 -0.70575755834579464
vn 0.70575755834579464 0.061745785176754 -0.70575755834579464
vn 0.70575755834579464 -0.061745785176754 -0.70575755834579464
vn 0.68431347608566288 -0.1833612471818924 -0.70575755834579464
vn 0.64207684993743896 -0.29940536618232728 -0.70575755834579464
vn 0.58033108711242672 -0.40635219216346744 -0.70575755834579464
vn 0.50095224380493168 -0.50095224380493168 -0.70575755834579464
vn 0.40635219216346744 -0.58033108711242672 -0.70575755834579464
vn 0.29940536618232728 -0.64207684993743896 -0.70575755834579464
vn 0.1833612471818924 -0.68431347608566288 -0.70575755834579464
vn 0.06174579262733459 -0.70575755834579464 -0.70575755834579464
vn -0.0617457814514637 -0.70575755834579464 -0.70575755834579464
vn -0.1833612322807312 -0.68431347608566288 -0.70575755834579464
vn -0.29940536618232728 -0.64207684993743896 -0.70575755834579464
vn -0.26118698716163636 -0.37301367521286008 -0.89030450582504272
vn -0.32199209928512572 -0.32199212908744812 -0.89030450582504272
vn -0.37301367521286008 -0.26118698716163636 -0.89030450582504272
vn -0.4127013981342316 -0.1924458295106888 -0.89030450582504272
vn -0.4398494064807892 -0.11785729229450226 -0.89030450582504272
vn -0.45363280177116392 -0.03968773037195205 -0.89030450582504272
vn -0.45363280177116392 0.03968773037195205 -0.89030450582504272
vn -0.4398494064807892 0.11785729229450226 -0.89030450582504272
vn -0.4127013981342316 0.1924458295106888 -0.89030450582504272
vn -0.37301367521286008 0.26118698716163636 -0.89030450582504272
vn -0.32199209928512572 0.32199212908744812 -0.89030450582504272
vn -0.26118698716163636 0.37301367521286008 -0.89030450582504272
vn -0.1924458146095276 0.4127013981342316 -0.89030450582504272
vn -0.11785728484392166 0.4398494064807892 -0.89030450582504272
vn -0.03968772292137146 0.45363280177116392 -0.89030450582504272
vn 0.03968773782253265 0.45363280177116392 -0.89030450582504272
vn 0.11785729974508286 0.4398494064807892 -0.89030450582504272
vn 0.1924458295106888 0.4127013981342316 -0.89030450582504272
vn 0.26118698716163636 0.37301367521286008 -0.89030450582504272
vn 0.32199212908744812 0.32199212908744812 -0.89030450582504272
vn 0.37301367521286008 0.26118698716163636 -0.89030450582504272
vn 0.41270142793655392 0.1924458295106888 -0.89030450582504272
vn 0.4398494064807892 0.11785729229450226 -0.89030450582504272
vn 0.45363283157348632 0.03968773037195205 -0.89030450582504272
vn 0.45363283157348632 -0.03968773037195205 -0.89030450582504272
vn 0.4398494064807892 -0.11785729229450226 -0.89030450582504272
vn 0.41270142793655392 -0.1924458295106888 -0.89030450582504272
vn 0.37301367521286008 -0.26118698716163636 -0.89030450582504272
vn 0.32199212908744812 -0.32199212908744812 -0.89030450582504272
vn 0.26118698716163636 -0.37301367521286008 -0.89030450582504272
vn 0.1924458295106888 -0.4127013981342316 -0.89030450582504272
vn 0.11785729974508286 -0.4398494064807892 -0.89030450582504272
vn 0.03968773782253265 -0.45363280177116392 -0.89030450582504272
vn -0.03968772292137146 -0.45363280177116392 -0.89030450582504272
vn -0.11785728484392166 -0.4398494064807892 -0.89030450582504272
vn -0.1924458146095276 -0.4127013981342316 -0.89030450582504272
vn -0.09006142616271973 -0.12862105667591094 -0.98759585618972784
vn -0.11102800071239472 -0.11102800816297532 -0.98759585618972784
vn -0.12862104177474976 -0.09006143361330032 -0.98759585618972784
vn -0.14230599999427796 -0.06635838747024536 -0.98759585618972784
vn -0.15166707336902618 -0.04063907265663147 -0.98759585618972784
vn -0.15641981363296508 -0.01368496101349592 -0.98759585618972784
vn -0.15641981363296508 0.01368496101349592 -0.98759585618972784
vn -0.15166707336902618 0.04063907265663147 -0.98759585618972784
vn -0.14230599999427796 0.06635838747024536 -0.98759585618972784
vn -0.12862104177474976 0.09006143361330032 -0.98759585618972784
vn -0.11102800071239472 0.11102800816297532 -0.98759585618972784
vn -0.09006142616271973 0.12862105667591094 -0.98759585618972784
vn -0.06635837256908417 0.14230601489543914 -0.98759585618972784
vn -0.04063906148076057 0.15166707336902618 -0.98759585618972784
vn -0.01368495263159275 0.15641981363296508 -0.98759585618972784
vn 0.01368496846407652 0.15641981363296508 -0.98759585618972784
vn 0.04063908010721206 0.15166707336902618 -0.98759585618972784
vn 0.06635839492082596 0.14230601489543914 -0.98759585618972784
vn 0.09006144106388092 0.12862105667591094 -0.98759585618972784
vn 0.1110280156135559 0.11102800816297532 -0.98759585618972784
vn 0.12862105667591094 0.09006143361330032 -0.98759585618972784
vn 0.14230602979660034 0.06635838747024536 -0.98759585618972784
vn 0.15166708827018738 0.04063907265663147 -0.98759585618972784
vn 0.15641982853412628 0.01368496101349592 -0.98759585618972784
vn 0.15641982853412628 -0.01368496101349592 -0.98759585618972784
vn 0.15166708827018738 -0.04063907265663147 -0.98759585618972784
vn 0.14230602979660034 -0.06635838747024536 -0.98759585618972784
vn 0.12862105667591094 -0.09006143361330032 -0.98759585618972784
vn 0.1110280156135559 -0.11102800816297532 -0.98759585618972784
vn 0.09006144106388092 -0.12862105667591094 -0.98759585618972784
vn 0.06635839492082596 -0.14230601489543914 -0.98759585618972784
vn 0.04063908010721206 -0.15166707336902618 -0.98759585618972784
vn 0.01368496846407652 -0.15641981363296508 -0.98759585618972784
vn -0.01368495263159275 -0.15641981363296508 -0.98759585618972784
vn -0.04063906148076057 -0.15166707336902618 -0.98759585618972784
vn -0.06635837256908417 -0.14230601489543914 -0.98759585618972784
vn -0.30193713307380676 -0.94042408466339104 -0.15632198750972748
vn -0.09638842940330506 -0.98304527997970576 -0.15598465502262116
vn 0.19860421121120452 -0.96752429008483888 -0.1563749611377716
vn 0.3985984027385712 -0.90374356508255008 -0.15609893202781678
vn 0.64798426628112792 -0.74542063474655152 -0.15641121566295624
vn 0.7909032106399536 -0.59167116880416872 -0.1561964899301529
vn 0.93045973777770992 -0.33132180571556092 -0.15643073618412018
vn 0.97948670387268064 -0.12721310555934906 -0.1562773585319519
vn 0.98430871963500976 0.08265471458435059 -0.15589918196201324
vn 0.91578233242034912 0.37000006437301632 -0.15634149312973022
vn 0.81695145368576048 0.55519962310791016 -0.15602459013462066
vn 0.6162031292915344 0.77190428972244256 -0.15638890862464904
vn 0.43918216228485104 0.8847267627716064 -0.15613330900669098
vn 0.15791316330432892 0.9749853014945984 -0.15641959011554718
vn -0.05169334635138512 0.98636782169342048 -0.1562253087759018
vn -0.3410470485687256 0.92693877220153808 -0.15643353760242462
vn -0.52924120426177976 0.83395075798034672 -0.1563006043434143
vn -0.69356298446655272 0.70331519842147824 -0.15594284236431122
vn -0.87046366930007936 0.46673852205276488 -0.15635916590690612
vn -0.94948351383209232 0.27226001024246216 -0.15606269240379334
vn -0.9874770045280456 -0.02068469487130642 -0.15640100836753846
vn -0.9608407616615296 -0.2289045602083206 -0.15616583824157714
vn -0.8501459956169128 -0.50277495384216312 -0.1564261019229889
vn -0.72471761703491216 -0.67109584808349608 -0.15625226497650146
vn 8.232271753172427E-09 0 -1
vn 8.23223178514354E-09 0 -1
vn 8.232243331462996E-09 0 -1
vn 8.232238890570898E-09 0 -1
vn 8.232234449678799E-09 0 -1
vn 8.232240666927737E-09 0 -1
vn 8.232229120608281E-09 0 -1
vn 8.232269976815587E-09 0 -1
vn 8.23223089696512E-09 0 -1
vn 8.232216686110405E-09 0 -1
vn 8.232226456073022E-09 0 -1
vn 8.232238002392478E-09 0 -1
vn 8.232237114214058E-09 0 -1
vn 8.232267312280328E-09 0 -1
vn 8.232242443284576E-09 0 -1
vn 8.232215797931985E-09 0 -1
vn 8.232225567894602E-09 0 -1
vn 8.232245107819836E-09 0 -1
vn 8.23223267332196E-09 0 -1
vn 0.3583679497241974 0.93358039855957024 2.9501712184298867E-09
vn 0.0523359552025795 0.99862951040267952 4.308442214107089E-10
vn -0.25881904363632204 0.96592581272125248 -2.1306567621337535E-09
vn -0.5446390509605408 0.83867055177688592 -4.483594384652179E-09
vn -0.99862951040267952 0.0523359552025795 -8.220952807391768E-09
vn -0.96592581272125248 -0.25881904363632204 -7.951729052990686E-09
vn -0.62932038307189944 -0.7771459817886352 -5.1807149681337705E-09
vn -0.3583679497241974 -0.93358039855957024 -2.9501712184298867E-09
vn -0.0523359552025795 -0.99862951040267952 -4.308441103884064E-10
vn 0.25881904363632204 -0.96592581272125248 2.1306567621337535E-09
vn 0.5446390509605408 -0.83867055177688592 4.483594384652179E-09
vn 0.7771459817886352 -0.62932038307189944 6.397646412636959E-09
vn 0.93358039855957024 -0.3583679497241974 7.685452274586169E-09
vn 0.83867055177688592 0.5446390509605408 6.904135929630684E-09
vn 0.62932038307189944 0.7771459817886352 5.1807149681337705E-09
vn 0.83867055177688592 0.5446390509605408 6.904134153273844E-09
vn 0.96592581272125248 0.25881904363632204 7.951730829347525E-09
vn -0.0523359552025795 -0.99862951040267952 -4.308442214107089E-10
vn -0.3583679497241974 -0.93358039855957024 -2.950170330251467E-09
vn -0.32707777619361876 -0.4039074182510376 0.854329526424408
vn -0.43588370084762576 -0.28306618332862856 0.854329526424408
vn -0.50202232599258424 -0.13451646268367768 0.854329526424408
vn -0.51901948451995848 0.02720065601170063 0.854329526424408
vn -0.48521137237548832 0.18625518679618836 0.854329526424408
vn -0.4039074182510376 0.32707777619361876 0.854329526424408
vn -0.28306618332862856 0.43588370084762576 0.854329526424408
vn -0.13451647758483886 0.50202232599258424 0.854329526424408
vn 0.02720065042376518 0.51901942491531376 0.854329526424408
vn 0.18625518679618836 0.48521137237548832 0.854329526424408
vn 0.32707777619361876 0.4039074182510376 0.854329526424408
vn 0.43588370084762576 0.28306618332862856 0.854329526424408
vn 0.50202226638793944 0.13451646268367768 0.854329526424408
vn 0.51901942491531376 -0.02720065601170063 0.854329526424408
vn 0.48521137237548832 -0.18625518679618836 0.854329526424408
vn 0.4039074182510376 -0.32707777619361876 0.854329526424408
vn 0.28306618332862856 -0.43588370084762576 0.854329526424408
vn 0.13451646268367768 -0.50202232599258424 0.854329526424408
vn -0.02720066346228122 -0.51901942491531376 0.854329526424408
vn -0.18625520169734956 -0.48521137237548832 0.854329526424408
vn 0.3583679497241974 0.93358039855957024 2.9501689979838375E-09
vn 0.0523359552025795 0.99862951040267952 4.3084186218678155E-10
vn -0.25881904363632204 0.96592581272125248 -2.130658982579803E-09
vn -0.5446390509605408 0.83867055177688592 -4.483596161009018E-09
vn -0.7771459817886352 0.62932038307189944 -6.397647744904589E-09
vn -0.83867055177688592 -0.5446390509605408 -6.904132821006215E-09
vn -0.62932038307189944 -0.7771459817886352 -5.180713191776931E-09
vn -0.3583679497241974 -0.93358039855957024 -2.9501689979838375E-09
vn -0.0523359552025795 -0.99862951040267952 -4.3084186218678155E-10
vn 0.25881904363632204 -0.96592581272125248 2.130658982579803E-09
vn 0.5446390509605408 -0.83867055177688592 4.483596161009018E-09
vn 0.99862951040267952 -0.0523359552025795 8.220952807391768E-09
vn 0.83867055177688592 0.5446390509605408 6.904132821006215E-09
vn 0.62932038307189944 0.7771459817886352 5.180713191776931E-09
vn 0.3583679497241974 0.93358039855957024 2.9501681098054178E-09
vn -0.25881904363632204 0.96592581272125248 -2.1306592046244077E-09
vn -0.93358039855957024 0.3583679497241974 -7.68545049822933E-09
vn -0.99862951040267952 0.0523359552025795 -8.220950142856509E-09
vn 0.25881904363632204 -0.96592581272125248 2.1306592046244077E-09
vn 0.99862951040267952 -0.0523359552025795 8.220950142856509E-09
vn 0.62932038307189944 0.7771459817886352 5.180711415420092E-09
vn 0.93358039855957024 -0.3583679497241974 7.68545049822933E-09
vn -0.7771459817886352 0.62932038307189944 -6.397645968547749E-09
# 586 vertex normals

g obj_3369544
s 1
f 1//1 2//1 3//1
f 3//2 4//2 1//2
f 4//3 5//3 1//3
f 5//4 6//4 1//4
f 6//5 7//5 1//5
f 7//6 8//6 1//6
f 8//7 9//7 1//7
f 9//8 10//8 1//8
f 10//9 11//9 1//9
f 11//10 12//10 1//10
f 12//11 13//11 1//11
f 13//12 14//12 1//12
f 14//13 15//13 1//13
f 15//14 16//14 1//14
f 16//15 17//15 1//15
f 17//16 18//16 1//16
f 18//7 19//7 1//7
f 19//17 20//17 1//17
f 20//18 21//18 1//18
f 21//19 2//19 1//19
f 22//20 21//20 20//20
f 23//21 20//21 19//21
f 24//22 19//22 18//22
f 25//23 18//23 17//23
f 26//24 17//24 16//24
f 27//25 16//25 15//25
f 28//26 15//26 14//26
f 29//27 14//27 13//27
f 30//28 13//28 12//28
f 31//29 12//29 11//29
f 32//30 11//30 10//30
f 33//31 10//31 9//31
f 34//32 9//32 8//32
f 35//33 8//33 7//33
f 36//34 7//34 6//34
f 37//35 6//35 5//35
f 38//36 5//36 4//36
f 39//37 4//37 3//37
f 40//38 3//38 2//38
f 41//39 2//39 21//39
f 21//39 22//39 41//39
f 2//38 41//38 40//38
f 3//40 40//40 39//40
f 4//41 39//41 38//41
f 5//42 38//42 37//42
f 6//34 37//34 36//34
f 7//43 36//43 35//43
f 8//32 35//32 34//32
f 9//31 34//31 33//31
f 10//30 33//30 32//30
f 11//29 32//29 31//29
f 12//28 31//28 30//28
f 13//27 30//27 29//27
f 14//26 29//26 28//26
f 15//25 28//25 27//25
f 16//44 27//44 26//44
f 17//45 26//45 25//45
f 18//22 25//22 24//22
f 19//46 24//46 23//46
f 20//20 23//20 22//20
f 42//16 43//16 26//16
f 43//47 44//47 25//47
f 45//48 46//48 31//48
f 46//49 47//49 30//49
f 47//50 48//50 29//50
f 48//51 49//51 28//51
f 25//52 26//52 43//52
f 44//53 50//53 24//53
f 30//1 31//1 46//1
f 28//54 29//54 48//54
f 49//55 42//55 27//55
f 24//53 25//53 44//53
f 51//56 39//56 40//56
f 52//50 38//50 39//50
f 29//19 30//19 47//19
f 26//57 27//57 42//57
f 50//6 53//6 23//6
f 53//58 54//58 22//58
f 55//59 41//59 22//59
f 56//60 40//60 41//60
f 39//61 51//61 52//61
f 57//57 37//57 38//57
f 58//62 36//62 37//62
f 59//63 35//63 36//63
f 60//64 32//64 33//64
f 27//65 28//65 49//65
f 22//66 23//66 53//66
f 41//67 55//67 56//67
f 38//68 52//68 57//68
f 36//69 58//69 59//69
f 61//63 34//63 35//63
f 62//70 33//70 34//70
f 33//71 62//71 60//71
f 23//5 24//5 50//5
f 40//72 56//72 51//72
f 35//73 59//73 61//73
f 60//74 45//74 32//74
f 22//75 54//75 55//75
f 34//69 61//69 62//69
f 37//47 57//47 58//47
f 31//76 32//76 45//76
f 63//77 54//77 53//77
f 64//78 53//78 50//78
f 65//79 50//79 44//79
f 66//80 44//80 43//80
f 67//81 43//81 42//81
f 68//82 42//82 49//82
f 69//83 49//83 48//83
f 70//84 48//84 47//84
f 71//85 47//85 46//85
f 72//86 46//86 45//86
f 73//87 45//87 60//87
f 74//88 60//88 62//88
f 75//89 62//89 61//89
f 76//90 61//90 59//90
f 77//91 59//91 58//91
f 78//92 58//92 57//92
f 79//93 57//93 52//93
f 80//94 52//94 51//94
f 81//95 51//95 56//95
f 82//96 56//96 55//96
f 83//97 55//97 54//97
f 54//98 63//98 83//98
f 55//99 83//99 82//99
f 56//100 82//100 81//100
f 51//101 81//101 80//101
f 52//93 80//93 79//93
f 57//92 79//92 78//92
f 58//91 78//91 77//91
f 59//90 77//90 76//90
f 61//89 76//89 75//89
f 62//88 75//88 74//88
f 60//102 74//102 73//102
f 45//86 73//86 72//86
f 46//85 72//85 71//85
f 47//103 71//103 70//103
f 48//104 70//104 69//104
f 49//82 69//82 68//82
f 42//105 68//105 67//105
f 43//80 67//80 66//80
f 44//106 66//106 65//106
f 50//107 65//107 64//107
f 53//108 64//108 63//108
f 84//109 85//109 76//109
f 86//5 87//5 63//5
f 88//110 89//110 80//110
f 89//17 77//17 78//17
f 76//111 77//111 84//111
f 90//112 91//112 66//112
f 91//113 92//113 64//113
f 63//114 92//114 86//114
f 89//115 79//115 80//115
f 77//116 89//116 84//116
f 91//117 65//117 66//117
f 63//53 64//53 92//53
f 88//115 93//115 94//115
f 78//53 79//53 89//53
f 95//118 96//118 97//118
f 98//119 99//119 100//119
f 101//120 102//120 103//120
f 90//121 104//121 105//121
f 87//122 106//122 83//122
f 64//123 65//123 91//123
f 80//124 107//124 88//124
f 83//19 108//19 109//19
f 110//48 111//48 96//48
f 97//125 112//125 113//125
f 100//126 97//126 98//126
f 98//119 103//119 114//119
f 101//127 115//127 102//127
f 104//128 115//128 101//128
f 105//129 116//129 90//129
f 66//130 117//130 90//130
f 76//131 118//131 119//131
f 93//6 120//6 121//6
f 94//47 89//47 88//47
f 122//51 123//51 124//51
f 83//132 106//132 108//132
f 97//133 113//133 95//133
f 114//134 99//134 98//134
f 101//135 105//135 104//135
f 83//125 63//125 87//125
f 86//62 92//62 125//62
f 126//136 125//136 127//136
f 119//137 74//137 75//137
f 85//138 118//138 76//138
f 84//51 89//51 128//51
f 122//49 128//49 123//49
f 129//139 81//139 82//139
f 109//140 82//140 83//140
f 100//141 112//141 97//141
f 116//16 91//16 90//16
f 127//142 130//142 126//142
f 131//143 132//143 133//143
f 117//144 66//144 67//144
f 134//145 67//145 68//145
f 135//9 72//9 73//9
f 136//146 71//146 72//146
f 137//16 138//16 70//16
f 121//147 94//147 93//147
f 124//148 139//148 122//148
f 140//149 141//149 142//149
f 143//150 141//150 140//150
f 109//151 144//151 82//151
f 103//136 98//136 101//136
f 127//55 145//55 130//55
f 133//152 127//152 131//152
f 68//153 146//153 134//153
f 69//154 147//154 148//154
f 149//155 147//155 69//155
f 72//50 135//50 136//50
f 70//156 136//156 137//156
f 150//157 151//157 152//157
f 120//158 151//158 150//158
f 128//159 122//159 84//159
f 107//160 80//160 81//160
f 124//51 153//51 154//51
f 140//161 155//161 143//161
f 73//162 156//162 157//162
f 156//113 73//113 74//113
f 96//163 95//163 110//163
f 133//164 145//164 127//164
f 68//165 148//165 146//165
f 69//166 70//166 149//166
f 70//57 71//57 136//57
f 150//16 121//16 120//16
f 81//167 129//167 107//167
f 154//168 158//168 124//168
f 153//59 159//59 160//59
f 155//169 157//169 143//169
f 74//170 161//170 156//170
f 74//148 119//148 162//148
f 125//171 126//171 86//171
f 148//172 68//172 69//172
f 73//173 155//173 135//173
f 137//174 136//174 111//174
f 131//175 150//175 163//175
f 119//176 75//176 76//176
f 160//177 154//177 153//177
f 157//178 155//178 73//178
f 162//179 164//179 74//179
f 67//180 134//180 117//180
f 111//181 110//181 137//181
f 163//182 165//182 131//182
f 158//183 139//183 124//183
f 164//184 161//184 74//184
f 138//185 149//185 70//185
f 152//186 163//186 150//186
f 142//187 166//187 140//187
f 165//188 132//188 131//188
f 153//156 166//156 167//156
f 82//189 144//189 129//189
f 166//190 168//190 167//190
f 167//191 159//191 153//191
f 142//192 168//192 166//192
f 125//193 92//193 169//193
f 92//194 170//194 169//194
f 91//195 171//195 172//195
f 172//196 92//196 91//196
f 91//197 116//197 173//197
f 173//198 174//198 91//198
f 116//199 175//199 173//199
f 105//200 176//200 177//200
f 177//201 116//201 105//201
f 105//202 178//202 179//202
f 101//203 180//203 178//203
f 178//204 105//204 101//204
f 179//205 176//205 105//205
f 101//206 98//206 181//206
f 98//207 182//207 181//207
f 98//208 183//208 184//208
f 97//209 185//209 183//209
f 183//210 98//210 97//210
f 184//211 182//211 98//211
f 97//212 96//212 186//212
f 96//213 187//213 186//213
f 111//214 188//214 189//214
f 189//215 96//215 111//215
f 111//216 136//216 190//216
f 190//217 191//217 111//217
f 136//218 192//218 190//218
f 135//219 193//219 194//219
f 194//220 136//220 135//220
f 135//221 155//221 195//221
f 195//222 196//222 135//222
f 155//223 197//223 195//223
f 140//224 198//224 199//224
f 199//225 155//225 140//225
f 140//226 200//226 201//226
f 166//227 202//227 200//227
f 200//228 140//228 166//228
f 201//229 198//229 140//229
f 166//230 153//230 203//230
f 153//231 204//231 203//231
f 153//232 205//232 206//232
f 124//233 207//233 205//233
f 205//234 153//234 124//234
f 206//235 204//235 153//235
f 124//236 123//236 208//236
f 123//237 209//237 208//237
f 128//238 210//238 211//238
f 211//239 123//239 128//239
f 128//240 89//240 212//240
f 212//241 213//241 128//241
f 89//242 214//242 212//242
f 94//243 215//243 216//243
f 216//244 89//244 94//244
f 94//245 121//245 217//245
f 217//246 218//246 94//246
f 121//247 219//247 217//247
f 121//248 150//248 220//248
f 150//249 221//249 220//249
f 150//250 222//250 223//250
f 131//251 224//251 222//251
f 222//252 150//252 131//252
f 223//253 221//253 150//253
f 131//254 127//254 225//254
f 127//255 226//255 225//255
f 125//256 227//256 228//256
f 228//257 127//257 125//257
f 228//258 226//258 127//258
f 225//259 224//259 131//259
f 220//260 219//260 121//260
f 218//261 215//261 94//261
f 216//262 214//262 89//262
f 213//263 210//263 128//263
f 211//264 209//264 123//264
f 208//265 207//265 124//265
f 203//266 202//266 166//266
f 199//267 197//267 155//267
f 196//268 193//268 135//268
f 194//269 192//269 136//269
f 191//270 188//270 111//270
f 189//271 187//271 96//271
f 186//272 185//272 97//272
f 181//273 180//273 101//273
f 177//274 175//274 116//274
f 174//275 171//275 91//275
f 172//276 170//276 92//276
f 169//277 227//277 125//277
f 229//278 227//278 169//278
f 230//279 231//279 170//279
f 231//280 169//280 170//280
f 230//281 172//281 171//281
f 171//282 232//282 230//282
f 232//283 174//283 173//283
f 233//284 234//284 175//284
f 234//285 173//285 175//285
f 233//286 177//286 176//286
f 176//287 235//287 233//287
f 235//288 179//288 178//288
f 236//289 237//289 180//289
f 237//290 178//290 180//290
f 236//291 181//291 182//291
f 182//292 238//292 236//292
f 238//293 184//293 183//293
f 239//294 240//294 185//294
f 240//295 183//295 185//295
f 239//296 186//296 187//296
f 187//297 241//297 239//297
f 241//298 189//298 188//298
f 188//299 242//299 241//299
f 242//300 191//300 190//300
f 243//301 244//301 192//301
f 244//302 190//302 192//302
f 243//303 194//303 193//303
f 193//304 245//304 243//304
f 245//305 196//305 195//305
f 246//306 247//306 197//306
f 247//307 195//307 197//307
f 246//308 199//308 198//308
f 198//309 248//309 246//309
f 248//310 201//310 200//310
f 249//311 250//311 202//311
f 250//312 200//312 202//312
f 249//313 203//313 204//313
f 204//314 251//314 249//314
f 251//315 206//315 205//315
f 252//316 253//316 207//316
f 253//317 205//317 207//317
f 254//318 252//318 209//318
f 252//319 208//319 209//319
f 254//320 211//320 210//320
f 210//321 255//321 254//321
f 255//322 213//322 212//322
f 256//323 257//323 214//323
f 257//324 212//324 214//324
f 256//325 216//325 215//325
f 215//326 258//326 256//326
f 258//327 218//327 217//327
f 259//328 260//328 219//328
f 260//329 217//329 219//329
f 259//330 220//330 221//330
f 221//331 261//331 259//331
f 261//332 223//332 222//332
f 262//333 263//333 224//333
f 263//334 222//334 224//334
f 262//335 225//335 226//335
f 226//336 264//336 262//336
f 264//337 228//337 227//337
f 265//338 229//338 231//338
f 266//339 231//339 230//339
f 267//340 230//340 232//340
f 268//341 232//341 234//341
f 269//342 234//342 233//342
f 270//343 233//343 235//343
f 271//344 235//344 237//344
f 272//345 237//345 236//345
f 273//346 236//346 238//346
f 274//347 238//347 240//347
f 275//348 240//348 239//348
f 276//349 239//349 241//349
f 277//350 241//350 242//350
f 278//351 242//351 244//351
f 279//352 244//352 243//352
f 280//353 243//353 245//353
f 281//354 245//354 247//354
f 282//355 247//355 246//355
f 283//356 246//356 248//356
f 284//357 248//357 250//357
f 285//358 250//358 249//358
f 286//359 249//359 251//359
f 287//360 251//360 253//360
f 288//361 253//361 252//361
f 289//362 252//362 254//362
f 290//363 254//363 255//363
f 291//364 255//364 257//364
f 292//365 257//365 256//365
f 293//366 256//366 258//366
f 294//367 258//367 260//367
f 295//368 260//368 259//368
f 296//369 259//369 261//369
f 297//370 261//370 263//370
f 298//371 263//371 262//371
f 299//372 262//372 264//372
f 300//373 264//373 229//373
f 301//374 265//374 266//374
f 302//375 266//375 267//375
f 303//376 267//376 268//376
f 304//377 268//377 269//377
f 305//378 269//378 270//378
f 306//379 270//379 271//379
f 307//380 271//380 272//380
f 308//381 272//381 273//381
f 309//382 273//382 274//382
f 310//383 274//383 275//383
f 311//384 275//384 276//384
f 312//385 276//385 277//385
f 313//386 277//386 278//386
f 314//387 278//387 279//387
f 315//388 279//388 280//388
f 316//389 280//389 281//389
f 317//390 281//390 282//390
f 318//391 282//391 283//391
f 319//392 283//392 284//392
f 320//393 284//393 285//393
f 321//394 285//394 286//394
f 322//395 286//395 287//395
f 323//396 287//396 288//396
f 324//397 288//397 289//397
f 325//398 289//398 290//398
f 326//399 290//399 291//399
f 327//400 291//400 292//400
f 328//401 292//401 293//401
f 329//402 293//402 294//402
f 330//403 294//403 295//403
f 331//404 295//404 296//404
f 332//405 296//405 297//405
f 333//406 297//406 298//406
f 334//407 298//407 299//407
f 335//408 299//408 300//408
f 336//409 300//409 265//409
f 337//410 301//410 302//410
f 338//411 302//411 303//411
f 339//412 303//412 304//412
f 340//413 304//413 305//413
f 341//414 305//414 306//414
f 342//415 306//415 307//415
f 343//416 307//416 308//416
f 344//417 308//417 309//417
f 345//418 309//418 310//418
f 346//419 310//419 311//419
f 347//420 311//420 312//420
f 348//421 312//421 313//421
f 349//422 313//422 314//422
f 350//423 314//423 315//423
f 351//424 315//424 316//424
f 352//425 316//425 317//425
f 353//426 317//426 318//426
f 354//427 318//427 319//427
f 355//428 319//428 320//428
f 356//429 320//429 321//429
f 357//430 321//430 322//430
f 358//431 322//431 323//431
f 359//432 323//432 324//432
f 360//433 324//433 325//433
f 361//434 325//434 326//434
f 362//435 326//435 327//435
f 363//436 327//436 328//436
f 364//437 328//437 329//437
f 365//438 329//438 330//438
f 366//439 330//439 331//439
f 367//440 331//440 332//440
f 368//441 332//441 333//441
f 369//442 333//442 334//442
f 370//443 334//443 335//443
f 371//444 335//444 336//444
f 372//445 336//445 301//445
f 373//446 337//446 338//446
f 374//447 338//447 339//447
f 375//448 339//448 340//448
f 376//449 340//449 341//449
f 377//450 341//450 342//450
f 378//451 342//451 343//451
f 379//452 343//452 344//452
f 380//453 344//453 345//453
f 381//454 345//454 346//454
f 382//455 346//455 347//455
f 383//456 347//456 348//456
f 384//457 348//457 349//457
f 385//458 349//458 350//458
f 386//459 350//459 351//459
f 387//460 351//460 352//460
f 388//461 352//461 353//461
f 389//462 353//462 354//462
f 390//463 354//463 355//463
f 391//464 355//464 356//464
f 392//465 356//465 357//465
f 393//466 357//466 358//466
f 394//467 358//467 359//467
f 395//468 359//468 360//468
f 396//469 360//469 361//469
f 397//470 361//470 362//470
f 398//471 362//471 363//471
f 399//472 363//472 364//472
f 400//473 364//473 365//473
f 401//474 365//474 366//474
f 402//475 366//475 367//475
f 403//476 367//476 368//476
f 404//477 368//477 369//477
f 405//478 369//478 370//478
f 406//479 370//479 371//479
f 407//480 371//480 372//480
f 408//481 372//481 337//481
f 337//481 373//481 408//481
f 372//480 408//480 407//480
f 371//479 407//479 406//479
f 370//478 406//478 405//478
f 369//477 405//477 404//477
f 368//476 404//476 403//476
f 367//475 403//475 402//475
f 366//474 402//474 401//474
f 365//473 401//473 400//473
f 364//472 400//472 399//472
f 363//471 399//471 398//471
f 362//470 398//470 397//470
f 361//469 397//469 396//469
f 360//468 396//468 395//468
f 359//467 395//467 394//467
f 358//466 394//466 393//466
f 357//465 393//465 392//465
f 356//464 392//464 391//464
f 355//463 391//463 390//463
f 354//462 390//462 389//462
f 353//461 389//461 388//461
f 352//460 388//460 387//460
f 351//459 387//459 386//459
f 350//458 386//458 385//458
f 349//457 385//457 384//457
f 348//456 384//456 383//456
f 347//455 383//455 382//455
f 346//454 382//454 381//454
f 345//453 381//453 380//453
f 344//452 380//452 379//452
f 343//451 379//451 378//451
f 342//450 378//450 377//450
f 341//449 377//449 376//449
f 340//448 376//448 375//448
f 339//447 375//447 374//447
f 338//446 374//446 373//446
f 301//445 337//445 372//445
f 336//444 372//444 371//444
f 335//443 371//443 370//443
f 334//442 370//442 369//442
f 333//441 369//441 368//441
f 332//440 368//440 367//440
f 331//439 367//439 366//439
f 330//438 366//438 365//438
f 329//437 365//437 364//437
f 328//436 364//436 363//436
f 327//435 363//435 362//435
f 326//434 362//434 361//434
f 325//433 361//433 360//433
f 324//432 360//432 359//432
f 323//431 359//431 358//431
f 322//430 358//430 357//430
f 321//429 357//429 356//429
f 320//428 356//428 355//428
f 319//427 355//427 354//427
f 318//426 354//426 353//426
f 317//425 353//425 352//425
f 316//424 352//424 351//424
f 315//423 351//423 350//423
f 314//422 350//422 349//422
f 313//421 349//421 348//421
f 312//420 348//420 347//420
f 311//419 347//419 346//419
f 310//418 346//418 345//418
f 309//417 345//417 344//417
f 308//416 344//416 343//416
f 307//415 343//415 342//415
f 306//414 342//414 341//414
f 305//413 341//413 340//413
f 304//412 340//412 339//412
f 303//411 339//411 338//411
f 302//410 338//410 337//410
f 265//409 301//409 336//409
f 300//408 336//408 335//408
f 299//407 335//407 334//407
f 298//406 334//406 333//406
f 297//405 333//405 332//405
f 296//404 332//404 331//404
f 295//403 331//403 330//403
f 294//402 330//402 329//402
f 293//401 329//401 328//401
f 292//400 328//400 327//400
f 291//399 327//399 326//399
f 290//398 326//398 325//398
f 289//397 325//397 324//397
f 288//396 324//396 323//396
f 287//395 323//395 322//395
f 286//394 322//394 321//394
f 285//393 321//393 320//393
f 284//392 320//392 319//392
f 283//391 319//391 318//391
f 282//390 318//390 317//390
f 281//389 317//389 316//389
f 280//388 316//388 315//388
f 279//387 315//387 314//387
f 278//386 314//386 313//386
f 277//385 313//385 312//385
f 276//384 312//384 311//384
f 275//383 311//383 310//383
f 274//382 310//382 309//382
f 273//381 309//381 308//381
f 272//380 308//380 307//380
f 271//379 307//379 306//379
f 270//378 306//378 305//378
f 269//377 305//377 304//377
f 268//376 304//376 303//376
f 267//375 303//375 302//375
f 266//374 302//374 301//374
f 229//373 265//373 300//373
f 264//372 300//372 299//372
f 262//371 299//371 298//371
f 263//370 298//370 297//370
f 261//369 297//369 296//369
f 259//368 296//368 295//368
f 260//367 295//367 294//367
f 258//366 294//366 293//366
f 256//365 293//365 292//365
f 257//364 292//364 291//364
f 255//363 291//363 290//363
f 254//362 290//362 289//362
f 252//361 289//361 288//361
f 253//360 288//360 287//360
f 251//359 287//359 286//359
f 249//358 286//358 285//358
f 250//357 285//357 284//357
f 248//356 284//356 283//356
f 246//355 283//355 282//355
f 247//354 282//354 281//354
f 245//353 281//353 280//353
f 243//352 280//352 279//352
f 244//351 279//351 278//351
f 242//350 278//350 277//350
f 241//349 277//349 276//349
f 239//348 276//348 275//348
f 240//347 275//347 274//347
f 238//346 274//346 273//346
f 236//345 273//345 272//345
f 237//344 272//344 271//344
f 235//343 271//343 270//343
f 233//342 270//342 269//342
f 234//341 269//341 268//341
f 232//340 268//340 267//340
f 230//339 267//339 266//339
f 231//338 266//338 265//338
f 227//337 229//337 264//337
f 226//482 228//482 264//482
f 224//483 225//483 262//483
f 222//332 263//332 261//332
f 221//484 223//484 261//484
f 219//485 220//485 259//485
f 217//327 260//327 258//327
f 215//486 218//486 258//486
f 214//487 216//487 256//487
f 212//322 257//322 255//322
f 210//488 213//488 255//488
f 209//489 211//489 254//489
f 207//490 208//490 252//490
f 205//315 253//315 251//315
f 204//491 206//491 251//491
f 202//492 203//492 249//492
f 200//310 250//310 248//310
f 198//493 201//493 248//493
f 197//494 199//494 246//494
f 195//305 247//305 245//305
f 193//495 196//495 245//495
f 192//496 194//496 243//496
f 190//300 244//300 242//300
f 188//497 191//497 242//497
f 187//498 189//498 241//498
f 185//499 186//499 239//499
f 183//293 240//293 238//293
f 182//500 184//500 238//500
f 180//501 181//501 236//501
f 178//288 237//288 235//288
f 176//502 179//502 235//502
f 175//503 177//503 233//503
f 173//283 234//283 232//283
f 171//504 174//504 232//504
f 170//505 172//505 230//505
f 169//278 231//278 229//278
f 409//506 374//506 375//506
f 375//507 376//507 409//507
f 376//508 377//508 409//508
f 377//507 378//507 409//507
f 378//509 379//509 409//509
f 379//509 380//509 409//509
f 380//510 381//510 409//510
f 381//511 382//511 409//511
f 382//512 383//512 409//512
f 383//513 384//513 409//513
f 384//514 385//514 409//514
f 385//508 386//508 409//508
f 386//515 387//515 409//515
f 387//516 388//516 409//516
f 388//516 389//516 409//516
f 389//515 390//515 409//515
f 390//508 391//508 409//508
f 391//514 392//514 409//514
f 392//513 393//513 409//513
f 393//512 394//512 409//512
f 394//511 395//511 409//511
f 395//510 396//510 409//510
f 396//509 397//509 409//509
f 397//509 398//509 409//509
f 398//517 399//517 409//517
f 399//518 400//518 409//518
f 400//516 401//516 409//516
f 401//519 402//519 409//519
f 402//512 403//512 409//512
f 403//520 404//520 409//520
f 404//521 405//521 409//521
f 405//522 406//522 409//522
f 406//516 407//516 409//516
f 407//515 408//515 409//515
f 408//523 373//523 409//523
f 373//524 374//524 409//524
f 410//525 411//525 104//525
f 412//526 410//526 90//526
f 413//527 412//527 117//527
f 414//528 413//528 134//528
f 415//25 414//25 146//25
f 416//44 415//44 148//44
f 417//529 416//529 147//529
f 418//530 417//530 149//530
f 419//46 418//46 138//46
f 420//531 419//531 137//531
f 421//532 420//532 110//532
f 422//533 421//533 95//533
f 423//534 422//534 113//534
f 424//535 423//535 112//535
f 425//536 424//536 100//536
f 426//537 425//537 99//537
f 427//33 426//33 114//33
f 428//32 427//32 103//32
f 429//538 428//538 102//538
f 411//539 429//539 115//539
f 115//539 104//539 411//539
f 102//540 115//540 429//540
f 103//541 102//541 428//541
f 114//33 103//33 427//33
f 99//537 114//537 426//537
f 100//536 99//536 425//536
f 112//535 100//535 424//535
f 113//534 112//534 423//534
f 95//542 113//542 422//542
f 110//543 95//543 421//543
f 137//531 110//531 420//531
f 138//46 137//46 419//46
f 149//530 138//530 418//530
f 147//529 149//529 417//529
f 148//44 147//44 416//44
f 146//25 148//25 415//25
f 134//528 146//528 414//528
f 117//527 134//527 413//527
f 90//526 117//526 412//526
f 104//525 90//525 410//525
f 430//544 419//544 420//544
f 430//545 418//545 419//545
f 430//546 417//546 418//546
f 430//547 416//547 417//547
f 430//548 415//548 416//548
f 430//549 414//549 415//549
f 430//550 413//550 414//550
f 430//551 412//551 413//551
f 430//552 410//552 412//552
f 430//553 411//553 410//553
f 430//554 429//554 411//554
f 430//555 428//555 429//555
f 430//556 427//556 428//556
f 430//557 426//557 427//557
f 430//558 425//558 426//558
f 430//559 424//559 425//559
f 430//560 423//560 424//560
f 430//561 422//561 423//561
f 430//562 421//562 422//562
f 430//563 420//563 421//563
f 431//564 432//564 133//564
f 433//565 431//565 132//565
f 434//566 433//566 165//566
f 435//567 434//567 163//567
f 436//568 435//568 152//568
f 437//24 436//24 151//24
f 438//529 437//529 120//529
f 439//22 438//22 93//22
f 440//569 439//569 88//569
f 441//570 440//570 107//570
f 442//571 441//571 129//571
f 443//572 442//572 144//572
f 444//573 443//573 109//573
f 445//574 444//574 108//574
f 446//35 445//35 106//35
f 447//34 446//34 87//34
f 448//575 447//575 86//575
f 449//32 448//32 126//32
f 450//576 449//576 130//576
f 432//577 450//577 145//577
f 145//577 133//577 432//577
f 130//576 145//576 450//576
f 126//32 130//32 449//32
f 86//575 126//575 448//575
f 87//34 86//34 447//34
f 106//35 87//35 446//35
f 108//574 106//574 445//574
f 109//573 108//573 444//573
f 144//572 109//572 443//572
f 129//571 144//571 442//571
f 107//570 129//570 441//570
f 88//569 107//569 440//569
f 93//22 88//22 439//22
f 120//529 93//529 438//529
f 151//24 120//24 437//24
f 152//568 151//568 436//568
f 163//567 152//567 435//567
f 165//566 163//566 434//566
f 132//565 165//565 433//565
f 133//564 132//564 431//564
f 451//544 440//544 441//544
f 451//545 439//545 440//545
f 451//546 438//546 439//546
f 451//547 437//547 438//547
f 451//548 436//548 437//548
f 451//549 435//549 436//549
f 451//550 434//550 435//550
f 451//551 433//551 434//551
f 451//552 431//552 433//552
f 451//553 432//553 431//553
f 451//554 450//554 432//554
f 451//555 449//555 450//555
f 451//556 448//556 449//556
f 451//557 447//557 448//557
f 451//558 446//558 447//558
f 451//559 445//559 446//559
f 451//560 444//560 445//560
f 451//561 443//561 444//561
f 451//562 442//562 443//562
f 451//563 441//563 442//563
f 452//578 453//578 118//578
f 454//565 452//565 85//565
f 455//579 454//579 84//579
f 456//567 455//567 122//567
f 457//568 456//568 139//568
f 458//580 457//580 158//580
f 459//581 458//581 154//581
f 460//22 459//22 160//22
f 461//569 460//569 159//569
f 462//570 461//570 167//570
f 463//571 462//571 168//571
f 464//572 463//572 142//572
f 465//582 464//582 141//582
f 466//574 465//574 143//574
f 467//35 466//35 157//35
f 468//34 467//34 156//34
f 469//583 468//583 161//583
f 470//32 469//32 164//32
f 471//576 470//576 162//576
f 453//577 471//577 119//577
f 119//584 118//584 453//584
f 162//576 119//576 471//576
f 164//32 162//32 470//32
f 161//575 164//575 469//575
f 156//585 161//585 468//585
f 157//35 156//35 467//35
f 143//574 157//574 466//574
f 141//582 143//582 465//582
f 142//572 141//572 464//572
f 168//571 142//571 463//571
f 167//570 168//570 462//570
f 159//569 167//569 461//569
f 160//22 159//22 460//22
f 154//529 160//529 459//529
f 158//580 154//580 458//580
f 139//586 158//586 457//586
f 122//567 139//567 456//567
f 84//579 122//579 455//579
f 85//565 84//565 454//565
f 118//564 85//564 452//564
f 472//544 461//544 462//544
f 472//545 460//545 461//545
f 472//546 459//546 460//546
f 472//547 458//547 459//547
f 472//548 457//548 458//548
f 472//549 456//549 457//549
f 472//550 455//550 456//550
f 472//551 454//551 455//551
f 472//552 452//552 454//552
f 472//553 453//553 452//553
f 472//554 471//554 453//554
f 472//555 470//555 471//555
f 472//556 469//556 470//556
f 472//557 468//557 469//557
f 472//558 467//558 468//558
f 472//559 466//559 467//559
f 472//560 465//560 466//560
f 472//561 464//561 465//561
f 472//562 463//562 464//562
f 472//563 462//563 463//563
#940 polygons

