# Aspose.3D Wavefront OBJ Exporter
# Copyright 2004-2023 Aspose Pty Ltd.
# File created: 06/29/2023 04:30:18


#
# object obj_23547699
#

v 33.65547943115234376 19.43099975585937504 185.26631164550781248
v 25.51657295227050784 14.73200035095214848 209.90431213378906256
v 27.16177558898925782 11.41775894165039064 209.90431213378906256
v 35.8254470825195312 15.05963039398193359 185.26631164550781248
v 28.37862205505371096 7.92345380783081056 209.90431213378906256
v 37.4304237365722656 10.45076179504394528 185.26631164550781248
v 29.14792060852050782 4.30419015884399416 209.90431213378906256
v 38.44510269165039064 5.67707872390747072 185.26631164550781248
v 29.45753860473632816 0.61704748868942264 209.90431213378906256
v 38.85347747802734368 0.81386435031890864 185.26631164550781248
v 29.30259323120117188 -3.07982659339904785 209.90431213378906256
v 38.64910888671875 -4.06218528747558594 185.26631164550781248
v 28.68552970886230472 -6.7281298637390136 209.90431213378906256
v 37.83522415161132816 -8.87417125701904304 185.26631164550781248
v 27.61607742309570312 -10.2703266143798828 209.90431213378906256
v 36.42465209960937504 -13.5462064743041992 185.26631164550781248
v 26.11110305786132812 -13.65055465698242184 209.90431213378906256
v 34.43964385986328128 -18.00461006164550781 185.26631164550781248
v 24.19433975219726564 -16.81550407409667968 209.90431213378906256
v 31.9115009307861328 -22.17907142639160156 185.26631164550781248
v 21.89601898193359376 -19.71526336669921872 209.90431213378906256
v 28.88009452819824224 -26.003753662109375 185.26631164550781248
v 19.25238418579101564 -22.30410194396972656 209.90431213378906256
v 25.39323234558105472 -29.41834259033203128 185.26631164550781248
v 16.30512809753417968 -24.54119110107421872 209.90431213378906256
v 21.50590324401855472 -32.36898422241210936 185.26631164550781248
v 13.10073089599609376 -26.39125061035156248 209.90431213378906256
v 17.27941322326660156 -34.80915069580078128 185.26631164550781248
v 9.68972682952880856 -27.82510566711425776 209.90431213378906256
v 12.78041553497314448 -36.70035552978515624 185.26631164550781248
v 6.12591028213500976 -28.82014083862304688 209.90431213378906256
v 8.079864501953125 -38.0127716064453125 185.26631164550781248
v 2.46548390388488768 -29.36066627502441408 209.90431213378906256
v 3.25188827514648436 -38.7257041931152344 185.26631164550781248
v -1.2338242530822754 -29.43815422058105472 209.90431213378906256
v -1.6273716688156128 -38.82791137695312496 185.26631164550781248
v -4.91367435455322272 -29.05138778686523438 209.90431213378906256
v -6.48096704483032224 -38.317779541015625 185.26631164550781248
v -8.51603317260742184 -28.20646095275878908 209.90431213378906256
v -11.23235416412353516 -37.20335006713867188 185.26631164550781248
v -11.98408889770507808 -26.91670417785644528 209.90431213378906256
v -15.80659961700439456 -35.50220489501953128 185.26631164550781248
v -15.26314735412597656 -25.2024517059326172 209.90431213378906256
v -20.13156509399414062 -33.24116516113281248 185.26631164550781248
v -18.30149841308593752 -23.0907440185546875 209.90431213378906256
v -24.13904571533203124 -30.45589447021484376 185.26631164550781248
v -21.0512237548828125 -20.61488151550292968 209.90431213378906256
v -27.76583671569824224 -27.19031715393066408 185.26631164550781248
v -23.46895790100097656 -17.81390762329101568 209.90431213378906256
v -30.95474624633789056 -23.49593162536621096 185.26631164550781248
v -25.51657295227050784 -14.73200035095214848 209.90431213378906256
v -33.65547943115234376 -19.43099975585937504 185.26631164550781248
v -27.16177558898925782 -11.41775894165039064 209.90431213378906256
v -35.8254470825195312 -15.05963039398193359 185.26631164550781248
v -28.37862205505371096 -7.92345380783081056 209.90431213378906256
v -37.4304237365722656 -10.45076179504394528 185.26631164550781248
v -29.14792060852050782 -4.30419015884399416 209.90431213378906256
v -38.44510269165039064 -5.67707872390747072 185.26631164550781248
v -29.45753860473632816 -0.61704748868942264 209.90431213378906256
v -38.85347747802734368 -0.81386435031890864 185.26631164550781248
v -29.30259323120117188 3.07982659339904785 209.90431213378906256
v -38.64910888671875 4.06218528747558594 185.26631164550781248
v -28.68552970886230472 6.7281298637390136 209.90431213378906256
v -37.83522415161132816 8.87417125701904304 185.26631164550781248
v -27.61607742309570312 10.2703266143798828 209.90431213378906256
v -36.42465209960937504 13.5462064743041992 185.26631164550781248
v -26.11110305786132812 13.65055465698242184 209.90431213378906256
v -34.43964385986328128 18.00461006164550781 185.26631164550781248
v -24.19433975219726564 16.81550407409667968 209.90431213378906256
v -31.9115009307861328 22.17907142639160156 185.26631164550781248
v -21.89601898193359376 19.71526336669921872 209.90431213378906256
v -28.88009452819824224 26.003753662109375 185.26631164550781248
v -19.25238418579101564 22.30410194396972656 209.90431213378906256
v -25.39323234558105472 29.41834259033203128 185.26631164550781248
v -16.30512809753417968 24.54119110107421872 209.90431213378906256
v -21.50590324401855472 32.36898422241210936 185.26631164550781248
v -13.10073089599609376 26.39125061035156248 209.90431213378906256
v -17.27941322326660156 34.80915069580078128 185.26631164550781248
v -9.68972682952880856 27.82510566711425776 209.90431213378906256
v -12.78041553497314448 36.70035552978515624 185.26631164550781248
v -6.12591028213500976 28.82014083862304688 209.90431213378906256
v -8.079864501953125 38.0127716064453125 185.26631164550781248
v -2.46548390388488768 29.36066627502441408 209.90431213378906256
v -3.25188827514648436 38.7257041931152344 185.26631164550781248
v 1.2338242530822754 29.43815422058105472 209.90431213378906256
v 1.6273716688156128 38.82791137695312496 185.26631164550781248
v 4.91367435455322272 29.05138778686523438 209.90431213378906256
v 6.48096704483032224 38.317779541015625 185.26631164550781248
v 8.51603317260742184 28.20646095275878908 209.90431213378906256
v 11.23235416412353516 37.20335006713867188 185.26631164550781248
v 11.98408889770507808 26.91670417785644528 209.90431213378906256
v 15.80659961700439456 35.50220489501953128 185.26631164550781248
v 15.26314735412597656 25.2024517059326172 209.90431213378906256
v 20.13156509399414062 33.24116516113281248 185.26631164550781248
v 18.30149841308593752 23.0907440185546875 209.90431213378906256
v 24.13904571533203124 30.45589447021484376 185.26631164550781248
v 21.0512237548828125 20.61488151550292968 209.90431213378906256
v 27.76583671569824224 27.19031715393066408 185.26631164550781248
v 23.46895790100097656 17.81390762329101568 209.90431213378906256
v 30.95474624633789056 23.49593162536621096 185.26631164550781248
v -18.49784851074218752 -6.73266649246215824 209.90431213378906256
v -19.38594055175781248 -3.41826438903808592 209.90431213378906256
v -19.6849994659423828 0 209.90431213378906256
v -6.73266649246215824 -18.49784851074218752 209.90431213378906256
v -9.84249973297119136 -17.04771041870117188 209.90431213378906256
v -18.49784851074218752 6.73266649246215824 209.90431213378906256
v -19.38594055175781248 3.41826438903808592 209.90431213378906256
v -12.65327453613281248 -15.07958507537841797 209.90431213378906256
v -3.41826438903808592 -19.38594055175781248 209.90431213378906256
v 3.41826438903808592 -19.38594055175781248 209.90431213378906256
v -17.04771041870117188 -9.84249973297119136 209.90431213378906256
v -15.07958507537841797 -12.65327453613281248 209.90431213378906256
v 0 -19.6849994659423828 209.90431213378906256
v 6.73266649246215824 -18.49784851074218752 209.90431213378906256
v 12.65327453613281248 -15.07958507537841797 209.90431213378906256
v 9.84249973297119136 -17.04771041870117188 209.90431213378906256
v 12.65327453613281248 15.07958507537841797 209.90431213378906256
v 6.73266649246215824 18.49784851074218752 209.90431213378906256
v 9.84249973297119136 17.04771041870117188 209.90431213378906256
v 15.07958507537841797 -12.65327453613281248 209.90431213378906256
v 17.04771041870117188 -9.84249973297119136 209.90431213378906256
v 19.6849994659423828 0 209.90431213378906256
v 18.49784851074218752 6.73266649246215824 209.90431213378906256
v 19.38594055175781248 3.41826438903808592 209.90431213378906256
v 17.04771041870117188 9.84249973297119136 209.90431213378906256
v 15.07958507537841797 12.65327453613281248 209.90431213378906256
v 3.41826438903808592 19.38594055175781248 209.90431213378906256
v -17.04771041870117188 9.84249973297119136 209.90431213378906256
v -15.07958507537841797 12.65327453613281248 209.90431213378906256
v 18.49784851074218752 -6.73266649246215824 209.90431213378906256
v 19.38594055175781248 -3.41826438903808592 209.90431213378906256
v 0 19.6849994659423828 209.90431213378906256
v -3.41826438903808592 19.38594055175781248 209.90431213378906256
v -12.65327453613281248 15.07958507537841797 209.90431213378906256
v -6.73266649246215824 18.49784851074218752 209.90431213378906256
v -9.84249973297119136 17.04771041870117188 209.90431213378906256
v 17.04771041870117188 9.84249973297119136 204.31629943847656248
v 18.49784851074218752 6.73266649246215824 204.31629943847656248
v 19.38594055175781248 3.41826438903808592 204.31629943847656248
v 19.6849994659423828 0 204.31629943847656248
v 19.38594055175781248 -3.41826438903808592 204.31629943847656248
v 18.49784851074218752 -6.73266649246215824 204.31629943847656248
v 17.04771041870117188 -9.84249973297119136 204.31629943847656248
v 15.07958507537841797 -12.65327453613281248 204.31629943847656248
v 12.65327453613281248 -15.07958507537841797 204.31629943847656248
v 9.84249973297119136 -17.04771041870117188 204.31629943847656248
v 6.73266649246215824 -18.49784851074218752 204.31629943847656248
v 3.41826438903808592 -19.38594055175781248 204.31629943847656248
v 0 -19.6849994659423828 204.31629943847656248
v -3.41826438903808592 -19.38594055175781248 204.31629943847656248
v -6.73266649246215824 -18.49784851074218752 204.31629943847656248
v -9.84249973297119136 -17.04771041870117188 204.31629943847656248
v -12.65327453613281248 -15.07958507537841797 204.31629943847656248
v -15.07958507537841797 -12.65327453613281248 204.31629943847656248
v -17.04771041870117188 -9.84249973297119136 204.31629943847656248
v -18.49784851074218752 -6.73266649246215824 204.31629943847656248
v -19.38594055175781248 -3.41826438903808592 204.31629943847656248
v -19.6849994659423828 0 204.31629943847656248
v -19.38594055175781248 3.41826438903808592 204.31629943847656248
v -18.49784851074218752 6.73266649246215824 204.31629943847656248
v -17.04771041870117188 9.84249973297119136 204.31629943847656248
v -15.07958507537841797 12.65327453613281248 204.31629943847656248
v -12.65327453613281248 15.07958507537841797 204.31629943847656248
v -9.84249973297119136 17.04771041870117188 204.31629943847656248
v -6.73266649246215824 18.49784851074218752 204.31629943847656248
v -3.41826438903808592 19.38594055175781248 204.31629943847656248
v 0 19.6849994659423828 204.31629943847656248
v 3.41826438903808592 19.38594055175781248 204.31629943847656248
v 6.73266649246215824 18.49784851074218752 204.31629943847656248
v 9.84249973297119136 17.04771041870117188 204.31629943847656248
v 12.65327453613281248 15.07958507537841797 204.31629943847656248
v 15.07958507537841797 12.65327453613281248 204.31629943847656248
v -28.06084823608398438 -11.23386955261230468 185.26631164550781248
v -26.176483154296875 -15.11299991607666016 185.26631164550781248
v -29.37397575378417968 -7.12604951858520508 185.26631164550781248
v -30.19176483154296876 1.43821096420288088 185.26631164550781248
v -30.08913421630859375 -2.87316393852233888 185.26631164550781248
v -29.67977714538574216 5.72030830383300784 185.26631164550781248
v -28.5635948181152344 9.88595581054687504 185.26631164550781248
v -26.86594009399414064 13.85035514831542976 185.26631164550781248
v -24.62137222290039064 17.53280067443847656 185.26631164550781248
v 28.06084823608398438 11.23386955261230468 185.26631164550781248
v 26.176483154296875 15.11299991607666016 185.26631164550781248
v 29.37397575378417968 7.12604951858520508 185.26631164550781248
v -21.87558555603027344 20.85832786560058592 185.26631164550781248
v -18.68447303771972656 23.75924110412597664 185.26631164550781248
v 17.53280067443847656 24.62137222290039064 185.26631164550781248
v -5.72030830383300784 -29.67977714538574216 185.26631164550781248
v -1.43821096420288088 -30.19176483154296876 185.26631164550781248
v -9.88595581054687504 -28.5635948181152344 185.26631164550781248
v 13.85035514831542976 26.86594009399414064 185.26631164550781248
v 9.88595581054687504 28.5635948181152344 185.26631164550781248
v 20.85832786560058592 21.87558555603027344 185.26631164550781248
v 23.75924110412597664 18.68447303771972656 185.26631164550781248
v 30.08913421630859375 2.87316393852233888 185.26631164550781248
v 30.19176483154296876 -1.43821096420288088 185.26631164550781248
v 2.87316393852233888 -30.08913421630859375 185.26631164550781248
v -13.85035514831542976 -26.86594009399414064 185.26631164550781248
v -17.53280067443847656 -24.62137222290039064 185.26631164550781248
v -20.85832786560058592 -21.87558555603027344 185.26631164550781248
v -23.75924110412597664 -18.68447303771972656 185.26631164550781248
v -11.23386955261230468 28.06084823608398438 185.26631164550781248
v 5.72030830383300784 29.67977714538574216 185.26631164550781248
v 1.43821096420288088 30.19176483154296876 185.26631164550781248
v -15.11299991607666016 26.176483154296875 185.26631164550781248
v -7.12604951858520508 29.37397575378417968 185.26631164550781248
v 29.67977714538574216 -5.72030830383300784 185.26631164550781248
v 28.5635948181152344 -9.88595581054687504 185.26631164550781248
v 26.86594009399414064 -13.85035514831542976 185.26631164550781248
v 15.11299991607666016 -26.176483154296875 185.26631164550781248
v 18.68447303771972656 -23.75924110412597664 185.26631164550781248
v 11.23386955261230468 -28.06084823608398438 185.26631164550781248
v 7.12604951858520508 -29.37397575378417968 185.26631164550781248
v -2.87316393852233888 30.08913421630859375 185.26631164550781248
v 24.62137222290039064 -17.53280067443847656 185.26631164550781248
v 21.87558555603027344 -20.85832786560058592 185.26631164550781248
v 2.87316393852233888 -30.08913421630859375 204.31629943847656248
v -1.43821096420288088 -30.19176483154296876 204.31629943847656248
v 7.12604951858520508 -29.37397575378417968 204.31629943847656248
v -5.72030830383300784 -29.67977714538574216 204.31629943847656248
v -9.88595581054687504 -28.5635948181152344 204.31629943847656248
v -13.85035514831542976 -26.86594009399414064 204.31629943847656248
v -17.53280067443847656 -24.62137222290039064 204.31629943847656248
v -24.62137222290039064 17.53280067443847656 204.31629943847656248
v 17.53280067443847656 24.62137222290039064 204.31629943847656248
v -20.85832786560058592 -21.87558555603027344 204.31629943847656248
v -23.75924110412597664 -18.68447303771972656 204.31629943847656248
v -26.176483154296875 -15.11299991607666016 204.31629943847656248
v -30.08913421630859375 -2.87316393852233888 204.31629943847656248
v -30.19176483154296876 1.43821096420288088 204.31629943847656248
v -26.86594009399414064 13.85035514831542976 204.31629943847656248
v -21.87558555603027344 20.85832786560058592 204.31629943847656248
v -18.68447303771972656 23.75924110412597664 204.31629943847656248
v 13.85035514831542976 26.86594009399414064 204.31629943847656248
v 20.85832786560058592 21.87558555603027344 204.31629943847656248
v 23.75924110412597664 18.68447303771972656 204.31629943847656248
v 30.08913421630859375 2.87316393852233888 204.31629943847656248
v 30.19176483154296876 -1.43821096420288088 204.31629943847656248
v -29.37397575378417968 -7.12604951858520508 204.31629943847656248
v -15.11299991607666016 26.176483154296875 204.31629943847656248
v -2.87316393852233888 30.08913421630859375 204.31629943847656248
v 1.43821096420288088 30.19176483154296876 204.31629943847656248
v 5.72030830383300784 29.67977714538574216 204.31629943847656248
v 9.88595581054687504 28.5635948181152344 204.31629943847656248
v 26.176483154296875 15.11299991607666016 204.31629943847656248
v 29.37397575378417968 7.12604951858520508 204.31629943847656248
v 29.67977714538574216 -5.72030830383300784 204.31629943847656248
v 28.5635948181152344 -9.88595581054687504 204.31629943847656248
v 24.62137222290039064 -17.53280067443847656 204.31629943847656248
v -28.06084823608398438 -11.23386955261230468 204.31629943847656248
v -29.67977714538574216 5.72030830383300784 204.31629943847656248
v -11.23386955261230468 28.06084823608398438 204.31629943847656248
v -7.12604951858520508 29.37397575378417968 204.31629943847656248
v 28.06084823608398438 11.23386955261230468 204.31629943847656248
v 26.86594009399414064 -13.85035514831542976 204.31629943847656248
v -28.5635948181152344 9.88595581054687504 204.31629943847656248
v 21.87558555603027344 -20.85832786560058592 204.31629943847656248
v 18.68447303771972656 -23.75924110412597664 204.31629943847656248
v 15.11299991607666016 -26.176483154296875 204.31629943847656248
v 11.23386955261230468 -28.06084823608398438 204.31629943847656248
# 260 vertices

vn 0.83710455894470208 0.41554230451583864 0.3557816743850708
vn 0.88258498907089232 0.30734860897064208 0.3557816743850708
vn 0.91414654254913328 0.1943078339099884 0.3557816743850708
vn 0.93129146099090576 0.07820272445678711 0.3557816743850708
vn 0.93374931812286384 -0.03913569077849388 0.3557816743850708
vn 0.92148143053054816 -0.1558569222688675 0.3557816743850708
vn 0.89468121528625488 -0.27012017369270324 0.3557816743850708
vn 0.8537713289260864 -0.38012349605560304 0.3557816743850708
vn 0.79939699172973632 -0.48413202166557312 0.3557816743850708
vn 0.73241567611694336 -0.58050554990768432 0.3557816743850708
vn 0.65388375520706176 -0.66772407293319704 0.3557816743850708
vn 0.56503963470458984 -0.74441224336624144 0.3557816743850708
vn 0.46728456020355224 -0.80936056375503536 0.3557816743850708
vn 0.36216008663177488 -0.86154478788375856 0.3557816743850708
vn 0.25132414698600768 -0.90014195442199712 0.3557816743850708
vn 0.13652467727661132 -0.92454338073730464 0.3557816743850708
vn 0.01957213878631591 -0.93436414003372192 0.3557816743850708
vn -0.09768906980752944 -0.92944943904876704 0.3557816743850708
vn -0.21340966224670412 -0.90987676382064816 0.3557816743850708
vn -0.32576465606689452 -0.87595480680465696 0.3557816743850708
vn -0.43298214673995968 -0.82821846008300784 0.3557816743850708
vn -0.53337126970291136 -0.76742064952850336 0.3557816743850708
vn -0.6253488063812256 -0.69452017545700072 0.3557816743850708
vn -0.70746415853500368 -0.61066669225692752 0.3557816743850708
vn -0.77842247486114496 -0.51718264818191528 0.3557816743850708
vn -0.83710455894470208 -0.41554230451583864 0.3557816743850708
vn -0.88258498907089232 -0.30734860897064208 0.3557816743850708
vn -0.91414654254913328 -0.1943078339099884 0.3557816743850708
vn -0.93129146099090576 -0.07820272445678711 0.3557816743850708
vn -0.93374931812286384 0.03913569077849388 0.3557816743850708
vn -0.92148143053054816 0.1558569222688675 0.3557816743850708
vn -0.89468121528625488 0.27012017369270324 0.3557816743850708
vn -0.8537713289260864 0.38012349605560304 0.3557816743850708
vn -0.79939699172973632 0.48413202166557312 0.3557816743850708
vn -0.73241567611694336 0.58050554990768432 0.3557816743850708
vn -0.65388375520706176 0.66772407293319704 0.3557816743850708
vn -0.56503963470458984 0.74441224336624144 0.3557816743850708
vn -0.46728456020355224 0.80936056375503536 0.3557816743850708
vn -0.36216008663177488 0.86154478788375856 0.3557816743850708
vn -0.25132414698600768 0.90014195442199712 0.3557816743850708
vn -0.13652467727661132 0.92454338073730464 0.3557816743850708
vn -0.01957213878631591 0.93436414003372192 0.3557816743850708
vn 0.09768906980752944 0.92944943904876704 0.3557816743850708
vn 0.21340966224670412 0.90987676382064816 0.3557816743850708
vn 0.32576465606689452 0.87595480680465696 0.3557816743850708
vn 0.43298214673995968 0.82821846008300784 0.3557816743850708
vn 0.53337126970291136 0.76742064952850336 0.3557816743850708
vn 0.6253488063812256 0.69452017545700072 0.3557816743850708
vn 0.70746415853500368 0.61066669225692752 0.3557816743850708
vn 0.77842247486114496 0.51718264818191528 0.3557816743850708
vn 0 0 1
vn -0.90630781650543216 -0.42261826992034912 0
vn -0.96592581272125248 -0.25881904363632204 0
vn -0.99619472026824944 -0.08715574443340302 0
vn -0.99619472026824944 0.08715574443340302 0
vn -0.96592581272125248 0.25881904363632204 0
vn -0.90630781650543216 0.42261826992034912 0
vn -0.81915205717086784 0.5735764503479004 0
vn -0.7071067690849304 0.7071067690849304 0
vn -0.5735764503479004 0.81915205717086784 0
vn -0.42261826992034912 0.90630781650543216 0
vn -0.25881904363632204 0.96592581272125248 0
vn -0.08715574443340302 0.99619472026824944 0
vn 0.08715574443340302 0.99619472026824944 0
vn 0.25881904363632204 0.96592581272125248 0
vn 0.42261826992034912 0.90630781650543216 0
vn 0.5735764503479004 0.81915205717086784 0
vn 0.7071067690849304 0.7071067690849304 0
vn 0.81915205717086784 0.5735764503479004 0
vn 0.90630781650543216 0.42261826992034912 0
vn 0.96592581272125248 0.25881904363632204 0
vn 0.99619472026824944 0.08715574443340302 0
vn 0.99619472026824944 -0.08715574443340302 0
vn 0.96592581272125248 -0.25881904363632204 0
vn 0.90630781650543216 -0.42261826992034912 0
vn 0.81915205717086784 -0.5735764503479004 0
vn 0.7071067690849304 -0.7071067690849304 0
vn 0.5735764503479004 -0.81915205717086784 0
vn 0.42261826992034912 -0.90630781650543216 0
vn 0.25881904363632204 -0.96592581272125248 0
vn 0.08715574443340302 -0.99619472026824944 0
vn -0.08715574443340302 -0.99619472026824944 0
vn -0.25881904363632204 -0.96592581272125248 0
vn -0.42261826992034912 -0.90630781650543216 0
vn -0.5735764503479004 -0.81915205717086784 0
vn -0.7071067690849304 -0.7071067690849304 0
vn -0.81915205717086784 -0.5735764503479004 0
vn 0 0 -1
vn -0.89948844909667968 -0.43694451451301576 0
vn -0.9525166749954224 -0.304486483335495 0
vn -0.98615437746047968 -0.16583000123500824 0
vn -0.99971681833267216 -0.02379769831895828 0
vn -0.99292790889739984 0.11871906369924546 0
vn -0.91926032304763792 0.39365020394325256 0
vn -0.85388129949569696 0.52046781778335568 0
vn -0.77111971378326416 0.63669019937515256 0
vn -0.67266035079956056 0.7399513721466064 0
vn -0.56050759553909304 0.82814925909042352 0
vn -0.43694451451301576 0.89948844909667968 0
vn -0.304486483335495 0.9525166749954224 0
vn -0.16583000123500824 0.98615437746047968 0
vn -0.02379769831895828 0.99971681833267216 0
vn 0.11871906369924546 0.99292790889739984 0
vn 0.39365020394325256 0.91926032304763792 0
vn 0.52046781778335568 0.85388129949569696 0
vn 0.63669019937515256 0.77111971378326416 0
vn 0.7399513721466064 0.67266035079956056 0
vn 0.82814925909042352 0.56050759553909304 0
vn 0.89948844909667968 0.43694451451301576 0
vn 0.9525166749954224 0.304486483335495 0
vn 0.98615437746047968 0.16583000123500824 0
vn 0.99971681833267216 0.02379769831895828 0
vn 0.99292790889739984 -0.11871906369924546 0
vn 0.91926032304763792 -0.39365020394325256 0
vn 0.85388129949569696 -0.52046781778335568 0
vn 0.77111971378326416 -0.63669019937515256 0
vn 0.67266035079956056 -0.7399513721466064 0
vn 0.56050759553909304 -0.82814925909042352 0
vn 0.43694451451301576 -0.89948844909667968 0
vn 0.304486483335495 -0.9525166749954224 0
vn 0.16583000123500824 -0.98615437746047968 0
vn 0.02379769831895828 -0.99971681833267216 0
vn -0.11871906369924546 -0.99292790889739984 0
vn -0.39365020394325256 -0.91926032304763792 0
vn -0.52046781778335568 -0.85388129949569696 0
vn -0.63669019937515256 -0.77111971378326416 0
vn -0.7399513721466064 -0.67266035079956056 0
vn -0.82814925909042352 -0.56050759553909304 0
# 128 vertex normals

g obj_23547699
s 1
f 1//1 2//1 3//1
f 4//2 3//2 5//2
f 6//3 5//3 7//3
f 8//4 7//4 9//4
f 10//5 9//5 11//5
f 12//6 11//6 13//6
f 14//7 13//7 15//7
f 16//8 15//8 17//8
f 18//9 17//9 19//9
f 20//10 19//10 21//10
f 22//11 21//11 23//11
f 24//12 23//12 25//12
f 26//13 25//13 27//13
f 28//14 27//14 29//14
f 30//15 29//15 31//15
f 32//16 31//16 33//16
f 34//17 33//17 35//17
f 36//18 35//18 37//18
f 38//19 37//19 39//19
f 40//20 39//20 41//20
f 42//21 41//21 43//21
f 44//22 43//22 45//22
f 46//23 45//23 47//23
f 48//24 47//24 49//24
f 50//25 49//25 51//25
f 51//25 52//25 50//25
f 49//24 50//24 48//24
f 47//23 48//23 46//23
f 45//22 46//22 44//22
f 43//21 44//21 42//21
f 41//20 42//20 40//20
f 39//19 40//19 38//19
f 37//18 38//18 36//18
f 35//17 36//17 34//17
f 33//16 34//16 32//16
f 31//15 32//15 30//15
f 29//14 30//14 28//14
f 27//13 28//13 26//13
f 25//12 26//12 24//12
f 23//11 24//11 22//11
f 21//10 22//10 20//10
f 19//9 20//9 18//9
f 17//8 18//8 16//8
f 15//7 16//7 14//7
f 13//6 14//6 12//6
f 11//5 12//5 10//5
f 9//4 10//4 8//4
f 7//3 8//3 6//3
f 5//2 6//2 4//2
f 3//1 4//1 1//1
f 52//26 51//26 53//26
f 54//27 53//27 55//27
f 56//28 55//28 57//28
f 58//29 57//29 59//29
f 60//30 59//30 61//30
f 62//31 61//31 63//31
f 64//32 63//32 65//32
f 66//33 65//33 67//33
f 68//34 67//34 69//34
f 70//35 69//35 71//35
f 72//36 71//36 73//36
f 74//37 73//37 75//37
f 76//38 75//38 77//38
f 78//39 77//39 79//39
f 80//40 79//40 81//40
f 82//41 81//41 83//41
f 84//42 83//42 85//42
f 86//43 85//43 87//43
f 88//44 87//44 89//44
f 90//45 89//45 91//45
f 92//46 91//46 93//46
f 94//47 93//47 95//47
f 96//48 95//48 97//48
f 98//49 97//49 99//49
f 100//50 99//50 2//50
f 2//50 1//50 100//50
f 99//49 100//49 98//49
f 97//48 98//48 96//48
f 95//47 96//47 94//47
f 93//46 94//46 92//46
f 91//45 92//45 90//45
f 89//44 90//44 88//44
f 87//43 88//43 86//43
f 85//42 86//42 84//42
f 83//41 84//41 82//41
f 81//40 82//40 80//40
f 79//39 80//39 78//39
f 77//38 78//38 76//38
f 75//37 76//37 74//37
f 73//36 74//36 72//36
f 71//35 72//35 70//35
f 69//34 70//34 68//34
f 67//33 68//33 66//33
f 65//32 66//32 64//32
f 63//31 64//31 62//31
f 61//30 62//30 60//30
f 59//29 60//29 58//29
f 57//28 58//28 56//28
f 55//27 56//27 54//27
f 53//26 54//26 52//26
f 55//51 101//51 102//51
f 61//51 59//51 103//51
f 57//51 102//51 103//51
f 102//51 57//51 55//51
f 41//51 104//51 105//51
f 67//51 65//51 106//51
f 63//51 107//51 106//51
f 107//51 63//51 61//51
f 55//51 53//51 101//51
f 45//51 43//51 105//51
f 105//51 43//51 41//51
f 106//51 65//51 63//51
f 103//51 59//51 57//51
f 47//51 45//51 108//51
f 41//51 39//51 104//51
f 39//51 37//51 109//51
f 33//51 31//51 110//51
f 103//51 107//51 61//51
f 53//51 51//51 111//51
f 49//51 112//51 111//51
f 112//51 49//51 47//51
f 109//51 104//51 39//51
f 35//51 113//51 109//51
f 113//51 35//51 33//51
f 31//51 29//51 114//51
f 25//51 23//51 115//51
f 111//51 101//51 53//51
f 108//51 112//51 47//51
f 109//51 37//51 35//51
f 114//51 110//51 31//51
f 27//51 116//51 114//51
f 116//51 27//51 25//51
f 97//51 95//51 117//51
f 91//51 118//51 119//51
f 111//51 51//51 49//51
f 110//51 113//51 33//51
f 115//51 116//51 25//51
f 21//51 120//51 115//51
f 19//51 121//51 120//51
f 11//51 9//51 122//51
f 5//51 123//51 124//51
f 3//51 2//51 125//51
f 99//51 126//51 125//51
f 126//51 99//51 97//51
f 95//51 93//51 119//51
f 119//51 93//51 91//51
f 89//51 87//51 127//51
f 69//51 128//51 129//51
f 105//51 108//51 45//51
f 115//51 23//51 21//51
f 120//51 21//51 19//51
f 17//51 15//51 130//51
f 13//51 131//51 130//51
f 131//51 13//51 11//51
f 7//51 124//51 122//51
f 124//51 7//51 5//51
f 125//51 2//51 99//51
f 119//51 117//51 95//51
f 127//51 118//51 89//51
f 85//51 132//51 127//51
f 83//51 81//51 133//51
f 71//51 129//51 134//51
f 129//51 71//51 69//51
f 114//51 29//51 27//51
f 130//51 121//51 17//51
f 122//51 131//51 11//51
f 5//51 3//51 123//51
f 117//51 126//51 97//51
f 127//51 87//51 85//51
f 132//51 85//51 83//51
f 81//51 79//51 135//51
f 75//51 73//51 134//51
f 69//51 67//51 128//51
f 19//51 17//51 121//51
f 122//51 9//51 7//51
f 91//51 89//51 118//51
f 135//51 133//51 81//51
f 77//51 136//51 135//51
f 134//51 73//51 71//51
f 130//51 15//51 13//51
f 133//51 132//51 83//51
f 135//51 79//51 77//51
f 106//51 128//51 67//51
f 77//51 75//51 136//51
f 125//51 123//51 3//51
f 134//51 136//51 75//51
f 123//52 125//52 137//52
f 124//53 123//53 138//53
f 122//54 124//54 139//54
f 131//55 122//55 140//55
f 130//56 131//56 141//56
f 121//57 130//57 142//57
f 120//58 121//58 143//58
f 115//59 120//59 144//59
f 116//60 115//60 145//60
f 114//61 116//61 146//61
f 110//62 114//62 147//62
f 113//63 110//63 148//63
f 109//64 113//64 149//64
f 104//65 109//65 150//65
f 105//66 104//66 151//66
f 108//67 105//67 152//67
f 112//68 108//68 153//68
f 111//69 112//69 154//69
f 154//69 155//69 111//69
f 153//68 154//68 112//68
f 152//67 153//67 108//67
f 151//66 152//66 105//66
f 150//65 151//65 104//65
f 149//64 150//64 109//64
f 148//63 149//63 113//63
f 147//62 148//62 110//62
f 146//61 147//61 114//61
f 145//60 146//60 116//60
f 144//59 145//59 115//59
f 143//58 144//58 120//58
f 142//57 143//57 121//57
f 141//56 142//56 130//56
f 140//55 141//55 131//55
f 139//54 140//54 122//54
f 138//53 139//53 124//53
f 137//52 138//52 123//52
f 101//70 111//70 155//70
f 102//71 101//71 156//71
f 103//72 102//72 157//72
f 107//73 103//73 158//73
f 106//74 107//74 159//74
f 128//75 106//75 160//75
f 129//76 128//76 161//76
f 134//77 129//77 162//77
f 136//78 134//78 163//78
f 135//79 136//79 164//79
f 133//80 135//80 165//80
f 132//81 133//81 166//81
f 127//82 132//82 167//82
f 118//83 127//83 168//83
f 119//84 118//84 169//84
f 117//85 119//85 170//85
f 126//86 117//86 171//86
f 125//87 126//87 172//87
f 172//87 137//87 125//87
f 171//86 172//86 126//86
f 170//85 171//85 117//85
f 169//84 170//84 119//84
f 168//83 169//83 118//83
f 167//82 168//82 127//82
f 166//81 167//81 132//81
f 165//80 166//80 133//80
f 164//79 165//79 135//79
f 163//78 164//78 136//78
f 162//77 163//77 134//77
f 161//76 162//76 129//76
f 160//75 161//75 128//75
f 159//74 160//74 106//74
f 158//73 159//73 107//73
f 157//72 158//72 103//72
f 156//71 157//71 102//71
f 155//70 156//70 101//70
f 54//88 173//88 174//88
f 56//88 175//88 173//88
f 60//88 176//88 177//88
f 62//88 64//88 178//88
f 64//88 66//88 179//88
f 66//88 68//88 180//88
f 70//88 181//88 180//88
f 4//88 182//88 183//88
f 6//88 184//88 182//88
f 50//88 52//88 174//88
f 173//88 54//88 56//88
f 58//88 177//88 175//88
f 177//88 58//88 60//88
f 179//88 178//88 64//88
f 180//88 68//88 70//88
f 72//88 185//88 181//88
f 74//88 186//88 185//88
f 94//88 96//88 187//88
f 100//88 1//88 183//88
f 182//88 4//88 6//88
f 38//88 188//88 189//88
f 40//88 190//88 188//88
f 174//88 52//88 54//88
f 60//88 62//88 176//88
f 180//88 179//88 66//88
f 185//88 72//88 74//88
f 92//88 191//88 192//88
f 191//88 92//88 94//88
f 96//88 98//88 193//88
f 98//88 100//88 194//88
f 183//88 1//88 4//88
f 8//88 195//88 184//88
f 10//88 196//88 195//88
f 32//88 34//88 197//88
f 34//88 36//88 189//88
f 188//88 38//88 40//88
f 42//88 198//88 190//88
f 44//88 46//88 199//88
f 46//88 48//88 200//88
f 48//88 50//88 201//88
f 175//88 56//88 58//88
f 181//88 70//88 72//88
f 78//88 80//88 202//88
f 88//88 203//88 204//88
f 90//88 192//88 203//88
f 187//88 191//88 94//88
f 194//88 193//88 98//88
f 184//88 6//88 8//88
f 195//88 8//88 10//88
f 189//88 197//88 34//88
f 190//88 40//88 42//88
f 198//88 42//88 44//88
f 201//88 200//88 48//88
f 178//88 176//88 62//88
f 76//88 205//88 186//88
f 205//88 76//88 78//88
f 80//88 82//88 206//88
f 203//88 88//88 90//88
f 193//88 187//88 96//88
f 10//88 12//88 196//88
f 12//88 14//88 207//88
f 14//88 16//88 208//88
f 16//88 18//88 209//88
f 26//88 210//88 211//88
f 28//88 30//88 212//88
f 30//88 32//88 213//88
f 189//88 36//88 38//88
f 200//88 199//88 46//88
f 186//88 74//88 76//88
f 206//88 202//88 80//88
f 82//88 84//88 214//88
f 84//88 86//88 204//88
f 192//88 90//88 92//88
f 207//88 196//88 12//88
f 209//88 208//88 16//88
f 20//88 215//88 209//88
f 24//88 211//88 216//88
f 211//88 24//88 26//88
f 213//88 212//88 30//88
f 199//88 198//88 44//88
f 202//88 205//88 78//88
f 204//88 214//88 84//88
f 183//88 194//88 100//88
f 209//88 18//88 20//88
f 22//88 216//88 215//88
f 26//88 28//88 210//88
f 197//88 213//88 32//88
f 214//88 206//88 82//88
f 208//88 207//88 14//88
f 216//88 22//88 24//88
f 174//88 201//88 50//88
f 215//88 20//88 22//88
f 204//88 86//88 88//88
f 212//88 210//88 28//88
f 217//88 218//88 149//88
f 219//88 148//88 147//88
f 148//88 219//88 217//88
f 149//88 148//88 217//88
f 218//88 220//88 150//88
f 150//88 149//88 218//88
f 220//88 221//88 151//88
f 151//88 150//88 220//88
f 222//88 152//88 151//88
f 223//88 153//88 152//88
f 224//88 162//88 161//88
f 225//88 171//88 170//88
f 151//88 221//88 222//88
f 152//88 222//88 223//88
f 226//88 227//88 154//88
f 227//88 228//88 155//88
f 229//88 230//88 158//88
f 161//88 231//88 224//88
f 232//88 233//88 163//88
f 170//88 234//88 225//88
f 235//88 236//88 172//88
f 237//88 238//88 140//88
f 223//88 226//88 153//88
f 155//88 154//88 227//88
f 239//88 157//88 156//88
f 157//88 239//88 229//88
f 163//88 162//88 232//88
f 233//88 240//88 164//88
f 241//88 242//88 167//88
f 242//88 243//88 168//88
f 244//88 169//88 168//88
f 172//88 171//88 235//88
f 236//88 245//88 137//88
f 246//88 139//88 138//88
f 139//88 246//88 237//88
f 238//88 247//88 141//88
f 247//88 248//88 142//88
f 249//88 144//88 143//88
f 154//88 153//88 226//88
f 250//88 156//88 155//88
f 158//88 157//88 229//88
f 230//88 251//88 159//88
f 164//88 163//88 233//88
f 252//88 165//88 164//88
f 253//88 166//88 165//88
f 166//88 253//88 241//88
f 168//88 243//88 244//88
f 234//88 170//88 169//88
f 137//88 172//88 236//88
f 254//88 138//88 137//88
f 140//88 139//88 237//88
f 142//88 141//88 247//88
f 255//88 143//88 142//88
f 143//88 255//88 249//88
f 155//88 228//88 250//88
f 159//88 158//88 230//88
f 251//88 256//88 160//88
f 231//88 161//88 160//88
f 164//88 240//88 252//88
f 167//88 166//88 241//88
f 169//88 244//88 234//88
f 137//88 245//88 254//88
f 141//88 140//88 238//88
f 249//88 257//88 144//88
f 257//88 258//88 145//88
f 258//88 259//88 146//88
f 156//88 250//88 239//88
f 160//88 256//88 231//88
f 165//88 252//88 253//88
f 225//88 235//88 171//88
f 142//88 248//88 255//88
f 146//88 145//88 258//88
f 260//88 147//88 146//88
f 160//88 159//88 251//88
f 168//88 167//88 242//88
f 145//88 144//88 257//88
f 147//88 260//88 219//88
f 138//88 254//88 246//88
f 224//88 232//88 162//88
f 146//88 259//88 260//88
f 254//89 245//89 183//89
f 246//90 254//90 182//90
f 237//91 246//91 184//91
f 238//92 237//92 195//92
f 247//93 238//93 196//93
f 248//56 247//56 207//56
f 255//94 248//94 208//94
f 249//95 255//95 209//95
f 257//96 249//96 215//96
f 258//97 257//97 216//97
f 259//98 258//98 211//98
f 260//99 259//99 210//99
f 219//100 260//100 212//100
f 217//101 219//101 213//101
f 218//102 217//102 197//102
f 220//103 218//103 189//103
f 221//65 220//65 188//65
f 222//104 221//104 190//104
f 223//105 222//105 198//105
f 226//106 223//106 199//106
f 227//107 226//107 200//107
f 228//108 227//108 201//108
f 201//108 174//108 228//108
f 200//107 201//107 227//107
f 199//106 200//106 226//106
f 198//105 199//105 223//105
f 190//104 198//104 222//104
f 188//65 190//65 221//65
f 189//103 188//103 220//103
f 197//102 189//102 218//102
f 213//101 197//101 217//101
f 212//100 213//100 219//100
f 210//99 212//99 260//99
f 211//98 210//98 259//98
f 216//97 211//97 258//97
f 215//96 216//96 257//96
f 209//95 215//95 249//95
f 208//94 209//94 255//94
f 207//56 208//56 248//56
f 196//93 207//93 247//93
f 195//92 196//92 238//92
f 184//91 195//91 237//91
f 182//90 184//90 246//90
f 183//89 182//89 254//89
f 250//109 228//109 174//109
f 239//110 250//110 173//110
f 229//111 239//111 175//111
f 230//112 229//112 177//112
f 251//113 230//113 176//113
f 256//74 251//74 178//74
f 231//114 256//114 179//114
f 224//115 231//115 180//115
f 232//116 224//116 181//116
f 233//117 232//117 185//117
f 240//118 233//118 186//118
f 252//119 240//119 205//119
f 253//120 252//120 202//120
f 241//121 253//121 206//121
f 242//122 241//122 214//122
f 243//123 242//123 204//123
f 244//83 243//83 203//83
f 234//124 244//124 192//124
f 225//125 234//125 191//125
f 235//126 225//126 187//126
f 236//127 235//127 193//127
f 245//128 236//128 194//128
f 194//128 183//128 245//128
f 193//127 194//127 236//127
f 187//126 193//126 235//126
f 191//125 187//125 225//125
f 192//124 191//124 234//124
f 203//83 192//83 244//83
f 204//123 203//123 243//123
f 214//122 204//122 242//122
f 206//121 214//121 241//121
f 202//120 206//120 253//120
f 205//119 202//119 252//119
f 186//118 205//118 240//118
f 185//117 186//117 233//117
f 181//116 185//116 232//116
f 180//115 181//115 224//115
f 179//114 180//114 231//114
f 178//74 179//74 256//74
f 176//113 178//113 251//113
f 177//112 176//112 230//112
f 175//111 177//111 229//111
f 173//110 175//110 239//110
f 174//109 173//109 250//109
#520 polygons

