# Aspose.3D Wavefront OBJ Exporter
# Copyright 2004-2023 Aspose Pty Ltd.
# File created: 06/29/2023 04:30:32


#
# object obj_43907925
#

v 16.99530601501464848 76.95491790771484368 47.77181243896484368
v 17.1421356201171875 76.027862548828125 47.77181243896484368
v 17.1421356201171875 76.027862548828125 72.77181243896484368
v 16.56918716430664064 77.79122161865234368 47.77181243896484368
v 16.99530601501464848 76.95491790771484368 72.77181243896484368
v 15.90549182891845696 78.45491790771484376 47.77181243896484368
v 16.56918716430664064 77.79122161865234368 72.77181243896484368
v 15.06918621063232422 78.88103485107421872 47.77181243896484368
v 15.90549182891845696 78.45491790771484376 72.77181243896484368
v 14.1421356201171875 79.027862548828125 47.77181243896484368
v 15.06918621063232422 78.88103485107421872 72.77181243896484368
v 13.2150850296020508 78.88103485107421872 47.77181243896484368
v 14.1421356201171875 79.027862548828125 72.77181243896484368
v 12.378779411315918 78.45491790771484376 47.77181243896484368
v 13.2150850296020508 78.88103485107421872 72.77181243896484368
v 11.7150850296020508 77.79122161865234368 47.77181243896484368
v 12.378779411315918 78.45491790771484376 72.77181243896484368
v 11.28896617889404296 76.95491790771484368 47.77181243896484368
v 11.7150850296020508 77.79122161865234368 72.77181243896484368
v 11.1421356201171875 76.027862548828125 47.77181243896484368
v 11.28896617889404296 76.95491790771484368 72.77181243896484368
v 11.28896617889404296 75.1008148193359375 47.77181243896484368
v 11.1421356201171875 76.027862548828125 72.77181243896484368
v 11.7150850296020508 74.26451110839843752 47.77181243896484368
v 11.28896617889404296 75.1008148193359375 72.77181243896484368
v 12.378779411315918 73.60081481933593752 47.77181243896484368
v 11.7150850296020508 74.26451110839843752 72.77181243896484368
v 13.2150850296020508 73.1746978759765625 47.77181243896484368
v 12.378779411315918 73.60081481933593752 72.77181243896484368
v 14.1421356201171875 73.027862548828125 47.77181243896484368
v 13.2150850296020508 73.1746978759765625 72.77181243896484368
v 15.06918621063232422 73.1746978759765625 47.77181243896484368
v 14.1421356201171875 73.027862548828125 72.77181243896484368
v 15.90549182891845696 73.60081481933593752 47.77181243896484368
v 15.06918621063232422 73.1746978759765625 72.77181243896484368
v 16.56918716430664064 74.26451110839843752 47.77181243896484368
v 15.90549182891845696 73.60081481933593752 72.77181243896484368
v 16.99530601501464848 75.1008148193359375 47.77181243896484368
v 16.56918716430664064 74.26451110839843752 72.77181243896484368
v 16.99530601501464848 75.1008148193359375 72.77181243896484368
v -11.1421356201171875 76.027862548828125 72.77181243896484368
v -11.7150850296020508 74.26451110839843752 72.77181243896484368
v -12.378779411315918 73.60081481933593752 72.77181243896484368
v -11.28896617889404296 75.1008148193359375 72.77181243896484368
v -6.8157763481140136 57.37068176269531248 72.77181243896484368
v -2.28612089157104492 56.74809646606445312 72.77181243896484368
v 2.28612089157104492 56.74809646606445312 72.77181243896484368
v 6.8157763481140136 57.37068176269531248 72.77181243896484368
v 11.21846675872802736 58.60425949096679688 72.77181243896484368
v 15.41217899322509768 60.4258460998535156 72.77181243896484368
v -13.2150850296020508 101.45896911621093752 72.77181243896484368
v -14.1421356201171875 101.3121337890625 72.77181243896484368
v -14.1421356201171875 79.027862548828125 72.77181243896484368
v -15.06918621063232422 101.45896911621093752 72.77181243896484368
v -15.06918621063232422 78.88103485107421872 72.77181243896484368
v -25.986328125 69.02855682373046875 72.77181243896484368
v -16.56918716430664064 74.26451110839843752 72.77181243896484368
v -16.99530601501464848 75.1008148193359375 72.77181243896484368
v -22.86553001403808592 65.68699645996093752 72.77181243896484368
v -15.90549182891845696 73.60081481933593752 72.77181243896484368
v -15.41217899322509768 60.4258460998535156 72.77181243896484368
v -14.1421356201171875 73.027862548828125 72.77181243896484368
v -15.06918621063232422 73.1746978759765625 72.77181243896484368
v -13.2150850296020508 73.1746978759765625 72.77181243896484368
v -11.21846675872802736 58.60425949096679688 72.77181243896484368
v 19.31879043579101564 62.8015098571777344 72.77181243896484368
v 22.86553001403808592 65.68699645996093752 72.77181243896484368
v 25.986328125 69.02855682373046875 72.77181243896484368
v 15.06918621063232422 101.45896911621093752 72.77181243896484368
v -19.31879043579101564 62.8015098571777344 72.77181243896484368
v 14.1421356201171875 101.3121337890625 72.77181243896484368
v 13.2150850296020508 101.45896911621093752 72.77181243896484368
v 30.72657775878906256 76.82356262207031248 72.77181243896484368
v 32.25772857666015624 81.131805419921875 72.77181243896484368
v 28.6230506896972656 72.76393890380859376 72.77181243896484368
v 15.90549182891845696 101.88508605957031248 72.77181243896484368
v 33.18798065185546876 85.60841369628906248 72.77181243896484368
v 33.5 90.1699981689453125 72.77181243896484368
v 16.56918716430664064 102.54878234863281248 72.77181243896484368
v 33.18798065185546876 94.73158264160156256 72.77181243896484368
v 32.25772857666015624 99.20819091796875 72.77181243896484368
v 19.31879043579101564 117.53849029541015624 72.77181243896484368
v 15.06918621063232422 107.16530609130859376 72.77181243896484368
v 15.90549182891845696 106.73918914794921872 72.77181243896484368
v 15.41217899322509768 119.91415405273437504 72.77181243896484368
v 14.1421356201171875 107.3121337890625 72.77181243896484368
v -15.90549182891845696 78.45491790771484376 72.77181243896484368
v 11.28896617889404296 103.38508605957031248 72.77181243896484368
v -11.7150850296020508 102.54878234863281248 72.77181243896484368
v -12.378779411315918 101.88508605957031248 72.77181243896484368
v 16.99530601501464848 103.38508605957031248 72.77181243896484368
v 30.72657775878906256 103.51643371582031248 72.77181243896484368
v 17.1421356201171875 104.3121337890625 72.77181243896484368
v 28.6230506896972656 107.57606506347656248 72.77181243896484368
v 25.986328125 111.31144714355468752 72.77181243896484368
v 16.56918716430664064 106.07549285888671875 72.77181243896484368
v 16.99530601501464848 105.23918914794921876 72.77181243896484368
v 22.86553001403808592 114.65300750732421872 72.77181243896484368
v -13.2150850296020508 78.88103485107421872 72.77181243896484368
v -11.28896617889404296 103.38508605957031248 72.77181243896484368
v 11.1421356201171875 104.3121337890625 72.77181243896484368
v -11.1421356201171875 104.3121337890625 72.77181243896484368
v 13.2150850296020508 107.16530609130859376 72.77181243896484368
v 12.378779411315918 106.73918914794921872 72.77181243896484368
v 6.8157763481140136 122.96931457519531248 72.77181243896484368
v -11.7150850296020508 77.79122161865234368 72.77181243896484368
v -11.28896617889404296 76.95491790771484368 72.77181243896484368
v -16.56918716430664064 77.79122161865234368 72.77181243896484368
v -17.1421356201171875 76.027862548828125 72.77181243896484368
v -16.99530601501464848 76.95491790771484368 72.77181243896484368
v 11.7150850296020508 102.54878234863281248 72.77181243896484368
v -30.72657775878906256 76.82356262207031248 72.77181243896484368
v -28.6230506896972656 72.76393890380859376 72.77181243896484368
v 11.21846675872802736 121.73574066162109376 72.77181243896484368
v 2.28612089157104492 123.59190368652343752 72.77181243896484368
v -16.56918716430664064 102.54878234863281248 72.77181243896484368
v -16.99530601501464848 103.38508605957031248 72.77181243896484368
v -32.25772857666015624 99.20819091796875 72.77181243896484368
v -15.90549182891845696 101.88508605957031248 72.77181243896484368
v -33.5 90.1699981689453125 72.77181243896484368
v -32.25772857666015624 81.131805419921875 72.77181243896484368
v -12.378779411315918 78.45491790771484376 72.77181243896484368
v 12.378779411315918 101.88508605957031248 72.77181243896484368
v -2.28612089157104492 123.59190368652343752 72.77181243896484368
v 11.7150850296020508 106.07549285888671875 72.77181243896484368
v 11.28896617889404296 105.23918914794921876 72.77181243896484368
v -11.28896617889404296 105.23918914794921876 72.77181243896484368
v -15.41217899322509768 119.91415405273437504 72.77181243896484368
v -12.378779411315918 106.73918914794921872 72.77181243896484368
v -14.1421356201171875 107.3121337890625 72.77181243896484368
v -13.2150850296020508 107.16530609130859376 72.77181243896484368
v -19.31879043579101564 117.53849029541015624 72.77181243896484368
v -22.86553001403808592 114.65300750732421872 72.77181243896484368
v -15.90549182891845696 106.73918914794921872 72.77181243896484368
v -25.986328125 111.31144714355468752 72.77181243896484368
v -16.56918716430664064 106.07549285888671875 72.77181243896484368
v -17.1421356201171875 104.3121337890625 72.77181243896484368
v -30.72657775878906256 103.51643371582031248 72.77181243896484368
v -33.18798065185546876 94.73158264160156256 72.77181243896484368
v -33.18798065185546876 85.60841369628906248 72.77181243896484368
v -6.8157763481140136 122.96931457519531248 72.77181243896484368
v -11.21846675872802736 121.73574066162109376 72.77181243896484368
v -11.7150850296020508 106.07549285888671875 72.77181243896484368
v -15.06918621063232422 107.16530609130859376 72.77181243896484368
v -28.6230506896972656 107.57606506347656248 72.77181243896484368
v -16.99530601501464848 105.23918914794921876 72.77181243896484368
v -11.28896617889404296 75.1008148193359375 47.77181243896484368
v -11.1421356201171875 76.027862548828125 47.77181243896484368
v -11.7150850296020508 74.26451110839843752 47.77181243896484368
v -12.378779411315918 73.60081481933593752 47.77181243896484368
v -13.2150850296020508 73.1746978759765625 47.77181243896484368
v 15.41217899322509768 60.4258460998535156 47.77181243896484368
v 6.8157763481140136 57.37068176269531248 47.77181243896484368
v -2.28612089157104492 56.74809646606445312 47.77181243896484368
v -11.21846675872802736 58.60425949096679688 47.77181243896484368
v -15.41217899322509768 60.4258460998535156 47.77181243896484368
v -19.31879043579101564 62.8015098571777344 47.77181243896484368
v -15.06918621063232422 73.1746978759765625 47.77181243896484368
v -22.86553001403808592 65.68699645996093752 47.77181243896484368
v -25.986328125 69.02855682373046875 47.77181243896484368
v -16.56918716430664064 74.26451110839843752 47.77181243896484368
v 25.986328125 69.02855682373046875 47.77181243896484368
v 22.86553001403808592 65.68699645996093752 47.77181243896484368
v 11.21846675872802736 58.60425949096679688 47.77181243896484368
v 2.28612089157104492 56.74809646606445312 47.77181243896484368
v -6.8157763481140136 57.37068176269531248 47.77181243896484368
v -14.1421356201171875 73.027862548828125 47.77181243896484368
v -15.90549182891845696 73.60081481933593752 47.77181243896484368
v -16.99530601501464848 75.1008148193359375 47.77181243896484368
v 19.31879043579101564 62.8015098571777344 47.77181243896484368
v -15.90549182891845696 78.45491790771484376 47.77181243896484368
v -14.1421356201171875 101.3121337890625 47.77181243896484368
v 11.28896617889404296 103.38508605957031248 47.77181243896484368
v -15.06918621063232422 101.45896911621093752 47.77181243896484368
v -13.2150850296020508 101.45896911621093752 47.77181243896484368
v -11.28896617889404296 105.23918914794921876 47.77181243896484368
v 22.86553001403808592 114.65300750732421872 47.77181243896484368
v 14.1421356201171875 107.3121337890625 47.77181243896484368
v -16.99530601501464848 76.95491790771484368 47.77181243896484368
v -17.1421356201171875 76.027862548828125 47.77181243896484368
v -16.56918716430664064 77.79122161865234368 47.77181243896484368
v 11.28896617889404296 105.23918914794921876 47.77181243896484368
v 11.1421356201171875 104.3121337890625 47.77181243896484368
v -16.56918716430664064 102.54878234863281248 47.77181243896484368
v -33.18798065185546876 94.73158264160156256 47.77181243896484368
v -32.25772857666015624 99.20819091796875 47.77181243896484368
v -13.2150850296020508 107.16530609130859376 47.77181243896484368
v -14.1421356201171875 107.3121337890625 47.77181243896484368
v -15.41217899322509768 119.91415405273437504 47.77181243896484368
v -12.378779411315918 106.73918914794921872 47.77181243896484368
v -6.8157763481140136 122.96931457519531248 47.77181243896484368
v 15.41217899322509768 119.91415405273437504 47.77181243896484368
v 19.31879043579101564 117.53849029541015624 47.77181243896484368
v -11.7150850296020508 106.07549285888671875 47.77181243896484368
v 11.21846675872802736 121.73574066162109376 47.77181243896484368
v 15.06918621063232422 107.16530609130859376 47.77181243896484368
v 16.56918716430664064 102.54878234863281248 47.77181243896484368
v 16.99530601501464848 103.38508605957031248 47.77181243896484368
v 32.25772857666015624 99.20819091796875 47.77181243896484368
v 15.90549182891845696 101.88508605957031248 47.77181243896484368
v 33.5 90.1699981689453125 47.77181243896484368
v 32.25772857666015624 81.131805419921875 47.77181243896484368
v 15.06918621063232422 101.45896911621093752 47.77181243896484368
v 11.7150850296020508 102.54878234863281248 47.77181243896484368
v -13.2150850296020508 78.88103485107421872 47.77181243896484368
v -14.1421356201171875 79.027862548828125 47.77181243896484368
v -11.7150850296020508 77.79122161865234368 47.77181243896484368
v -12.378779411315918 78.45491790771484376 47.77181243896484368
v 30.72657775878906256 76.82356262207031248 47.77181243896484368
v 28.6230506896972656 72.76393890380859376 47.77181243896484368
v -30.72657775878906256 76.82356262207031248 47.77181243896484368
v -32.25772857666015624 81.131805419921875 47.77181243896484368
v -33.5 90.1699981689453125 47.77181243896484368
v -16.99530601501464848 103.38508605957031248 47.77181243896484368
v -30.72657775878906256 103.51643371582031248 47.77181243896484368
v -17.1421356201171875 104.3121337890625 47.77181243896484368
v -28.6230506896972656 107.57606506347656248 47.77181243896484368
v -25.986328125 111.31144714355468752 47.77181243896484368
v -16.56918716430664064 106.07549285888671875 47.77181243896484368
v -16.99530601501464848 105.23918914794921876 47.77181243896484368
v -22.86553001403808592 114.65300750732421872 47.77181243896484368
v -15.90549182891845696 106.73918914794921872 47.77181243896484368
v -19.31879043579101564 117.53849029541015624 47.77181243896484368
v -15.06918621063232422 107.16530609130859376 47.77181243896484368
v -11.21846675872802736 121.73574066162109376 47.77181243896484368
v -2.28612089157104492 123.59190368652343752 47.77181243896484368
v 2.28612089157104492 123.59190368652343752 47.77181243896484368
v 15.90549182891845696 106.73918914794921872 47.77181243896484368
v 17.1421356201171875 104.3121337890625 47.77181243896484368
v 30.72657775878906256 103.51643371582031248 47.77181243896484368
v 33.18798065185546876 94.73158264160156256 47.77181243896484368
v 33.18798065185546876 85.60841369628906248 47.77181243896484368
v 13.2150850296020508 101.45896911621093752 47.77181243896484368
v -15.06918621063232422 78.88103485107421872 47.77181243896484368
v 12.378779411315918 101.88508605957031248 47.77181243896484368
v -11.28896617889404296 76.95491790771484368 47.77181243896484368
v -28.6230506896972656 72.76393890380859376 47.77181243896484368
v -15.90549182891845696 101.88508605957031248 47.77181243896484368
v -33.18798065185546876 85.60841369628906248 47.77181243896484368
v 6.8157763481140136 122.96931457519531248 47.77181243896484368
v -11.1421356201171875 104.3121337890625 47.77181243896484368
v 25.986328125 111.31144714355468752 47.77181243896484368
v 16.56918716430664064 106.07549285888671875 47.77181243896484368
v 14.1421356201171875 101.3121337890625 47.77181243896484368
v 12.378779411315918 106.73918914794921872 47.77181243896484368
v 11.7150850296020508 106.07549285888671875 47.77181243896484368
v 28.6230506896972656 107.57606506347656248 47.77181243896484368
v 16.99530601501464848 105.23918914794921876 47.77181243896484368
v 13.2150850296020508 107.16530609130859376 47.77181243896484368
v -12.378779411315918 101.88508605957031248 47.77181243896484368
v -11.28896617889404296 103.38508605957031248 47.77181243896484368
v -11.7150850296020508 102.54878234863281248 47.77181243896484368
# 252 vertices

vn -0.9876883625984192 -0.15643446147441864 0
vn -0.8910065293312072 -0.45399048924446104 0
vn -0.7071067690849304 -0.7071067690849304 0
vn -0.45399048924446104 -0.8910065293312072 0
vn -0.15643446147441864 -0.9876883625984192 0
vn 0.15643446147441864 -0.9876883625984192 0
vn 0.45399048924446104 -0.8910065293312072 0
vn 0.7071067690849304 -0.7071067690849304 0
vn 0.8910065293312072 -0.45399048924446104 0
vn 0.9876883625984192 -0.15643446147441864 0
vn 0.9876883625984192 0.15643446147441864 0
vn 0.8910065293312072 0.45399048924446104 0
vn 0.7071067690849304 0.7071067690849304 0
vn 0.45399048924446104 0.8910065293312072 0
vn 0.15643446147441864 0.9876883625984192 0
vn -0.15643446147441864 0.9876883625984192 0
vn -0.45399048924446104 0.8910065293312072 0
vn -0.7071067690849304 0.7071067690849304 0
vn -0.8910065293312072 0.45399048924446104 0
vn -0.9876883625984192 0.15643446147441864 0
vn 0 0 1
vn 0 0 -1
vn 0.99766874313354496 -0.06824241578578949 0
vn 0.97908407449722288 -0.20345601439476012 0
vn 0.9422609210014344 -0.33487960696220396 0
vn 0.8878852128982544 -0.46006503701210024 0
vn 0.81696987152099616 -0.57668030261993408 0
vn 0.73083597421646112 -0.6825531721115112 0
vn 0.6310879588127136 -0.77571129798889168 0
vn 0.51958394050598144 -0.85441941022872928 0
vn 0.39840108156204224 -0.9172112941741944 0
vn 0.26979675889015196 -0.96291726827621456 0
vn 0.13616664707660676 -0.9906859397888184 0
vn 0 -1 0
vn -0.13616664707660676 -0.9906859397888184 0
vn -0.26979675889015196 -0.96291726827621456 0
vn -0.39840108156204224 -0.9172112941741944 0
vn -0.51958394050598144 -0.85441941022872928 0
vn -0.6310879588127136 -0.77571129798889168 0
vn -0.73083597421646112 -0.6825531721115112 0
vn -0.81696987152099616 -0.57668030261993408 0
vn -0.8878852128982544 -0.46006503701210024 0
vn -0.9422609210014344 -0.33487960696220396 0
vn -0.97908407449722288 -0.20345601439476012 0
vn -0.99766874313354496 -0.06824241578578949 0
vn -0.99766874313354496 0.06824241578578949 0
vn -0.97908407449722288 0.20345601439476012 0
vn -0.9422609210014344 0.33487960696220396 0
vn -0.8878852128982544 0.46006503701210024 0
vn -0.81696987152099616 0.57668030261993408 0
vn -0.73083597421646112 0.6825531721115112 0
vn -0.6310879588127136 0.77571129798889168 0
vn -0.51958394050598144 0.85441941022872928 0
vn -0.39840108156204224 0.9172112941741944 0
vn -0.26979675889015196 0.96291726827621456 0
vn -0.13616664707660676 0.9906859397888184 0
vn 0 1 0
vn 0.13616664707660676 0.9906859397888184 0
vn 0.26979675889015196 0.96291726827621456 0
vn 0.39840108156204224 0.9172112941741944 0
vn 0.51958394050598144 0.85441941022872928 0
vn 0.6310879588127136 0.77571129798889168 0
vn 0.73083597421646112 0.6825531721115112 0
vn 0.81696987152099616 0.57668030261993408 0
vn 0.8878852128982544 0.46006503701210024 0
vn 0.9422609210014344 0.33487960696220396 0
vn 0.97908407449722288 0.20345601439476012 0
vn 0.99766874313354496 0.06824241578578949 0
# 68 vertex normals

g obj_43907925
s 1
f 1//1 2//1 3//1
f 4//2 1//2 5//2
f 6//3 4//3 7//3
f 8//4 6//4 9//4
f 10//5 8//5 11//5
f 12//6 10//6 13//6
f 14//7 12//7 15//7
f 16//8 14//8 17//8
f 18//9 16//9 19//9
f 20//10 18//10 21//10
f 22//11 20//11 23//11
f 24//12 22//12 25//12
f 26//13 24//13 27//13
f 28//14 26//14 29//14
f 30//15 28//15 31//15
f 32//16 30//16 33//16
f 34//17 32//17 35//17
f 36//18 34//18 37//18
f 38//19 36//19 39//19
f 2//20 38//20 40//20
f 40//20 3//20 2//20
f 39//19 40//19 38//19
f 37//18 39//18 36//18
f 35//17 37//17 34//17
f 33//16 35//16 32//16
f 31//15 33//15 30//15
f 29//14 31//14 28//14
f 27//13 29//13 26//13
f 25//12 27//12 24//12
f 23//11 25//11 22//11
f 21//10 23//10 20//10
f 19//9 21//9 18//9
f 17//8 19//8 16//8
f 15//7 17//7 14//7
f 13//6 15//6 12//6
f 11//5 13//5 10//5
f 9//4 11//4 8//4
f 7//3 9//3 6//3
f 5//2 7//2 4//2
f 3//1 5//1 1//1
f 25//21 23//21 41//21
f 25//21 42//21 43//21
f 41//21 44//21 25//21
f 27//21 45//21 46//21
f 29//21 47//21 48//21
f 31//21 49//21 50//21
f 51//21 52//21 53//21
f 54//21 55//21 53//21
f 56//21 57//21 58//21
f 59//21 60//21 57//21
f 61//21 62//21 63//21
f 64//21 62//21 61//21
f 44//21 42//21 25//21
f 65//21 27//21 25//21
f 27//21 65//21 45//21
f 29//21 46//21 47//21
f 31//21 48//21 49//21
f 50//21 66//21 35//21
f 67//21 68//21 39//21
f 69//21 7//21 5//21
f 53//21 52//21 54//21
f 57//21 56//21 59//21
f 70//21 63//21 60//21
f 61//21 65//21 64//21
f 25//21 64//21 65//21
f 48//21 31//21 29//21
f 35//21 33//21 50//21
f 66//21 67//21 37//21
f 68//21 40//21 39//21
f 69//21 9//21 7//21
f 69//21 71//21 13//21
f 72//21 15//21 13//21
f 69//21 73//21 74//21
f 69//21 68//21 75//21
f 76//21 77//21 78//21
f 79//21 80//21 81//21
f 82//21 83//21 84//21
f 85//21 86//21 83//21
f 54//21 87//21 55//21
f 88//21 89//21 90//21
f 60//21 59//21 70//21
f 43//21 64//21 25//21
f 50//21 33//21 31//21
f 39//21 37//21 67//21
f 5//21 68//21 69//21
f 13//21 71//21 72//21
f 72//21 23//21 21//21
f 75//21 73//21 69//21
f 76//21 74//21 77//21
f 79//21 78//21 80//21
f 91//21 81//21 92//21
f 93//21 92//21 94//21
f 95//21 96//21 97//21
f 98//21 84//21 96//21
f 83//21 82//21 85//21
f 53//21 99//21 51//21
f 88//21 100//21 89//21
f 88//21 101//21 102//21
f 63//21 70//21 61//21
f 37//21 35//21 66//21
f 69//21 11//21 9//21
f 72//21 17//21 15//21
f 21//21 19//21 72//21
f 19//21 17//21 72//21
f 78//21 79//21 76//21
f 92//21 93//21 91//21
f 97//21 94//21 95//21
f 84//21 98//21 82//21
f 103//21 86//21 85//21
f 104//21 103//21 105//21
f 51//21 106//21 107//21
f 54//21 108//21 87//21
f 54//21 109//21 110//21
f 102//21 100//21 88//21
f 41//21 111//21 88//21
f 41//21 23//21 72//21
f 109//21 112//21 113//21
f 46//21 29//21 27//21
f 5//21 3//21 68//21
f 81//21 91//21 79//21
f 96//21 95//21 98//21
f 85//21 114//21 103//21
f 105//21 115//21 104//21
f 116//21 117//21 118//21
f 119//21 116//21 120//21
f 121//21 109//21 54//21
f 51//21 122//21 106//21
f 110//21 108//21 54//21
f 88//21 51//21 41//21
f 72//21 123//21 41//21
f 58//21 113//21 56//21
f 13//21 11//21 69//21
f 94//21 97//21 93//21
f 115//21 124//21 104//21
f 125//21 104//21 124//21
f 126//21 127//21 102//21
f 126//21 128//21 129//21
f 128//21 130//21 131//21
f 132//21 133//21 134//21
f 133//21 135//21 136//21
f 117//21 137//21 138//21
f 118//21 139//21 116//21
f 120//21 140//21 119//21
f 54//21 119//21 121//21
f 99//21 122//21 51//21
f 123//21 111//21 41//21
f 3//21 40//21 68//21
f 114//21 105//21 103//21
f 124//21 141//21 125//21
f 126//21 125//21 142//21
f 126//21 143//21 127//21
f 131//21 129//21 128//21
f 128//21 132//21 144//21
f 136//21 134//21 133//21
f 135//21 145//21 146//21
f 137//21 146//21 145//21
f 139//21 120//21 116//21
f 121//21 112//21 109//21
f 90//21 51//21 88//21
f 74//21 76//21 69//21
f 142//21 128//21 126//21
f 129//21 143//21 126//21
f 134//21 144//21 132//21
f 145//21 138//21 137//21
f 140//21 121//21 119//21
f 113//21 58//21 109//21
f 102//21 101//21 126//21
f 146//21 136//21 135//21
f 107//21 41//21 51//21
f 144//21 130//21 128//21
f 141//21 142//21 125//21
f 138//21 118//21 117//21
f 22//22 147//22 148//22
f 148//22 18//22 20//22
f 22//22 149//22 147//22
f 22//22 150//22 149//22
f 22//22 151//22 150//22
f 148//22 14//22 16//22
f 28//22 30//22 152//22
f 26//22 28//22 153//22
f 24//22 26//22 154//22
f 155//22 151//22 22//22
f 16//22 18//22 148//22
f 151//22 155//22 156//22
f 156//22 157//22 158//22
f 159//22 160//22 161//22
f 162//22 36//22 38//22
f 163//22 34//22 36//22
f 152//22 30//22 32//22
f 152//22 164//22 28//22
f 153//22 165//22 26//22
f 154//22 166//22 24//22
f 148//22 20//22 22//22
f 158//22 167//22 156//22
f 157//22 159//22 168//22
f 160//22 169//22 161//22
f 36//22 162//22 163//22
f 170//22 32//22 34//22
f 164//22 153//22 28//22
f 166//22 155//22 24//22
f 156//22 167//22 151//22
f 161//22 168//22 159//22
f 34//22 163//22 170//22
f 165//22 154//22 26//22
f 168//22 158//22 157//22
f 148//22 10//22 12//22
f 171//22 172//22 173//22
f 174//22 172//22 171//22
f 173//22 172//22 175//22
f 176//22 177//22 178//22
f 32//22 170//22 152//22
f 12//22 14//22 148//22
f 160//22 179//22 180//22
f 174//22 181//22 179//22
f 171//22 181//22 174//22
f 175//22 182//22 183//22
f 184//22 185//22 186//22
f 187//22 188//22 189//22
f 190//22 187//22 191//22
f 176//22 192//22 193//22
f 176//22 194//22 195//22
f 177//22 196//22 178//22
f 197//22 198//22 199//22
f 200//22 197//22 201//22
f 202//22 2//22 203//22
f 204//22 205//22 206//22
f 207//22 208//22 204//22
f 2//22 209//22 210//22
f 22//22 24//22 155//22
f 179//22 160//22 174//22
f 175//22 183//22 173//22
f 174//22 211//22 212//22
f 184//22 213//22 185//22
f 214//22 186//22 215//22
f 216//22 215//22 217//22
f 218//22 219//22 220//22
f 221//22 222//22 219//22
f 223//22 224//22 222//22
f 189//22 225//22 187//22
f 191//22 226//22 190//22
f 194//22 190//22 227//22
f 195//22 192//22 176//22
f 177//22 228//22 196//22
f 198//22 229//22 230//22
f 199//22 231//22 197//22
f 201//22 232//22 200//22
f 203//22 200//22 202//22
f 203//22 8//22 10//22
f 10//22 148//22 233//22
f 203//22 4//22 6//22
f 203//22 2//22 1//22
f 206//22 234//22 204//22
f 204//22 235//22 207//22
f 233//22 148//22 236//22
f 38//22 210//22 162//22
f 173//22 204//22 171//22
f 174//22 237//22 211//22
f 238//22 239//22 213//22
f 215//22 216//22 214//22
f 220//22 217//22 218//22
f 222//22 221//22 223//22
f 189//22 188//22 224//22
f 226//22 227//22 190//22
f 227//22 240//22 194//22
f 178//22 241//22 176//22
f 177//22 242//22 243//22
f 231//22 201//22 197//22
f 202//22 209//22 2//22
f 233//22 244//22 10//22
f 1//22 4//22 203//22
f 6//22 8//22 203//22
f 204//22 208//22 205//22
f 236//22 207//22 233//22
f 180//22 169//22 160//22
f 175//22 245//22 246//22
f 174//22 160//22 237//22
f 238//22 212//22 239//22
f 217//22 220//22 216//22
f 224//22 223//22 189//22
f 240//22 195//22 194//22
f 243//22 228//22 177//22
f 242//22 247//22 248//22
f 229//22 248//22 247//22
f 232//22 202//22 200//22
f 235//22 233//22 207//22
f 246//22 182//22 175//22
f 210//22 38//22 2//22
f 213//22 184//22 238//22
f 219//22 218//22 221//22
f 193//22 177//22 176//22
f 247//22 230//22 229//22
f 10//22 244//22 203//22
f 186//22 214//22 184//22
f 248//22 243//22 242//22
f 241//22 178//22 249//22
f 245//22 175//22 250//22
f 234//22 171//22 204//22
f 225//22 191//22 187//22
f 249//22 251//22 241//22
f 249//22 245//22 251//22
f 250//22 252//22 245//22
f 212//22 238//22 174//22
f 252//22 251//22 245//22
f 230//22 199//22 198//22
f 176//1 241//1 102//1
f 194//2 176//2 127//2
f 190//3 194//3 143//3
f 187//4 190//4 129//4
f 188//5 187//5 131//5
f 224//6 188//6 130//6
f 222//7 224//7 144//7
f 219//8 222//8 134//8
f 220//9 219//9 136//9
f 216//10 220//10 146//10
f 214//11 216//11 137//11
f 184//12 214//12 117//12
f 238//13 184//13 116//13
f 174//14 238//14 119//14
f 172//15 174//15 54//15
f 175//16 172//16 52//16
f 250//17 175//17 51//17
f 252//18 250//18 90//18
f 251//19 252//19 89//19
f 241//20 251//20 100//20
f 100//20 102//20 241//20
f 89//19 100//19 251//19
f 90//18 89//18 252//18
f 51//17 90//17 250//17
f 52//16 51//16 175//16
f 54//15 52//15 172//15
f 119//14 54//14 174//14
f 116//13 119//13 238//13
f 117//12 116//12 184//12
f 137//11 117//11 214//11
f 146//10 137//10 216//10
f 136//9 146//9 220//9
f 134//8 136//8 219//8
f 144//7 134//7 222//7
f 130//6 144//6 224//6
f 131//5 130//5 188//5
f 129//4 131//4 187//4
f 143//3 129//3 190//3
f 127//2 143//2 194//2
f 102//1 127//1 176//1
f 236//1 148//1 41//1
f 207//2 236//2 107//2
f 208//3 207//3 106//3
f 205//4 208//4 122//4
f 206//5 205//5 99//5
f 234//6 206//6 53//6
f 171//7 234//7 55//7
f 181//8 171//8 87//8
f 179//9 181//9 108//9
f 180//10 179//10 110//10
f 169//11 180//11 109//11
f 161//12 169//12 58//12
f 168//13 161//13 57//13
f 158//14 168//14 60//14
f 167//15 158//15 63//15
f 151//16 167//16 62//16
f 150//17 151//17 64//17
f 149//18 150//18 43//18
f 147//19 149//19 42//19
f 148//20 147//20 44//20
f 44//20 41//20 148//20
f 42//19 44//19 147//19
f 43//18 42//18 149//18
f 64//17 43//17 150//17
f 62//16 64//16 151//16
f 63//15 62//15 167//15
f 60//14 63//14 158//14
f 57//13 60//13 168//13
f 58//12 57//12 161//12
f 109//11 58//11 169//11
f 110//10 109//10 180//10
f 108//9 110//9 179//9
f 87//8 108//8 181//8
f 55//7 87//7 171//7
f 53//6 55//6 234//6
f 99//5 53//5 206//5
f 122//4 99//4 205//4
f 106//3 122//3 208//3
f 107//2 106//2 207//2
f 41//1 107//1 236//1
f 201//23 78//23 77//23
f 232//24 77//24 74//24
f 202//25 74//25 73//25
f 209//26 73//26 75//26
f 210//27 75//27 68//27
f 162//28 68//28 67//28
f 163//29 67//29 66//29
f 170//30 66//30 50//30
f 152//31 50//31 49//31
f 164//32 49//32 48//32
f 153//33 48//33 47//33
f 165//34 47//34 46//34
f 154//35 46//35 45//35
f 166//36 45//36 65//36
f 155//37 65//37 61//37
f 156//38 61//38 70//38
f 157//39 70//39 59//39
f 159//40 59//40 56//40
f 160//41 56//41 113//41
f 237//42 113//42 112//42
f 211//43 112//43 121//43
f 212//44 121//44 140//44
f 239//45 140//45 120//45
f 213//46 120//46 139//46
f 185//47 139//47 118//47
f 186//48 118//48 138//48
f 215//49 138//49 145//49
f 217//50 145//50 135//50
f 218//51 135//51 133//51
f 221//52 133//52 132//52
f 223//53 132//53 128//53
f 189//54 128//54 142//54
f 225//55 142//55 141//55
f 191//56 141//56 124//56
f 226//57 124//57 115//57
f 227//58 115//58 105//58
f 240//59 105//59 114//59
f 195//60 114//60 85//60
f 192//61 85//61 82//61
f 193//62 82//62 98//62
f 177//63 98//63 95//63
f 242//64 95//64 94//64
f 247//65 94//65 92//65
f 230//66 92//66 81//66
f 199//67 81//67 80//67
f 231//68 80//68 78//68
f 78//68 201//68 231//68
f 80//67 231//67 199//67
f 81//66 199//66 230//66
f 92//65 230//65 247//65
f 94//64 247//64 242//64
f 95//63 242//63 177//63
f 98//62 177//62 193//62
f 82//61 193//61 192//61
f 85//60 192//60 195//60
f 114//59 195//59 240//59
f 105//58 240//58 227//58
f 115//57 227//57 226//57
f 124//56 226//56 191//56
f 141//55 191//55 225//55
f 142//54 225//54 189//54
f 128//53 189//53 223//53
f 132//52 223//52 221//52
f 133//51 221//51 218//51
f 135//50 218//50 217//50
f 145//49 217//49 215//49
f 138//48 215//48 186//48
f 118//47 186//47 185//47
f 139//46 185//46 213//46
f 120//45 213//45 239//45
f 140//44 239//44 212//44
f 121//43 212//43 211//43
f 112//42 211//42 237//42
f 113//41 237//41 160//41
f 56//40 160//40 159//40
f 59//39 159//39 157//39
f 70//38 157//38 156//38
f 61//37 156//37 155//37
f 65//36 155//36 166//36
f 45//35 166//35 154//35
f 46//34 154//34 165//34
f 47//33 165//33 153//33
f 48//32 153//32 164//32
f 49//31 164//31 152//31
f 50//30 152//30 170//30
f 66//29 170//29 163//29
f 67//28 163//28 162//28
f 68//27 162//27 210//27
f 75//26 210//26 209//26
f 73//25 209//25 202//25
f 74//24 202//24 232//24
f 77//23 232//23 201//23
f 248//1 229//1 93//1
f 243//2 248//2 97//2
f 228//3 243//3 96//3
f 196//4 228//4 84//4
f 178//5 196//5 83//5
f 249//6 178//6 86//6
f 245//7 249//7 103//7
f 246//8 245//8 104//8
f 182//9 246//9 125//9
f 183//10 182//10 126//10
f 173//11 183//11 101//11
f 204//12 173//12 88//12
f 235//13 204//13 111//13
f 233//14 235//14 123//14
f 244//15 233//15 72//15
f 203//16 244//16 71//16
f 200//17 203//17 69//17
f 197//18 200//18 76//18
f 198//19 197//19 79//19
f 229//20 198//20 91//20
f 91//20 93//20 229//20
f 79//19 91//19 198//19
f 76//18 79//18 197//18
f 69//17 76//17 200//17
f 71//16 69//16 203//16
f 72//15 71//15 244//15
f 123//14 72//14 233//14
f 111//13 123//13 235//13
f 88//12 111//12 204//12
f 101//11 88//11 173//11
f 126//10 101//10 183//10
f 125//9 126//9 182//9
f 104//8 125//8 246//8
f 103//7 104//7 245//7
f 86//6 103//6 249//6
f 83//5 86//5 178//5
f 84//4 83//4 196//4
f 96//3 84//3 228//3
f 97//2 96//2 243//2
f 93//1 97//1 248//1
#516 polygons

