# Aspose.3D Wavefront OBJ Exporter
# Copyright 2004-2023 Aspose Pty Ltd.
# File created: 06/29/2023 04:21:13


#
# object obj_29722616
#

v -190.52763366699218752 -16.83994483947753904 192.6793212890625
v -190.25569152832031248 -15.12296867370605468 192.6793212890625
v -190.25569152832031248 -15.12296867370605468 186.329315185546875
v -191.31683349609375 -18.3888511657714844 192.6793212890625
v -190.52763366699218752 -16.83994483947753904 186.329315185546875
v -192.54605102539062496 -19.61806869506835936 192.6793212890625
v -191.31683349609375 -18.3888511657714844 186.329315185546875
v -194.094970703125 -20.40727615356445312 192.6793212890625
v -192.54605102539062496 -19.61806869506835936 186.329315185546875
v -195.81193542480468752 -20.67921829223632816 192.6793212890625
v -194.094970703125 -20.40727615356445312 186.329315185546875
v -197.52891540527343752 -20.40727615356445312 192.6793212890625
v -195.81193542480468752 -20.67921829223632816 186.329315185546875
v -199.07781982421875 -19.61806869506835936 192.6793212890625
v -197.52891540527343752 -20.40727615356445312 186.329315185546875
v -200.307037353515625 -18.3888511657714844 192.6793212890625
v -199.07781982421875 -19.61806869506835936 186.329315185546875
v -201.09625244140625 -16.83994483947753904 192.6793212890625
v -200.307037353515625 -18.3888511657714844 186.329315185546875
v -201.36819458007812496 -15.12296867370605468 192.6793212890625
v -201.09625244140625 -16.83994483947753904 186.329315185546875
v -201.36819458007812496 -15.12296867370605468 186.329315185546875
v -201.09625244140625 -13.40599250793457032 192.6793212890625
v -200.307037353515625 -11.85708713531494144 192.6793212890625
v -201.09625244140625 -13.40599250793457032 186.329315185546875
v -199.07781982421875 -10.6278676986694336 192.6793212890625
v -200.307037353515625 -11.85708713531494144 186.329315185546875
v -197.52891540527343752 -9.83866119384765632 192.6793212890625
v -199.07781982421875 -10.6278676986694336 186.329315185546875
v -195.81193542480468752 -9.56671905517578128 192.6793212890625
v -197.52891540527343752 -9.83866119384765632 186.329315185546875
v -194.094970703125 -9.83866119384765632 192.6793212890625
v -195.81193542480468752 -9.56671905517578128 186.329315185546875
v -192.54605102539062496 -10.6278676986694336 192.6793212890625
v -194.094970703125 -9.83866119384765632 186.329315185546875
v -191.31683349609375 -11.85708713531494144 192.6793212890625
v -192.54605102539062496 -10.6278676986694336 186.329315185546875
v -190.52763366699218752 -13.40599250793457032 192.6793212890625
v -191.31683349609375 -11.85708713531494144 186.329315185546875
v -190.52763366699218752 -13.40599250793457032 186.329315185546875
v -194.76802062988281248 -11.91010951995849616 186.329315185546875
v -193.82627868652343744 -12.38994693756103512 186.329315185546875
v -195.81193542480468752 -11.74476814270019536 186.329315185546875
v -196.85586547851562496 -11.91010951995849616 186.329315185546875
v -197.79759216308593744 -12.38994693756103512 186.329315185546875
v -193.07891845703125 -13.1373128890991211 186.329315185546875
v -192.59907531738281248 -14.07904720306396484 186.329315185546875
v -198.54496765136718752 -13.1373128890991211 186.329315185546875
v -199.0247955322265625 -14.07904720306396484 186.329315185546875
v -196.85586547851562496 -18.33582687377929688 186.329315185546875
v -197.79759216308593744 -17.85598945617675776 186.329315185546875
v -195.81193542480468752 -18.50116920471191408 186.329315185546875
v -194.76802062988281248 -18.33582687377929688 186.329315185546875
v -193.82627868652343744 -17.85598945617675776 186.329315185546875
v -198.54496765136718752 -17.10862541198730468 186.329315185546875
v -199.0247955322265625 -16.16688919067382812 186.329315185546875
v -192.43374633789062496 -15.12296867370605468 186.329315185546875
v -199.19013977050781248 -15.12296867370605468 186.329315185546875
v -193.07891845703125 -17.10862541198730468 186.329315185546875
v -192.59907531738281248 -16.16688919067382812 186.329315185546875
v -199.19013977050781248 -15.12296867370605468 173.62931823730468752
v -199.0247955322265625 -14.07904720306396484 173.62931823730468752
v -198.54496765136718752 -13.1373128890991211 173.62931823730468752
v -197.79759216308593744 -12.38994693756103512 173.62931823730468752
v -196.85586547851562496 -11.91010951995849616 173.62931823730468752
v -195.81193542480468752 -11.74476814270019536 173.62931823730468752
v -194.76802062988281248 -11.91010951995849616 173.62931823730468752
v -193.82627868652343744 -12.38994693756103512 173.62931823730468752
v -193.07891845703125 -13.1373128890991211 173.62931823730468752
v -192.59907531738281248 -14.07904720306396484 173.62931823730468752
v -192.43374633789062496 -15.12296867370605468 173.62931823730468752
v -192.59907531738281248 -16.16688919067382812 173.62931823730468752
v -193.07891845703125 -17.10862541198730468 173.62931823730468752
v -193.82627868652343744 -17.85598945617675776 173.62931823730468752
v -194.76802062988281248 -18.33582687377929688 173.62931823730468752
v -195.81193542480468752 -18.50116920471191408 173.62931823730468752
v -196.85586547851562496 -18.33582687377929688 173.62931823730468752
v -197.79759216308593744 -17.85598945617675776 173.62931823730468752
v -198.54496765136718752 -17.10862541198730468 173.62931823730468752
v -199.0247955322265625 -16.16688919067382812 173.62931823730468752
v -191.44631958007812496 -7.56148433685302736 173.62931823730468752
v -204.54318237304687504 -7.56148433685302736 173.62931823730468752
v -204.54318237304687504 7.56148433685302736 173.62931823730468752
v -217.64006042480468752 -7.56148433685302736 173.62931823730468752
v -217.64006042480468752 7.56148433685302736 173.62931823730468752
v -179.70820617675781248 -7.56148433685302736 173.62931823730468752
v -187.0806884765625 -3.3782000541687012 173.62931823730468752
v -191.44631958007812496 7.56148433685302736 173.62931823730468752
v -171.37277221679687504 7.56148433685302736 173.62931823730468752
v -186.036773681640625 3.2128591537475586 173.62931823730468752
v -186.036773681640625 -3.2128591537475586 173.62931823730468752
v -189.06634521484375 -2.73302125930786128 173.62931823730468752
v -188.124603271484375 -3.2128591537475586 173.62931823730468752
v -187.0806884765625 3.3782000541687012 173.62931823730468752
v -188.124603271484375 3.2128591537475586 173.62931823730468752
v -185.09503173828125 2.73302125930786128 173.62931823730468752
v -185.09503173828125 -2.73302125930786128 173.62931823730468752
v -184.34767150878906248 -1.98565614223480224 173.62931823730468752
v -189.06634521484375 2.73302125930786128 173.62931823730468752
v -189.81370544433593744 1.98565614223480224 173.62931823730468752
v -183.86782836914062496 -1.04392123222351074 173.62931823730468752
v -190.293548583984375 -1.04392123222351074 173.62931823730468752
v -189.81370544433593744 -1.98565614223480224 173.62931823730468752
v -183.86782836914062496 1.04392123222351074 173.62931823730468752
v -184.34767150878906248 1.98565614223480224 173.62931823730468752
v -183.70248413085937504 2.283382233292386E-10 173.62931823730468752
v -190.293548583984375 1.04392123222351074 173.62931823730468752
v -190.45889282226562496 2.28366645038669E-10 173.62931823730468752
v -184.49024963378906248 -15.58972835540771488 173.62931823730468752
v -187.1759033203125 -18.53476333618164064 173.62931823730468752
v -182.298370361328125 -12.26082229614257812 173.62931823730468752
v -201.38722229003906248 -25.20317268371582032 173.62931823730468752
v -193.75347900390624992 -22.994394302368164 173.62931823730468752
v -197.48342895507812496 -24.39917755126953128 173.62931823730468752
v -204.54081726074218752 -25.39999961853027344 173.62931823730468752
v -190.28919982910156248 -21.02341270446777344 173.62931823730468752
v -211.288787841796875 -17.85598945617675776 173.62931823730468752
v -205.36872863769531248 -25.38658142089843752 173.62931823730468752
v -209.32989501953125 -24.94488716125488288 173.62931823730468752
v -212.23051452636718752 -18.33582687377929688 173.62931823730468752
v -213.1732025146484375 -23.88896942138671872 173.62931823730468752
v -216.80401611328124992 -22.24482536315917968 173.62931823730468752
v -214.318359375 -18.33582687377929688 173.62931823730468752
v -212.23051452636718752 -11.91010951995849616 173.62931823730468752
v -213.274444580078125 -11.74476814270019536 173.62931823730468752
v -210.54141235351562496 -17.10862541198730468 173.62931823730468752
v -213.274444580078125 -18.50116920471191408 173.62931823730468752
v -215.260101318359375 -17.85598945617675776 173.62931823730468752
v -214.318359375 -11.91010951995849616 173.62931823730468752
v -211.288787841796875 -12.38994693756103512 173.62931823730468752
v -220.1329193115234375 -20.05293846130371094 173.62931823730468752
v -216.0074615478515625 -17.10862541198730468 173.62931823730468752
v -215.260101318359375 -12.38994693756103512 173.62931823730468752
v -216.0074615478515625 -13.1373128890991211 173.62931823730468752
v -210.06158447265625 -16.16688919067382812 173.62931823730468752
v -209.896240234375 -15.12296867370605468 173.62931823730468752
v -216.4873046875 -16.16688919067382812 173.62931823730468752
v -210.06158447265625 -14.07904720306396484 173.62931823730468752
v -210.54141235351562496 -13.1373128890991211 173.62931823730468752
v -216.4873046875 -14.07904720306396484 173.62931823730468752
v -216.65263366699218752 -15.12296867370605468 173.62931823730468752
v -223.0779571533203125 -17.36728286743164064 173.62931823730468752
v -225.56660461425781248 -14.25398731231689452 173.62931823730468752
v -227.53758239746093752 -10.78971099853515632 173.62931823730468752
v -222.0056915283203125 -3.3782000541687012 173.62931823730468752
v -228.43215942382812496 8.63001441955566408 173.62931823730468752
v -222.0056915283203125 3.3782000541687012 173.62931823730468752
v -220.96176147460937504 -3.2128591537475586 173.62931823730468752
v -223.99134826660156256 -2.73302125930786128 173.62931823730468752
v -223.0496063232421875 -3.2128591537475586 173.62931823730468752
v -229.48808288574218752 4.7867064476013184 173.62931823730468752
v -224.73870849609375008 1.98565614223480224 173.62931823730468752
v -225.21855163574218752 1.04392123222351074 173.62931823730468752
v -223.99134826660156256 2.73302125930786128 173.62931823730468752
v -223.0496063232421875 3.2128591537475586 173.62931823730468752
v -220.0200347900390625 2.73302125930786128 173.62931823730468752
v -220.96176147460937504 3.2128591537475586 173.62931823730468752
v -220.0200347900390625 -2.73302125930786128 173.62931823730468752
v -219.272674560546875 -1.98565614223480224 173.62931823730468752
v -228.94236755371093744 -7.05975580215454102 173.62931823730468752
v -229.74636840820312496 -3.15596604347229004 173.62931823730468752
v -225.21855163574218752 -1.04392123222351074 173.62931823730468752
v -224.73870849609375008 -1.98565614223480224 173.62931823730468752
v -218.79283142089843744 -1.04392123222351074 173.62931823730468752
v -218.62748718261718752 2.28366645038669E-10 173.62931823730468752
v -218.79283142089843744 1.04392123222351074 173.62931823730468752
v -219.272674560546875 1.98565614223480224 173.62931823730468752
v -229.92976379394531248 0.82553374767303472 173.62931823730468752
v -225.38389587402343752 2.283950667480994E-10 173.62931823730468752
v -229.94319152832031248 2.283950667480994E-10 173.62931823730468752
v -226.78800964355468752 12.26082229614257812 173.62931823730468752
v -213.274444580078125 11.74476814270019536 173.62931823730468752
v -213.274444580078125 18.50116920471191408 173.62931823730468752
v -214.318359375 18.33582687377929688 173.62931823730468752
v -217.64006042480468752 28.85795783996582032 173.62931823730468752
v -212.23051452636718752 11.91010951995849616 173.62931823730468752
v -215.260101318359375 12.38994693756103512 173.62931823730468752
v -214.318359375 11.91010951995849616 173.62931823730468752
v -204.54318237304687504 52.6196327209472656 173.62931823730468752
v -211.288787841796875 17.85598945617675776 173.62931823730468752
v -212.23051452636718752 18.33582687377929688 173.62931823730468752
v -211.288787841796875 12.38994693756103512 173.62931823730468752
v -210.54141235351562496 13.1373128890991211 173.62931823730468752
v -215.260101318359375 17.85598945617675776 173.62931823730468752
v -216.0074615478515625 17.10862541198730468 173.62931823730468752
v -209.896240234375 15.12296867370605468 173.62931823730468752
v -210.06158447265625 16.16688919067382812 173.62931823730468752
v -216.4873046875 14.07904720306396484 173.62931823730468752
v -216.0074615478515625 13.1373128890991211 173.62931823730468752
v -210.54141235351562496 17.10862541198730468 173.62931823730468752
v -210.06158447265625 14.07904720306396484 173.62931823730468752
v -216.4873046875 16.16688919067382812 173.62931823730468752
v -216.65263366699218752 15.12296867370605468 173.62931823730468752
v -196.85586547851562496 11.91010951995849616 173.62931823730468752
v -195.81193542480468752 11.74476814270019536 173.62931823730468752
v -195.81193542480468752 18.50116920471191408 173.62931823730468752
v -196.85586547851562496 18.33582687377929688 173.62931823730468752
v -194.76802062988281248 11.91010951995849616 173.62931823730468752
v -197.79759216308593744 12.38994693756103512 173.62931823730468752
v -191.44631958007812496 76.38130950927734376 173.62931823730468752
v -193.82627868652343744 17.85598945617675776 173.62931823730468752
v -194.76802062988281248 18.33582687377929688 173.62931823730468752
v -193.82627868652343744 12.38994693756103512 173.62931823730468752
v -193.07891845703125 13.1373128890991211 173.62931823730468752
v -197.79759216308593744 17.85598945617675776 173.62931823730468752
v -198.54496765136718752 17.10862541198730468 173.62931823730468752
v -192.43374633789062496 15.12296867370605468 173.62931823730468752
v -199.0247955322265625 14.07904720306396484 173.62931823730468752
v -198.54496765136718752 13.1373128890991211 173.62931823730468752
v -192.59907531738281248 16.16688919067382812 173.62931823730468752
v -193.07891845703125 17.10862541198730468 173.62931823730468752
v -192.59907531738281248 14.07904720306396484 173.62931823730468752
v -199.0247955322265625 16.16688919067382812 173.62931823730468752
v -199.19013977050781248 15.12296867370605468 173.62931823730468752
v -117.06723785400390625 106.08808135986328125 173.62931823730468752
v 101.80319976806640624 187.32499694824218752 173.62931823730468752
v -40.94964599609375008 187.32499694824218752 173.62931823730468752
v -40.94964599609375008 193.67500305175781248 173.62931823730468752
v -40.94964599609375008 155.57499694824218752 173.62931823730468752
v -63.28554916381835936 149.225006103515625 173.62931823730468752
v -68.69588470458984376 148.93606567382812496 173.62931823730468752
v -113.58879852294921872 155.57499694824218752 173.62931823730468752
v -93.63245391845703128 139.1644744873046875 173.62931823730468752
v -97.79872131347656256 135.70074462890625 173.62931823730468752
v -79.27108001708984376 146.64431762695312496 173.62931823730468752
v -84.31565093994140624 144.66757202148437504 173.62931823730468752
v -40.94964599609375008 149.225006103515625 173.62931823730468752
v -101.5723876953125 131.81298828125 173.62931823730468752
v -74.044677734375 148.07257080078125 173.62931823730468752
v -123.00893402099609375 191.0650177001953125 173.62931823730468752
v -119.41831207275390624 192.50369262695312496 173.62931823730468752
v -113.58879852294921872 187.32499694824218752 173.62931823730468752
v -134.0388031005859375 180.53582763671875 173.62931823730468752
v -131.91909790039062496 183.77143859863281248 173.62931823730468752
v -104.91053771972656256 127.54544067382812496 173.62931823730468752
v -107.77519989013671872 122.9466476440429688 173.62931823730468752
v -89.12099456787109376 142.164794921875 173.62931823730468752
v -126.33946228027343752 189.0977935791015625 173.62931823730468752
v -129.33265686035156248 186.64765930175781248 173.62931823730468752
v -175.0726470947265625 106.08808135986328125 173.62931823730468752
v -111.79398345947265632 193.67500305175781248 173.62931823730468752
v -115.65087127685546872 193.38046264648437504 173.62931823730468752
v 101.80319976806640624 149.225006103515625 173.62931823730468752
v 101.80319976806640624 155.57499694824218752 173.62931823730468752
v 101.80319976806640624 193.67500305175781248 173.62931823730468752
v -134.0388031005859375 180.53582763671875 192.6793212890625
v -131.91909790039062496 183.77143859863281248 192.6793212890625
v -129.33265686035156248 186.64765930175781248 192.6793212890625
v -126.33946228027343752 189.0977935791015625 192.6793212890625
v -123.00893402099609375 191.0650177001953125 192.6793212890625
v -119.41831207275390624 192.50369262695312496 192.6793212890625
v -115.65087127685546872 193.38046264648437504 192.6793212890625
v -111.79398345947265632 193.67500305175781248 192.6793212890625
v 101.80319976806640624 193.67500305175781248 192.6793212890625
v -182.39982604980468752 92.79435729980468752 192.6793212890625
v -147.56297302246093752 155.99891662597656256 192.6793212890625
v -185.89006042480468752 86.46202087402343752 192.6793212890625
v -204.54318237304687504 52.6196327209472656 192.6793212890625
v -212.0838165283203125 38.93867111206054688 192.6793212890625
v -223.196319580078125 18.77724838256835936 192.6793212890625
v -226.78800964355468752 12.26082229614257812 192.6793212890625
v -228.43215942382812496 8.63001441955566408 192.6793212890625
v -229.48808288574218752 4.7867064476013184 192.6793212890625
v -229.74636840820312496 -3.15596604347229004 192.6793212890625
v -229.94319152832031248 2.4699708944808663E-10 192.6793212890625
v -229.92976379394531248 0.82553374767303472 192.6793212890625
v -228.94236755371093744 -7.05975580215454102 192.6793212890625
v -227.53758239746093752 -10.78971099853515632 192.6793212890625
v -225.56660461425781248 -14.25398731231689452 192.6793212890625
v -223.0779571533203125 -17.36728286743164064 192.6793212890625
v -220.1329193115234375 -20.05293846130371094 192.6793212890625
v -216.80401611328124992 -22.24482536315917968 192.6793212890625
v -213.1732025146484375 -23.88896942138671872 192.6793212890625
v -209.32989501953125 -24.94488716125488288 192.6793212890625
v -201.38722229003906248 -25.20317268371582032 192.6793212890625
v -205.36872863769531248 -25.38658142089843752 192.6793212890625
v -197.48342895507812496 -24.39917755126953128 192.6793212890625
v -193.75347900390624992 -22.994394302368164 192.6793212890625
v -190.28919982910156248 -21.02341270446777344 192.6793212890625
v -187.1759033203125 -18.53476333618164064 192.6793212890625
v -184.49024963378906248 -15.58972835540771488 192.6793212890625
v -182.298370361328125 -12.26082229614257812 192.6793212890625
v -124.39442443847656248 92.79435729980468752 192.6793212890625
v -147.56297302246093752 50.7596435546875 192.6793212890625
v -107.77519989013671872 122.9466476440429688 192.6793212890625
v -179.70820617675781248 -7.56148433685302736 192.6793212890625
v -171.37277221679687504 7.56148433685302736 192.6793212890625
v -104.91053771972656256 127.54544067382812496 192.6793212890625
v -101.5723876953125 131.81298828125 192.6793212890625
v -97.79872131347656256 135.70074462890625 192.6793212890625
v -93.63245391845703128 139.1644744873046875 192.6793212890625
v -89.12099456787109376 142.164794921875 192.6793212890625
v -84.31565093994140624 144.66757202148437504 192.6793212890625
v -79.27108001708984376 146.64431762695312496 192.6793212890625
v -74.044677734375 148.07257080078125 192.6793212890625
v -68.69588470458984376 148.93606567382812496 192.6793212890625
v -63.28554916381835936 149.225006103515625 192.6793212890625
v 101.80319976806640624 149.225006103515625 192.6793212890625
v 101.80319976806640624 185.83274841308593744 192.6793212890625
v 101.80319976806640624 155.57499694824218752 176.8043212890625
v 101.80319976806640624 187.32499694824218752 176.8043212890625
v -113.58879852294921872 155.57499694824218752 176.8043212890625
v -113.58879852294921872 187.32499694824218752 176.8043212890625
v -216.4873046875 -14.07904720306396484 186.329315185546875
v -216.65263366699218752 -15.12296867370605468 186.329315185546875
v -216.0074615478515625 -13.1373128890991211 186.329315185546875
v -215.260101318359375 -12.38994693756103512 186.329315185546875
v -214.318359375 -11.91010951995849616 186.329315185546875
v -213.274444580078125 -11.74476814270019536 186.329315185546875
v -212.23051452636718752 -11.91010951995849616 186.329315185546875
v -211.288787841796875 -12.38994693756103512 186.329315185546875
v -210.54141235351562496 -13.1373128890991211 186.329315185546875
v -210.06158447265625 -14.07904720306396484 186.329315185546875
v -209.896240234375 -15.12296867370605468 186.329315185546875
v -210.06158447265625 -16.16688919067382812 186.329315185546875
v -210.54141235351562496 -17.10862541198730468 186.329315185546875
v -211.288787841796875 -17.85598945617675776 186.329315185546875
v -212.23051452636718752 -18.33582687377929688 186.329315185546875
v -213.274444580078125 -18.50116920471191408 186.329315185546875
v -214.318359375 -18.33582687377929688 186.329315185546875
v -215.260101318359375 -17.85598945617675776 186.329315185546875
v -216.0074615478515625 -17.10862541198730468 186.329315185546875
v -216.4873046875 -16.16688919067382812 186.329315185546875
v -225.21855163574218752 1.04392123222351074 186.329315185546875
v -225.38389587402343752 2.4077273508282815E-10 186.329315185546875
v -224.73870849609375008 1.98565614223480224 186.329315185546875
v -223.99134826660156256 2.73302125930786128 186.329315185546875
v -223.0496063232421875 3.2128591537475586 186.329315185546875
v -222.0056915283203125 3.3782000541687012 186.329315185546875
v -220.96176147460937504 3.2128591537475586 186.329315185546875
v -220.0200347900390625 2.73302125930786128 186.329315185546875
v -219.272674560546875 1.98565614223480224 186.329315185546875
v -218.79283142089843744 1.04392123222351074 186.329315185546875
v -218.62748718261718752 2.4075852422811295E-10 186.329315185546875
v -218.79283142089843744 -1.04392123222351074 186.329315185546875
v -219.272674560546875 -1.98565614223480224 186.329315185546875
v -220.0200347900390625 -2.73302125930786128 186.329315185546875
v -220.96176147460937504 -3.2128591537475586 186.329315185546875
v -222.0056915283203125 -3.3782000541687012 186.329315185546875
v -223.0496063232421875 -3.2128591537475586 186.329315185546875
v -223.99134826660156256 -2.73302125930786128 186.329315185546875
v -224.73870849609375008 -1.98565614223480224 186.329315185546875
v -225.21855163574218752 -1.04392123222351074 186.329315185546875
v -216.4873046875 16.16688919067382812 186.329315185546875
v -216.65263366699218752 15.12296867370605468 186.329315185546875
v -216.0074615478515625 17.10862541198730468 186.329315185546875
v -215.260101318359375 17.85598945617675776 186.329315185546875
v -214.318359375 18.33582687377929688 186.329315185546875
v -213.274444580078125 18.50116920471191408 186.329315185546875
v -212.23051452636718752 18.33582687377929688 186.329315185546875
v -211.288787841796875 17.85598945617675776 186.329315185546875
v -210.54141235351562496 17.10862541198730468 186.329315185546875
v -210.06158447265625 16.16688919067382812 186.329315185546875
v -209.896240234375 15.12296867370605468 186.329315185546875
v -210.06158447265625 14.07904720306396484 186.329315185546875
v -210.54141235351562496 13.1373128890991211 186.329315185546875
v -211.288787841796875 12.38994693756103512 186.329315185546875
v -212.23051452636718752 11.91010951995849616 186.329315185546875
v -213.274444580078125 11.74476814270019536 186.329315185546875
v -214.318359375 11.91010951995849616 186.329315185546875
v -215.260101318359375 12.38994693756103512 186.329315185546875
v -216.0074615478515625 13.1373128890991211 186.329315185546875
v -216.4873046875 14.07904720306396484 186.329315185546875
v -199.0247955322265625 16.16688919067382812 186.329315185546875
v -199.19013977050781248 15.12296867370605468 186.329315185546875
v -198.54496765136718752 17.10862541198730468 186.329315185546875
v -197.79759216308593744 17.85598945617675776 186.329315185546875
v -196.85586547851562496 18.33582687377929688 186.329315185546875
v -195.81193542480468752 18.50116920471191408 186.329315185546875
v -194.76802062988281248 18.33582687377929688 186.329315185546875
v -193.82627868652343744 17.85598945617675776 186.329315185546875
v -193.07891845703125 17.10862541198730468 186.329315185546875
v -192.59907531738281248 16.16688919067382812 186.329315185546875
v -192.43374633789062496 15.12296867370605468 186.329315185546875
v -192.59907531738281248 14.07904720306396484 186.329315185546875
v -193.07891845703125 13.1373128890991211 186.329315185546875
v -193.82627868652343744 12.38994693756103512 186.329315185546875
v -194.76802062988281248 11.91010951995849616 186.329315185546875
v -195.81193542480468752 11.74476814270019536 186.329315185546875
v -196.85586547851562496 11.91010951995849616 186.329315185546875
v -197.79759216308593744 12.38994693756103512 186.329315185546875
v -198.54496765136718752 13.1373128890991211 186.329315185546875
v -199.0247955322265625 14.07904720306396484 186.329315185546875
v -190.293548583984375 1.04392123222351074 186.329315185546875
v -190.45889282226562496 2.4075852422811295E-10 186.329315185546875
v -189.81370544433593744 1.98565614223480224 186.329315185546875
v -189.06634521484375 2.73302125930786128 186.329315185546875
v -188.124603271484375 3.2128591537475586 186.329315185546875
v -187.0806884765625 3.3782000541687012 186.329315185546875
v -186.036773681640625 3.2128591537475586 186.329315185546875
v -185.09503173828125 2.73302125930786128 186.329315185546875
v -184.34767150878906248 1.98565614223480224 186.329315185546875
v -183.86782836914062496 1.04392123222351074 186.329315185546875
v -183.70248413085937504 2.4073010251868254E-10 186.329315185546875
v -183.86782836914062496 -1.04392123222351074 186.329315185546875
v -184.34767150878906248 -1.98565614223480224 186.329315185546875
v -185.09503173828125 -2.73302125930786128 186.329315185546875
v -186.036773681640625 -3.2128591537475586 186.329315185546875
v -187.0806884765625 -3.3782000541687012 186.329315185546875
v -188.124603271484375 -3.2128591537475586 186.329315185546875
v -189.06634521484375 -2.73302125930786128 186.329315185546875
v -189.81370544433593744 -1.98565614223480224 186.329315185546875
v -190.293548583984375 -1.04392123222351074 186.329315185546875
v -211.55746459960937504 -9.83866119384765632 186.329315185546875
v -213.274444580078125 -9.56671905517578128 186.329315185546875
v -214.99140930175781248 -9.83866119384765632 186.329315185546875
v -216.54031372070312496 -10.6278676986694336 186.329315185546875
v -208.77934265136718752 -11.85708713531494144 186.329315185546875
v -210.0085601806640625 -10.6278676986694336 186.329315185546875
v -217.76954650878906256 -11.85708713531494144 186.329315185546875
v -218.55874633789062496 -13.40599250793457032 186.329315185546875
v -214.99140930175781248 -20.40727615356445312 186.329315185546875
v -213.274444580078125 -20.67921829223632816 186.329315185546875
v -211.55746459960937504 -20.40727615356445312 186.329315185546875
v -210.0085601806640625 -19.61806869506835936 186.329315185546875
v -217.76954650878906256 -18.3888511657714844 186.329315185546875
v -216.54031372070312496 -19.61806869506835936 186.329315185546875
v -207.99012756347656256 -13.40599250793457032 186.329315185546875
v -218.8306884765625 -15.12296867370605468 186.329315185546875
v -218.55874633789062496 -16.83994483947753904 186.329315185546875
v -208.77934265136718752 -18.3888511657714844 186.329315185546875
v -207.99012756347656256 -16.83994483947753904 186.329315185546875
v -207.71818542480468752 -15.12296867370605468 186.329315185546875
v -207.99012756347656256 -16.83994483947753904 192.6793212890625
v -207.71818542480468752 -15.12296867370605468 192.6793212890625
v -208.77934265136718752 -18.3888511657714844 192.6793212890625
v -210.0085601806640625 -19.61806869506835936 192.6793212890625
v -211.55746459960937504 -20.40727615356445312 192.6793212890625
v -213.274444580078125 -20.67921829223632816 192.6793212890625
v -214.99140930175781248 -20.40727615356445312 192.6793212890625
v -216.54031372070312496 -19.61806869506835936 192.6793212890625
v -217.76954650878906256 -18.3888511657714844 192.6793212890625
v -218.55874633789062496 -16.83994483947753904 192.6793212890625
v -218.8306884765625 -15.12296867370605468 192.6793212890625
v -218.55874633789062496 -13.40599250793457032 192.6793212890625
v -217.76954650878906256 -11.85708713531494144 192.6793212890625
v -216.54031372070312496 -10.6278676986694336 192.6793212890625
v -214.99140930175781248 -9.83866119384765632 192.6793212890625
v -213.274444580078125 -9.56671905517578128 192.6793212890625
v -211.55746459960937504 -9.83866119384765632 192.6793212890625
v -210.0085601806640625 -10.6278676986694336 192.6793212890625
v -208.77934265136718752 -11.85708713531494144 192.6793212890625
v -207.99012756347656256 -13.40599250793457032 192.6793212890625
v -220.28871154785156248 5.28430795669555664 186.329315185546875
v -222.0056915283203125 5.55625009536743168 186.329315185546875
v -223.72267150878906256 5.28430795669555664 186.329315185546875
v -225.271575927734375 4.49510049819946288 186.329315185546875
v -217.51058959960937504 3.2658817768096924 186.329315185546875
v -218.73980712890624992 4.49510049819946288 186.329315185546875
v -226.50079345703125 3.2658817768096924 186.329315185546875
v -227.28999328613281248 1.71697568893432616 186.329315185546875
v -223.72267150878906256 -5.28430795669555664 186.329315185546875
v -222.0056915283203125 -5.55625009536743168 186.329315185546875
v -220.28871154785156248 -5.28430795669555664 186.329315185546875
v -218.73980712890624992 -4.49510049819946288 186.329315185546875
v -226.50079345703125 -3.2658817768096924 186.329315185546875
v -225.271575927734375 -4.49510049819946288 186.329315185546875
v -216.72137451171875008 1.71697568893432616 186.329315185546875
v -227.56193542480468752 2.4077273508282815E-10 186.329315185546875
v -227.28999328613281248 -1.71697568893432616 186.329315185546875
v -217.51058959960937504 -3.2658817768096924 186.329315185546875
v -216.72137451171875008 -1.71697568893432616 186.329315185546875
v -216.44943237304687504 2.4075852422811295E-10 186.329315185546875
v -216.72137451171875008 -1.71697568893432616 192.6793212890625
v -216.44943237304687504 2.469686677386562E-10 192.6793212890625
v -217.51058959960937504 -3.2658817768096924 192.6793212890625
v -218.73980712890624992 -4.49510049819946288 192.6793212890625
v -220.28871154785156248 -5.28430795669555664 192.6793212890625
v -222.0056915283203125 -5.55625009536743168 192.6793212890625
v -223.72267150878906256 -5.28430795669555664 192.6793212890625
v -225.271575927734375 -4.49510049819946288 192.6793212890625
v -226.50079345703125 -3.2658817768096924 192.6793212890625
v -227.28999328613281248 -1.71697568893432616 192.6793212890625
v -227.56193542480468752 2.4699708944808663E-10 192.6793212890625
v -227.28999328613281248 1.71697568893432616 192.6793212890625
v -226.50079345703125 3.2658817768096924 192.6793212890625
v -225.271575927734375 4.49510049819946288 192.6793212890625
v -223.72267150878906256 5.28430795669555664 192.6793212890625
v -222.0056915283203125 5.55625009536743168 192.6793212890625
v -220.28871154785156248 5.28430795669555664 192.6793212890625
v -218.73980712890624992 4.49510049819946288 192.6793212890625
v -217.51058959960937504 3.2658817768096924 192.6793212890625
v -216.72137451171875008 1.71697568893432616 192.6793212890625
v -211.55746459960937504 20.40727615356445312 186.329315185546875
v -213.274444580078125 20.67921829223632816 186.329315185546875
v -214.99140930175781248 20.40727615356445312 186.329315185546875
v -216.54031372070312496 19.61806869506835936 186.329315185546875
v -208.77934265136718752 18.3888511657714844 186.329315185546875
v -210.0085601806640625 19.61806869506835936 186.329315185546875
v -217.76954650878906256 18.3888511657714844 186.329315185546875
v -218.55874633789062496 16.83994483947753904 186.329315185546875
v -214.99140930175781248 9.83866119384765632 186.329315185546875
v -213.274444580078125 9.56671905517578128 186.329315185546875
v -211.55746459960937504 9.83866119384765632 186.329315185546875
v -210.0085601806640625 10.6278676986694336 186.329315185546875
v -217.76954650878906256 11.85708713531494144 186.329315185546875
v -216.54031372070312496 10.6278676986694336 186.329315185546875
v -207.99012756347656256 16.83994483947753904 186.329315185546875
v -218.8306884765625 15.12296867370605468 186.329315185546875
v -218.55874633789062496 13.40599250793457032 186.329315185546875
v -208.77934265136718752 11.85708713531494144 186.329315185546875
v -207.99012756347656256 13.40599250793457032 186.329315185546875
v -207.71818542480468752 15.12296867370605468 186.329315185546875
v -207.99012756347656256 13.40599250793457032 192.6793212890625
v -207.71818542480468752 15.12296867370605468 192.6793212890625
v -208.77934265136718752 11.85708713531494144 192.6793212890625
v -210.0085601806640625 10.6278676986694336 192.6793212890625
v -211.55746459960937504 9.83866119384765632 192.6793212890625
v -213.274444580078125 9.56671905517578128 192.6793212890625
v -214.99140930175781248 9.83866119384765632 192.6793212890625
v -216.54031372070312496 10.6278676986694336 192.6793212890625
v -217.76954650878906256 11.85708713531494144 192.6793212890625
v -218.55874633789062496 13.40599250793457032 192.6793212890625
v -218.8306884765625 15.12296867370605468 192.6793212890625
v -218.55874633789062496 16.83994483947753904 192.6793212890625
v -217.76954650878906256 18.3888511657714844 192.6793212890625
v -216.54031372070312496 19.61806869506835936 192.6793212890625
v -214.99140930175781248 20.40727615356445312 192.6793212890625
v -213.274444580078125 20.67921829223632816 192.6793212890625
v -211.55746459960937504 20.40727615356445312 192.6793212890625
v -210.0085601806640625 19.61806869506835936 192.6793212890625
v -208.77934265136718752 18.3888511657714844 192.6793212890625
v -207.99012756347656256 16.83994483947753904 192.6793212890625
v -194.094970703125 20.40727615356445312 186.329315185546875
v -195.81193542480468752 20.67921829223632816 186.329315185546875
v -197.52891540527343752 20.40727615356445312 186.329315185546875
v -199.07781982421875 19.61806869506835936 186.329315185546875
v -191.31683349609375 18.3888511657714844 186.329315185546875
v -192.54605102539062496 19.61806869506835936 186.329315185546875
v -200.307037353515625 18.3888511657714844 186.329315185546875
v -201.09625244140625 16.83994483947753904 186.329315185546875
v -197.52891540527343752 9.83866119384765632 186.329315185546875
v -195.81193542480468752 9.56671905517578128 186.329315185546875
v -194.094970703125 9.83866119384765632 186.329315185546875
v -192.54605102539062496 10.6278676986694336 186.329315185546875
v -200.307037353515625 11.85708713531494144 186.329315185546875
v -199.07781982421875 10.6278676986694336 186.329315185546875
v -190.52763366699218752 16.83994483947753904 186.329315185546875
v -201.36819458007812496 15.12296867370605468 186.329315185546875
v -201.09625244140625 13.40599250793457032 186.329315185546875
v -191.31683349609375 11.85708713531494144 186.329315185546875
v -190.52763366699218752 13.40599250793457032 186.329315185546875
v -190.25569152832031248 15.12296867370605468 186.329315185546875
v -190.52763366699218752 13.40599250793457032 192.6793212890625
v -190.25569152832031248 15.12296867370605468 192.6793212890625
v -191.31683349609375 11.85708713531494144 192.6793212890625
v -192.54605102539062496 10.6278676986694336 192.6793212890625
v -194.094970703125 9.83866119384765632 192.6793212890625
v -195.81193542480468752 9.56671905517578128 192.6793212890625
v -197.52891540527343752 9.83866119384765632 192.6793212890625
v -199.07781982421875 10.6278676986694336 192.6793212890625
v -200.307037353515625 11.85708713531494144 192.6793212890625
v -201.09625244140625 13.40599250793457032 192.6793212890625
v -201.36819458007812496 15.12296867370605468 192.6793212890625
v -201.09625244140625 16.83994483947753904 192.6793212890625
v -200.307037353515625 18.3888511657714844 192.6793212890625
v -199.07781982421875 19.61806869506835936 192.6793212890625
v -197.52891540527343752 20.40727615356445312 192.6793212890625
v -195.81193542480468752 20.67921829223632816 192.6793212890625
v -194.094970703125 20.40727615356445312 192.6793212890625
v -192.54605102539062496 19.61806869506835936 192.6793212890625
v -191.31683349609375 18.3888511657714844 192.6793212890625
v -190.52763366699218752 16.83994483947753904 192.6793212890625
v -185.36370849609375 5.28430795669555664 186.329315185546875
v -187.0806884765625 5.55625009536743168 186.329315185546875
v -188.79766845703124992 5.28430795669555664 186.329315185546875
v -190.34657287597656248 4.49510049819946288 186.329315185546875
v -182.58558654785156248 3.2658817768096924 186.329315185546875
v -183.81480407714843744 4.49510049819946288 186.329315185546875
v -191.57579040527343752 3.2658817768096924 186.329315185546875
v -192.364990234375 1.71697568893432616 186.329315185546875
v -188.79766845703124992 -5.28430795669555664 186.329315185546875
v -187.0806884765625 -5.55625009536743168 186.329315185546875
v -185.36370849609375 -5.28430795669555664 186.329315185546875
v -183.81480407714843744 -4.49510049819946288 186.329315185546875
v -191.57579040527343752 -3.2658817768096924 186.329315185546875
v -190.34657287597656248 -4.49510049819946288 186.329315185546875
v -181.79638671875 1.71697568893432616 186.329315185546875
v -192.63693237304687504 2.4075852422811295E-10 186.329315185546875
v -192.364990234375 -1.71697568893432616 186.329315185546875
v -182.58558654785156248 -3.2658817768096924 186.329315185546875
v -181.79638671875 -1.71697568893432616 186.329315185546875
v -181.52444458007812496 2.4073010251868254E-10 186.329315185546875
v -181.79638671875 -1.71697568893432616 192.6793212890625
v -181.52444458007812496 2.469402460292258E-10 192.6793212890625
v -182.58558654785156248 -3.2658817768096924 192.6793212890625
v -183.81480407714843744 -4.49510049819946288 192.6793212890625
v -185.36370849609375 -5.28430795669555664 192.6793212890625
v -187.0806884765625 -5.55625009536743168 192.6793212890625
v -188.79766845703124992 -5.28430795669555664 192.6793212890625
v -190.34657287597656248 -4.49510049819946288 192.6793212890625
v -191.57579040527343752 -3.2658817768096924 192.6793212890625
v -192.364990234375 -1.71697568893432616 192.6793212890625
v -192.63693237304687504 2.469686677386562E-10 192.6793212890625
v -192.364990234375 1.71697568893432616 192.6793212890625
v -191.57579040527343752 3.2658817768096924 192.6793212890625
v -190.34657287597656248 4.49510049819946288 192.6793212890625
v -188.79766845703124992 5.28430795669555664 192.6793212890625
v -187.0806884765625 5.55625009536743168 192.6793212890625
v -185.36370849609375 5.28430795669555664 192.6793212890625
v -183.81480407714843744 4.49510049819946288 192.6793212890625
v -182.58558654785156248 3.2658817768096924 192.6793212890625
v -181.79638671875 1.71697568893432616 192.6793212890625
v -204.54318237304687504 -7.56148433685302736 192.6793212890625
v -204.54318237304687504 7.56148433685302736 192.6793212890625
v -212.0838165283203125 7.56148433685302736 192.6793212890625
v -185.89006042480468752 7.56148433685302736 192.6793212890625
v -223.196319580078125 7.56148433685302736 192.6793212890625
v -223.196319580078125 -7.56148433685302736 192.6793212890625
v -185.89006042480468752 -7.56148433685302736 192.6793212890625
v -147.56297302246093752 92.79435729980468752 192.6793212890625
v -107.06099700927734375 164.90950012207031248 192.6793212890625
v 31.75 164.90950012207031248 192.6793212890625
v -113.53492736816406248 170.51919555664062496 192.6793212890625
v -113.60150146484375 171.44999694824218752 192.6793212890625
v -108.90367126464843744 165.1744384765625 192.6793212890625
v 33.59267044067382816 165.1744384765625 192.6793212890625
v -113.53492736816406248 172.38081359863281248 192.6793212890625
v -113.01044464111328125 174.167022705078125 192.6793212890625
v -107.06099700927734375 177.99049377441406256 192.6793212890625
v 31.75 177.99049377441406256 192.6793212890625
v 35.28606033325195312 165.94778442382812496 192.6793212890625
v 37.69944763183593752 174.167022705078125 192.6793212890625
v 38.22392654418945312 172.38081359863281248 192.6793212890625
v -113.01044464111328125 168.73297119140624992 192.6793212890625
v -110.59706115722656248 165.94778442382812496 192.6793212890625
v -112.0039825439453125 167.1668853759765625 192.6793212890625
v 36.69298171997070312 175.73312377929687504 192.6793212890625
v 33.59267044067382816 177.72557067871093744 192.6793212890625
v 35.28606033325195312 176.95222473144531248 192.6793212890625
v -108.90367126464843744 177.72557067871093744 192.6793212890625
v -112.0039825439453125 175.73312377929687504 192.6793212890625
v -110.59706115722656248 176.95222473144531248 192.6793212890625
v 37.69944763183593752 168.73297119140624992 192.6793212890625
v 36.69298171997070312 167.1668853759765625 192.6793212890625
v 38.29050064086914064 171.44999694824218752 192.6793212890625
v 38.22392654418945312 170.51919555664062496 192.6793212890625
v -212.0838165283203125 -7.56148433685302736 192.6793212890625
v 31.75 164.90950012207031248 183.154327392578125
v -107.06099700927734375 164.90950012207031248 183.154327392578125
v -107.06099700927734375 177.99049377441406256 183.154327392578125
v 31.75 177.99049377441406256 183.154327392578125
v 33.59267044067382816 177.72557067871093744 183.154327392578125
v 35.28606033325195312 176.95222473144531248 183.154327392578125
v 36.69298171997070312 175.73312377929687504 183.154327392578125
v 37.69944763183593752 174.167022705078125 183.154327392578125
v 38.29050064086914064 171.44999694824218752 183.154327392578125
v 38.22392654418945312 172.38081359863281248 183.154327392578125
v 38.22392654418945312 170.51919555664062496 183.154327392578125
v 37.69944763183593752 168.73297119140624992 183.154327392578125
v 36.69298171997070312 167.1668853759765625 183.154327392578125
v 35.28606033325195312 165.94778442382812496 183.154327392578125
v 33.59267044067382816 165.1744384765625 183.154327392578125
v -108.90367126464843744 165.1744384765625 183.154327392578125
v -110.59706115722656248 165.94778442382812496 183.154327392578125
v -112.0039825439453125 167.1668853759765625 183.154327392578125
v -113.01044464111328125 168.73297119140624992 183.154327392578125
v -113.60150146484375 171.44999694824218752 183.154327392578125
v -113.53492736816406248 170.51919555664062496 183.154327392578125
v -113.53492736816406248 172.38081359863281248 183.154327392578125
v -113.01044464111328125 174.167022705078125 183.154327392578125
v -112.0039825439453125 175.73312377929687504 183.154327392578125
v -110.59706115722656248 176.95222473144531248 183.154327392578125
v -108.90367126464843744 177.72557067871093744 183.154327392578125
v 34.96286010742187504 170.40608215332031248 176.8043212890625
v 35.12820053100585938 171.44999694824218752 176.8043212890625
v -107.06099700927734375 168.0717926025390625 176.8043212890625
v 31.75 168.0717926025390625 176.8043212890625
v 31.75 174.82820129394531248 176.8043212890625
v -107.06099700927734375 174.82820129394531248 176.8043212890625
v 32.79392242431640624 174.66285705566406248 176.8043212890625
v -108.10491943359375 174.66285705566406248 176.8043212890625
v 34.96286010742187504 172.49392700195312496 176.8043212890625
v -108.10491943359375 168.23713684082031248 176.8043212890625
v 34.48302078247070312 173.43565368652343752 176.8043212890625
v 32.79392242431640624 168.23713684082031248 176.8043212890625
v 33.73565673828124992 174.183013916015625 176.8043212890625
v 34.48302078247070312 169.46434020996093752 176.8043212890625
v -109.04665374755859375 168.71697998046875 176.8043212890625
v 33.73565673828124992 168.71697998046875 176.8043212890625
v -110.27385711669921876 170.40608215332031248 176.8043212890625
v -109.79402160644531248 169.46434020996093752 176.8043212890625
v -110.27385711669921876 172.49392700195312496 176.8043212890625
v -110.43920135498046872 171.44999694824218752 176.8043212890625
v -109.04665374755859375 174.183013916015625 176.8043212890625
v -109.79402160644531248 173.43565368652343752 176.8043212890625
v 31.75 174.82820129394531248 183.154327392578125
v -107.06099700927734375 174.82820129394531248 183.154327392578125
v -110.43920135498046872 171.44999694824218752 183.154327392578125
v -110.27385711669921876 172.49392700195312496 183.154327392578125
v -110.27385711669921876 170.40608215332031248 183.154327392578125
v -107.06099700927734375 168.0717926025390625 183.154327392578125
v 31.75 168.0717926025390625 183.154327392578125
v -108.10491943359375 174.66285705566406248 183.154327392578125
v -109.79402160644531248 169.46434020996093752 183.154327392578125
v -109.04665374755859375 168.71697998046875 183.154327392578125
v 32.79392242431640624 168.23713684082031248 183.154327392578125
v 32.79392242431640624 174.66285705566406248 183.154327392578125
v -109.79402160644531248 173.43565368652343752 183.154327392578125
v -109.04665374755859375 174.183013916015625 183.154327392578125
v -108.10491943359375 168.23713684082031248 183.154327392578125
v 33.73565673828124992 168.71697998046875 183.154327392578125
v 34.96286010742187504 172.49392700195312496 183.154327392578125
v 34.48302078247070312 169.46434020996093752 183.154327392578125
v 35.12820053100585938 171.44999694824218752 183.154327392578125
v 34.96286010742187504 170.40608215332031248 183.154327392578125
v 34.48302078247070312 173.43565368652343752 183.154327392578125
v 33.73565673828124992 174.183013916015625 183.154327392578125
# 708 vertices

vn -0.9876883625984192 0.15643446147441864 0
vn -0.8910065293312072 0.45399048924446104 0
vn -0.7071067690849304 0.7071067690849304 0
vn -0.45399048924446104 0.8910065293312072 0
vn -0.15643446147441864 0.9876883625984192 0
vn 0.15643446147441864 0.9876883625984192 0
vn 0.45399048924446104 0.8910065293312072 0
vn 0.7071067690849304 0.7071067690849304 0
vn 0.8910065293312072 0.45399048924446104 0
vn 0.9876883625984192 0.15643446147441864 0
vn 0.9876883625984192 -0.15643446147441864 0
vn 0.8910065293312072 -0.45399048924446104 0
vn 0.7071067690849304 -0.7071067690849304 0
vn 0.45399048924446104 -0.8910065293312072 0
vn 0.15643446147441864 -0.9876883625984192 0
vn -0.15643446147441864 -0.9876883625984192 0
vn -0.45399048924446104 -0.8910065293312072 0
vn -0.7071067690849304 -0.7071067690849304 0
vn -0.8910065293312072 -0.45399048924446104 0
vn -0.9876883625984192 -0.15643446147441864 0
vn 0 0 1
vn 0 0 -1
vn -0.83648246526718144 0.54799365997314456 0
vn -0.74357205629348752 0.66865581274032592 0
vn -0.63341689109802248 0.77381074428558352 0
vn -0.50857174396514896 0.86101961135864256 0
vn -0.37193194031715392 0.92825996875762944 0
vn -0.22666642069816588 0.97397243976593024 0
vn -0.07614411413669586 0.99709683656692512 0
vn 0 1 0
vn -0.87578052282333376 0.4827095568180084 0
vn -0.91095370054244992 0.4125085771083832 0
vn -0.96426892280578608 0.26492536067962648 0
vn -0.99384063482284544 0.1108187809586525 0
vn -0.99806082248687744 -0.06224602460861206 0
vn -0.99986791610717776 0.01625281199812889 0
vn -0.97944349050521856 -0.20171871781349184 0
vn -0.93582916259765632 -0.35245394706726076 0
vn -0.8691716194152832 -0.49451059103012088 0
vn -0.78111213445663456 -0.62439072132110592 0
vn -0.67381912469863888 -0.73889631032943728 0
vn -0.549934446811676 -0.83520781993865968 0
vn -0.4125085771083832 -0.91095370054244992 0
vn -0.26492536067962648 -0.96426892280578608 0
vn -0.1108187809586525 -0.99384063482284544 0
vn 0.04601633921265602 -0.99893701076507568 0.00270350347273051
vn -0.0162061657756567 -0.99986869096755984 0
vn 0.20171871781349184 -0.97944349050521856 0
vn 0.35245394706726076 -0.93582916259765632 0
vn 0.49451059103012088 -0.8691716194152832 0
vn 0.62439072132110592 -0.78111213445663456 0
vn 0.73889631032943728 -0.67381912469863888 0
vn 0.83520781993865968 -0.549934446811676 0
vn 0.06229258328676224 -0.99805790185928352 0
vn 0.87578052282333376 -0.4827095568180084 0
vn 0.84879279136657712 -0.52872562408447264 0
vn 0.78765451908111568 -0.61611717939376832 0
vn 0.71755653619766232 -0.6965002417564392 0
vn 0.63929629325866696 -0.76896053552627568 0
vn 0.55376386642456056 -0.83267372846603392 0
vn 0.46193233132362368 -0.88691514730453488 0
vn 0.36484622955322264 -0.93106776475906368 0
vn 0.263609915971756 -0.96462935209274288 0
vn 0.15937502682209014 -0.98721814155578608 0
vn 0.05332721024751663 -0.99857711791992192 0
vn 0 -1 0
vn 1 0 0
vn -0.1423148363828659 -0.98982143402099616 0
vn -0.4154150187969208 -0.90963196754455568 0
vn -0.6548607349395752 -0.75574958324432368 0
vn -0.84125351905822752 -0.54064083099365232 0
vn -0.95949298143386848 -0.28173255920410156 0
vn -0.9974521398544312 0.07133918255567551 0
vn -0.9974521398544312 -0.07133918255567551 0
vn -0.95949298143386848 0.28173255920410156 0
vn -0.84125351905822752 0.54064083099365232 0
vn -0.6548607349395752 0.75574958324432368 0
vn -0.4154150187969208 0.90963196754455568 0
vn -0.1423148363828659 0.98982143402099616 0
vn 0.1423148363828659 0.98982143402099616 0
vn 0.4154150187969208 0.90963196754455568 0
vn 0.6548607349395752 0.75574958324432368 0
vn 0.84125351905822752 0.54064083099365232 0
vn 0.95949298143386848 0.28173255920410156 0
vn 0.9974521398544312 -0.07133918255567551 0
vn 0.9974521398544312 0.07133918255567551 0
vn 0.95949298143386848 -0.28173255920410156 0
vn 0.84125351905822752 -0.54064083099365232 0
vn 0.6548607349395752 -0.75574958324432368 0
vn 0.4154150187969208 -0.90963196754455568 0
vn 0.1423148363828659 -0.98982143402099616 0
# 91 vertex normals

g obj_29722616
s 1
f 1//1 2//1 3//1
f 4//2 1//2 5//2
f 6//3 4//3 7//3
f 8//4 6//4 9//4
f 10//5 8//5 11//5
f 12//6 10//6 13//6
f 14//7 12//7 15//7
f 16//8 14//8 17//8
f 18//9 16//9 19//9
f 20//10 18//10 21//10
f 21//10 22//10 20//10
f 19//9 21//9 18//9
f 17//8 19//8 16//8
f 15//7 17//7 14//7
f 13//6 15//6 12//6
f 11//5 13//5 10//5
f 9//4 11//4 8//4
f 7//3 9//3 6//3
f 5//2 7//2 4//2
f 3//1 5//1 1//1
f 23//11 20//11 22//11
f 24//12 23//12 25//12
f 26//13 24//13 27//13
f 28//14 26//14 29//14
f 30//15 28//15 31//15
f 32//16 30//16 33//16
f 34//17 32//17 35//17
f 36//18 34//18 37//18
f 38//19 36//19 39//19
f 2//20 38//20 40//20
f 40//20 3//20 2//20
f 39//19 40//19 38//19
f 37//18 39//18 36//18
f 35//17 37//17 34//17
f 33//16 35//16 32//16
f 31//15 33//15 30//15
f 29//14 31//14 28//14
f 27//13 29//13 26//13
f 25//12 27//12 24//12
f 22//11 25//11 23//11
f 35//21 41//21 42//21
f 33//21 43//21 41//21
f 33//21 31//21 44//21
f 31//21 29//21 45//21
f 39//21 46//21 47//21
f 37//21 42//21 46//21
f 41//21 35//21 33//21
f 45//21 44//21 31//21
f 46//21 39//21 37//21
f 44//21 43//21 33//21
f 29//21 27//21 48//21
f 27//21 25//21 49//21
f 15//21 50//21 51//21
f 13//21 52//21 50//21
f 13//21 11//21 53//21
f 11//21 9//21 54//21
f 42//21 37//21 35//21
f 49//21 48//21 27//21
f 19//21 55//21 56//21
f 17//21 51//21 55//21
f 50//21 15//21 13//21
f 54//21 53//21 11//21
f 40//21 47//21 57//21
f 48//21 45//21 29//21
f 25//21 22//21 58//21
f 21//21 56//21 58//21
f 55//21 19//21 17//21
f 53//21 52//21 13//21
f 9//21 7//21 59//21
f 7//21 5//21 60//21
f 47//21 40//21 39//21
f 58//21 22//21 21//21
f 51//21 17//21 15//21
f 60//21 59//21 7//21
f 58//21 49//21 25//21
f 59//21 54//21 9//21
f 56//21 21//21 19//21
f 5//21 3//21 57//21
f 57//21 60//21 5//21
f 57//21 3//21 40//21
f 49//11 58//11 61//11
f 48//12 49//12 62//12
f 45//13 48//13 63//13
f 44//14 45//14 64//14
f 43//15 44//15 65//15
f 41//16 43//16 66//16
f 42//17 41//17 67//17
f 46//18 42//18 68//18
f 47//19 46//19 69//19
f 57//20 47//20 70//20
f 70//20 71//20 57//20
f 69//19 70//19 47//19
f 68//18 69//18 46//18
f 67//17 68//17 42//17
f 66//16 67//16 41//16
f 65//15 66//15 43//15
f 64//14 65//14 44//14
f 63//13 64//13 45//13
f 62//12 63//12 48//12
f 61//11 62//11 49//11
f 60//1 57//1 71//1
f 59//2 60//2 72//2
f 54//3 59//3 73//3
f 53//4 54//4 74//4
f 52//5 53//5 75//5
f 50//6 52//6 76//6
f 51//7 50//7 77//7
f 55//8 51//8 78//8
f 56//9 55//9 79//9
f 58//10 56//10 80//10
f 80//10 61//10 58//10
f 79//9 80//9 56//9
f 78//8 79//8 55//8
f 77//7 78//7 51//7
f 76//6 77//6 50//6
f 75//5 76//5 52//5
f 74//4 75//4 53//4
f 73//3 74//3 54//3
f 72//2 73//2 59//2
f 71//1 72//1 60//1
f 81//22 82//22 83//22
f 82//22 84//22 85//22
f 86//22 81//22 87//22
f 88//22 89//22 90//22
f 87//22 91//22 86//22
f 81//22 92//22 93//22
f 88//22 94//22 95//22
f 89//22 96//22 90//22
f 86//22 97//22 98//22
f 93//22 87//22 81//22
f 88//22 99//22 100//22
f 90//22 94//22 88//22
f 89//22 86//22 101//22
f 91//22 97//22 86//22
f 81//22 102//22 103//22
f 95//22 99//22 88//22
f 89//22 104//22 105//22
f 101//22 106//22 89//22
f 103//22 92//22 81//22
f 88//22 107//22 108//22
f 105//22 96//22 89//22
f 98//22 101//22 86//22
f 100//22 107//22 88//22
f 81//22 108//22 102//22
f 106//22 104//22 89//22
f 81//22 109//22 110//22
f 81//22 111//22 109//22
f 81//22 86//22 111//22
f 112//22 78//22 77//22
f 113//22 75//22 74//22
f 113//22 114//22 76//22
f 77//22 114//22 112//22
f 82//22 81//22 66//22
f 76//22 75//22 113//22
f 112//22 115//22 78//22
f 66//22 65//22 82//22
f 81//22 68//22 67//22
f 116//22 74//22 73//22
f 77//22 76//22 114//22
f 82//22 64//22 63//22
f 67//22 66//22 81//22
f 81//22 116//22 71//22
f 74//22 116//22 113//22
f 115//22 80//22 79//22
f 65//22 64//22 82//22
f 81//22 70//22 69//22
f 116//22 72//22 71//22
f 79//22 78//22 115//22
f 69//22 68//22 81//22
f 73//22 72//22 116//22
f 115//22 82//22 61//22
f 63//22 62//22 82//22
f 61//22 80//22 115//22
f 71//22 70//22 81//22
f 117//22 118//22 119//22
f 120//22 119//22 121//22
f 121//22 122//22 123//22
f 82//22 124//22 125//22
f 126//22 115//22 118//22
f 121//22 127//22 120//22
f 122//22 128//22 123//22
f 84//22 125//22 129//22
f 82//22 130//22 124//22
f 118//22 117//22 126//22
f 123//22 127//22 121//22
f 131//22 132//22 128//22
f 84//22 133//22 134//22
f 125//22 84//22 82//22
f 115//22 135//22 136//22
f 119//22 120//22 117//22
f 131//22 137//22 132//22
f 129//22 133//22 84//22
f 82//22 138//22 139//22
f 136//22 82//22 115//22
f 128//22 122//22 131//22
f 131//22 84//22 140//22
f 139//22 130//22 82//22
f 126//22 135//22 115//22
f 134//22 140//22 84//22
f 131//22 141//22 137//22
f 136//22 138//22 82//22
f 84//22 131//22 142//22
f 142//22 143//22 84//22
f 84//22 144//22 145//22
f 146//22 85//22 147//22
f 145//22 148//22 84//22
f 144//22 149//22 150//22
f 151//22 152//22 153//22
f 154//22 152//22 151//22
f 147//22 155//22 146//22
f 85//22 156//22 157//22
f 84//22 158//22 159//22
f 150//22 145//22 144//22
f 149//22 144//22 160//22
f 161//22 162//22 163//22
f 151//22 146//22 154//22
f 157//22 147//22 85//22
f 84//22 164//22 165//22
f 148//22 158//22 84//22
f 163//22 160//22 161//22
f 155//22 154//22 146//22
f 85//22 166//22 167//22
f 165//22 85//22 84//22
f 160//22 163//22 149//22
f 168//22 153//22 169//22
f 167//22 156//22 85//22
f 159//22 164//22 84//22
f 170//22 169//22 162//22
f 153//22 168//22 151//22
f 162//22 161//22 170//22
f 165//22 166//22 85//22
f 85//22 146//22 171//22
f 83//22 85//22 172//22
f 173//22 174//22 175//22
f 172//22 176//22 83//22
f 85//22 177//22 178//22
f 175//22 179//22 173//22
f 179//22 180//22 181//22
f 83//22 182//22 183//22
f 178//22 172//22 85//22
f 175//22 184//22 185//22
f 181//22 173//22 179//22
f 83//22 186//22 187//22
f 176//22 182//22 83//22
f 85//22 188//22 189//22
f 174//22 184//22 175//22
f 179//22 187//22 190//22
f 83//22 191//22 186//22
f 189//22 177//22 85//22
f 175//22 192//22 193//22
f 190//22 180//22 179//22
f 183//22 191//22 83//22
f 185//22 192//22 175//22
f 85//22 193//22 188//22
f 187//22 179//22 83//22
f 83//22 194//22 195//22
f 196//22 197//22 179//22
f 88//22 195//22 198//22
f 83//22 199//22 194//22
f 179//22 200//22 196//22
f 200//22 201//22 202//22
f 88//22 203//22 204//22
f 195//22 88//22 83//22
f 179//22 205//22 206//22
f 202//22 196//22 200//22
f 200//22 88//22 207//22
f 198//22 203//22 88//22
f 83//22 208//22 209//22
f 197//22 205//22 179//22
f 200//22 210//22 211//22
f 88//22 212//22 207//22
f 209//22 199//22 83//22
f 83//22 179//22 213//22
f 211//22 201//22 200//22
f 204//22 212//22 88//22
f 206//22 213//22 179//22
f 83//22 214//22 208//22
f 207//22 210//22 200//22
f 200//22 215//22 89//22
f 89//22 88//22 200//22
f 216//22 217//22 218//22
f 219//22 220//22 221//22
f 222//22 223//22 224//22
f 222//22 225//22 226//22
f 219//22 227//22 220//22
f 224//22 228//22 222//22
f 222//22 229//22 225//22
f 221//22 222//22 219//22
f 230//22 231//22 232//22
f 222//22 233//22 234//22
f 222//22 235//22 236//22
f 222//22 237//22 223//22
f 221//22 229//22 222//22
f 222//22 238//22 230//22
f 234//22 239//22 222//22
f 236//22 240//22 222//22
f 226//22 237//22 222//22
f 239//22 238//22 222//22
f 228//22 235//22 222//22
f 222//22 240//22 233//22
f 217//22 232//22 241//22
f 232//22 231//22 242//22
f 232//22 222//22 230//22
f 242//22 241//22 232//22
f 241//22 218//22 217//22
f 243//22 227//22 219//22
f 219//22 244//22 243//22
f 236//22 215//22 240//22
f 218//22 245//22 216//22
f 200//22 240//22 215//22
f 213//22 214//22 83//22
f 193//22 85//22 175//22
f 171//22 175//22 85//22
f 169//22 170//22 168//22
f 143//22 144//22 84//22
f 140//22 141//22 131//22
f 62//22 61//22 82//22
f 110//22 116//22 81//22
f 108//22 81//22 88//22
f 85//22 83//22 82//22
f 83//22 88//22 81//22
f 233//23 246//23 247//23
f 234//24 247//24 248//24
f 239//25 248//25 249//25
f 238//26 249//26 250//26
f 230//27 250//27 251//27
f 231//28 251//28 252//28
f 242//29 252//29 253//29
f 253//29 241//29 242//29
f 252//28 242//28 231//28
f 251//27 231//27 230//27
f 250//26 230//26 238//26
f 249//25 238//25 239//25
f 248//24 239//24 234//24
f 247//23 234//23 233//23
f 254//30 245//30 218//30
f 218//30 253//30 254//30
f 218//30 241//30 253//30
f 240//31 255//31 256//31
f 256//31 233//31 240//31
f 200//31 257//31 255//31
f 255//31 240//31 200//31
f 258//31 257//31 200//31
f 200//31 179//31 258//31
f 179//31 175//31 259//31
f 259//31 258//31 179//31
f 260//31 259//31 175//31
f 175//31 171//31 260//31
f 171//31 261//31 260//31
f 256//31 246//31 233//31
f 261//32 171//32 146//32
f 262//33 146//33 151//33
f 263//34 151//34 168//34
f 264//35 265//35 170//35
f 168//36 170//36 265//36
f 265//36 266//36 168//36
f 264//37 161//37 160//37
f 267//38 160//38 144//38
f 268//39 144//39 143//39
f 269//40 143//40 142//40
f 270//41 142//41 131//41
f 271//42 131//42 122//42
f 272//43 122//43 121//43
f 273//44 121//44 119//44
f 274//45 119//45 118//45
f 275//46 276//46 115//46
f 276//47 118//47 115//47
f 275//48 112//48 114//48
f 277//49 114//49 113//49
f 278//50 113//50 116//50
f 279//51 116//51 110//51
f 280//52 110//52 109//52
f 281//53 109//53 111//53
f 111//53 282//53 281//53
f 109//52 281//52 280//52
f 110//51 280//51 279//51
f 116//50 279//50 278//50
f 113//49 278//49 277//49
f 114//48 277//48 275//48
f 115//54 112//54 275//54
f 118//45 276//45 274//45
f 119//44 274//44 273//44
f 121//43 273//43 272//43
f 122//42 272//42 271//42
f 131//41 271//41 270//41
f 142//40 270//40 269//40
f 143//39 269//39 268//39
f 144//38 268//38 267//38
f 160//37 267//37 264//37
f 170//35 161//35 264//35
f 168//34 266//34 263//34
f 151//33 263//33 262//33
f 146//32 262//32 261//32
f 215//55 283//55 284//55
f 285//55 283//55 215//55
f 284//55 89//55 215//55
f 111//55 86//55 286//55
f 287//55 286//55 86//55
f 284//55 287//55 89//55
f 86//55 89//55 287//55
f 286//55 282//55 111//55
f 215//55 236//55 285//55
f 288//56 285//56 236//56
f 289//57 288//57 235//57
f 290//58 289//58 228//58
f 291//59 290//59 224//59
f 292//60 291//60 223//60
f 293//61 292//61 237//61
f 294//62 293//62 226//62
f 295//63 294//63 225//63
f 296//64 295//64 229//64
f 297//65 296//65 221//65
f 221//65 220//65 297//65
f 229//64 221//64 296//64
f 225//63 229//63 295//63
f 226//62 225//62 294//62
f 237//61 226//61 293//61
f 223//60 237//60 292//60
f 224//59 223//59 291//59
f 228//58 224//58 290//58
f 235//57 228//57 289//57
f 236//56 235//56 288//56
f 298//66 297//66 227//66
f 297//66 220//66 227//66
f 227//66 243//66 298//66
f 299//67 298//67 300//67
f 245//67 254//67 301//67
f 301//67 254//67 299//67
f 300//67 301//67 299//67
f 243//67 244//67 300//67
f 300//67 298//67 243//67
f 301//67 216//67 245//67
f 300//30 244//30 219//30
f 219//30 302//30 300//30
f 219//30 222//30 302//30
f 301//66 303//66 217//66
f 303//66 232//66 217//66
f 217//66 216//66 301//66
f 222//67 232//67 303//67
f 303//67 302//67 222//67
f 304//11 305//11 141//11
f 306//12 304//12 140//12
f 307//13 306//13 134//13
f 308//14 307//14 133//14
f 309//15 308//15 129//15
f 310//16 309//16 125//16
f 311//17 310//17 124//17
f 312//18 311//18 130//18
f 313//19 312//19 139//19
f 314//20 313//20 138//20
f 138//20 136//20 314//20
f 139//19 138//19 313//19
f 130//18 139//18 312//18
f 124//17 130//17 311//17
f 125//16 124//16 310//16
f 129//15 125//15 309//15
f 133//14 129//14 308//14
f 134//13 133//13 307//13
f 140//12 134//12 306//12
f 141//11 140//11 304//11
f 315//1 314//1 136//1
f 316//2 315//2 135//2
f 317//3 316//3 126//3
f 318//4 317//4 117//4
f 319//5 318//5 120//5
f 320//6 319//6 127//6
f 321//7 320//7 123//7
f 322//8 321//8 128//8
f 323//9 322//9 132//9
f 305//10 323//10 137//10
f 137//10 141//10 305//10
f 132//9 137//9 323//9
f 128//8 132//8 322//8
f 123//7 128//7 321//7
f 127//6 123//6 320//6
f 120//5 127//5 319//5
f 117//4 120//4 318//4
f 126//3 117//3 317//3
f 135//2 126//2 316//2
f 136//1 135//1 315//1
f 324//11 325//11 169//11
f 326//12 324//12 153//12
f 327//13 326//13 152//13
f 328//14 327//14 154//14
f 329//15 328//15 155//15
f 330//16 329//16 147//16
f 331//17 330//17 157//17
f 332//18 331//18 156//18
f 333//19 332//19 167//19
f 334//20 333//20 166//20
f 166//20 165//20 334//20
f 167//19 166//19 333//19
f 156//18 167//18 332//18
f 157//17 156//17 331//17
f 147//16 157//16 330//16
f 155//15 147//15 329//15
f 154//14 155//14 328//14
f 152//13 154//13 327//13
f 153//12 152//12 326//12
f 169//11 153//11 324//11
f 335//1 334//1 165//1
f 336//2 335//2 164//2
f 337//3 336//3 159//3
f 338//4 337//4 158//4
f 339//5 338//5 148//5
f 340//6 339//6 145//6
f 341//7 340//7 150//7
f 342//8 341//8 149//8
f 343//9 342//9 163//9
f 325//10 343//10 162//10
f 162//10 169//10 325//10
f 163//9 162//9 343//9
f 149//8 163//8 342//8
f 150//7 149//7 341//7
f 145//6 150//6 340//6
f 148//5 145//5 339//5
f 158//4 148//4 338//4
f 159//3 158//3 337//3
f 164//2 159//2 336//2
f 165//1 164//1 335//1
f 344//11 345//11 193//11
f 346//12 344//12 192//12
f 347//13 346//13 185//13
f 348//14 347//14 184//14
f 349//15 348//15 174//15
f 350//16 349//16 173//16
f 351//17 350//17 181//17
f 352//18 351//18 180//18
f 353//19 352//19 190//19
f 354//20 353//20 187//20
f 187//20 186//20 354//20
f 190//19 187//19 353//19
f 180//18 190//18 352//18
f 181//17 180//17 351//17
f 173//16 181//16 350//16
f 174//15 173//15 349//15
f 184//14 174//14 348//14
f 185//13 184//13 347//13
f 192//12 185//12 346//12
f 193//11 192//11 344//11
f 355//1 354//1 186//1
f 356//2 355//2 191//2
f 357//3 356//3 183//3
f 358//4 357//4 182//4
f 359//5 358//5 176//5
f 360//6 359//6 172//6
f 361//7 360//7 178//7
f 362//8 361//8 177//8
f 363//9 362//9 189//9
f 345//10 363//10 188//10
f 188//10 193//10 345//10
f 189//9 188//9 363//9
f 177//8 189//8 362//8
f 178//7 177//7 361//7
f 172//6 178//6 360//6
f 176//5 172//5 359//5
f 182//4 176//4 358//4
f 183//3 182//3 357//3
f 191//2 183//2 356//2
f 186//1 191//1 355//1
f 364//11 365//11 214//11
f 366//12 364//12 213//12
f 367//13 366//13 206//13
f 368//14 367//14 205//14
f 369//15 368//15 197//15
f 370//16 369//16 196//16
f 371//17 370//17 202//17
f 372//18 371//18 201//18
f 373//19 372//19 211//19
f 374//20 373//20 210//20
f 210//20 207//20 374//20
f 211//19 210//19 373//19
f 201//18 211//18 372//18
f 202//17 201//17 371//17
f 196//16 202//16 370//16
f 197//15 196//15 369//15
f 205//14 197//14 368//14
f 206//13 205//13 367//13
f 213//12 206//12 366//12
f 214//11 213//11 364//11
f 375//1 374//1 207//1
f 376//2 375//2 212//2
f 377//3 376//3 204//3
f 378//4 377//4 203//4
f 379//5 378//5 198//5
f 380//6 379//6 195//6
f 381//7 380//7 194//7
f 382//8 381//8 199//8
f 383//9 382//9 209//9
f 365//10 383//10 208//10
f 208//10 214//10 365//10
f 209//9 208//9 383//9
f 199//8 209//8 382//8
f 194//7 199//7 381//7
f 195//6 194//6 380//6
f 198//5 195//5 379//5
f 203//4 198//4 378//4
f 204//3 203//3 377//3
f 212//2 204//2 376//2
f 207//1 212//1 375//1
f 384//11 385//11 108//11
f 386//12 384//12 107//12
f 387//13 386//13 100//13
f 388//14 387//14 99//14
f 389//15 388//15 95//15
f 390//16 389//16 94//16
f 391//17 390//17 90//17
f 392//18 391//18 96//18
f 393//19 392//19 105//19
f 394//20 393//20 104//20
f 104//20 106//20 394//20
f 105//19 104//19 393//19
f 96//18 105//18 392//18
f 90//17 96//17 391//17
f 94//16 90//16 390//16
f 95//15 94//15 389//15
f 99//14 95//14 388//14
f 100//13 99//13 387//13
f 107//12 100//12 386//12
f 108//11 107//11 384//11
f 395//1 394//1 106//1
f 396//2 395//2 101//2
f 397//3 396//3 98//3
f 398//4 397//4 97//4
f 399//5 398//5 91//5
f 400//6 399//6 87//6
f 401//7 400//7 93//7
f 402//8 401//8 92//8
f 403//9 402//9 103//9
f 385//10 403//10 102//10
f 102//10 108//10 385//10
f 103//9 102//9 403//9
f 92//8 103//8 402//8
f 93//7 92//7 401//7
f 87//6 93//6 400//6
f 91//5 87//5 399//5
f 97//4 91//4 398//4
f 98//3 97//3 397//3
f 101//2 98//2 396//2
f 106//1 101//1 395//1
f 404//21 310//21 311//21
f 405//21 309//21 310//21
f 405//21 406//21 308//21
f 406//21 407//21 307//21
f 408//21 312//21 313//21
f 409//21 311//21 312//21
f 310//21 404//21 405//21
f 307//21 308//21 406//21
f 312//21 408//21 409//21
f 308//21 309//21 405//21
f 407//21 410//21 306//21
f 410//21 411//21 304//21
f 412//21 320//21 321//21
f 413//21 319//21 320//21
f 413//21 414//21 318//21
f 414//21 415//21 317//21
f 311//21 409//21 404//21
f 304//21 306//21 410//21
f 416//21 322//21 323//21
f 417//21 321//21 322//21
f 320//21 412//21 413//21
f 317//21 318//21 414//21
f 418//21 313//21 314//21
f 306//21 307//21 407//21
f 411//21 419//21 305//21
f 420//21 323//21 305//21
f 322//21 416//21 417//21
f 318//21 319//21 413//21
f 415//21 421//21 316//21
f 421//21 422//21 315//21
f 313//21 418//21 408//21
f 305//21 419//21 420//21
f 321//21 417//21 412//21
f 315//21 316//21 421//21
f 305//21 304//21 411//21
f 316//21 317//21 415//21
f 323//21 420//21 416//21
f 422//21 423//21 314//21
f 314//21 315//21 422//21
f 314//21 423//21 418//21
f 424//1 425//1 423//1
f 426//2 424//2 422//2
f 427//3 426//3 421//3
f 428//4 427//4 415//4
f 429//5 428//5 414//5
f 430//6 429//6 413//6
f 431//7 430//7 412//7
f 432//8 431//8 417//8
f 433//9 432//9 416//9
f 434//10 433//10 420//10
f 420//10 419//10 434//10
f 416//9 420//9 433//9
f 417//8 416//8 432//8
f 412//7 417//7 431//7
f 413//6 412//6 430//6
f 414//5 413//5 429//5
f 415//4 414//4 428//4
f 421//3 415//3 427//3
f 422//2 421//2 426//2
f 423//1 422//1 424//1
f 435//11 434//11 419//11
f 436//12 435//12 411//12
f 437//13 436//13 410//13
f 438//14 437//14 407//14
f 439//15 438//15 406//15
f 440//16 439//16 405//16
f 441//17 440//17 404//17
f 442//18 441//18 409//18
f 443//19 442//19 408//19
f 425//20 443//20 418//20
f 418//20 423//20 425//20
f 408//19 418//19 443//19
f 409//18 408//18 442//18
f 404//17 409//17 441//17
f 405//16 404//16 440//16
f 406//15 405//15 439//15
f 407//14 406//14 438//14
f 410//13 407//13 437//13
f 411//12 410//12 436//12
f 419//11 411//11 435//11
f 444//21 330//21 331//21
f 445//21 329//21 330//21
f 445//21 446//21 328//21
f 446//21 447//21 327//21
f 448//21 332//21 333//21
f 449//21 331//21 332//21
f 330//21 444//21 445//21
f 327//21 328//21 446//21
f 332//21 448//21 449//21
f 328//21 329//21 445//21
f 447//21 450//21 326//21
f 450//21 451//21 324//21
f 452//21 340//21 341//21
f 453//21 339//21 340//21
f 453//21 454//21 338//21
f 454//21 455//21 337//21
f 331//21 449//21 444//21
f 324//21 326//21 450//21
f 456//21 342//21 343//21
f 457//21 341//21 342//21
f 340//21 452//21 453//21
f 337//21 338//21 454//21
f 458//21 333//21 334//21
f 326//21 327//21 447//21
f 451//21 459//21 325//21
f 460//21 343//21 325//21
f 342//21 456//21 457//21
f 338//21 339//21 453//21
f 455//21 461//21 336//21
f 461//21 462//21 335//21
f 333//21 458//21 448//21
f 325//21 459//21 460//21
f 341//21 457//21 452//21
f 335//21 336//21 461//21
f 325//21 324//21 451//21
f 336//21 337//21 455//21
f 343//21 460//21 456//21
f 462//21 463//21 334//21
f 334//21 335//21 462//21
f 334//21 463//21 458//21
f 464//1 465//1 463//1
f 466//2 464//2 462//2
f 467//3 466//3 461//3
f 468//4 467//4 455//4
f 469//5 468//5 454//5
f 470//6 469//6 453//6
f 471//7 470//7 452//7
f 472//8 471//8 457//8
f 473//9 472//9 456//9
f 474//10 473//10 460//10
f 460//10 459//10 474//10
f 456//9 460//9 473//9
f 457//8 456//8 472//8
f 452//7 457//7 471//7
f 453//6 452//6 470//6
f 454//5 453//5 469//5
f 455//4 454//4 468//4
f 461//3 455//3 467//3
f 462//2 461//2 466//2
f 463//1 462//1 464//1
f 475//11 474//11 459//11
f 476//12 475//12 451//12
f 477//13 476//13 450//13
f 478//14 477//14 447//14
f 479//15 478//15 446//15
f 480//16 479//16 445//16
f 481//17 480//17 444//17
f 482//18 481//18 449//18
f 483//19 482//19 448//19
f 465//20 483//20 458//20
f 458//20 463//20 465//20
f 448//19 458//19 483//19
f 449//18 448//18 482//18
f 444//17 449//17 481//17
f 445//16 444//16 480//16
f 446//15 445//15 479//15
f 447//14 446//14 478//14
f 450//13 447//13 477//13
f 451//12 450//12 476//12
f 459//11 451//11 475//11
f 484//21 350//21 351//21
f 485//21 349//21 350//21
f 485//21 486//21 348//21
f 486//21 487//21 347//21
f 488//21 352//21 353//21
f 489//21 351//21 352//21
f 350//21 484//21 485//21
f 347//21 348//21 486//21
f 352//21 488//21 489//21
f 348//21 349//21 485//21
f 487//21 490//21 346//21
f 490//21 491//21 344//21
f 492//21 360//21 361//21
f 493//21 359//21 360//21
f 493//21 494//21 358//21
f 494//21 495//21 357//21
f 351//21 489//21 484//21
f 344//21 346//21 490//21
f 496//21 362//21 363//21
f 497//21 361//21 362//21
f 360//21 492//21 493//21
f 357//21 358//21 494//21
f 498//21 353//21 354//21
f 346//21 347//21 487//21
f 491//21 499//21 345//21
f 500//21 363//21 345//21
f 362//21 496//21 497//21
f 358//21 359//21 493//21
f 495//21 501//21 356//21
f 501//21 502//21 355//21
f 353//21 498//21 488//21
f 345//21 499//21 500//21
f 361//21 497//21 492//21
f 355//21 356//21 501//21
f 345//21 344//21 491//21
f 356//21 357//21 495//21
f 363//21 500//21 496//21
f 502//21 503//21 354//21
f 354//21 355//21 502//21
f 354//21 503//21 498//21
f 504//1 505//1 503//1
f 506//2 504//2 502//2
f 507//3 506//3 501//3
f 508//4 507//4 495//4
f 509//5 508//5 494//5
f 510//6 509//6 493//6
f 511//7 510//7 492//7
f 512//8 511//8 497//8
f 513//9 512//9 496//9
f 514//10 513//10 500//10
f 500//10 499//10 514//10
f 496//9 500//9 513//9
f 497//8 496//8 512//8
f 492//7 497//7 511//7
f 493//6 492//6 510//6
f 494//5 493//5 509//5
f 495//4 494//4 508//4
f 501//3 495//3 507//3
f 502//2 501//2 506//2
f 503//1 502//1 504//1
f 515//11 514//11 499//11
f 516//12 515//12 491//12
f 517//13 516//13 490//13
f 518//14 517//14 487//14
f 519//15 518//15 486//15
f 520//16 519//16 485//16
f 521//17 520//17 484//17
f 522//18 521//18 489//18
f 523//19 522//19 488//19
f 505//20 523//20 498//20
f 498//20 503//20 505//20
f 488//19 498//19 523//19
f 489//18 488//18 522//18
f 484//17 489//17 521//17
f 485//16 484//16 520//16
f 486//15 485//15 519//15
f 487//14 486//14 518//14
f 490//13 487//13 517//13
f 491//12 490//12 516//12
f 499//11 491//11 515//11
f 524//21 370//21 371//21
f 525//21 369//21 370//21
f 525//21 526//21 368//21
f 526//21 527//21 367//21
f 528//21 372//21 373//21
f 529//21 371//21 372//21
f 370//21 524//21 525//21
f 367//21 368//21 526//21
f 372//21 528//21 529//21
f 368//21 369//21 525//21
f 527//21 530//21 366//21
f 530//21 531//21 364//21
f 532//21 380//21 381//21
f 533//21 379//21 380//21
f 533//21 534//21 378//21
f 534//21 535//21 377//21
f 371//21 529//21 524//21
f 364//21 366//21 530//21
f 536//21 382//21 383//21
f 537//21 381//21 382//21
f 380//21 532//21 533//21
f 377//21 378//21 534//21
f 538//21 373//21 374//21
f 366//21 367//21 527//21
f 531//21 539//21 365//21
f 540//21 383//21 365//21
f 382//21 536//21 537//21
f 378//21 379//21 533//21
f 535//21 541//21 376//21
f 541//21 542//21 375//21
f 373//21 538//21 528//21
f 365//21 539//21 540//21
f 381//21 537//21 532//21
f 375//21 376//21 541//21
f 365//21 364//21 531//21
f 376//21 377//21 535//21
f 383//21 540//21 536//21
f 542//21 543//21 374//21
f 374//21 375//21 542//21
f 374//21 543//21 538//21
f 544//1 545//1 543//1
f 546//2 544//2 542//2
f 547//3 546//3 541//3
f 548//4 547//4 535//4
f 549//5 548//5 534//5
f 550//6 549//6 533//6
f 551//7 550//7 532//7
f 552//8 551//8 537//8
f 553//9 552//9 536//9
f 554//10 553//10 540//10
f 540//10 539//10 554//10
f 536//9 540//9 553//9
f 537//8 536//8 552//8
f 532//7 537//7 551//7
f 533//6 532//6 550//6
f 534//5 533//5 549//5
f 535//4 534//4 548//4
f 541//3 535//3 547//3
f 542//2 541//2 546//2
f 543//1 542//1 544//1
f 555//11 554//11 539//11
f 556//12 555//12 531//12
f 557//13 556//13 530//13
f 558//14 557//14 527//14
f 559//15 558//15 526//15
f 560//16 559//16 525//16
f 561//17 560//17 524//17
f 562//18 561//18 529//18
f 563//19 562//19 528//19
f 545//20 563//20 538//20
f 538//20 543//20 545//20
f 528//19 538//19 563//19
f 529//18 528//18 562//18
f 524//17 529//17 561//17
f 525//16 524//16 560//16
f 526//15 525//15 559//15
f 527//14 526//14 558//14
f 530//13 527//13 557//13
f 531//12 530//12 556//12
f 539//11 531//11 555//11
f 564//21 390//21 391//21
f 565//21 389//21 390//21
f 565//21 566//21 388//21
f 566//21 567//21 387//21
f 568//21 392//21 393//21
f 569//21 391//21 392//21
f 390//21 564//21 565//21
f 387//21 388//21 566//21
f 392//21 568//21 569//21
f 388//21 389//21 565//21
f 567//21 570//21 386//21
f 570//21 571//21 384//21
f 572//21 400//21 401//21
f 573//21 399//21 400//21
f 573//21 574//21 398//21
f 574//21 575//21 397//21
f 391//21 569//21 564//21
f 384//21 386//21 570//21
f 576//21 402//21 403//21
f 577//21 401//21 402//21
f 400//21 572//21 573//21
f 397//21 398//21 574//21
f 578//21 393//21 394//21
f 386//21 387//21 567//21
f 571//21 579//21 385//21
f 580//21 403//21 385//21
f 402//21 576//21 577//21
f 398//21 399//21 573//21
f 575//21 581//21 396//21
f 581//21 582//21 395//21
f 393//21 578//21 568//21
f 385//21 579//21 580//21
f 401//21 577//21 572//21
f 395//21 396//21 581//21
f 385//21 384//21 571//21
f 396//21 397//21 575//21
f 403//21 580//21 576//21
f 582//21 583//21 394//21
f 394//21 395//21 582//21
f 394//21 583//21 578//21
f 584//1 585//1 583//1
f 586//2 584//2 582//2
f 587//3 586//3 581//3
f 588//4 587//4 575//4
f 589//5 588//5 574//5
f 590//6 589//6 573//6
f 591//7 590//7 572//7
f 592//8 591//8 577//8
f 593//9 592//9 576//9
f 594//10 593//10 580//10
f 580//10 579//10 594//10
f 576//9 580//9 593//9
f 577//8 576//8 592//8
f 572//7 577//7 591//7
f 573//6 572//6 590//6
f 574//5 573//5 589//5
f 575//4 574//4 588//4
f 581//3 575//3 587//3
f 582//2 581//2 586//2
f 583//1 582//1 584//1
f 595//11 594//11 579//11
f 596//12 595//12 571//12
f 597//13 596//13 570//13
f 598//14 597//14 567//14
f 599//15 598//15 566//15
f 600//16 599//16 565//16
f 601//17 600//17 564//17
f 602//18 601//18 569//18
f 603//19 602//19 568//19
f 585//20 603//20 578//20
f 578//20 583//20 585//20
f 568//19 578//19 603//19
f 569//18 568//18 602//18
f 564//17 569//17 601//17
f 565//16 564//16 600//16
f 566//15 565//15 599//15
f 567//14 566//14 598//14
f 570//13 567//13 597//13
f 571//12 570//12 596//12
f 579//11 571//11 595//11
f 604//21 605//21 606//21
f 607//21 548//21 549//21
f 559//21 257//21 258//21
f 607//21 547//21 548//21
f 258//21 557//21 558//21
f 605//21 551//21 552//21
f 605//21 549//21 550//21
f 607//21 546//21 547//21
f 257//21 561//21 562//21
f 257//21 559//21 560//21
f 258//21 556//21 557//21
f 258//21 605//21 554//21
f 550//21 551//21 605//21
f 607//21 544//21 546//21
f 560//21 561//21 257//21
f 258//21 555//21 556//21
f 605//21 553//21 554//21
f 549//21 605//21 607//21
f 607//21 257//21 563//21
f 258//21 558//21 559//21
f 552//21 553//21 605//21
f 562//21 563//21 257//21
f 607//21 545//21 544//21
f 554//21 555//21 258//21
f 608//21 260//21 261//21
f 609//21 267//21 268//21
f 268//21 269//21 609//21
f 275//21 277//21 12//21
f 278//21 8//21 10//21
f 278//21 279//21 6//21
f 14//21 276//21 275//21
f 6//21 8//21 278//21
f 610//21 604//21 30//21
f 604//21 26//21 28//21
f 276//21 14//21 16//21
f 277//21 10//21 12//21
f 279//21 4//21 6//21
f 280//21 1//21 4//21
f 610//21 34//21 36//21
f 30//21 32//21 610//21
f 604//21 24//21 26//21
f 276//21 18//21 20//21
f 12//21 14//21 275//21
f 4//21 279//21 280//21
f 32//21 34//21 610//21
f 604//21 23//21 24//21
f 20//21 604//21 276//21
f 10//21 277//21 278//21
f 281//21 610//21 38//21
f 28//21 30//21 604//21
f 16//21 18//21 276//21
f 281//21 2//21 1//21
f 36//21 38//21 610//21
f 1//21 280//21 281//21
f 20//21 23//21 604//21
f 610//21 281//21 282//21
f 257//21 607//21 287//21
f 287//21 284//21 257//21
f 611//21 255//21 257//21
f 252//21 251//21 250//21
f 249//21 253//21 252//21
f 250//21 249//21 252//21
f 299//21 254//21 253//21
f 253//21 248//21 299//21
f 612//21 289//21 290//21
f 612//21 288//21 289//21
f 297//21 298//21 613//21
f 612//21 292//21 293//21
f 290//21 291//21 612//21
f 612//21 296//21 297//21
f 612//21 294//21 295//21
f 291//21 292//21 612//21
f 295//21 296//21 612//21
f 612//21 285//21 288//21
f 293//21 294//21 612//21
f 256//21 614//21 615//21
f 616//21 283//21 285//21
f 298//21 617//21 613//21
f 246//21 618//21 619//21
f 615//21 246//21 256//21
f 613//21 612//21 297//21
f 248//21 620//21 621//21
f 615//21 618//21 246//21
f 611//21 283//21 616//21
f 298//21 622//21 617//21
f 299//21 623//21 624//21
f 621//21 299//21 248//21
f 256//21 625//21 614//21
f 611//21 626//21 627//21
f 285//21 612//21 616//21
f 299//21 628//21 623//21
f 299//21 629//21 630//21
f 248//21 631//21 620//21
f 248//21 632//21 633//21
f 256//21 627//21 625//21
f 616//21 626//21 611//21
f 630//21 628//21 299//21
f 633//21 631//21 248//21
f 627//21 256//21 611//21
f 298//21 634//21 635//21
f 298//21 299//21 636//21
f 621//21 629//21 299//21
f 619//21 632//21 248//21
f 635//21 622//21 298//21
f 636//21 637//21 298//21
f 248//21 247//21 619//21
f 637//21 634//21 298//21
f 619//21 247//21 246//21
f 274//21 427//21 428//21
f 428//21 273//21 274//21
f 276//21 426//21 427//21
f 276//21 604//21 425//21
f 276//21 424//21 426//21
f 604//21 443//21 425//21
f 604//21 441//21 442//21
f 604//21 638//21 440//21
f 425//21 424//21 276//21
f 440//21 441//21 604//21
f 442//21 443//21 604//21
f 638//21 609//21 438//21
f 271//21 432//21 433//21
f 271//21 272//21 431//21
f 273//21 429//21 430//21
f 609//21 437//21 438//21
f 431//21 432//21 271//21
f 430//21 272//21 273//21
f 609//21 436//21 437//21
f 270//21 434//21 435//21
f 430//21 431//21 272//21
f 609//21 435//21 436//21
f 270//21 433//21 434//21
f 273//21 428//21 429//21
f 438//21 439//21 638//21
f 433//21 270//21 271//21
f 435//21 609//21 270//21
f 609//21 638//21 468//21
f 638//21 467//21 468//21
f 638//21 466//21 467//21
f 608//21 479//21 480//21
f 638//21 464//21 466//21
f 606//21 483//21 465//21
f 606//21 481//21 482//21
f 480//21 606//21 608//21
f 468//21 469//21 609//21
f 465//21 638//21 606//21
f 480//21 481//21 606//21
f 465//21 464//21 638//21
f 608//21 478//21 479//21
f 482//21 483//21 606//21
f 266//21 474//21 475//21
f 264//21 267//21 472//21
f 262//21 477//21 478//21
f 262//21 263//21 476//21
f 475//21 263//21 266//21
f 265//21 264//21 473//21
f 267//21 471//21 472//21
f 267//21 609//21 470//21
f 476//21 477//21 262//21
f 473//21 474//21 265//21
f 470//21 471//21 267//21
f 263//21 475//21 476//21
f 472//21 473//21 264//21
f 266//21 265//21 474//21
f 605//21 507//21 508//21
f 605//21 506//21 507//21
f 258//21 523//21 505//21
f 605//21 504//21 506//21
f 505//21 605//21 258//21
f 258//21 521//21 522//21
f 521//21 258//21 259//21
f 505//21 504//21 605//21
f 259//21 520//21 521//21
f 522//21 523//21 258//21
f 606//21 509//21 510//21
f 259//21 517//21 518//21
f 260//21 516//21 517//21
f 608//21 511//21 512//21
f 510//21 608//21 606//21
f 517//21 259//21 260//21
f 608//21 513//21 514//21
f 510//21 511//21 608//21
f 260//21 515//21 516//21
f 514//21 260//21 608//21
f 606//21 508//21 509//21
f 518//21 519//21 259//21
f 512//21 513//21 608//21
f 514//21 515//21 260//21
f 286//21 587//21 588//21
f 286//21 586//21 587//21
f 287//21 585//21 584//21
f 286//21 584//21 586//21
f 287//21 603//21 585//21
f 287//21 601//21 602//21
f 607//21 600//21 601//21
f 584//21 286//21 287//21
f 601//21 287//21 607//21
f 602//21 603//21 287//21
f 607//21 605//21 598//21
f 610//21 589//21 590//21
f 605//21 597//21 598//21
f 604//21 591//21 592//21
f 590//21 604//21 610//21
f 605//21 596//21 597//21
f 605//21 604//21 594//21
f 590//21 591//21 604//21
f 605//21 595//21 596//21
f 604//21 593//21 594//21
f 610//21 588//21 589//21
f 598//21 599//21 607//21
f 592//21 593//21 604//21
f 594//21 595//21 605//21
f 599//21 600//21 607//21
f 588//21 610//21 286//21
f 519//21 520//21 259//21
f 508//21 606//21 605//21
f 478//21 608//21 262//21
f 469//21 470//21 609//21
f 439//21 440//21 638//21
f 274//21 276//21 427//21
f 624//21 636//21 299//21
f 249//21 248//21 253//21
f 283//21 611//21 284//21
f 284//21 611//21 257//21
f 282//21 286//21 610//21
f 38//21 2//21 281//21
f 269//21 270//21 609//21
f 261//21 262//21 608//21
f 563//21 545//21 607//21
f 255//21 611//21 256//21
f 606//21 638//21 604//21
f 612//30 613//30 639//30
f 639//30 640//30 612//30
f 621//66 620//66 641//66
f 641//66 642//66 621//66
f 629//68 621//68 642//68
f 630//69 629//69 643//69
f 628//70 630//70 644//70
f 623//71 628//71 645//71
f 624//72 623//72 646//72
f 637//73 636//73 647//73
f 648//74 647//74 636//74
f 636//74 624//74 648//74
f 634//75 637//75 649//75
f 635//76 634//76 650//76
f 622//77 635//77 651//77
f 617//78 622//78 652//78
f 613//79 617//79 653//79
f 653//79 639//79 613//79
f 652//78 653//78 617//78
f 651//77 652//77 622//77
f 650//76 651//76 635//76
f 649//75 650//75 634//75
f 647//73 649//73 637//73
f 646//72 648//72 624//72
f 645//71 646//71 623//71
f 644//70 645//70 628//70
f 643//69 644//69 630//69
f 642//68 643//68 629//68
f 616//80 612//80 640//80
f 626//81 616//81 654//81
f 627//82 626//82 655//82
f 625//83 627//83 656//83
f 614//84 625//84 657//84
f 618//85 615//85 658//85
f 659//86 658//86 615//86
f 615//86 614//86 659//86
f 619//87 618//87 660//87
f 632//88 619//88 661//88
f 633//89 632//89 662//89
f 631//90 633//90 663//90
f 620//91 631//91 664//91
f 664//91 641//91 620//91
f 663//90 664//90 631//90
f 662//89 663//89 633//89
f 661//88 662//88 632//88
f 660//87 661//87 619//87
f 658//85 660//85 618//85
f 657//84 659//84 614//84
f 656//83 657//83 625//83
f 655//82 656//82 627//82
f 654//81 655//81 626//81
f 640//80 654//80 616//80
f 300//22 665//22 666//22
f 302//22 667//22 668//22
f 303//22 669//22 670//22
f 301//22 671//22 669//22
f 666//22 301//22 300//22
f 668//22 300//22 302//22
f 669//22 303//22 301//22
f 670//22 672//22 303//22
f 666//22 673//22 301//22
f 302//22 674//22 667//22
f 673//22 675//22 301//22
f 668//22 676//22 300//22
f 301//22 677//22 671//22
f 300//22 678//22 665//22
f 302//22 679//22 674//22
f 675//22 677//22 301//22
f 676//22 680//22 300//22
f 302//22 681//22 682//22
f 303//22 683//22 684//22
f 303//22 685//22 686//22
f 680//22 678//22 300//22
f 302//22 684//22 681//22
f 686//22 683//22 303//22
f 682//22 679//22 302//22
f 672//22 685//22 303//22
f 684//22 302//22 303//22
f 643//21 642//21 687//21
f 688//21 687//21 642//21
f 660//21 689//21 690//21
f 659//21 657//21 691//21
f 654//21 640//21 692//21
f 693//21 692//21 640//21
f 642//21 641//21 688//21
f 664//21 694//21 688//21
f 690//21 661//21 660//21
f 689//21 658//21 659//21
f 657//21 656//21 695//21
f 656//21 655//21 696//21
f 640//21 639//21 693//21
f 653//21 697//21 693//21
f 644//21 643//21 698//21
f 688//21 641//21 664//21
f 662//21 699//21 700//21
f 661//21 690//21 699//21
f 691//21 689//21 659//21
f 696//21 695//21 656//21
f 655//21 654//21 701//21
f 693//21 639//21 653//21
f 687//21 698//21 643//21
f 663//21 700//21 694//21
f 699//21 662//21 661//21
f 695//21 691//21 657//21
f 692//21 701//21 654//21
f 652//21 702//21 697//21
f 648//21 646//21 703//21
f 694//21 664//21 663//21
f 660//21 658//21 689//21
f 697//21 653//21 652//21
f 651//21 704//21 702//21
f 649//21 705//21 706//21
f 705//21 647//21 648//21
f 646//21 645//21 707//21
f 700//21 663//21 662//21
f 702//21 652//21 651//21
f 650//21 706//21 704//21
f 706//21 650//21 649//21
f 707//21 703//21 646//21
f 645//21 644//21 708//21
f 701//21 696//21 655//21
f 649//21 647//21 705//21
f 708//21 707//21 645//21
f 704//21 651//21 650//21
f 698//21 708//21 644//21
f 703//21 705//21 648//21
f 670//66 669//66 687//66
f 687//66 688//66 670//66
f 701//6 692//6 667//6
f 696//7 701//7 674//7
f 695//8 696//8 679//8
f 691//9 695//9 682//9
f 689//10 691//10 681//10
f 690//11 689//11 684//11
f 699//12 690//12 683//12
f 700//13 699//13 686//13
f 694//14 700//14 685//14
f 688//15 694//15 672//15
f 672//15 670//15 688//15
f 685//14 672//14 694//14
f 686//13 685//13 700//13
f 683//12 686//12 699//12
f 684//11 683//11 690//11
f 681//10 684//10 689//10
f 682//9 681//9 691//9
f 679//8 682//8 695//8
f 674//7 679//7 696//7
f 667//6 674//6 701//6
f 668//30 667//30 692//30
f 692//30 693//30 668//30
f 698//16 687//16 669//16
f 708//17 698//17 671//17
f 707//18 708//18 677//18
f 703//19 707//19 675//19
f 705//20 703//20 673//20
f 706//1 705//1 666//1
f 704//2 706//2 665//2
f 702//3 704//3 678//3
f 697//4 702//4 680//4
f 693//5 697//5 676//5
f 676//5 668//5 693//5
f 680//4 676//4 697//4
f 678//3 680//3 702//3
f 665//2 678//2 704//2
f 666//1 665//1 706//1
f 673//20 666//20 705//20
f 675//19 673//19 703//19
f 677//18 675//18 707//18
f 671//17 677//17 708//17
f 669//16 671//16 698//16
#1440 polygons

