# Aspose.3D Wavefront OBJ Exporter
# Copyright 2004-2023 Aspose Pty Ltd.
# File created: 06/29/2023 04:16:27


#
# object obj_41543384
#

v 53.5025596618652344 163.33537292480468752 3.39869856834411624
v 53.5025596618652344 164.60768127441406248 4.04697608947753906
v 53.5025596618652344 163.62698364257812496 5.3967905044555664
v 53.5025596618652344 165.61740112304687504 5.05669116973876953
v 53.5025596618652344 164.26759338378906248 6.03738880157470703
v 53.5025596618652344 165.61740112304687504 10.42206859588623048
v 53.5025596618652344 164.26759338378906248 9.44137096405029296
v 53.5025596618652344 164.67887878417968752 8.63416957855224608
v 53.5025596618652344 164.60768127441406248 11.43178367614746096
v 53.5025596618652344 163.62698364257812496 10.08196926116943359
v 53.5025596618652344 163.33537292480468752 12.08006095886230469
v 53.5025596618652344 162.81979370117187504 10.49325942993164064
v 53.5025596618652344 161.92500305175781248 12.30344295501708984
v 53.5025596618652344 161.92500305175781248 10.63498020172119144
v 53.5025596618652344 160.51463317871093752 12.08006095886230469
v 53.5025596618652344 161.03021240234375 10.49325942993164064
v 53.5025596618652344 159.2423095703125 11.43178367614746096
v 53.5025596618652344 160.22300720214843752 10.08196926116943359
v 53.5025596618652344 166.26568603515625 6.3290071487426758
v 53.5025596618652344 164.67887878417968752 6.84459018707275392
v 53.5025596618652344 158.23258972167968752 10.42206859588623048
v 53.5025596618652344 159.58241271972656248 9.44137096405029296
v 53.5025596618652344 157.58432006835937504 6.3290071487426758
v 53.5025596618652344 158.23258972167968752 5.05669116973876953
v 53.5025596618652344 159.58241271972656248 6.03738880157470703
v 53.5025596618652344 159.2423095703125 4.04697608947753906
v 53.5025596618652344 160.22300720214843752 5.3967905044555664
v 53.5025596618652344 166.48905944824218752 7.7393798828125
v 53.5025596618652344 164.82060241699218752 7.7393798828125
v 53.5025596618652344 166.26568603515625 9.14975261688232422
v 53.5025596618652344 157.58432006835937504 9.14975261688232422
v 53.5025596618652344 159.1711273193359375 8.63416957855224608
v 53.5025596618652344 160.51463317871093752 3.39869856834411624
v 53.5025596618652344 161.03021240234375 4.9855008125305176
v 53.5025596618652344 157.36093139648437504 7.7393798828125
v 53.5025596618652344 159.0294036865234375 7.7393798828125
v 53.5025596618652344 159.1711273193359375 6.84459018707275392
v 53.5025596618652344 161.92500305175781248 3.17531752586364746
v 53.5025596618652344 162.81979370117187504 4.9855008125305176
v 53.5025596618652344 161.92500305175781248 4.84378004074096672
v 58.98896026611328128 161.92500305175781248 12.30344295501708984
v 58.98896026611328128 160.51463317871093752 12.08006095886230469
v 58.98896026611328128 159.2423095703125 11.43178367614746096
v 58.98896026611328128 158.23258972167968752 10.42206859588623048
v 58.98896026611328128 157.58432006835937504 9.14975261688232422
v 58.98896026611328128 157.36093139648437504 7.7393798828125
v 58.98896026611328128 157.58432006835937504 6.3290071487426758
v 58.98896026611328128 158.23258972167968752 5.05669116973876953
v 58.98896026611328128 159.2423095703125 4.04697608947753906
v 58.98896026611328128 160.51463317871093752 3.39869856834411624
v 58.98896026611328128 161.92500305175781248 3.17531752586364746
v 58.98896026611328128 163.33537292480468752 3.39869856834411624
v 58.98896026611328128 164.60768127441406248 4.04697608947753906
v 58.98896026611328128 165.61740112304687504 5.05669116973876953
v 58.98896026611328128 166.26568603515625 6.3290071487426758
v 58.98896026611328128 166.48905944824218752 7.7393798828125
v 58.98896026611328128 166.26568603515625 9.14975261688232422
v 58.98896026611328128 165.61740112304687504 10.42206859588623048
v 58.98896026611328128 164.60768127441406248 11.43178367614746096
v 58.98896026611328128 163.33537292480468752 12.08006095886230469
v 48.0161590576171875 161.03021240234375 10.49325942993164064
v 48.0161590576171875 161.92500305175781248 10.63498020172119144
v 48.0161590576171875 160.22300720214843752 10.08196926116943359
v 48.0161590576171875 159.58241271972656248 9.44137096405029296
v 48.0161590576171875 159.1711273193359375 8.63416957855224608
v 48.0161590576171875 159.0294036865234375 7.7393798828125
v 48.0161590576171875 159.1711273193359375 6.84459018707275392
v 48.0161590576171875 159.58241271972656248 6.03738880157470703
v 48.0161590576171875 160.22300720214843752 5.3967905044555664
v 48.0161590576171875 161.03021240234375 4.9855008125305176
v 48.0161590576171875 161.92500305175781248 4.84378004074096672
v 48.0161590576171875 162.81979370117187504 4.9855008125305176
v 48.0161590576171875 163.62698364257812496 5.3967905044555664
v 48.0161590576171875 164.26759338378906248 6.03738880157470703
v 48.0161590576171875 164.67887878417968752 6.84459018707275392
v 48.0161590576171875 164.82060241699218752 7.7393798828125
v 48.0161590576171875 164.67887878417968752 8.63416957855224608
v 48.0161590576171875 164.26759338378906248 9.44137096405029296
v 48.0161590576171875 163.62698364257812496 10.08196926116943359
v 48.0161590576171875 162.81979370117187504 10.49325942993164064
v 58.98896026611328128 353.354888916015625 -20.25114250183105468
v 58.98896026611328128 366.196929931640625 27.22379112243652344
v 58.98896026611328128 359.91940307617187504 23.47315788269042968
v 58.98896026611328128 372.144927978515625 31.4776649475097656
v 58.98896026611328128 431.79998779296875008 -101.59999847412109376
v 58.98896026611328128 431.79998779296875008 101.59999847412109376
v 58.98896026611328128 401.52044677734375 -72.55222320556640624
v 58.98896026611328128 346.54779052734375 -17.57954597473144528
v 58.98896026611328128 359.91940307617187504 -23.47315788269042968
v 58.98896026611328128 391.876220703125 52.9030838012695312
v 58.98896026611328128 387.62234497070312496 46.9550704956054688
v 58.98896026611328128 406.0712890625 93.96226501464843744
v 58.98896026611328128 405.1439208984375 86.70869445800781248
v 58.98896026611328128 403.62356567382812496 -79.55588531494140624
v 58.98896026611328128 377.72320556640624992 36.20599746704101564
v 58.98896026611328128 382.89401245117187504 41.37679672241210936
v 58.98896026611328128 366.196929931640625 -27.22379112243652344
v 58.98896026611328128 395.6268310546875 59.18058776855468752
v 58.98896026611328128 401.52044677734375 72.55222320556640624
v 58.98896026611328128 398.84884643554687504 65.74510192871093744
v 58.98896026611328128 403.62356567382812496 79.55588531494140624
v 58.98896026611328128 406.39999389648437504 101.59999847412109376
v 58.98896026611328128 406.39938354492187504 101.26751708984375
v 58.98896026611328128 398.84884643554687504 -65.74510192871093744
v 58.98896026611328128 391.876220703125 -52.9030838012695312
v 58.98896026611328128 395.6268310546875 -59.18058776855468752
v 58.98896026611328128 382.89401245117187504 -41.37679672241210936
v 58.98896026611328128 387.62234497070312496 -46.9550704956054688
v 58.98896026611328128 372.144927978515625 -31.4776649475097656
v 58.98896026611328128 192.80868530273437504 -6.3290071487426758
v 58.98896026611328128 317.5 -12.69999980926513672
v 58.98896026611328128 192.160400390625 5.05669116973876953
v 58.98896026611328128 406.0712890625 -93.96226501464843744
v 58.98896026611328128 406.39938354492187504 -101.26751708984375
v 58.98896026611328128 405.1439208984375 -86.70869445800781248
v 58.98896026611328128 377.72320556640624992 -36.20599746704101564
v 58.98896026611328128 353.354888916015625 20.25114250183105468
v 58.98896026611328128 346.54779052734375 17.57954597473144528
v 58.98896026611328128 191.15069580078125 4.04697608947753906
v 58.98896026611328128 185.78530883789062496 -4.04697608947753906
v 58.98896026611328128 187.0576324462890625 -3.39869856834411624
v 58.98896026611328128 192.160400390625 -10.42206859588623048
v 58.98896026611328128 191.15069580078125 -11.43178367614746096
v 58.98896026611328128 193.0320587158203125 -7.7393798828125
v 58.98896026611328128 339.54412841796875 -15.4764442443847656
v 58.98896026611328128 339.54412841796875 15.4764442443847656
v 58.98896026611328128 332.39129638671875 -13.9560661315917968
v 58.98896026611328128 332.39129638671875 13.9560661315917968
v 58.98896026611328128 325.137725830078125 -13.02870082855224609
v 58.98896026611328128 325.137725830078125 13.02870082855224609
v 58.98896026611328128 317.83248901367187504 12.7006216049194336
v 58.98896026611328128 317.5 12.69999980926513672
v 58.98896026611328128 188.46800231933593752 12.30344295501708984
v 58.98896026611328128 189.87837219238281248 12.08006095886230469
v 58.98896026611328128 185.78530883789062496 11.43178367614746096
v 58.98896026611328128 152.39999389648437504 12.69999980926513672
v 58.98896026611328128 152.39999389648437504 -12.69999980926513672
v 58.98896026611328128 184.77558898925781248 -5.05669116973876953
v 58.98896026611328128 192.80868530273437504 -9.14975261688232422
v 58.98896026611328128 192.80868530273437504 6.3290071487426758
v 58.98896026611328128 157.58432006835937504 -6.3290071487426758
v 58.98896026611328128 184.1273193359375 -6.3290071487426758
v 58.98896026611328128 163.33537292480468752 -3.39869856834411624
v 58.98896026611328128 185.78530883789062496 -11.43178367614746096
v 58.98896026611328128 184.77558898925781248 -10.42206859588623048
v 58.98896026611328128 193.0320587158203125 7.7393798828125
v 58.98896026611328128 184.77558898925781248 10.42206859588623048
v 58.98896026611328128 185.78530883789062496 4.04697608947753906
v 58.98896026611328128 184.77558898925781248 5.05669116973876953
v 58.98896026611328128 157.36093139648437504 -7.7393798828125
v 58.98896026611328128 158.23258972167968752 -10.42206859588623048
v 58.98896026611328128 157.58432006835937504 -9.14975261688232422
v 58.98896026611328128 189.87837219238281248 3.39869856834411624
v 58.98896026611328128 191.15069580078125 -4.04697608947753906
v 58.98896026611328128 192.160400390625 -5.05669116973876953
v 58.98896026611328128 188.46800231933593752 3.17531752586364746
v 58.98896026611328128 188.46800231933593752 -3.17531752586364746
v 58.98896026611328128 183.9039306640625 -7.7393798828125
v 58.98896026611328128 187.0576324462890625 -12.08006095886230469
v 58.98896026611328128 192.160400390625 10.42206859588623048
v 58.98896026611328128 192.80868530273437504 9.14975261688232422
v 58.98896026611328128 317.83248901367187504 -12.7006216049194336
v 58.98896026611328128 406.39999389648437504 -101.59999847412109376
v 58.98896026611328128 184.1273193359375 9.14975261688232422
v 58.98896026611328128 187.0576324462890625 3.39869856834411624
v 58.98896026611328128 159.2423095703125 -11.43178367614746096
v 58.98896026611328128 161.92500305175781248 -3.17531752586364746
v 58.98896026611328128 158.23258972167968752 -5.05669116973876953
v 58.98896026611328128 159.2423095703125 -4.04697608947753906
v 58.98896026611328128 189.87837219238281248 -3.39869856834411624
v 58.98896026611328128 184.1273193359375 -9.14975261688232422
v 58.98896026611328128 191.15069580078125 11.43178367614746096
v 58.98896026611328128 183.9039306640625 7.7393798828125
v 58.98896026611328128 184.1273193359375 6.3290071487426758
v 58.98896026611328128 160.51463317871093752 -12.08006095886230469
v 58.98896026611328128 160.51463317871093752 -3.39869856834411624
v 58.98896026611328128 189.87837219238281248 -12.08006095886230469
v 58.98896026611328128 187.0576324462890625 12.08006095886230469
v 58.98896026611328128 188.46800231933593752 -12.30344295501708984
v 58.98896026611328128 166.26568603515625 -9.14975261688232422
v 58.98896026611328128 165.61740112304687504 -5.05669116973876953
v 58.98896026611328128 166.26568603515625 -6.3290071487426758
v 58.98896026611328128 165.61740112304687504 -10.42206859588623048
v 58.98896026611328128 164.60768127441406248 -11.43178367614746096
v 58.98896026611328128 166.48905944824218752 -7.7393798828125
v 58.98896026611328128 164.60768127441406248 -4.04697608947753906
v 58.98896026611328128 161.92500305175781248 -12.30344295501708984
v 58.98896026611328128 163.33537292480468752 -12.08006095886230469
v 48.0161590576171875 152.39999389648437504 -12.69999980926513672
v 48.0161590576171875 317.5 -12.69999980926513672
v 48.0161590576171875 152.39999389648437504 12.69999980926513672
v 48.0161590576171875 317.5 12.69999980926513672
v 48.0161590576171875 406.39938354492187504 101.26751708984375
v 48.0161590576171875 406.0712890625 93.96226501464843744
v 48.0161590576171875 405.1439208984375 86.70869445800781248
v 48.0161590576171875 403.62356567382812496 79.55588531494140624
v 48.0161590576171875 401.52044677734375 72.55222320556640624
v 48.0161590576171875 398.84884643554687504 65.74510192871093744
v 48.0161590576171875 395.6268310546875 59.18058776855468752
v 48.0161590576171875 391.876220703125 52.9030838012695312
v 48.0161590576171875 387.62234497070312496 46.9550704956054688
v 48.0161590576171875 382.89401245117187504 41.37679672241210936
v 48.0161590576171875 377.72320556640624992 36.20599746704101564
v 48.0161590576171875 372.144927978515625 31.4776649475097656
v 48.0161590576171875 366.196929931640625 27.22379112243652344
v 48.0161590576171875 359.91940307617187504 23.47315788269042968
v 48.0161590576171875 353.354888916015625 20.25114250183105468
v 48.0161590576171875 346.54779052734375 17.57954597473144528
v 48.0161590576171875 339.54412841796875 15.4764442443847656
v 48.0161590576171875 332.39129638671875 13.9560661315917968
v 48.0161590576171875 325.137725830078125 13.02870082855224609
v 48.0161590576171875 406.39999389648437504 101.59999847412109376
v 48.0161590576171875 317.83248901367187504 12.7006216049194336
v 48.0161590576171875 317.83248901367187504 -12.7006216049194336
v 48.0161590576171875 325.137725830078125 -13.02870082855224609
v 48.0161590576171875 332.39129638671875 -13.9560661315917968
v 48.0161590576171875 339.54412841796875 -15.4764442443847656
v 48.0161590576171875 346.54779052734375 -17.57954597473144528
v 48.0161590576171875 353.354888916015625 -20.25114250183105468
v 48.0161590576171875 359.91940307617187504 -23.47315788269042968
v 48.0161590576171875 366.196929931640625 -27.22379112243652344
v 48.0161590576171875 372.144927978515625 -31.4776649475097656
v 48.0161590576171875 377.72320556640624992 -36.20599746704101564
v 48.0161590576171875 382.89401245117187504 -41.37679672241210936
v 48.0161590576171875 387.62234497070312496 -46.9550704956054688
v 48.0161590576171875 391.876220703125 -52.9030838012695312
v 48.0161590576171875 395.6268310546875 -59.18058776855468752
v 48.0161590576171875 398.84884643554687504 -65.74510192871093744
v 48.0161590576171875 401.52044677734375 -72.55222320556640624
v 48.0161590576171875 403.62356567382812496 -79.55588531494140624
v 48.0161590576171875 405.1439208984375 -86.70869445800781248
v 48.0161590576171875 406.0712890625 -93.96226501464843744
v 48.0161590576171875 406.39938354492187504 -101.26751708984375
v 48.0161590576171875 406.39999389648437504 -101.59999847412109376
v 53.5025596618652344 187.0576324462890625 12.08006095886230469
v 53.5025596618652344 188.46800231933593752 12.30344295501708984
v 53.5025596618652344 185.78530883789062496 11.43178367614746096
v 53.5025596618652344 184.77558898925781248 10.42206859588623048
v 53.5025596618652344 184.1273193359375 9.14975261688232422
v 53.5025596618652344 183.9039306640625 7.7393798828125
v 53.5025596618652344 184.1273193359375 6.3290071487426758
v 53.5025596618652344 184.77558898925781248 5.05669116973876953
v 53.5025596618652344 185.78530883789062496 4.04697608947753906
v 53.5025596618652344 187.0576324462890625 3.39869856834411624
v 53.5025596618652344 188.46800231933593752 3.17531752586364746
v 53.5025596618652344 189.87837219238281248 3.39869856834411624
v 53.5025596618652344 191.15069580078125 4.04697608947753906
v 53.5025596618652344 192.160400390625 5.05669116973876953
v 53.5025596618652344 192.80868530273437504 6.3290071487426758
v 53.5025596618652344 193.0320587158203125 7.7393798828125
v 53.5025596618652344 192.80868530273437504 9.14975261688232422
v 53.5025596618652344 192.160400390625 10.42206859588623048
v 53.5025596618652344 191.15069580078125 11.43178367614746096
v 53.5025596618652344 189.87837219238281248 12.08006095886230469
v 53.5025596618652344 191.22187805175781248 6.84459018707275392
v 53.5025596618652344 191.36360168457031248 7.7393798828125
v 53.5025596618652344 191.22187805175781248 8.63416957855224608
v 53.5025596618652344 190.81059265136718752 9.44137096405029296
v 53.5025596618652344 190.1699981689453125 5.3967905044555664
v 53.5025596618652344 190.81059265136718752 6.03738880157470703
v 53.5025596618652344 187.57321166992187504 10.49325942993164064
v 53.5025596618652344 188.46800231933593752 10.63498020172119144
v 53.5025596618652344 186.76600646972656256 10.08196926116943359
v 53.5025596618652344 185.71412658691406248 8.63416957855224608
v 53.5025596618652344 186.1254119873046875 9.44137096405029296
v 53.5025596618652344 185.57240295410156248 7.7393798828125
v 53.5025596618652344 185.71412658691406248 6.84459018707275392
v 53.5025596618652344 186.1254119873046875 6.03738880157470703
v 53.5025596618652344 190.1699981689453125 10.08196926116943359
v 53.5025596618652344 189.36279296875 10.49325942993164064
v 53.5025596618652344 186.76600646972656256 5.3967905044555664
v 53.5025596618652344 189.36279296875 4.9855008125305176
v 53.5025596618652344 187.57321166992187504 4.9855008125305176
v 53.5025596618652344 188.46800231933593752 4.84378004074096672
v 48.0161590576171875 187.57321166992187504 10.49325942993164064
v 48.0161590576171875 188.46800231933593752 10.63498020172119144
v 48.0161590576171875 186.76600646972656256 10.08196926116943359
v 48.0161590576171875 186.1254119873046875 9.44137096405029296
v 48.0161590576171875 185.71412658691406248 8.63416957855224608
v 48.0161590576171875 185.57240295410156248 7.7393798828125
v 48.0161590576171875 185.71412658691406248 6.84459018707275392
v 48.0161590576171875 186.1254119873046875 6.03738880157470703
v 48.0161590576171875 186.76600646972656256 5.3967905044555664
v 48.0161590576171875 187.57321166992187504 4.9855008125305176
v 48.0161590576171875 188.46800231933593752 4.84378004074096672
v 48.0161590576171875 189.36279296875 4.9855008125305176
v 48.0161590576171875 190.1699981689453125 5.3967905044555664
v 48.0161590576171875 190.81059265136718752 6.03738880157470703
v 48.0161590576171875 191.22187805175781248 6.84459018707275392
v 48.0161590576171875 191.36360168457031248 7.7393798828125
v 48.0161590576171875 191.22187805175781248 8.63416957855224608
v 48.0161590576171875 190.81059265136718752 9.44137096405029296
v 48.0161590576171875 190.1699981689453125 10.08196926116943359
v 48.0161590576171875 189.36279296875 10.49325942993164064
v 53.5025596618652344 187.0576324462890625 -3.39869856834411624
v 53.5025596618652344 188.46800231933593752 -3.17531752586364746
v 53.5025596618652344 185.78530883789062496 -4.04697608947753906
v 53.5025596618652344 184.77558898925781248 -5.05669116973876953
v 53.5025596618652344 184.1273193359375 -6.3290071487426758
v 53.5025596618652344 183.9039306640625 -7.7393798828125
v 53.5025596618652344 184.1273193359375 -9.14975261688232422
v 53.5025596618652344 184.77558898925781248 -10.42206859588623048
v 53.5025596618652344 185.78530883789062496 -11.43178367614746096
v 53.5025596618652344 187.0576324462890625 -12.08006095886230469
v 53.5025596618652344 188.46800231933593752 -12.30344295501708984
v 53.5025596618652344 189.87837219238281248 -12.08006095886230469
v 53.5025596618652344 191.15069580078125 -11.43178367614746096
v 53.5025596618652344 192.160400390625 -10.42206859588623048
v 53.5025596618652344 192.80868530273437504 -9.14975261688232422
v 53.5025596618652344 193.0320587158203125 -7.7393798828125
v 53.5025596618652344 192.80868530273437504 -6.3290071487426758
v 53.5025596618652344 192.160400390625 -5.05669116973876953
v 53.5025596618652344 191.15069580078125 -4.04697608947753906
v 53.5025596618652344 189.87837219238281248 -3.39869856834411624
v 53.5025596618652344 191.22187805175781248 -6.84459018707275392
v 53.5025596618652344 191.36360168457031248 -7.7393798828125
v 53.5025596618652344 190.81059265136718752 -6.03738880157470703
v 53.5025596618652344 187.57321166992187504 -4.9855008125305176
v 53.5025596618652344 188.46800231933593752 -4.84378004074096672
v 53.5025596618652344 186.76600646972656256 -5.3967905044555664
v 53.5025596618652344 185.71412658691406248 -8.63416957855224608
v 53.5025596618652344 186.1254119873046875 -9.44137096405029296
v 53.5025596618652344 190.1699981689453125 -10.08196926116943359
v 53.5025596618652344 190.81059265136718752 -9.44137096405029296
v 53.5025596618652344 191.22187805175781248 -8.63416957855224608
v 53.5025596618652344 190.1699981689453125 -5.3967905044555664
v 53.5025596618652344 189.36279296875 -4.9855008125305176
v 53.5025596618652344 186.1254119873046875 -6.03738880157470703
v 53.5025596618652344 185.71412658691406248 -6.84459018707275392
v 53.5025596618652344 185.57240295410156248 -7.7393798828125
v 53.5025596618652344 186.76600646972656256 -10.08196926116943359
v 53.5025596618652344 187.57321166992187504 -10.49325942993164064
v 53.5025596618652344 189.36279296875 -10.49325942993164064
v 53.5025596618652344 188.46800231933593752 -10.63498020172119144
v 48.0161590576171875 187.57321166992187504 -4.9855008125305176
v 48.0161590576171875 188.46800231933593752 -4.84378004074096672
v 48.0161590576171875 186.76600646972656256 -5.3967905044555664
v 48.0161590576171875 186.1254119873046875 -6.03738880157470703
v 48.0161590576171875 185.71412658691406248 -6.84459018707275392
v 48.0161590576171875 185.57240295410156248 -7.7393798828125
v 48.0161590576171875 185.71412658691406248 -8.63416957855224608
v 48.0161590576171875 186.1254119873046875 -9.44137096405029296
v 48.0161590576171875 186.76600646972656256 -10.08196926116943359
v 48.0161590576171875 187.57321166992187504 -10.49325942993164064
v 48.0161590576171875 188.46800231933593752 -10.63498020172119144
v 48.0161590576171875 189.36279296875 -10.49325942993164064
v 48.0161590576171875 190.1699981689453125 -10.08196926116943359
v 48.0161590576171875 190.81059265136718752 -9.44137096405029296
v 48.0161590576171875 191.22187805175781248 -8.63416957855224608
v 48.0161590576171875 191.36360168457031248 -7.7393798828125
v 48.0161590576171875 191.22187805175781248 -6.84459018707275392
v 48.0161590576171875 190.81059265136718752 -6.03738880157470703
v 48.0161590576171875 190.1699981689453125 -5.3967905044555664
v 48.0161590576171875 189.36279296875 -4.9855008125305176
v 53.5025596618652344 160.51463317871093752 -3.39869856834411624
v 53.5025596618652344 161.92500305175781248 -3.17531752586364746
v 53.5025596618652344 159.2423095703125 -4.04697608947753906
v 53.5025596618652344 158.23258972167968752 -5.05669116973876953
v 53.5025596618652344 157.58432006835937504 -6.3290071487426758
v 53.5025596618652344 157.36093139648437504 -7.7393798828125
v 53.5025596618652344 157.58432006835937504 -9.14975261688232422
v 53.5025596618652344 158.23258972167968752 -10.42206859588623048
v 53.5025596618652344 159.2423095703125 -11.43178367614746096
v 53.5025596618652344 160.51463317871093752 -12.08006095886230469
v 53.5025596618652344 161.92500305175781248 -12.30344295501708984
v 53.5025596618652344 163.33537292480468752 -12.08006095886230469
v 53.5025596618652344 164.60768127441406248 -11.43178367614746096
v 53.5025596618652344 165.61740112304687504 -10.42206859588623048
v 53.5025596618652344 166.26568603515625 -9.14975261688232422
v 53.5025596618652344 166.48905944824218752 -7.7393798828125
v 53.5025596618652344 166.26568603515625 -6.3290071487426758
v 53.5025596618652344 165.61740112304687504 -5.05669116973876953
v 53.5025596618652344 164.60768127441406248 -4.04697608947753906
v 53.5025596618652344 163.33537292480468752 -3.39869856834411624
v 53.5025596618652344 163.62698364257812496 -10.08196926116943359
v 53.5025596618652344 164.26759338378906248 -9.44137096405029296
v 53.5025596618652344 161.03021240234375 -4.9855008125305176
v 53.5025596618652344 161.92500305175781248 -4.84378004074096672
v 53.5025596618652344 160.22300720214843752 -5.3967905044555664
v 53.5025596618652344 164.67887878417968752 -8.63416957855224608
v 53.5025596618652344 164.82060241699218752 -7.7393798828125
v 53.5025596618652344 164.67887878417968752 -6.84459018707275392
v 53.5025596618652344 164.26759338378906248 -6.03738880157470703
v 53.5025596618652344 163.62698364257812496 -5.3967905044555664
v 53.5025596618652344 162.81979370117187504 -4.9855008125305176
v 53.5025596618652344 159.58241271972656248 -6.03738880157470703
v 53.5025596618652344 159.1711273193359375 -6.84459018707275392
v 53.5025596618652344 159.0294036865234375 -7.7393798828125
v 53.5025596618652344 159.1711273193359375 -8.63416957855224608
v 53.5025596618652344 159.58241271972656248 -9.44137096405029296
v 53.5025596618652344 160.22300720214843752 -10.08196926116943359
v 53.5025596618652344 161.03021240234375 -10.49325942993164064
v 53.5025596618652344 162.81979370117187504 -10.49325942993164064
v 53.5025596618652344 161.92500305175781248 -10.63498020172119144
v 48.0161590576171875 161.03021240234375 -4.9855008125305176
v 48.0161590576171875 161.92500305175781248 -4.84378004074096672
v 48.0161590576171875 160.22300720214843752 -5.3967905044555664
v 48.0161590576171875 159.58241271972656248 -6.03738880157470703
v 48.0161590576171875 159.1711273193359375 -6.84459018707275392
v 48.0161590576171875 159.0294036865234375 -7.7393798828125
v 48.0161590576171875 159.1711273193359375 -8.63416957855224608
v 48.0161590576171875 159.58241271972656248 -9.44137096405029296
v 48.0161590576171875 160.22300720214843752 -10.08196926116943359
v 48.0161590576171875 161.03021240234375 -10.49325942993164064
v 48.0161590576171875 161.92500305175781248 -10.63498020172119144
v 48.0161590576171875 162.81979370117187504 -10.49325942993164064
v 48.0161590576171875 163.62698364257812496 -10.08196926116943359
v 48.0161590576171875 164.26759338378906248 -9.44137096405029296
v 48.0161590576171875 164.67887878417968752 -8.63416957855224608
v 48.0161590576171875 164.82060241699218752 -7.7393798828125
v 48.0161590576171875 164.67887878417968752 -6.84459018707275392
v 48.0161590576171875 164.26759338378906248 -6.03738880157470703
v 48.0161590576171875 163.62698364257812496 -5.3967905044555664
v 48.0161590576171875 162.81979370117187504 -4.9855008125305176
v 48.0161590576171875 415.92498779296875008 101.59999847412109376
v 48.0161590576171875 415.92498779296875008 -101.59999847412109376
v 47.6314048767089844 417.43997192382812496 -101.59999847412109376
v 47.94677734375 416.58511352539062496 -101.59999847412109376
v 47.94677734375 416.58511352539062496 101.59999847412109376
v 47.08622360229492188 418.170074462890625 -101.59999847412109376
v 47.6314048767089844 417.43997192382812496 101.59999847412109376
v 46.35614013671875 418.71524047851562496 -101.59999847412109376
v 47.08622360229492188 418.170074462890625 101.59999847412109376
v 45.5012779235839844 419.030609130859375 -101.59999847412109376
v 46.35614013671875 418.71524047851562496 101.59999847412109376
v 45.5012779235839844 419.030609130859375 101.59999847412109376
v 44.84115982055664064 419.100006103515625 101.59999847412109376
v 44.84115982055664064 419.100006103515625 -101.59999847412109376
v 31.18865966796875 431.79998779296875008 101.59999847412109376
v 31.18865966796875 419.100006103515625 101.59999847412109376
v 31.18865966796875 431.79998779296875008 -101.59999847412109376
v 31.18865966796875 419.100006103515625 -101.59999847412109376
v 41.22776794433593752 431.79998779296875008 28.5894126892089844
v 41.39310836791992184 431.79998779296875008 29.63333320617675784
v 36.97098922729492192 431.79998779296875008 32.84619140625
v 34.63671112060546872 431.79998779296875008 88.90000152587890624
v 39.05883026123046875 431.79998779296875008 85.68714141845703128
v 38.01491165161132812 431.79998779296875008 85.52179718017578128
v 34.80205154418945312 431.79998779296875008 -89.94392395019531248
v 35.28188705444335936 431.79998779296875008 -90.88565826416015632
v 34.80205154418945312 431.79998779296875008 -87.8560791015625
v 34.63671112060546872 431.79998779296875008 -88.90000152587890624
v 36.97098922729492192 431.79998779296875008 -26.4204750061035156
v 34.63671112060546872 431.79998779296875008 29.63333320617675784
v 34.80205154418945312 431.79998779296875008 89.94392395019531248
v 40.7479324340820312 431.79998779296875008 86.91434478759765632
v 41.22776794433593752 431.79998779296875008 87.8560791015625
v 36.97098922729492192 431.79998779296875008 85.68714141845703128
v 40.0005645751953125 431.79998779296875008 26.90031242370605472
v 40.7479324340820312 431.79998779296875008 27.64767646789550784
v 39.05883026123046875 431.79998779296875008 26.4204750061035156
v 40.0005645751953125 431.79998779296875008 -26.90031242370605472
v 39.05883026123046875 431.79998779296875008 -26.4204750061035156
v 36.02925491333007812 431.79998779296875008 -91.63301849365234376
v 36.02925491333007812 431.79998779296875008 -86.1669769287109375
v 34.63671112060546872 431.79998779296875008 -29.63333320617675784
v 34.80205154418945312 431.79998779296875008 30.67725372314453128
v 38.01491165161132812 431.79998779296875008 -26.25513267517089844
v 39.05883026123046875 431.79998779296875008 32.84619140625
v 38.01491165161132812 431.79998779296875008 33.01153182983398437
v 39.05883026123046875 431.79998779296875008 92.11286163330078124
v 40.7479324340820312 431.79998779296875008 90.88565826416015632
v 40.0005645751953125 431.79998779296875008 91.63301849365234376
v 41.39310836791992184 431.79998779296875008 88.90000152587890624
v 41.22776794433593752 431.79998779296875008 89.94392395019531248
v 40.0005645751953125 431.79998779296875008 86.1669769287109375
v 36.97098922729492192 431.79998779296875008 26.4204750061035156
v 38.01491165161132812 431.79998779296875008 26.25513267517089844
v 41.39310836791992184 431.79998779296875008 -29.63333320617675784
v 40.0005645751953125 431.79998779296875008 -91.63301849365234376
v 40.7479324340820312 431.79998779296875008 -90.88565826416015632
v 35.28188705444335936 431.79998779296875008 -86.91434478759765632
v 34.80205154418945312 431.79998779296875008 -28.5894126892089844
v 36.97098922729492192 431.79998779296875008 -85.68714141845703128
v 36.02925491333007812 431.79998779296875008 -26.90031242370605472
v 35.28188705444335936 431.79998779296875008 -27.64767646789550784
v 39.05883026123046875 431.79998779296875008 -85.68714141845703128
v 40.0005645751953125 431.79998779296875008 -32.36635589599609376
v 40.7479324340820312 431.79998779296875008 -31.61898994445800784
v 38.01491165161132812 431.79998779296875008 -85.52179718017578128
v 38.01491165161132812 431.79998779296875008 -33.01153182983398437
v 36.97098922729492192 431.79998779296875008 -32.84619140625
v 35.28188705444335936 431.79998779296875008 -31.61898994445800784
v 36.02925491333007812 431.79998779296875008 -32.36635589599609376
v 34.80205154418945312 431.79998779296875008 -30.67725372314453128
v 41.22776794433593752 431.79998779296875008 -87.8560791015625
v 36.02925491333007812 431.79998779296875008 32.36635589599609376
v 35.28188705444335936 431.79998779296875008 31.61898994445800784
v 35.28188705444335936 431.79998779296875008 90.88565826416015632
v 36.97098922729492192 431.79998779296875008 92.11286163330078124
v 36.02925491333007812 431.79998779296875008 91.63301849365234376
v 38.01491165161132812 431.79998779296875008 92.2781982421875
v 40.7479324340820312 431.79998779296875008 -27.64767646789550784
v 41.22776794433593752 431.79998779296875008 -28.5894126892089844
v 34.80205154418945312 431.79998779296875008 28.5894126892089844
v 39.05883026123046875 431.79998779296875008 -92.11286163330078124
v 38.01491165161132812 431.79998779296875008 -92.2781982421875
v 41.22776794433593752 431.79998779296875008 -30.67725372314453128
v 40.7479324340820312 431.79998779296875008 -86.91434478759765632
v 41.22776794433593752 431.79998779296875008 30.67725372314453128
v 35.28188705444335936 431.79998779296875008 27.64767646789550784
v 36.02925491333007812 431.79998779296875008 26.90031242370605472
v 41.22776794433593752 431.79998779296875008 -89.94392395019531248
v 36.97098922729492192 431.79998779296875008 -92.11286163330078124
v 39.05883026123046875 431.79998779296875008 -32.84619140625
v 40.0005645751953125 431.79998779296875008 -86.1669769287109375
v 40.7479324340820312 431.79998779296875008 31.61898994445800784
v 40.0005645751953125 431.79998779296875008 32.36635589599609376
v 35.28188705444335936 431.79998779296875008 86.91434478759765632
v 36.02925491333007812 431.79998779296875008 86.1669769287109375
v 34.80205154418945312 431.79998779296875008 87.8560791015625
v 41.39310836791992184 431.79998779296875008 -88.90000152587890624
v 38.01491165161132812 425.45001220703125 -85.52179718017578128
v 36.97098922729492192 425.45001220703125 -85.68714141845703128
v 36.02925491333007812 425.45001220703125 -86.1669769287109375
v 35.28188705444335936 425.45001220703125 -86.91434478759765632
v 34.80205154418945312 425.45001220703125 -87.8560791015625
v 34.63671112060546872 425.45001220703125 -88.90000152587890624
v 34.80205154418945312 425.45001220703125 -89.94392395019531248
v 35.28188705444335936 425.45001220703125 -90.88565826416015632
v 36.02925491333007812 425.45001220703125 -91.63301849365234376
v 36.97098922729492192 425.45001220703125 -92.11286163330078124
v 38.01491165161132812 425.45001220703125 -92.2781982421875
v 39.05883026123046875 425.45001220703125 -92.11286163330078124
v 40.0005645751953125 425.45001220703125 -91.63301849365234376
v 40.7479324340820312 425.45001220703125 -90.88565826416015632
v 41.22776794433593752 425.45001220703125 -89.94392395019531248
v 41.39310836791992184 425.45001220703125 -88.90000152587890624
v 41.22776794433593752 425.45001220703125 -87.8560791015625
v 40.7479324340820312 425.45001220703125 -86.91434478759765632
v 40.0005645751953125 425.45001220703125 -86.1669769287109375
v 39.05883026123046875 425.45001220703125 -85.68714141845703128
v 38.01491165161132812 425.45001220703125 -26.25513267517089844
v 36.97098922729492192 425.45001220703125 -26.4204750061035156
v 36.02925491333007812 425.45001220703125 -26.90031242370605472
v 35.28188705444335936 425.45001220703125 -27.64767646789550784
v 34.80205154418945312 425.45001220703125 -28.5894126892089844
v 34.63671112060546872 425.45001220703125 -29.63333320617675784
v 34.80205154418945312 425.45001220703125 -30.67725372314453128
v 35.28188705444335936 425.45001220703125 -31.61898994445800784
v 36.02925491333007812 425.45001220703125 -32.36635589599609376
v 36.97098922729492192 425.45001220703125 -32.84619140625
v 38.01491165161132812 425.45001220703125 -33.01153182983398437
v 39.05883026123046875 425.45001220703125 -32.84619140625
v 40.0005645751953125 425.45001220703125 -32.36635589599609376
v 40.7479324340820312 425.45001220703125 -31.61898994445800784
v 41.22776794433593752 425.45001220703125 -30.67725372314453128
v 41.39310836791992184 425.45001220703125 -29.63333320617675784
v 41.22776794433593752 425.45001220703125 -28.5894126892089844
v 40.7479324340820312 425.45001220703125 -27.64767646789550784
v 40.0005645751953125 425.45001220703125 -26.90031242370605472
v 39.05883026123046875 425.45001220703125 -26.4204750061035156
v 41.39310836791992184 425.45001220703125 29.63333320617675784
v 41.22776794433593752 425.45001220703125 30.67725372314453128
v 40.7479324340820312 425.45001220703125 31.61898994445800784
v 40.0005645751953125 425.45001220703125 32.36635589599609376
v 39.05883026123046875 425.45001220703125 32.84619140625
v 38.01491165161132812 425.45001220703125 33.01153182983398437
v 36.97098922729492192 425.45001220703125 32.84619140625
v 36.02925491333007812 425.45001220703125 32.36635589599609376
v 35.28188705444335936 425.45001220703125 31.61898994445800784
v 34.80205154418945312 425.45001220703125 30.67725372314453128
v 34.63671112060546872 425.45001220703125 29.63333320617675784
v 34.80205154418945312 425.45001220703125 28.5894126892089844
v 35.28188705444335936 425.45001220703125 27.64767646789550784
v 36.02925491333007812 425.45001220703125 26.90031242370605472
v 36.97098922729492192 425.45001220703125 26.4204750061035156
v 38.01491165161132812 425.45001220703125 26.25513267517089844
v 39.05883026123046875 425.45001220703125 26.4204750061035156
v 40.0005645751953125 425.45001220703125 26.90031242370605472
v 40.7479324340820312 425.45001220703125 27.64767646789550784
v 41.22776794433593752 425.45001220703125 28.5894126892089844
v 40.93087768554687504 425.45001220703125 -92.91348266601562496
v 42.02839279174804687 425.45001220703125 -91.81596374511718752
v 42.7330436706542968 425.45001220703125 -90.43301391601562496
v 39.54792404174804688 425.45001220703125 -93.61813354492187504
v 42.97584915161132816 425.45001220703125 -88.90000152587890624
v 42.7330436706542968 425.45001220703125 -87.36698913574218752
v 42.02839279174804687 425.45001220703125 -85.98403167724609376
v 40.93087768554687504 425.45001220703125 -84.88652038574218752
v 33.29677963256835936 425.45001220703125 -90.43301391601562496
v 34.00142669677734375 425.45001220703125 -91.81596374511718752
v 35.09894561767578124 425.45001220703125 -92.91348266601562496
v 39.54792404174804688 425.45001220703125 -84.18186950683593752
v 36.48189544677734376 425.45001220703125 -93.61813354492187504
v 38.01491165161132812 425.45001220703125 -93.86093902587890624
v 33.05397415161132812 425.45001220703125 -88.90000152587890624
v 34.00142669677734375 425.45001220703125 -85.98403167724609376
v 33.29677963256835936 425.45001220703125 -87.36698913574218752
v 38.01491165161132812 425.45001220703125 -83.93906402587890624
v 36.48189544677734376 425.45001220703125 -84.18186950683593752
v 35.09894561767578124 425.45001220703125 -84.88652038574218752
v 42.97584915161132816 419.100006103515625 -88.90000152587890624
v 42.7330436706542968 419.100006103515625 -87.36698913574218752
v 42.02839279174804687 419.100006103515625 -85.98403167724609376
v 40.93087768554687504 419.100006103515625 -84.88652038574218752
v 39.54792404174804688 419.100006103515625 -84.18186950683593752
v 38.01491165161132812 419.100006103515625 -83.93906402587890624
v 36.48189544677734376 419.100006103515625 -84.18186950683593752
v 35.09894561767578124 419.100006103515625 -84.88652038574218752
v 34.00142669677734375 419.100006103515625 -85.98403167724609376
v 33.29677963256835936 419.100006103515625 -87.36698913574218752
v 33.05397415161132812 419.100006103515625 -88.90000152587890624
v 33.29677963256835936 419.100006103515625 -90.43301391601562496
v 34.00142669677734375 419.100006103515625 -91.81596374511718752
v 35.09894561767578124 419.100006103515625 -92.91348266601562496
v 36.48189544677734376 419.100006103515625 -93.61813354492187504
v 38.01491165161132812 419.100006103515625 -93.86093902587890624
v 39.54792404174804688 419.100006103515625 -93.61813354492187504
v 40.93087768554687504 419.100006103515625 -92.91348266601562496
v 42.02839279174804687 419.100006103515625 -91.81596374511718752
v 42.7330436706542968 419.100006103515625 -90.43301391601562496
v 42.02839279174804687 425.45001220703125 -32.54929733276367184
v 42.7330436706542968 425.45001220703125 -31.16634750366210938
v 42.97584915161132816 425.45001220703125 -29.63333320617675784
v 42.7330436706542968 425.45001220703125 -28.10031890869140624
v 42.02839279174804687 425.45001220703125 -26.71736717224121096
v 33.29677963256835936 425.45001220703125 -31.16634750366210938
v 34.00142669677734375 425.45001220703125 -32.54929733276367184
v 35.09894561767578124 425.45001220703125 -33.64681625366210936
v 36.48189544677734376 425.45001220703125 -34.35146713256835936
v 40.93087768554687504 425.45001220703125 -25.61985015869140624
v 39.54792404174804688 425.45001220703125 -24.91520118713378912
v 38.01491165161132812 425.45001220703125 -34.59427261352539064
v 39.54792404174804688 425.45001220703125 -34.35146713256835936
v 40.93087768554687504 425.45001220703125 -33.64681625366210936
v 34.00142669677734375 425.45001220703125 -26.71736717224121096
v 33.29677963256835936 425.45001220703125 -28.10031890869140624
v 38.01491165161132812 425.45001220703125 -24.67239570617675784
v 36.48189544677734376 425.45001220703125 -24.91520118713378912
v 33.05397415161132812 425.45001220703125 -29.63333320617675784
v 35.09894561767578124 425.45001220703125 -25.61985015869140624
v 42.97584915161132816 419.100006103515625 -29.63333320617675784
v 42.7330436706542968 419.100006103515625 -28.10031890869140624
v 42.02839279174804687 419.100006103515625 -26.71736717224121096
v 40.93087768554687504 419.100006103515625 -25.61985015869140624
v 39.54792404174804688 419.100006103515625 -24.91520118713378912
v 38.01491165161132812 419.100006103515625 -24.67239570617675784
v 36.48189544677734376 419.100006103515625 -24.91520118713378912
v 35.09894561767578124 419.100006103515625 -25.61985015869140624
v 34.00142669677734375 419.100006103515625 -26.71736717224121096
v 33.29677963256835936 419.100006103515625 -28.10031890869140624
v 33.05397415161132812 419.100006103515625 -29.63333320617675784
v 33.29677963256835936 419.100006103515625 -31.16634750366210938
v 34.00142669677734375 419.100006103515625 -32.54929733276367184
v 35.09894561767578124 419.100006103515625 -33.64681625366210936
v 36.48189544677734376 419.100006103515625 -34.35146713256835936
v 38.01491165161132812 419.100006103515625 -34.59427261352539064
v 39.54792404174804688 419.100006103515625 -34.35146713256835936
v 40.93087768554687504 419.100006103515625 -33.64681625366210936
v 42.02839279174804687 419.100006103515625 -32.54929733276367184
v 42.7330436706542968 419.100006103515625 -31.16634750366210938
v 40.93087768554687504 425.45001220703125 25.61985015869140624
v 42.02839279174804687 425.45001220703125 26.71736717224121096
v 42.7330436706542968 425.45001220703125 28.10031890869140624
v 42.97584915161132816 425.45001220703125 29.63333320617675784
v 42.7330436706542968 425.45001220703125 31.16634750366210938
v 42.02839279174804687 425.45001220703125 32.54929733276367184
v 40.93087768554687504 425.45001220703125 33.64681625366210936
v 33.29677963256835936 425.45001220703125 28.10031890869140624
v 34.00142669677734375 425.45001220703125 26.71736717224121096
v 35.09894561767578124 425.45001220703125 25.61985015869140624
v 39.54792404174804688 425.45001220703125 24.91520118713378912
v 33.05397415161132812 425.45001220703125 29.63333320617675784
v 38.01491165161132812 425.45001220703125 24.67239570617675784
v 39.54792404174804688 425.45001220703125 34.35146713256835936
v 36.48189544677734376 425.45001220703125 24.91520118713378912
v 34.00142669677734375 425.45001220703125 32.54929733276367184
v 33.29677963256835936 425.45001220703125 31.16634750366210938
v 38.01491165161132812 425.45001220703125 34.59427261352539064
v 36.48189544677734376 425.45001220703125 34.35146713256835936
v 35.09894561767578124 425.45001220703125 33.64681625366210936
v 38.01491165161132812 419.100006103515625 34.59427261352539064
v 36.48189544677734376 419.100006103515625 34.35146713256835936
v 35.09894561767578124 419.100006103515625 33.64681625366210936
v 34.00142669677734375 419.100006103515625 32.54929733276367184
v 33.29677963256835936 419.100006103515625 31.16634750366210938
v 33.05397415161132812 419.100006103515625 29.63333320617675784
v 33.29677963256835936 419.100006103515625 28.10031890869140624
v 34.00142669677734375 419.100006103515625 26.71736717224121096
v 35.09894561767578124 419.100006103515625 25.61985015869140624
v 36.48189544677734376 419.100006103515625 24.91520118713378912
v 38.01491165161132812 419.100006103515625 24.67239570617675784
v 39.54792404174804688 419.100006103515625 24.91520118713378912
v 40.93087768554687504 419.100006103515625 25.61985015869140624
v 42.02839279174804687 419.100006103515625 26.71736717224121096
v 42.7330436706542968 419.100006103515625 28.10031890869140624
v 42.97584915161132816 419.100006103515625 29.63333320617675784
v 42.7330436706542968 419.100006103515625 31.16634750366210938
v 42.02839279174804687 419.100006103515625 32.54929733276367184
v 40.93087768554687504 419.100006103515625 33.64681625366210936
v 39.54792404174804688 419.100006103515625 34.35146713256835936
v 42.97584915161132816 419.100006103515625 88.90000152587890624
v 33.29677963256835936 419.100006103515625 87.36698913574218752
v 34.00142669677734375 419.100006103515625 85.98403167724609376
v 42.7330436706542968 419.100006103515625 90.43301391601562496
v 33.05397415161132812 419.100006103515625 88.90000152587890624
v 40.93087768554687504 419.100006103515625 92.91348266601562496
v 42.02839279174804687 419.100006103515625 91.81596374511718752
v 38.01491165161132812 419.100006103515625 93.86093902587890624
v 39.54792404174804688 419.100006103515625 93.61813354492187504
v 42.7330436706542968 419.100006103515625 87.36698913574218752
v 35.09894561767578124 419.100006103515625 84.88652038574218752
v 42.02839279174804687 419.100006103515625 85.98403167724609376
v 36.48189544677734376 419.100006103515625 84.18186950683593752
v 40.93087768554687504 419.100006103515625 84.88652038574218752
v 39.54792404174804688 419.100006103515625 84.18186950683593752
v 38.01491165161132812 419.100006103515625 83.93906402587890624
v 36.48189544677734376 419.100006103515625 93.61813354492187504
v 33.29677963256835936 419.100006103515625 90.43301391601562496
v 35.09894561767578124 419.100006103515625 92.91348266601562496
v 34.00142669677734375 419.100006103515625 91.81596374511718752
v 38.01491165161132812 425.45001220703125 92.2781982421875
v 36.97098922729492192 425.45001220703125 92.11286163330078124
v 36.02925491333007812 425.45001220703125 91.63301849365234376
v 35.28188705444335936 425.45001220703125 90.88565826416015632
v 34.80205154418945312 425.45001220703125 89.94392395019531248
v 34.63671112060546872 425.45001220703125 88.90000152587890624
v 34.80205154418945312 425.45001220703125 87.8560791015625
v 35.28188705444335936 425.45001220703125 86.91434478759765632
v 36.02925491333007812 425.45001220703125 86.1669769287109375
v 36.97098922729492192 425.45001220703125 85.68714141845703128
v 38.01491165161132812 425.45001220703125 85.52179718017578128
v 39.05883026123046875 425.45001220703125 85.68714141845703128
v 40.0005645751953125 425.45001220703125 86.1669769287109375
v 40.7479324340820312 425.45001220703125 86.91434478759765632
v 41.22776794433593752 425.45001220703125 87.8560791015625
v 41.39310836791992184 425.45001220703125 88.90000152587890624
v 41.22776794433593752 425.45001220703125 89.94392395019531248
v 40.7479324340820312 425.45001220703125 90.88565826416015632
v 40.0005645751953125 425.45001220703125 91.63301849365234376
v 39.05883026123046875 425.45001220703125 92.11286163330078124
v 42.97584915161132816 425.45001220703125 88.90000152587890624
v 42.7330436706542968 425.45001220703125 90.43301391601562496
v 42.7330436706542968 425.45001220703125 87.36698913574218752
v 40.93087768554687504 425.45001220703125 84.88652038574218752
v 42.02839279174804687 425.45001220703125 85.98403167724609376
v 42.02839279174804687 425.45001220703125 91.81596374511718752
v 35.09894561767578124 425.45001220703125 84.88652038574218752
v 36.48189544677734376 425.45001220703125 84.18186950683593752
v 40.93087768554687504 425.45001220703125 92.91348266601562496
v 39.54792404174804688 425.45001220703125 93.61813354492187504
v 33.29677963256835936 425.45001220703125 87.36698913574218752
v 34.00142669677734375 425.45001220703125 85.98403167724609376
v 38.01491165161132812 425.45001220703125 83.93906402587890624
v 39.54792404174804688 425.45001220703125 84.18186950683593752
v 33.05397415161132812 425.45001220703125 88.90000152587890624
v 38.01491165161132812 425.45001220703125 93.86093902587890624
v 36.48189544677734376 425.45001220703125 93.61813354492187504
v 35.09894561767578124 425.45001220703125 92.91348266601562496
v 34.00142669677734375 425.45001220703125 91.81596374511718752
v 33.29677963256835936 425.45001220703125 90.43301391601562496
# 752 vertices

vn 1 0 0
vn 0 0.15643446147441864 -0.9876883625984192
vn 0 0.45399048924446104 -0.8910065293312072
vn 0 0.7071067690849304 -0.7071067690849304
vn 0 0.8910065293312072 -0.45399048924446104
vn 0 0.9876883625984192 -0.15643446147441864
vn 0 0.9876883625984192 0.15643446147441864
vn 0 0.8910065293312072 0.45399048924446104
vn 0 0.7071067690849304 0.7071067690849304
vn 0 0.45399048924446104 0.8910065293312072
vn 0 0.15643446147441864 0.9876883625984192
vn 0 -0.15643446147441864 0.9876883625984192
vn 0 -0.45399048924446104 0.8910065293312072
vn 0 -0.7071067690849304 0.7071067690849304
vn 0 -0.8910065293312072 0.45399048924446104
vn 0 -0.9876883625984192 0.15643446147441864
vn 0 -0.9876883625984192 -0.15643446147441864
vn 0 -0.8910065293312072 -0.45399048924446104
vn 0 -0.7071067690849304 -0.7071067690849304
vn 0 -0.45399048924446104 -0.8910065293312072
vn 0 -0.15643446147441864 -0.9876883625984192
vn 0 0 -1
vn 0 -1 0
vn 0 0 1
vn 0 -0.99899303913116448 0.04486482962965965
vn 0 -0.9919260740280152 0.12681728601455688
vn 0 -0.9781476259231568 0.20791168510913848
vn 0 -0.95775079727172848 0.28759932518005372
vn 0 -0.93087375164031984 0.3653410375118256
vn 0 -0.89769822359085088 0.4406107664108276
vn 0 -0.8584488034248352 0.51289927959442136
vn 0 -0.81339097023010256 0.5817174315452576
vn 0 -0.76282954216003424 0.6465995907783508
vn 0 -0.6465995907783508 0.76282954216003424
vn 0 -0.5817174315452576 0.81339097023010256
vn 0 -0.51289927959442136 0.8584488034248352
vn 0 -0.4406107664108276 0.89769822359085088
vn 0 -0.3653410375118256 0.93087375164031984
vn 0 -0.28759932518005372 0.95775079727172848
vn 0 -0.20791168510913848 0.9781476259231568
vn 0 -0.12681728601455688 0.9919260740280152
vn 0 -0.04486482962965965 0.99899303913116448
vn 0 -0.99999827146530144 0.00186999456491321
vn 0 -0.00186999456491321 0.99999827146530144
vn 0 -0.04486482962965965 -0.99899303913116448
vn 0 -0.12681728601455688 -0.9919260740280152
vn 0 -0.20791168510913848 -0.9781476259231568
vn 0 -0.28759932518005372 -0.95775079727172848
vn 0 -0.3653410375118256 -0.93087375164031984
vn 0 -0.4406107664108276 -0.89769822359085088
vn 0 -0.51289927959442136 -0.8584488034248352
vn 0 -0.5817174315452576 -0.81339097023010256
vn 0 -0.6465995907783508 -0.76282954216003424
vn 0 -0.76282954216003424 -0.6465995907783508
vn 0 -0.81339097023010256 -0.5817174315452576
vn 0 -0.8584488034248352 -0.51289927959442136
vn 0 -0.89769822359085088 -0.4406107664108276
vn 0 -0.93087375164031984 -0.3653410375118256
vn 0 -0.95775079727172848 -0.28759932518005372
vn 0 -0.9781476259231568 -0.20791168510913848
vn 0 -0.9919260740280152 -0.12681728601455688
vn 0 -0.99899303913116448 -0.04486482962965965
vn 0 -0.00186999456491321 -0.99999827146530144
vn 0 -0.99999827146530144 -0.00186999456491321
vn -1 0 0
vn -0.93819135427474976 -0.34611704945564272 0
vn -0.80125379562377936 -0.59832459688186648 0
vn -0.59832459688186648 -0.80125379562377936 0
vn -0.34611704945564272 -0.93819135427474976 0
vn -0.99452191591262816 -0.10452846437692642 0
vn -0.10452846437692642 -0.99452191591262816 0
vn 0 1 0
vn 0.15643446147441864 0 -0.9876883625984192
vn 0.45399048924446104 0 -0.8910065293312072
vn 0.7071067690849304 0 -0.7071067690849304
vn 0.8910065293312072 0 -0.45399048924446104
vn 0.9876883625984192 0 -0.15643446147441864
vn 0.9876883625984192 0 0.15643446147441864
vn 0.8910065293312072 0 0.45399048924446104
vn 0.7071067690849304 0 0.7071067690849304
vn 0.45399048924446104 0 0.8910065293312072
vn 0.15643446147441864 0 0.9876883625984192
vn -0.15643446147441864 0 0.9876883625984192
vn -0.45399048924446104 0 0.8910065293312072
vn -0.7071067690849304 0 0.7071067690849304
vn -0.8910065293312072 0 0.45399048924446104
vn -0.9876883625984192 0 0.15643446147441864
vn -0.9876883625984192 0 -0.15643446147441864
vn -0.8910065293312072 0 -0.45399048924446104
vn -0.7071067690849304 0 -0.7071067690849304
vn -0.45399048924446104 0 -0.8910065293312072
vn -0.15643446147441864 0 -0.9876883625984192
# 92 vertex normals

g obj_41543384
s 1
f 1//1 2//1 3//1
f 2//1 4//1 5//1
f 6//1 7//1 8//1
f 9//1 10//1 7//1
f 11//1 12//1 10//1
f 11//1 13//1 14//1
f 15//1 16//1 14//1
f 17//1 18//1 16//1
f 5//1 3//1 2//1
f 4//1 19//1 20//1
f 7//1 6//1 9//1
f 14//1 12//1 11//1
f 16//1 15//1 17//1
f 21//1 22//1 18//1
f 23//1 24//1 25//1
f 24//1 26//1 27//1
f 20//1 5//1 4//1
f 19//1 28//1 29//1
f 28//1 30//1 8//1
f 10//1 9//1 11//1
f 18//1 17//1 21//1
f 31//1 32//1 22//1
f 27//1 25//1 24//1
f 26//1 33//1 34//1
f 29//1 20//1 19//1
f 8//1 30//1 6//1
f 22//1 21//1 31//1
f 35//1 36//1 32//1
f 23//1 37//1 36//1
f 34//1 27//1 26//1
f 38//1 1//1 39//1
f 8//1 29//1 28//1
f 32//1 31//1 35//1
f 25//1 37//1 23//1
f 3//1 39//1 1//1
f 36//1 35//1 23//1
f 14//1 13//1 15//1
f 38//1 40//1 34//1
f 34//1 33//1 38//1
f 39//1 40//1 38//1
f 15//2 13//2 41//2
f 17//3 15//3 42//3
f 21//4 17//4 43//4
f 31//5 21//5 44//5
f 35//6 31//6 45//6
f 23//7 35//7 46//7
f 24//8 23//8 47//8
f 26//9 24//9 48//9
f 33//10 26//10 49//10
f 38//11 33//11 50//11
f 1//12 38//12 51//12
f 2//13 1//13 52//13
f 4//14 2//14 53//14
f 19//15 4//15 54//15
f 28//16 19//16 55//16
f 30//17 28//17 56//17
f 6//18 30//18 57//18
f 9//19 6//19 58//19
f 11//20 9//20 59//20
f 13//21 11//21 60//21
f 60//21 41//21 13//21
f 59//20 60//20 11//20
f 58//19 59//19 9//19
f 57//18 58//18 6//18
f 56//17 57//17 30//17
f 55//16 56//16 28//16
f 54//15 55//15 19//15
f 53//14 54//14 4//14
f 52//13 53//13 2//13
f 51//12 52//12 1//12
f 50//11 51//11 38//11
f 49//10 50//10 33//10
f 48//9 49//9 26//9
f 47//8 48//8 24//8
f 46//7 47//7 23//7
f 45//6 46//6 35//6
f 44//5 45//5 31//5
f 43//4 44//4 21//4
f 42//3 43//3 17//3
f 41//2 42//2 15//2
f 61//2 62//2 14//2
f 63//3 61//3 16//3
f 64//4 63//4 18//4
f 65//5 64//5 22//5
f 66//6 65//6 32//6
f 67//7 66//7 36//7
f 68//8 67//8 37//8
f 69//9 68//9 25//9
f 70//10 69//10 27//10
f 71//11 70//11 34//11
f 72//12 71//12 40//12
f 73//13 72//13 39//13
f 74//14 73//14 3//14
f 75//15 74//15 5//15
f 76//16 75//16 20//16
f 77//17 76//17 29//17
f 78//18 77//18 8//18
f 79//19 78//19 7//19
f 80//20 79//20 10//20
f 62//21 80//21 12//21
f 12//21 14//21 62//21
f 10//20 12//20 80//20
f 7//19 10//19 79//19
f 8//18 7//18 78//18
f 29//17 8//17 77//17
f 20//16 29//16 76//16
f 5//15 20//15 75//15
f 3//14 5//14 74//14
f 39//13 3//13 73//13
f 40//12 39//12 72//12
f 34//11 40//11 71//11
f 27//10 34//10 70//10
f 25//9 27//9 69//9
f 37//8 25//8 68//8
f 36//7 37//7 67//7
f 32//6 36//6 66//6
f 22//5 32//5 65//5
f 18//4 22//4 64//4
f 16//3 18//3 63//3
f 14//2 16//2 61//2
f 81//1 82//1 83//1
f 81//1 84//1 82//1
f 85//1 86//1 87//1
f 83//1 88//1 81//1
f 89//1 90//1 91//1
f 86//1 92//1 93//1
f 87//1 94//1 85//1
f 89//1 95//1 84//1
f 91//1 96//1 89//1
f 97//1 86//1 98//1
f 86//1 99//1 100//1
f 93//1 101//1 86//1
f 86//1 102//1 103//1
f 86//1 104//1 87//1
f 86//1 105//1 106//1
f 86//1 107//1 108//1
f 86//1 97//1 109//1
f 96//1 95//1 89//1
f 100//1 98//1 86//1
f 103//1 92//1 86//1
f 110//1 111//1 112//1
f 85//1 113//1 114//1
f 94//1 115//1 85//1
f 108//1 105//1 86//1
f 109//1 116//1 86//1
f 81//1 89//1 84//1
f 101//1 99//1 86//1
f 88//1 117//1 118//1
f 112//1 119//1 110//1
f 115//1 113//1 85//1
f 116//1 107//1 86//1
f 98//1 90//1 97//1
f 88//1 83//1 117//1
f 55//1 120//1 121//1
f 111//1 122//1 123//1
f 110//1 124//1 111//1
f 106//1 104//1 86//1
f 118//1 125//1 88//1
f 125//1 118//1 126//1
f 127//1 126//1 128//1
f 129//1 130//1 131//1
f 132//1 133//1 134//1
f 135//1 136//1 41//1
f 136//1 137//1 47//1
f 55//1 138//1 120//1
f 138//1 55//1 54//1
f 111//1 139//1 122//1
f 111//1 140//1 112//1
f 89//1 97//1 90//1
f 128//1 129//1 127//1
f 129//1 128//1 130//1
f 132//1 136//1 133//1
f 134//1 129//1 132//1
f 136//1 42//1 41//1
f 137//1 48//1 47//1
f 49//1 137//1 141//1
f 142//1 54//1 53//1
f 54//1 142//1 138//1
f 143//1 144//1 145//1
f 111//1 124//1 139//1
f 111//1 146//1 140//1
f 126//1 127//1 125//1
f 131//1 132//1 129//1
f 41//1 147//1 135//1
f 60//1 148//1 149//1
f 136//1 44//1 43//1
f 136//1 46//1 45//1
f 137//1 49//1 48//1
f 137//1 150//1 141//1
f 137//1 151//1 152//1
f 153//1 154//1 155//1
f 153//1 156//1 157//1
f 121//1 156//1 55//1
f 143//1 158//1 142//1
f 143//1 159//1 144//1
f 119//1 153//1 110//1
f 111//1 160//1 161//1
f 134//1 111//1 162//1
f 114//1 163//1 85//1
f 41//1 164//1 147//1
f 164//1 41//1 60//1
f 60//1 165//1 148//1
f 45//1 44//1 136//1
f 141//1 50//1 49//1
f 137//1 166//1 151//1
f 52//1 51//1 167//1
f 51//1 168//1 169//1
f 153//1 170//1 154//1
f 156//1 121//1 157//1
f 142//1 52//1 143//1
f 145//1 171//1 143//1
f 161//1 146//1 111//1
f 111//1 134//1 172//1
f 162//1 129//1 134//1
f 60//1 173//1 164//1
f 149//1 174//1 60//1
f 47//1 46//1 136//1
f 137//1 175//1 166//1
f 51//1 176//1 167//1
f 51//1 141//1 168//1
f 157//1 170//1 153//1
f 171//1 158//1 143//1
f 172//1 160//1 111//1
f 123//1 177//1 111//1
f 136//1 178//1 133//1
f 174//1 173//1 60//1
f 152//1 150//1 137//1
f 169//1 176//1 51//1
f 53//1 52//1 142//1
f 43//1 42//1 136//1
f 155//1 110//1 153//1
f 135//1 178//1 136//1
f 111//1 177//1 179//1
f 165//1 58//1 57//1
f 180//1 179//1 159//1
f 159//1 181//1 182//1
f 167//1 143//1 52//1
f 165//1 59//1 58//1
f 179//1 183//1 184//1
f 159//1 185//1 180//1
f 159//1 186//1 181//1
f 141//1 51//1 50//1
f 137//1 179//1 187//1
f 55//1 156//1 165//1
f 165//1 60//1 59//1
f 180//1 183//1 179//1
f 159//1 143//1 186//1
f 187//1 175//1 137//1
f 57//1 56//1 165//1
f 182//1 185//1 159//1
f 165//1 56//1 55//1
f 184//1 188//1 179//1
f 188//1 187//1 179//1
f 179//1 137//1 111//1
f 111//22 137//22 189//22
f 189//22 190//22 111//22
f 189//23 137//23 136//23
f 136//23 191//23 189//23
f 132//24 192//24 191//24
f 191//24 136//24 132//24
f 92//25 103//25 193//25
f 93//26 92//26 194//26
f 101//27 93//27 195//27
f 99//28 101//28 196//28
f 100//29 99//29 197//29
f 98//30 100//30 198//30
f 90//31 98//31 199//31
f 91//32 90//32 200//32
f 96//33 91//33 201//33
f 95//14 96//14 202//14
f 84//34 95//34 203//34
f 82//35 84//35 204//35
f 83//36 82//36 205//36
f 117//37 83//37 206//37
f 118//38 117//38 207//38
f 126//39 118//39 208//39
f 128//40 126//40 209//40
f 130//41 128//41 210//41
f 131//42 130//42 211//42
f 103//43 102//43 212//43
f 132//44 131//44 213//44
f 213//44 192//44 132//44
f 212//43 193//43 103//43
f 211//42 213//42 131//42
f 210//41 211//41 130//41
f 209//40 210//40 128//40
f 208//39 209//39 126//39
f 207//38 208//38 118//38
f 206//37 207//37 117//37
f 205//36 206//36 83//36
f 204//35 205//35 82//35
f 203//34 204//34 84//34
f 202//14 203//14 95//14
f 201//33 202//33 96//33
f 200//32 201//32 91//32
f 199//31 200//31 90//31
f 198//30 199//30 98//30
f 197//29 198//29 100//29
f 196//28 197//28 99//28
f 195//27 196//27 101//27
f 194//26 195//26 93//26
f 193//25 194//25 92//25
f 129//45 162//45 214//45
f 127//46 129//46 215//46
f 125//47 127//47 216//47
f 88//48 125//48 217//48
f 81//49 88//49 218//49
f 89//50 81//50 219//50
f 97//51 89//51 220//51
f 109//52 97//52 221//52
f 116//53 109//53 222//53
f 107//19 116//19 223//19
f 108//54 107//54 224//54
f 105//55 108//55 225//55
f 106//56 105//56 226//56
f 104//57 106//57 227//57
f 87//58 104//58 228//58
f 94//59 87//59 229//59
f 115//60 94//60 230//60
f 113//61 115//61 231//61
f 114//62 113//62 232//62
f 162//63 111//63 190//63
f 163//64 114//64 233//64
f 233//64 234//64 163//64
f 190//63 214//63 162//63
f 232//62 233//62 114//62
f 231//61 232//61 113//61
f 230//60 231//60 115//60
f 229//59 230//59 94//59
f 228//58 229//58 87//58
f 227//57 228//57 104//57
f 226//56 227//56 106//56
f 225//55 226//55 105//55
f 224//54 225//54 108//54
f 223//19 224//19 107//19
f 222//53 223//53 116//53
f 221//52 222//52 109//52
f 220//51 221//51 97//51
f 219//50 220//50 89//50
f 218//49 219//49 81//49
f 217//48 218//48 88//48
f 216//47 217//47 125//47
f 215//46 216//46 127//46
f 214//45 215//45 129//45
f 235//2 236//2 133//2
f 237//3 235//3 178//3
f 238//4 237//4 135//4
f 239//5 238//5 147//5
f 240//6 239//6 164//6
f 241//7 240//7 173//7
f 242//8 241//8 174//8
f 243//9 242//9 149//9
f 244//10 243//10 148//10
f 245//11 244//11 165//11
f 246//12 245//12 156//12
f 247//13 246//13 153//13
f 248//14 247//14 119//14
f 249//15 248//15 112//15
f 250//16 249//16 140//16
f 251//17 250//17 146//17
f 252//18 251//18 161//18
f 253//19 252//19 160//19
f 254//20 253//20 172//20
f 236//21 254//21 134//21
f 134//21 133//21 236//21
f 172//20 134//20 254//20
f 160//19 172//19 253//19
f 161//18 160//18 252//18
f 146//17 161//17 251//17
f 140//16 146//16 250//16
f 112//15 140//15 249//15
f 119//14 112//14 248//14
f 153//13 119//13 247//13
f 156//12 153//12 246//12
f 165//11 156//11 245//11
f 148//10 165//10 244//10
f 149//9 148//9 243//9
f 174//8 149//8 242//8
f 173//7 174//7 241//7
f 164//6 173//6 240//6
f 147//5 164//5 239//5
f 135//4 147//4 238//4
f 178//3 135//3 237//3
f 133//2 178//2 235//2
f 248//1 249//1 255//1
f 249//1 250//1 256//1
f 251//1 257//1 256//1
f 252//1 258//1 257//1
f 246//1 247//1 259//1
f 247//1 248//1 260//1
f 256//1 255//1 249//1
f 257//1 251//1 252//1
f 235//1 261//1 262//1
f 237//1 263//1 261//1
f 239//1 264//1 265//1
f 240//1 266//1 264//1
f 240//1 241//1 267//1
f 241//1 242//1 268//1
f 260//1 259//1 247//1
f 256//1 250//1 251//1
f 261//1 235//1 237//1
f 238//1 265//1 263//1
f 264//1 239//1 240//1
f 268//1 267//1 241//1
f 255//1 260//1 248//1
f 253//1 269//1 258//1
f 254//1 270//1 269//1
f 254//1 236//1 262//1
f 263//1 237//1 238//1
f 267//1 266//1 240//1
f 258//1 252//1 253//1
f 262//1 270//1 254//1
f 265//1 238//1 239//1
f 242//1 243//1 271//1
f 245//1 246//1 272//1
f 269//1 253//1 254//1
f 271//1 268//1 242//1
f 243//1 244//1 273//1
f 259//1 272//1 246//1
f 273//1 271//1 243//1
f 262//1 236//1 235//1
f 245//1 274//1 273//1
f 273//1 244//1 245//1
f 272//1 274//1 245//1
f 275//2 276//2 262//2
f 277//3 275//3 261//3
f 278//4 277//4 263//4
f 279//5 278//5 265//5
f 280//6 279//6 264//6
f 281//7 280//7 266//7
f 282//8 281//8 267//8
f 283//9 282//9 268//9
f 284//10 283//10 271//10
f 285//11 284//11 273//11
f 286//12 285//12 274//12
f 287//13 286//13 272//13
f 288//14 287//14 259//14
f 289//15 288//15 260//15
f 290//16 289//16 255//16
f 291//17 290//17 256//17
f 292//18 291//18 257//18
f 293//19 292//19 258//19
f 294//20 293//20 269//20
f 276//21 294//21 270//21
f 270//21 262//21 276//21
f 269//20 270//20 294//20
f 258//19 269//19 293//19
f 257//18 258//18 292//18
f 256//17 257//17 291//17
f 255//16 256//16 290//16
f 260//15 255//15 289//15
f 259//14 260//14 288//14
f 272//13 259//13 287//13
f 274//12 272//12 286//12
f 273//11 274//11 285//11
f 271//10 273//10 284//10
f 268//9 271//9 283//9
f 267//8 268//8 282//8
f 266//7 267//7 281//7
f 264//6 266//6 280//6
f 265//5 264//5 279//5
f 263//4 265//4 278//4
f 261//3 263//3 277//3
f 262//2 261//2 275//2
f 295//2 296//2 157//2
f 297//3 295//3 121//3
f 298//4 297//4 120//4
f 299//5 298//5 138//5
f 300//6 299//6 142//6
f 301//7 300//7 158//7
f 302//8 301//8 171//8
f 303//9 302//9 145//9
f 304//10 303//10 144//10
f 305//11 304//11 159//11
f 306//12 305//12 179//12
f 307//13 306//13 177//13
f 308//14 307//14 123//14
f 309//15 308//15 122//15
f 310//16 309//16 139//16
f 311//17 310//17 124//17
f 312//18 311//18 110//18
f 313//19 312//19 155//19
f 314//20 313//20 154//20
f 296//21 314//21 170//21
f 170//21 157//21 296//21
f 154//20 170//20 314//20
f 155//19 154//19 313//19
f 110//18 155//18 312//18
f 124//17 110//17 311//17
f 139//16 124//16 310//16
f 122//15 139//15 309//15
f 123//14 122//14 308//14
f 177//13 123//13 307//13
f 179//12 177//12 306//12
f 159//11 179//11 305//11
f 144//10 159//10 304//10
f 145//9 144//9 303//9
f 171//8 145//8 302//8
f 158//7 171//7 301//7
f 142//6 158//6 300//6
f 138//5 142//5 299//5
f 120//4 138//4 298//4
f 121//3 120//3 297//3
f 157//2 121//2 295//2
f 311//1 315//1 316//1
f 312//1 317//1 315//1
f 295//1 318//1 319//1
f 297//1 320//1 318//1
f 300//1 301//1 321//1
f 301//1 302//1 322//1
f 306//1 307//1 323//1
f 307//1 308//1 324//1
f 308//1 309//1 325//1
f 309//1 310//1 316//1
f 315//1 311//1 312//1
f 313//1 326//1 317//1
f 314//1 327//1 326//1
f 314//1 296//1 319//1
f 318//1 295//1 297//1
f 298//1 328//1 320//1
f 299//1 329//1 328//1
f 300//1 330//1 329//1
f 322//1 321//1 301//1
f 302//1 303//1 331//1
f 324//1 323//1 307//1
f 316//1 325//1 309//1
f 317//1 312//1 313//1
f 319//1 327//1 314//1
f 320//1 297//1 298//1
f 329//1 299//1 300//1
f 331//1 322//1 302//1
f 303//1 304//1 332//1
f 325//1 324//1 308//1
f 326//1 313//1 314//1
f 328//1 298//1 299//1
f 332//1 331//1 303//1
f 305//1 306//1 333//1
f 316//1 310//1 311//1
f 321//1 330//1 300//1
f 305//1 334//1 332//1
f 323//1 333//1 306//1
f 332//1 304//1 305//1
f 319//1 296//1 295//1
f 333//1 334//1 305//1
f 335//2 336//2 319//2
f 337//3 335//3 318//3
f 338//4 337//4 320//4
f 339//5 338//5 328//5
f 340//6 339//6 329//6
f 341//7 340//7 330//7
f 342//8 341//8 321//8
f 343//9 342//9 322//9
f 344//10 343//10 331//10
f 345//11 344//11 332//11
f 346//12 345//12 334//12
f 347//13 346//13 333//13
f 348//14 347//14 323//14
f 349//15 348//15 324//15
f 350//16 349//16 325//16
f 351//17 350//17 316//17
f 352//18 351//18 315//18
f 353//19 352//19 317//19
f 354//20 353//20 326//20
f 336//21 354//21 327//21
f 327//21 319//21 336//21
f 326//20 327//20 354//20
f 317//19 326//19 353//19
f 315//18 317//18 352//18
f 316//17 315//17 351//17
f 325//16 316//16 350//16
f 324//15 325//15 349//15
f 323//14 324//14 348//14
f 333//13 323//13 347//13
f 334//12 333//12 346//12
f 332//11 334//11 345//11
f 331//10 332//10 344//10
f 322//9 331//9 343//9
f 321//8 322//8 342//8
f 330//7 321//7 341//7
f 329//6 330//6 340//6
f 328//5 329//5 339//5
f 320//4 328//4 338//4
f 318//3 320//3 337//3
f 319//2 318//2 335//2
f 355//2 356//2 167//2
f 357//3 355//3 176//3
f 358//4 357//4 169//4
f 359//5 358//5 168//5
f 360//6 359//6 141//6
f 361//7 360//7 150//7
f 362//8 361//8 152//8
f 363//9 362//9 151//9
f 364//10 363//10 166//10
f 365//11 364//11 175//11
f 366//12 365//12 187//12
f 367//13 366//13 188//13
f 368//14 367//14 184//14
f 369//15 368//15 183//15
f 370//16 369//16 180//16
f 371//17 370//17 185//17
f 372//18 371//18 182//18
f 373//19 372//19 181//19
f 374//20 373//20 186//20
f 356//21 374//21 143//21
f 143//21 167//21 356//21
f 186//20 143//20 374//20
f 181//19 186//19 373//19
f 182//18 181//18 372//18
f 185//17 182//17 371//17
f 180//16 185//16 370//16
f 183//15 180//15 369//15
f 184//14 183//14 368//14
f 188//13 184//13 367//13
f 187//12 188//12 366//12
f 175//11 187//11 365//11
f 166//10 175//10 364//10
f 151//9 166//9 363//9
f 152//8 151//8 362//8
f 150//7 152//7 361//7
f 141//6 150//6 360//6
f 168//5 141//5 359//5
f 169//4 168//4 358//4
f 176//3 169//3 357//3
f 167//2 176//2 355//2
f 366//1 367//1 375//1
f 367//1 368//1 376//1
f 355//1 377//1 378//1
f 357//1 379//1 377//1
f 376//1 375//1 367//1
f 368//1 369//1 380//1
f 369//1 370//1 381//1
f 370//1 371//1 382//1
f 372//1 383//1 382//1
f 373//1 384//1 383//1
f 374//1 385//1 384//1
f 374//1 356//1 378//1
f 377//1 355//1 357//1
f 358//1 386//1 379//1
f 380//1 376//1 368//1
f 382//1 381//1 370//1
f 383//1 372//1 373//1
f 378//1 385//1 374//1
f 379//1 357//1 358//1
f 359//1 387//1 386//1
f 360//1 388//1 387//1
f 361//1 389//1 388//1
f 361//1 362//1 390//1
f 362//1 363//1 391//1
f 381//1 380//1 369//1
f 384//1 373//1 374//1
f 386//1 358//1 359//1
f 388//1 360//1 361//1
f 391//1 390//1 362//1
f 363//1 364//1 392//1
f 365//1 366//1 393//1
f 382//1 371//1 372//1
f 387//1 359//1 360//1
f 392//1 391//1 363//1
f 375//1 393//1 366//1
f 390//1 389//1 361//1
f 378//1 356//1 355//1
f 365//1 394//1 392//1
f 392//1 364//1 365//1
f 393//1 394//1 365//1
f 395//2 396//2 378//2
f 397//3 395//3 377//3
f 398//4 397//4 379//4
f 399//5 398//5 386//5
f 400//6 399//6 387//6
f 401//7 400//7 388//7
f 402//8 401//8 389//8
f 403//9 402//9 390//9
f 404//10 403//10 391//10
f 405//11 404//11 392//11
f 406//12 405//12 394//12
f 407//13 406//13 393//13
f 408//14 407//14 375//14
f 409//15 408//15 376//15
f 410//16 409//16 380//16
f 411//17 410//17 381//17
f 412//18 411//18 382//18
f 413//19 412//19 383//19
f 414//20 413//20 384//20
f 396//21 414//21 385//21
f 385//21 378//21 396//21
f 384//20 385//20 414//20
f 383//19 384//19 413//19
f 382//18 383//18 412//18
f 381//17 382//17 411//17
f 380//16 381//16 410//16
f 376//15 380//15 409//15
f 375//14 376//14 408//14
f 393//13 375//13 407//13
f 394//12 393//12 406//12
f 392//11 394//11 405//11
f 391//10 392//10 404//10
f 390//9 391//9 403//9
f 389//8 390//8 402//8
f 388//7 389//7 401//7
f 387//6 388//6 400//6
f 386//5 387//5 399//5
f 379//4 386//4 398//4
f 377//3 379//3 397//3
f 378//2 377//2 395//2
f 219//65 218//65 206//65
f 206//65 205//65 219//65
f 415//65 196//65 195//65
f 415//65 221//65 198//65
f 220//65 202//65 201//65
f 204//65 220//65 219//65
f 416//65 231//65 230//65
f 415//65 194//65 193//65
f 415//65 197//65 196//65
f 221//65 199//65 198//65
f 220//65 203//65 202//65
f 205//65 204//65 219//65
f 230//65 415//65 416//65
f 195//65 194//65 415//65
f 221//65 200//65 199//65
f 204//65 203//65 220//65
f 415//65 223//65 222//65
f 415//65 226//65 225//65
f 415//65 228//65 227//65
f 230//65 229//65 415//65
f 410//65 73//65 74//65
f 218//65 217//65 208//65
f 198//65 197//65 415//65
f 200//65 221//65 220//65
f 415//65 224//65 223//65
f 227//65 226//65 415//65
f 416//65 232//65 231//65
f 416//65 234//65 233//65
f 340//65 409//65 283//65
f 278//65 79//65 80//65
f 282//65 409//65 410//65
f 217//65 210//65 209//65
f 210//65 217//65 216//65
f 289//65 290//65 213//65
f 208//65 207//65 218//65
f 201//65 200//65 220//65
f 225//65 224//65 415//65
f 233//65 232//65 416//65
f 283//65 284//65 340//65
f 278//65 78//65 79//65
f 77//65 279//65 280//65
f 281//65 75//65 76//65
f 74//65 282//65 410//65
f 73//65 410//65 411//65
f 216//65 211//65 210//65
f 213//65 216//65 289//65
f 193//65 212//65 415//65
f 229//65 228//65 415//65
f 409//65 342//65 343//65
f 340//65 341//65 409//65
f 278//65 77//65 78//65
f 77//65 278//65 279//65
f 76//65 280//65 281//65
f 411//65 72//65 73//65
f 213//65 211//65 216//65
f 222//65 221//65 415//65
f 341//65 342//65 409//65
f 280//65 76//65 77//65
f 74//65 75//65 282//65
f 192//65 294//65 276//65
f 290//65 291//65 192//65
f 207//65 206//65 218//65
f 409//65 282//65 283//65
f 281//65 282//65 75//65
f 192//65 293//65 294//65
f 276//65 191//65 192//65
f 192//65 213//65 290//65
f 216//65 288//65 289//65
f 286//65 215//65 214//65
f 80//65 62//65 278//65
f 192//65 292//65 293//65
f 209//65 208//65 217//65
f 214//65 351//65 286//65
f 214//65 350//65 351//65
f 287//65 216//65 215//65
f 214//65 348//65 349//65
f 214//65 346//65 347//65
f 62//65 277//65 278//65
f 62//65 276//65 275//65
f 344//65 407//65 408//65
f 72//65 414//65 396//65
f 291//65 292//65 192//65
f 215//65 286//65 287//65
f 347//65 348//65 214//65
f 349//65 350//65 214//65
f 346//65 214//65 190//65
f 286//65 354//65 336//65
f 275//65 277//65 62//65
f 344//65 406//65 407//65
f 344//65 189//65 405//65
f 72//65 413//65 414//65
f 189//65 402//65 403//65
f 189//65 70//65 398//65
f 70//65 71//65 396//65
f 216//65 287//65 288//65
f 190//65 189//65 345//65
f 286//65 353//65 354//65
f 408//65 409//65 344//65
f 189//65 404//65 405//65
f 72//65 412//65 413//65
f 189//65 401//65 402//65
f 189//65 399//65 400//65
f 70//65 397//65 398//65
f 396//65 395//65 70//65
f 191//65 276//65 62//65
f 189//65 344//65 345//65
f 286//65 352//65 353//65
f 405//65 406//65 344//65
f 72//65 411//65 412//65
f 400//65 401//65 189//65
f 395//65 397//65 70//65
f 189//65 68//65 69//65
f 191//65 63//65 64//65
f 62//65 61//65 191//65
f 190//65 345//65 346//65
f 286//65 351//65 352//65
f 396//65 71//65 72//65
f 343//65 344//65 409//65
f 398//65 399//65 189//65
f 189//65 67//65 68//65
f 191//65 66//65 67//65
f 61//65 63//65 191//65
f 284//65 338//65 339//65
f 284//65 285//65 336//65
f 336//65 285//65 286//65
f 403//65 404//65 189//65
f 67//65 189//65 191//65
f 64//65 65//65 191//65
f 284//65 337//65 338//65
f 336//65 335//65 284//65
f 65//65 66//65 191//65
f 335//65 337//65 284//65
f 69//65 70//65 189//65
f 339//65 340//65 284//65
f 417//66 418//66 419//66
f 420//67 417//67 421//67
f 422//68 420//68 423//68
f 424//69 422//69 425//69
f 418//70 416//70 415//70
f 424//71 426//71 427//71
f 427//71 428//71 424//71
f 415//70 419//70 418//70
f 425//69 426//69 424//69
f 423//68 425//68 422//68
f 421//67 423//67 420//67
f 419//66 421//66 417//66
f 102//24 86//24 419//24
f 429//24 430//24 427//24
f 419//24 415//24 102//24
f 427//24 86//24 429//24
f 86//24 421//24 419//24
f 427//24 426//24 86//24
f 86//24 423//24 421//24
f 426//24 425//24 86//24
f 425//24 423//24 86//24
f 415//24 212//24 102//24
f 431//22 85//22 428//22
f 163//22 416//22 418//22
f 85//22 424//22 428//22
f 163//22 234//22 416//22
f 85//22 422//22 424//22
f 418//22 85//22 163//22
f 85//22 420//22 422//22
f 418//22 417//22 85//22
f 417//22 420//22 85//22
f 428//22 432//22 431//22
f 432//65 430//65 429//65
f 429//65 431//65 432//65
f 85//72 433//72 434//72
f 435//72 429//72 436//72
f 434//72 437//72 85//72
f 434//72 438//72 437//72
f 431//72 439//72 440//72
f 429//72 441//72 442//72
f 443//72 429//72 444//72
f 429//72 445//72 436//72
f 85//72 446//72 447//72
f 434//72 448//72 438//72
f 85//72 449//72 450//72
f 451//72 452//72 453//72
f 440//72 454//72 431//72
f 442//72 431//72 429//72
f 455//72 429//72 456//72
f 429//72 457//72 444//72
f 444//72 458//72 443//72
f 436//72 459//72 460//72
f 429//72 86//72 461//72
f 86//72 462//72 463//72
f 86//72 464//72 465//72
f 447//72 86//72 85//72
f 85//72 437//72 466//72
f 450//72 433//72 85//72
f 453//72 467//72 468//72
f 451//72 85//72 469//72
f 85//72 470//72 471//72
f 442//72 439//72 431//72
f 429//72 455//72 472//72
f 429//72 473//72 456//72
f 456//72 474//72 455//72
f 429//72 475//72 476//72
f 477//72 478//72 479//72
f 477//72 480//72 481//72
f 474//72 482//72 481//72
f 474//72 483//72 484//72
f 474//72 456//72 485//72
f 469//72 85//72 486//72
f 444//72 453//72 458//72
f 429//72 487//72 488//72
f 429//72 489//72 445//72
f 429//72 490//72 491//72
f 461//72 492//72 429//72
f 465//72 462//72 86//72
f 466//72 446//72 85//72
f 85//72 451//72 449//72
f 451//72 493//72 452//72
f 469//72 494//72 451//72
f 453//72 444//72 495//72
f 85//72 496//72 470//72
f 431//72 497//72 496//72
f 472//72 441//72 429//72
f 476//72 473//72 429//72
f 479//72 498//72 477//72
f 481//72 480//72 474//72
f 485//72 483//72 474//72
f 486//72 499//72 469//72
f 488//72 457//72 429//72
f 491//72 489//72 429//72
f 463//72 461//72 86//72
f 436//72 434//72 500//72
f 494//72 493//72 451//72
f 495//72 501//72 453//72
f 501//72 502//72 453//72
f 471//72 503//72 85//72
f 431//72 504//72 497//72
f 477//72 505//72 478//72
f 484//72 482//72 474//72
f 499//72 506//72 469//72
f 429//72 435//72 487//72
f 492//72 490//72 429//72
f 500//72 507//72 436//72
f 507//72 508//72 436//72
f 453//72 468//72 451//72
f 434//72 509//72 510//72
f 434//72 436//72 511//72
f 496//72 85//72 431//72
f 429//72 443//72 475//72
f 481//72 505//72 477//72
f 85//72 512//72 486//72
f 436//72 460//72 435//72
f 502//72 467//72 453//72
f 511//72 509//72 434//72
f 510//72 448//72 434//72
f 454//72 504//72 431//72
f 506//72 477//72 469//72
f 508//72 459//72 436//72
f 498//72 469//72 477//72
f 447//72 464//72 86//72
f 503//72 512//72 85//72
f 474//73 480//73 513//73
f 455//74 474//74 514//74
f 472//75 455//75 515//75
f 441//76 472//76 516//76
f 442//77 441//77 517//77
f 439//78 442//78 518//78
f 440//79 439//79 519//79
f 454//80 440//80 520//80
f 504//81 454//81 521//81
f 497//82 504//82 522//82
f 496//83 497//83 523//83
f 470//84 496//84 524//84
f 471//85 470//85 525//85
f 503//86 471//86 526//86
f 512//87 503//87 527//87
f 486//88 512//88 528//88
f 499//89 486//89 529//89
f 506//90 499//90 530//90
f 477//91 506//91 531//91
f 480//92 477//92 532//92
f 532//92 513//92 480//92
f 531//91 532//91 477//91
f 530//90 531//90 506//90
f 529//89 530//89 499//89
f 528//88 529//88 486//88
f 527//87 528//87 512//87
f 526//86 527//86 503//86
f 525//85 526//85 471//85
f 524//84 525//84 470//84
f 523//83 524//83 496//83
f 522//82 523//82 497//82
f 521//81 522//81 504//81
f 520//80 521//80 454//80
f 519//79 520//79 440//79
f 518//78 519//78 439//78
f 517//77 518//77 442//77
f 516//76 517//76 441//76
f 515//75 516//75 472//75
f 514//74 515//74 455//74
f 513//73 514//73 474//73
f 443//73 458//73 533//73
f 475//74 443//74 534//74
f 476//75 475//75 535//75
f 473//76 476//76 536//76
f 456//77 473//77 537//77
f 485//78 456//78 538//78
f 483//79 485//79 539//79
f 484//80 483//80 540//80
f 482//81 484//81 541//81
f 481//82 482//82 542//82
f 505//83 481//83 543//83
f 478//84 505//84 544//84
f 479//85 478//85 545//85
f 498//86 479//86 546//86
f 469//87 498//87 547//87
f 494//88 469//88 548//88
f 493//89 494//89 549//89
f 452//90 493//90 550//90
f 453//91 452//91 551//91
f 458//92 453//92 552//92
f 552//92 533//92 458//92
f 551//91 552//91 453//91
f 550//90 551//90 452//90
f 549//89 550//89 493//89
f 548//88 549//88 494//88
f 547//87 548//87 469//87
f 546//86 547//86 498//86
f 545//85 546//85 479//85
f 544//84 545//84 478//84
f 543//83 544//83 505//83
f 542//82 543//82 481//82
f 541//81 542//81 482//81
f 540//80 541//80 484//80
f 539//79 540//79 483//79
f 538//78 539//78 485//78
f 537//77 538//77 456//77
f 536//76 537//76 473//76
f 535//75 536//75 476//75
f 534//74 535//74 475//74
f 533//73 534//73 443//73
f 500//88 434//88 553//88
f 507//89 500//89 554//89
f 508//90 507//90 555//90
f 459//91 508//91 556//91
f 460//92 459//92 557//92
f 435//73 460//73 558//73
f 487//74 435//74 559//74
f 488//75 487//75 560//75
f 457//76 488//76 561//76
f 444//77 457//77 562//77
f 495//78 444//78 563//78
f 501//79 495//79 564//79
f 502//80 501//80 565//80
f 467//81 502//81 566//81
f 468//82 467//82 567//82
f 451//83 468//83 568//83
f 449//84 451//84 569//84
f 450//85 449//85 570//85
f 433//86 450//86 571//86
f 434//87 433//87 572//87
f 572//87 553//87 434//87
f 571//86 572//86 433//86
f 570//85 571//85 450//85
f 569//84 570//84 449//84
f 568//83 569//83 451//83
f 567//82 568//82 468//82
f 566//81 567//81 467//81
f 565//80 566//80 502//80
f 564//79 565//79 501//79
f 563//78 564//78 495//78
f 562//77 563//77 444//77
f 561//76 562//76 457//76
f 560//75 561//75 488//75
f 559//74 560//74 487//74
f 558//73 559//73 435//73
f 557//92 558//92 460//92
f 556//91 557//91 459//91
f 555//90 556//90 508//90
f 554//89 555//89 507//89
f 553//88 554//88 500//88
f 573//23 574//23 526//23
f 574//23 575//23 527//23
f 576//23 573//23 525//23
f 527//23 526//23 574//23
f 577//23 528//23 527//23
f 578//23 529//23 528//23
f 579//23 530//23 529//23
f 580//23 531//23 530//23
f 581//23 582//23 520//23
f 582//23 583//23 521//23
f 526//23 525//23 573//23
f 528//23 577//23 578//23
f 530//23 579//23 580//23
f 584//23 532//23 531//23
f 521//23 520//23 582//23
f 583//23 585//23 522//23
f 586//23 523//23 522//23
f 586//23 576//23 524//23
f 527//23 575//23 577//23
f 531//23 580//23 584//23
f 587//23 581//23 519//23
f 522//23 521//23 583//23
f 524//23 523//23 586//23
f 529//23 578//23 579//23
f 588//23 516//23 515//23
f 589//23 517//23 516//23
f 520//23 519//23 581//23
f 525//23 524//23 576//23
f 590//23 513//23 532//23
f 590//23 591//23 514//23
f 516//23 588//23 589//23
f 589//23 587//23 518//23
f 522//23 585//23 586//23
f 514//23 513//23 590//23
f 592//23 515//23 514//23
f 518//23 517//23 589//23
f 532//23 584//23 590//23
f 515//23 592//23 588//23
f 514//23 591//23 592//23
f 519//23 518//23 587//23
f 578//88 577//88 593//88
f 579//89 578//89 594//89
f 580//90 579//90 595//90
f 584//91 580//91 596//91
f 590//92 584//92 597//92
f 591//73 590//73 598//73
f 592//74 591//74 599//74
f 588//75 592//75 600//75
f 589//76 588//76 601//76
f 587//77 589//77 602//77
f 581//78 587//78 603//78
f 582//79 581//79 604//79
f 583//80 582//80 605//80
f 585//81 583//81 606//81
f 586//82 585//82 607//82
f 576//83 586//83 608//83
f 573//84 576//84 609//84
f 574//85 573//85 610//85
f 575//86 574//86 611//86
f 577//87 575//87 612//87
f 612//87 593//87 577//87
f 611//86 612//86 575//86
f 610//85 611//85 574//85
f 609//84 610//84 573//84
f 608//83 609//83 576//83
f 607//82 608//82 586//82
f 606//81 607//81 585//81
f 605//80 606//80 583//80
f 604//79 605//79 582//79
f 603//78 604//78 581//78
f 602//77 603//77 587//77
f 601//76 602//76 589//76
f 600//75 601//75 588//75
f 599//74 600//74 592//74
f 598//73 599//73 591//73
f 597//92 598//92 590//92
f 596//91 597//91 584//91
f 595//90 596//90 580//90
f 594//89 595//89 579//89
f 593//88 594//88 578//88
f 613//23 546//23 545//23
f 613//23 614//23 547//23
f 547//23 546//23 613//23
f 614//23 615//23 548//23
f 615//23 616//23 549//23
f 616//23 617//23 550//23
f 618//23 539//23 538//23
f 619//23 540//23 539//23
f 620//23 541//23 540//23
f 621//23 542//23 541//23
f 548//23 547//23 614//23
f 550//23 549//23 616//23
f 617//23 622//23 551//23
f 622//23 623//23 552//23
f 539//23 618//23 619//23
f 541//23 620//23 621//23
f 624//23 543//23 542//23
f 624//23 625//23 544//23
f 549//23 548//23 615//23
f 552//23 551//23 622//23
f 540//23 619//23 620//23
f 544//23 543//23 624//23
f 626//23 545//23 544//23
f 551//23 550//23 617//23
f 627//23 536//23 535//23
f 628//23 537//23 536//23
f 542//23 621//23 624//23
f 545//23 626//23 613//23
f 629//23 533//23 552//23
f 629//23 630//23 534//23
f 536//23 627//23 628//23
f 631//23 538//23 537//23
f 544//23 625//23 626//23
f 534//23 533//23 629//23
f 630//23 632//23 535//23
f 537//23 628//23 631//23
f 552//23 623//23 629//23
f 535//23 632//23 627//23
f 535//23 534//23 630//23
f 538//23 631//23 618//23
f 616//88 615//88 633//88
f 617//89 616//89 634//89
f 622//90 617//90 635//90
f 623//91 622//91 636//91
f 629//92 623//92 637//92
f 630//73 629//73 638//73
f 632//74 630//74 639//74
f 627//75 632//75 640//75
f 628//76 627//76 641//76
f 631//77 628//77 642//77
f 618//78 631//78 643//78
f 619//79 618//79 644//79
f 620//80 619//80 645//80
f 621//81 620//81 646//81
f 624//82 621//82 647//82
f 625//83 624//83 648//83
f 626//84 625//84 649//84
f 613//85 626//85 650//85
f 614//86 613//86 651//86
f 615//87 614//87 652//87
f 652//87 633//87 615//87
f 651//86 652//86 614//86
f 650//85 651//85 613//85
f 649//84 650//84 626//84
f 648//83 649//83 625//83
f 647//82 648//82 624//82
f 646//81 647//81 621//81
f 645//80 646//80 620//80
f 644//79 645//79 619//79
f 643//78 644//78 618//78
f 642//77 643//77 631//77
f 641//76 642//76 628//76
f 640//75 641//75 627//75
f 639//74 640//74 632//74
f 638//73 639//73 630//73
f 637//92 638//92 629//92
f 636//91 637//91 623//91
f 635//90 636//90 622//90
f 634//89 635//89 617//89
f 633//88 634//88 616//88
f 653//23 654//23 571//23
f 655//23 572//23 571//23
f 656//23 553//23 572//23
f 657//23 554//23 553//23
f 571//23 654//23 655//23
f 553//23 656//23 657//23
f 658//23 555//23 554//23
f 659//23 556//23 555//23
f 572//23 655//23 656//23
f 555//23 658//23 659//23
f 660//23 661//23 565//23
f 661//23 662//23 566//23
f 663//23 653//23 570//23
f 554//23 657//23 658//23
f 664//23 660//23 564//23
f 566//23 565//23 661//23
f 665//23 568//23 567//23
f 665//23 663//23 569//23
f 571//23 570//23 653//23
f 666//23 557//23 556//23
f 565//23 564//23 660//23
f 662//23 667//23 567//23
f 569//23 568//23 665//23
f 556//23 659//23 666//23
f 668//23 561//23 560//23
f 669//23 562//23 561//23
f 567//23 566//23 662//23
f 570//23 569//23 663//23
f 670//23 558//23 557//23
f 670//23 671//23 559//23
f 561//23 668//23 669//23
f 669//23 664//23 563//23
f 567//23 667//23 665//23
f 559//23 558//23 670//23
f 672//23 560//23 559//23
f 563//23 562//23 669//23
f 557//23 666//23 670//23
f 560//23 672//23 668//23
f 559//23 671//23 672//23
f 564//23 563//23 664//23
f 671//73 670//73 673//73
f 672//74 671//74 674//74
f 668//75 672//75 675//75
f 669//76 668//76 676//76
f 664//77 669//77 677//77
f 660//78 664//78 678//78
f 661//79 660//79 679//79
f 662//80 661//80 680//80
f 667//81 662//81 681//81
f 665//82 667//82 682//82
f 663//83 665//83 683//83
f 653//84 663//84 684//84
f 654//85 653//85 685//85
f 655//86 654//86 686//86
f 656//87 655//87 687//87
f 657//88 656//88 688//88
f 658//89 657//89 689//89
f 659//90 658//90 690//90
f 666//91 659//91 691//91
f 670//92 666//92 692//92
f 692//92 673//92 670//92
f 691//91 692//91 666//91
f 690//90 691//90 659//90
f 689//89 690//89 658//89
f 688//88 689//88 657//88
f 687//87 688//87 656//87
f 686//86 687//86 655//86
f 685//85 686//85 654//85
f 684//84 685//84 653//84
f 683//83 684//83 663//83
f 682//82 683//82 665//82
f 681//81 682//81 667//81
f 680//80 681//80 662//80
f 679//79 680//79 661//79
f 678//78 679//78 660//78
f 677//77 678//77 664//77
f 676//76 677//76 669//76
f 675//75 676//75 668//75
f 674//74 675//74 672//74
f 673//73 674//73 671//73
f 427//23 634//23 633//23
f 427//23 689//23 688//23
f 427//23 594//23 593//23
f 633//23 594//23 427//23
f 633//23 595//23 594//23
f 688//23 635//23 427//23
f 688//23 636//23 635//23
f 428//23 612//23 611//23
f 593//23 428//23 427//23
f 633//23 596//23 595//23
f 688//23 637//23 636//23
f 427//23 691//23 690//23
f 593//23 612//23 428//23
f 427//23 635//23 634//23
f 690//23 689//23 427//23
f 432//23 679//23 678//23
f 679//23 432//23 643//23
f 432//23 606//23 605//23
f 427//23 692//23 691//23
f 692//23 427//23 693//23
f 678//23 694//23 432//23
f 678//23 695//23 694//23
f 643//23 681//23 680//23
f 643//23 680//23 679//23
f 605//23 604//23 432//23
f 428//23 609//23 608//23
f 427//23 696//23 693//23
f 432//23 694//23 697//23
f 432//23 607//23 606//23
f 608//23 432//23 428//23
f 611//23 610//23 428//23
f 693//23 674//23 673//23
f 427//23 698//23 699//23
f 682//23 640//23 639//23
f 608//23 607//23 432//23
f 633//23 597//23 596//23
f 699//23 696//23 427//23
f 427//23 700//23 701//23
f 674//23 693//23 702//23
f 678//23 703//23 695//23
f 639//23 684//23 683//23
f 610//23 609//23 428//23
f 701//23 698//23 427//23
f 676//23 702//23 704//23
f 702//23 676//23 675//23
f 678//23 705//23 703//23
f 682//23 641//23 640//23
f 682//23 643//23 642//23
f 693//23 673//23 692//23
f 688//23 639//23 638//23
f 702//23 675//23 674//23
f 704//23 706//23 676//23
f 706//23 678//23 677//23
f 643//23 682//23 681//23
f 642//23 641//23 682//23
f 639//23 686//23 685//23
f 639//23 688//23 687//23
f 432//23 646//23 645//23
f 647//23 600//23 599//23
f 647//23 602//23 601//23
f 647//23 432//23 603//23
f 638//23 637//23 688//23
f 677//23 676//23 706//23
f 639//23 683//23 682//23
f 687//23 686//23 639//23
f 645//23 644//23 432//23
f 599//23 649//23 648//23
f 603//23 602//23 647//23
f 599//23 633//23 652//23
f 685//23 684//23 639//23
f 432//23 647//23 646//23
f 601//23 600//23 647//23
f 652//23 651//23 599//23
f 651//23 650//23 599//23
f 697//23 430//23 432//23
f 633//23 599//23 598//23
f 599//23 648//23 647//23
f 598//23 597//23 633//23
f 650//23 649//23 599//23
f 678//23 707//23 708//23
f 430//23 709//23 700//23
f 430//23 697//23 710//23
f 644//23 643//23 432//23
f 678//23 706//23 707//23
f 430//23 711//23 709//23
f 710//23 712//23 430//23
f 708//23 705//23 678//23
f 712//23 711//23 430//23
f 700//23 427//23 430//23
f 604//23 603//23 432//23
f 490//73 492//73 713//73
f 491//74 490//74 714//74
f 489//75 491//75 715//75
f 445//76 489//76 716//76
f 436//77 445//77 717//77
f 511//78 436//78 718//78
f 509//79 511//79 719//79
f 510//80 509//80 720//80
f 448//81 510//81 721//81
f 438//82 448//82 722//82
f 437//83 438//83 723//83
f 466//84 437//84 724//84
f 446//85 466//85 725//85
f 447//86 446//86 726//86
f 464//87 447//87 727//87
f 465//88 464//88 728//88
f 462//89 465//89 729//89
f 463//90 462//90 730//90
f 461//91 463//91 731//91
f 492//92 461//92 732//92
f 732//92 713//92 492//92
f 731//91 732//91 461//91
f 730//90 731//90 463//90
f 729//89 730//89 462//89
f 728//88 729//88 465//88
f 727//87 728//87 464//87
f 726//86 727//86 447//86
f 725//85 726//85 446//85
f 724//84 725//84 466//84
f 723//83 724//83 437//83
f 722//82 723//82 438//82
f 721//81 722//81 448//81
f 720//80 721//80 510//80
f 719//79 720//79 509//79
f 718//78 719//78 511//78
f 717//77 718//77 436//77
f 716//76 717//76 445//76
f 715//75 716//75 489//75
f 714//74 715//74 491//74
f 713//73 714//73 490//73
f 733//23 728//23 727//23
f 734//23 729//23 728//23
f 735//23 727//23 726//23
f 728//23 733//23 734//23
f 736//23 725//23 724//23
f 737//23 726//23 725//23
f 727//23 735//23 733//23
f 738//23 730//23 729//23
f 739//23 721//23 720//23
f 740//23 722//23 721//23
f 725//23 736//23 737//23
f 729//23 734//23 738//23
f 738//23 741//23 731//23
f 741//23 742//23 732//23
f 743//23 744//23 720//23
f 721//23 739//23 740//23
f 745//23 723//23 722//23
f 746//23 724//23 723//23
f 726//23 737//23 735//23
f 732//23 731//23 741//23
f 747//23 743//23 719//23
f 720//23 744//23 739//23
f 723//23 745//23 746//23
f 731//23 730//23 738//23
f 720//23 719//23 743//23
f 724//23 746//23 736//23
f 748//23 713//23 732//23
f 748//23 749//23 714//23
f 749//23 750//23 715//23
f 750//23 751//23 716//23
f 751//23 752//23 717//23
f 752//23 747//23 718//23
f 722//23 740//23 745//23
f 714//23 713//23 748//23
f 716//23 715//23 750//23
f 718//23 717//23 752//23
f 732//23 742//23 748//23
f 717//23 716//23 751//23
f 715//23 714//23 749//23
f 719//23 718//23 747//23
f 749//73 748//73 700//73
f 750//74 749//74 709//74
f 751//75 750//75 711//75
f 752//76 751//76 712//76
f 747//77 752//77 710//77
f 743//78 747//78 697//78
f 744//79 743//79 694//79
f 739//80 744//80 695//80
f 740//81 739//81 703//81
f 745//82 740//82 705//82
f 746//83 745//83 708//83
f 736//84 746//84 707//84
f 737//85 736//85 706//85
f 735//86 737//86 704//86
f 733//87 735//87 702//87
f 734//88 733//88 693//88
f 738//89 734//89 696//89
f 741//90 738//90 699//90
f 742//91 741//91 698//91
f 748//92 742//92 701//92
f 701//92 700//92 748//92
f 698//91 701//91 742//91
f 699//90 698//90 741//90
f 696//89 699//89 738//89
f 693//88 696//88 734//88
f 702//87 693//87 733//87
f 704//86 702//86 735//86
f 706//85 704//85 737//85
f 707//84 706//84 736//84
f 708//83 707//83 746//83
f 705//82 708//82 745//82
f 703//81 705//81 740//81
f 695//80 703//80 739//80
f 694//79 695//79 744//79
f 697//78 694//78 743//78
f 710//77 697//77 747//77
f 712//76 710//76 752//76
f 711//75 712//75 751//75
f 709//74 711//74 750//74
f 700//73 709//73 749//73
#1532 polygons

