# Aspose.3D Wavefront OBJ Exporter
# Copyright 2004-2023 Aspose Pty Ltd.
# File created: 11/02/2023 20:20:39


#
# object obj_48096181
#

v 35 0.01364851836115121 51.01357650756835937
v 30 0.01364851836115121 51.01357650756835937
v 35 4.561486550258533E-31 50.7526969909667968
v 25 0.01364851836115121 51.01357650756835937
v 20 0.01364851836115121 51.01357650756835937
v 20 0.0544450469315052 51.27160263061523436
v 15 0.0544450469315052 51.27160263061523436
v 15 0.1219441369175911 51.52396392822265624
v 10 0.1219441369175911 51.52396392822265624
v 10 0.21540877223014832 51.76790618896484368
v 5 0.21540877223014832 51.76790618896484368
v 5 0.33381843566894532 52.00075912475585937
v 0 0.33381843566894532 52.00075912475585937
v 0 0.47588023543357848 52.21998977661132812
v 5 0.47588023543357848 52.21998977661132812
v 0 0.64004302024841312 52.42319488525390624
v 5 0.64004302024841312 52.42319488525390624
v 0 0.82451432943344112 52.60816192626953128
v 5 0.82451432943344112 52.60816192626953128
v 0 1.02727997303009033 52.77286911010742192
v 5 1.02727997303009033 52.77286911010742192
v 0 1.24612593650817872 52.9155197143554688
v 5 1.24612593650817872 52.9155197143554688
v 0 1.47866272926330568 53.03455352783203125
v 5 1.47866272926330568 53.03455352783203125
v 0 1.72235131263732912 53.12867355346679688
v 5 1.72235131263732912 53.12867355346679688
v 0 1.97453093528747552 53.19684982299804688
v 5 1.97453093528747552 53.19684982299804688
v 0 2.23244810104370116 53.23834228515625
v 5 2.23244810104370116 53.23834228515625
v 0 2.49328660964965824 53.25268936157226564
v 5 2.49328660964965824 53.25268936157226564
v 0 2.75419831275939936 53.23974227905273436
v 5 2.75419831275939936 53.23974227905273436
v 0 3.01233434677124023 53.19963836669921876
v 5 3.01233434677124023 53.19963836669921876
v 0 3.2648766040802002 53.13281631469726562
v 5 3.2648766040802002 53.13281631469726562
v 0 3.5090670585632324 53.040008544921875
v 5 3.5090670585632324 53.040008544921875
v 0 3.7422399520874024 52.92222213745117184
v 5 3.7422399520874024 52.92222213745117184
v 0 3.96184897422790528 52.7807502746582032
v 5 3.96184897422790528 52.7807502746582032
v 0 4.1654963493347168 52.61713409423828128
v 5 4.1654963493347168 52.61713409423828128
v 0 4.35095834732055664 52.4331626892089844
v 5 4.35095834732055664 52.4331626892089844
v 0 4.5162100791931152 52.23083877563476564
v 5 4.5162100791931152 52.23083877563476564
v 0 4.65944719314575192 52.0123748779296875
v 10 4.5162100791931152 52.23083877563476564
v 15 4.5162100791931152 52.23083877563476564
v 15 4.35095834732055664 52.4331626892089844
v 20 4.35095834732055664 52.4331626892089844
v 20 4.1654963493347168 52.61713409423828128
v 25 4.1654963493347168 52.61713409423828128
v 25 3.96184897422790528 52.7807502746582032
v 30 3.96184897422790528 52.7807502746582032
v 30 3.7422399520874024 52.92222213745117184
v 35 3.7422399520874024 52.92222213745117184
v 35 3.5090670585632324 53.040008544921875
v 30 3.5090670585632324 53.040008544921875
v 35 3.2648766040802002 53.13281631469726562
v 30 3.2648766040802002 53.13281631469726562
v 35 3.01233434677124023 53.19963836669921876
v 30 3.01233434677124023 53.19963836669921876
v 35 2.75419831275939936 53.23974227905273436
v 30 2.75419831275939936 53.23974227905273436
v 35 2.49328660964965824 53.25268936157226564
v 30 2.49328660964965824 53.25268936157226564
v 35 2.23244810104370116 53.23834228515625
v 30 2.23244810104370116 53.23834228515625
v 35 1.97453093528747552 53.19684982299804688
v 30 1.97453093528747552 53.19684982299804688
v 35 1.72235131263732912 53.12867355346679688
v 30 1.72235131263732912 53.12867355346679688
v 35 1.47866272926330568 53.03455352783203125
v 30 1.47866272926330568 53.03455352783203125
v 35 1.24612593650817872 52.9155197143554688
v 30 1.24612593650817872 52.9155197143554688
v 35 1.02727997303009033 52.77286911010742192
v 30 1.02727997303009033 52.77286911010742192
v 35 0.82451432943344112 52.60816192626953128
v 30 0.82451432943344112 52.60816192626953128
v 35 0.64004302024841312 52.42319488525390624
v 30 0.64004302024841312 52.42319488525390624
v 35 0.47588023543357848 52.21998977661132812
v 30 0.47588023543357848 52.21998977661132812
v 35 0.33381843566894532 52.00075912475585937
v 30 0.33381843566894532 52.00075912475585937
v 35 0.21540877223014832 51.76790618896484368
v 30 0.21540877223014832 51.76790618896484368
v 35 0.1219441369175911 51.52396392822265624
v 30 0.1219441369175911 51.52396392822265624
v 35 0.0544450469315052 51.27160263061523436
v 30 0.0544450469315052 51.27160263061523436
v 35 3.96184897422790528 52.7807502746582032
v 30 4.1654963493347168 52.61713409423828128
v 25 4.35095834732055664 52.4331626892089844
v 20 4.5162100791931152 52.23083877563476564
v 35 4.1654963493347168 52.61713409423828128
v 30 4.35095834732055664 52.4331626892089844
v 25 4.5162100791931152 52.23083877563476564
v 35 4.65944719314575192 52.0123748779296875
v 35 4.35095834732055664 52.4331626892089844
v 30 4.5162100791931152 52.23083877563476564
v 35 4.5162100791931152 52.23083877563476564
v 0 0.21540877223014832 51.76790618896484368
v 5 0.1219441369175911 51.52396392822265624
v 10 0.0544450469315052 51.27160263061523436
v 15 0.01364851836115121 51.01357650756835937
v 0 0.1219441369175911 51.52396392822265624
v 5 0.0544450469315052 51.27160263061523436
v 10 0.01364851836115121 51.01357650756835937
v 0 4.561486550258533E-31 50.7526969909667968
v 0 0.0544450469315052 51.27160263061523436
v 5 0.01364851836115121 51.01357650756835937
v 0 0.01364851836115121 51.01357650756835937
v 25 0.0544450469315052 51.27160263061523436
v 25 0.1219441369175911 51.52396392822265624
v 25 0.21540877223014832 51.76790618896484368
v 25 0.33381843566894532 52.00075912475585937
v 25 0.47588023543357848 52.21998977661132812
v 25 0.64004302024841312 52.42319488525390624
v 25 0.82451432943344112 52.60816192626953128
v 25 1.02727997303009033 52.77286911010742192
v 25 1.24612593650817872 52.9155197143554688
v 25 1.47866272926330568 53.03455352783203125
v 25 1.72235131263732912 53.12867355346679688
v 25 1.97453093528747552 53.19684982299804688
v 25 2.23244810104370116 53.23834228515625
v 25 2.49328660964965824 53.25268936157226564
v 25 2.75419831275939936 53.23974227905273436
v 25 3.01233434677124023 53.19963836669921876
v 25 3.2648766040802002 53.13281631469726562
v 25 3.5090670585632324 53.040008544921875
v 25 3.7422399520874024 52.92222213745117184
v 20 0.1219441369175911 51.52396392822265624
v 15 0.21540877223014832 51.76790618896484368
v 10 0.33381843566894532 52.00075912475585937
v 20 0.21540877223014832 51.76790618896484368
v 20 0.33381843566894532 52.00075912475585937
v 20 0.47588023543357848 52.21998977661132812
v 20 0.64004302024841312 52.42319488525390624
v 20 0.82451432943344112 52.60816192626953128
v 20 1.02727997303009033 52.77286911010742192
v 20 1.24612593650817872 52.9155197143554688
v 20 1.47866272926330568 53.03455352783203125
v 20 1.72235131263732912 53.12867355346679688
v 20 1.97453093528747552 53.19684982299804688
v 20 2.23244810104370116 53.23834228515625
v 20 2.49328660964965824 53.25268936157226564
v 20 2.75419831275939936 53.23974227905273436
v 20 3.01233434677124023 53.19963836669921876
v 20 3.2648766040802002 53.13281631469726562
v 20 3.5090670585632324 53.040008544921875
v 20 3.7422399520874024 52.92222213745117184
v 20 3.96184897422790528 52.7807502746582032
v 15 0.33381843566894532 52.00075912475585937
v 10 0.47588023543357848 52.21998977661132812
v 15 0.47588023543357848 52.21998977661132812
v 15 0.64004302024841312 52.42319488525390624
v 15 0.82451432943344112 52.60816192626953128
v 15 1.02727997303009033 52.77286911010742192
v 15 1.24612593650817872 52.9155197143554688
v 15 1.47866272926330568 53.03455352783203125
v 15 1.72235131263732912 53.12867355346679688
v 15 1.97453093528747552 53.19684982299804688
v 15 2.23244810104370116 53.23834228515625
v 15 2.49328660964965824 53.25268936157226564
v 15 2.75419831275939936 53.23974227905273436
v 15 3.01233434677124023 53.19963836669921876
v 15 3.2648766040802002 53.13281631469726562
v 15 3.5090670585632324 53.040008544921875
v 15 3.7422399520874024 52.92222213745117184
v 15 3.96184897422790528 52.7807502746582032
v 15 4.1654963493347168 52.61713409423828128
v 10 0.64004302024841312 52.42319488525390624
v 10 0.82451432943344112 52.60816192626953128
v 10 1.02727997303009033 52.77286911010742192
v 10 1.24612593650817872 52.9155197143554688
v 10 1.47866272926330568 53.03455352783203125
v 10 1.72235131263732912 53.12867355346679688
v 10 1.97453093528747552 53.19684982299804688
v 10 2.23244810104370116 53.23834228515625
v 10 2.49328660964965824 53.25268936157226564
v 10 2.75419831275939936 53.23974227905273436
v 10 3.01233434677124023 53.19963836669921876
v 10 3.2648766040802002 53.13281631469726562
v 10 3.5090670585632324 53.040008544921875
v 10 3.7422399520874024 52.92222213745117184
v 10 3.96184897422790528 52.7807502746582032
v 10 4.1654963493347168 52.61713409423828128
v 10 4.35095834732055664 52.4331626892089844
v 35 0 0
v 35 30 7.923825805015838E-32
v 35 32.48064422607421872 4.31889438629150392
v 22.5 1.9516090592913303E-32 5
v 12.5 1.9516090592913303E-32 5
v 0 0 0
v 12.5 0 0
v 22.5 0 0
v 0 30 7.923825805015838E-32
v 0 32.48064422607421872 4.31889438629150392
v 12.5 30 7.923825805015838E-32
v 12.5 32.48064422607421872 4.31889438629150392
v 12.5 32.08333206176757812 5
v 22.5 32.08333206176757812 5
v 22.5 32.48064422607421872 4.31889438629150392
v 22.5 30 7.923825805015838E-32
# 212 vertices

vn 1.1087067033006733E-16 -0.99863421916961664 0.0522465668618679
vn 0 -0.99863421916961664 0.0522465668618679
vn 0 -0.98773032426834112 0.15616922080516816
vn 0 -0.96604156494140624 0.25838670134544372
vn 0 -0.9338048100471496 0.35778290033340456
vn 5.312421238589521E-17 -0.9338048100471496 0.35778290033340456
vn 4.948108397508506E-17 -0.89137196540832512 0.45327255129814144
vn -9.827979026692818E-17 -0.89137196540832512 0.45327255129814144
vn -9.317063311287805E-17 -0.8392064571380616 0.54381299018859864
vn -2.7951189933863414E-16 -0.8392064571380616 0.54381299018859864
vn -2.5908532923868226E-16 -0.77787774801254272 0.62841564416885376
vn 1.727235572374181E-16 -0.77787774801254272 0.62841564416885376
vn 1.5721991615712862E-16 -0.70805555582046512 0.70615673065185544
vn 1.1005394528045698E-16 -0.70805555582046512 0.70615673065185544
vn 9.799973999874222E-17 -0.63050228357315064 0.77618741989135744
vn -2.799992609206606E-16 -0.63050228357315064 0.77618741989135744
vn -2.425014035132883E-16 -0.54606461524963376 0.83774304389953616
vn -1.4550084475495095E-16 -0.54606461524963376 0.83774304389953616
vn -1.214134379616354E-16 -0.45566460490226744 0.89015156030654912
vn -2.0235572442152157E-17 -0.45566460490226744 0.89015156030654912
vn -1.6000056981300933E-17 -0.36028924584388736 0.93284064531326288
vn -6.400022792520373E-17 -0.36028924584388736 0.93284064531326288
vn -4.635935728286914E-17 -0.26097998023033144 0.96534419059753424
vn 4.635935728286914E-17 -0.26097998023033144 0.96534419059753424
vn 2.821229842776639E-17 -0.15882112085819244 0.98730736970901488
vn -1.4171543069086984E-15 -0.15882112085819244 0.98730736970901488
vn -1.4238186562585769E-15 -0.05492810904979706 0.99849033355712896
vn 1.4189400641197473E-15 -0.05492810904979706 0.99849033355712896
vn 1.4193388048796673E-15 0.04956464469432831 0.99877089262008672
vn 0 0.04956464469432831 0.99877089262008672
vn 0 0.15351621806621552 0.98814612627029424
vn -1.3634978865166866E-17 0.15351621806621552 0.98814612627029424
vn -2.2718854667820052E-17 0.255791574716568 0.96673196554183952
vn -1.4874029843892338E-15 0.255791574716568 0.96673196554183952
vn -1.4861503285393631E-15 0.35527396202087404 0.9347622394561768
vn 6.310933455314942E-17 0.35527396202087404 0.9347622394561768
vn 8.009188192445511E-17 0.45087721943855288 0.8925859928131104
vn -1.2013781957796022E-16 0.45087721943855288 0.8925859928131104
vn -1.4429988438464236E-16 0.54155743122100832 0.84066379070281984
vn 9.619992071727994E-17 0.54155743122100832 0.84066379070281984
vn 1.1125756586361554E-16 0.6263244152069092 0.7795624732971192
vn -3.337727240606262E-16 0.6263244152069092 0.7795624732971192
vn -3.7530126715684686E-16 0.7042527794837952 0.7099493145942688
vn -2.502008271247115E-16 0.7042527794837952 0.7099493145942688
vn -2.7515462950906E-16 0.7744914293289184 0.63258439302444456
vn 0 0.7744914293289184 0.63258439302444456
vn 0 0.83627361059188848 0.54831230640411376
vn 0 0.7042527794837952 0.7099493145942688
vn 0 0.6263244152069092 0.7795624732971192
vn 0 0.54155743122100832 0.84066379070281984
vn 1.4343536814796114E-16 0.54155743122100832 0.84066379070281984
vn 1.2013781957796022E-16 0.45087721943855288 0.8925859928131104
vn -8.009188192445511E-17 0.45087721943855288 0.8925859928131104
vn -6.310933455314942E-17 0.35527396202087404 0.9347622394561768
vn 1.4545957042761803E-15 0.35527396202087404 0.9347622394561768
vn 1.4646841843153342E-15 0.255791574716568 0.96673196554183952
vn 2.2718854667820052E-17 0.255791574716568 0.96673196554183952
vn 1.3634978865166866E-17 0.15351621806621552 0.98814612627029424
vn -1.4193388048796673E-15 0.04956464469432831 0.99877089262008672
vn -1.4189400641197473E-15 -0.05492810904979706 0.99849033355712896
vn 1.4238186562585769E-15 -0.05492810904979706 0.99849033355712896
vn 1.4171543069086984E-15 -0.15882112085819244 0.98730736970901488
vn -2.115922216646357E-17 -0.15882112085819244 0.98730736970901488
vn -3.476951796215185E-17 -0.26097998023033144 0.96534419059753424
vn 6.400022792520373E-17 -0.36028924584388736 0.93284064531326288
vn 4.8000169289541574E-17 -0.36028924584388736 0.93284064531326288
vn 6.07067189808177E-17 -0.45566460490226744 0.89015156030654912
vn 1.214134379616354E-16 -0.45566460490226744 0.89015156030654912
vn 1.4550084475495095E-16 -0.54606461524963376 0.83774304389953616
vn 2.667515332767053E-16 -0.54606461524963376 0.83774304389953616
vn 3.0799917907179276E-16 -0.63050228357315064 0.77618741989135744
vn -8.399977430573123E-17 -0.63050228357315064 0.77618741989135744
vn -9.43319549882331E-17 -0.70805555582046512 0.70615673065185544
vn -1.1005394528045698E-16 -0.70805555582046512 0.70615673065185544
vn -1.209064887427037E-16 -0.77787774801254272 0.62841564416885376
vn 3.0226622185675924E-16 -0.77787774801254272 0.62841564416885376
vn 3.2609720266018336E-16 -0.8392064571380616 0.54381299018859864
vn 9.317063311287805E-17 -0.8392064571380616 0.54381299018859864
vn 9.896216795017012E-17 -0.89137196540832512 0.45327255129814144
vn -3.463676010604852E-16 -0.89137196540832512 0.45327255129814144
vn -3.6285605029085584E-16 -0.9338048100471496 0.35778290033340456
vn 2.0734632012401325E-16 -0.9338048100471496 0.35778290033340456
vn 2.1450431762857353E-16 -0.96604156494140624 0.25838670134544372
vn 5.362607940714338E-17 -0.96604156494140624 0.25838670134544372
vn 5.4830047406159214E-17 -0.98773032426834112 0.15616922080516816
vn 1.0966009481231843E-16 -0.98773032426834112 0.15616922080516816
vn -9.56235809711224E-17 0.54155743122100832 0.84066379070281984
vn -1.1125756586361554E-16 0.6263244152069092 0.7795624732971192
vn 2.2312168672680396E-16 0.6263244152069092 0.7795624732971192
vn 2.502008271247115E-16 0.7042527794837952 0.7099493145942688
vn 2.4968379291975156E-16 0.7042527794837952 0.7099493145942688
vn 2.7515462950906E-16 0.7744914293289184 0.63258439302444456
vn 3.4796356995178994E-16 -0.89137196540832512 0.45327255129814144
vn 3.6285605029085584E-16 -0.9338048100471496 0.35778290033340456
vn -2.0718441771707947E-16 -0.9338048100471496 0.35778290033340456
vn -2.1450431762857353E-16 -0.96604156494140624 0.25838670134544372
vn -1.1023273540677664E-16 -0.98773032426834112 0.15616922080516816
vn -1.1087067033006733E-16 -0.99863421916961664 0.0522465668618679
vn 0 -0.89137196540832512 0.45327255129814144
vn 0 -0.8392064571380616 0.54381299018859864
vn 0 -0.77787774801254272 0.62841564416885376
vn 0 -0.70805555582046512 0.70615673065185544
vn 0 -0.63050228357315064 0.77618741989135744
vn 0 -0.54606461524963376 0.83774304389953616
vn 0 -0.45566460490226744 0.89015156030654912
vn 0 -0.36028924584388736 0.93284064531326288
vn 0 -0.26097998023033144 0.96534419059753424
vn 0 -0.15882112085819244 0.98730736970901488
vn 0 -0.05492810904979706 0.99849033355712896
vn 0 0.255791574716568 0.96673196554183952
vn 0 0.35527396202087404 0.9347622394561768
vn 0 0.45087721943855288 0.8925859928131104
vn 2.0235572442152157E-17 -0.45566460490226744 0.89015156030654912
vn 1.6000056981300933E-17 -0.36028924584388736 0.93284064531326288
vn 1.4106149213883196E-17 -0.15882112085819244 0.98730736970901488
vn 4.878596274732612E-18 -0.05492810904979706 0.99849033355712896
vn -4.809996035863997E-17 0.54155743122100832 0.84066379070281984
vn -5.562878293180777E-17 0.6263244152069092 0.7795624732971192
vn 4.515557788103297E-17 -0.8392064571380616 0.54381299018859864
vn 4.3180889309354527E-17 -0.77787774801254272 0.62841564416885376
vn 2.317967864143457E-17 -0.26097998023033144 0.96534419059753424
vn 3.2000113962601866E-17 -0.36028924584388736 0.93284064531326288
vn 2.39058952427806E-17 -0.26097998023033144 0.96534419059753424
vn 1 0 0
vn 2.0337821020881577E-33 -1 8.987673318701757E-33
vn 0 -1 9.543318478075913E-33
vn -2.0337821020881577E-33 -1 8.987673318701757E-33
vn 0 -1 3.903217971645867E-33
vn 0 0.86714214086532592 -0.49806073307991024
vn 8.274388517228218E-16 0.86714214086532592 -0.49806073307991024
vn 0 0.86377888917922976 0.50387102365493776
vn 1.3297956697727446E-16 0.86377888917922976 0.50387102365493776
vn -1.2953473692035042E-16 0.86377888917922976 0.50387102365493776
vn -8.46806683578265E-16 0.86714214086532592 -0.49806073307991024
vn -1 0 0
vn 0 0 -1
vn 0 2.641275378541208E-33 -1
# 137 vertex normals

g obj_48096181
s 1
f 1//1 2//1 3//1
f 3//2 2//2 4//2
f 3//2 4//2 5//2
f 5//3 4//3 6//3
f 5//3 6//3 7//3
f 7//4 6//4 8//4
f 7//4 8//4 9//4
f 9//5 8//5 10//5
f 9//6 10//6 11//6
f 11//7 10//7 12//7
f 11//8 12//8 13//8
f 13//9 12//9 14//9
f 14//10 12//10 15//10
f 14//11 15//11 16//11
f 16//12 15//12 17//12
f 16//13 17//13 18//13
f 18//14 17//14 19//14
f 18//15 19//15 20//15
f 20//16 19//16 21//16
f 20//17 21//17 22//17
f 22//18 21//18 23//18
f 22//19 23//19 24//19
f 24//20 23//20 25//20
f 24//21 25//21 26//21
f 26//22 25//22 27//22
f 26//23 27//23 28//23
f 28//24 27//24 29//24
f 28//25 29//25 30//25
f 30//26 29//26 31//26
f 30//27 31//27 32//27
f 32//28 31//28 33//28
f 32//29 33//29 34//29
f 34//30 33//30 35//30
f 34//31 35//31 36//31
f 36//32 35//32 37//32
f 36//33 37//33 38//33
f 38//34 37//34 39//34
f 38//35 39//35 40//35
f 40//36 39//36 41//36
f 40//37 41//37 42//37
f 42//38 41//38 43//38
f 42//39 43//39 44//39
f 44//40 43//40 45//40
f 44//41 45//41 46//41
f 46//42 45//42 47//42
f 46//43 47//43 48//43
f 48//44 47//44 49//44
f 48//45 49//45 50//45
f 50//46 49//46 51//46
f 50//47 51//47 52//47
f 52//47 51//47 53//47
f 52//47 53//47 54//47
f 54//46 53//46 55//46
f 54//46 55//46 56//46
f 56//48 55//48 57//48
f 56//48 57//48 58//48
f 58//49 57//49 59//49
f 58//49 59//49 60//49
f 60//50 59//50 61//50
f 60//51 61//51 62//51
f 62//52 61//52 63//52
f 63//53 61//53 64//53
f 63//54 64//54 65//54
f 65//55 64//55 66//55
f 65//56 66//56 67//56
f 67//57 66//57 68//57
f 67//58 68//58 69//58
f 69//31 68//31 70//31
f 69//30 70//30 71//30
f 71//59 70//59 72//59
f 71//60 72//60 73//60
f 73//61 72//61 74//61
f 73//62 74//62 75//62
f 75//63 74//63 76//63
f 75//64 76//64 77//64
f 77//24 76//24 78//24
f 77//65 78//65 79//65
f 79//66 78//66 80//66
f 79//67 80//67 81//67
f 81//68 80//68 82//68
f 81//69 82//69 83//69
f 83//70 82//70 84//70
f 83//71 84//71 85//71
f 85//72 84//72 86//72
f 85//73 86//73 87//73
f 87//74 86//74 88//74
f 87//75 88//75 89//75
f 89//76 88//76 90//76
f 89//77 90//77 91//77
f 91//78 90//78 92//78
f 91//79 92//79 93//79
f 93//80 92//80 94//80
f 93//81 94//81 95//81
f 95//82 94//82 96//82
f 95//83 96//83 97//83
f 97//84 96//84 98//84
f 97//85 98//85 1//85
f 1//86 98//86 2//86
f 62//87 99//87 60//87
f 60//88 99//88 100//88
f 60//49 100//49 58//49
f 58//48 100//48 101//48
f 58//48 101//48 56//48
f 56//46 101//46 102//46
f 56//46 102//46 54//46
f 54//47 102//47 52//47
f 99//89 103//89 100//89
f 100//90 103//90 104//90
f 100//48 104//48 101//48
f 101//46 104//46 105//46
f 101//46 105//46 102//46
f 102//47 105//47 106//47
f 102//47 106//47 52//47
f 103//91 107//91 104//91
f 104//92 107//92 108//92
f 104//46 108//46 105//46
f 105//47 108//47 106//47
f 107//46 109//46 108//46
f 108//47 109//47 106//47
f 13//93 110//93 11//93
f 11//94 110//94 111//94
f 11//5 111//5 9//5
f 9//4 111//4 112//4
f 9//4 112//4 7//4
f 7//3 112//3 113//3
f 7//3 113//3 5//3
f 5//2 113//2 3//2
f 110//95 114//95 111//95
f 111//96 114//96 115//96
f 111//4 115//4 112//4
f 112//3 115//3 116//3
f 112//3 116//3 113//3
f 113//2 116//2 117//2
f 113//2 117//2 3//2
f 114//4 118//4 115//4
f 115//3 118//3 119//3
f 115//3 119//3 116//3
f 116//2 119//2 117//2
f 118//97 120//97 119//97
f 119//98 120//98 117//98
f 4//3 2//3 121//3
f 121//3 2//3 98//3
f 121//4 98//4 122//4
f 122//4 98//4 96//4
f 122//5 96//5 123//5
f 123//5 96//5 94//5
f 123//99 94//99 124//99
f 124//99 94//99 92//99
f 124//100 92//100 125//100
f 125//100 92//100 90//100
f 125//101 90//101 126//101
f 126//101 90//101 88//101
f 126//102 88//102 127//102
f 127//102 88//102 86//102
f 127//103 86//103 128//103
f 128//103 86//103 84//103
f 128//104 84//104 129//104
f 129//104 84//104 82//104
f 129//105 82//105 130//105
f 130//105 82//105 80//105
f 130//106 80//106 131//106
f 131//106 80//106 78//106
f 131//107 78//107 132//107
f 132//107 78//107 76//107
f 132//108 76//108 133//108
f 133//108 76//108 74//108
f 133//109 74//109 134//109
f 134//109 74//109 72//109
f 134//30 72//30 135//30
f 135//30 72//30 70//30
f 135//31 70//31 136//31
f 136//31 70//31 68//31
f 136//110 68//110 137//110
f 137//110 68//110 66//110
f 137//111 66//111 138//111
f 138//111 66//111 64//111
f 138//112 64//112 139//112
f 139//112 64//112 61//112
f 139//50 61//50 59//50
f 4//3 121//3 6//3
f 6//4 121//4 140//4
f 6//4 140//4 8//4
f 8//5 140//5 141//5
f 8//5 141//5 10//5
f 10//99 141//99 142//99
f 10//99 142//99 12//99
f 12//100 142//100 15//100
f 140//4 121//4 122//4
f 140//5 122//5 143//5
f 143//5 122//5 123//5
f 143//99 123//99 144//99
f 144//99 123//99 124//99
f 144//100 124//100 145//100
f 145//100 124//100 125//100
f 145//101 125//101 146//101
f 146//101 125//101 126//101
f 146//102 126//102 147//102
f 147//102 126//102 127//102
f 147//103 127//103 148//103
f 148//103 127//103 128//103
f 148//104 128//104 149//104
f 149//104 128//104 129//104
f 149//105 129//105 150//105
f 150//113 129//113 130//113
f 150//114 130//114 151//114
f 151//106 130//106 131//106
f 151//107 131//107 152//107
f 152//107 131//107 132//107
f 152//108 132//108 153//108
f 153//115 132//115 133//115
f 153//116 133//116 154//116
f 154//109 133//109 134//109
f 154//30 134//30 155//30
f 155//30 134//30 135//30
f 155//31 135//31 156//31
f 156//32 135//32 136//32
f 156//33 136//33 157//33
f 157//110 136//110 137//110
f 157//111 137//111 158//111
f 158//111 137//111 138//111
f 158//112 138//112 159//112
f 159//112 138//112 139//112
f 159//50 139//50 160//50
f 160//50 139//50 59//50
f 160//49 59//49 57//49
f 140//5 143//5 141//5
f 141//99 143//99 161//99
f 141//99 161//99 142//99
f 142//100 161//100 162//100
f 142//100 162//100 15//100
f 15//101 162//101 17//101
f 161//99 143//99 144//99
f 161//100 144//100 163//100
f 163//100 144//100 145//100
f 163//101 145//101 164//101
f 164//101 145//101 146//101
f 164//102 146//102 165//102
f 165//102 146//102 147//102
f 165//103 147//103 166//103
f 166//103 147//103 148//103
f 166//104 148//104 167//104
f 167//104 148//104 149//104
f 167//105 149//105 168//105
f 168//105 149//105 150//105
f 168//106 150//106 169//106
f 169//106 150//106 151//106
f 169//107 151//107 170//107
f 170//107 151//107 152//107
f 170//108 152//108 171//108
f 171//108 152//108 153//108
f 171//109 153//109 172//109
f 172//109 153//109 154//109
f 172//30 154//30 173//30
f 173//30 154//30 155//30
f 173//31 155//31 174//31
f 174//31 155//31 156//31
f 174//110 156//110 175//110
f 175//110 156//110 157//110
f 175//111 157//111 176//111
f 176//111 157//111 158//111
f 176//112 158//112 177//112
f 177//112 158//112 159//112
f 177//50 159//50 178//50
f 178//117 159//117 160//117
f 178//118 160//118 179//118
f 179//49 160//49 57//49
f 179//48 57//48 55//48
f 161//119 163//119 162//119
f 162//120 163//120 180//120
f 162//101 180//101 17//101
f 17//102 180//102 19//102
f 180//101 163//101 164//101
f 180//102 164//102 181//102
f 181//102 164//102 165//102
f 181//103 165//103 182//103
f 182//103 165//103 166//103
f 182//104 166//104 183//104
f 183//104 166//104 167//104
f 183//105 167//105 184//105
f 184//105 167//105 168//105
f 184//106 168//106 185//106
f 185//106 168//106 169//106
f 185//107 169//107 186//107
f 186//121 169//121 170//121
f 186//115 170//115 187//115
f 187//108 170//108 171//108
f 187//109 171//109 188//109
f 188//109 171//109 172//109
f 188//30 172//30 189//30
f 189//30 172//30 173//30
f 189//31 173//31 190//31
f 190//31 173//31 174//31
f 190//110 174//110 191//110
f 191//110 174//110 175//110
f 191//111 175//111 192//111
f 192//111 175//111 176//111
f 192//112 176//112 193//112
f 193//112 176//112 177//112
f 193//50 177//50 194//50
f 194//50 177//50 178//50
f 194//49 178//49 195//49
f 195//49 178//49 179//49
f 195//48 179//48 196//48
f 196//48 179//48 55//48
f 196//46 55//46 53//46
f 21//103 19//103 181//103
f 181//102 19//102 180//102
f 21//103 181//103 182//103
f 23//104 21//104 182//104
f 23//104 182//104 183//104
f 25//105 23//105 183//105
f 25//105 183//105 184//105
f 27//106 25//106 184//106
f 27//122 184//122 185//122
f 29//123 27//123 185//123
f 29//107 185//107 186//107
f 31//108 29//108 186//108
f 31//108 186//108 187//108
f 33//109 31//109 187//109
f 33//109 187//109 188//109
f 35//30 33//30 188//30
f 35//30 188//30 189//30
f 37//31 35//31 189//31
f 37//31 189//31 190//31
f 39//110 37//110 190//110
f 39//110 190//110 191//110
f 41//111 39//111 191//111
f 41//111 191//111 192//111
f 43//112 41//112 192//112
f 43//112 192//112 193//112
f 45//50 43//50 193//50
f 45//50 193//50 194//50
f 47//49 45//49 194//49
f 47//49 194//49 195//49
f 49//48 47//48 195//48
f 49//48 195//48 196//48
f 51//46 49//46 196//46
f 51//46 196//46 53//46
f 109//124 107//124 106//124
f 106//124 107//124 103//124
f 106//124 103//124 99//124
f 99//124 62//124 106//124
f 106//124 62//124 63//124
f 106//124 63//124 65//124
f 65//124 67//124 106//124
f 106//124 67//124 1//124
f 106//124 1//124 197//124
f 197//124 1//124 3//124
f 67//124 69//124 1//124
f 1//124 69//124 71//124
f 1//124 71//124 73//124
f 73//124 75//124 1//124
f 1//124 75//124 77//124
f 1//124 77//124 79//124
f 79//124 81//124 1//124
f 1//124 81//124 83//124
f 1//124 83//124 85//124
f 85//124 87//124 1//124
f 1//124 87//124 89//124
f 1//124 89//124 91//124
f 91//124 93//124 1//124
f 1//124 93//124 95//124
f 1//124 95//124 97//124
f 197//124 198//124 106//124
f 106//124 198//124 199//124
f 197//125 3//125 200//125
f 200//126 3//126 117//126
f 200//126 117//126 201//126
f 201//127 117//127 202//127
f 201//128 202//128 203//128
f 200//128 204//128 197//128
f 205//129 206//129 207//129
f 207//130 206//130 208//130
f 203//124 207//124 201//124
f 201//124 207//124 208//124
f 201//124 208//124 209//124
f 106//131 210//131 52//131
f 52//131 210//131 209//131
f 52//131 209//131 206//131
f 206//132 209//132 208//132
f 106//131 199//131 210//131
f 210//133 199//133 211//133
f 199//134 198//134 211//134
f 211//129 198//129 212//129
f 210//135 211//135 200//135
f 200//135 211//135 212//135
f 200//135 212//135 204//135
f 209//136 210//136 201//136
f 201//136 210//136 200//136
f 198//137 197//137 212//137
f 212//137 197//137 204//137
f 207//137 203//137 205//137
f 205//137 203//137 202//137
f 202//135 117//135 206//135
f 206//135 117//135 120//135
f 206//135 120//135 118//135
f 118//135 114//135 206//135
f 206//135 114//135 110//135
f 206//135 110//135 52//135
f 52//135 110//135 34//135
f 52//135 34//135 36//135
f 13//135 14//135 110//135
f 110//135 14//135 16//135
f 110//135 16//135 18//135
f 18//135 20//135 110//135
f 110//135 20//135 22//135
f 110//135 22//135 24//135
f 24//135 26//135 110//135
f 110//135 26//135 28//135
f 110//135 28//135 30//135
f 30//135 32//135 110//135
f 110//135 32//135 34//135
f 36//135 38//135 52//135
f 52//135 38//135 40//135
f 52//135 40//135 42//135
f 42//135 44//135 52//135
f 52//135 44//135 46//135
f 52//135 46//135 48//135
f 48//135 50//135 52//135
f 206//135 205//135 202//135
#420 polygons

