# Aspose.3D Wavefront OBJ Exporter
# Copyright 2004-2023 Aspose Pty Ltd.
# File created: 07/03/2023 18:02:11


#
# object obj_62394848
#

v 0.06561265140771866 -0.02539999969303608 0.01883477717638015
v 0.06822651624679565 -0.00050317065324634 -0.00050317065324634
v 0.0682625025510788 -2.0816681711721685E-17 -7.771561172376096E-16
v 0.06561265140771866 0.05079999938607216 0.01883477717638015
v 0.06826063245534897 0.05079999938607216 -0.00050524610560387
v 0.06822651624679565 0.00050317065324634 -0.00050317065324634
v 0.06756768375635147 0.00971476640552282 -0.00971476640552282
v 0.06532666087150574 0.05079999938607216 -0.0198039524257183
v 0.02848255261778831 0.05079999938607216 0.06203638389706612
v 0.06826063245534897 -0.02539999969303608 -0.00050524610560387
v 0.06532666087150574 -0.02539999969303608 -0.0198039524257183
v 0.06489358842372894 -0.01968538574874401 -0.01968538574874401
v 0.06756768375635147 -0.00971476640552282 -0.00971476640552282
v -0.06336094439029694 -0.02539999969303608 -0.02539999969303608
v 0.06756768375635147 0.00971476640552282 -0.50800001621246336
v 0.06532666087150574 0.0198039524257183 -0.0198039524257183
v 0.06756768375635147 -0.00971476640552282 -0.50800001621246336
v 0.06209375336766243 0.02835726737976074 -0.50800001621246336
v 0.06209375336766243 0.02835726737976074 -0.02835726737976074
v -5.412337245047638E-15 -9.020562075079397E-17 -0.50800001621246336
v 0.06336094439029694 -0.02539999969303608 -0.02539999969303608
v 0.06209375336766243 -0.02835726737976074 -0.50800001621246336
v 0.0575992614030838 0.05079999938607216 0.03663460165262222
v 0.04487574100494385 0.05079999938607216 0.05143866688013077
v 0.0575992614030838 -0.02539999969303608 0.03663460165262222
v 0.05705066025257111 0.05079999938607216 -0.03748320788145065
v 0.06209375336766243 -0.02835726737976074 -0.02835726737976074
v 0.05497638881206512 -0.02539999969303608 -0.0404643714427948
v 0.05705066025257111 0.03748320788145065 -0.03748320788145065
v 0.05497638881206512 -0.0404643714427948 -0.0404643714427948
v 0.05158935487270355 0.0447024293243885 -0.50800001621246336
v 0.05158935487270355 0.0447024293243885 -0.0447024293243885
v 0.05158935487270355 -0.0447024293243885 -0.50800001621246336
v 0.04487574100494385 -0.02539999969303608 0.05143866688013077
v -0.06532666087150574 -0.02539999969303608 -0.0198039524257183
v 0.04559746757149696 0.05079999938607216 -0.05079999938607216
v -0.05497638881206512 -0.02539999969303608 -0.0404643714427948
v 0.04232485964894294 -0.02539999969303608 -0.05355721339583397
v 0.05158935487270355 -0.0447024293243885 -0.0447024293243885
v 0.04232485964894294 -0.05355721339583397 -0.05355721339583397
v 0.03690549358725548 0.05742606893181801 -0.50800001621246336
v 0.03666265308856964 0.05707792937755585 -0.05707792937755585
v 0.03690549358725548 -0.05742606893181801 -0.50800001621246336
v 0.03233705461025238 0.05079999938607216 -0.06011725217103958
v 0.02848255261778831 -0.02539999969303608 0.06203638389706612
v 0.02666245214641094 -0.02539999969303608 -0.06284013390541077
v 0.03690549358725548 -0.05742606893181801 -0.05742606893181801
v 0.02666245214641094 -0.06284013390541077 -0.06284013390541077
v 0.0192317683249712 0.06549739092588425 -0.50800001621246336
v 0.0192317683249712 0.06549739092588425 -0.06549739092588425
v 0.03233705461025238 0.06011725217103958 -0.06011725217103958
v 0.0192317683249712 -0.06549739092588425 -0.50800001621246336
v 0.01667355746030807 0.05079999938607216 -0.06619487702846527
v 0.00976022891700267 0.05079999938607216 0.06756113469600677
v -0.04559746757149696 0.05079999938607216 -0.05079999938607216
v -0.05705066025257111 0.05079999938607216 -0.03748320788145065
v -7.494005416219807E-16 0.05079999938607216 -0.0682625025510788
v -0.01667355746030807 0.05079999938607216 -0.06619487702846527
v -0.03233705461025238 0.05079999938607216 -0.06011725217103958
v -0.06532666087150574 0.05079999938607216 -0.0198039524257183
v -0.06826063245534897 0.05079999938607216 -0.00050524610560387
v 0.00976022891700267 -0.02539999969303608 0.06756113469600677
v 0.00910334661602974 -0.02539999969303608 -0.06765277683734894
v 0.0192317683249712 -0.06549739092588425 -0.06549739092588425
v 0.01667355746030807 0.06619487702846527 -0.06619487702846527
v 0.00910334661602974 -0.06765277683734894 -0.06765277683734894
v -5.412337245047638E-15 0.0682625025510788 -0.50800001621246336
v -7.216449660063518E-16 0.0682625025510788 -0.0682625025510788
v 0.00840063393115997 0.06774362176656723 -0.06774362176656723
v -5.440092820663267E-15 -0.0682625025510788 -0.50800001621246336
v -0.00976022891700267 0.05079999938607216 0.06756113469600677
v -0.00976022891700267 -0.02539999969303608 0.06756113469600677
v -0.00910334661602974 -0.02539999969303608 -0.06765277683734894
v -7.494005416219807E-16 -0.0682625025510788 -0.0682625025510788
v -0.0192317683249712 0.06549739092588425 -0.50800001621246336
v -0.00840063393115997 0.06774362176656723 -0.06774362176656723
v -0.0192317683249712 -0.06549739092588425 -0.50800001621246336
v -0.06209375336766243 0.02835726737976074 -0.50800001621246336
v -0.05158935487270355 0.0447024293243885 -0.50800001621246336
v -0.03690549358725548 0.05742606893181801 -0.50800001621246336
v -0.06209375336766243 -0.02835726737976074 -0.50800001621246336
v -0.06756768375635147 -0.00971476640552282 -0.50800001621246336
v -0.06756768375635147 0.00971476640552282 -0.50800001621246336
v -0.03690549358725548 -0.05742606893181801 -0.50800001621246336
v -0.05158935487270355 -0.0447024293243885 -0.50800001621246336
v -0.00910334661602974 -0.06765277683734894 -0.06765277683734894
v -0.01664027385413646 0.06603483110666275 -0.06603483110666275
v -0.02666245214641094 -0.02539999969303608 -0.06284013390541077
v -0.0192317683249712 -0.06549739092588425 -0.06549739092588425
v -0.02848255261778831 0.05079999938607216 0.06203638389706612
v -0.02848255261778831 -0.02539999969303608 0.06203638389706612
v -0.0192317683249712 0.06549739092588425 -0.06549739092588425
v -0.03233705461025238 0.06011725217103958 -0.06011725217103958
v -0.02666245214641094 -0.06284013390541077 -0.06284013390541077
v -0.04232485964894294 -0.02539999969303608 -0.05355721339583397
v -0.04232485964894294 -0.05355721339583397 -0.05355721339583397
v -0.03690549358725548 -0.05742606893181801 -0.05742606893181801
v -0.04487574100494385 0.05079999938607216 0.05143866688013077
v -0.0575992614030838 0.05079999938607216 0.03663460165262222
v -0.06561265140771866 0.05079999938607216 0.01883477717638015
v -0.04487574100494385 -0.02539999969303608 0.05143866688013077
v -0.0575992614030838 -0.02539999969303608 0.03663460165262222
v -0.06561265140771866 -0.02539999969303608 0.01883477717638015
v -0.06826063245534897 -0.02539999969303608 -0.00050524610560387
v -0.03666265308856964 0.05707792937755585 -0.05707792937755585
v -0.05497638881206512 -0.0404643714427948 -0.0404643714427948
v -0.05158935487270355 -0.0447024293243885 -0.0447024293243885
v -0.05158935487270355 0.0447024293243885 -0.0447024293243885
v -0.05705066025257111 0.03748320788145065 -0.03748320788145065
v -0.06209375336766243 -0.02835726737976074 -0.02835726737976074
v -0.06209375336766243 0.02835726737976074 -0.02835726737976074
v -0.06532666087150574 0.0198039524257183 -0.0198039524257183
v -0.06489358842372894 -0.01968538574874401 -0.01968538574874401
v -0.06756768375635147 -0.00971476640552282 -0.00971476640552282
v -0.06756768375635147 0.00971476640552282 -0.00971476640552282
v -0.06822651624679565 0.00050317065324634 -0.00050317065324634
v -0.0682625025510788 1.214306433183765E-17 7.771561172376096E-16
v -0.06822651624679565 -0.00050317065324634 -0.00050317065324634
# 118 vertices

vn 0.99576747417449952 -0.08997400850057602 0.01875763013958931
vn 0.9902477860450744 -9.64752792170315E-17 0.13931724429130554
vn 0.9907556772232056 0.00138563336804509 0.13565145432949066
vn 0.9974034428596496 -0.00067950773518532 -0.07201289385557175
vn 0.99745225906372064 -1.348489157523055E-16 -0.07133687287569046
vn 0.98849695920944208 0.01701426319777965 -0.15028063952922822
vn 0.99740326404571536 -0.00067950773518532 -0.07201586663722992
vn 1.2246468525851679E-16 1 -2.3348698772103244E-16
vn 0.9907556772232056 0.00134632771369069 0.13565145432949066
vn 0.98564314842224128 0.077804334461689 -0.14984677731990814
vn 0.9787791967391968 -0.0698666051030159 -0.1926395446062088
vn 0.99735254049301152 0.00137273641303181 -0.0727054625749588
vn -1.2246468525851679E-16 -1 2.3348698772103244E-16
vn 0.9974520802497864 -1.3484941867811793E-16 -0.07133984565734863
vn 1 -1.2246468525851679E-16 -1.0658141036401503E-14
vn 0.9762079119682312 0.2168365567922592 -1.0455190248173478E-14
vn 0.9762079119682312 -1.5814265267404378E-16 -0.2168365567922592
vn 0.96586585044860832 -0.25904282927513124 -1.023385122169351E-14
vn 0.95949298143386848 0.2817324697971344 -1.0292192310001544E-14
vn 0.9363818168640136 0.3509705662727356 -0.00295486696995794
vn -1.0658141036401503E-14 -1.7797583648977461E-16 -1
vn 0.96586591005325312 -0.25904262065887452 4.148422938499152E-09
vn 0.95949268341064448 -0.28173238039016724 -0.0007930013234727
vn 0.91185498237609856 -3.860873450025137E-17 0.41051244735717776
vn 0.90524017810821536 0.03110131062567234 -0.42376041412353512
vn 0.93541222810745232 -1.7747991193404702E-16 -0.35355895757675172
vn 0.94059991836547856 0.07813699543476105 -0.33040335774421692
vn 0.91916859149932864 -0.39386430382728576 -9.704666540863438E-15
vn -0.86835527420043952 -0.11121999472379684 0.48331075906753544
vn 0.87524926662445072 0.48367217183113096 -9.441461216899531E-15
vn 0.87524926662445072 -1.932690692920102E-16 -0.48367217183113096
vn 0.86207300424575808 -0.50678408145904544 -9.069767913051294E-15
vn -0.86207300424575808 1.9576882233803526E-16 0.50678408145904544
vn 0.84125351905822752 0.54064083099365232 -9.09243112658803E-15
vn 0.79899179935455328 0.6013339161872864 -0.00309945852495729
vn 0.84125292301177984 -0.54064047336578368 -0.00119367719162255
vn 0.75838714838027952 2.3129784761246595E-17 0.65180438756942752
vn 0.75490927696228032 0.09256061911582946 -0.64926457405090336
vn 0.7975068092346192 -2.0504100084405247E-16 -0.60330992937088016
vn -0.78117555379867552 2.0677875510979367E-16 0.62431144714355472
vn -0.71887224912643432 -0.02637423388659954 0.69464164972305296
vn 0.78117555379867552 -0.62431144714355472 -8.180110573825262E-15
vn 0.71326088905334472 0.7008986473083496 -7.765685304820993E-15
vn 0.6909411549568176 -0.72291100025177008 -7.195357692643938E-15
vn -0.6909411549568176 2.1327656984130802E-16 0.72291100025177008
vn 0.65486049652099608 0.75574922561645504 0.00093615474179387
vn 0.57647746801376344 0.81710618734359744 -0.00334246316924691
vn 0.65486013889312744 -0.7557488083839416 -0.00137540709692984
vn -0.57490938901901248 1.8777326715735398E-07 0.81821709871292112
vn 0.54290312528610232 8.297681658579916E-17 0.8397953510284424
vn -0.58102732896804808 2.1600702025145166E-16 0.81388401985168464
vn -0.50978374481201168 -0.01764130406081676 0.86012166738510128
vn 0.58102732896804808 -0.81388401985168464 -6.002640011703317E-15
vn 0.4672996401786804 -0.884099006652832 -4.7741199421481514E-15
vn -0.4672996401786804 2.1457595808706552E-16 0.884099006652832
vn 0.41541510820388792 0.90963196754455568 -4.639940182424177E-15
vn 0.38036319613456728 0.9248356819152832 -0.00167730567045509
vn 0.57446604967117312 0.81852787733078 0.00094132788944989
vn 0.41541463136672976 -0.90963095426559456 -0.00150438456330448
vn -0.57490915060043336 2.1602896369874147E-16 0.81821721792221072
vn -0.37977451086044312 2.1115068919726714E-16 0.92507910728454592
vn -0.36167266964912416 0.01871734485030174 0.932117223739624
vn 0.28302362561225892 1.3603852058716496E-16 0.95911294221878048
vn -0.33672311902046204 2.0881938982862729E-16 0.9416037201881408
vn -0.26430425047874452 -0.01492603216320276 0.96432381868362432
vn 0.33672311902046204 -0.9416037201881408 -3.368990326716912E-15
vn 0.26304447650909424 0.9647837281227112 -3.02882951839611E-15
vn -0.26304447650909424 2.0392184532760292E-16 0.9647837281227112
vn 0.20814484357833864 -0.97809803485870368 -1.990063887267221E-15
vn -0.20814484357833864 1.9956820185783422E-16 0.97809803485870368
vn 0.14231488108634948 0.98982143402099616 -1.745216943643867E-15
vn 0.06186866015195847 0.998077929019928 -0.00357020506635308
vn 0.18409763276576996 0.98290783166885376 -0.0004857435415033251
vn 0.14231470227241516 -0.98982024192810064 -0.00157153524924069
vn -0.18400980532169344 1.974714909109144E-16 0.98292440176010128
vn -0.12300600111484528 0.03060933388769626 0.9919337630271912
vn 1.0658141036401503E-14 1.7797583648977461E-16 1
vn -0.06682845950126648 1.8576209421318116E-16 0.99776446819305424
vn 1.0655321263720093E-14 -0.0142237152904272 0.99989885091781616
vn 0.06682845950126648 -0.99776446819305424 -4.793021694124368E-16
vn -0.06164937093853951 2.9220953202290694E-16 0.99809789657592768
vn -0.14231470227241516 0.98982024192810064 -0.00154894974548369
vn -0.06164937093853951 0.99809789657592768 4.228805371722194E-16
vn 0.06164937093853951 6.635193549391649E-17 0.99809789657592768
vn -0.14231488108634948 -0.98982143402099616 1.7479224727565156E-15
vn -0.06705089658498764 -0.99774396419525152 -0.0033414619974792
vn 0.06682845950126648 1.6939383101709205E-16 0.99776446819305424
vn 0.12300600111484528 0.03060933388769626 0.9919337630271912
vn -0.20306569337844848 0.97916513681411744 2.1423125495800832E-09
vn 0.20518690347671508 -0.01072939578443765 0.97866398096084592
vn 0.20814484357833864 1.4858741957985582E-16 0.97809803485870368
vn 0.26430425047874452 -0.01492603216320276 0.96432381868362432
vn -0.20814484357833864 -0.97809803485870368 2.4468100986898677E-15
vn -0.28302362561225892 2.0535932641354247E-16 0.95911294221878048
vn -0.20306535065174104 0.97916519641876224 1.9356767487569695E-15
vn 0.20518654584884644 -0.01072939578443765 0.97866404056549072
vn 0.36167266964912416 0.01871734485030174 0.932117223739624
vn -0.37977451086044312 0.92507910728454592 3.8316966854729136E-15
vn 0.37977451086044312 1.1813276024291128E-16 0.92507910728454592
vn -0.41541510820388792 -0.90963196754455568 4.639940182424177E-15
vn -0.3378848433494568 -0.94118028879165648 -0.0036720351781696
vn 0.33672311902046204 1.263460152159626E-16 0.9416037201881408
vn -0.41541478037834168 0.9096312522888184 -0.00122841808479279
vn 0.50986313819885256 9.066447438018938E-17 0.86025553941726688
vn 0.56154811382293704 -0.03988412022590637 0.82648229598999024
vn 0.4672996401786804 1.0012055829743428E-16 0.884099006652832
vn -0.4672996401786804 -0.884099006652832 5.186971000419949E-15
vn -0.54290312528610232 2.1594972641350379E-16 0.8397953510284424
vn -0.57446604967117312 0.81852787733078 0.00094132788944989
vn 0.57490915060043336 7.521682350120239E-17 0.81821721792221072
vn 0.57490938901901248 1.8777326715735398E-07 0.81821709871292112
vn -0.57446628808975216 0.81852769851684576 0.00094132788944989
vn -0.65486079454422 -0.75574952363967888 7.156056210924286E-15
vn -0.58288884162902832 -0.81254231929779056 -0.00394926685839891
vn -0.65486001968383792 0.75574868917465216 -0.00149690068792551
vn 0.71912240982055664 3.5605350883912185E-17 0.694883406162262
vn 0.75059074163436896 -0.05832042172551155 0.6581886410713196
vn 0.6909411549568176 4.404480335854981E-17 0.72291100025177008
vn -0.6909411549568176 -0.72291100025177008 7.532938438607403E-15
vn -0.75838714838027952 2.0888106441509924E-16 0.65180438756942752
vn -0.71326088905334472 0.7008986473083496 7.438384150705406E-15
vn -0.75490927696228032 0.09256061911582946 -0.64926457405090336
vn -0.7975068092346192 0.60330992937088016 8.35907508305294E-15
vn -0.7975068092346192 -9.70817630790717E-18 -0.60330992937088016
vn -0.84125351905822752 -0.54064083099365232 9.09243112658803E-15
vn -0.78320211172103888 -0.62175321578979496 -0.00417785439640283
vn -0.84125262498855584 0.54064023494720456 -0.0014693111879751
vn 0.86835527420043952 -0.11121999472379684 0.48331075906753544
vn 0.86207300424575808 -1.5378172670616216E-17 0.50678408145904544
vn -0.86207300424575808 -0.50678408145904544 9.306422989283514E-15
vn -0.9056783318519592 3.545799362086954E-17 -0.42396551370620728
vn -0.87524926662445072 0.48367217183113096 9.215599034481225E-15
vn -0.8920180201530456 0.04298770055174827 -0.44995105266571048
vn -0.91185498237609856 1.8473132129082168E-16 0.41051244735717776
vn -0.93541222810745232 0.35355895757675172 9.887203835062634E-15
vn -0.93541222810745232 5.163000987099167E-17 -0.35355895757675172
vn -0.95949298143386848 -0.2817324697971344 1.0292192310001544E-14
vn -0.9208325147628784 -0.38993069529533384 -0.00464660441502928
vn -0.959492027759552 0.28173220157623292 -0.00141788285691291
vn -0.96586591005325312 -0.25904262065887452 4.148443366602805E-09
vn -0.94059991836547856 0.07813699543476105 -0.33040335774421692
vn -0.96586585044860832 -0.25904282927513124 1.035481769095679E-14
vn -0.94059985876083376 0.07813698798418045 -0.33040353655815124
vn -0.98864006996154784 9.432329275285844E-17 -0.15030239522457122
vn -0.9762079119682312 0.2168365567922592 1.0353933388559857E-14
vn -0.9811295866966248 0.02638756483793258 -0.19154219329357148
vn -0.9876594543457032 -0.04452867805957794 -0.15015330910682678
vn -0.99825757741928096 0.05729799345135689 -0.01409647613763809
vn -0.99075639247894288 -0.00066642992896959 0.13565154373645782
vn -0.9902477860450744 1.4606548485852455E-16 0.13931724429130554
vn -0.99075281620025632 -0.00277125881984829 0.13565105199813842
vn -0.9974520802497864 1.0945588046269134E-16 -0.07133984565734863
vn -1 1.2246468525851679E-16 1.0658141036401503E-14
vn -0.99740326404571536 -0.00067950773518532 -0.07201586663722992
vn -0.99735254049301152 0.00137273641303181 -0.0727054625749588
vn -0.99745225906372064 1.0945643632806297E-16 -0.07133687287569046
vn -0.99735271930694576 0.00137273641303181 -0.07270248979330063
# 157 vertex normals

g obj_62394848
s 1
f 1//1 2//1 3//1
f 4//2 1//2 3//2
f 5//3 4//3 3//3
f 6//4 5//4 3//4
f 2//5 6//5 3//5
f 7//6 8//6 5//6
f 6//7 7//7 5//7
f 9//8 4//8 5//8
f 8//8 9//8 5//8
f 2//9 1//9 10//9
f 11//10 12//10 10//10
f 12//11 13//11 10//11
f 13//12 2//12 10//12
f 14//13 11//13 10//13
f 1//13 14//13 10//13
f 2//14 7//14 6//14
f 13//14 7//14 2//14
f 13//15 15//15 7//15
f 15//16 16//16 7//16
f 16//17 8//17 7//17
f 12//18 17//18 13//18
f 17//15 15//15 13//15
f 18//19 19//19 15//19
f 19//20 16//20 15//20
f 17//21 20//21 15//21
f 20//21 18//21 15//21
f 12//22 21//22 17//22
f 21//23 22//23 17//23
f 22//21 20//21 17//21
f 23//24 1//24 4//24
f 24//8 23//8 4//8
f 9//8 24//8 4//8
f 23//24 25//24 1//24
f 25//13 14//13 1//13
f 19//25 26//25 8//25
f 16//26 19//26 8//26
f 26//8 9//8 8//8
f 21//27 12//27 11//27
f 14//13 21//13 11//13
f 27//28 22//28 21//28
f 14//13 28//13 21//13
f 28//29 27//29 21//29
f 18//30 29//30 19//30
f 29//31 26//31 19//31
f 30//32 22//32 27//32
f 28//33 30//33 27//33
f 31//34 32//34 18//34
f 32//35 29//35 18//35
f 20//21 31//21 18//21
f 30//36 33//36 22//36
f 33//21 20//21 22//21
f 24//37 25//37 23//37
f 24//37 34//37 25//37
f 35//13 14//13 25//13
f 34//13 35//13 25//13
f 32//38 36//38 26//38
f 29//39 32//39 26//39
f 36//8 9//8 26//8
f 37//13 38//13 28//13
f 14//13 37//13 28//13
f 39//40 30//40 28//40
f 38//41 39//41 28//41
f 39//42 33//42 30//42
f 31//43 36//43 32//43
f 40//44 33//44 39//44
f 38//45 40//45 39//45
f 41//46 42//46 31//46
f 42//47 36//47 31//47
f 20//21 41//21 31//21
f 40//48 43//48 33//48
f 43//21 20//21 33//21
f 44//8 9//8 36//8
f 42//49 44//49 36//49
f 9//50 34//50 24//50
f 9//50 45//50 34//50
f 45//13 35//13 34//13
f 37//13 46//13 38//13
f 47//51 40//51 38//51
f 46//52 47//52 38//52
f 47//53 43//53 40//53
f 48//54 43//54 47//54
f 46//55 48//55 47//55
f 49//56 50//56 41//56
f 50//57 51//57 41//57
f 51//58 42//58 41//58
f 20//21 49//21 41//21
f 48//59 52//59 43//59
f 52//21 20//21 43//21
f 51//60 44//60 42//60
f 50//61 44//61 51//61
f 53//8 9//8 44//8
f 50//62 53//62 44//62
f 54//63 45//63 9//63
f 55//8 56//8 9//8
f 53//8 57//8 9//8
f 57//8 58//8 9//8
f 58//8 59//8 9//8
f 59//8 55//8 9//8
f 56//8 60//8 9//8
f 60//8 61//8 9//8
f 61//8 54//8 9//8
f 54//63 62//63 45//63
f 62//13 35//13 45//13
f 37//13 63//13 46//13
f 64//64 48//64 46//64
f 63//65 64//65 46//65
f 64//66 52//66 48//66
f 49//67 65//67 50//67
f 65//68 53//68 50//68
f 66//69 52//69 64//69
f 63//70 66//70 64//70
f 67//71 68//71 49//71
f 68//72 69//72 49//72
f 69//73 65//73 49//73
f 20//21 67//21 49//21
f 66//74 70//74 52//74
f 70//21 20//21 52//21
f 69//75 53//75 65//75
f 69//76 57//76 53//76
f 71//77 62//77 54//77
f 61//8 71//8 54//8
f 71//77 72//77 62//77
f 72//13 35//13 62//13
f 37//13 73//13 63//13
f 74//78 66//78 63//78
f 73//79 74//79 63//79
f 74//80 70//80 66//80
f 68//81 57//81 69//81
f 75//82 76//82 67//82
f 76//83 68//83 67//83
f 20//21 75//21 67//21
f 70//21 77//21 20//21
f 78//21 79//21 20//21
f 79//21 80//21 20//21
f 80//21 75//21 20//21
f 81//21 82//21 20//21
f 82//21 83//21 20//21
f 83//21 78//21 20//21
f 77//21 84//21 20//21
f 84//21 85//21 20//21
f 85//21 81//21 20//21
f 76//84 57//84 68//84
f 77//85 70//85 74//85
f 86//86 77//86 74//86
f 73//87 86//87 74//87
f 76//88 58//88 57//88
f 75//89 87//89 76//89
f 87//90 58//90 76//90
f 37//13 88//13 73//13
f 89//91 86//91 73//91
f 88//92 89//92 73//92
f 89//93 77//93 86//93
f 90//94 72//94 71//94
f 61//8 90//8 71//8
f 90//94 91//94 72//94
f 91//13 35//13 72//13
f 75//95 92//95 87//95
f 92//96 58//96 87//96
f 92//97 59//97 58//97
f 75//98 93//98 92//98
f 93//99 59//99 92//99
f 84//100 77//100 89//100
f 94//101 84//101 89//101
f 88//102 94//102 89//102
f 80//103 93//103 75//103
f 37//13 95//13 88//13
f 95//104 96//104 88//104
f 96//105 97//105 88//105
f 97//106 94//106 88//106
f 97//107 84//107 94//107
f 98//108 91//108 90//108
f 99//8 98//8 90//8
f 100//8 99//8 90//8
f 61//8 100//8 90//8
f 98//108 101//108 91//108
f 101//13 102//13 91//13
f 102//13 103//13 91//13
f 103//13 104//13 91//13
f 104//13 35//13 91//13
f 80//109 105//109 93//109
f 105//110 59//110 93//110
f 105//111 55//111 59//111
f 80//112 55//112 105//112
f 85//113 84//113 97//113
f 96//114 85//114 97//114
f 79//115 55//115 80//115
f 37//116 106//116 95//116
f 106//117 107//117 95//117
f 107//118 96//118 95//118
f 107//119 85//119 96//119
f 99//120 101//120 98//120
f 99//120 102//120 101//120
f 79//121 108//121 55//121
f 108//122 56//122 55//122
f 79//123 109//123 108//123
f 109//124 56//124 108//124
f 81//125 85//125 107//125
f 106//126 81//126 107//126
f 78//127 109//127 79//127
f 14//128 110//128 37//128
f 110//129 106//129 37//129
f 110//130 81//130 106//130
f 109//131 60//131 56//131
f 78//132 111//132 109//132
f 111//133 60//133 109//133
f 100//134 102//134 99//134
f 100//134 103//134 102//134
f 78//135 112//135 111//135
f 112//136 60//136 111//136
f 82//137 81//137 110//137
f 14//138 82//138 110//138
f 83//139 112//139 78//139
f 113//140 82//140 14//140
f 35//141 113//141 14//141
f 114//142 82//142 113//142
f 35//143 114//143 113//143
f 112//144 61//144 60//144
f 83//145 115//145 112//145
f 115//146 61//146 112//146
f 104//147 114//147 35//147
f 116//148 117//148 100//148
f 61//149 116//149 100//149
f 117//150 103//150 100//150
f 117//151 104//151 103//151
f 118//152 116//152 115//152
f 114//152 118//152 115//152
f 83//153 114//153 115//153
f 116//154 61//154 115//154
f 83//153 82//153 114//153
f 104//155 118//155 114//155
f 118//156 117//156 116//156
f 104//157 117//157 118//157
#232 polygons

