# Aspose.3D Wavefront OBJ Exporter
# Copyright 2004-2023 Aspose Pty Ltd.
# File created: 07/03/2023 18:02:23


#
# object obj_3686969
#

v 0.13685335218906402 0.01661700569093227 0.01269999984651804
v 0.09524250775575638 -0.00383814191445708 0.05994400009512901
v 0.13774669170379638 -0.00555100198835134 0.01269999984651804
v 0.0933934599161148 -0.01906641200184822 0.05994400009512901
v 0.13507246971130372 -0.02757524140179157 0.01269999984651804
v 0.09525000303983688 -2.332952240939855E-17 0.01269999984651804
v 0.09341979771852494 -0.01858235336840152 0.01269999984651804
v 0.13241559267044068 0.03835464268922806 0.01269999984651804
v 0.094624824821949 0.01148953381925821 0.05994400009512901
v 0.09341979771852494 0.01858235336840152 0.01269999984651804
v 0.08912557363510132 -0.03380087018013 0.05994400009512901
v 0.1288999319076538 -0.04888529703021049 0.01269999984651804
v 0.08799952268600464 -0.03645059838891029 0.01269999984651804
v 0.12454832345247268 0.05909891426563263 0.01269999984651804
v 0.09155640751123428 0.02651963569223881 0.05994400009512901
v 0.08799952268600464 0.03645059838891029 0.01269999984651804
v 0.08254937827587128 -0.04765990749001503 0.05994400009512901
v 0.11938896030187606 -0.06892924755811691 0.01269999984651804
v 0.0791974812746048 -0.05291806533932686 0.01269999984651804
v 0.11345531791448594 0.07831255346536636 0.01269999984651804
v 0.086116723716259 0.04086289554834366 0.05994400009512901
v 0.07383520156145096 -0.060284573584795 0.05994400009512901
v 0.10678587853908538 -0.08718796819448471 0.01269999984651804
v 0.09942388534545898 0.09549794346094132 0.01269999984651804
v 0.07844666391611099 0.05414782464504242 0.05994400009512901
v 0.0791974812746048 0.05291806533932686 0.01269999984651804
v 0.06320872902870178 -0.07134789973497391 0.05994400009512901
v 0.091417096555233 -0.10318856686353684 0.01269999984651804
v 0.06735192239284515 -0.06735192239284515 0.01269999984651804
v 0.08281742781400681 0.11020997911691666 0.01269999984651804
v 0.06874488294124603 0.066030353307724 0.05994400009512901
v 0.06735192239284515 0.06735192239284515 0.01269999984651804
v 0.09341979771852494 -0.01858235336840152 1.534819632498241E-10
v 0.09525000303983688 -2.332952240939855E-17 1.534819632498241E-10
v 0.09341979771852494 0.01858235336840152 1.534819632498241E-10
v -0 -3.0814879110195774E-33 1.534819632498241E-10
v 0.08586864918470383 -0.00435476470738649 0.05994400009512901
v 0.08498752117156982 0.01301960926502943 0.05994400009512901
v 0.08062698692083359 0.0298609584569931 0.05994400009512901
v 0.08799952268600464 -0.03645059838891029 1.534819632498241E-10
v 0.08799952268600464 0.03645059838891029 1.534819632498241E-10
v 0.08323430269956589 -0.0215508546680212 0.05994400009512901
v 0.05094518139958382 -0.08056335896253586 0.05994400009512901
v 0.07368065416812897 -0.11651663482189178 0.01269999984651804
v 0.05291806533932686 -0.0791974812746048 0.01269999984651804
v 0.07719233632087708 -0.03786464780569076 0.05994400009512901
v 0.0791974812746048 -0.05291806533932686 1.534819632498241E-10
v 0.0791974812746048 0.05291806533932686 1.534819632498241E-10
v 0.0729655846953392 0.04547979682683945 0.05994400009512901
v 0.08323430269956589 -0.0215508546680212 0.00914399977773428
v 0.08586864918470383 -0.00435476470738649 0.00914399977773428
v 0.08498752117156982 0.01301960926502943 0.00914399977773428
v -0 -3.0814879110195774E-33 0.00914399977773428
v 0.08062698692083359 0.0298609584569931 0.00914399977773428
v 0.07719233632087708 -0.03786464780569076 0.00914399977773428
v 0.06406603753566742 0.1220676377415657 0.01269999984651804
v 0.05726264044642448 0.07620273530483246 0.05994400009512901
v 0.05291806533932686 0.0791974812746048 0.01269999984651804
v 0.0729655846953392 0.04547979682683945 0.00914399977773428
v 0.06735192239284515 -0.06735192239284515 1.534819632498241E-10
v 0.06735192239284515 0.06735192239284515 1.534819632498241E-10
v 0.06231695786118507 0.05923668667674065 0.05994400009512901
v 0.06799010932445526 -0.05262826010584831 0.00914399977773428
v 0.06799010932445526 -0.05262826010584831 0.05994400009512901
v 0.03736218437552452 -0.0876922681927681 0.05994400009512901
v 0.05403592810034752 -0.12682698667049408 0.01269999984651804
v 0.03645059838891029 -0.08799952268600464 0.01269999984651804
v 0.06231695786118507 0.05923668667674065 0.00914399977773428
v 0.0491170696914196 0.07056841999292374 0.05994400009512901
v 0.0560043528676033 -0.06523726135492325 0.00914399977773428
v 0.0560043528676033 -0.06523726135492325 0.05994400009512901
v 0.05291806533932686 -0.0791974812746048 1.534819632498241E-10
v 0.05291806533932686 0.0791974812746048 1.534819632498241E-10
v 0.04365537315607071 0.13076381385326386 0.01269999984651804
v 0.04429732635617256 0.08440150320529938 0.05994400009512901
v 0.03645059838891029 0.08799952268600464 0.01269999984651804
v 0.0491170696914196 0.07056841999292374 0.00914399977773428
v 0.03390632197260856 0.07901107519865036 0.05994400009512901
v 0.04172577708959579 -0.0751754492521286 0.00914399977773428
v 0.04172577708959579 -0.0751754492521286 0.05994400009512901
v 0.02281152456998825 -0.09254998713731766 0.05994400009512901
v 0.03299169987440109 -0.13385258615016938 0.01269999984651804
v 0.01858235336840152 -0.09341979771852494 0.01269999984651804
v 0.03645059838891029 -0.08799952268600464 1.534819632498241E-10
v 0.03645059838891029 0.08799952268600464 1.534819632498241E-10
v 0.03390632197260856 0.07901107519865036 0.00914399977773428
v 0.03018473275005817 0.09041431546211242 0.05994400009512901
v 0.02211405895650386 0.1360732614994049 0.01269999984651804
v 0.02573894150555134 -0.08203593641519547 0.00914399977773428
v 0.02573894150555134 -0.08203593641519547 0.05994400009512901
v 0.01858235336840152 -0.09341979771852494 1.534819632498241E-10
v 0.01858235336840152 0.09341979771852494 1.534819632498241E-10
v 0.01858235336840152 0.09341979771852494 0.01269999984651804
v 0.01730744540691375 0.08421900123357773 0.00914399977773428
v 0.01730744540691375 0.08421900123357773 0.05994400009512901
v 0.00767005793750286 -0.09501072019338608 0.05994400009512901
v 0.01109300088137388 -0.1374114602804184 0.01269999984651804
v 0.01529037300497293 0.0940854474902153 0.05994400009512901
v 0.00869835074990987 -0.0855378732085228 0.00914399977773428
v 0.00869835074990987 -0.0855378732085228 0.05994400009512901
v 8.441398003438349E-18 0.13785849511623382 0.01269999984651804
v -1.7497141393458606E-17 -0.09525000303983688 0.01269999984651804
v -1.7497141393458606E-17 -0.09525000303983688 1.534819632498241E-10
v 5.8323806023496374E-18 0.09525000303983688 1.534819632498241E-10
v 5.8323806023496374E-18 0.09525000303983688 0.01269999984651804
v 2.6323476166754632E-17 0.08597899973392487 0.00914399977773428
v 2.6323476166754632E-17 0.08597899973392487 0.05994400009512901
v 5.8366554717553115E-18 0.09531981498003006 0.05994400009512901
v -0.00767005793750286 -0.09501072019338608 0.05994400009512901
v -0.01109300088137388 -0.1374114602804184 0.01269999984651804
v -0.00869835074990987 -0.0855378732085228 0.00914399977773428
v -0.00869835074990987 -0.0855378732085228 0.05994400009512901
v -0.01730744540691375 0.08421900123357773 0.00914399977773428
v -0.01730744540691375 0.08421900123357773 0.05994400009512901
v -0.01858235336840152 -0.09341979771852494 1.534819632498241E-10
v -0.05291806533932686 0.0791974812746048 1.534819632498241E-10
v -0.03645059838891029 0.08799952268600464 1.534819632498241E-10
v -0.01858235336840152 0.09341979771852494 1.534819632498241E-10
v -0.08799952268600464 0.03645059838891029 1.534819632498241E-10
v -0.0791974812746048 0.05291806533932686 1.534819632498241E-10
v -0.06735192239284515 0.06735192239284515 1.534819632498241E-10
v -0.09341979771852494 -0.01858235336840152 1.534819632498241E-10
v -0.09525000303983688 1.1664760377518662E-17 1.534819632498241E-10
v -0.09341979771852494 0.01858235336840152 1.534819632498241E-10
v -0.06735192239284515 -0.06735192239284515 1.534819632498241E-10
v -0.0791974812746048 -0.05291806533932686 1.534819632498241E-10
v -0.08799952268600464 -0.03645059838891029 1.534819632498241E-10
v -0.03645059838891029 -0.08799952268600464 1.534819632498241E-10
v -0.05291806533932686 -0.0791974812746048 1.534819632498241E-10
v -0.04172577708959579 -0.0751754492521286 0.00914399977773428
v -0.02573894150555134 -0.08203593641519547 0.00914399977773428
v -0.07719233632087708 -0.03786464780569076 0.00914399977773428
v -0.06799010932445526 -0.05262826010584831 0.00914399977773428
v -0.0560043528676033 -0.06523726135492325 0.00914399977773428
v -0.08498752117156982 0.01301960926502943 0.00914399977773428
v -0.08586864918470383 -0.00435476470738649 0.00914399977773428
v -0.08323430269956589 -0.0215508546680212 0.00914399977773428
v -0.06231695786118507 0.05923668667674065 0.00914399977773428
v -0.0729655846953392 0.04547979682683945 0.00914399977773428
v -0.08062698692083359 0.0298609584569931 0.00914399977773428
v -0.03390632197260856 0.07901107519865036 0.00914399977773428
v -0.0491170696914196 0.07056841999292374 0.00914399977773428
v -0.01858235336840152 0.09341979771852494 0.01269999984651804
v -0.02211405895650386 0.1360732614994049 0.01269999984651804
v -0.01529037300497293 0.0940854474902153 0.05994400009512901
v -0.01858235336840152 -0.09341979771852494 0.01269999984651804
v -0.02281152456998825 -0.09254998713731766 0.05994400009512901
v -0.02573894150555134 -0.08203593641519547 0.05994400009512901
v -0.03299169987440109 -0.13385258615016938 0.01269999984651804
v -0.04365537315607071 0.13076381385326386 0.01269999984651804
v -0.03018473275005817 0.09041431546211242 0.05994400009512901
v -0.03390632197260856 0.07901107519865036 0.05994400009512901
v -0.03645059838891029 -0.08799952268600464 0.01269999984651804
v -0.03645059838891029 0.08799952268600464 0.01269999984651804
v -0.03736218437552452 -0.0876922681927681 0.05994400009512901
v -0.04172577708959579 -0.0751754492521286 0.05994400009512901
v -0.05094518139958382 -0.08056335896253586 0.05994400009512901
v -0.06406603753566742 0.1220676377415657 0.01269999984651804
v -0.04429732635617256 0.08440150320529938 0.05994400009512901
v -0.05403592810034752 -0.12682698667049408 0.01269999984651804
v -0.0491170696914196 0.07056841999292374 0.05994400009512901
v -0.05291806533932686 -0.0791974812746048 0.01269999984651804
v -0.05291806533932686 0.0791974812746048 0.01269999984651804
v -0.0560043528676033 -0.06523726135492325 0.05994400009512901
v -0.06320872902870178 -0.07134789973497391 0.05994400009512901
v -0.08281742781400681 0.11020997911691666 0.01269999984651804
v -0.05726264044642448 0.07620273530483246 0.05994400009512901
v -0.06231695786118507 0.05923668667674065 0.05994400009512901
v -0.07368065416812897 -0.11651663482189178 0.01269999984651804
v -0.06735192239284515 -0.06735192239284515 0.01269999984651804
v -0.06735192239284515 0.06735192239284515 0.01269999984651804
v -0.09942388534545898 0.09549794346094132 0.01269999984651804
v -0.06799010932445526 -0.05262826010584831 0.05994400009512901
v -0.07383520156145096 -0.060284573584795 0.05994400009512901
v -0.06874488294124603 0.066030353307724 0.05994400009512901
v -0.0729655846953392 0.04547979682683945 0.05994400009512901
v -0.091417096555233 -0.10318856686353684 0.01269999984651804
v -0.0791974812746048 -0.05291806533932686 0.01269999984651804
v -0.10678587853908538 -0.08718796819448471 0.01269999984651804
v -0.0791974812746048 0.05291806533932686 0.01269999984651804
v -0.11345531791448594 0.07831255346536636 0.01269999984651804
v -0.07719233632087708 -0.03786464780569076 0.05994400009512901
v -0.08254937827587128 -0.04765990749001503 0.05994400009512901
v -0.07844666391611099 0.05414782464504242 0.05994400009512901
v -0.08062698692083359 0.0298609584569931 0.05994400009512901
v -0.08323430269956589 -0.0215508546680212 0.05994400009512901
v -0.0933934599161148 -0.01906641200184822 0.05994400009512901
v -0.08912557363510132 -0.03380087018013 0.05994400009512901
v -0.12454832345247268 0.05909891426563263 0.01269999984651804
v -0.086116723716259 0.04086289554834366 0.05994400009512901
v -0.08799952268600464 -0.03645059838891029 0.01269999984651804
v -0.11938896030187606 -0.06892924755811691 0.01269999984651804
v -0.08799952268600464 0.03645059838891029 0.01269999984651804
v -0.09155640751123428 0.02651963569223881 0.05994400009512901
v -0.08498752117156982 0.01301960926502943 0.05994400009512901
v -0.08586864918470383 -0.00435476470738649 0.05994400009512901
v -0.09524250775575638 -0.00383814191445708 0.05994400009512901
v -0.094624824821949 0.01148953381925821 0.05994400009512901
v -0.13241559267044068 0.03835464268922806 0.01269999984651804
v -0.09341979771852494 -0.01858235336840152 0.01269999984651804
v -0.1288999319076538 -0.04888529703021049 0.01269999984651804
v -0.09341979771852494 0.01858235336840152 0.01269999984651804
v -0.13685335218906402 0.01661700569093227 0.01269999984651804
v -0.13507246971130372 -0.02757524140179157 0.01269999984651804
v -0.09525000303983688 1.1664760377518662E-17 0.01269999984651804
v -0.13774669170379638 -0.00555100198835134 0.01269999984651804
# 206 vertices

vn 0.74362087249755856 0.02996687404811382 0.66792964935302736
vn 0.73879820108413696 -0.08970639109611511 0.66792964935302736
vn 0.73879820108413696 -0.0897061750292778 0.66792970895767208
vn 0 0 -1
vn 0.7291842103004456 0.14886365830898284 0.66792964935302736
vn 0.74362087249755856 0.02996683493256569 0.66792964935302736
vn 0.71484100818634032 -0.20705614984035492 0.66792970895767208
vn 0.71484100818634032 -0.20705638825893404 0.66792964935302736
vn 0.69586181640625 0.26390573382377624 0.66792970895767208
vn 0.7291840314865112 0.14886398613452912 0.66792970895767208
vn 0.67236989736557008 -0.31904348731040956 0.66792964935302736
vn 0.67236989736557008 -0.31904342770576476 0.66792964935302736
vn 0.64451712369918824 0.37211233377456664 0.66792970895767208
vn 0.69586181640625 0.26390570402145384 0.66792970895767208
vn 0.61248469352722168 -0.42276760935783384 0.66792964935302736
vn 0.61248475313186648 -0.42276757955551144 0.66792964935302736
vn 0.576479971408844 0.47068119049072264 0.66792970895767208
vn 0.64451718330383304 0.37211227416992184 0.66792970895767208
vn 0.5367363691329956 -0.51554244756698608 0.66792964935302736
vn 0.53673648834228512 -0.51554232835769656 0.66792970895767208
vn 0.49351200461387632 0.55706000328063968 0.66792970895767208
vn 0.576479971408844 0.47068116068840024 0.66792970895767208
vn 0.99518471956253056 -0.09801731258630752 0
vn 0.99518471956253056 0.09801731258630752 0
vn 0 0 1
vn 0.9569402933120728 -0.29028478264808656 0
vn 0.9569402933120728 0.29028478264808656 0
vn 0.44708707928657528 -0.59496474266052248 0.66792970895767208
vn 0.44708696007728576 -0.594964861869812 0.66792964935302736
vn 0.8819213509559632 -0.47139659523963928 0
vn 0.8819213509559632 0.47139659523963928 0
vn -0.98846828937530512 0.15142790973186492 0
vn -0.99871653318405152 -0.05064914003014565 0
vn -0.96807700395584112 -0.25065290927886964 0
vn -0.93775212764739984 0.34730529785156248 0
vn 0.39776244759559632 0.62901109457015992 0.66792964935302736
vn 0.49351215362548832 0.55705988407135008 0.66792964935302736
vn -0.89780461788177488 -0.44039398431777952 0
vn 0.77301049232482912 -0.63439321517944336 0
vn 0.77301049232482912 0.63439321517944336 0
vn -0.8486443161964416 0.52896386384963992 0
vn 0.34585842490196228 -0.65897792577743528 0.66792964935302736
vn -0.79077571630477904 -0.6121060252189636 0
vn -0.72479259967803952 0.68896710872650144 0
vn 0.63439321517944336 -0.77301049232482912 0
vn 0.63439321517944336 0.77301049232482912 0
vn 0.2917112410068512 0.6846711039543152 0.66792964935302736
vn 0.39776250720024112 0.62901109457015992 0.66792964935302736
vn -0.65137249231338504 -0.7587580680847168 0
vn -0.57126843929290768 0.82076328992843632 0
vn 0.23567183315753936 -0.70592403411865232 0.66792964935302736
vn 0.23567214608192444 -0.705923855304718 0.66792976856231688
vn 0.47139659523963928 -0.8819213509559632 0
vn 0.47139659523963928 0.8819213509559632 0
vn -0.48530203104019168 -0.87434655427932736 0
vn 0.29171103239059448 0.68467116355896 0.66792970895767208
vn 0.17810425162315368 0.72259867191314704 0.66792970895767208
vn -0.39435565471649168 0.91895788908004768 0
vn 0.29028478264808656 -0.9569402933120728 0
vn 0.29028478264808656 0.9569402933120728 0
vn -0.2993628680706024 -0.95413935184478752 0
vn 0.11938222497701644 -0.73458677530288704 0.66792976856231688
vn 0.11938164383172988 -0.73458695411682128 0.66792964935302736
vn 0.17810466885566712 0.72259861230850224 0.66792958974838256
vn -0.20129887759685516 0.97952985763549808 0
vn 0.05988526344299316 0.74181115627288816 0.66792958974838256
vn 0.09801731258630752 -0.99518471956253056 0
vn 0.09801731258630752 0.99518471956253056 0
vn -0.10116851329803466 -0.9948692917823792 0
vn 0.05988523364067078 0.74181115627288816 0.66792958974838256
vn -4.5570604172852873E-17 -0.74422442913055424 0.66792958974838256
vn 6.123234262925839E-17 1 0
vn 0.10116851329803466 -0.9948692917823792 0
vn -0.09801731258630752 0.99518471956253056 0
vn -0.05988526344299316 0.74181115627288816 0.66792958974838256
vn -0.05988523364067078 0.74181115627288816 0.66792958974838256
vn -0.09801731258630752 -0.99518471956253056 0
vn -0.11938224732875824 -0.73458689451217648 0.66792958974838256
vn 0.20129887759685516 0.97952985763549808 0
vn -0.1193816214799881 -0.73458689451217648 0.66792976856231688
vn -0.17810463905334472 0.72259855270385744 0.66792970895767208
vn -0.17810426652431488 0.72259873151779168 0.66792964935302736
vn 0.2993628680706024 -0.95413935184478752 0
vn -0.29028478264808656 -0.9569402933120728 0
vn -0.29028478264808656 0.9569402933120728 0
vn -0.23567180335521696 -0.7059239745140076 0.66792976856231688
vn 0.39435565471649168 0.91895788908004768 0
vn -0.29171103239059448 0.68467122316360472 0.66792964935302736
vn -0.2917112410068512 0.6846710443496704 0.66792970895767208
vn -0.23567216098308564 -0.7059239149093628 0.66792970895767208
vn 0.48530203104019168 -0.87434655427932736 0
vn -0.47139659523963928 -0.8819213509559632 0
vn -0.47139659523963928 0.8819213509559632 0
vn -0.34585842490196228 -0.65897792577743528 0.66792964935302736
vn 0.57126843929290768 0.82076328992843632 0
vn -0.39776250720024112 0.62901109457015992 0.66792964935302736
vn -0.39776247739791872 0.62901115417480472 0.66792964935302736
vn 0.65137249231338504 -0.7587580680847168 0
vn -0.44708707928657528 -0.5949648022651672 0.66792964935302736
vn -0.63439321517944336 -0.77301049232482912 0
vn -0.63439321517944336 0.77301049232482912 0
vn 0.72479259967803952 0.68896710872650144 0
vn -0.49351212382316592 0.55705988407135008 0.66792970895767208
vn -0.49351203441619872 0.55706000328063968 0.66792964935302736
vn 0.79077571630477904 -0.6121060252189636 0
vn -0.44708696007728576 -0.594964861869812 0.66792970895767208
vn -0.5367363691329956 -0.51554244756698608 0.66792970895767208
vn -0.77301049232482912 -0.63439321517944336 0
vn -0.77301049232482912 0.63439321517944336 0
vn 0.8486443161964416 0.52896386384963992 0
vn -0.576479971408844 0.47068116068840024 0.66792970895767208
vn -0.576479971408844 0.47068119049072264 0.66792970895767208
vn 0.89780461788177488 -0.44039398431777952 0
vn -0.53673648834228512 -0.51554232835769656 0.66792964935302736
vn -0.61248469352722168 -0.42276760935783384 0.66792964935302736
vn 0.93775212764739984 0.34730529785156248 0
vn -0.64451718330383304 0.37211227416992184 0.66792970895767208
vn -0.64451712369918824 0.37211233377456664 0.66792970895767208
vn -0.8819213509559632 -0.47139659523963928 0
vn -0.8819213509559632 0.47139659523963928 0
vn 0.96807700395584112 -0.25065290927886964 0
vn -0.61248475313186648 -0.42276757955551144 0.66792964935302736
vn -0.67236983776092528 -0.31904348731040956 0.66792964935302736
vn 0.98846828937530512 0.15142790973186492 0
vn 0.99871653318405152 -0.05064914003014565 0
vn -0.69586181640625 0.26390570402145384 0.66792970895767208
vn -0.69586181640625 0.26390573382377624 0.66792970895767208
vn -0.9569402933120728 -0.29028478264808656 0
vn -0.9569402933120728 0.29028478264808656 0
vn -0.67236989736557008 -0.31904345750808716 0.66792964935302736
vn -0.71484106779098512 -0.20705616474151612 0.66792964935302736
vn -0.7291841506958008 0.1488640159368515 0.66792964935302736
vn -0.7291841506958008 0.14886364340782166 0.66792970895767208
vn -0.71484094858169552 -0.20705637335777284 0.66792970895767208
vn -0.73879814147949216 -0.08970639109611511 0.66792970895767208
vn -0.99518471956253056 -0.09801731258630752 0
vn -0.99518471956253056 0.09801731258630752 0
vn -0.74362087249755856 0.02996683306992054 0.66792964935302736
vn -0.74362087249755856 0.02996687404811382 0.66792964935302736
vn -0.73879820108413696 -0.0897061824798584 0.66792964935302736
# 140 vertex normals

g obj_3686969
s 1
f 1//1 2//1 3//1
f 2//2 4//2 3//2
f 4//3 5//3 3//3
f 6//4 1//4 3//4
f 7//4 6//4 3//4
f 5//4 7//4 3//4
f 8//5 9//5 1//5
f 9//6 2//6 1//6
f 10//4 8//4 1//4
f 6//4 10//4 1//4
f 4//7 11//7 5//7
f 11//8 12//8 5//8
f 13//4 7//4 5//4
f 12//4 13//4 5//4
f 14//9 15//9 8//9
f 15//10 9//10 8//10
f 10//4 16//4 8//4
f 16//4 14//4 8//4
f 11//11 17//11 12//11
f 17//12 18//12 12//12
f 19//4 13//4 12//4
f 18//4 19//4 12//4
f 20//13 21//13 14//13
f 21//14 15//14 14//14
f 16//4 20//4 14//4
f 17//15 22//15 18//15
f 22//16 23//16 18//16
f 23//4 19//4 18//4
f 24//17 25//17 20//17
f 25//18 21//18 20//18
f 26//4 24//4 20//4
f 16//4 26//4 20//4
f 22//19 27//19 23//19
f 27//20 28//20 23//20
f 29//4 19//4 23//4
f 28//4 29//4 23//4
f 30//21 31//21 24//21
f 31//22 25//22 24//22
f 32//4 30//4 24//4
f 26//4 32//4 24//4
f 7//23 33//23 34//23
f 6//23 7//23 34//23
f 35//24 6//24 34//24
f 36//4 35//4 34//4
f 33//4 36//4 34//4
f 35//24 10//24 6//24
f 37//25 4//25 2//25
f 38//25 37//25 2//25
f 9//25 38//25 2//25
f 39//25 38//25 9//25
f 15//25 39//25 9//25
f 13//26 40//26 33//26
f 7//26 13//26 33//26
f 40//4 36//4 33//4
f 41//27 10//27 35//27
f 36//4 41//4 35//4
f 41//27 16//27 10//27
f 42//25 11//25 4//25
f 37//25 42//25 4//25
f 21//25 39//25 15//25
f 27//28 43//28 28//28
f 43//29 44//29 28//29
f 45//4 29//4 28//4
f 44//4 45//4 28//4
f 42//25 46//25 11//25
f 46//25 17//25 11//25
f 19//30 47//30 40//30
f 13//30 19//30 40//30
f 47//4 36//4 40//4
f 48//31 16//31 41//31
f 36//4 48//4 41//4
f 48//31 26//31 16//31
f 49//25 39//25 21//25
f 25//25 49//25 21//25
f 50//32 42//32 51//32
f 42//32 37//32 51//32
f 37//33 52//33 51//33
f 53//25 50//25 51//25
f 52//25 53//25 51//25
f 38//33 52//33 37//33
f 38//34 54//34 52//34
f 54//25 53//25 52//25
f 39//34 54//34 38//34
f 55//35 46//35 50//35
f 46//35 42//35 50//35
f 53//25 55//25 50//25
f 56//36 57//36 30//36
f 57//37 31//37 30//37
f 58//4 56//4 30//4
f 32//4 58//4 30//4
f 46//25 22//25 17//25
f 39//38 59//38 54//38
f 59//25 53//25 54//25
f 49//38 59//38 39//38
f 29//39 60//39 47//39
f 19//39 29//39 47//39
f 60//4 36//4 47//4
f 61//40 26//40 48//40
f 36//4 61//4 48//4
f 61//40 32//40 26//40
f 62//25 49//25 25//25
f 31//25 62//25 25//25
f 63//41 64//41 55//41
f 64//41 46//41 55//41
f 53//25 63//25 55//25
f 64//25 22//25 46//25
f 64//25 27//25 22//25
f 43//42 65//42 44//42
f 65//42 66//42 44//42
f 67//4 45//4 44//4
f 66//4 67//4 44//4
f 49//43 68//43 59//43
f 68//25 53//25 59//25
f 62//43 68//43 49//43
f 69//25 62//25 31//25
f 57//25 69//25 31//25
f 70//44 71//44 63//44
f 71//44 64//44 63//44
f 53//25 70//25 63//25
f 71//25 27//25 64//25
f 45//45 72//45 60//45
f 29//45 45//45 60//45
f 72//4 36//4 60//4
f 73//46 32//46 61//46
f 36//4 73//4 61//4
f 73//46 58//46 32//46
f 74//47 75//47 56//47
f 75//48 57//48 56//48
f 58//4 76//4 56//4
f 76//4 74//4 56//4
f 71//25 43//25 27//25
f 62//49 77//49 68//49
f 77//25 53//25 68//25
f 69//49 77//49 62//49
f 78//25 69//25 57//25
f 75//25 78//25 57//25
f 79//50 80//50 70//50
f 80//50 71//50 70//50
f 53//25 79//25 70//25
f 80//25 43//25 71//25
f 65//51 81//51 66//51
f 81//52 82//52 66//52
f 83//4 67//4 66//4
f 82//4 83//4 66//4
f 67//53 84//53 72//53
f 45//53 67//53 72//53
f 84//4 36//4 72//4
f 85//54 58//54 73//54
f 36//4 85//4 73//4
f 85//54 76//54 58//54
f 80//25 65//25 43//25
f 69//55 86//55 77//55
f 86//25 53//25 77//25
f 78//55 86//55 69//55
f 74//56 87//56 75//56
f 87//25 78//25 75//25
f 88//57 87//57 74//57
f 76//4 88//4 74//4
f 89//58 90//58 79//58
f 90//58 80//58 79//58
f 53//25 89//25 79//25
f 90//25 65//25 80//25
f 90//25 81//25 65//25
f 83//59 91//59 84//59
f 67//59 83//59 84//59
f 91//4 36//4 84//4
f 92//60 76//60 85//60
f 36//4 92//4 85//4
f 93//4 88//4 76//4
f 92//60 93//60 76//60
f 78//61 94//61 86//61
f 94//25 53//25 86//25
f 87//25 95//25 78//25
f 95//61 94//61 78//61
f 81//62 96//62 82//62
f 96//63 97//63 82//63
f 97//4 83//4 82//4
f 88//64 98//64 87//64
f 98//25 95//25 87//25
f 99//65 100//65 89//65
f 100//65 90//65 89//65
f 53//25 99//25 89//25
f 100//25 96//25 90//25
f 96//25 81//25 90//25
f 101//66 98//66 88//66
f 93//4 101//4 88//4
f 102//67 103//67 91//67
f 83//67 102//67 91//67
f 103//4 36//4 91//4
f 104//68 93//68 92//68
f 36//4 104//4 92//4
f 97//4 102//4 83//4
f 105//4 101//4 93//4
f 104//68 105//68 93//68
f 95//69 106//69 94//69
f 106//25 53//25 94//25
f 98//25 107//25 95//25
f 107//69 106//69 95//69
f 101//70 108//70 98//70
f 108//25 107//25 98//25
f 96//71 109//71 97//71
f 109//71 110//71 97//71
f 110//4 102//4 97//4
f 111//72 112//72 99//72
f 112//72 100//72 99//72
f 53//25 111//25 99//25
f 112//25 109//25 100//25
f 109//25 96//25 100//25
f 107//73 113//73 106//73
f 113//25 53//25 106//25
f 114//73 113//73 107//73
f 103//4 115//4 36//4
f 116//4 117//4 36//4
f 117//4 118//4 36//4
f 118//4 104//4 36//4
f 119//4 120//4 36//4
f 120//4 121//4 36//4
f 121//4 116//4 36//4
f 122//4 123//4 36//4
f 123//4 124//4 36//4
f 124//4 119//4 36//4
f 125//4 126//4 36//4
f 126//4 127//4 36//4
f 127//4 122//4 36//4
f 115//4 128//4 36//4
f 128//4 129//4 36//4
f 129//4 125//4 36//4
f 118//74 105//74 104//74
f 130//25 131//25 53//25
f 131//25 111//25 53//25
f 132//25 133//25 53//25
f 133//25 134//25 53//25
f 134//25 130//25 53//25
f 135//25 136//25 53//25
f 136//25 137//25 53//25
f 137//25 132//25 53//25
f 138//25 139//25 53//25
f 139//25 140//25 53//25
f 140//25 135//25 53//25
f 113//25 141//25 53//25
f 141//25 142//25 53//25
f 142//25 138//25 53//25
f 143//4 144//4 105//4
f 144//4 101//4 105//4
f 118//74 143//74 105//74
f 144//75 108//75 101//75
f 108//25 114//25 107//25
f 144//76 145//76 108//76
f 145//25 114//25 108//25
f 146//77 115//77 103//77
f 102//77 146//77 103//77
f 110//4 146//4 102//4
f 147//78 110//78 109//78
f 112//25 147//25 109//25
f 131//79 148//79 111//79
f 148//79 112//79 111//79
f 148//25 147//25 112//25
f 147//80 149//80 110//80
f 149//4 146//4 110//4
f 150//81 151//81 145//81
f 144//82 150//82 145//82
f 152//25 114//25 145//25
f 151//25 152//25 145//25
f 114//83 141//83 113//83
f 152//83 141//83 114//83
f 153//84 128//84 115//84
f 146//84 153//84 115//84
f 117//85 143//85 118//85
f 149//4 153//4 146//4
f 154//4 150//4 143//4
f 150//4 144//4 143//4
f 117//85 154//85 143//85
f 155//86 149//86 147//86
f 148//25 155//25 147//25
f 130//87 156//87 131//87
f 156//87 148//87 131//87
f 156//25 157//25 148//25
f 157//25 155//25 148//25
f 158//88 159//88 151//88
f 150//89 158//89 151//89
f 159//25 152//25 151//25
f 155//90 160//90 149//90
f 160//4 153//4 149//4
f 152//91 142//91 141//91
f 159//25 161//25 152//25
f 161//91 142//91 152//91
f 162//92 129//92 128//92
f 153//92 162//92 128//92
f 116//93 154//93 117//93
f 160//4 162//4 153//4
f 163//4 158//4 154//4
f 158//4 150//4 154//4
f 116//93 163//93 154//93
f 157//94 160//94 155//94
f 134//95 164//95 130//95
f 164//95 156//95 130//95
f 164//25 165//25 156//25
f 165//25 157//25 156//25
f 166//96 167//96 159//96
f 158//97 166//97 159//97
f 167//25 161//25 159//25
f 161//98 138//98 142//98
f 167//25 168//25 161//25
f 168//98 138//98 161//98
f 169//94 160//94 157//94
f 165//99 169//99 157//99
f 170//100 125//100 129//100
f 162//100 170//100 129//100
f 121//101 163//101 116//101
f 160//4 169//4 162//4
f 169//4 170//4 162//4
f 171//4 172//4 163//4
f 172//4 166//4 163//4
f 166//4 158//4 163//4
f 121//101 171//101 163//101
f 133//102 173//102 134//102
f 173//102 164//102 134//102
f 173//25 174//25 164//25
f 174//25 165//25 164//25
f 172//103 175//103 167//103
f 166//104 172//104 167//104
f 175//25 168//25 167//25
f 168//105 139//105 138//105
f 175//25 176//25 168//25
f 176//105 139//105 168//105
f 177//106 169//106 165//106
f 174//107 177//107 165//107
f 178//108 126//108 125//108
f 170//108 178//108 125//108
f 120//109 171//109 121//109
f 179//4 178//4 170//4
f 169//4 177//4 170//4
f 177//4 179//4 170//4
f 180//4 181//4 171//4
f 181//4 172//4 171//4
f 120//109 180//109 171//109
f 132//110 182//110 133//110
f 182//110 173//110 133//110
f 182//25 183//25 173//25
f 183//25 174//25 173//25
f 181//111 184//111 175//111
f 172//112 181//112 175//112
f 184//25 176//25 175//25
f 176//113 140//113 139//113
f 184//25 185//25 176//25
f 185//113 140//113 176//113
f 179//114 177//114 174//114
f 183//115 179//115 174//115
f 137//116 186//116 132//116
f 186//116 182//116 132//116
f 186//25 187//25 182//25
f 187//25 188//25 182//25
f 188//25 183//25 182//25
f 189//117 190//117 184//117
f 181//118 189//118 184//118
f 190//25 185//25 184//25
f 191//119 127//119 126//119
f 178//119 191//119 126//119
f 119//120 180//120 120//120
f 179//4 192//4 178//4
f 192//4 191//4 178//4
f 193//4 189//4 180//4
f 189//4 181//4 180//4
f 119//120 193//120 180//120
f 185//121 135//121 140//121
f 194//25 195//25 185//25
f 190//25 194//25 185//25
f 195//121 135//121 185//121
f 192//122 179//122 183//122
f 188//123 192//123 183//123
f 136//124 196//124 137//124
f 196//124 186//124 137//124
f 196//25 197//25 186//25
f 197//25 187//25 186//25
f 195//125 136//125 135//125
f 194//25 198//25 195//25
f 198//25 196//25 195//25
f 196//125 136//125 195//125
f 198//25 197//25 196//25
f 199//126 194//126 190//126
f 189//127 199//127 190//127
f 200//128 122//128 127//128
f 191//128 200//128 127//128
f 124//129 193//129 119//129
f 192//4 201//4 191//4
f 201//4 200//4 191//4
f 202//4 199//4 193//4
f 199//4 189//4 193//4
f 124//129 202//129 193//129
f 201//130 192//130 188//130
f 187//131 201//131 188//131
f 203//132 198//132 194//132
f 199//133 203//133 194//133
f 204//134 201//134 187//134
f 197//135 204//135 187//135
f 205//136 123//136 122//136
f 200//136 205//136 122//136
f 123//137 202//137 124//137
f 201//4 204//4 200//4
f 204//4 205//4 200//4
f 205//4 206//4 202//4
f 206//4 203//4 202//4
f 203//4 199//4 202//4
f 123//137 205//137 202//137
f 206//138 197//138 198//138
f 203//139 206//139 198//139
f 206//140 204//140 197//140
f 204//4 206//4 205//4
#408 polygons

