# Aspose.3D Wavefront OBJ Exporter
# Copyright 2004-2023 Aspose Pty Ltd.
# File created: 07/03/2023 18:03:03


#
# object obj_15824292
#

v -0.00483937887474894 -0.0377914048731327 0.12700000405311584
v -0.00483937887474894 -0.0377914048731327 0.07620000094175339
v 0.00161700986791402 -0.03806567192077636 0.07620000094175339
v 0.00161700986791402 -0.03806567192077636 0.12700000405311584
v 0.00802688021212816 -0.03724485635757446 0.07620000094175339
v -1.6653345369377348E-15 -9.26342336171615E-16 0.07620000094175339
v 0.00802688021212816 -0.03724485635757446 0.12700000405311584
v -0.01115654781460762 -0.03642995283007622 0.12700000405311584
v -0.01115654781460762 -0.03642995283007622 0.07620000094175339
v 0.01420583203434944 -0.03535257279872894 0.07620000094175339
v 0.01420583203434944 -0.03535257279872894 0.12700000405311584
v -0.02265552431344986 -0.03063229098916054 0.12700000405311584
v -0.01715276204049587 -0.03402047604322433 0.12700000405311584
v -0.01715276204049587 -0.03402047604322433 0.07620000094175339
v 0.01997610740363597 -0.03244325891137123 0.07620000094175339
v 0.01997610740363597 -0.03244325891137123 0.12700000405311584
v -0.02265552431344986 -0.03063229098916054 0.07620000094175339
v 0.02517170645296573 -0.02860061451792717 0.07620000094175339
v 0.02517170645296573 -0.02860061451792717 0.12700000405311584
v 0.02539999969303608 -0.02539999969303608 0.12700000405311584
v -0.02750652655959129 -0.02636287175118923 0.12700000405311584
v -0.02750652655959129 -0.02636287175118923 0.07620000094175339
v 0.02964316308498382 -0.02393518202006817 0.07620000094175339
v 0.02964316308498382 -0.02393518202006817 0.12700000405311584
v -0.03156621754169464 -0.02133503928780555 0.12700000405311584
v -0.03156621754169464 -0.02133503928780555 0.07620000094175339
v -0.02539999969303608 -0.02539999969303608 0.12700000405311584
v -0.02539999969303608 0.02539999969303608 0.12382499873638154
v -0.02539999969303608 -0.02539999969303608 0.12382499873638154
v 0.02539999969303608 -0.02539999969303608 0.12382499873638154
v -0.02222499996423721 -0.02222499996423721 0.12382499873638154
v 0.02222499996423721 -0.02222499996423721 0.12382499873638154
v 0.02539999969303608 0.02539999969303608 0.12700000405311584
v 0.02539999969303608 0.02539999969303608 0.12382499873638154
v 0.02222499996423721 0.02222499996423721 0.12382499873638154
v -0.02539999969303608 0.02539999969303608 0.12700000405311584
v -0.02750652655959129 0.02636287175118923 0.12700000405311584
v -0.03156621754169464 0.02133503928780555 0.12700000405311584
v -0.03471780568361282 0.01569343730807304 0.12700000405311584
v -0.03687062487006187 0.0096003646031022 0.12700000405311584
v 0.03326183930039406 -0.01858117803931236 0.07620000094175339
v 0.03326183930039406 -0.01858117803931236 0.12700000405311584
v -0.02222499996423721 0.02222499996423721 0.12382499873638154
v -0.02222499996423721 0.02222499996423721 0.12700000405311584
v -0.02222499996423721 -0.02222499996423721 0.12700000405311584
v 0.02222499996423721 -0.02222499996423721 0.12700000405311584
v 0.02222499996423721 0.02222499996423721 0.12700000405311584
v -0.03471780568361282 -0.01569343730807304 0.12700000405311584
v -0.03471780568361282 -0.01569343730807304 0.07620000094175339
v -0.03796274587512016 0.00323110562749207 0.12700000405311584
v -0.03796274587512016 -0.00323110562749207 0.12700000405311584
v -0.03687062487006187 -0.0096003646031022 0.12700000405311584
v 0.03592362999916076 -0.01269262656569481 0.07620000094175339
v 0.03592362999916076 -0.01269262656569481 0.12700000405311584
v -0.03687062487006187 -0.0096003646031022 0.07620000094175339
v 0.03755196556448936 -0.00643893145024776 0.07620000094175339
v 0.03755196556448936 -0.00643893145024776 0.12700000405311584
v -0.03796274587512016 -0.00323110562749207 0.07620000094175339
v 0.03810000047087669 -9.35015953551499E-16 0.07620000094175339
v 0.03810000047087669 -9.35015953551499E-16 0.12700000405311584
v -0.03796274587512016 0.00323110562749207 0.07620000094175339
v 0.03755196556448936 0.00643893145024776 0.12700000405311584
v 0.03326183930039406 0.01858117803931236 0.07620000094175339
v 0.03592362999916076 0.01269262656569481 0.07620000094175339
v 0.03755196556448936 0.00643893145024776 0.07620000094175339
v 0.01997610740363597 0.03244325891137123 0.07620000094175339
v 0.02517170645296573 0.02860061451792717 0.07620000094175339
v 0.02964316308498382 0.02393518202006817 0.07620000094175339
v 0.00161700986791402 0.03806567192077636 0.07620000094175339
v 0.00802688021212816 0.03724485635757446 0.07620000094175339
v 0.01420583203434944 0.03535257279872894 0.07620000094175339
v -0.01715276204049587 0.03402047604322433 0.07620000094175339
v -0.01115654781460762 0.03642995283007622 0.07620000094175339
v -0.00483937887474894 0.0377914048731327 0.07620000094175339
v -0.03156621754169464 0.02133503928780555 0.07620000094175339
v -0.02750652655959129 0.02636287175118923 0.07620000094175339
v -0.02265552431344986 0.03063229098916054 0.07620000094175339
v -0.03687062487006187 0.0096003646031022 0.07620000094175339
v -0.03471780568361282 0.01569343730807304 0.07620000094175339
v 0.03592362999916076 0.01269262656569481 0.12700000405311584
v 0.03326183930039406 0.01858117803931236 0.12700000405311584
v 0.02964316308498382 0.02393518202006817 0.12700000405311584
v 0.02517170645296573 0.02860061451792717 0.12700000405311584
v 0.01420583203434944 0.03535257279872894 0.12700000405311584
v 0.00802688021212816 0.03724485635757446 0.12700000405311584
v 0.01997610740363597 0.03244325891137123 0.12700000405311584
v 0.00161700986791402 0.03806567192077636 0.12700000405311584
v -0.00483937887474894 0.0377914048731327 0.12700000405311584
v -0.01115654781460762 0.03642995283007622 0.12700000405311584
v -0.01715276204049587 0.03402047604322433 0.12700000405311584
v -0.02265552431344986 0.03063229098916054 0.12700000405311584
# 91 vertices

vn -0.04244166985154152 -0.9990989565849304 9.333038485021919E-17
vn 0.12701775133609772 -0.99190044403076176 1.114377721231439E-16
vn 0 0 -1
vn 0 0 1
vn -0.21067897975444792 -0.97755527496337888 7.253820091951887E-17
vn 0.2928228974342346 -0.95616668462753296 1.2633925218727437E-16
vn -0.37285643815994264 -0.92788904905319216 4.965909324290647E-17
vn 0.4502040147781372 -0.89292573928833008 1.3760618004918565E-16
vn -0.52430725097656248 -0.85152912139892576 2.5351416524274166E-17
vn 0.59463310241699216 -0.80399715900421136 1.4491440678787536E-16
vn -0.66067475080490112 -0.7506722807884216 3.1442396533574725E-19
vn 0.72195595502853392 -0.69193899631500248 1.480537226486366E-16
vn -0.77803575992584224 -0.62821996212005616 -2.4731606782565732E-17
vn 1 -1.8546430919266207E-16 1.1102230246251565E-16
vn 1.3429471797678477E-16 1 -9.813077864266042E-17
vn -1 1.8546430919266207E-16 -1.1102230246251565E-16
vn 0.82850956916809088 -0.55997490882873536 1.4693381274346842E-16
vn -1.3429471797678477E-16 -1 9.813077864266042E-17
vn -0.8730140924453736 -0.48769497871398928 -4.906615032749376E-17
vn 0.91122865676879888 -0.41190093755722048 1.4158686432436644E-16
vn -0.94287747144699104 -0.33313974738121032 -7.198916475102048E-17
vn 0.96773296594619744 -0.25197806954383852 1.3216674622015535E-16
vn -0.98561584949493408 -0.16900110244750976 -9.284113067895122E-17
vn 0.99639749526977536 -0.08480609208345413 1.1894442956461771E-16
vn 0.99639749526977536 0.08480609208345413 1.0230025200340541E-16
vn -0.98561584949493408 0.16900110244750976 -1.2600955784744543E-16
vn 0.96773296594619744 0.25197806954383852 8.271313787629685E-17
vn -0.94287747144699104 0.33313974738121032 -1.3737168427169422E-16
vn 0.91122865676879888 0.41190093755722048 6.074654276422845E-17
vn -0.8730140924453736 0.48769497871398928 -1.4478192554096887E-16
vn 0.82850956916809088 0.55997490882873536 3.703226721906821E-17
vn -0.77803575992584224 0.62821996212005616 -1.480270411107981E-16
vn 0.72195595502853392 0.69193899631500248 1.2252698850225428E-17
vn -0.66067475080490112 0.7506722807884216 -1.4701368530341654E-16
vn 0.59463310241699216 0.80399715900421136 -1.2879331177626199E-17
vn -0.52430725097656248 0.85152912139892576 -1.4177101458105545E-16
vn 0.4502040147781372 0.89292573928833008 -3.764080745211122E-17
vn -0.37285643815994264 0.92788904905319216 -1.324498537478853E-16
vn 0.2928228974342346 0.95616668462753296 -6.131951423093168E-17
vn -0.21067897975444792 0.97755527496337888 -1.1931832843638148E-16
vn 0.12701775133609772 0.99190044403076176 -8.323416240053175E-17
vn -0.04244166985154152 0.9990989565849304 -1.0275432783758272E-16
# 42 vertex normals

g obj_15824292
s 1
f 1//1 2//1 3//1
f 4//1 1//1 3//1
f 5//2 4//2 3//2
f 6//3 5//3 3//3
f 2//3 6//3 3//3
f 5//2 7//2 4//2
f 7//4 1//4 4//4
f 8//5 9//5 2//5
f 1//5 8//5 2//5
f 9//3 6//3 2//3
f 7//4 8//4 1//4
f 10//6 7//6 5//6
f 6//3 10//3 5//3
f 10//6 11//6 7//6
f 11//4 12//4 7//4
f 12//4 13//4 7//4
f 13//4 8//4 7//4
f 13//7 14//7 9//7
f 8//7 13//7 9//7
f 14//3 6//3 9//3
f 15//8 11//8 10//8
f 6//3 15//3 10//3
f 15//8 16//8 11//8
f 16//4 12//4 11//4
f 12//9 17//9 14//9
f 13//9 12//9 14//9
f 17//3 6//3 14//3
f 18//10 16//10 15//10
f 6//3 18//3 15//3
f 18//10 19//10 16//10
f 19//4 20//4 16//4
f 20//4 12//4 16//4
f 21//11 22//11 17//11
f 12//11 21//11 17//11
f 22//3 6//3 17//3
f 20//4 21//4 12//4
f 23//12 19//12 18//12
f 6//3 23//3 18//3
f 23//12 24//12 19//12
f 24//4 20//4 19//4
f 25//13 26//13 22//13
f 21//13 25//13 22//13
f 26//3 6//3 22//3
f 20//4 27//4 21//4
f 27//4 25//4 21//4
f 28//14 27//14 29//14
f 20//15 30//15 29//15
f 27//15 20//15 29//15
f 31//4 28//4 29//4
f 32//4 31//4 29//4
f 30//4 32//4 29//4
f 33//16 34//16 30//16
f 20//16 33//16 30//16
f 35//4 32//4 30//4
f 34//4 35//4 30//4
f 36//4 37//4 27//4
f 37//4 38//4 27//4
f 38//4 39//4 27//4
f 39//4 40//4 27//4
f 40//4 25//4 27//4
f 28//14 36//14 27//14
f 24//4 33//4 20//4
f 41//17 24//17 23//17
f 6//3 41//3 23//3
f 41//17 42//17 24//17
f 42//4 33//4 24//4
f 43//4 28//4 31//4
f 44//16 43//16 31//16
f 45//16 44//16 31//16
f 32//18 45//18 31//18
f 35//14 46//14 32//14
f 46//18 45//18 32//18
f 46//4 44//4 45//4
f 35//14 47//14 46//14
f 47//4 44//4 46//4
f 48//19 49//19 26//19
f 25//19 48//19 26//19
f 49//3 6//3 26//3
f 50//4 51//4 25//4
f 51//4 52//4 25//4
f 52//4 48//4 25//4
f 40//4 50//4 25//4
f 53//20 42//20 41//20
f 6//3 53//3 41//3
f 53//20 54//20 42//20
f 54//4 33//4 42//4
f 52//21 55//21 49//21
f 48//21 52//21 49//21
f 55//3 6//3 49//3
f 56//22 54//22 53//22
f 6//3 56//3 53//3
f 56//22 57//22 54//22
f 57//4 33//4 54//4
f 51//23 58//23 55//23
f 52//23 51//23 55//23
f 58//3 6//3 55//3
f 59//24 57//24 56//24
f 6//3 59//3 56//3
f 59//24 60//24 57//24
f 60//4 33//4 57//4
f 50//16 61//16 58//16
f 51//16 50//16 58//16
f 61//3 6//3 58//3
f 62//4 33//4 60//4
f 63//3 64//3 6//3
f 64//3 65//3 6//3
f 65//3 59//3 6//3
f 66//3 67//3 6//3
f 67//3 68//3 6//3
f 68//3 63//3 6//3
f 69//3 70//3 6//3
f 70//3 71//3 6//3
f 71//3 66//3 6//3
f 72//3 73//3 6//3
f 73//3 74//3 6//3
f 74//3 69//3 6//3
f 75//3 76//3 6//3
f 76//3 77//3 6//3
f 77//3 72//3 6//3
f 61//3 78//3 6//3
f 78//3 79//3 6//3
f 79//3 75//3 6//3
f 65//25 60//25 59//25
f 65//25 62//25 60//25
f 40//26 78//26 61//26
f 50//26 40//26 61//26
f 64//27 62//27 65//27
f 64//27 80//27 62//27
f 80//4 33//4 62//4
f 39//28 79//28 78//28
f 40//28 39//28 78//28
f 63//29 80//29 64//29
f 63//29 81//29 80//29
f 81//4 33//4 80//4
f 38//30 75//30 79//30
f 39//30 38//30 79//30
f 68//31 81//31 63//31
f 68//31 82//31 81//31
f 82//4 33//4 81//4
f 37//32 76//32 75//32
f 38//32 37//32 75//32
f 35//4 34//4 43//4
f 34//4 28//4 43//4
f 47//15 35//15 43//15
f 44//15 47//15 43//15
f 67//33 82//33 68//33
f 67//33 83//33 82//33
f 83//4 33//4 82//4
f 34//18 36//18 28//18
f 33//18 36//18 34//18
f 84//4 85//4 36//4
f 33//4 83//4 36//4
f 83//4 86//4 36//4
f 86//4 84//4 36//4
f 85//4 87//4 36//4
f 87//4 88//4 36//4
f 88//4 89//4 36//4
f 89//4 90//4 36//4
f 90//4 91//4 36//4
f 91//4 37//4 36//4
f 91//34 77//34 76//34
f 37//34 91//34 76//34
f 66//35 83//35 67//35
f 66//35 86//35 83//35
f 90//36 72//36 77//36
f 91//36 90//36 77//36
f 71//37 86//37 66//37
f 71//37 84//37 86//37
f 89//38 73//38 72//38
f 90//38 89//38 72//38
f 70//39 84//39 71//39
f 70//39 85//39 84//39
f 88//40 74//40 73//40
f 89//40 88//40 73//40
f 69//41 85//41 70//41
f 69//41 87//41 85//41
f 87//42 69//42 74//42
f 88//42 87//42 74//42
#178 polygons

