# Aspose.3D Wavefront OBJ Exporter
# Copyright 2004-2023 Aspose Pty Ltd.
# File created: 06/29/2023 05:38:16


#
# object obj_38211467
#

v 30.16284942626953124 52.24358749389648436 -117.75070190429687504
v 45.66284942626953128 79.0903778076171875 -117.75070190429687504
v 42.27594375610351564 81.045806884765625 -118.05849456787109375
v 26.77594375610351568 54.19902038574218752 -118.05849456787109375
v 38.97243499755859376 82.95308685302734368 -118.97428894042968752
v 23.47243499755859376 56.10630035400390624 -118.97428894042968752
v 35.83366775512695312 84.7652587890625 -120.47554016113281248
v 20.33366775512695312 57.9184684753417968 -120.47554016113281248
v 32.93692779541015632 86.43769073486328128 -122.52527618408203128
v 17.43692588806152344 59.59090423583984376 -122.52527618408203128
v 30.35353851318359376 87.92921447753906256 -125.073028564453125
v 14.85353946685791008 61.08242416381835938 -125.073028564453125
v 28.14711761474609376 89.20308685302734376 -128.0560760498046875
v 12.64711856842041016 62.35630035400390624 -128.0560760498046875
v 26.37199211120605472 90.22795867919921876 -131.40093994140625
v 10.87199306488037104 63.3811683654785156 -131.40093994140625
v 25.07187271118164062 90.97858428955078128 -135.0252685546875
v 9.57187271118164064 64.13179779052734376 -135.0252685546875
v 24.27877044677734376 91.43647766113281248 -138.83984375
v 8.77877044677734368 64.58969116210937504 -138.83984375
v 24.01221466064453125 91.59037780761718752 -142.75070190429687504
v 8.51221466064453128 64.74359130859375008 -142.75070190429687504
v 24.27877044677734376 91.43647766113281248 -146.66156005859375
v 8.77877044677734368 64.58969116210937504 -146.66156005859375
v 25.07187271118164062 90.97858428955078128 -150.47611999511718752
v 9.57187271118164064 64.13179779052734376 -150.47611999511718752
v 26.37199211120605472 90.22795867919921876 -154.1004638671875
v 10.87199306488037104 63.3811683654785156 -154.1004638671875
v 28.14711761474609376 89.20308685302734376 -157.44532775878906248
v 12.64711856842041016 62.35630035400390624 -157.44532775878906248
v 30.35353851318359376 87.92921447753906256 -160.42837524414062496
v 14.85353946685791008 61.08242416381835938 -160.42837524414062496
v 32.93692779541015632 86.43769073486328128 -162.97611999511718752
v 17.43692588806152344 59.59090423583984376 -162.97611999511718752
v 35.83366775512695312 84.7652587890625 -165.0258636474609375
v 20.33366775512695312 57.9184684753417968 -165.0258636474609375
v 38.97243499755859376 82.95308685302734368 -166.52711486816406248
v 23.47243499755859376 56.10630035400390624 -166.52711486816406248
v 42.27594375610351564 81.045806884765625 -167.44290161132812496
v 26.77594375610351568 54.19902038574218752 -167.44290161132812496
v 45.66284942626953128 79.0903778076171875 -167.75070190429687504
v 30.16284942626953124 52.24358749389648436 -167.75070190429687504
v 49.04975509643554688 77.13494873046875 -167.44290161132812496
v 33.54975509643554688 50.28815841674804688 -167.44290161132812496
v 52.35326385498046876 75.2276611328125 -166.52711486816406248
v 36.8532638549804688 48.38087463378906248 -166.52711486816406248
v 55.49203109741210936 73.41549682617187504 -165.0258636474609375
v 39.99203109741210944 46.56870651245117184 -165.0258636474609375
v 58.38877487182617184 71.74305725097656256 -162.97611999511718752
v 42.88877487182617184 44.89627456665039056 -162.97611999511718752
v 60.9721603393554688 70.25154113769531248 -160.42837524414062496
v 45.47216033935546872 43.40475463867187504 -160.42837524414062496
v 63.17858123779296876 68.9776611328125 -157.44532775878906248
v 47.67858123779296872 42.1308746337890625 -157.44532775878906248
v 64.95370483398437504 67.95279693603515632 -154.1004638671875
v 49.45370864868164064 41.10600662231445312 -154.1004638671875
v 66.25382995605468752 67.20217132568359376 -150.47611999511718752
v 50.75382614135742192 40.35538101196289064 -150.47611999511718752
v 67.04692840576171875 66.7442703247070312 -146.66156005859375
v 51.54692840576171872 39.89748382568359376 -146.66156005859375
v 67.31348419189453124 66.59037780761718752 -142.75070190429687504
v 51.8134841918945312 39.74358749389648432 -142.75070190429687504
v 67.04692840576171875 66.7442703247070312 -138.83984375
v 51.54692840576171872 39.89748382568359376 -138.83984375
v 66.25382995605468752 67.20217132568359376 -135.0252685546875
v 50.75382614135742192 40.35538101196289064 -135.0252685546875
v 64.95370483398437504 67.95279693603515632 -131.40093994140625
v 49.45370864868164064 41.10600662231445312 -131.40093994140625
v 63.17858123779296876 68.9776611328125 -128.0560760498046875
v 47.67858123779296872 42.1308746337890625 -128.0560760498046875
v 60.9721603393554688 70.25154113769531248 -125.073028564453125
v 45.47216033935546872 43.40475463867187504 -125.073028564453125
v 58.38877487182617184 71.74305725097656256 -122.52527618408203128
v 42.88877487182617184 44.89627456665039056 -122.52527618408203128
v 55.49203109741210936 73.41549682617187504 -120.47554016113281248
v 39.99203109741210944 46.56870651245117184 -120.47554016113281248
v 52.35326385498046876 75.2276611328125 -118.97428894042968752
v 36.8532638549804688 48.38087463378906248 -118.97428894042968752
v 49.04975509643554688 77.13494873046875 -118.05849456787109375
v 33.54975509643554688 50.28815841674804688 -118.05849456787109375
v 46.59381103515625 78.55288696289062496 -129.90461730957031248
v 46.45477294921875 78.63316345214843752 -129.58952331542968752
v 57.060760498046875 72.50978851318359376 -141.83627319335937504
v 46.45477294921875 78.63316345214843752 -130.91827392578124992
v 46.59381103515625 78.55288696289062496 -130.60317993164062496
v 34.53781509399414064 85.51342010498046872 -141.67572021484375
v 34.26493835449218752 85.67095947265625 -141.83627319335937504
v 34.84030532836914064 85.338775634765625 -141.62040710449218752
v 46.23821258544921876 78.7581863403320312 -129.33946228027343752
v 46.6417198181152344 78.52522277832031248 -130.25390625
v 57.27731704711914064 72.38475799560546872 -142.0863189697265625
v 34.04838180541992188 85.79598999023437504 -142.0863189697265625
v 33.90934371948242192 85.87626647949218752 -142.40141296386718752
v 44.87092971801757808 79.54759216308593752 -129.58952331542968752
v 35.41566848754882816 85.006591796875 -141.83627319335937504
v 35.142791748046875 85.1641387939453125 -141.67572021484375
v 46.23821258544921876 78.7581863403320312 -131.1683349609375
v 45.08748626708984375 79.42256164550781248 -131.1683349609375
v 35.81917190551757808 84.77362823486328128 -142.75070190429687504
v 35.77126312255859376 84.80128479003906256 -142.40141296386718752
v 33.90934371948242192 85.87626647949218752 -143.0999755859375
v 33.86143493652343744 85.9039230346679688 -142.75070190429687504
v 45.08748626708984375 79.42256164550781248 -129.33946228027343752
v 45.9653358459472656 78.91573333740234368 -129.178924560546875
v 57.41635513305664064 72.30448913574218752 -142.40141296386718752
v 35.77126312255859376 84.80128479003906256 -143.0999755859375
v 45.36036300659179688 79.2650146484375 -129.178924560546875
v 45.66284942626953128 79.0903778076171875 -129.12359619140625
v 35.63222503662109376 84.88156127929687504 -143.41506958007812496
v 45.36036300659179688 79.2650146484375 -131.32887268066406248
v 34.53781509399414064 85.51342010498046872 -143.82568359375
v 44.87092971801757808 79.54759216308593752 -130.91827392578124992
v 35.41566848754882816 85.006591796875 -143.66513061523437504
v 45.08748626708984375 79.42256164550781248 -154.33306884765625
v 34.84030532836914064 85.338775634765625 -143.88099670410156256
v 34.26493835449218752 85.67095947265625 -143.66513061523437504
v 35.63222503662109376 84.88156127929687504 -142.0863189697265625
v 45.9653358459472656 78.91573333740234368 -131.32887268066406248
v 44.73189163208007808 79.62786865234375 -130.60317993164062496
v 45.08748626708984375 79.42256164550781248 -156.16192626953125
v 45.36036300659179688 79.2650146484375 -156.322479248046875
v 44.87092971801757808 79.54759216308593752 -155.91188049316406256
v 44.87092971801757808 79.54759216308593752 -154.5831298828125
v 34.04838180541992188 85.79598999023437504 -143.41506958007812496
v 46.59381103515625 78.55288696289062496 -154.89822387695312496
v 46.45477294921875 78.63316345214843752 -154.5831298828125
v 45.66284942626953128 79.0903778076171875 -131.38420104980468752
v 46.6417198181152344 78.52522277832031248 -155.24749755859375
v 44.68398284912109376 79.65552520751953128 -130.25390625
v 44.73189163208007808 79.62786865234375 -129.90461730957031248
v 44.73189163208007808 79.62786865234375 -154.89822387695312496
v 35.142791748046875 85.1641387939453125 -143.82568359375
v 46.23821258544921876 78.7581863403320312 -154.33306884765625
v 57.46426391601562496 72.276824951171875 -142.75070190429687504
v 57.41635513305664064 72.30448913574218752 -143.0999755859375
v 56.78788375854492192 72.66733551025390624 -143.82568359375
v 57.060760498046875 72.50978851318359376 -143.66513061523437504
v 44.73189163208007808 79.62786865234375 -155.59678649902343752
v 44.68398284912109376 79.65552520751953128 -155.24749755859375
v 56.18291091918945312 73.0166168212890625 -143.82568359375
v 46.59381103515625 78.55288696289062496 -155.59678649902343752
v 55.9100303649902344 73.174163818359375 -143.66513061523437504
v 55.69347381591796872 73.2991943359375 -142.0863189697265625
v 57.27731704711914064 72.38475799560546872 -143.41506958007812496
v 56.48539733886718752 72.84197998046875008 -143.88099670410156256
v 45.66284942626953128 79.0903778076171875 -154.1172027587890625
v 45.36036300659179688 79.2650146484375 -154.172515869140625
v 55.69347381591796872 73.2991943359375 -143.41506958007812496
v 46.23821258544921876 78.7581863403320312 -156.16192626953125
v 46.45477294921875 78.63316345214843752 -155.91188049316406256
v 55.5065269470214844 73.40712738037109376 -142.75070190429687504
v 55.9100303649902344 73.174163818359375 -141.83627319335937504
v 56.48539733886718752 72.84197998046875008 -141.62040710449218752
v 56.18291091918945312 73.0166168212890625 -141.67572021484375
v 45.66284942626953128 79.0903778076171875 -156.37779235839843752
v 45.9653358459472656 78.91573333740234368 -154.172515869140625
v 55.55443572998046872 73.37946319580078128 -143.0999755859375
v 56.78788375854492192 72.66733551025390624 -141.67572021484375
v 45.9653358459472656 78.91573333740234368 -156.322479248046875
v 55.55443572998046872 73.37946319580078128 -142.40141296386718752
v 40.4100303649902344 46.32737731933593752 -141.83627319335937504
v 30.95477104187011712 51.7863731384277344 -130.91827392578124992
v 30.73821449279785152 51.91140365600585936 -131.1683349609375
v 19.91566848754882816 58.15980148315429688 -143.66513061523437504
v 29.37092781066894528 52.7008056640625 -154.5831298828125
v 29.58748626708984376 52.57577514648437504 -154.33306884765625
v 30.95477104187011712 51.7863731384277344 -129.58952331542968752
v 40.68291091918945312 46.169830322265625 -141.67572021484375
v 31.09380912780761718 51.70610046386718752 -130.60317993164062496
v 29.23189163208007812 52.78107833862304688 -154.89822387695312496
v 20.13222503662109376 58.03477096557617187 -142.0863189697265625
v 29.58748626708984376 52.57577514648437504 -131.1683349609375
v 29.37092781066894528 52.7008056640625 -130.91827392578124992
v 40.98539733886718752 45.99518966674804688 -141.62040710449218752
v 30.73821449279785152 51.91140365600585936 -129.33946228027343752
v 40.05443572998046875 46.53267669677734376 -142.40141296386718752
v 40.19347381591796876 46.45240402221679688 -142.0863189697265625
v 19.03781700134277344 58.6666297912597656 -143.82568359375
v 18.76493835449218752 58.82417678833007808 -143.66513061523437504
v 19.3403034210205078 58.49198913574218752 -143.88099670410156256
v 20.13222503662109376 58.03477096557617187 -143.41506958007812496
v 29.23189163208007812 52.78107833862304688 -155.59678649902343752
v 29.37092781066894528 52.7008056640625 -155.91188049316406256
v 29.8603630065917968 52.41822814941406248 -156.322479248046875
v 29.8603630065917968 52.41822814941406248 -131.32887268066406248
v 30.4653377532958984 52.06894683837890625 -129.178924560546875
v 31.14171791076660156 51.67844009399414064 -130.25390625
v 31.09380912780761718 51.70610046386718752 -129.90461730957031248
v 19.64278984069824216 58.31734848022460936 -143.82568359375
v 29.18398094177246092 52.80873870849609376 -155.24749755859375
v 29.58748626708984376 52.57577514648437504 -156.16192626953125
v 19.91566848754882816 58.15980148315429688 -141.83627319335937504
v 30.4653377532958984 52.06894683837890625 -131.32887268066406248
v 30.95477104187011712 51.7863731384277344 -154.5831298828125
v 31.09380912780761718 51.70610046386718752 -154.89822387695312496
v 40.19347381591796876 46.45240402221679688 -143.41506958007812496
v 40.05443572998046875 46.53267669677734376 -143.0999755859375
v 41.28788375854492188 45.8205490112304688 -143.82568359375
v 19.3403034210205078 58.49198913574218752 -141.62040710449218752
v 19.03781700134277344 58.6666297912597656 -141.67572021484375
v 29.23189163208007812 52.78107833862304688 -130.60317993164062496
v 29.37092781066894528 52.7008056640625 -129.58952331542968752
v 19.64278984069824216 58.31734848022460936 -141.67572021484375
v 30.95477104187011712 51.7863731384277344 -155.91188049316406256
v 30.73821449279785152 51.91140365600585936 -156.16192626953125
v 40.98539733886718752 45.99518966674804688 -143.88099670410156256
v 41.56076049804687504 45.66300201416015624 -143.66513061523437504
v 41.28788375854492188 45.8205490112304688 -141.67572021484375
v 41.56076049804687504 45.66300201416015624 -141.83627319335937504
v 18.76493835449218752 58.82417678833007808 -141.83627319335937504
v 18.40934371948242184 59.02947998046875 -142.40141296386718752
v 18.40934371948242184 59.02947998046875 -143.0999755859375
v 18.36143493652343752 59.05714035034179688 -142.75070190429687504
v 18.54838180541992184 58.94920349121093744 -143.41506958007812496
v 30.16284942626953124 52.24358749389648436 -156.37779235839843752
v 30.4653377532958984 52.06894683837890625 -156.322479248046875
v 29.18398094177246092 52.80873870849609376 -130.25390625
v 29.23189163208007812 52.78107833862304688 -129.90461730957031248
v 20.27126312255859376 57.95449829101562496 -142.40141296386718752
v 31.09380912780761718 51.70610046386718752 -155.59678649902343752
v 30.73821449279785152 51.91140365600585936 -154.33306884765625
v 40.00652694702148437 46.56033706665039064 -142.75070190429687504
v 40.68291091918945312 46.169830322265625 -143.82568359375
v 40.4100303649902344 46.32737731933593752 -143.66513061523437504
v 41.77731704711914064 45.53797149658203128 -143.41506958007812496
v 41.96426391601562496 45.43003845214843752 -142.75070190429687504
v 41.91635513305664064 45.4576988220214844 -142.40141296386718752
v 41.77731704711914064 45.53797149658203128 -142.0863189697265625
v 18.54838180541992184 58.94920349121093744 -142.0863189697265625
v 20.31917190551757812 57.92683792114257808 -142.75070190429687504
v 29.8603630065917968 52.41822814941406248 -129.178924560546875
v 30.16284942626953124 52.24358749389648436 -129.12359619140625
v 29.58748626708984376 52.57577514648437504 -129.33946228027343752
v 31.14171791076660156 51.67844009399414064 -155.24749755859375
v 30.4653377532958984 52.06894683837890625 -154.172515869140625
v 41.91635513305664064 45.4576988220214844 -143.0999755859375
v 29.8603630065917968 52.41822814941406248 -154.172515869140625
v 30.16284942626953124 52.24358749389648436 -154.1172027587890625
v 30.16284942626953124 52.24358749389648436 -131.38420104980468752
v 20.27126312255859376 57.95449829101562496 -143.0999755859375
# 240 vertices

vn -0.06794756650924683 0.03922954946756363 0.9969173073768616
vn -0.20216961205005644 0.11672268062829972 0.97236990928649904
vn -0.33141356706619264 0.19134171307086944 0.92387950420379632
vn -0.45249703526496888 0.26124927401542664 0.85264015197753904
vn -0.56243848800659176 0.324724018573761 0.76040595769882208
vn -0.65853089094161984 0.38020297884941104 0.649448037147522
vn -0.73840802907943728 0.42632007598876952 0.52249854803085328
vn -0.8001031279563904 0.46193975210189816 0.38268342614173888
vn -0.8420970439910888 0.48618495464324952 0.23344536125659944
vn -0.86335575580596928 0.4984586536884308 0.07845909893512726
vn -0.86335575580596928 0.4984586536884308 -0.07845909893512726
vn -0.8420970439910888 0.48618495464324952 -0.23344536125659944
vn -0.8001031279563904 0.46193975210189816 -0.38268342614173888
vn -0.73840802907943728 0.42632007598876952 -0.52249854803085328
vn -0.65853089094161984 0.38020297884941104 -0.649448037147522
vn -0.56243848800659176 0.324724018573761 -0.76040595769882208
vn -0.45249703526496888 0.26124927401542664 -0.85264015197753904
vn -0.33141356706619264 0.19134171307086944 -0.92387950420379632
vn -0.20216961205005644 0.11672268062829972 -0.97236990928649904
vn -0.06794756650924683 0.03922954946756363 -0.9969173073768616
vn 0.06794756650924683 -0.03922954946756363 -0.9969173073768616
vn 0.20216961205005644 -0.11672268062829972 -0.97236990928649904
vn 0.33141356706619264 -0.19134171307086944 -0.92387950420379632
vn 0.45249703526496888 -0.26124927401542664 -0.85264015197753904
vn 0.56243848800659176 -0.324724018573761 -0.76040595769882208
vn 0.65853089094161984 -0.38020297884941104 -0.649448037147522
vn 0.73840802907943728 -0.42632007598876952 -0.52249854803085328
vn 0.8001031279563904 -0.46193975210189816 -0.38268342614173888
vn 0.8420970439910888 -0.48618495464324952 -0.23344536125659944
vn 0.86335575580596928 -0.4984586536884308 -0.07845909893512726
vn 0.86335575580596928 -0.4984586536884308 0.07845909893512726
vn 0.8420970439910888 -0.48618495464324952 0.23344536125659944
vn 0.8001031279563904 -0.46193975210189816 0.38268342614173888
vn 0.73840802907943728 -0.42632007598876952 0.52249854803085328
vn 0.65853089094161984 -0.38020297884941104 0.649448037147522
vn 0.56243848800659176 -0.324724018573761 0.76040595769882208
vn 0.45249703526496888 -0.26124927401542664 0.85264015197753904
vn 0.33141356706619264 -0.19134171307086944 0.92387950420379632
vn 0.20216961205005644 -0.11672268062829972 0.97236990928649904
vn 0.06794756650924683 -0.03922954946756363 0.9969173073768616
vn 0.5 0.86602538824081424 0
vn -0.5 -0.86602538824081424 0
vn -0.13547621667385102 0.07821723073720932 -0.9876883625984192
vn -0.39316731691360472 0.22699524462223052 -0.8910065293312072
vn -0.6123724579811096 0.3535533845424652 -0.7071067690849304
vn -0.77163428068161008 0.4455032646656036 -0.45399048924446104
vn -0.85536319017410272 0.4938441812992096 -0.15643446147441864
vn -0.85536319017410272 0.4938441812992096 0.15643446147441864
vn -0.77163428068161008 0.4455032646656036 0.45399048924446104
vn -0.6123724579811096 0.3535533845424652 0.7071067690849304
vn -0.39316731691360472 0.22699524462223052 0.8910065293312072
vn -0.13547621667385102 0.07821723073720932 0.9876883625984192
vn 0.13547621667385102 -0.07821723073720932 0.9876883625984192
vn 0.39316731691360472 -0.22699524462223052 0.8910065293312072
vn 0.6123724579811096 -0.3535533845424652 0.7071067690849304
vn 0.77163428068161008 -0.4455032646656036 0.45399048924446104
vn 0.85536319017410272 -0.4938441812992096 0.15643446147441864
vn 0.85536319017410272 -0.4938441812992096 -0.15643446147441864
vn 0.77163428068161008 -0.4455032646656036 -0.45399048924446104
vn 0.6123724579811096 -0.3535533845424652 -0.7071067690849304
vn 0.39316731691360472 -0.22699524462223052 -0.8910065293312072
vn 0.13547621667385102 -0.07821723073720932 -0.9876883625984192
# 62 vertex normals

g obj_38211467
s 1
f 1//1 2//1 3//1
f 4//2 3//2 5//2
f 6//3 5//3 7//3
f 8//4 7//4 9//4
f 10//5 9//5 11//5
f 12//6 11//6 13//6
f 14//7 13//7 15//7
f 16//8 15//8 17//8
f 18//9 17//9 19//9
f 20//10 19//10 21//10
f 22//11 21//11 23//11
f 24//12 23//12 25//12
f 26//13 25//13 27//13
f 28//14 27//14 29//14
f 30//15 29//15 31//15
f 32//16 31//16 33//16
f 34//17 33//17 35//17
f 36//18 35//18 37//18
f 38//19 37//19 39//19
f 40//20 39//20 41//20
f 42//21 41//21 43//21
f 44//22 43//22 45//22
f 46//23 45//23 47//23
f 48//24 47//24 49//24
f 50//25 49//25 51//25
f 52//26 51//26 53//26
f 54//27 53//27 55//27
f 56//28 55//28 57//28
f 58//29 57//29 59//29
f 60//30 59//30 61//30
f 62//31 61//31 63//31
f 64//32 63//32 65//32
f 66//33 65//33 67//33
f 68//34 67//34 69//34
f 70//35 69//35 71//35
f 72//36 71//36 73//36
f 74//37 73//37 75//37
f 76//38 75//38 77//38
f 78//39 77//39 79//39
f 80//40 79//40 2//40
f 2//40 1//40 80//40
f 79//39 80//39 78//39
f 77//38 78//38 76//38
f 75//37 76//37 74//37
f 73//36 74//36 72//36
f 71//35 72//35 70//35
f 69//34 70//34 68//34
f 67//33 68//33 66//33
f 65//32 66//32 64//32
f 63//31 64//31 62//31
f 61//30 62//30 60//30
f 59//29 60//29 58//29
f 57//28 58//28 56//28
f 55//27 56//27 54//27
f 53//26 54//26 52//26
f 51//25 52//25 50//25
f 49//24 50//24 48//24
f 47//23 48//23 46//23
f 45//22 46//22 44//22
f 43//21 44//21 42//21
f 41//20 42//20 40//20
f 39//19 40//19 38//19
f 37//18 38//18 36//18
f 35//17 36//17 34//17
f 33//16 34//16 32//16
f 31//15 32//15 30//15
f 29//14 30//14 28//14
f 27//13 28//13 26//13
f 25//12 26//12 24//12
f 23//11 24//11 22//11
f 21//10 22//10 20//10
f 19//9 20//9 18//9
f 17//8 18//8 16//8
f 15//7 16//7 14//7
f 13//6 14//6 12//6
f 11//5 12//5 10//5
f 9//4 10//4 8//4
f 7//3 8//3 6//3
f 5//2 6//2 4//2
f 3//1 4//1 1//1
f 81//41 82//41 75//41
f 83//41 84//41 85//41
f 86//41 87//41 15//41
f 88//41 86//41 11//41
f 82//41 89//41 77//41
f 75//41 73//41 81//41
f 90//41 81//41 71//41
f 65//41 91//41 83//41
f 17//41 92//41 93//41
f 87//41 92//41 17//41
f 15//41 13//41 86//41
f 11//41 9//41 88//41
f 94//41 95//41 96//41
f 73//41 71//41 81//41
f 71//41 69//41 90//41
f 85//41 90//41 67//41
f 83//41 97//41 84//41
f 98//41 99//41 100//41
f 25//41 23//41 101//41
f 23//41 21//41 102//41
f 17//41 15//41 87//41
f 9//41 7//41 88//41
f 96//41 88//41 7//41
f 5//41 103//41 94//41
f 77//41 89//41 104//41
f 69//41 67//41 90//41
f 85//41 65//41 83//41
f 65//41 63//41 105//41
f 98//41 106//41 99//41
f 102//41 101//41 23//41
f 19//41 93//41 102//41
f 13//41 11//41 86//41
f 96//41 5//41 94//41
f 5//41 3//41 107//41
f 3//41 2//41 108//41
f 77//41 75//41 82//41
f 105//41 91//41 65//41
f 109//41 98//41 110//41
f 98//41 109//41 106//41
f 111//41 29//41 27//41
f 102//41 21//41 19//41
f 7//41 5//41 96//41
f 108//41 107//41 3//41
f 79//41 104//41 108//41
f 67//41 65//41 85//41
f 100//41 112//41 98//41
f 113//41 109//41 114//41
f 115//41 33//41 31//41
f 111//41 31//41 29//41
f 116//41 27//41 25//41
f 93//41 19//41 17//41
f 94//41 100//41 117//41
f 108//41 2//41 79//41
f 83//41 118//41 97//41
f 100//41 119//41 112//41
f 37//41 120//41 121//41
f 122//41 120//41 37//41
f 114//41 123//41 113//41
f 115//41 35//41 33//41
f 25//41 124//41 116//41
f 117//41 95//41 94//41
f 104//41 79//41 77//41
f 110//41 125//41 126//41
f 127//41 128//41 125//41
f 100//41 129//41 119//41
f 100//41 94//41 130//41
f 37//41 35//41 122//41
f 131//41 132//41 113//41
f 27//41 116//41 111//41
f 107//41 103//41 5//41
f 125//41 110//41 127//41
f 126//41 133//41 110//41
f 130//41 129//41 100//41
f 63//41 61//41 134//41
f 59//41 135//41 134//41
f 136//41 137//41 55//41
f 35//41 138//41 122//41
f 115//41 131//41 139//41
f 131//41 115//41 132//41
f 140//41 45//41 141//41
f 142//41 141//41 128//41
f 143//41 127//41 118//41
f 101//41 124//41 25//41
f 110//41 133//41 109//41
f 134//41 61//41 59//41
f 57//41 144//41 135//41
f 137//41 144//41 57//41
f 55//41 53//41 136//41
f 145//41 136//41 51//41
f 35//41 139//41 138//41
f 123//41 131//41 113//41
f 109//41 146//41 147//41
f 128//41 148//41 142//41
f 45//41 149//41 150//41
f 128//41 127//41 151//41
f 118//41 152//41 143//41
f 118//41 153//41 154//41
f 135//41 59//41 57//41
f 53//41 51//41 136//41
f 51//41 49//41 145//41
f 39//41 121//41 155//41
f 139//41 35//41 115//41
f 109//41 156//41 146//41
f 140//41 145//41 47//41
f 150//41 141//41 45//41
f 151//41 157//41 128//41
f 154//41 152//41 118//41
f 118//41 83//41 158//41
f 134//41 105//41 63//41
f 49//41 47//41 145//41
f 121//41 39//41 37//41
f 109//41 133//41 156//41
f 141//41 142//41 140//41
f 45//41 43//41 159//41
f 127//41 160//41 151//41
f 158//41 153//41 118//41
f 57//41 55//41 137//41
f 147//41 114//41 109//41
f 159//41 149//41 45//41
f 143//41 160//41 127//41
f 155//41 41//41 39//41
f 157//41 148//41 128//41
f 47//41 45//41 140//41
f 43//41 41//41 155//41
f 155//41 159//41 43//41
f 31//41 111//41 115//41
f 161//42 162//42 163//42
f 164//42 165//42 166//42
f 167//42 161//42 168//42
f 161//42 169//42 162//42
f 164//42 170//42 165//42
f 171//42 172//42 173//42
f 168//42 174//42 76//42
f 78//42 175//42 167//42
f 163//42 176//42 177//42
f 26//42 178//42 179//42
f 26//42 170//42 180//42
f 166//42 181//42 164//42
f 182//42 34//42 36//42
f 183//42 36//42 38//42
f 38//42 40//42 184//42
f 171//42 185//42 172//42
f 168//42 78//42 167//42
f 78//42 80//42 186//42
f 161//42 187//42 169//42
f 161//42 167//42 188//42
f 180//42 178//42 26//42
f 164//42 189//42 170//42
f 190//42 30//42 32//42
f 182//42 32//42 34//42
f 184//42 191//42 38//42
f 173//42 192//42 171//42
f 193//42 194//42 195//42
f 186//42 175//42 78//42
f 188//42 187//42 161//42
f 48//42 196//42 197//42
f 198//42 54//42 56//42
f 199//42 10//42 12//42
f 200//42 14//42 16//42
f 189//42 180//42 170//42
f 170//42 26//42 28//42
f 190//42 28//42 30//42
f 38//42 191//42 183//42
f 173//42 201//42 192//42
f 202//42 6//42 203//42
f 204//42 205//42 46//42
f 195//42 48//42 193//42
f 163//42 177//42 161//42
f 197//42 193//42 48//42
f 206//42 50//42 52//42
f 198//42 52//42 54//42
f 207//42 56//42 58//42
f 208//42 209//42 68//42
f 174//42 208//42 72//42
f 199//42 8//42 10//42
f 200//42 12//42 14//42
f 210//42 16//42 18//42
f 18//42 20//42 211//42
f 24//42 212//42 213//42
f 26//42 214//42 212//42
f 28//42 190//42 170//42
f 36//42 183//42 182//42
f 40//42 42//42 215//42
f 44//42 216//42 215//42
f 192//42 217//42 218//42
f 171//42 219//42 185//42
f 203//42 192//42 202//42
f 203//42 6//42 8//42
f 48//42 220//42 204//42
f 193//42 221//42 194//42
f 76//42 78//42 168//42
f 197//42 222//42 193//42
f 48//42 223//42 224//42
f 206//42 48//42 50//42
f 58//42 225//42 207//42
f 60//42 62//42 226//42
f 64//42 227//42 226//42
f 66//42 228//42 227//42
f 209//42 228//42 66//42
f 68//42 70//42 208//42
f 72//42 74//42 174//42
f 16//42 210//42 200//42
f 211//42 229//42 18//42
f 20//42 22//42 213//42
f 212//42 24//42 26//42
f 32//42 182//42 190//42
f 215//42 42//42 44//42
f 185//42 219//42 230//42
f 4//42 231//42 232//42
f 6//42 233//42 231//42
f 201//42 217//42 192//42
f 8//42 199//42 203//42
f 48//42 234//42 220//42
f 193//42 235//42 221//42
f 222//42 176//42 193//42
f 80//42 1//42 232//42
f 48//42 206//42 223//42
f 56//42 207//42 198//42
f 58//42 60//42 236//42
f 226//42 62//42 64//42
f 66//42 68//42 209//42
f 74//42 76//42 174//42
f 18//42 229//42 210//42
f 213//42 22//42 24//42
f 181//42 166//42 237//42
f 215//42 184//42 40//42
f 230//42 238//42 185//42
f 231//42 4//42 6//42
f 202//42 233//42 6//42
f 46//42 205//42 216//42
f 195//42 234//42 48//42
f 193//42 239//42 238//42
f 232//42 186//42 80//42
f 52//42 198//42 206//42
f 226//42 236//42 60//42
f 70//42 72//42 208//42
f 213//42 211//42 20//42
f 179//42 214//42 26//42
f 230//42 240//42 238//42
f 218//42 202//42 192//42
f 46//42 48//42 204//42
f 238//42 235//42 193//42
f 224//42 196//42 48//42
f 227//42 64//42 66//42
f 237//42 238//42 181//42
f 232//42 1//42 4//42
f 239//42 185//42 238//42
f 236//42 225//42 58//42
f 240//42 181//42 238//42
f 163//42 193//42 176//42
f 216//42 44//42 46//42
f 12//42 200//42 199//42
f 235//43 238//43 146//43
f 221//44 235//44 156//44
f 194//45 221//45 133//45
f 195//46 194//46 126//46
f 234//47 195//47 125//47
f 220//48 234//48 128//48
f 204//49 220//49 141//49
f 205//50 204//50 150//50
f 216//51 205//51 149//51
f 215//52 216//52 159//52
f 184//53 215//53 155//53
f 191//54 184//54 121//54
f 183//55 191//55 120//55
f 182//56 183//56 122//56
f 190//57 182//57 138//57
f 170//58 190//58 139//58
f 165//59 170//59 131//59
f 166//60 165//60 123//60
f 237//61 166//61 114//61
f 238//62 237//62 147//62
f 147//62 146//62 238//62
f 114//61 147//61 237//61
f 123//60 114//60 166//60
f 131//59 123//59 165//59
f 139//58 131//58 170//58
f 138//57 139//57 190//57
f 122//56 138//56 182//56
f 120//55 122//55 183//55
f 121//54 120//54 191//54
f 155//53 121//53 184//53
f 159//52 155//52 215//52
f 149//51 159//51 216//51
f 150//50 149//50 205//50
f 141//49 150//49 204//49
f 128//48 141//48 220//48
f 125//47 128//47 234//47
f 126//46 125//46 195//46
f 133//45 126//45 194//45
f 156//44 133//44 221//44
f 146//43 156//43 235//43
f 208//43 174//43 153//43
f 209//44 208//44 158//44
f 228//45 209//45 83//45
f 227//46 228//46 91//46
f 226//47 227//47 105//47
f 236//48 226//48 134//48
f 225//49 236//49 135//49
f 207//50 225//50 144//50
f 198//51 207//51 137//51
f 206//52 198//52 136//52
f 223//53 206//53 145//53
f 224//54 223//54 140//54
f 196//55 224//55 142//55
f 197//56 196//56 148//56
f 222//57 197//57 157//57
f 176//58 222//58 151//58
f 177//59 176//59 160//59
f 161//60 177//60 143//60
f 168//61 161//61 152//61
f 174//62 168//62 154//62
f 154//62 153//62 174//62
f 152//61 154//61 168//61
f 143//60 152//60 161//60
f 160//59 143//59 177//59
f 151//58 160//58 176//58
f 157//57 151//57 222//57
f 148//56 157//56 197//56
f 142//55 148//55 196//55
f 140//54 142//54 224//54
f 145//53 140//53 223//53
f 136//52 145//52 206//52
f 137//51 136//51 198//51
f 144//50 137//50 207//50
f 135//49 144//49 225//49
f 134//48 135//48 236//48
f 105//47 134//47 226//47
f 91//46 105//46 227//46
f 83//45 91//45 228//45
f 158//44 83//44 209//44
f 153//43 158//43 208//43
f 186//43 232//43 108//43
f 175//44 186//44 104//44
f 167//45 175//45 89//45
f 188//46 167//46 82//46
f 187//47 188//47 81//47
f 169//48 187//48 90//48
f 162//49 169//49 85//49
f 163//50 162//50 84//50
f 193//51 163//51 97//51
f 239//52 193//52 118//52
f 185//53 239//53 127//53
f 172//54 185//54 110//54
f 173//55 172//55 98//55
f 201//56 173//56 112//56
f 217//57 201//57 119//57
f 218//58 217//58 129//58
f 202//59 218//59 130//59
f 233//60 202//60 94//60
f 231//61 233//61 103//61
f 232//62 231//62 107//62
f 107//62 108//62 232//62
f 103//61 107//61 231//61
f 94//60 103//60 233//60
f 130//59 94//59 202//59
f 129//58 130//58 218//58
f 119//57 129//57 217//57
f 112//56 119//56 201//56
f 98//55 112//55 173//55
f 110//54 98//54 172//54
f 127//53 110//53 185//53
f 118//52 127//52 239//52
f 97//51 118//51 193//51
f 84//50 97//50 163//50
f 85//49 84//49 162//49
f 90//48 85//48 169//48
f 81//47 90//47 187//47
f 82//46 81//46 188//46
f 89//45 82//45 167//45
f 104//44 89//44 175//44
f 108//43 104//43 186//43
f 203//43 199//43 88//43
f 192//44 203//44 96//44
f 171//45 192//45 95//45
f 219//46 171//46 117//46
f 230//47 219//47 100//47
f 240//48 230//48 99//48
f 181//49 240//49 106//49
f 164//50 181//50 109//50
f 189//51 164//51 113//51
f 180//52 189//52 132//52
f 178//53 180//53 115//53
f 179//54 178//54 111//54
f 214//55 179//55 116//55
f 212//56 214//56 124//56
f 213//57 212//57 101//57
f 211//58 213//58 102//58
f 229//59 211//59 93//59
f 210//60 229//60 92//60
f 200//61 210//61 87//61
f 199//62 200//62 86//62
f 86//62 88//62 199//62
f 87//61 86//61 200//61
f 92//60 87//60 210//60
f 93//59 92//59 229//59
f 102//58 93//58 211//58
f 101//57 102//57 213//57
f 124//56 101//56 212//56
f 116//55 124//55 214//55
f 111//54 116//54 179//54
f 115//53 111//53 178//53
f 132//52 115//52 180//52
f 113//51 132//51 189//51
f 109//50 113//50 164//50
f 106//49 109//49 181//49
f 99//48 106//48 240//48
f 100//47 99//47 230//47
f 117//46 100//46 219//46
f 95//45 117//45 171//45
f 96//44 95//44 192//44
f 88//43 96//43 203//43
#492 polygons

