# Aspose.3D Wavefront OBJ Exporter
# Copyright 2004-2023 Aspose Pty Ltd.
# File created: 06/29/2023 05:41:28


#
# object obj_32953712
#

v -75.94709777832031248 21.10976409912109376 -86.619873046875
v -75.90234375 21.18728065490722656 -87.18499755859375
v -75.7923583984375 21.12378120422363282 -87.18499755859375
v -76.0769805908203125 20.88480377197265632 -86.1100616455078125
v -75.83711242675781248 21.0462646484375 -86.619873046875
v -76.27927398681640624 20.5344200134277344 -85.70546722412109376
v -75.96699523925781248 20.82130432128906256 -86.1100616455078125
v -76.5341796875 20.0929107666015625 -85.44570922851562496
v -76.16928863525390624 20.47092056274414064 -85.70546722412109376
v -76.81674957275390624 19.60349273681640624 -85.356201171875
v -76.4241943359375 20.02940940856933594 -85.44570922851562496
v -77.09931182861328124 19.11407661437988282 -85.44570922851562496
v -76.70676422119140624 19.53999328613281248 -85.356201171875
v -77.354217529296875 18.67256546020507816 -85.70546722412109376
v -76.98932647705078128 19.05057525634765625 -85.44570922851562496
v -77.55651092529296872 18.32218170166015624 -86.1100616455078125
v -77.244232177734375 18.6090660095214844 -85.70546722412109376
v -77.68639373779296872 18.09722137451171876 -86.619873046875
v -77.44652557373046872 18.25868225097656248 -86.1100616455078125
v -77.73114776611328128 18.01970672607421875 -87.18499755859375
v -77.57640838623046872 18.033721923828125 -86.619873046875
v -77.68639373779296872 18.09722137451171876 -87.7501296997070312
v -77.62116241455078128 17.95620536804199216 -87.18499755859375
v -77.55651092529296872 18.32218170166015624 -88.25994110107421876
v -77.57640838623046872 18.033721923828125 -87.7501296997070312
v -77.354217529296875 18.67256546020507816 -88.66452789306640624
v -77.44652557373046872 18.25868225097656248 -88.25994110107421876
v -77.09931182861328124 19.11407661437988282 -88.92429351806640624
v -77.244232177734375 18.6090660095214844 -88.66452789306640624
v -76.81674957275390624 19.60349273681640624 -89.01380157470703125
v -76.98932647705078128 19.05057525634765625 -88.92429351806640624
v -76.5341796875 20.0929107666015625 -88.92429351806640624
v -76.70676422119140624 19.53999328613281248 -89.01380157470703125
v -76.27927398681640624 20.5344200134277344 -88.66452789306640624
v -76.4241943359375 20.02940940856933594 -88.92429351806640624
v -76.0769805908203125 20.88480377197265632 -88.25994110107421876
v -76.16928863525390624 20.47092056274414064 -88.66452789306640624
v -75.94709777832031248 21.10976409912109376 -87.7501296997070312
v -75.96699523925781248 20.82130432128906256 -88.25994110107421876
v -75.83711242675781248 21.0462646484375 -87.7501296997070312
v -77.354217529296875 18.67256546020507816 -92.05547332763671875
v -79.197998046875 15.47904682159423832 -82.42250061035156248
v -76.81674957275390624 19.60349273681640624 -91.70619964599609376
v -79.197998046875 15.47904682159423832 -95.12249755859375
v -77.68639373779296872 18.09722137451171876 -92.96987152099609376
v -77.73114776611328128 18.01970672607421875 -93.53500366210937504
v -77.55651092529296872 18.32218170166015624 -92.46006011962890624
v -77.09931182861328124 19.11407661437988282 -91.79570770263671872
v -76.5341796875 20.0929107666015625 -91.79570770263671872
v -74.43549346923828128 23.72793960571289056 -82.42250061035156248
v -76.0769805908203125 20.88480377197265632 -92.46006011962890624
v -77.61049652099609376 18.22867774963378908 -98.29750061035156248
v -77.55651092529296872 18.32218170166015624 -94.60993957519531248
v -75.38799285888671872 22.07816123962402344 -98.29750061035156248
v -76.27927398681640624 20.5344200134277344 -95.0145263671875
v -76.0769805908203125 20.88480377197265632 -94.60993957519531248
v -77.354217529296875 18.67256546020507816 -95.0145263671875
v -76.27927398681640624 20.5344200134277344 -92.05547332763671875
v -74.43549346923828128 23.72793960571289056 -96.39250183105468752
v -75.94709777832031248 21.10976409912109376 -94.100128173828125
v -76.5341796875 20.0929107666015625 -95.2742919921875
v -76.81674957275390624 19.60349273681640624 -95.36380004882812496
v -77.68639373779296872 18.09722137451171876 -94.100128173828125
v -75.90234375 21.18728065490722656 -93.53500366210937504
v -75.94709777832031248 21.10976409912109376 -92.96987152099609376
v -77.09931182861328124 19.11407661437988282 -95.2742919921875
v -76.4241943359375 20.02940940856933594 -91.79570770263671872
v -75.27800750732421876 22.01465988159179687 -98.29750061035156248
v -74.32550811767578124 23.66443824768066408 -96.39250183105468752
v -75.96699523925781248 20.82130432128906256 -94.60993957519531248
v -77.50051116943359376 18.16517829895019532 -98.29750061035156248
v -77.244232177734375 18.6090660095214844 -95.0145263671875
v -77.44652557373046872 18.25868225097656248 -94.60993957519531248
v -76.16928863525390624 20.47092056274414064 -95.0145263671875
v -79.0880126953125 15.41554737091064456 -82.42250061035156248
v -79.0880126953125 15.41554737091064456 -95.12249755859375
v -77.57640838623046872 18.033721923828125 -92.96987152099609376
v -75.83711242675781248 21.0462646484375 -94.100128173828125
v -74.32550811767578124 23.66443824768066408 -82.42250061035156248
v -75.83711242675781248 21.0462646484375 -92.96987152099609376
v -76.16928863525390624 20.47092056274414064 -92.05547332763671875
v -76.98932647705078128 19.05057525634765625 -91.79570770263671872
v -76.70676422119140624 19.53999328613281248 -91.70619964599609376
v -77.244232177734375 18.6090660095214844 -92.05547332763671875
v -77.44652557373046872 18.25868225097656248 -92.46006011962890624
v -76.98932647705078128 19.05057525634765625 -95.2742919921875
v -76.4241943359375 20.02940940856933594 -95.2742919921875
v -76.70676422119140624 19.53999328613281248 -95.36380004882812496
v -75.7923583984375 21.12378120422363282 -93.53500366210937504
v -75.96699523925781248 20.82130432128906256 -92.46006011962890624
v -77.62116241455078128 17.95620536804199216 -93.53500366210937504
v -77.57640838623046872 18.033721923828125 -94.100128173828125
v -56.1451568603515625 55.15373611450195312 -86.619873046875
v -56.189910888671875 55.07622146606445312 -87.18499755859375
v -56.299896240234375 55.13972091674804688 -87.18499755859375
v -56.0152740478515625 55.37869644165039064 -86.1100616455078125
v -56.25514221191406248 55.21723556518554688 -86.619873046875
v -55.8129806518554688 55.72908020019531248 -85.70546722412109376
v -56.1252593994140625 55.4421958923339844 -86.1100616455078125
v -55.55807495117187504 56.17058944702148438 -85.44570922851562496
v -55.9229660034179688 55.79257965087890624 -85.70546722412109376
v -55.27550888061523436 56.66000747680664064 -85.356201171875
v -55.66806030273437504 56.23408889770507812 -85.44570922851562496
v -54.99294662475585936 57.14942550659179688 -85.44570922851562496
v -55.3854942321777344 56.7235069274902344 -85.356201171875
v -54.7380409240722656 57.59093475341796872 -85.70546722412109376
v -55.10293197631835938 57.21292495727539064 -85.44570922851562496
v -54.53574752807617184 57.94131851196289056 -86.1100616455078125
v -54.8480262756347656 57.65443420410156248 -85.70546722412109376
v -54.40586471557617184 58.16627883911132812 -86.619873046875
v -54.64572906494140624 58.00481796264648437 -86.1100616455078125
v -54.36111068725585936 58.24379348754882812 -87.18499755859375
v -54.51585006713867184 58.22977828979492188 -86.619873046875
v -54.40586471557617184 58.16627883911132812 -87.7501296997070312
v -54.47109603881835936 58.30729293823242188 -87.18499755859375
v -54.53574752807617184 57.94131851196289056 -88.25994110107421876
v -54.51585006713867184 58.22977828979492188 -87.7501296997070312
v -54.7380409240722656 57.59093475341796872 -88.66452789306640624
v -54.64572906494140624 58.00481796264648437 -88.25994110107421876
v -54.99294662475585936 57.14942550659179688 -88.92429351806640624
v -54.8480262756347656 57.65443420410156248 -88.66452789306640624
v -55.27550888061523436 56.66000747680664064 -89.01380157470703125
v -55.10293197631835938 57.21292495727539064 -88.92429351806640624
v -55.55807495117187504 56.17058944702148438 -88.92429351806640624
v -55.3854942321777344 56.7235069274902344 -89.01380157470703125
v -55.8129806518554688 55.72908020019531248 -88.66452789306640624
v -55.66806030273437504 56.23408889770507812 -88.92429351806640624
v -56.0152740478515625 55.37869644165039064 -88.25994110107421876
v -55.9229660034179688 55.79257965087890624 -88.66452789306640624
v -56.1451568603515625 55.15373611450195312 -87.7501296997070312
v -56.1252593994140625 55.4421958923339844 -88.25994110107421876
v -56.25514221191406248 55.21723556518554688 -87.7501296997070312
v -54.7380409240722656 57.59093475341796872 -92.05547332763671875
v -52.89426040649414064 60.78445434570312496 -82.42250061035156248
v -55.27550888061523436 56.66000747680664064 -91.70619964599609376
v -52.89426040649414064 60.78445434570312496 -95.12249755859375
v -54.40586471557617184 58.16627883911132812 -92.96987152099609376
v -54.36111068725585936 58.24379348754882812 -93.53500366210937504
v -54.53574752807617184 57.94131851196289056 -92.46006011962890624
v -54.99294662475585936 57.14942550659179688 -91.79570770263671872
v -55.55807495117187504 56.17058944702148438 -91.79570770263671872
v -57.65676116943359376 52.53556060791015624 -82.42250061035156248
v -56.0152740478515625 55.37869644165039064 -92.46006011962890624
v -54.48176193237304688 58.034820556640625 -98.29750061035156248
v -54.53574752807617184 57.94131851196289056 -94.60993957519531248
v -56.70426177978515624 54.18534088134765624 -98.29750061035156248
v -55.8129806518554688 55.72908020019531248 -95.0145263671875
v -56.0152740478515625 55.37869644165039064 -94.60993957519531248
v -54.7380409240722656 57.59093475341796872 -95.0145263671875
v -55.8129806518554688 55.72908020019531248 -92.05547332763671875
v -57.65676116943359376 52.53556060791015624 -96.39250183105468752
v -56.1451568603515625 55.15373611450195312 -94.100128173828125
v -55.55807495117187504 56.17058944702148438 -95.2742919921875
v -55.27550888061523436 56.66000747680664064 -95.36380004882812496
v -54.40586471557617184 58.16627883911132812 -94.100128173828125
v -56.189910888671875 55.07622146606445312 -93.53500366210937504
v -56.1451568603515625 55.15373611450195312 -92.96987152099609376
v -54.99294662475585936 57.14942550659179688 -95.2742919921875
v -55.66806030273437504 56.23408889770507812 -91.79570770263671872
v -56.81424713134765632 54.24884033203125 -98.29750061035156248
v -57.76674652099609376 52.59906005859375 -96.39250183105468752
v -56.1252593994140625 55.4421958923339844 -94.60993957519531248
v -54.59174728393554688 58.09832382202148438 -98.29750061035156248
v -54.8480262756347656 57.65443420410156248 -95.0145263671875
v -54.64572906494140624 58.00481796264648437 -94.60993957519531248
v -55.9229660034179688 55.79257965087890624 -95.0145263671875
v -53.00424575805664062 60.84795379638671872 -82.42250061035156248
v -53.00424575805664062 60.84795379638671872 -95.12249755859375
v -54.51585006713867184 58.22977828979492188 -92.96987152099609376
v -56.25514221191406248 55.21723556518554688 -94.100128173828125
v -57.76674652099609376 52.59906005859375 -82.42250061035156248
v -56.25514221191406248 55.21723556518554688 -92.96987152099609376
v -55.9229660034179688 55.79257965087890624 -92.05547332763671875
v -55.10293197631835938 57.21292495727539064 -91.79570770263671872
v -55.3854942321777344 56.7235069274902344 -91.70619964599609376
v -54.8480262756347656 57.65443420410156248 -92.05547332763671875
v -54.64572906494140624 58.00481796264648437 -92.46006011962890624
v -55.10293197631835938 57.21292495727539064 -95.2742919921875
v -55.66806030273437504 56.23408889770507812 -95.2742919921875
v -55.3854942321777344 56.7235069274902344 -95.36380004882812496
v -56.299896240234375 55.13972091674804688 -93.53500366210937504
v -56.1252593994140625 55.4421958923339844 -92.46006011962890624
v -54.47109603881835936 58.30729293823242188 -93.53500366210937504
v -54.51585006713867184 58.22977828979492188 -94.100128173828125
v -76.0570831298828125 21.1732635498046875 -86.619873046875
v -76.0123291015625 21.25078010559082032 -87.18499755859375
v -76.18696594238281248 20.94830322265624992 -86.1100616455078125
v -76.38925933837890624 20.59791946411132816 -85.70546722412109376
v -76.6441650390625 20.15641021728515624 -85.44570922851562496
v -76.92673492431640624 19.6669921875 -85.356201171875
v -77.20929718017578124 19.17757606506347656 -85.44570922851562496
v -77.46420288085937504 18.73606681823730464 -85.70546722412109376
v -77.66649627685546872 18.3856830596923828 -86.1100616455078125
v -77.7963790893554688 18.16072273254394532 -86.619873046875
v -77.84113311767578128 18.0832061767578125 -87.18499755859375
v -77.7963790893554688 18.16072273254394532 -87.7501296997070312
v -77.66649627685546872 18.3856830596923828 -88.25994110107421876
v -77.46420288085937504 18.73606681823730464 -88.66452789306640624
v -77.20929718017578124 19.17757606506347656 -88.92429351806640624
v -76.92673492431640624 19.6669921875 -89.01380157470703125
v -76.6441650390625 20.15641021728515624 -88.92429351806640624
v -76.38925933837890624 20.59791946411132816 -88.66452789306640624
v -76.18696594238281248 20.94830322265624992 -88.25994110107421876
v -76.0570831298828125 21.1732635498046875 -87.7501296997070312
v -77.46420288085937504 18.73606681823730464 -92.05547332763671875
v -79.3079833984375 15.5425472259521484 -82.42250061035156248
v -76.92673492431640624 19.6669921875 -91.70619964599609376
v -79.3079833984375 15.5425472259521484 -95.12249755859375
v -77.7963790893554688 18.16072273254394532 -92.96987152099609376
v -77.84113311767578128 18.0832061767578125 -93.53500366210937504
v -77.66649627685546872 18.3856830596923828 -92.46006011962890624
v -77.20929718017578124 19.17757606506347656 -91.79570770263671872
v -76.6441650390625 20.15641021728515624 -91.79570770263671872
v -74.54547882080078128 23.79143905639648432 -82.42250061035156248
v -76.18696594238281248 20.94830322265624992 -92.46006011962890624
v -77.72048187255859376 18.2921772003173828 -98.29750061035156248
v -77.66649627685546872 18.3856830596923828 -94.60993957519531248
v -75.49797821044921872 22.14166069030761718 -98.29750061035156248
v -76.38925933837890624 20.59791946411132816 -95.0145263671875
v -76.18696594238281248 20.94830322265624992 -94.60993957519531248
v -77.46420288085937504 18.73606681823730464 -95.0145263671875
v -76.38925933837890624 20.59791946411132816 -92.05547332763671875
v -74.54547882080078128 23.79143905639648432 -96.39250183105468752
v -76.0570831298828125 21.1732635498046875 -94.100128173828125
v -76.6441650390625 20.15641021728515624 -95.2742919921875
v -76.92673492431640624 19.6669921875 -95.36380004882812496
v -77.7963790893554688 18.16072273254394532 -94.100128173828125
v -76.0123291015625 21.25078010559082032 -93.53500366210937504
v -76.0570831298828125 21.1732635498046875 -92.96987152099609376
v -77.20929718017578124 19.17757606506347656 -95.2742919921875
v -56.40988159179687504 55.20322036743164064 -87.18499755859375
v -56.36512756347656248 55.28073501586914064 -86.619873046875
v -56.23524475097656248 55.50569534301757816 -86.1100616455078125
v -56.03295135498046875 55.8560791015625 -85.70546722412109376
v -55.77804565429687504 56.29758834838867188 -85.44570922851562496
v -55.4954795837402344 56.78700637817382816 -85.356201171875
v -55.21291732788085936 57.27642440795898436 -85.44570922851562496
v -54.9580116271972656 57.71793365478515624 -85.70546722412109376
v -54.75571441650390624 58.06831741333007812 -86.1100616455078125
v -54.62583541870117184 58.29327774047851564 -86.619873046875
v -54.58108139038085936 58.3707923889160156 -87.18499755859375
v -54.62583541870117184 58.29327774047851564 -87.7501296997070312
v -54.75571441650390624 58.06831741333007812 -88.25994110107421876
v -54.9580116271972656 57.71793365478515624 -88.66452789306640624
v -55.21291732788085936 57.27642440795898436 -88.92429351806640624
v -55.4954795837402344 56.78700637817382816 -89.01380157470703125
v -55.77804565429687504 56.29758834838867188 -88.92429351806640624
v -56.03295135498046875 55.8560791015625 -88.66452789306640624
v -56.23524475097656248 55.50569534301757816 -88.25994110107421876
v -56.36512756347656248 55.28073501586914064 -87.7501296997070312
v -55.77804565429687504 56.29758834838867188 -91.79570770263671872
v -56.92423248291015632 54.31233978271484376 -98.29750061035156248
v -57.87673187255859376 52.66255950927734376 -96.39250183105468752
v -56.23524475097656248 55.50569534301757816 -94.60993957519531248
v -54.70173263549804688 58.16182327270507812 -98.29750061035156248
v -54.9580116271972656 57.71793365478515624 -95.0145263671875
v -54.75571441650390624 58.06831741333007812 -94.60993957519531248
v -56.03295135498046875 55.8560791015625 -95.0145263671875
v -53.11423110961914062 60.91145324707031248 -82.42250061035156248
v -53.11423110961914062 60.91145324707031248 -95.12249755859375
v -54.62583541870117184 58.29327774047851564 -92.96987152099609376
v -56.36512756347656248 55.28073501586914064 -94.100128173828125
v -57.87673187255859376 52.66255950927734376 -82.42250061035156248
v -56.36512756347656248 55.28073501586914064 -92.96987152099609376
v -56.03295135498046875 55.8560791015625 -92.05547332763671875
v -55.21291732788085936 57.27642440795898436 -91.79570770263671872
v -55.4954795837402344 56.78700637817382816 -91.70619964599609376
v -54.9580116271972656 57.71793365478515624 -92.05547332763671875
v -54.75571441650390624 58.06831741333007812 -92.46006011962890624
v -55.21291732788085936 57.27642440795898436 -95.2742919921875
v -55.77804565429687504 56.29758834838867188 -95.2742919921875
v -55.4954795837402344 56.78700637817382816 -95.36380004882812496
v -56.40988159179687504 55.20322036743164064 -93.53500366210937504
v -56.23524475097656248 55.50569534301757816 -92.46006011962890624
v -54.58108139038085936 58.3707923889160156 -93.53500366210937504
v -54.62583541870117184 58.29327774047851564 -94.100128173828125
# 276 vertices

vn -0.4938441812992096 -0.85536319017410272 -0.15643446147441864
vn -0.4455032646656036 -0.77163428068161008 -0.45399048924446104
vn -0.3535533845424652 -0.6123724579811096 -0.7071067690849304
vn -0.22699524462223052 -0.39316731691360472 -0.8910065293312072
vn -0.07821723073720932 -0.13547621667385102 -0.9876883625984192
vn 0.07821723073720932 0.13547621667385102 -0.9876883625984192
vn 0.22699524462223052 0.39316731691360472 -0.8910065293312072
vn 0.3535533845424652 0.6123724579811096 -0.7071067690849304
vn 0.4455032646656036 0.77163428068161008 -0.45399048924446104
vn 0.4938441812992096 0.85536319017410272 -0.15643446147441864
vn 0.4938441812992096 0.85536319017410272 0.15643446147441864
vn 0.4455032646656036 0.77163428068161008 0.45399048924446104
vn 0.3535533845424652 0.6123724579811096 0.7071067690849304
vn 0.22699524462223052 0.39316731691360472 0.8910065293312072
vn 0.07821723073720932 0.13547621667385102 0.9876883625984192
vn -0.07821723073720932 -0.13547621667385102 0.9876883625984192
vn -0.22699524462223052 -0.39316731691360472 0.8910065293312072
vn -0.3535533845424652 -0.6123724579811096 0.7071067690849304
vn -0.4455032646656036 -0.77163428068161008 0.45399048924446104
vn -0.4938441812992096 -0.85536319017410272 0.15643446147441864
vn -0.86602538824081424 0.5 0
vn 0.86602538824081424 -0.5 0
vn -0.5 -0.86602538824081424 0
vn 0 0 1
vn 0.5 0.86602538824081424 0
vn 0 0 -1
# 26 vertex normals

g obj_32953712
s 1
f 1//1 2//1 3//1
f 4//2 1//2 5//2
f 6//3 4//3 7//3
f 8//4 6//4 9//4
f 10//5 8//5 11//5
f 12//6 10//6 13//6
f 14//7 12//7 15//7
f 16//8 14//8 17//8
f 18//9 16//9 19//9
f 20//10 18//10 21//10
f 22//11 20//11 23//11
f 24//12 22//12 25//12
f 26//13 24//13 27//13
f 28//14 26//14 29//14
f 30//15 28//15 31//15
f 32//16 30//16 33//16
f 34//17 32//17 35//17
f 36//18 34//18 37//18
f 38//19 36//19 39//19
f 2//20 38//20 40//20
f 40//20 3//20 2//20
f 39//19 40//19 38//19
f 37//18 39//18 36//18
f 35//17 37//17 34//17
f 33//16 35//16 32//16
f 31//15 33//15 30//15
f 29//14 31//14 28//14
f 27//13 29//13 26//13
f 25//12 27//12 24//12
f 23//11 25//11 22//11
f 21//10 23//10 20//10
f 19//9 21//9 18//9
f 17//8 19//8 16//8
f 15//7 17//7 14//7
f 13//6 15//6 12//6
f 11//5 13//5 10//5
f 9//4 11//4 8//4
f 7//3 9//3 6//3
f 5//2 7//2 4//2
f 3//1 5//1 1//1
f 41//21 42//21 22//21
f 28//21 30//21 43//21
f 44//21 45//21 46//21
f 42//21 47//21 45//21
f 42//21 20//21 22//21
f 48//21 26//21 28//21
f 45//21 44//21 42//21
f 42//21 18//21 20//21
f 30//21 49//21 43//21
f 50//21 8//21 10//21
f 42//21 41//21 47//21
f 42//21 16//21 18//21
f 48//21 24//21 26//21
f 50//21 6//21 8//21
f 50//21 51//21 38//21
f 52//21 44//21 53//21
f 22//21 48//21 41//21
f 48//21 22//21 24//21
f 42//21 12//21 14//21
f 10//21 42//21 50//21
f 51//21 36//21 38//21
f 54//21 55//21 56//21
f 53//21 57//21 52//21
f 43//21 48//21 28//21
f 10//21 12//21 42//21
f 51//21 34//21 36//21
f 32//21 58//21 49//21
f 59//21 56//21 60//21
f 54//21 61//21 55//21
f 54//21 52//21 62//21
f 44//21 63//21 53//21
f 14//21 16//21 42//21
f 50//21 2//21 1//21
f 51//21 32//21 34//21
f 32//21 51//21 58//21
f 59//21 64//21 65//21
f 56//21 59//21 54//21
f 52//21 66//21 62//21
f 46//21 63//21 44//21
f 1//21 4//21 50//21
f 49//21 30//21 32//21
f 65//21 50//21 59//21
f 62//21 61//21 54//21
f 4//21 6//21 50//21
f 65//21 51//21 50//21
f 57//21 66//21 52//21
f 60//21 64//21 59//21
f 38//21 2//21 50//21
f 67//22 35//22 33//22
f 68//22 69//22 70//22
f 67//22 37//22 35//22
f 71//22 72//22 73//22
f 70//22 74//22 68//22
f 67//22 39//22 37//22
f 75//22 76//22 77//22
f 73//22 76//22 71//22
f 69//22 78//22 70//22
f 69//22 79//22 80//22
f 40//22 67//22 81//22
f 67//22 40//22 39//22
f 79//22 75//22 13//22
f 31//22 82//22 83//22
f 84//22 82//22 25//22
f 77//22 85//22 75//22
f 71//22 86//22 72//22
f 68//22 87//22 88//22
f 69//22 89//22 78//22
f 79//22 90//22 80//22
f 33//22 83//22 67//22
f 79//22 3//22 40//22
f 13//22 11//22 79//22
f 82//22 29//22 27//22
f 83//22 33//22 31//22
f 25//22 75//22 84//22
f 76//22 91//22 77//22
f 73//22 92//22 76//22
f 88//22 71//22 68//22
f 80//22 89//22 69//22
f 40//22 90//22 79//22
f 75//22 15//22 13//22
f 75//22 19//22 17//22
f 31//22 29//22 82//22
f 85//22 84//22 75//22
f 88//22 86//22 71//22
f 81//22 90//22 40//22
f 79//22 7//22 5//22
f 17//22 15//22 75//22
f 75//22 23//22 21//22
f 25//22 23//22 75//22
f 74//22 87//22 68//22
f 79//22 9//22 7//22
f 21//22 19//22 75//22
f 92//22 91//22 76//22
f 11//22 9//22 79//22
f 5//22 3//22 79//22
f 27//22 25//22 82//22
f 44//23 76//23 75//23
f 75//23 42//23 44//23
f 42//24 75//24 79//24
f 79//24 50//24 42//24
f 50//25 79//25 69//25
f 69//25 59//25 50//25
f 59//8 69//8 68//8
f 68//8 54//8 59//8
f 54//26 68//26 71//26
f 71//26 52//26 54//26
f 52//3 71//3 76//3
f 76//3 44//3 52//3
f 65//1 64//1 89//1
f 51//2 65//2 80//2
f 58//3 51//3 90//3
f 49//4 58//4 81//4
f 43//5 49//5 67//5
f 48//6 43//6 83//6
f 41//7 48//7 82//7
f 47//8 41//8 84//8
f 45//9 47//9 85//9
f 46//10 45//10 77//10
f 63//11 46//11 91//11
f 53//12 63//12 92//12
f 57//13 53//13 73//13
f 66//14 57//14 72//14
f 62//15 66//15 86//15
f 61//16 62//16 88//16
f 55//17 61//17 87//17
f 56//18 55//18 74//18
f 60//19 56//19 70//19
f 64//20 60//20 78//20
f 78//20 89//20 64//20
f 70//19 78//19 60//19
f 74//18 70//18 56//18
f 87//17 74//17 55//17
f 88//16 87//16 61//16
f 86//15 88//15 62//15
f 72//14 86//14 66//14
f 73//13 72//13 57//13
f 92//12 73//12 53//12
f 91//11 92//11 63//11
f 77//10 91//10 46//10
f 85//9 77//9 45//9
f 84//8 85//8 47//8
f 82//7 84//7 41//7
f 83//6 82//6 48//6
f 67//5 83//5 43//5
f 81//4 67//4 49//4
f 90//3 81//3 58//3
f 80//2 90//2 51//2
f 89//1 80//1 65//1
f 93//10 94//10 95//10
f 96//9 93//9 97//9
f 98//8 96//8 99//8
f 100//7 98//7 101//7
f 102//6 100//6 103//6
f 104//5 102//5 105//5
f 106//4 104//4 107//4
f 108//3 106//3 109//3
f 110//2 108//2 111//2
f 112//1 110//1 113//1
f 114//20 112//20 115//20
f 116//19 114//19 117//19
f 118//18 116//18 119//18
f 120//17 118//17 121//17
f 122//16 120//16 123//16
f 124//15 122//15 125//15
f 126//14 124//14 127//14
f 128//13 126//13 129//13
f 130//12 128//12 131//12
f 94//11 130//11 132//11
f 132//11 95//11 94//11
f 131//12 132//12 130//12
f 129//13 131//13 128//13
f 127//14 129//14 126//14
f 125//15 127//15 124//15
f 123//16 125//16 122//16
f 121//17 123//17 120//17
f 119//18 121//18 118//18
f 117//19 119//19 116//19
f 115//20 117//20 114//20
f 113//1 115//1 112//1
f 111//2 113//2 110//2
f 109//3 111//3 108//3
f 107//4 109//4 106//4
f 105//5 107//5 104//5
f 103//6 105//6 102//6
f 101//7 103//7 100//7
f 99//8 101//8 98//8
f 97//9 99//9 96//9
f 95//10 97//10 93//10
f 133//22 134//22 114//22
f 120//22 122//22 135//22
f 136//22 137//22 138//22
f 134//22 139//22 137//22
f 134//22 112//22 114//22
f 140//22 118//22 120//22
f 137//22 136//22 134//22
f 134//22 110//22 112//22
f 122//22 141//22 135//22
f 142//22 100//22 102//22
f 134//22 133//22 139//22
f 134//22 108//22 110//22
f 140//22 116//22 118//22
f 142//22 98//22 100//22
f 142//22 143//22 130//22
f 144//22 136//22 145//22
f 114//22 140//22 133//22
f 140//22 114//22 116//22
f 134//22 104//22 106//22
f 102//22 134//22 142//22
f 143//22 128//22 130//22
f 146//22 147//22 148//22
f 145//22 149//22 144//22
f 135//22 140//22 120//22
f 102//22 104//22 134//22
f 143//22 126//22 128//22
f 124//22 150//22 141//22
f 151//22 148//22 152//22
f 146//22 153//22 147//22
f 146//22 144//22 154//22
f 136//22 155//22 145//22
f 106//22 108//22 134//22
f 142//22 94//22 93//22
f 143//22 124//22 126//22
f 124//22 143//22 150//22
f 151//22 156//22 157//22
f 148//22 151//22 146//22
f 144//22 158//22 154//22
f 138//22 155//22 136//22
f 93//22 96//22 142//22
f 141//22 122//22 124//22
f 157//22 142//22 151//22
f 154//22 153//22 146//22
f 96//22 98//22 142//22
f 157//22 143//22 142//22
f 149//22 158//22 144//22
f 152//22 156//22 151//22
f 130//22 94//22 142//22
f 159//21 127//21 125//21
f 160//21 161//21 162//21
f 159//21 129//21 127//21
f 163//21 164//21 165//21
f 162//21 166//21 160//21
f 159//21 131//21 129//21
f 167//21 168//21 169//21
f 165//21 168//21 163//21
f 161//21 170//21 162//21
f 161//21 171//21 172//21
f 132//21 159//21 173//21
f 159//21 132//21 131//21
f 171//21 167//21 105//21
f 123//21 174//21 175//21
f 176//21 174//21 117//21
f 169//21 177//21 167//21
f 163//21 178//21 164//21
f 160//21 179//21 180//21
f 161//21 181//21 170//21
f 171//21 182//21 172//21
f 125//21 175//21 159//21
f 171//21 95//21 132//21
f 105//21 103//21 171//21
f 174//21 121//21 119//21
f 175//21 125//21 123//21
f 117//21 167//21 176//21
f 168//21 183//21 169//21
f 165//21 184//21 168//21
f 180//21 163//21 160//21
f 172//21 181//21 161//21
f 132//21 182//21 171//21
f 167//21 107//21 105//21
f 167//21 111//21 109//21
f 123//21 121//21 174//21
f 177//21 176//21 167//21
f 180//21 178//21 163//21
f 173//21 182//21 132//21
f 171//21 99//21 97//21
f 109//21 107//21 167//21
f 167//21 115//21 113//21
f 117//21 115//21 167//21
f 166//21 179//21 160//21
f 171//21 101//21 99//21
f 113//21 111//21 167//21
f 184//21 183//21 168//21
f 103//21 101//21 171//21
f 97//21 95//21 171//21
f 119//21 117//21 174//21
f 136//25 168//25 167//25
f 167//25 134//25 136//25
f 134//24 167//24 171//24
f 171//24 142//24 134//24
f 142//23 171//23 161//23
f 161//23 151//23 142//23
f 151//3 161//3 160//3
f 160//3 146//3 151//3
f 146//26 160//26 163//26
f 163//26 144//26 146//26
f 144//8 163//8 168//8
f 168//8 136//8 144//8
f 157//10 156//10 181//10
f 143//9 157//9 172//9
f 150//8 143//8 182//8
f 141//7 150//7 173//7
f 135//6 141//6 159//6
f 140//5 135//5 175//5
f 133//4 140//4 174//4
f 139//3 133//3 176//3
f 137//2 139//2 177//2
f 138//1 137//1 169//1
f 155//20 138//20 183//20
f 145//19 155//19 184//19
f 149//18 145//18 165//18
f 158//17 149//17 164//17
f 154//16 158//16 178//16
f 153//15 154//15 180//15
f 147//14 153//14 179//14
f 148//13 147//13 166//13
f 152//12 148//12 162//12
f 156//11 152//11 170//11
f 170//11 181//11 156//11
f 162//12 170//12 152//12
f 166//13 162//13 148//13
f 179//14 166//14 147//14
f 180//15 179//15 153//15
f 178//16 180//16 154//16
f 164//17 178//17 158//17
f 165//18 164//18 149//18
f 184//19 165//19 145//19
f 183//20 184//20 155//20
f 169//1 183//1 138//1
f 177//2 169//2 137//2
f 176//3 177//3 139//3
f 174//4 176//4 133//4
f 175//5 174//5 140//5
f 159//6 175//6 135//6
f 173//7 159//7 141//7
f 182//8 173//8 150//8
f 172//9 182//9 143//9
f 181//10 172//10 157//10
f 185//1 186//1 2//1
f 187//2 185//2 1//2
f 188//3 187//3 4//3
f 189//4 188//4 6//4
f 190//5 189//5 8//5
f 191//6 190//6 10//6
f 192//7 191//7 12//7
f 193//8 192//8 14//8
f 194//9 193//9 16//9
f 195//10 194//10 18//10
f 196//11 195//11 20//11
f 197//12 196//12 22//12
f 198//13 197//13 24//13
f 199//14 198//14 26//14
f 200//15 199//15 28//15
f 201//16 200//16 30//16
f 202//17 201//17 32//17
f 203//18 202//18 34//18
f 204//19 203//19 36//19
f 186//20 204//20 38//20
f 38//20 2//20 186//20
f 36//19 38//19 204//19
f 34//18 36//18 203//18
f 32//17 34//17 202//17
f 30//16 32//16 201//16
f 28//15 30//15 200//15
f 26//14 28//14 199//14
f 24//13 26//13 198//13
f 22//12 24//12 197//12
f 20//11 22//11 196//11
f 18//10 20//10 195//10
f 16//9 18//9 194//9
f 14//8 16//8 193//8
f 12//7 14//7 192//7
f 10//6 12//6 191//6
f 8//5 10//5 190//5
f 6//4 8//4 189//4
f 4//3 6//3 188//3
f 1//2 4//2 187//2
f 2//1 1//1 185//1
f 205//21 206//21 196//21
f 199//21 200//21 207//21
f 208//21 209//21 210//21
f 206//21 211//21 209//21
f 206//21 195//21 196//21
f 212//21 198//21 199//21
f 209//21 208//21 206//21
f 206//21 194//21 195//21
f 200//21 213//21 207//21
f 214//21 189//21 190//21
f 206//21 205//21 211//21
f 206//21 193//21 194//21
f 212//21 197//21 198//21
f 214//21 188//21 189//21
f 214//21 215//21 204//21
f 216//21 208//21 217//21
f 196//21 212//21 205//21
f 212//21 196//21 197//21
f 206//21 191//21 192//21
f 190//21 206//21 214//21
f 215//21 203//21 204//21
f 218//21 219//21 220//21
f 217//21 221//21 216//21
f 207//21 212//21 199//21
f 190//21 191//21 206//21
f 215//21 202//21 203//21
f 201//21 222//21 213//21
f 223//21 220//21 224//21
f 218//21 225//21 219//21
f 218//21 216//21 226//21
f 208//21 227//21 217//21
f 192//21 193//21 206//21
f 214//21 186//21 185//21
f 215//21 201//21 202//21
f 201//21 215//21 222//21
f 223//21 228//21 229//21
f 220//21 223//21 218//21
f 216//21 230//21 226//21
f 210//21 227//21 208//21
f 185//21 187//21 214//21
f 213//21 200//21 201//21
f 229//21 214//21 223//21
f 226//21 225//21 218//21
f 187//21 188//21 214//21
f 229//21 215//21 214//21
f 221//21 230//21 216//21
f 224//21 228//21 223//21
f 204//21 186//21 214//21
f 49//22 32//22 30//22
f 54//22 59//22 56//22
f 49//22 34//22 32//22
f 52//22 57//22 53//22
f 56//22 55//22 54//22
f 49//22 36//22 34//22
f 42//22 44//22 45//22
f 53//22 44//22 52//22
f 59//22 60//22 56//22
f 59//22 50//22 65//22
f 38//22 49//22 58//22
f 49//22 38//22 36//22
f 50//22 42//22 10//22
f 28//22 48//22 43//22
f 41//22 48//22 22//22
f 45//22 47//22 42//22
f 52//22 66//22 57//22
f 54//22 61//22 62//22
f 59//22 64//22 60//22
f 50//22 51//22 65//22
f 30//22 43//22 49//22
f 50//22 2//22 38//22
f 10//22 8//22 50//22
f 48//22 26//22 24//22
f 43//22 30//22 28//22
f 22//22 42//22 41//22
f 44//22 46//22 45//22
f 53//22 63//22 44//22
f 62//22 52//22 54//22
f 65//22 64//22 59//22
f 38//22 51//22 50//22
f 42//22 12//22 10//22
f 42//22 16//22 14//22
f 28//22 26//22 48//22
f 47//22 41//22 42//22
f 62//22 66//22 52//22
f 58//22 51//22 38//22
f 50//22 4//22 1//22
f 14//22 12//22 42//22
f 42//22 20//22 18//22
f 22//22 20//22 42//22
f 55//22 61//22 54//22
f 50//22 6//22 4//22
f 18//22 16//22 42//22
f 63//22 46//22 44//22
f 8//22 6//22 50//22
f 1//22 2//22 50//22
f 24//22 22//22 48//22
f 208//23 44//23 42//23
f 42//23 206//23 208//23
f 206//24 42//24 50//24
f 50//24 214//24 206//24
f 214//25 50//25 59//25
f 59//25 223//25 214//25
f 223//8 59//8 54//8
f 54//8 218//8 223//8
f 218//26 54//26 52//26
f 52//26 216//26 218//26
f 216//3 52//3 44//3
f 44//3 208//3 216//3
f 229//1 228//1 64//1
f 215//2 229//2 65//2
f 222//3 215//3 51//3
f 213//4 222//4 58//4
f 207//5 213//5 49//5
f 212//6 207//6 43//6
f 205//7 212//7 48//7
f 211//8 205//8 41//8
f 209//9 211//9 47//9
f 210//10 209//10 45//10
f 227//11 210//11 46//11
f 217//12 227//12 63//12
f 221//13 217//13 53//13
f 230//14 221//14 57//14
f 226//15 230//15 66//15
f 225//16 226//16 62//16
f 219//17 225//17 61//17
f 220//18 219//18 55//18
f 224//19 220//19 56//19
f 228//20 224//20 60//20
f 60//20 64//20 228//20
f 56//19 60//19 224//19
f 55//18 56//18 220//18
f 61//17 55//17 219//17
f 62//16 61//16 225//16
f 66//15 62//15 226//15
f 57//14 66//14 230//14
f 53//13 57//13 221//13
f 63//12 53//12 217//12
f 46//11 63//11 227//11
f 45//10 46//10 210//10
f 47//9 45//9 209//9
f 41//8 47//8 211//8
f 48//7 41//7 205//7
f 43//6 48//6 212//6
f 49//5 43//5 207//5
f 58//4 49//4 213//4
f 51//3 58//3 222//3
f 65//2 51//2 215//2
f 64//1 65//1 229//1
f 97//10 95//10 231//10
f 99//9 97//9 232//9
f 101//8 99//8 233//8
f 103//7 101//7 234//7
f 105//6 103//6 235//6
f 107//5 105//5 236//5
f 109//4 107//4 237//4
f 111//3 109//3 238//3
f 113//2 111//2 239//2
f 115//1 113//1 240//1
f 117//20 115//20 241//20
f 119//19 117//19 242//19
f 121//18 119//18 243//18
f 123//17 121//17 244//17
f 125//16 123//16 245//16
f 127//15 125//15 246//15
f 129//14 127//14 247//14
f 131//13 129//13 248//13
f 132//12 131//12 249//12
f 95//11 132//11 250//11
f 250//11 231//11 95//11
f 249//12 250//12 132//12
f 248//13 249//13 131//13
f 247//14 248//14 129//14
f 246//15 247//15 127//15
f 245//16 246//16 125//16
f 244//17 245//17 123//17
f 243//18 244//18 121//18
f 242//19 243//19 119//19
f 241//20 242//20 117//20
f 240//1 241//1 115//1
f 239//2 240//2 113//2
f 238//3 239//3 111//3
f 237//4 238//4 109//4
f 236//5 237//5 107//5
f 235//6 236//6 105//6
f 234//7 235//7 103//7
f 233//8 234//8 101//8
f 232//9 233//9 99//9
f 231//10 232//10 97//10
f 176//22 167//22 117//22
f 123//22 125//22 175//22
f 168//22 169//22 183//22
f 167//22 177//22 169//22
f 167//22 115//22 117//22
f 174//22 121//22 123//22
f 169//22 168//22 167//22
f 167//22 113//22 115//22
f 125//22 159//22 175//22
f 171//22 103//22 105//22
f 167//22 176//22 177//22
f 167//22 111//22 113//22
f 174//22 119//22 121//22
f 171//22 101//22 103//22
f 171//22 182//22 132//22
f 163//22 168//22 165//22
f 117//22 174//22 176//22
f 174//22 117//22 119//22
f 167//22 107//22 109//22
f 105//22 167//22 171//22
f 182//22 131//22 132//22
f 160//22 166//22 162//22
f 165//22 164//22 163//22
f 175//22 174//22 123//22
f 105//22 107//22 167//22
f 182//22 129//22 131//22
f 127//22 173//22 159//22
f 161//22 162//22 170//22
f 160//22 179//22 166//22
f 160//22 163//22 180//22
f 168//22 184//22 165//22
f 109//22 111//22 167//22
f 171//22 95//22 97//22
f 182//22 127//22 129//22
f 127//22 182//22 173//22
f 161//22 181//22 172//22
f 162//22 161//22 160//22
f 163//22 178//22 180//22
f 183//22 184//22 168//22
f 97//22 99//22 171//22
f 159//22 125//22 127//22
f 172//22 171//22 161//22
f 180//22 179//22 160//22
f 99//22 101//22 171//22
f 172//22 182//22 171//22
f 164//22 178//22 163//22
f 170//22 181//22 161//22
f 132//22 95//22 171//22
f 251//21 247//21 246//21
f 252//21 253//21 254//21
f 251//21 248//21 247//21
f 255//21 256//21 257//21
f 254//21 258//21 252//21
f 251//21 249//21 248//21
f 259//21 260//21 261//21
f 257//21 260//21 255//21
f 253//21 262//21 254//21
f 253//21 263//21 264//21
f 250//21 251//21 265//21
f 251//21 250//21 249//21
f 263//21 259//21 236//21
f 245//21 266//21 267//21
f 268//21 266//21 242//21
f 261//21 269//21 259//21
f 255//21 270//21 256//21
f 252//21 271//21 272//21
f 253//21 273//21 262//21
f 263//21 274//21 264//21
f 246//21 267//21 251//21
f 263//21 231//21 250//21
f 236//21 235//21 263//21
f 266//21 244//21 243//21
f 267//21 246//21 245//21
f 242//21 259//21 268//21
f 260//21 275//21 261//21
f 257//21 276//21 260//21
f 272//21 255//21 252//21
f 264//21 273//21 253//21
f 250//21 274//21 263//21
f 259//21 237//21 236//21
f 259//21 239//21 238//21
f 245//21 244//21 266//21
f 269//21 268//21 259//21
f 272//21 270//21 255//21
f 265//21 274//21 250//21
f 263//21 233//21 232//21
f 238//21 237//21 259//21
f 259//21 241//21 240//21
f 242//21 241//21 259//21
f 258//21 271//21 252//21
f 263//21 234//21 233//21
f 240//21 239//21 259//21
f 276//21 275//21 260//21
f 235//21 234//21 263//21
f 232//21 231//21 263//21
f 243//21 242//21 266//21
f 168//25 260//25 259//25
f 259//25 167//25 168//25
f 167//24 259//24 263//24
f 263//24 171//24 167//24
f 171//23 263//23 253//23
f 253//23 161//23 171//23
f 161//3 253//3 252//3
f 252//3 160//3 161//3
f 160//26 252//26 255//26
f 255//26 163//26 160//26
f 163//8 255//8 260//8
f 260//8 168//8 163//8
f 172//10 181//10 273//10
f 182//9 172//9 264//9
f 173//8 182//8 274//8
f 159//7 173//7 265//7
f 175//6 159//6 251//6
f 174//5 175//5 267//5
f 176//4 174//4 266//4
f 177//3 176//3 268//3
f 169//2 177//2 269//2
f 183//1 169//1 261//1
f 184//20 183//20 275//20
f 165//19 184//19 276//19
f 164//18 165//18 257//18
f 178//17 164//17 256//17
f 180//16 178//16 270//16
f 179//15 180//15 272//15
f 166//14 179//14 271//14
f 162//13 166//13 258//13
f 170//12 162//12 254//12
f 181//11 170//11 262//11
f 262//11 273//11 181//11
f 254//12 262//12 170//12
f 258//13 254//13 162//13
f 271//14 258//14 166//14
f 272//15 271//15 179//15
f 270//16 272//16 180//16
f 256//17 270//17 178//17
f 257//18 256//18 164//18
f 276//19 257//19 165//19
f 275//20 276//20 184//20
f 261//1 275//1 183//1
f 269//2 261//2 169//2
f 268//3 269//3 177//3
f 266//4 268//4 176//4
f 267//5 266//5 174//5
f 251//6 267//6 175//6
f 265//7 251//7 159//7
f 274//8 265//8 173//8
f 264//9 274//9 182//9
f 273//10 264//10 172//10
#752 polygons

