# Aspose.3D Wavefront OBJ Exporter
# Copyright 2004-2023 Aspose Pty Ltd.
# File created: 06/29/2023 05:43:45


#
# object obj_29666475
#

v 47.59292602539062496 107.8333663940429688 -162.48330688476562496
v 47.36432647705078128 107.43742370605468752 -162.48330688476562496
v 46.33111190795898436 108.0339508056640625 -162.294342041015625
v 46.55971145629882816 108.42989349365234376 -162.294342041015625
v 45.39903640747070312 108.57208251953125 -161.74595642089843744
v 45.62763595581054688 108.9680252075195312 -161.74595642089843744
v 44.65933609008789064 108.9991455078125 -160.89181518554687504
v 44.887939453125 109.39509582519531248 -160.89181518554687504
v 44.18442153930664064 109.27333831787109376 -159.8155517578125
v 44.4130210876464844 109.66928863525390624 -159.8155517578125
v 44.02077484130859375 109.36782073974609376 -158.62249755859375
v 44.24937820434570312 109.76377105712890624 -158.62249755859375
v 44.18442153930664064 109.27333831787109376 -157.429443359375
v 44.4130210876464844 109.66928863525390624 -157.429443359375
v 44.65933609008789064 108.9991455078125 -156.353179931640625
v 44.887939453125 109.39509582519531248 -156.353179931640625
v 45.39903640747070312 108.57208251953125 -155.49905395507812496
v 45.62763595581054688 108.9680252075195312 -155.49905395507812496
v 46.33111190795898436 108.0339508056640625 -154.95066833496093744
v 46.55971145629882816 108.42989349365234376 -154.95066833496093744
v 47.36432647705078128 107.43742370605468752 -154.76170349121093744
v 47.59292602539062496 107.8333663940429688 -154.76170349121093744
v 48.39754104614257816 106.84089660644531248 -154.95066833496093744
v 48.62614059448242184 107.23683929443359376 -154.95066833496093744
v 49.32961654663085936 106.30275726318359376 -155.49905395507812496
v 49.55821609497070312 106.69870758056640624 -155.49905395507812496
v 50.06931686401367188 105.87569427490234368 -156.353179931640625
v 50.29791641235351564 106.27164459228515624 -156.353179931640625
v 50.54423141479492184 105.60150146484375 -157.429443359375
v 50.7728347778320312 105.99745178222656256 -157.429443359375
v 50.70787811279296872 105.50701904296875 -158.62249755859375
v 50.93647766113281248 105.90296936035156256 -158.62249755859375
v 50.54423141479492184 105.60150146484375 -159.8155517578125
v 50.7728347778320312 105.99745178222656256 -159.8155517578125
v 50.06931686401367188 105.87569427490234368 -160.89181518554687504
v 50.29791641235351564 106.27164459228515624 -160.89181518554687504
v 49.32961654663085936 106.30275726318359376 -161.74595642089843744
v 49.55821609497070312 106.69870758056640624 -161.74595642089843744
v 48.39754104614257816 106.84089660644531248 -162.294342041015625
v 48.62614059448242184 107.23683929443359376 -162.294342041015625
v 49.13210296630859376 106.41679382324218752 -159.285736083984375
v 49.22307586669921876 106.36427307128906248 -158.62249755859375
v 45.86056518554687504 108.30561828613281248 -159.88406372070312496
v 46.27178192138671876 108.068206787109375 -160.35888671875
v 48.86808776855468752 106.56922149658203128 -159.88406372070312496
v 46.78994369506835936 107.76904296875 -160.66375732421875
v 48.45687484741210936 106.806640625 -160.35888671875
v 49.13210296630859376 106.41679382324218752 -157.95925903320312496
v 48.86808776855468752 106.56922149658203128 -157.36093139648437504
v 47.36432647705078128 107.43742370605468752 -160.768798828125
v 45.50557708740234376 108.51057434082031248 -158.62249755859375
v 45.59654998779296872 108.45804595947265624 -159.285736083984375
v 47.9387130737304688 107.10579681396484376 -160.66375732421875
v 48.45687484741210936 106.806640625 -156.8861083984375
v 47.9387130737304688 107.10579681396484376 -156.58125305175781248
v 46.78994369506835936 107.76904296875 -156.58125305175781248
v 46.27178192138671876 108.068206787109375 -156.8861083984375
v 45.86056518554687504 108.30561828613281248 -157.36093139648437504
v 45.59654998779296872 108.45804595947265624 -157.95925903320312496
v 47.36432647705078128 107.43742370605468752 -156.4761962890625
v 46.08916854858398438 108.70156860351562496 -157.36093139648437504
v 45.82514953613281248 108.8539962768554688 -157.95925903320312496
v 46.50038146972656248 108.46414947509765624 -156.8861083984375
v 48.68547439575195312 107.20258331298828124 -156.8861083984375
v 48.1673126220703125 107.50174713134765624 -156.58125305175781248
v 49.09668731689453124 106.96517181396484368 -157.36093139648437504
v 49.36070251464843752 106.812744140625 -157.95925903320312496
v 49.45167922973632816 106.76021575927734368 -158.62249755859375
v 49.36070251464843752 106.812744140625 -159.285736083984375
v 49.09668731689453124 106.96517181396484368 -159.88406372070312496
v 47.01854324340820312 108.1649932861328125 -156.58125305175781248
v 48.68547439575195312 107.20258331298828124 -160.35888671875
v 47.01854324340820312 108.1649932861328125 -160.66375732421875
v 47.59292602539062496 107.8333663940429688 -160.768798828125
v 46.50038146972656248 108.46414947509765624 -160.35888671875
v 47.59292602539062496 107.8333663940429688 -156.4761962890625
v 46.08916854858398438 108.70156860351562496 -159.88406372070312496
v 48.1673126220703125 107.50174713134765624 -160.66375732421875
v 45.82514953613281248 108.8539962768554688 -159.285736083984375
v 45.73417663574218752 108.90651702880859376 -158.62249755859375
v 47.59292602539062496 107.8333663940429688 -137.0832977294921875
v 47.36432647705078128 107.43742370605468752 -137.0832977294921875
v 46.33111190795898436 108.0339508056640625 -136.89433288574218752
v 46.55971145629882816 108.42989349365234376 -136.89433288574218752
v 45.39903640747070312 108.57208251953125 -136.345947265625
v 45.62763595581054688 108.9680252075195312 -136.345947265625
v 44.65933609008789064 108.9991455078125 -135.4918212890625
v 44.887939453125 109.39509582519531248 -135.4918212890625
v 44.18442153930664064 109.27333831787109376 -134.41555786132812496
v 44.4130210876464844 109.66928863525390624 -134.41555786132812496
v 44.02077484130859375 109.36782073974609376 -133.222503662109375
v 44.24937820434570312 109.76377105712890624 -133.222503662109375
v 44.18442153930664064 109.27333831787109376 -132.029449462890625
v 44.4130210876464844 109.66928863525390624 -132.029449462890625
v 44.65933609008789064 108.9991455078125 -130.95318603515624992
v 44.887939453125 109.39509582519531248 -130.95318603515624992
v 45.39903640747070312 108.57208251953125 -130.0990447998046875
v 45.62763595581054688 108.9680252075195312 -130.0990447998046875
v 46.33111190795898436 108.0339508056640625 -129.5506591796875
v 46.55971145629882816 108.42989349365234376 -129.5506591796875
v 47.36432647705078128 107.43742370605468752 -129.3616943359375
v 47.59292602539062496 107.8333663940429688 -129.3616943359375
v 48.39754104614257816 106.84089660644531248 -129.5506591796875
v 48.62614059448242184 107.23683929443359376 -129.5506591796875
v 49.32961654663085936 106.30275726318359376 -130.0990447998046875
v 49.55821609497070312 106.69870758056640624 -130.0990447998046875
v 50.06931686401367188 105.87569427490234368 -130.95318603515624992
v 50.29791641235351564 106.27164459228515624 -130.95318603515624992
v 50.54423141479492184 105.60150146484375 -132.029449462890625
v 50.7728347778320312 105.99745178222656256 -132.029449462890625
v 50.70787811279296872 105.50701904296875 -133.222503662109375
v 50.93647766113281248 105.90296936035156256 -133.222503662109375
v 50.54423141479492184 105.60150146484375 -134.41555786132812496
v 50.7728347778320312 105.99745178222656256 -134.41555786132812496
v 50.06931686401367188 105.87569427490234368 -135.4918212890625
v 50.29791641235351564 106.27164459228515624 -135.4918212890625
v 49.32961654663085936 106.30275726318359376 -136.345947265625
v 49.55821609497070312 106.69870758056640624 -136.345947265625
v 48.39754104614257816 106.84089660644531248 -136.89433288574218752
v 48.62614059448242184 107.23683929443359376 -136.89433288574218752
v 49.13210296630859376 106.41679382324218752 -133.8857421875
v 49.22307586669921876 106.36427307128906248 -133.222503662109375
v 45.86056518554687504 108.30561828613281248 -134.48406982421875
v 46.27178192138671876 108.068206787109375 -134.95889282226562496
v 48.86808776855468752 106.56922149658203128 -134.48406982421875
v 46.78994369506835936 107.76904296875 -135.26374816894531248
v 48.45687484741210936 106.806640625 -134.95889282226562496
v 49.13210296630859376 106.41679382324218752 -132.55924987792968752
v 48.86808776855468752 106.56922149658203128 -131.9609375
v 47.36432647705078128 107.43742370605468752 -135.36880493164062496
v 45.50557708740234376 108.51057434082031248 -133.222503662109375
v 45.59654998779296872 108.45804595947265624 -133.8857421875
v 47.9387130737304688 107.10579681396484376 -135.26374816894531248
v 48.45687484741210936 106.806640625 -131.48609924316406248
v 47.9387130737304688 107.10579681396484376 -131.181243896484375
v 46.78994369506835936 107.76904296875 -131.181243896484375
v 46.27178192138671876 108.068206787109375 -131.48609924316406248
v 45.86056518554687504 108.30561828613281248 -131.9609375
v 45.59654998779296872 108.45804595947265624 -132.55924987792968752
v 47.36432647705078128 107.43742370605468752 -131.076202392578125
v 46.08916854858398438 108.70156860351562496 -131.9609375
v 45.82514953613281248 108.8539962768554688 -132.55924987792968752
v 46.50038146972656248 108.46414947509765624 -131.48609924316406248
v 48.68547439575195312 107.20258331298828124 -131.48609924316406248
v 48.1673126220703125 107.50174713134765624 -131.181243896484375
v 49.09668731689453124 106.96517181396484368 -131.9609375
v 49.36070251464843752 106.812744140625 -132.55924987792968752
v 49.45167922973632816 106.76021575927734368 -133.222503662109375
v 49.36070251464843752 106.812744140625 -133.8857421875
v 49.09668731689453124 106.96517181396484368 -134.48406982421875
v 47.01854324340820312 108.1649932861328125 -131.181243896484375
v 48.68547439575195312 107.20258331298828124 -134.95889282226562496
v 47.01854324340820312 108.1649932861328125 -135.26374816894531248
v 47.59292602539062496 107.8333663940429688 -135.36880493164062496
v 46.50038146972656248 108.46414947509765624 -134.95889282226562496
v 47.59292602539062496 107.8333663940429688 -131.076202392578125
v 46.08916854858398438 108.70156860351562496 -134.48406982421875
v 48.1673126220703125 107.50174713134765624 -135.26374816894531248
v 45.82514953613281248 108.8539962768554688 -133.8857421875
v 45.73417663574218752 108.90651702880859376 -133.222503662109375
v 69.58997344970703128 95.13336944580078124 -137.0832977294921875
v 69.36137390136718752 94.7374191284179688 -137.0832977294921875
v 68.328155517578125 95.33394622802734376 -136.89433288574218752
v 68.55675506591796872 95.72989654541015632 -136.89433288574218752
v 67.39608001708984376 95.87208557128906256 -136.345947265625
v 67.62467956542968752 96.26802825927734376 -136.345947265625
v 66.65637969970703128 96.29914855957031248 -135.4918212890625
v 66.88498687744140624 96.69509124755859376 -135.4918212890625
v 66.18146514892578124 96.57334136962890624 -134.41555786132812496
v 66.41006469726562496 96.96928405761718752 -134.41555786132812496
v 66.017822265625 96.66782379150390624 -133.222503662109375
v 66.24642181396484376 97.0637664794921875 -133.222503662109375
v 66.18146514892578124 96.57334136962890624 -132.029449462890625
v 66.41006469726562496 96.96928405761718752 -132.029449462890625
v 66.65637969970703128 96.29914855957031248 -130.95318603515624992
v 66.88498687744140624 96.69509124755859376 -130.95318603515624992
v 67.39608001708984376 95.87208557128906256 -130.0990447998046875
v 67.62467956542968752 96.26802825927734376 -130.0990447998046875
v 68.328155517578125 95.33394622802734376 -129.5506591796875
v 68.55675506591796872 95.72989654541015632 -129.5506591796875
v 69.36137390136718752 94.7374191284179688 -129.3616943359375
v 69.58997344970703128 95.13336944580078124 -129.3616943359375
v 70.39458465576171872 94.14089202880859376 -129.5506591796875
v 70.62318420410156248 94.53684234619140624 -129.5506591796875
v 71.32666015625 93.60276031494140624 -130.0990447998046875
v 71.55525970458984376 93.99871063232421872 -130.0990447998046875
v 72.0663604736328125 93.17569732666015624 -130.95318603515624992
v 72.29496002197265624 93.57164001464843752 -130.95318603515624992
v 72.54127502441406248 92.90150451660156256 -132.029449462890625
v 72.76988220214843744 93.29744720458984376 -132.029449462890625
v 72.70492553710937504 92.80702209472656256 -133.222503662109375
v 72.93352508544921872 93.20296478271484376 -133.222503662109375
v 72.54127502441406248 92.90150451660156256 -134.41555786132812496
v 72.76988220214843744 93.29744720458984376 -134.41555786132812496
v 72.0663604736328125 93.17569732666015624 -135.4918212890625
v 72.29496002197265624 93.57164001464843752 -135.4918212890625
v 71.32666015625 93.60276031494140624 -136.345947265625
v 71.55525970458984376 93.99871063232421872 -136.345947265625
v 70.39458465576171872 94.14089202880859376 -136.89433288574218752
v 70.62318420410156248 94.53684234619140624 -136.89433288574218752
v 71.129150390625 93.716796875 -133.8857421875
v 71.220123291015625 93.66426849365234376 -133.222503662109375
v 67.85761260986328128 95.60562133789062496 -134.48406982421875
v 68.268829345703125 95.36820220947265624 -134.95889282226562496
v 70.86513519287109376 93.86922454833984368 -134.48406982421875
v 68.7869873046875 95.0690460205078125 -135.26374816894531248
v 70.45391845703125 94.10663604736328124 -134.95889282226562496
v 71.129150390625 93.716796875 -132.55924987792968752
v 70.86513519287109376 93.86922454833984368 -131.9609375
v 69.36137390136718752 94.7374191284179688 -135.36880493164062496
v 67.50262451171875 95.81056976318359376 -133.222503662109375
v 67.59359741210937504 95.7580490112304688 -133.8857421875
v 69.93576049804687504 94.40579986572265624 -135.26374816894531248
v 70.45391845703125 94.10663604736328124 -131.48609924316406248
v 69.93576049804687504 94.40579986572265624 -131.181243896484375
v 68.7869873046875 95.0690460205078125 -131.181243896484375
v 68.268829345703125 95.36820220947265624 -131.48609924316406248
v 67.85761260986328128 95.60562133789062496 -131.9609375
v 67.59359741210937504 95.7580490112304688 -132.55924987792968752
v 69.36137390136718752 94.7374191284179688 -131.076202392578125
v 68.086212158203125 96.00156402587890625 -131.9609375
v 67.82219696044921872 96.15399169921875 -132.55924987792968752
v 68.49742889404296872 95.7641525268554688 -131.48609924316406248
v 70.68251800537109376 94.50258636474609376 -131.48609924316406248
v 70.16436004638671876 94.8017501831054688 -131.181243896484375
v 71.0937347412109375 94.26517486572265624 -131.9609375
v 71.35774993896484376 94.11273956298828124 -132.55924987792968752
v 71.44872283935546872 94.06021881103515625 -133.222503662109375
v 71.35774993896484376 94.11273956298828124 -133.8857421875
v 71.0937347412109375 94.26517486572265624 -134.48406982421875
v 69.01558685302734375 95.46498870849609376 -131.181243896484375
v 70.68251800537109376 94.50258636474609376 -134.95889282226562496
v 69.01558685302734375 95.46498870849609376 -135.26374816894531248
v 69.58997344970703128 95.13336944580078124 -135.36880493164062496
v 68.49742889404296872 95.7641525268554688 -134.95889282226562496
v 69.58997344970703128 95.13336944580078124 -131.076202392578125
v 68.086212158203125 96.00156402587890625 -134.48406982421875
v 70.16436004638671876 94.8017501831054688 -135.26374816894531248
v 67.82219696044921872 96.15399169921875 -133.8857421875
v 67.73122406005859376 96.20652008056640624 -133.222503662109375
v 69.58997344970703128 95.13336944580078124 -162.48330688476562496
v 69.36137390136718752 94.7374191284179688 -162.48330688476562496
v 68.328155517578125 95.33394622802734376 -162.294342041015625
v 68.55675506591796872 95.72989654541015632 -162.294342041015625
v 67.39608001708984376 95.87208557128906256 -161.74595642089843744
v 67.62467956542968752 96.26802825927734376 -161.74595642089843744
v 66.65637969970703128 96.29914855957031248 -160.89181518554687504
v 66.88498687744140624 96.69509124755859376 -160.89181518554687504
v 66.18146514892578124 96.57334136962890624 -159.8155517578125
v 66.41006469726562496 96.96928405761718752 -159.8155517578125
v 66.017822265625 96.66782379150390624 -158.62249755859375
v 66.24642181396484376 97.0637664794921875 -158.62249755859375
v 66.18146514892578124 96.57334136962890624 -157.429443359375
v 66.41006469726562496 96.96928405761718752 -157.429443359375
v 66.65637969970703128 96.29914855957031248 -156.353179931640625
v 66.88498687744140624 96.69509124755859376 -156.353179931640625
v 67.39608001708984376 95.87208557128906256 -155.49905395507812496
v 67.62467956542968752 96.26802825927734376 -155.49905395507812496
v 68.328155517578125 95.33394622802734376 -154.95066833496093744
v 68.55675506591796872 95.72989654541015632 -154.95066833496093744
v 69.36137390136718752 94.7374191284179688 -154.76170349121093744
v 69.58997344970703128 95.13336944580078124 -154.76170349121093744
v 70.39458465576171872 94.14089202880859376 -154.95066833496093744
v 70.62318420410156248 94.53684234619140624 -154.95066833496093744
v 71.32666015625 93.60276031494140624 -155.49905395507812496
v 71.55525970458984376 93.99871063232421872 -155.49905395507812496
v 72.0663604736328125 93.17569732666015624 -156.353179931640625
v 72.29496002197265624 93.57164001464843752 -156.353179931640625
v 72.54127502441406248 92.90150451660156256 -157.429443359375
v 72.76988220214843744 93.29744720458984376 -157.429443359375
v 72.70492553710937504 92.80702209472656256 -158.62249755859375
v 72.93352508544921872 93.20296478271484376 -158.62249755859375
v 72.54127502441406248 92.90150451660156256 -159.8155517578125
v 72.76988220214843744 93.29744720458984376 -159.8155517578125
v 72.0663604736328125 93.17569732666015624 -160.89181518554687504
v 72.29496002197265624 93.57164001464843752 -160.89181518554687504
v 71.32666015625 93.60276031494140624 -161.74595642089843744
v 71.55525970458984376 93.99871063232421872 -161.74595642089843744
v 70.39458465576171872 94.14089202880859376 -162.294342041015625
v 70.62318420410156248 94.53684234619140624 -162.294342041015625
v 71.129150390625 93.716796875 -159.285736083984375
v 71.220123291015625 93.66426849365234376 -158.62249755859375
v 67.85761260986328128 95.60562133789062496 -159.88406372070312496
v 68.268829345703125 95.36820220947265624 -160.35888671875
v 70.86513519287109376 93.86922454833984368 -159.88406372070312496
v 68.7869873046875 95.0690460205078125 -160.66375732421875
v 70.45391845703125 94.10663604736328124 -160.35888671875
v 71.129150390625 93.716796875 -157.95925903320312496
v 70.86513519287109376 93.86922454833984368 -157.36093139648437504
v 69.36137390136718752 94.7374191284179688 -160.768798828125
v 67.50262451171875 95.81056976318359376 -158.62249755859375
v 67.59359741210937504 95.7580490112304688 -159.285736083984375
v 69.93576049804687504 94.40579986572265624 -160.66375732421875
v 70.45391845703125 94.10663604736328124 -156.8861083984375
v 69.93576049804687504 94.40579986572265624 -156.58125305175781248
v 68.7869873046875 95.0690460205078125 -156.58125305175781248
v 68.268829345703125 95.36820220947265624 -156.8861083984375
v 67.85761260986328128 95.60562133789062496 -157.36093139648437504
v 67.59359741210937504 95.7580490112304688 -157.95925903320312496
v 69.36137390136718752 94.7374191284179688 -156.4761962890625
v 68.086212158203125 96.00156402587890625 -157.36093139648437504
v 67.82219696044921872 96.15399169921875 -157.95925903320312496
v 68.49742889404296872 95.7641525268554688 -156.8861083984375
v 70.68251800537109376 94.50258636474609376 -156.8861083984375
v 70.16436004638671876 94.8017501831054688 -156.58125305175781248
v 71.0937347412109375 94.26517486572265624 -157.36093139648437504
v 71.35774993896484376 94.11273956298828124 -157.95925903320312496
v 71.44872283935546872 94.06021881103515625 -158.62249755859375
v 71.35774993896484376 94.11273956298828124 -159.285736083984375
v 71.0937347412109375 94.26517486572265624 -159.88406372070312496
v 69.01558685302734375 95.46498870849609376 -156.58125305175781248
v 70.68251800537109376 94.50258636474609376 -160.35888671875
v 69.01558685302734375 95.46498870849609376 -160.66375732421875
v 69.58997344970703128 95.13336944580078124 -160.768798828125
v 68.49742889404296872 95.7641525268554688 -160.35888671875
v 69.58997344970703128 95.13336944580078124 -156.4761962890625
v 68.086212158203125 96.00156402587890625 -159.88406372070312496
v 70.16436004638671876 94.8017501831054688 -160.66375732421875
v 67.82219696044921872 96.15399169921875 -159.285736083984375
v 67.73122406005859376 96.20652008056640624 -158.62249755859375
# 320 vertices

vn -0.13547621667385102 0.07821723073720932 -0.9876883625984192
vn -0.39316731691360472 0.22699524462223052 -0.8910065293312072
vn -0.6123724579811096 0.3535533845424652 -0.7071067690849304
vn -0.77163428068161008 0.4455032646656036 -0.45399048924446104
vn -0.85536319017410272 0.4938441812992096 -0.15643446147441864
vn -0.85536319017410272 0.4938441812992096 0.15643446147441864
vn -0.77163428068161008 0.4455032646656036 0.45399048924446104
vn -0.6123724579811096 0.3535533845424652 0.7071067690849304
vn -0.39316731691360472 0.22699524462223052 0.8910065293312072
vn -0.13547621667385102 0.07821723073720932 0.9876883625984192
vn 0.13547621667385102 -0.07821723073720932 0.9876883625984192
vn 0.39316731691360472 -0.22699524462223052 0.8910065293312072
vn 0.6123724579811096 -0.3535533845424652 0.7071067690849304
vn 0.77163428068161008 -0.4455032646656036 0.45399048924446104
vn 0.85536319017410272 -0.4938441812992096 0.15643446147441864
vn 0.85536319017410272 -0.4938441812992096 -0.15643446147441864
vn 0.77163428068161008 -0.4455032646656036 -0.45399048924446104
vn 0.6123724579811096 -0.3535533845424652 -0.7071067690849304
vn 0.39316731691360472 -0.22699524462223052 -0.8910065293312072
vn 0.13547621667385102 -0.07821723073720932 -0.9876883625984192
vn -0.5 -0.86602538824081424 0
vn 0.5 0.86602538824081424 0
# 22 vertex normals

g obj_29666475
s 1
f 1//1 2//1 3//1
f 4//2 3//2 5//2
f 6//3 5//3 7//3
f 8//4 7//4 9//4
f 10//5 9//5 11//5
f 12//6 11//6 13//6
f 14//7 13//7 15//7
f 16//8 15//8 17//8
f 18//9 17//9 19//9
f 20//10 19//10 21//10
f 22//11 21//11 23//11
f 24//12 23//12 25//12
f 26//13 25//13 27//13
f 28//14 27//14 29//14
f 30//15 29//15 31//15
f 32//16 31//16 33//16
f 34//17 33//17 35//17
f 36//18 35//18 37//18
f 38//19 37//19 39//19
f 40//20 39//20 2//20
f 2//20 1//20 40//20
f 39//19 40//19 38//19
f 37//18 38//18 36//18
f 35//17 36//17 34//17
f 33//16 34//16 32//16
f 31//15 32//15 30//15
f 29//14 30//14 28//14
f 27//13 28//13 26//13
f 25//12 26//12 24//12
f 23//11 24//11 22//11
f 21//10 22//10 20//10
f 19//9 20//9 18//9
f 17//8 18//8 16//8
f 15//7 16//7 14//7
f 13//6 14//6 12//6
f 11//5 12//5 10//5
f 9//4 10//4 8//4
f 7//3 8//3 6//3
f 5//2 6//2 4//2
f 3//1 4//1 1//1
f 35//21 33//21 41//21
f 33//21 31//21 42//21
f 9//21 7//21 43//21
f 7//21 5//21 44//21
f 37//21 35//21 45//21
f 42//21 41//21 33//21
f 44//21 43//21 7//21
f 5//21 3//21 46//21
f 39//21 37//21 47//21
f 41//21 45//21 35//21
f 31//21 29//21 48//21
f 29//21 27//21 49//21
f 46//21 44//21 5//21
f 3//21 2//21 50//21
f 45//21 47//21 37//21
f 49//21 48//21 29//21
f 13//21 11//21 51//21
f 11//21 9//21 52//21
f 50//21 46//21 3//21
f 2//21 39//21 53//21
f 48//21 42//21 31//21
f 27//21 25//21 54//21
f 52//21 51//21 11//21
f 53//21 50//21 2//21
f 54//21 49//21 27//21
f 25//21 23//21 55//21
f 21//21 19//21 56//21
f 19//21 17//21 57//21
f 17//21 15//21 58//21
f 15//21 13//21 59//21
f 43//21 52//21 9//21
f 55//21 54//21 25//21
f 57//21 56//21 19//21
f 59//21 58//21 15//21
f 47//21 53//21 39//21
f 23//21 21//21 60//21
f 58//21 57//21 17//21
f 60//21 55//21 23//21
f 51//21 59//21 13//21
f 56//21 60//21 21//21
f 16//22 61//22 62//22
f 18//22 63//22 61//22
f 26//22 64//22 65//22
f 28//22 66//22 64//22
f 30//22 67//22 66//22
f 32//22 68//22 67//22
f 34//22 69//22 68//22
f 36//22 70//22 69//22
f 61//22 16//22 18//22
f 20//22 71//22 63//22
f 64//22 26//22 28//22
f 67//22 30//22 32//22
f 69//22 34//22 36//22
f 38//22 72//22 70//22
f 4//22 73//22 74//22
f 6//22 75//22 73//22
f 63//22 18//22 20//22
f 22//22 76//22 71//22
f 66//22 28//22 30//22
f 70//22 36//22 38//22
f 73//22 4//22 6//22
f 8//22 77//22 75//22
f 71//22 20//22 22//22
f 24//22 65//22 76//22
f 68//22 32//22 34//22
f 40//22 78//22 72//22
f 75//22 6//22 8//22
f 10//22 79//22 77//22
f 12//22 80//22 79//22
f 14//22 62//22 80//22
f 76//22 22//22 24//22
f 72//22 38//22 40//22
f 77//22 8//22 10//22
f 80//22 12//22 14//22
f 65//22 24//22 26//22
f 1//22 74//22 78//22
f 79//22 10//22 12//22
f 78//22 40//22 1//22
f 62//22 14//22 16//22
f 74//22 1//22 4//22
f 55//1 60//1 76//1
f 54//2 55//2 65//2
f 49//3 54//3 64//3
f 48//4 49//4 66//4
f 42//5 48//5 67//5
f 41//6 42//6 68//6
f 45//7 41//7 69//7
f 47//8 45//8 70//8
f 53//9 47//9 72//9
f 50//10 53//10 78//10
f 46//11 50//11 74//11
f 44//12 46//12 73//12
f 43//13 44//13 75//13
f 52//14 43//14 77//14
f 51//15 52//15 79//15
f 59//16 51//16 80//16
f 58//17 59//17 62//17
f 57//18 58//18 61//18
f 56//19 57//19 63//19
f 60//20 56//20 71//20
f 71//20 76//20 60//20
f 63//19 71//19 56//19
f 61//18 63//18 57//18
f 62//17 61//17 58//17
f 80//16 62//16 59//16
f 79//15 80//15 51//15
f 77//14 79//14 52//14
f 75//13 77//13 43//13
f 73//12 75//12 44//12
f 74//11 73//11 46//11
f 78//10 74//10 50//10
f 72//9 78//9 53//9
f 70//8 72//8 47//8
f 69//7 70//7 45//7
f 68//6 69//6 41//6
f 67//5 68//5 42//5
f 66//4 67//4 48//4
f 64//3 66//3 49//3
f 65//2 64//2 54//2
f 76//1 65//1 55//1
f 81//1 82//1 83//1
f 84//2 83//2 85//2
f 86//3 85//3 87//3
f 88//4 87//4 89//4
f 90//5 89//5 91//5
f 92//6 91//6 93//6
f 94//7 93//7 95//7
f 96//8 95//8 97//8
f 98//9 97//9 99//9
f 100//10 99//10 101//10
f 102//11 101//11 103//11
f 104//12 103//12 105//12
f 106//13 105//13 107//13
f 108//14 107//14 109//14
f 110//15 109//15 111//15
f 112//16 111//16 113//16
f 114//17 113//17 115//17
f 116//18 115//18 117//18
f 118//19 117//19 119//19
f 120//20 119//20 82//20
f 82//20 81//20 120//20
f 119//19 120//19 118//19
f 117//18 118//18 116//18
f 115//17 116//17 114//17
f 113//16 114//16 112//16
f 111//15 112//15 110//15
f 109//14 110//14 108//14
f 107//13 108//13 106//13
f 105//12 106//12 104//12
f 103//11 104//11 102//11
f 101//10 102//10 100//10
f 99//9 100//9 98//9
f 97//8 98//8 96//8
f 95//7 96//7 94//7
f 93//6 94//6 92//6
f 91//5 92//5 90//5
f 89//4 90//4 88//4
f 87//3 88//3 86//3
f 85//2 86//2 84//2
f 83//1 84//1 81//1
f 115//21 113//21 121//21
f 113//21 111//21 122//21
f 89//21 87//21 123//21
f 87//21 85//21 124//21
f 117//21 115//21 125//21
f 122//21 121//21 113//21
f 124//21 123//21 87//21
f 85//21 83//21 126//21
f 119//21 117//21 127//21
f 121//21 125//21 115//21
f 111//21 109//21 128//21
f 109//21 107//21 129//21
f 126//21 124//21 85//21
f 83//21 82//21 130//21
f 125//21 127//21 117//21
f 129//21 128//21 109//21
f 93//21 91//21 131//21
f 91//21 89//21 132//21
f 130//21 126//21 83//21
f 82//21 119//21 133//21
f 128//21 122//21 111//21
f 107//21 105//21 134//21
f 132//21 131//21 91//21
f 133//21 130//21 82//21
f 134//21 129//21 107//21
f 105//21 103//21 135//21
f 101//21 99//21 136//21
f 99//21 97//21 137//21
f 97//21 95//21 138//21
f 95//21 93//21 139//21
f 123//21 132//21 89//21
f 135//21 134//21 105//21
f 137//21 136//21 99//21
f 139//21 138//21 95//21
f 127//21 133//21 119//21
f 103//21 101//21 140//21
f 138//21 137//21 97//21
f 140//21 135//21 103//21
f 131//21 139//21 93//21
f 136//21 140//21 101//21
f 96//22 141//22 142//22
f 98//22 143//22 141//22
f 106//22 144//22 145//22
f 108//22 146//22 144//22
f 110//22 147//22 146//22
f 112//22 148//22 147//22
f 114//22 149//22 148//22
f 116//22 150//22 149//22
f 141//22 96//22 98//22
f 100//22 151//22 143//22
f 144//22 106//22 108//22
f 147//22 110//22 112//22
f 149//22 114//22 116//22
f 118//22 152//22 150//22
f 84//22 153//22 154//22
f 86//22 155//22 153//22
f 143//22 98//22 100//22
f 102//22 156//22 151//22
f 146//22 108//22 110//22
f 150//22 116//22 118//22
f 153//22 84//22 86//22
f 88//22 157//22 155//22
f 151//22 100//22 102//22
f 104//22 145//22 156//22
f 148//22 112//22 114//22
f 120//22 158//22 152//22
f 155//22 86//22 88//22
f 90//22 159//22 157//22
f 92//22 160//22 159//22
f 94//22 142//22 160//22
f 156//22 102//22 104//22
f 152//22 118//22 120//22
f 157//22 88//22 90//22
f 160//22 92//22 94//22
f 145//22 104//22 106//22
f 81//22 154//22 158//22
f 159//22 90//22 92//22
f 158//22 120//22 81//22
f 142//22 94//22 96//22
f 154//22 81//22 84//22
f 135//1 140//1 156//1
f 134//2 135//2 145//2
f 129//3 134//3 144//3
f 128//4 129//4 146//4
f 122//5 128//5 147//5
f 121//6 122//6 148//6
f 125//7 121//7 149//7
f 127//8 125//8 150//8
f 133//9 127//9 152//9
f 130//10 133//10 158//10
f 126//11 130//11 154//11
f 124//12 126//12 153//12
f 123//13 124//13 155//13
f 132//14 123//14 157//14
f 131//15 132//15 159//15
f 139//16 131//16 160//16
f 138//17 139//17 142//17
f 137//18 138//18 141//18
f 136//19 137//19 143//19
f 140//20 136//20 151//20
f 151//20 156//20 140//20
f 143//19 151//19 136//19
f 141//18 143//18 137//18
f 142//17 141//17 138//17
f 160//16 142//16 139//16
f 159//15 160//15 131//15
f 157//14 159//14 132//14
f 155//13 157//13 123//13
f 153//12 155//12 124//12
f 154//11 153//11 126//11
f 158//10 154//10 130//10
f 152//9 158//9 133//9
f 150//8 152//8 127//8
f 149//7 150//7 125//7
f 148//6 149//6 121//6
f 147//5 148//5 122//5
f 146//4 147//4 128//4
f 144//3 146//3 129//3
f 145//2 144//2 134//2
f 156//1 145//1 135//1
f 161//1 162//1 163//1
f 164//2 163//2 165//2
f 166//3 165//3 167//3
f 168//4 167//4 169//4
f 170//5 169//5 171//5
f 172//6 171//6 173//6
f 174//7 173//7 175//7
f 176//8 175//8 177//8
f 178//9 177//9 179//9
f 180//10 179//10 181//10
f 182//11 181//11 183//11
f 184//12 183//12 185//12
f 186//13 185//13 187//13
f 188//14 187//14 189//14
f 190//15 189//15 191//15
f 192//16 191//16 193//16
f 194//17 193//17 195//17
f 196//18 195//18 197//18
f 198//19 197//19 199//19
f 200//20 199//20 162//20
f 162//20 161//20 200//20
f 199//19 200//19 198//19
f 197//18 198//18 196//18
f 195//17 196//17 194//17
f 193//16 194//16 192//16
f 191//15 192//15 190//15
f 189//14 190//14 188//14
f 187//13 188//13 186//13
f 185//12 186//12 184//12
f 183//11 184//11 182//11
f 181//10 182//10 180//10
f 179//9 180//9 178//9
f 177//8 178//8 176//8
f 175//7 176//7 174//7
f 173//6 174//6 172//6
f 171//5 172//5 170//5
f 169//4 170//4 168//4
f 167//3 168//3 166//3
f 165//2 166//2 164//2
f 163//1 164//1 161//1
f 195//21 193//21 201//21
f 193//21 191//21 202//21
f 169//21 167//21 203//21
f 167//21 165//21 204//21
f 197//21 195//21 205//21
f 202//21 201//21 193//21
f 204//21 203//21 167//21
f 165//21 163//21 206//21
f 199//21 197//21 207//21
f 201//21 205//21 195//21
f 191//21 189//21 208//21
f 189//21 187//21 209//21
f 206//21 204//21 165//21
f 163//21 162//21 210//21
f 205//21 207//21 197//21
f 209//21 208//21 189//21
f 173//21 171//21 211//21
f 171//21 169//21 212//21
f 210//21 206//21 163//21
f 162//21 199//21 213//21
f 208//21 202//21 191//21
f 187//21 185//21 214//21
f 212//21 211//21 171//21
f 213//21 210//21 162//21
f 214//21 209//21 187//21
f 185//21 183//21 215//21
f 181//21 179//21 216//21
f 179//21 177//21 217//21
f 177//21 175//21 218//21
f 175//21 173//21 219//21
f 203//21 212//21 169//21
f 215//21 214//21 185//21
f 217//21 216//21 179//21
f 219//21 218//21 175//21
f 207//21 213//21 199//21
f 183//21 181//21 220//21
f 218//21 217//21 177//21
f 220//21 215//21 183//21
f 211//21 219//21 173//21
f 216//21 220//21 181//21
f 176//22 221//22 222//22
f 178//22 223//22 221//22
f 186//22 224//22 225//22
f 188//22 226//22 224//22
f 190//22 227//22 226//22
f 192//22 228//22 227//22
f 194//22 229//22 228//22
f 196//22 230//22 229//22
f 221//22 176//22 178//22
f 180//22 231//22 223//22
f 224//22 186//22 188//22
f 227//22 190//22 192//22
f 229//22 194//22 196//22
f 198//22 232//22 230//22
f 164//22 233//22 234//22
f 166//22 235//22 233//22
f 223//22 178//22 180//22
f 182//22 236//22 231//22
f 226//22 188//22 190//22
f 230//22 196//22 198//22
f 233//22 164//22 166//22
f 168//22 237//22 235//22
f 231//22 180//22 182//22
f 184//22 225//22 236//22
f 228//22 192//22 194//22
f 200//22 238//22 232//22
f 235//22 166//22 168//22
f 170//22 239//22 237//22
f 172//22 240//22 239//22
f 174//22 222//22 240//22
f 236//22 182//22 184//22
f 232//22 198//22 200//22
f 237//22 168//22 170//22
f 240//22 172//22 174//22
f 225//22 184//22 186//22
f 161//22 234//22 238//22
f 239//22 170//22 172//22
f 238//22 200//22 161//22
f 222//22 174//22 176//22
f 234//22 161//22 164//22
f 215//1 220//1 236//1
f 214//2 215//2 225//2
f 209//3 214//3 224//3
f 208//4 209//4 226//4
f 202//5 208//5 227//5
f 201//6 202//6 228//6
f 205//7 201//7 229//7
f 207//8 205//8 230//8
f 213//9 207//9 232//9
f 210//10 213//10 238//10
f 206//11 210//11 234//11
f 204//12 206//12 233//12
f 203//13 204//13 235//13
f 212//14 203//14 237//14
f 211//15 212//15 239//15
f 219//16 211//16 240//16
f 218//17 219//17 222//17
f 217//18 218//18 221//18
f 216//19 217//19 223//19
f 220//20 216//20 231//20
f 231//20 236//20 220//20
f 223//19 231//19 216//19
f 221//18 223//18 217//18
f 222//17 221//17 218//17
f 240//16 222//16 219//16
f 239//15 240//15 211//15
f 237//14 239//14 212//14
f 235//13 237//13 203//13
f 233//12 235//12 204//12
f 234//11 233//11 206//11
f 238//10 234//10 210//10
f 232//9 238//9 213//9
f 230//8 232//8 207//8
f 229//7 230//7 205//7
f 228//6 229//6 201//6
f 227//5 228//5 202//5
f 226//4 227//4 208//4
f 224//3 226//3 209//3
f 225//2 224//2 214//2
f 236//1 225//1 215//1
f 241//1 242//1 243//1
f 244//2 243//2 245//2
f 246//3 245//3 247//3
f 248//4 247//4 249//4
f 250//5 249//5 251//5
f 252//6 251//6 253//6
f 254//7 253//7 255//7
f 256//8 255//8 257//8
f 258//9 257//9 259//9
f 260//10 259//10 261//10
f 262//11 261//11 263//11
f 264//12 263//12 265//12
f 266//13 265//13 267//13
f 268//14 267//14 269//14
f 270//15 269//15 271//15
f 272//16 271//16 273//16
f 274//17 273//17 275//17
f 276//18 275//18 277//18
f 278//19 277//19 279//19
f 280//20 279//20 242//20
f 242//20 241//20 280//20
f 279//19 280//19 278//19
f 277//18 278//18 276//18
f 275//17 276//17 274//17
f 273//16 274//16 272//16
f 271//15 272//15 270//15
f 269//14 270//14 268//14
f 267//13 268//13 266//13
f 265//12 266//12 264//12
f 263//11 264//11 262//11
f 261//10 262//10 260//10
f 259//9 260//9 258//9
f 257//8 258//8 256//8
f 255//7 256//7 254//7
f 253//6 254//6 252//6
f 251//5 252//5 250//5
f 249//4 250//4 248//4
f 247//3 248//3 246//3
f 245//2 246//2 244//2
f 243//1 244//1 241//1
f 275//21 273//21 281//21
f 273//21 271//21 282//21
f 249//21 247//21 283//21
f 247//21 245//21 284//21
f 277//21 275//21 285//21
f 282//21 281//21 273//21
f 284//21 283//21 247//21
f 245//21 243//21 286//21
f 279//21 277//21 287//21
f 281//21 285//21 275//21
f 271//21 269//21 288//21
f 269//21 267//21 289//21
f 286//21 284//21 245//21
f 243//21 242//21 290//21
f 285//21 287//21 277//21
f 289//21 288//21 269//21
f 253//21 251//21 291//21
f 251//21 249//21 292//21
f 290//21 286//21 243//21
f 242//21 279//21 293//21
f 288//21 282//21 271//21
f 267//21 265//21 294//21
f 292//21 291//21 251//21
f 293//21 290//21 242//21
f 294//21 289//21 267//21
f 265//21 263//21 295//21
f 261//21 259//21 296//21
f 259//21 257//21 297//21
f 257//21 255//21 298//21
f 255//21 253//21 299//21
f 283//21 292//21 249//21
f 295//21 294//21 265//21
f 297//21 296//21 259//21
f 299//21 298//21 255//21
f 287//21 293//21 279//21
f 263//21 261//21 300//21
f 298//21 297//21 257//21
f 300//21 295//21 263//21
f 291//21 299//21 253//21
f 296//21 300//21 261//21
f 256//22 301//22 302//22
f 258//22 303//22 301//22
f 266//22 304//22 305//22
f 268//22 306//22 304//22
f 270//22 307//22 306//22
f 272//22 308//22 307//22
f 274//22 309//22 308//22
f 276//22 310//22 309//22
f 301//22 256//22 258//22
f 260//22 311//22 303//22
f 304//22 266//22 268//22
f 307//22 270//22 272//22
f 309//22 274//22 276//22
f 278//22 312//22 310//22
f 244//22 313//22 314//22
f 246//22 315//22 313//22
f 303//22 258//22 260//22
f 262//22 316//22 311//22
f 306//22 268//22 270//22
f 310//22 276//22 278//22
f 313//22 244//22 246//22
f 248//22 317//22 315//22
f 311//22 260//22 262//22
f 264//22 305//22 316//22
f 308//22 272//22 274//22
f 280//22 318//22 312//22
f 315//22 246//22 248//22
f 250//22 319//22 317//22
f 252//22 320//22 319//22
f 254//22 302//22 320//22
f 316//22 262//22 264//22
f 312//22 278//22 280//22
f 317//22 248//22 250//22
f 320//22 252//22 254//22
f 305//22 264//22 266//22
f 241//22 314//22 318//22
f 319//22 250//22 252//22
f 318//22 280//22 241//22
f 302//22 254//22 256//22
f 314//22 241//22 244//22
f 295//1 300//1 316//1
f 294//2 295//2 305//2
f 289//3 294//3 304//3
f 288//4 289//4 306//4
f 282//5 288//5 307//5
f 281//6 282//6 308//6
f 285//7 281//7 309//7
f 287//8 285//8 310//8
f 293//9 287//9 312//9
f 290//10 293//10 318//10
f 286//11 290//11 314//11
f 284//12 286//12 313//12
f 283//13 284//13 315//13
f 292//14 283//14 317//14
f 291//15 292//15 319//15
f 299//16 291//16 320//16
f 298//17 299//17 302//17
f 297//18 298//18 301//18
f 296//19 297//19 303//19
f 300//20 296//20 311//20
f 311//20 316//20 300//20
f 303//19 311//19 296//19
f 301//18 303//18 297//18
f 302//17 301//17 298//17
f 320//16 302//16 299//16
f 319//15 320//15 291//15
f 317//14 319//14 292//14
f 315//13 317//13 283//13
f 313//12 315//12 284//12
f 314//11 313//11 286//11
f 318//10 314//10 290//10
f 312//9 318//9 293//9
f 310//8 312//8 287//8
f 309//7 310//7 285//7
f 308//6 309//6 281//6
f 307//5 308//5 282//5
f 306//4 307//4 288//4
f 304//3 306//3 289//3
f 305//2 304//2 294//2
f 316//1 305//1 295//1
#640 polygons

