# Aspose.3D Wavefront OBJ Exporter
# Copyright 2004-2023 Aspose Pty Ltd.
# File created: 06/29/2023 05:42:41


#
# object obj_26813314
#

v 55.50362014770507816 93.9105148315429688 -156.1225128173828125
v 55.59620666503906248 93.8570556640625 -155.44749450683593752
v 57.83120727539062496 97.72818756103515632 -155.44749450683593752
v 55.23491668701171876 94.06565093994140625 -156.73146057128906256
v 57.73862075805664064 97.78164672851562496 -156.1225128173828125
v 54.8164024353027344 94.307281494140625 -157.2147216796875
v 57.46991729736328128 97.93678283691406256 -156.73146057128906256
v 54.28904342651367188 94.61174774169921872 -157.52499389648437504
v 57.05140304565429688 98.17841339111328124 -157.2147216796875
v 53.7044639587402344 94.94925689697265632 -157.63189697265625
v 56.5240440368652344 98.48287963867187504 -157.52499389648437504
v 53.11988067626953124 95.28676605224609376 -157.52499389648437504
v 55.9394607543945312 98.82038879394531248 -157.63189697265625
v 52.59252166748046872 95.59123992919921872 -157.2147216796875
v 55.35488128662109376 99.15789794921875 -157.52499389648437504
v 52.17400741577148438 95.83286285400390624 -156.73146057128906256
v 54.8275222778320312 99.46237182617187504 -157.2147216796875
v 51.90530395507812496 95.98799896240234368 -156.1225128173828125
v 54.40900802612304688 99.70400238037109376 -156.73146057128906256
v 51.81271743774414064 96.0414581298828125 -155.44749450683593752
v 54.1403045654296875 99.8591384887695312 -156.1225128173828125
v 51.90530395507812496 95.98799896240234368 -154.77247619628906256
v 54.04771804809570312 99.9125900268554688 -155.44749450683593752
v 52.17400741577148438 95.83286285400390624 -154.163543701171875
v 54.1403045654296875 99.8591384887695312 -154.77247619628906256
v 52.59252166748046872 95.59123992919921872 -153.68028259277343752
v 54.40900802612304688 99.70400238037109376 -154.163543701171875
v 53.11988067626953124 95.28676605224609376 -153.37001037597656248
v 54.8275222778320312 99.46237182617187504 -153.68028259277343752
v 53.7044639587402344 94.94925689697265632 -153.26310729980468752
v 55.35488128662109376 99.15789794921875 -153.37001037597656248
v 54.28904342651367188 94.61174774169921872 -153.37001037597656248
v 55.9394607543945312 98.82038879394531248 -153.26310729980468752
v 54.8164024353027344 94.307281494140625 -153.68028259277343752
v 56.5240440368652344 98.48287963867187504 -153.37001037597656248
v 55.23491668701171876 94.06565093994140625 -154.163543701171875
v 57.05140304565429688 98.17841339111328124 -153.68028259277343752
v 55.50362014770507816 93.9105148315429688 -154.77247619628906256
v 57.46991729736328128 97.93678283691406256 -154.163543701171875
v 57.73862075805664064 97.78164672851562496 -154.77247619628906256
v 51.81271743774414064 96.0414581298828125 -206.24749755859375
v 52.17400741577148438 95.83286285400390624 -255.76353454589843744
v 51.90530395507812496 95.98799896240234368 -206.92251586914062496
v 50.79964065551757808 96.62635803222656248 -149.097503662109375
v 52.17400741577148438 95.83286285400390624 -207.53146362304687504
v 54.28904342651367188 94.61174774169921872 -204.170013427734375
v 56.60200881958007816 93.27635955810546876 -149.097503662109375
v 53.11988067626953124 95.28676605224609376 -204.170013427734375
v 53.7044639587402344 94.94925689697265632 -204.0630950927734375
v 53.11988067626953124 95.28676605224609376 -208.324981689453125
v 52.59252166748046872 95.59123992919921872 -208.01470947265625
v 55.23491668701171876 94.06565093994140625 -204.96354675292968752
v 55.50362014770507816 93.9105148315429688 -205.57247924804687504
v 54.8164024353027344 94.307281494140625 -204.48028564453125
v 54.28904342651367188 94.61174774169921872 -208.324981689453125
v 54.28904342651367188 94.61174774169921872 -254.97001647949218752
v 54.8164024353027344 94.307281494140625 -255.28028869628906248
v 53.7044639587402344 94.94925689697265632 -208.43190002441406248
v 53.7044639587402344 94.94925689697265632 -254.86309814453124992
v 53.11988067626953124 95.28676605224609376 -254.97001647949218752
v 52.59252166748046872 95.59123992919921872 -255.28028869628906248
v 55.23491668701171876 94.06565093994140625 -255.76353454589843744
v 55.59620666503906248 93.8570556640625 -206.24749755859375
v 55.23491668701171876 94.06565093994140625 -306.56353759765625
v 55.59620666503906248 93.8570556640625 -257.0474853515625
v 52.17400741577148438 95.83286285400390624 -204.96354675292968752
v 52.59252166748046872 95.59123992919921872 -204.48028564453125
v 51.90530395507812496 95.98799896240234368 -205.57247924804687504
v 55.23491668701171876 94.06565093994140625 -207.53146362304687504
v 54.8164024353027344 94.307281494140625 -208.01470947265625
v 55.50362014770507816 93.9105148315429688 -206.92251586914062496
v 55.50362014770507816 93.9105148315429688 -256.37249755859375
v 54.8164024353027344 94.307281494140625 -306.080291748046875
v 50.79964065551757808 96.62635803222656248 -314.197509765625
v 51.81271743774414064 96.0414581298828125 -257.0474853515625
v 53.11988067626953124 95.28676605224609376 -259.125
v 51.81271743774414064 96.0414581298828125 -307.84750366210937504
v 51.90530395507812496 95.98799896240234368 -256.37249755859375
v 52.17400741577148438 95.83286285400390624 -258.331451416015625
v 51.90530395507812496 95.98799896240234368 -257.72250366210937504
v 51.90530395507812496 95.98799896240234368 -308.52252197265625
v 54.28904342651367188 94.61174774169921872 -305.77001953125
v 52.59252166748046872 95.59123992919921872 -258.81472778320312496
v 54.28904342651367188 94.61174774169921872 -259.125
v 53.7044639587402344 94.94925689697265632 -259.231903076171875
v 55.50362014770507816 93.9105148315429688 -257.72250366210937504
v 55.50362014770507816 93.9105148315429688 -307.1724853515625
v 52.17400741577148438 95.83286285400390624 -309.1314697265625
v 53.11988067626953124 95.28676605224609376 -309.92498779296875008
v 52.59252166748046872 95.59123992919921872 -309.61471557617187504
v 55.23491668701171876 94.06565093994140625 -258.331451416015625
v 54.8164024353027344 94.307281494140625 -258.81472778320312496
v 56.60200881958007816 93.27635955810546876 -314.197509765625
v 55.59620666503906248 93.8570556640625 -307.84750366210937504
v 53.7044639587402344 94.94925689697265632 -310.031890869140625
v 54.28904342651367188 94.61174774169921872 -309.92498779296875008
v 53.11988067626953124 95.28676605224609376 -305.77001953125
v 53.7044639587402344 94.94925689697265632 -305.6630859375
v 52.17400741577148438 95.83286285400390624 -306.56353759765625
v 52.59252166748046872 95.59123992919921872 -306.080291748046875
v 51.90530395507812496 95.98799896240234368 -307.1724853515625
v 55.23491668701171876 94.06565093994140625 -309.1314697265625
v 54.8164024353027344 94.307281494140625 -309.61471557617187504
v 55.50362014770507816 93.9105148315429688 -308.52252197265625
v 57.83120727539062496 97.72818756103515632 -206.24749755859375
v 57.73862075805664064 97.78164672851562496 -206.92251586914062496
v 57.46991729736328128 97.93678283691406256 -207.53146362304687504
v 57.05140304565429688 98.17841339111328124 -208.01470947265625
v 56.5240440368652344 98.48287963867187504 -208.324981689453125
v 55.9394607543945312 98.82038879394531248 -208.43190002441406248
v 55.35488128662109376 99.15789794921875 -208.324981689453125
v 54.8275222778320312 99.46237182617187504 -208.01470947265625
v 54.40900802612304688 99.70400238037109376 -207.53146362304687504
v 54.1403045654296875 99.8591384887695312 -206.92251586914062496
v 54.04771804809570312 99.9125900268554688 -206.24749755859375
v 54.1403045654296875 99.8591384887695312 -205.57247924804687504
v 54.40900802612304688 99.70400238037109376 -204.96354675292968752
v 54.8275222778320312 99.46237182617187504 -204.48028564453125
v 55.35488128662109376 99.15789794921875 -204.170013427734375
v 55.9394607543945312 98.82038879394531248 -204.0630950927734375
v 56.5240440368652344 98.48287963867187504 -204.170013427734375
v 57.05140304565429688 98.17841339111328124 -204.48028564453125
v 57.46991729736328128 97.93678283691406256 -204.96354675292968752
v 57.73862075805664064 97.78164672851562496 -205.57247924804687504
v 57.83120727539062496 97.72818756103515632 -257.0474853515625
v 57.73862075805664064 97.78164672851562496 -257.72250366210937504
v 57.46991729736328128 97.93678283691406256 -258.331451416015625
v 57.05140304565429688 98.17841339111328124 -258.81472778320312496
v 56.5240440368652344 98.48287963867187504 -259.125
v 55.9394607543945312 98.82038879394531248 -259.231903076171875
v 55.35488128662109376 99.15789794921875 -259.125
v 54.8275222778320312 99.46237182617187504 -258.81472778320312496
v 54.40900802612304688 99.70400238037109376 -258.331451416015625
v 54.1403045654296875 99.8591384887695312 -257.72250366210937504
v 54.04771804809570312 99.9125900268554688 -257.0474853515625
v 54.1403045654296875 99.8591384887695312 -256.37249755859375
v 54.40900802612304688 99.70400238037109376 -255.76353454589843744
v 54.8275222778320312 99.46237182617187504 -255.28028869628906248
v 55.35488128662109376 99.15789794921875 -254.97001647949218752
v 55.9394607543945312 98.82038879394531248 -254.86309814453124992
v 56.5240440368652344 98.48287963867187504 -254.97001647949218752
v 57.05140304565429688 98.17841339111328124 -255.28028869628906248
v 57.46991729736328128 97.93678283691406256 -255.76353454589843744
v 57.73862075805664064 97.78164672851562496 -256.37249755859375
v 57.83120727539062496 97.72818756103515632 -307.84750366210937504
v 57.73862075805664064 97.78164672851562496 -308.52252197265625
v 57.46991729736328128 97.93678283691406256 -309.1314697265625
v 57.05140304565429688 98.17841339111328124 -309.61471557617187504
v 56.5240440368652344 98.48287963867187504 -309.92498779296875008
v 55.9394607543945312 98.82038879394531248 -310.031890869140625
v 55.35488128662109376 99.15789794921875 -309.92498779296875008
v 54.8275222778320312 99.46237182617187504 -309.61471557617187504
v 54.40900802612304688 99.70400238037109376 -309.1314697265625
v 54.1403045654296875 99.8591384887695312 -308.52252197265625
v 54.04771804809570312 99.9125900268554688 -307.84750366210937504
v 54.1403045654296875 99.8591384887695312 -307.1724853515625
v 54.40900802612304688 99.70400238037109376 -306.56353759765625
v 54.8275222778320312 99.46237182617187504 -306.080291748046875
v 55.35488128662109376 99.15789794921875 -305.77001953125
v 55.9394607543945312 98.82038879394531248 -305.6630859375
v 56.5240440368652344 98.48287963867187504 -305.77001953125
v 57.05140304565429688 98.17841339111328124 -306.080291748046875
v 57.46991729736328128 97.93678283691406256 -306.56353759765625
v 57.73862075805664064 97.78164672851562496 -307.1724853515625
v 50.7353515625 96.7253494262695312 -149.097503662109375
v 50.7353515625 96.7253494262695312 -314.197509765625
v 50.75205612182617184 96.80393981933593744 -149.097503662109375
v 50.75205612182617184 96.80393981933593744 -314.197509765625
v 51.09705734252929688 97.40149688720703128 -149.097503662109375
v 51.09705734252929688 97.40149688720703128 -314.197509765625
v 51.20290756225585936 97.66777038574218752 -314.197509765625
v 51.22806549072265624 97.95320129394531248 -314.197509765625
v 51.20290756225585936 97.66777038574218752 -149.097503662109375
v 51.17042922973632812 98.23388671875 -314.197509765625
v 51.22806549072265624 97.95320129394531248 -149.097503662109375
v 51.034820556640625 98.48630523681640624 -314.197509765625
v 51.17042922973632812 98.23388671875 -149.097503662109375
v 51.034820556640625 98.48630523681640624 -149.097503662109375
v 56.77959442138671872 93.32393646240234376 -314.197509765625
v 56.77959442138671872 93.32393646240234376 -149.097503662109375
v 56.6805992126464844 93.25965118408203124 -149.097503662109375
v 56.6805992126464844 93.25965118408203124 -314.197509765625
v 57.5795936584472656 94.70957946777343752 -314.197509765625
v 57.5795936584472656 94.70957946777343752 -149.097503662109375
v 58.42893218994140624 95.20455169677734376 -314.197509765625
v 58.68348693847656248 95.17339324951171876 -314.197509765625
v 58.68348693847656248 95.17339324951171876 -149.097503662109375
v 58.17491912841796876 95.16927337646484376 -314.197509765625
v 58.42893218994140624 95.20455169677734376 -149.097503662109375
v 57.9384880065917968 95.0699310302734375 -314.197509765625
v 58.17491912841796876 95.16927337646484376 -149.097503662109375
v 57.73550415039062496 94.91319274902343744 -314.197509765625
v 57.9384880065917968 95.0699310302734375 -149.097503662109375
v 57.73550415039062496 94.91319274902343744 -149.097503662109375
v 61.18995285034179688 94.52893829345703128 -314.197509765625
v 61.18995285034179688 94.52893829345703128 -149.097503662109375
v 61.75862503051757808 94.76787567138671872 -314.197509765625
v 61.75862503051757808 94.76787567138671872 -149.097503662109375
v 61.67830657958984376 94.66297912597656248 -149.097503662109375
v 61.67830657958984376 94.66297912597656248 -314.197509765625
v 61.57374191284179688 94.58223724365234376 -149.097503662109375
v 61.57374191284179688 94.58223724365234376 -314.197509765625
v 61.45194244384765624 94.53106689453125 -149.097503662109375
v 61.45194244384765624 94.53106689453125 -314.197509765625
v 61.32108688354492188 94.51289367675781248 -149.097503662109375
v 61.32108688354492188 94.51289367675781248 -314.197509765625
v 61.93362426757812496 95.07098388671875 -314.197509765625
v 61.93362426757812496 95.07098388671875 -149.097503662109375
v 61.84211730957031248 95.41249084472656248 -314.197509765625
v 61.84211730957031248 95.41249084472656248 -149.097503662109375
v 61.94550323486328128 95.29766845703125 -149.097503662109375
v 61.94550323486328128 95.29766845703125 -314.197509765625
v 61.96165466308593744 95.14400482177734376 -149.097503662109375
v 61.96165466308593744 95.14400482177734376 -314.197509765625
v 50.15077590942382812 102.1624908447265625 -149.097503662109375
v 50.15077590942382812 102.1624908447265625 -314.197509765625
v 49.80926895141601568 102.07098388671875 -314.197509765625
v 49.80926895141601568 102.07098388671875 -149.097503662109375
v 49.92409133911132816 102.17436981201171876 -149.097503662109375
v 49.92409133911132816 102.17436981201171876 -314.197509765625
v 50.07775497436523438 102.190521240234375 -149.097503662109375
v 50.07775497436523438 102.190521240234375 -314.197509765625
v 49.31147003173828124 100.84543609619140624 -149.097503662109375
v 49.34926986694335936 101.27423858642578124 -149.097503662109375
v 49.29473876953125 101.1370697021484375 -149.097503662109375
v 49.28178024291992188 100.99002838134765632 -149.097503662109375
v 49.38133239746093752 100.71540069580078128 -149.097503662109375
v 49.38133239746093752 100.71540069580078128 -314.197509765625
v 49.34926986694335936 101.27423858642578124 -314.197509765625
v 49.31147003173828124 100.84543609619140624 -314.197509765625
v 49.28178024291992188 100.99002838134765632 -314.197509765625
v 49.29473876953125 101.1370697021484375 -314.197509765625
# 232 vertices

vn -0.85536319017410272 0.4938441812992096 0.15643446147441864
vn -0.77163428068161008 0.4455032646656036 0.45399048924446104
vn -0.6123724579811096 0.3535533845424652 0.7071067690849304
vn -0.39316731691360472 0.22699524462223052 0.8910065293312072
vn -0.13547621667385102 0.07821723073720932 0.9876883625984192
vn 0.13547621667385102 -0.07821723073720932 0.9876883625984192
vn 0.39316731691360472 -0.22699524462223052 0.8910065293312072
vn 0.6123724579811096 -0.3535533845424652 0.7071067690849304
vn 0.77163428068161008 -0.4455032646656036 0.45399048924446104
vn 0.85536319017410272 -0.4938441812992096 0.15643446147441864
vn 0.85536319017410272 -0.4938441812992096 -0.15643446147441864
vn 0.77163428068161008 -0.4455032646656036 -0.45399048924446104
vn 0.6123724579811096 -0.3535533845424652 -0.7071067690849304
vn 0.39316731691360472 -0.22699524462223052 -0.8910065293312072
vn 0.13547621667385102 -0.07821723073720932 -0.9876883625984192
vn -0.13547621667385102 0.07821723073720932 -0.9876883625984192
vn -0.39316731691360472 0.22699524462223052 -0.8910065293312072
vn -0.6123724579811096 0.3535533845424652 -0.7071067690849304
vn -0.77163428068161008 0.4455032646656036 -0.45399048924446104
vn -0.85536319017410272 0.4938441812992096 -0.15643446147441864
vn -0.5 -0.86602538824081424 0
vn -0.83867055177688592 -0.5446390509605408 0
vn -0.9781476259231568 0.20791168510913848 0
vn -0.86602538824081424 0.5 0
vn -0.92926728725433344 0.36940798163414 0
vn -0.99613767862319952 0.08780484646558762 0
vn -0.97955965995788576 -0.20115388929843904 0
vn -0.88092195987701424 -0.47326156497001648 0
vn 0.5446390509605408 -0.83867055177688592 0
vn -0.20791168510913848 -0.9781476259231568 0
vn 0.86602538824081424 -0.5 0
vn -0.12147821485996246 -0.99259412288665776 0
vn 0.1375560313463211 -0.9904940128326416 0
vn 0.38735985755920408 -0.92192858457565312 0
vn 0.61117058992385864 -0.79149889945983888 0
vn 0.79396986961364752 -0.60795712471008304 0
vn -0.2490171194076538 -0.96849906444549568 0
vn 0.7431448101997376 0.66913062334060672 0
vn 0.99452191591262816 0.10452846437692642 0
vn 0.93358039855957024 -0.3583679497241974 0
vn 0.5 0.86602538824081424 0
vn -0.66913062334060672 0.7431448101997376 0
vn -0.10452846437692642 0.99452191591262816 0
vn 0.3583679497241974 0.93358039855957024 0
vn 0 0 1
vn 0 0 -1
vn -0.80315959453582768 -0.59576392173767088 0
# 47 vertex normals

g obj_26813314
s 1
f 1//1 2//1 3//1
f 4//2 1//2 5//2
f 6//3 4//3 7//3
f 8//4 6//4 9//4
f 10//5 8//5 11//5
f 12//6 10//6 13//6
f 14//7 12//7 15//7
f 16//8 14//8 17//8
f 18//9 16//9 19//9
f 20//10 18//10 21//10
f 22//11 20//11 23//11
f 24//12 22//12 25//12
f 26//13 24//13 27//13
f 28//14 26//14 29//14
f 30//15 28//15 31//15
f 32//16 30//16 33//16
f 34//17 32//17 35//17
f 36//18 34//18 37//18
f 38//19 36//19 39//19
f 2//20 38//20 40//20
f 40//20 3//20 2//20
f 39//19 40//19 38//19
f 37//18 39//18 36//18
f 35//17 37//17 34//17
f 33//16 35//16 32//16
f 31//15 33//15 30//15
f 29//14 31//14 28//14
f 27//13 29//13 26//13
f 25//12 27//12 24//12
f 23//11 25//11 22//11
f 21//10 23//10 20//10
f 19//9 21//9 18//9
f 17//8 19//8 16//8
f 15//7 17//7 14//7
f 13//6 15//6 12//6
f 11//5 13//5 10//5
f 9//4 11//4 8//4
f 7//3 9//3 6//3
f 5//2 7//2 4//2
f 3//1 5//1 1//1
f 41//21 18//21 20//21
f 42//21 43//21 41//21
f 41//21 44//21 42//21
f 20//21 44//21 41//21
f 44//21 28//21 30//21
f 42//21 45//21 43//21
f 41//21 14//21 16//21
f 46//21 47//21 2//21
f 44//21 26//21 28//21
f 44//21 22//21 24//21
f 16//21 18//21 41//21
f 47//21 38//21 2//21
f 24//21 26//21 44//21
f 2//21 48//21 49//21
f 47//21 34//21 36//21
f 20//21 22//21 44//21
f 41//21 10//21 12//21
f 36//21 38//21 47//21
f 47//21 30//21 32//21
f 12//21 14//21 41//21
f 42//21 50//21 51//21
f 41//21 6//21 8//21
f 32//21 34//21 47//21
f 51//21 45//21 42//21
f 41//21 4//21 6//21
f 41//21 2//21 1//21
f 47//21 52//21 53//21
f 47//21 46//21 54//21
f 30//21 47//21 44//21
f 1//21 4//21 41//21
f 8//21 10//21 41//21
f 55//21 56//21 57//21
f 55//21 58//21 59//21
f 50//21 60//21 59//21
f 50//21 42//21 61//21
f 62//21 47//21 63//21
f 64//21 47//21 65//21
f 54//21 52//21 47//21
f 2//21 66//21 67//21
f 2//21 41//21 68//21
f 59//21 56//21 55//21
f 61//21 60//21 50//21
f 62//21 69//21 70//21
f 63//21 71//21 62//21
f 47//21 72//21 65//21
f 65//21 73//21 64//21
f 2//21 49//21 46//21
f 68//21 66//21 2//21
f 67//21 48//21 2//21
f 59//21 58//21 50//21
f 71//21 69//21 62//21
f 44//21 74//21 75//21
f 76//21 74//21 77//21
f 47//21 62//21 72//21
f 70//21 55//21 62//21
f 75//21 78//21 44//21
f 74//21 79//21 80//21
f 74//21 81//21 77//21
f 65//21 82//21 73//21
f 57//21 62//21 55//21
f 80//21 75//21 74//21
f 74//21 76//21 83//21
f 77//21 84//21 85//21
f 77//21 65//21 86//21
f 47//21 64//21 87//21
f 53//21 63//21 47//21
f 83//21 79//21 74//21
f 74//21 88//21 81//21
f 74//21 89//21 90//21
f 86//21 91//21 77//21
f 91//21 92//21 77//21
f 87//21 93//21 47//21
f 87//21 94//21 93//21
f 78//21 42//21 44//21
f 90//21 88//21 74//21
f 92//21 84//21 77//21
f 74//21 93//21 95//21
f 77//21 85//21 76//21
f 93//21 96//21 95//21
f 95//21 89//21 74//21
f 65//21 97//21 98//21
f 65//21 99//21 100//21
f 65//21 77//21 101//21
f 98//21 82//21 65//21
f 101//21 99//21 65//21
f 93//21 102//21 103//21
f 93//21 94//21 104//21
f 100//21 97//21 65//21
f 104//21 102//21 93//21
f 103//21 96//21 93//21
f 71//1 63//1 105//1
f 69//2 71//2 106//2
f 70//3 69//3 107//3
f 55//4 70//4 108//4
f 58//5 55//5 109//5
f 50//6 58//6 110//6
f 51//7 50//7 111//7
f 45//8 51//8 112//8
f 43//9 45//9 113//9
f 41//10 43//10 114//10
f 68//11 41//11 115//11
f 66//12 68//12 116//12
f 67//13 66//13 117//13
f 48//14 67//14 118//14
f 49//15 48//15 119//15
f 46//16 49//16 120//16
f 54//17 46//17 121//17
f 52//18 54//18 122//18
f 53//19 52//19 123//19
f 63//20 53//20 124//20
f 124//20 105//20 63//20
f 123//19 124//19 53//19
f 122//18 123//18 52//18
f 121//17 122//17 54//17
f 120//16 121//16 46//16
f 119//15 120//15 49//15
f 118//14 119//14 48//14
f 117//13 118//13 67//13
f 116//12 117//12 66//12
f 115//11 116//11 68//11
f 114//10 115//10 41//10
f 113//9 114//9 43//9
f 112//8 113//8 45//8
f 111//7 112//7 51//7
f 110//6 111//6 50//6
f 109//5 110//5 58//5
f 108//4 109//4 55//4
f 107//3 108//3 70//3
f 106//2 107//2 69//2
f 105//1 106//1 71//1
f 86//1 65//1 125//1
f 91//2 86//2 126//2
f 92//3 91//3 127//3
f 84//4 92//4 128//4
f 85//5 84//5 129//5
f 76//6 85//6 130//6
f 83//7 76//7 131//7
f 79//8 83//8 132//8
f 80//9 79//9 133//9
f 75//10 80//10 134//10
f 78//11 75//11 135//11
f 42//12 78//12 136//12
f 61//13 42//13 137//13
f 60//14 61//14 138//14
f 59//15 60//15 139//15
f 56//16 59//16 140//16
f 57//17 56//17 141//17
f 62//18 57//18 142//18
f 72//19 62//19 143//19
f 65//20 72//20 144//20
f 144//20 125//20 65//20
f 143//19 144//19 72//19
f 142//18 143//18 62//18
f 141//17 142//17 57//17
f 140//16 141//16 56//16
f 139//15 140//15 59//15
f 138//14 139//14 60//14
f 137//13 138//13 61//13
f 136//12 137//12 42//12
f 135//11 136//11 78//11
f 134//10 135//10 75//10
f 133//9 134//9 80//9
f 132//8 133//8 79//8
f 131//7 132//7 83//7
f 130//6 131//6 76//6
f 129//5 130//5 85//5
f 128//4 129//4 84//4
f 127//3 128//3 92//3
f 126//2 127//2 91//2
f 125//1 126//1 86//1
f 104//1 94//1 145//1
f 102//2 104//2 146//2
f 103//3 102//3 147//3
f 96//4 103//4 148//4
f 95//5 96//5 149//5
f 89//6 95//6 150//6
f 90//7 89//7 151//7
f 88//8 90//8 152//8
f 81//9 88//9 153//9
f 77//10 81//10 154//10
f 101//11 77//11 155//11
f 99//12 101//12 156//12
f 100//13 99//13 157//13
f 97//14 100//14 158//14
f 98//15 97//15 159//15
f 82//16 98//16 160//16
f 73//17 82//17 161//17
f 64//18 73//18 162//18
f 87//19 64//19 163//19
f 94//20 87//20 164//20
f 164//20 145//20 94//20
f 163//19 164//19 87//19
f 162//18 163//18 64//18
f 161//17 162//17 73//17
f 160//16 161//16 82//16
f 159//15 160//15 98//15
f 158//14 159//14 97//14
f 157//13 158//13 100//13
f 156//12 157//12 99//12
f 155//11 156//11 101//11
f 154//10 155//10 77//10
f 153//9 154//9 81//9
f 152//8 153//8 88//8
f 151//7 152//7 90//7
f 150//6 151//6 89//6
f 149//5 150//5 95//5
f 148//4 149//4 96//4
f 147//3 148//3 103//3
f 146//2 147//2 102//2
f 145//1 146//1 104//1
f 74//22 44//22 165//22
f 166//23 165//23 167//23
f 167//23 168//23 166//23
f 165//22 166//22 74//22
f 169//24 170//24 168//24
f 168//24 167//24 169//24
f 171//25 170//25 169//25
f 172//26 171//26 173//26
f 174//27 172//27 175//27
f 176//28 174//28 177//28
f 177//28 178//28 176//28
f 175//27 177//27 174//27
f 173//26 175//26 172//26
f 169//25 173//25 171//25
f 179//29 180//29 181//29
f 182//30 181//30 47//30
f 47//30 93//30 182//30
f 181//29 182//29 179//29
f 180//31 179//31 183//31
f 183//31 184//31 180//31
f 185//32 186//32 187//32
f 188//33 185//33 189//33
f 190//34 188//34 191//34
f 192//35 190//35 193//35
f 183//36 192//36 194//36
f 194//36 184//36 183//36
f 193//35 194//35 192//35
f 191//34 193//34 190//34
f 189//33 191//33 188//33
f 187//32 189//32 185//32
f 187//37 186//37 195//37
f 195//37 196//37 187//37
f 197//36 198//36 199//36
f 200//35 199//35 201//35
f 202//34 201//34 203//34
f 204//33 203//33 205//33
f 206//32 205//32 196//32
f 196//32 195//32 206//32
f 205//33 206//33 204//33
f 203//34 204//34 202//34
f 201//35 202//35 200//35
f 199//36 200//36 197//36
f 198//31 197//31 207//31
f 207//31 208//31 198//31
f 209//38 210//38 211//38
f 212//39 211//39 213//39
f 214//40 213//40 208//40
f 208//40 207//40 214//40
f 213//39 214//39 212//39
f 211//38 212//38 209//38
f 209//41 106//41 105//41
f 118//41 215//41 23//41
f 210//41 40//41 39//41
f 210//41 209//41 5//41
f 209//41 9//41 7//41
f 209//41 107//41 106//41
f 105//41 9//41 209//41
f 215//41 25//41 23//41
f 210//41 3//41 40//41
f 7//41 5//41 209//41
f 105//41 11//41 9//41
f 23//41 119//41 118//41
f 215//41 31//41 29//41
f 210//41 35//41 33//41
f 5//41 3//41 210//41
f 105//41 13//41 11//41
f 209//41 126//41 125//41
f 215//41 27//41 25//41
f 215//41 33//41 31//41
f 210//41 37//41 35//41
f 125//41 109//41 209//41
f 125//41 144//41 109//41
f 209//41 128//41 127//41
f 215//41 117//41 116//41
f 29//41 27//41 215//41
f 39//41 37//41 210//41
f 209//41 109//41 108//41
f 105//41 23//41 21//41
f 111//41 139//41 138//41
f 111//41 110//41 140//41
f 109//41 141//41 140//41
f 109//41 143//41 142//41
f 127//41 126//41 209//41
f 118//41 117//41 215//41
f 108//41 107//41 209//41
f 105//41 17//41 15//41
f 21//41 19//41 105//41
f 140//41 139//41 111//41
f 142//41 141//41 109//41
f 209//41 129//41 128//41
f 33//41 215//41 210//41
f 19//41 17//41 105//41
f 140//41 110//41 109//41
f 137//41 215//41 115//41
f 215//41 136//41 135//41
f 15//41 13//41 105//41
f 144//41 143//41 109//41
f 137//41 113//41 112//41
f 115//41 114//41 137//41
f 23//41 123//41 122//41
f 23//41 105//41 124//41
f 215//41 137//41 136//41
f 135//41 159//41 215//41
f 138//41 137//41 111//41
f 114//41 113//41 137//41
f 23//41 121//41 120//41
f 124//41 123//41 23//41
f 131//41 209//41 145//41
f 135//41 160//41 159//41
f 112//41 111//41 137//41
f 122//41 121//41 23//41
f 209//41 146//41 145//41
f 145//41 135//41 134//41
f 135//41 161//41 160//41
f 120//41 119//41 23//41
f 209//41 147//41 146//41
f 134//41 133//41 145//41
f 116//41 115//41 215//41
f 209//41 131//41 130//41
f 133//41 132//41 145//41
f 209//41 149//41 148//41
f 130//41 129//41 209//41
f 148//41 147//41 209//41
f 135//41 163//41 162//41
f 135//41 145//41 164//41
f 209//41 216//41 150//41
f 216//41 153//41 152//41
f 216//41 155//41 154//41
f 215//41 157//41 156//41
f 145//41 132//41 131//41
f 164//41 163//41 135//41
f 216//41 151//41 150//41
f 154//41 153//41 216//41
f 156//41 216//41 215//41
f 156//41 155//41 216//41
f 215//41 159//41 158//41
f 162//41 161//41 135//41
f 152//41 151//41 216//41
f 158//41 157//41 215//41
f 150//41 149//41 209//41
f 217//42 218//42 219//42
f 220//43 219//43 221//43
f 222//44 221//44 215//44
f 215//44 216//44 222//44
f 221//43 222//43 220//43
f 219//42 220//42 217//42
f 199//45 196//45 205//45
f 205//45 203//45 199//45
f 196//45 198//45 208//45
f 203//45 201//45 199//45
f 184//45 167//45 44//45
f 199//45 198//45 196//45
f 47//45 181//45 180//45
f 167//45 165//45 44//45
f 213//45 187//45 196//45
f 173//45 189//45 187//45
f 44//45 47//45 184//45
f 187//45 213//45 173//45
f 184//45 169//45 167//45
f 173//45 169//45 184//45
f 173//45 191//45 189//45
f 184//45 194//45 173//45
f 223//45 224//45 225//45
f 215//45 218//45 224//45
f 218//45 215//45 221//45
f 173//45 193//45 191//45
f 180//45 184//45 47//45
f 173//45 213//45 210//45
f 225//45 226//45 223//45
f 221//45 219//45 218//45
f 194//45 193//45 173//45
f 213//45 211//45 210//45
f 215//45 227//45 178//45
f 224//45 227//45 215//45
f 210//45 175//45 173//45
f 223//45 227//45 224//45
f 210//45 177//45 175//45
f 178//45 210//45 215//45
f 178//45 177//45 210//45
f 208//45 213//45 196//45
f 183//46 93//46 74//46
f 74//46 168//46 183//46
f 93//46 183//46 179//46
f 200//46 202//46 204//46
f 179//46 182//46 93//46
f 206//46 197//46 200//46
f 171//46 192//46 183//46
f 74//46 166//46 168//46
f 204//46 206//46 200//46
f 168//46 170//46 183//46
f 206//46 195//46 197//46
f 186//46 214//46 207//46
f 217//46 220//46 222//46
f 216//46 228//46 229//46
f 228//46 230//46 231//46
f 171//46 190//46 192//46
f 171//46 185//46 188//46
f 171//46 214//46 186//46
f 207//46 197//46 186//46
f 229//46 217//46 216//46
f 231//46 232//46 228//46
f 171//46 172//46 209//46
f 188//46 190//46 171//46
f 195//46 186//46 197//46
f 232//46 229//46 228//46
f 216//46 209//46 176//46
f 209//46 214//46 171//46
f 186//46 185//46 171//46
f 176//46 228//46 216//46
f 183//46 170//46 171//46
f 209//46 174//46 176//46
f 209//46 212//46 214//46
f 172//46 174//46 209//46
f 222//46 216//46 217//46
f 218//24 217//24 229//24
f 229//24 224//24 218//24
f 228//28 227//28 223//28
f 230//27 223//27 226//27
f 231//26 226//26 225//26
f 232//25 225//25 224//25
f 224//25 229//25 232//25
f 225//26 232//26 231//26
f 226//27 231//27 230//27
f 223//28 230//28 228//28
f 227//47 228//47 176//47
f 176//47 178//47 227//47
#476 polygons

