# Aspose.3D Wavefront OBJ Exporter
# Copyright 2004-2023 Aspose Pty Ltd.
# File created: 06/29/2023 05:48:12


#
# object obj_56536778
#

v 64.32920074462890624 61.89754867553710944 -110.21009826660156248
v 64.32920074462890624 61.89754867553710944 -110.92130279541015632
v 64.09610748291015624 63.36924362182617184 -110.92130279541015632
v 64.09610748291015624 63.36924362182617184 -110.21009826660156248
v 63.41964340209960936 64.69687652587890624 -110.92130279541015632
v 63.41964340209960936 64.69687652587890624 -110.21009826660156248
v 62.36602783203125 65.7504959106445312 -110.92130279541015632
v 62.36602783203125 65.7504959106445312 -110.21009826660156248
v 61.03839111328125 66.42695617675781248 -110.92130279541015632
v 61.03839111328125 66.42695617675781248 -110.21009826660156248
v 59.56669998168945312 66.66004943847656248 -110.92130279541015632
v 59.56669998168945312 66.66004943847656248 -110.21009826660156248
v 58.09500503540039062 66.42695617675781248 -110.92130279541015632
v 58.09500503540039062 66.42695617675781248 -110.21009826660156248
v 56.76737213134765632 65.7504959106445312 -110.92130279541015632
v 56.76737213134765632 65.7504959106445312 -110.21009826660156248
v 55.71375656127929688 64.69687652587890624 -110.92130279541015632
v 55.71375656127929688 64.69687652587890624 -110.21009826660156248
v 55.03729248046875 63.36924362182617184 -110.92130279541015632
v 55.03729248046875 63.36924362182617184 -110.21009826660156248
v 54.80419921875 61.89754867553710944 -110.92130279541015632
v 54.80419921875 61.89754867553710944 -110.21009826660156248
v 55.03729248046875 60.42585754394531248 -110.92130279541015632
v 55.03729248046875 60.42585754394531248 -110.21009826660156248
v 55.71375656127929688 59.0982208251953125 -110.92130279541015632
v 55.71375656127929688 59.0982208251953125 -110.21009826660156248
v 56.76737213134765632 58.04460525512695312 -110.92130279541015632
v 56.76737213134765632 58.04460525512695312 -110.21009826660156248
v 58.09500503540039062 57.36814117431640624 -110.92130279541015632
v 58.09500503540039062 57.36814117431640624 -110.21009826660156248
v 59.56669998168945312 57.13504791259765624 -110.92130279541015632
v 59.56669998168945312 57.13504791259765624 -110.21009826660156248
v 61.03839111328125 57.36814117431640624 -110.92130279541015632
v 61.03839111328125 57.36814117431640624 -110.21009826660156248
v 62.36602783203125 58.04460525512695312 -110.92130279541015632
v 62.36602783203125 58.04460525512695312 -110.21009826660156248
v 63.41964340209960936 59.0982208251953125 -110.92130279541015632
v 63.41964340209960936 59.0982208251953125 -110.21009826660156248
v 64.09610748291015624 60.42585754394531248 -110.92130279541015632
v 64.09610748291015624 60.42585754394531248 -110.21009826660156248
v 57.47653579711914064 64.7744140625 -110.92130279541015632
v 58.46783447265625 65.27950286865234376 -110.92130279541015632
v 59.56669998168945312 65.45355224609375 -110.92130279541015632
v 62.44356536865234376 63.98771286010742192 -110.92130279541015632
v 62.94865798950195312 62.99641418457031248 -110.92130279541015632
v 61.6568641662597656 59.02068328857421875 -110.92130279541015632
v 60.66556549072265624 58.51559448242187504 -110.92130279541015632
v 60.66556549072265624 65.27950286865234376 -110.92130279541015632
v 61.6568641662597656 64.7744140625 -110.92130279541015632
v 63.12269973754882812 61.89754867553710944 -110.92130279541015632
v 62.94865798950195312 60.79868698120117184 -110.92130279541015632
v 59.56669998168945312 58.34154891967773436 -110.92130279541015632
v 58.46783447265625 58.51559448242187504 -110.92130279541015632
v 57.47653579711914064 59.02068328857421875 -110.92130279541015632
v 62.44356536865234376 59.8073844909667968 -110.92130279541015632
v 56.68983459472656248 59.8073844909667968 -110.92130279541015632
v 56.18474197387695312 60.79868698120117184 -110.92130279541015632
v 56.18474197387695312 62.99641418457031248 -110.92130279541015632
v 56.68983459472656248 63.98771286010742192 -110.92130279541015632
v 56.01070022583007812 61.89754867553710944 -110.92130279541015632
v 61.6568641662597656 59.02068328857421875 -110.21009826660156248
v 60.66556549072265624 58.51559448242187504 -110.21009826660156248
v 62.44356536865234376 59.8073844909667968 -110.21009826660156248
v 62.44356536865234376 63.98771286010742192 -110.21009826660156248
v 62.94865798950195312 62.99641418457031248 -110.21009826660156248
v 61.6568641662597656 64.7744140625 -110.21009826660156248
v 56.68983459472656248 59.8073844909667968 -110.21009826660156248
v 56.18474197387695312 60.79868698120117184 -110.21009826660156248
v 57.47653579711914064 59.02068328857421875 -110.21009826660156248
v 58.46783447265625 58.51559448242187504 -110.21009826660156248
v 59.56669998168945312 58.34154891967773436 -110.21009826660156248
v 60.66556549072265624 65.27950286865234376 -110.21009826660156248
v 58.46783447265625 65.27950286865234376 -110.21009826660156248
v 59.56669998168945312 65.45355224609375 -110.21009826660156248
v 57.47653579711914064 64.7744140625 -110.21009826660156248
v 56.01070022583007812 61.89754867553710944 -110.21009826660156248
v 56.68983459472656248 63.98771286010742192 -110.21009826660156248
v 56.18474197387695312 62.99641418457031248 -110.21009826660156248
v 62.94865798950195312 60.79868698120117184 -110.21009826660156248
v 63.12269973754882812 61.89754867553710944 -110.21009826660156248
v 22.34398651123046876 71.47303009033203128 -110.21009826660156248
v 22.34398651123046876 71.47303009033203128 -110.92130279541015632
v 22.11089324951171876 72.94471740722656256 -110.92130279541015632
v 22.11089324951171876 72.94471740722656256 -110.21009826660156248
v 21.43442916870117184 74.27235412597656248 -110.92130279541015632
v 21.43442916870117184 74.27235412597656248 -110.21009826660156248
v 20.38081359863281248 75.32597351074218752 -110.92130279541015632
v 20.38081359863281248 75.32597351074218752 -110.21009826660156248
v 19.05317878723144531 76.00243377685546875 -110.92130279541015632
v 19.05317878723144531 76.00243377685546875 -110.21009826660156248
v 17.5814857482910156 76.23552703857421876 -110.92130279541015632
v 17.5814857482910156 76.23552703857421876 -110.21009826660156248
v 16.10979270935058594 76.00243377685546875 -110.92130279541015632
v 16.10979270935058594 76.00243377685546875 -110.21009826660156248
v 14.7821588516235352 75.32597351074218752 -110.92130279541015632
v 14.7821588516235352 75.32597351074218752 -110.21009826660156248
v 13.72854232788085936 74.27235412597656248 -110.92130279541015632
v 13.72854232788085936 74.27235412597656248 -110.21009826660156248
v 13.05207920074462891 72.94471740722656256 -110.92130279541015632
v 13.05207920074462891 72.94471740722656256 -110.21009826660156248
v 12.81898593902587888 71.47303009033203128 -110.92130279541015632
v 12.81898593902587888 71.47303009033203128 -110.21009826660156248
v 13.05207920074462891 70.00133514404296875 -110.92130279541015632
v 13.05207920074462891 70.00133514404296875 -110.21009826660156248
v 13.72854232788085936 68.67369842529296872 -110.92130279541015632
v 13.72854232788085936 68.67369842529296872 -110.21009826660156248
v 14.7821588516235352 67.62008666992187504 -110.92130279541015632
v 14.7821588516235352 67.62008666992187504 -110.21009826660156248
v 16.10979270935058594 66.94361877441406256 -110.92130279541015632
v 16.10979270935058594 66.94361877441406256 -110.21009826660156248
v 17.5814857482910156 66.71052551269531248 -110.92130279541015632
v 17.5814857482910156 66.71052551269531248 -110.21009826660156248
v 19.05317878723144531 66.94361877441406256 -110.92130279541015632
v 19.05317878723144531 66.94361877441406256 -110.21009826660156248
v 20.38081359863281248 67.62008666992187504 -110.92130279541015632
v 20.38081359863281248 67.62008666992187504 -110.21009826660156248
v 21.43442916870117184 68.67369842529296872 -110.92130279541015632
v 21.43442916870117184 68.67369842529296872 -110.21009826660156248
v 22.11089324951171876 70.00133514404296875 -110.92130279541015632
v 22.11089324951171876 70.00133514404296875 -110.21009826660156248
v 15.49132156372070312 74.34989166259765624 -110.92130279541015632
v 16.48262214660644528 74.85498046875 -110.92130279541015632
v 17.5814857482910156 75.02902984619140625 -110.92130279541015632
v 20.45835113525390624 73.56319427490234376 -110.92130279541015632
v 20.96344375610351568 72.57189178466796872 -110.92130279541015632
v 19.67164993286132816 68.59616088867187504 -110.92130279541015632
v 18.68035125732421872 68.09107208251953124 -110.92130279541015632
v 18.68035125732421872 74.85498046875 -110.92130279541015632
v 19.67164993286132816 74.34989166259765624 -110.92130279541015632
v 21.13748550415039062 71.47303009033203128 -110.92130279541015632
v 20.96344375610351568 70.37416076660156248 -110.92130279541015632
v 17.5814857482910156 67.91703033447265632 -110.92130279541015632
v 16.48262214660644528 68.09107208251953124 -110.92130279541015632
v 15.49132156372070312 68.59616088867187504 -110.92130279541015632
v 20.45835113525390624 69.38286590576171872 -110.92130279541015632
v 14.70462131500244144 69.38286590576171872 -110.92130279541015632
v 14.19952869415283204 70.37416076660156248 -110.92130279541015632
v 14.19952869415283204 72.57189178466796872 -110.92130279541015632
v 14.70462131500244144 73.56319427490234376 -110.92130279541015632
v 14.02548599243164062 71.47303009033203128 -110.92130279541015632
v 19.67164993286132816 68.59616088867187504 -110.21009826660156248
v 18.68035125732421872 68.09107208251953124 -110.21009826660156248
v 20.45835113525390624 69.38286590576171872 -110.21009826660156248
v 20.45835113525390624 73.56319427490234376 -110.21009826660156248
v 20.96344375610351568 72.57189178466796872 -110.21009826660156248
v 19.67164993286132816 74.34989166259765624 -110.21009826660156248
v 14.70462131500244144 69.38286590576171872 -110.21009826660156248
v 14.19952869415283204 70.37416076660156248 -110.21009826660156248
v 15.49132156372070312 68.59616088867187504 -110.21009826660156248
v 16.48262214660644528 68.09107208251953124 -110.21009826660156248
v 17.5814857482910156 67.91703033447265632 -110.21009826660156248
v 18.68035125732421872 74.85498046875 -110.21009826660156248
v 16.48262214660644528 74.85498046875 -110.21009826660156248
v 17.5814857482910156 75.02902984619140625 -110.21009826660156248
v 15.49132156372070312 74.34989166259765624 -110.21009826660156248
v 14.02548599243164062 71.47303009033203128 -110.21009826660156248
v 14.70462131500244144 73.56319427490234376 -110.21009826660156248
v 14.19952869415283204 72.57189178466796872 -110.21009826660156248
v 20.96344375610351568 70.37416076660156248 -110.21009826660156248
v 21.13748550415039062 71.47303009033203128 -110.21009826660156248
v 19.16898536682128906 82.47154998779296872 -110.92130279541015632
v 19.16898536682128906 82.47154998779296872 -110.21009826660156248
v 19.40207862854003904 83.9432449340820312 -110.21009826660156248
v 19.40207862854003904 83.9432449340820312 -110.92130279541015632
v 20.07854270935058594 85.2708740234375 -110.21009826660156248
v 20.07854270935058594 85.2708740234375 -110.92130279541015632
v 21.13215827941894532 86.324493408203125 -110.21009826660156248
v 21.13215827941894532 86.324493408203125 -110.92130279541015632
v 22.45979309082031248 87.00095367431640625 -110.21009826660156248
v 22.45979309082031248 87.00095367431640625 -110.92130279541015632
v 23.93148612976074224 87.23404693603515624 -110.21009826660156248
v 23.93148612976074224 87.23404693603515624 -110.92130279541015632
v 25.40317916870117184 87.00095367431640625 -110.21009826660156248
v 25.40317916870117184 87.00095367431640625 -110.92130279541015632
v 26.73081398010253904 86.324493408203125 -110.21009826660156248
v 26.73081398010253904 86.324493408203125 -110.92130279541015632
v 27.7844295501708984 85.2708740234375 -110.21009826660156248
v 27.7844295501708984 85.2708740234375 -110.92130279541015632
v 28.46089172363281248 83.9432449340820312 -110.21009826660156248
v 28.46089172363281248 83.9432449340820312 -110.92130279541015632
v 28.69398689270019528 82.47154998779296872 -110.21009826660156248
v 28.69398689270019528 82.47154998779296872 -110.92130279541015632
v 28.46089172363281248 80.99985504150390624 -110.21009826660156248
v 28.46089172363281248 80.99985504150390624 -110.92130279541015632
v 27.7844295501708984 79.67222595214843752 -110.21009826660156248
v 27.7844295501708984 79.67222595214843752 -110.92130279541015632
v 26.73081398010253904 78.61860656738281248 -110.21009826660156248
v 26.73081398010253904 78.61860656738281248 -110.92130279541015632
v 25.40317916870117184 77.9421463012695312 -110.21009826660156248
v 25.40317916870117184 77.9421463012695312 -110.92130279541015632
v 23.93148612976074224 77.70905303955078128 -110.21009826660156248
v 23.93148612976074224 77.70905303955078128 -110.92130279541015632
v 22.45979309082031248 77.9421463012695312 -110.21009826660156248
v 22.45979309082031248 77.9421463012695312 -110.92130279541015632
v 21.13215827941894532 78.61860656738281248 -110.21009826660156248
v 21.13215827941894532 78.61860656738281248 -110.92130279541015632
v 20.07854270935058594 79.67222595214843752 -110.21009826660156248
v 20.07854270935058594 79.67222595214843752 -110.92130279541015632
v 19.40207862854003904 80.99985504150390624 -110.21009826660156248
v 19.40207862854003904 80.99985504150390624 -110.92130279541015632
v 26.02165031433105468 85.34841156005859376 -110.21009826660156248
v 25.0303497314453125 85.8535079956054688 -110.21009826660156248
v 23.93148612976074224 86.02754974365234375 -110.21009826660156248
v 21.05462074279785156 84.56171417236328128 -110.21009826660156248
v 20.54952812194824216 83.57041168212890624 -110.21009826660156248
v 21.84132194519042976 79.59468841552734376 -110.21009826660156248
v 22.83262062072753904 79.08959197998046875 -110.21009826660156248
v 22.83262062072753904 85.8535079956054688 -110.21009826660156248
v 21.84132194519042976 85.34841156005859376 -110.21009826660156248
v 20.3754863739013672 82.47154998779296872 -110.21009826660156248
v 20.54952812194824216 81.37268829345703128 -110.21009826660156248
v 23.93148612976074224 78.91555023193359376 -110.21009826660156248
v 25.0303497314453125 79.08959197998046875 -110.21009826660156248
v 26.02165031433105468 79.59468841552734376 -110.21009826660156248
v 21.05462074279785156 80.38138580322265624 -110.21009826660156248
v 26.808349609375 80.38138580322265624 -110.21009826660156248
v 27.31344223022460936 81.37268829345703128 -110.21009826660156248
v 27.31344223022460936 83.57041168212890624 -110.21009826660156248
v 26.808349609375 84.56171417236328128 -110.21009826660156248
v 27.4874858856201172 82.47154998779296872 -110.21009826660156248
v 21.84132194519042976 79.59468841552734376 -110.92130279541015632
v 22.83262062072753904 79.08959197998046875 -110.92130279541015632
v 21.05462074279785156 80.38138580322265624 -110.92130279541015632
v 21.05462074279785156 84.56171417236328128 -110.92130279541015632
v 20.54952812194824216 83.57041168212890624 -110.92130279541015632
v 21.84132194519042976 85.34841156005859376 -110.92130279541015632
v 26.808349609375 80.38138580322265624 -110.92130279541015632
v 27.31344223022460936 81.37268829345703128 -110.92130279541015632
v 26.02165031433105468 79.59468841552734376 -110.92130279541015632
v 25.0303497314453125 79.08959197998046875 -110.92130279541015632
v 23.93148612976074224 78.91555023193359376 -110.92130279541015632
v 22.83262062072753904 85.8535079956054688 -110.92130279541015632
v 25.0303497314453125 85.8535079956054688 -110.92130279541015632
v 23.93148612976074224 86.02754974365234375 -110.92130279541015632
v 26.02165031433105468 85.34841156005859376 -110.92130279541015632
v 27.4874858856201172 82.47154998779296872 -110.92130279541015632
v 26.808349609375 84.56171417236328128 -110.92130279541015632
v 27.31344223022460936 83.57041168212890624 -110.92130279541015632
v 20.54952812194824216 81.37268829345703128 -110.92130279541015632
v 20.3754863739013672 82.47154998779296872 -110.92130279541015632
v 48.45420074462890624 50.89902877807617184 -110.92130279541015632
v 48.45420074462890624 50.89902877807617184 -110.21009826660156248
v 48.68729400634765624 52.37071990966796872 -110.21009826660156248
v 48.68729400634765624 52.37071990966796872 -110.92130279541015632
v 49.36375427246093752 53.69835281372070312 -110.21009826660156248
v 49.36375427246093752 53.69835281372070312 -110.92130279541015632
v 50.41737365722656248 54.75197219848632816 -110.21009826660156248
v 50.41737365722656248 54.75197219848632816 -110.92130279541015632
v 51.7450065612792968 55.42843246459960936 -110.21009826660156248
v 51.7450065612792968 55.42843246459960936 -110.92130279541015632
v 53.21669769287109376 55.66152572631835936 -110.21009826660156248
v 53.21669769287109376 55.66152572631835936 -110.92130279541015632
v 54.68839263916015624 55.42843246459960936 -110.21009826660156248
v 54.68839263916015624 55.42843246459960936 -110.92130279541015632
v 56.01602554321289062 54.75197219848632816 -110.21009826660156248
v 56.01602554321289062 54.75197219848632816 -110.92130279541015632
v 57.06964111328125 53.69835281372070312 -110.21009826660156248
v 57.06964111328125 53.69835281372070312 -110.92130279541015632
v 57.7461051940917968 52.37071990966796872 -110.21009826660156248
v 57.7461051940917968 52.37071990966796872 -110.92130279541015632
v 57.97919845581054688 50.89902877807617184 -110.21009826660156248
v 57.97919845581054688 50.89902877807617184 -110.92130279541015632
v 57.7461051940917968 49.42733383178710936 -110.21009826660156248
v 57.7461051940917968 49.42733383178710936 -110.92130279541015632
v 57.06964111328125 48.099700927734375 -110.21009826660156248
v 57.06964111328125 48.099700927734375 -110.92130279541015632
v 56.01602554321289062 47.04608535766601562 -110.21009826660156248
v 56.01602554321289062 47.04608535766601562 -110.92130279541015632
v 54.68839263916015624 46.36962127685546872 -110.21009826660156248
v 54.68839263916015624 46.36962127685546872 -110.92130279541015632
v 53.21669769287109376 46.13652801513671876 -110.21009826660156248
v 53.21669769287109376 46.13652801513671876 -110.92130279541015632
v 51.7450065612792968 46.36962127685546872 -110.21009826660156248
v 51.7450065612792968 46.36962127685546872 -110.92130279541015632
v 50.41737365722656248 47.04608535766601562 -110.21009826660156248
v 50.41737365722656248 47.04608535766601562 -110.92130279541015632
v 49.36375427246093752 48.099700927734375 -110.21009826660156248
v 49.36375427246093752 48.099700927734375 -110.92130279541015632
v 48.68729400634765624 49.42733383178710936 -110.21009826660156248
v 48.68729400634765624 49.42733383178710936 -110.92130279541015632
v 55.30686187744140624 53.7758903503417968 -110.21009826660156248
v 54.31556320190429688 54.28098297119140624 -110.21009826660156248
v 53.21669769287109376 54.45502853393554688 -110.21009826660156248
v 50.33983612060546876 52.98919296264648432 -110.21009826660156248
v 49.83474349975585936 51.99789047241210944 -110.21009826660156248
v 51.12653350830078124 48.02216339111328125 -110.21009826660156248
v 52.11783599853515624 47.51707077026367184 -110.21009826660156248
v 52.11783599853515624 54.28098297119140624 -110.21009826660156248
v 51.12653350830078124 53.7758903503417968 -110.21009826660156248
v 49.66069793701171872 50.89902877807617184 -110.21009826660156248
v 49.83474349975585936 49.8001632690429688 -110.21009826660156248
v 53.21669769287109376 47.34302520751953124 -110.21009826660156248
v 54.31556320190429688 47.51707077026367184 -110.21009826660156248
v 55.30686187744140624 48.02216339111328125 -110.21009826660156248
v 50.33983612060546876 48.80886077880859376 -110.21009826660156248
v 56.09356307983398438 48.80886077880859376 -110.21009826660156248
v 56.59865570068359376 49.8001632690429688 -110.21009826660156248
v 56.59865570068359376 51.99789047241210944 -110.21009826660156248
v 56.09356307983398438 52.98919296264648432 -110.21009826660156248
v 56.7726974487304688 50.89902877807617184 -110.21009826660156248
v 51.12653350830078124 48.02216339111328125 -110.92130279541015632
v 52.11783599853515624 47.51707077026367184 -110.92130279541015632
v 50.33983612060546876 48.80886077880859376 -110.92130279541015632
v 50.33983612060546876 52.98919296264648432 -110.92130279541015632
v 49.83474349975585936 51.99789047241210944 -110.92130279541015632
v 51.12653350830078124 53.7758903503417968 -110.92130279541015632
v 56.09356307983398438 48.80886077880859376 -110.92130279541015632
v 56.59865570068359376 49.8001632690429688 -110.92130279541015632
v 55.30686187744140624 48.02216339111328125 -110.92130279541015632
v 54.31556320190429688 47.51707077026367184 -110.92130279541015632
v 53.21669769287109376 47.34302520751953124 -110.92130279541015632
v 52.11783599853515624 54.28098297119140624 -110.92130279541015632
v 54.31556320190429688 54.28098297119140624 -110.92130279541015632
v 53.21669769287109376 54.45502853393554688 -110.92130279541015632
v 55.30686187744140624 53.7758903503417968 -110.92130279541015632
v 56.7726974487304688 50.89902877807617184 -110.92130279541015632
v 56.09356307983398438 52.98919296264648432 -110.92130279541015632
v 56.59865570068359376 51.99789047241210944 -110.92130279541015632
v 49.83474349975585936 49.8001632690429688 -110.92130279541015632
v 49.66069793701171872 50.89902877807617184 -110.92130279541015632
# 320 vertices

vn 0.9876883625984192 0.15643446147441864 0
vn 0.8910065293312072 0.45399048924446104 0
vn 0.7071067690849304 0.7071067690849304 0
vn 0.45399048924446104 0.8910065293312072 0
vn 0.15643446147441864 0.9876883625984192 0
vn -0.15643446147441864 0.9876883625984192 0
vn -0.45399048924446104 0.8910065293312072 0
vn -0.7071067690849304 0.7071067690849304 0
vn -0.8910065293312072 0.45399048924446104 0
vn -0.9876883625984192 0.15643446147441864 0
vn -0.9876883625984192 -0.15643446147441864 0
vn -0.8910065293312072 -0.45399048924446104 0
vn -0.7071067690849304 -0.7071067690849304 0
vn -0.45399048924446104 -0.8910065293312072 0
vn -0.15643446147441864 -0.9876883625984192 0
vn 0.15643446147441864 -0.9876883625984192 0
vn 0.45399048924446104 -0.8910065293312072 0
vn 0.7071067690849304 -0.7071067690849304 0
vn 0.8910065293312072 -0.45399048924446104 0
vn 0.9876883625984192 -0.15643446147441864 0
vn 0 0 -1
vn 0 0 1
# 22 vertex normals

g obj_56536778
s 1
f 1//1 2//1 3//1
f 4//2 3//2 5//2
f 6//3 5//3 7//3
f 8//4 7//4 9//4
f 10//5 9//5 11//5
f 12//6 11//6 13//6
f 14//7 13//7 15//7
f 16//8 15//8 17//8
f 18//9 17//9 19//9
f 20//10 19//10 21//10
f 22//11 21//11 23//11
f 24//12 23//12 25//12
f 26//13 25//13 27//13
f 28//14 27//14 29//14
f 30//15 29//15 31//15
f 32//16 31//16 33//16
f 34//17 33//17 35//17
f 36//18 35//18 37//18
f 38//19 37//19 39//19
f 40//20 39//20 2//20
f 2//20 1//20 40//20
f 39//19 40//19 38//19
f 37//18 38//18 36//18
f 35//17 36//17 34//17
f 33//16 34//16 32//16
f 31//15 32//15 30//15
f 29//14 30//14 28//14
f 27//13 28//13 26//13
f 25//12 26//12 24//12
f 23//11 24//11 22//11
f 21//10 22//10 20//10
f 19//9 20//9 18//9
f 17//8 18//8 16//8
f 15//7 16//7 14//7
f 13//6 14//6 12//6
f 11//5 12//5 10//5
f 9//4 10//4 8//4
f 7//3 8//3 6//3
f 5//2 6//2 4//2
f 3//1 4//1 1//1
f 17//21 15//21 41//21
f 15//21 13//21 42//21
f 42//21 41//21 15//21
f 13//21 11//21 43//21
f 7//21 5//21 44//21
f 5//21 3//21 45//21
f 37//21 35//21 46//21
f 35//21 33//21 47//21
f 43//21 42//21 13//21
f 11//21 9//21 48//21
f 9//21 7//21 49//21
f 45//21 44//21 5//21
f 3//21 2//21 50//21
f 2//21 39//21 51//21
f 47//21 46//21 35//21
f 33//21 31//21 52//21
f 31//21 29//21 53//21
f 29//21 27//21 54//21
f 48//21 43//21 11//21
f 44//21 49//21 7//21
f 51//21 50//21 2//21
f 39//21 37//21 55//21
f 52//21 47//21 33//21
f 54//21 53//21 29//21
f 27//21 25//21 56//21
f 25//21 23//21 57//21
f 21//21 19//21 58//21
f 19//21 17//21 59//21
f 49//21 48//21 9//21
f 55//21 51//21 39//21
f 53//21 52//21 31//21
f 57//21 56//21 25//21
f 59//21 58//21 19//21
f 50//21 45//21 3//21
f 56//21 54//21 27//21
f 23//21 21//21 60//21
f 41//21 59//21 17//21
f 60//21 57//21 23//21
f 46//21 55//21 37//21
f 58//21 60//21 21//21
f 36//22 61//22 62//22
f 38//22 63//22 61//22
f 6//22 64//22 65//22
f 8//22 66//22 64//22
f 26//22 67//22 68//22
f 28//22 69//22 67//22
f 30//22 70//22 69//22
f 32//22 71//22 70//22
f 34//22 62//22 71//22
f 61//22 36//22 38//22
f 64//22 6//22 8//22
f 10//22 72//22 66//22
f 14//22 73//22 74//22
f 16//22 75//22 73//22
f 24//22 68//22 76//22
f 67//22 26//22 28//22
f 70//22 30//22 32//22
f 62//22 34//22 36//22
f 66//22 8//22 10//22
f 12//22 74//22 72//22
f 73//22 14//22 16//22
f 18//22 77//22 75//22
f 20//22 78//22 77//22
f 22//22 76//22 78//22
f 68//22 24//22 26//22
f 71//22 32//22 34//22
f 72//22 10//22 12//22
f 75//22 16//22 18//22
f 78//22 20//22 22//22
f 69//22 28//22 30//22
f 40//22 79//22 63//22
f 1//22 80//22 79//22
f 4//22 65//22 80//22
f 74//22 12//22 14//22
f 76//22 22//22 24//22
f 79//22 40//22 1//22
f 65//22 4//22 6//22
f 63//22 38//22 40//22
f 77//22 18//22 20//22
f 80//22 1//22 4//22
f 57//1 60//1 76//1
f 56//2 57//2 68//2
f 54//3 56//3 67//3
f 53//4 54//4 69//4
f 52//5 53//5 70//5
f 47//6 52//6 71//6
f 46//7 47//7 62//7
f 55//8 46//8 61//8
f 51//9 55//9 63//9
f 50//10 51//10 79//10
f 45//11 50//11 80//11
f 44//12 45//12 65//12
f 49//13 44//13 64//13
f 48//14 49//14 66//14
f 43//15 48//15 72//15
f 42//16 43//16 74//16
f 41//17 42//17 73//17
f 59//18 41//18 75//18
f 58//19 59//19 77//19
f 60//20 58//20 78//20
f 78//20 76//20 60//20
f 77//19 78//19 58//19
f 75//18 77//18 59//18
f 73//17 75//17 41//17
f 74//16 73//16 42//16
f 72//15 74//15 43//15
f 66//14 72//14 48//14
f 64//13 66//13 49//13
f 65//12 64//12 44//12
f 80//11 65//11 45//11
f 79//10 80//10 50//10
f 63//9 79//9 51//9
f 61//8 63//8 55//8
f 62//7 61//7 46//7
f 71//6 62//6 47//6
f 70//5 71//5 52//5
f 69//4 70//4 53//4
f 67//3 69//3 54//3
f 68//2 67//2 56//2
f 76//1 68//1 57//1
f 81//1 82//1 83//1
f 84//2 83//2 85//2
f 86//3 85//3 87//3
f 88//4 87//4 89//4
f 90//5 89//5 91//5
f 92//6 91//6 93//6
f 94//7 93//7 95//7
f 96//8 95//8 97//8
f 98//9 97//9 99//9
f 100//10 99//10 101//10
f 102//11 101//11 103//11
f 104//12 103//12 105//12
f 106//13 105//13 107//13
f 108//14 107//14 109//14
f 110//15 109//15 111//15
f 112//16 111//16 113//16
f 114//17 113//17 115//17
f 116//18 115//18 117//18
f 118//19 117//19 119//19
f 120//20 119//20 82//20
f 82//20 81//20 120//20
f 119//19 120//19 118//19
f 117//18 118//18 116//18
f 115//17 116//17 114//17
f 113//16 114//16 112//16
f 111//15 112//15 110//15
f 109//14 110//14 108//14
f 107//13 108//13 106//13
f 105//12 106//12 104//12
f 103//11 104//11 102//11
f 101//10 102//10 100//10
f 99//9 100//9 98//9
f 97//8 98//8 96//8
f 95//7 96//7 94//7
f 93//6 94//6 92//6
f 91//5 92//5 90//5
f 89//4 90//4 88//4
f 87//3 88//3 86//3
f 85//2 86//2 84//2
f 83//1 84//1 81//1
f 97//21 95//21 121//21
f 95//21 93//21 122//21
f 122//21 121//21 95//21
f 93//21 91//21 123//21
f 87//21 85//21 124//21
f 85//21 83//21 125//21
f 117//21 115//21 126//21
f 115//21 113//21 127//21
f 123//21 122//21 93//21
f 91//21 89//21 128//21
f 89//21 87//21 129//21
f 125//21 124//21 85//21
f 83//21 82//21 130//21
f 82//21 119//21 131//21
f 127//21 126//21 115//21
f 113//21 111//21 132//21
f 111//21 109//21 133//21
f 109//21 107//21 134//21
f 128//21 123//21 91//21
f 124//21 129//21 87//21
f 131//21 130//21 82//21
f 119//21 117//21 135//21
f 132//21 127//21 113//21
f 134//21 133//21 109//21
f 107//21 105//21 136//21
f 105//21 103//21 137//21
f 101//21 99//21 138//21
f 99//21 97//21 139//21
f 129//21 128//21 89//21
f 135//21 131//21 119//21
f 133//21 132//21 111//21
f 137//21 136//21 105//21
f 139//21 138//21 99//21
f 130//21 125//21 83//21
f 136//21 134//21 107//21
f 103//21 101//21 140//21
f 121//21 139//21 97//21
f 140//21 137//21 103//21
f 126//21 135//21 117//21
f 138//21 140//21 101//21
f 116//22 141//22 142//22
f 118//22 143//22 141//22
f 86//22 144//22 145//22
f 88//22 146//22 144//22
f 106//22 147//22 148//22
f 108//22 149//22 147//22
f 110//22 150//22 149//22
f 112//22 151//22 150//22
f 114//22 142//22 151//22
f 141//22 116//22 118//22
f 144//22 86//22 88//22
f 90//22 152//22 146//22
f 94//22 153//22 154//22
f 96//22 155//22 153//22
f 104//22 148//22 156//22
f 147//22 106//22 108//22
f 150//22 110//22 112//22
f 142//22 114//22 116//22
f 146//22 88//22 90//22
f 92//22 154//22 152//22
f 153//22 94//22 96//22
f 98//22 157//22 155//22
f 100//22 158//22 157//22
f 102//22 156//22 158//22
f 148//22 104//22 106//22
f 151//22 112//22 114//22
f 152//22 90//22 92//22
f 155//22 96//22 98//22
f 158//22 100//22 102//22
f 149//22 108//22 110//22
f 120//22 159//22 143//22
f 81//22 160//22 159//22
f 84//22 145//22 160//22
f 154//22 92//22 94//22
f 156//22 102//22 104//22
f 159//22 120//22 81//22
f 145//22 84//22 86//22
f 143//22 118//22 120//22
f 157//22 98//22 100//22
f 160//22 81//22 84//22
f 137//1 140//1 156//1
f 136//2 137//2 148//2
f 134//3 136//3 147//3
f 133//4 134//4 149//4
f 132//5 133//5 150//5
f 127//6 132//6 151//6
f 126//7 127//7 142//7
f 135//8 126//8 141//8
f 131//9 135//9 143//9
f 130//10 131//10 159//10
f 125//11 130//11 160//11
f 124//12 125//12 145//12
f 129//13 124//13 144//13
f 128//14 129//14 146//14
f 123//15 128//15 152//15
f 122//16 123//16 154//16
f 121//17 122//17 153//17
f 139//18 121//18 155//18
f 138//19 139//19 157//19
f 140//20 138//20 158//20
f 158//20 156//20 140//20
f 157//19 158//19 138//19
f 155//18 157//18 139//18
f 153//17 155//17 121//17
f 154//16 153//16 122//16
f 152//15 154//15 123//15
f 146//14 152//14 128//14
f 144//13 146//13 129//13
f 145//12 144//12 124//12
f 160//11 145//11 125//11
f 159//10 160//10 130//10
f 143//9 159//9 131//9
f 141//8 143//8 135//8
f 142//7 141//7 126//7
f 151//6 142//6 127//6
f 150//5 151//5 132//5
f 149//4 150//4 133//4
f 147//3 149//3 134//3
f 148//2 147//2 136//2
f 156//1 148//1 137//1
f 161//10 162//10 163//10
f 164//9 163//9 165//9
f 166//8 165//8 167//8
f 168//7 167//7 169//7
f 170//6 169//6 171//6
f 172//5 171//5 173//5
f 174//4 173//4 175//4
f 176//3 175//3 177//3
f 178//2 177//2 179//2
f 180//1 179//1 181//1
f 182//20 181//20 183//20
f 184//19 183//19 185//19
f 186//18 185//18 187//18
f 188//17 187//17 189//17
f 190//16 189//16 191//16
f 192//15 191//15 193//15
f 194//14 193//14 195//14
f 196//13 195//13 197//13
f 198//12 197//12 199//12
f 200//11 199//11 162//11
f 162//11 161//11 200//11
f 199//12 200//12 198//12
f 197//13 198//13 196//13
f 195//14 196//14 194//14
f 193//15 194//15 192//15
f 191//16 192//16 190//16
f 189//17 190//17 188//17
f 187//18 188//18 186//18
f 185//19 186//19 184//19
f 183//20 184//20 182//20
f 181//1 182//1 180//1
f 179//2 180//2 178//2
f 177//3 178//3 176//3
f 175//4 176//4 174//4
f 173//5 174//5 172//5
f 171//6 172//6 170//6
f 169//7 170//7 168//7
f 167//8 168//8 166//8
f 165//9 166//9 164//9
f 163//10 164//10 161//10
f 177//22 175//22 201//22
f 175//22 173//22 202//22
f 202//22 201//22 175//22
f 173//22 171//22 203//22
f 167//22 165//22 204//22
f 165//22 163//22 205//22
f 197//22 195//22 206//22
f 195//22 193//22 207//22
f 203//22 202//22 173//22
f 171//22 169//22 208//22
f 169//22 167//22 209//22
f 205//22 204//22 165//22
f 163//22 162//22 210//22
f 162//22 199//22 211//22
f 207//22 206//22 195//22
f 193//22 191//22 212//22
f 191//22 189//22 213//22
f 189//22 187//22 214//22
f 208//22 203//22 171//22
f 204//22 209//22 167//22
f 211//22 210//22 162//22
f 199//22 197//22 215//22
f 212//22 207//22 193//22
f 214//22 213//22 189//22
f 187//22 185//22 216//22
f 185//22 183//22 217//22
f 181//22 179//22 218//22
f 179//22 177//22 219//22
f 209//22 208//22 169//22
f 215//22 211//22 199//22
f 213//22 212//22 191//22
f 217//22 216//22 185//22
f 219//22 218//22 179//22
f 210//22 205//22 163//22
f 216//22 214//22 187//22
f 183//22 181//22 220//22
f 201//22 219//22 177//22
f 220//22 217//22 183//22
f 206//22 215//22 197//22
f 218//22 220//22 181//22
f 196//21 221//21 222//21
f 198//21 223//21 221//21
f 166//21 224//21 225//21
f 168//21 226//21 224//21
f 186//21 227//21 228//21
f 188//21 229//21 227//21
f 190//21 230//21 229//21
f 192//21 231//21 230//21
f 194//21 222//21 231//21
f 221//21 196//21 198//21
f 224//21 166//21 168//21
f 170//21 232//21 226//21
f 174//21 233//21 234//21
f 176//21 235//21 233//21
f 184//21 228//21 236//21
f 227//21 186//21 188//21
f 230//21 190//21 192//21
f 222//21 194//21 196//21
f 226//21 168//21 170//21
f 172//21 234//21 232//21
f 233//21 174//21 176//21
f 178//21 237//21 235//21
f 180//21 238//21 237//21
f 182//21 236//21 238//21
f 228//21 184//21 186//21
f 231//21 192//21 194//21
f 232//21 170//21 172//21
f 235//21 176//21 178//21
f 238//21 180//21 182//21
f 229//21 188//21 190//21
f 200//21 239//21 223//21
f 161//21 240//21 239//21
f 164//21 225//21 240//21
f 234//21 172//21 174//21
f 236//21 182//21 184//21
f 239//21 200//21 161//21
f 225//21 164//21 166//21
f 223//21 198//21 200//21
f 237//21 178//21 180//21
f 240//21 161//21 164//21
f 217//10 220//10 236//10
f 216//9 217//9 228//9
f 214//8 216//8 227//8
f 213//7 214//7 229//7
f 212//6 213//6 230//6
f 207//5 212//5 231//5
f 206//4 207//4 222//4
f 215//3 206//3 221//3
f 211//2 215//2 223//2
f 210//1 211//1 239//1
f 205//20 210//20 240//20
f 204//19 205//19 225//19
f 209//18 204//18 224//18
f 208//17 209//17 226//17
f 203//16 208//16 232//16
f 202//15 203//15 234//15
f 201//14 202//14 233//14
f 219//13 201//13 235//13
f 218//12 219//12 237//12
f 220//11 218//11 238//11
f 238//11 236//11 220//11
f 237//12 238//12 218//12
f 235//13 237//13 219//13
f 233//14 235//14 201//14
f 234//15 233//15 202//15
f 232//16 234//16 203//16
f 226//17 232//17 208//17
f 224//18 226//18 209//18
f 225//19 224//19 204//19
f 240//20 225//20 205//20
f 239//1 240//1 210//1
f 223//2 239//2 211//2
f 221//3 223//3 215//3
f 222//4 221//4 206//4
f 231//5 222//5 207//5
f 230//6 231//6 212//6
f 229//7 230//7 213//7
f 227//8 229//8 214//8
f 228//9 227//9 216//9
f 236//10 228//10 217//10
f 241//10 242//10 243//10
f 244//9 243//9 245//9
f 246//8 245//8 247//8
f 248//7 247//7 249//7
f 250//6 249//6 251//6
f 252//5 251//5 253//5
f 254//4 253//4 255//4
f 256//3 255//3 257//3
f 258//2 257//2 259//2
f 260//1 259//1 261//1
f 262//20 261//20 263//20
f 264//19 263//19 265//19
f 266//18 265//18 267//18
f 268//17 267//17 269//17
f 270//16 269//16 271//16
f 272//15 271//15 273//15
f 274//14 273//14 275//14
f 276//13 275//13 277//13
f 278//12 277//12 279//12
f 280//11 279//11 242//11
f 242//11 241//11 280//11
f 279//12 280//12 278//12
f 277//13 278//13 276//13
f 275//14 276//14 274//14
f 273//15 274//15 272//15
f 271//16 272//16 270//16
f 269//17 270//17 268//17
f 267//18 268//18 266//18
f 265//19 266//19 264//19
f 263//20 264//20 262//20
f 261//1 262//1 260//1
f 259//2 260//2 258//2
f 257//3 258//3 256//3
f 255//4 256//4 254//4
f 253//5 254//5 252//5
f 251//6 252//6 250//6
f 249//7 250//7 248//7
f 247//8 248//8 246//8
f 245//9 246//9 244//9
f 243//10 244//10 241//10
f 257//22 255//22 281//22
f 255//22 253//22 282//22
f 282//22 281//22 255//22
f 253//22 251//22 283//22
f 247//22 245//22 284//22
f 245//22 243//22 285//22
f 277//22 275//22 286//22
f 275//22 273//22 287//22
f 283//22 282//22 253//22
f 251//22 249//22 288//22
f 249//22 247//22 289//22
f 285//22 284//22 245//22
f 243//22 242//22 290//22
f 242//22 279//22 291//22
f 287//22 286//22 275//22
f 273//22 271//22 292//22
f 271//22 269//22 293//22
f 269//22 267//22 294//22
f 288//22 283//22 251//22
f 284//22 289//22 247//22
f 291//22 290//22 242//22
f 279//22 277//22 295//22
f 292//22 287//22 273//22
f 294//22 293//22 269//22
f 267//22 265//22 296//22
f 265//22 263//22 297//22
f 261//22 259//22 298//22
f 259//22 257//22 299//22
f 289//22 288//22 249//22
f 295//22 291//22 279//22
f 293//22 292//22 271//22
f 297//22 296//22 265//22
f 299//22 298//22 259//22
f 290//22 285//22 243//22
f 296//22 294//22 267//22
f 263//22 261//22 300//22
f 281//22 299//22 257//22
f 300//22 297//22 263//22
f 286//22 295//22 277//22
f 298//22 300//22 261//22
f 276//21 301//21 302//21
f 278//21 303//21 301//21
f 246//21 304//21 305//21
f 248//21 306//21 304//21
f 266//21 307//21 308//21
f 268//21 309//21 307//21
f 270//21 310//21 309//21
f 272//21 311//21 310//21
f 274//21 302//21 311//21
f 301//21 276//21 278//21
f 304//21 246//21 248//21
f 250//21 312//21 306//21
f 254//21 313//21 314//21
f 256//21 315//21 313//21
f 264//21 308//21 316//21
f 307//21 266//21 268//21
f 310//21 270//21 272//21
f 302//21 274//21 276//21
f 306//21 248//21 250//21
f 252//21 314//21 312//21
f 313//21 254//21 256//21
f 258//21 317//21 315//21
f 260//21 318//21 317//21
f 262//21 316//21 318//21
f 308//21 264//21 266//21
f 311//21 272//21 274//21
f 312//21 250//21 252//21
f 315//21 256//21 258//21
f 318//21 260//21 262//21
f 309//21 268//21 270//21
f 280//21 319//21 303//21
f 241//21 320//21 319//21
f 244//21 305//21 320//21
f 314//21 252//21 254//21
f 316//21 262//21 264//21
f 319//21 280//21 241//21
f 305//21 244//21 246//21
f 303//21 278//21 280//21
f 317//21 258//21 260//21
f 320//21 241//21 244//21
f 297//10 300//10 316//10
f 296//9 297//9 308//9
f 294//8 296//8 307//8
f 293//7 294//7 309//7
f 292//6 293//6 310//6
f 287//5 292//5 311//5
f 286//4 287//4 302//4
f 295//3 286//3 301//3
f 291//2 295//2 303//2
f 290//1 291//1 319//1
f 285//20 290//20 320//20
f 284//19 285//19 305//19
f 289//18 284//18 304//18
f 288//17 289//17 306//17
f 283//16 288//16 312//16
f 282//15 283//15 314//15
f 281//14 282//14 313//14
f 299//13 281//13 315//13
f 298//12 299//12 317//12
f 300//11 298//11 318//11
f 318//11 316//11 300//11
f 317//12 318//12 298//12
f 315//13 317//13 299//13
f 313//14 315//14 281//14
f 314//15 313//15 282//15
f 312//16 314//16 283//16
f 306//17 312//17 288//17
f 304//18 306//18 289//18
f 305//19 304//19 284//19
f 320//20 305//20 285//20
f 319//1 320//1 290//1
f 303//2 319//2 291//2
f 301//3 303//3 295//3
f 302//4 301//4 286//4
f 311//5 302//5 287//5
f 310//6 311//6 292//6
f 309//7 310//7 293//7
f 307//8 309//8 294//8
f 308//9 307//9 296//9
f 316//10 308//10 297//10
#640 polygons

