# Aspose.3D Wavefront OBJ Exporter
# Copyright 2004-2023 Aspose Pty Ltd.
# File created: 06/29/2023 05:43:29


#
# object obj_52121574
#

v -42.80820846557617184 39.13516998291015624 -84.01000213623046875
v -42.80820846557617184 39.13516998291015624 -84.46720123291015624
v -43.39273452758789064 38.24981689453125 -84.46720123291015624
v -43.39273452758789064 38.24981689453125 -84.01000213623046875
v -43.67506408691406248 37.22716522216796876 -84.46720123291015624
v -43.67506408691406248 37.22716522216796876 -84.01000213623046875
v -43.62755584716796872 36.16732406616210938 -84.46720123291015624
v -43.62755584716796872 36.16732406616210938 -84.01000213623046875
v -43.25486755371093752 35.17403030395507812 -84.46720123291015624
v -43.25486755371093752 35.17403030395507812 -84.01000213623046875
v -42.59347152709960936 34.34452438354492188 -84.46720123291015624
v -42.59347152709960936 34.34452438354492188 -84.01000213623046875
v -41.70811843872070312 33.7599983215332032 -84.46720123291015624
v -41.70811843872070312 33.7599983215332032 -84.01000213623046875
v -40.68546676635742184 33.47766876220703128 -84.46720123291015624
v -40.68546676635742184 33.47766876220703128 -84.01000213623046875
v -39.62562561035156248 33.52517700195312496 -84.46720123291015624
v -39.62562561035156248 33.52517700195312496 -84.01000213623046875
v -38.63233566284179688 33.89786911010742192 -84.46720123291015624
v -38.63233566284179688 33.89786911010742192 -84.01000213623046875
v -37.80282592773437504 34.5592613220214844 -84.46720123291015624
v -37.80282592773437504 34.5592613220214844 -84.01000213623046875
v -37.21829986572265624 35.44461441040039064 -84.46720123291015624
v -37.21829986572265624 35.44461441040039064 -84.01000213623046875
v -36.93597030639648432 36.46726608276367184 -84.46720123291015624
v -36.93597030639648432 36.46726608276367184 -84.01000213623046875
v -36.98347854614257808 37.52711105346679688 -84.46720123291015624
v -36.98347854614257808 37.52711105346679688 -84.01000213623046875
v -37.356170654296875 38.52040100097656248 -84.46720123291015624
v -37.356170654296875 38.52040100097656248 -84.01000213623046875
v -38.0175628662109375 39.34990692138671876 -84.46720123291015624
v -38.0175628662109375 39.34990692138671876 -84.01000213623046875
v -38.90291595458984368 39.93443298339843744 -84.46720123291015624
v -38.90291595458984368 39.93443298339843744 -84.01000213623046875
v -39.92556762695312496 40.21676254272460936 -84.46720123291015624
v -39.92556762695312496 40.21676254272460936 -84.01000213623046875
v -40.98541259765624992 40.16925430297851562 -84.46720123291015624
v -40.98541259765624992 40.16925430297851562 -84.01000213623046875
v -41.97870254516601568 39.79656600952148432 -84.46720123291015624
v -41.97870254516601568 39.79656600952148432 -84.01000213623046875
v -40.10202407836914062 38.65187835693359376 -84.46720123291015624
v -39.55431365966796872 38.50067138671875 -84.46720123291015624
v -42.08473587036132812 36.48307800292968752 -84.46720123291015624
v -41.8851318359375 35.95109176635742192 -84.46720123291015624
v -42.11017990112304688 37.05070877075195312 -84.46720123291015624
v -39.08013534545898438 38.18761062622070312 -84.46720123291015624
v -38.72590255737304688 37.74333953857421872 -84.46720123291015624
v -38.52629852294921872 37.21135330200195312 -84.46720123291015624
v -39.40939331054687504 35.26760101318359376 -84.46720123291015624
v -39.94137954711914064 35.06799697875976562 -84.46720123291015624
v -40.50901031494140624 35.04255294799804687 -84.46720123291015624
v -41.05672454833984375 35.19376373291015624 -84.46720123291015624
v -41.9589729309082032 37.59842300415039064 -84.46720123291015624
v -41.64591217041015624 38.072601318359375 -84.46720123291015624
v -41.20164108276367188 38.42683029174804688 -84.46720123291015624
v -41.53090286254882816 35.50682449340820312 -84.46720123291015624
v -38.5008544921875 36.64372253417968752 -84.46720123291015624
v -40.66965484619140624 38.62643432617187504 -84.46720123291015624
v -38.65206527709960936 36.09601211547851562 -84.46720123291015624
v -38.96512603759765632 35.62183380126953128 -84.46720123291015624
v -41.53090286254882816 35.50682449340820312 -84.01000213623046875
v -41.8851318359375 35.95109176635742192 -84.01000213623046875
v -41.05672454833984375 35.19376373291015624 -84.01000213623046875
v -40.50901031494140624 35.04255294799804687 -84.01000213623046875
v -39.94137954711914064 35.06799697875976562 -84.01000213623046875
v -38.65206527709960936 36.09601211547851562 -84.01000213623046875
v -38.96512603759765632 35.62183380126953128 -84.01000213623046875
v -38.5008544921875 36.64372253417968752 -84.01000213623046875
v -38.52629852294921872 37.21135330200195312 -84.01000213623046875
v -38.72590255737304688 37.74333953857421872 -84.01000213623046875
v -39.08013534545898438 38.18761062622070312 -84.01000213623046875
v -39.55431365966796872 38.50067138671875 -84.01000213623046875
v -40.10202407836914062 38.65187835693359376 -84.01000213623046875
v -39.40939331054687504 35.26760101318359376 -84.01000213623046875
v -40.66965484619140624 38.62643432617187504 -84.01000213623046875
v -42.08473587036132812 36.48307800292968752 -84.01000213623046875
v -42.11017990112304688 37.05070877075195312 -84.01000213623046875
v -41.9589729309082032 37.59842300415039064 -84.01000213623046875
v -41.20164108276367188 38.42683029174804688 -84.01000213623046875
v -41.64591217041015624 38.072601318359375 -84.01000213623046875
v 34.34452438354492188 42.59347152709960936 -84.01000213623046875
v 34.34452438354492188 42.59347152709960936 -84.46720123291015624
v 33.7599983215332032 41.70811843872070312 -84.46720123291015624
v 33.7599983215332032 41.70811843872070312 -84.01000213623046875
v 33.47766876220703128 40.68546676635742184 -84.46720123291015624
v 33.47766876220703128 40.68546676635742184 -84.01000213623046875
v 33.52517700195312496 39.62562561035156248 -84.46720123291015624
v 33.52517700195312496 39.62562561035156248 -84.01000213623046875
v 33.89786911010742192 38.63233566284179688 -84.46720123291015624
v 33.89786911010742192 38.63233566284179688 -84.01000213623046875
v 34.5592613220214844 37.80282592773437504 -84.46720123291015624
v 34.5592613220214844 37.80282592773437504 -84.01000213623046875
v 35.44461441040039064 37.21829986572265624 -84.46720123291015624
v 35.44461441040039064 37.21829986572265624 -84.01000213623046875
v 36.46726608276367184 36.93597030639648432 -84.46720123291015624
v 36.46726608276367184 36.93597030639648432 -84.01000213623046875
v 37.52711105346679688 36.98347854614257808 -84.46720123291015624
v 37.52711105346679688 36.98347854614257808 -84.01000213623046875
v 38.52040100097656248 37.356170654296875 -84.46720123291015624
v 38.52040100097656248 37.356170654296875 -84.01000213623046875
v 39.34990692138671876 38.0175628662109375 -84.46720123291015624
v 39.34990692138671876 38.0175628662109375 -84.01000213623046875
v 39.93443298339843744 38.90291595458984368 -84.46720123291015624
v 39.93443298339843744 38.90291595458984368 -84.01000213623046875
v 40.21676254272460936 39.92556762695312496 -84.46720123291015624
v 40.21676254272460936 39.92556762695312496 -84.01000213623046875
v 40.16925430297851562 40.98541259765624992 -84.46720123291015624
v 40.16925430297851562 40.98541259765624992 -84.01000213623046875
v 39.79656600952148432 41.97870254516601568 -84.46720123291015624
v 39.79656600952148432 41.97870254516601568 -84.01000213623046875
v 39.13516998291015624 42.80820846557617184 -84.46720123291015624
v 39.13516998291015624 42.80820846557617184 -84.01000213623046875
v 38.24981689453125 43.39273452758789064 -84.46720123291015624
v 38.24981689453125 43.39273452758789064 -84.01000213623046875
v 37.22716522216796876 43.67506408691406248 -84.46720123291015624
v 37.22716522216796876 43.67506408691406248 -84.01000213623046875
v 36.16732406616210938 43.62755584716796872 -84.46720123291015624
v 36.16732406616210938 43.62755584716796872 -84.01000213623046875
v 35.17403030395507812 43.25486755371093752 -84.46720123291015624
v 35.17403030395507812 43.25486755371093752 -84.01000213623046875
v 37.05070877075195312 42.11017990112304688 -84.46720123291015624
v 37.59842300415039064 41.9589729309082032 -84.46720123291015624
v 35.06799697875976562 39.94137954711914064 -84.46720123291015624
v 35.26760101318359376 39.40939331054687504 -84.46720123291015624
v 35.04255294799804687 40.50901031494140624 -84.46720123291015624
v 38.072601318359375 41.64591217041015624 -84.46720123291015624
v 38.42683029174804688 41.20164108276367188 -84.46720123291015624
v 38.62643432617187504 40.66965484619140624 -84.46720123291015624
v 37.74333953857421872 38.72590255737304688 -84.46720123291015624
v 37.21135330200195312 38.52629852294921872 -84.46720123291015624
v 36.64372253417968752 38.5008544921875 -84.46720123291015624
v 36.09601211547851562 38.65206527709960936 -84.46720123291015624
v 35.19376373291015624 41.05672454833984375 -84.46720123291015624
v 35.50682449340820312 41.53090286254882816 -84.46720123291015624
v 35.95109176635742192 41.8851318359375 -84.46720123291015624
v 35.62183380126953128 38.96512603759765632 -84.46720123291015624
v 38.65187835693359376 40.10202407836914062 -84.46720123291015624
v 36.48307800292968752 42.08473587036132812 -84.46720123291015624
v 38.50067138671875 39.55431365966796872 -84.46720123291015624
v 38.18761062622070312 39.08013534545898438 -84.46720123291015624
v 35.62183380126953128 38.96512603759765632 -84.01000213623046875
v 35.26760101318359376 39.40939331054687504 -84.01000213623046875
v 36.09601211547851562 38.65206527709960936 -84.01000213623046875
v 36.64372253417968752 38.5008544921875 -84.01000213623046875
v 37.21135330200195312 38.52629852294921872 -84.01000213623046875
v 38.50067138671875 39.55431365966796872 -84.01000213623046875
v 38.18761062622070312 39.08013534545898438 -84.01000213623046875
v 38.65187835693359376 40.10202407836914062 -84.01000213623046875
v 38.62643432617187504 40.66965484619140624 -84.01000213623046875
v 38.42683029174804688 41.20164108276367188 -84.01000213623046875
v 38.072601318359375 41.64591217041015624 -84.01000213623046875
v 37.59842300415039064 41.9589729309082032 -84.01000213623046875
v 37.05070877075195312 42.11017990112304688 -84.01000213623046875
v 37.74333953857421872 38.72590255737304688 -84.01000213623046875
v 36.48307800292968752 42.08473587036132812 -84.01000213623046875
v 35.06799697875976562 39.94137954711914064 -84.01000213623046875
v 35.04255294799804687 40.50901031494140624 -84.01000213623046875
v 35.19376373291015624 41.05672454833984375 -84.01000213623046875
v 35.95109176635742192 41.8851318359375 -84.01000213623046875
v 35.50682449340820312 41.53090286254882816 -84.01000213623046875
v -34.34452438354492188 -42.59347152709960936 -84.01000213623046875
v -34.34452438354492188 -42.59347152709960936 -84.46720123291015624
v -33.7599983215332032 -41.70811843872070312 -84.46720123291015624
v -33.7599983215332032 -41.70811843872070312 -84.01000213623046875
v -33.47766876220703128 -40.68546676635742184 -84.46720123291015624
v -33.47766876220703128 -40.68546676635742184 -84.01000213623046875
v -33.52517700195312496 -39.62562561035156248 -84.46720123291015624
v -33.52517700195312496 -39.62562561035156248 -84.01000213623046875
v -33.89786911010742192 -38.63233566284179688 -84.46720123291015624
v -33.89786911010742192 -38.63233566284179688 -84.01000213623046875
v -34.5592613220214844 -37.80282592773437504 -84.46720123291015624
v -34.5592613220214844 -37.80282592773437504 -84.01000213623046875
v -35.44461441040039064 -37.21829986572265624 -84.46720123291015624
v -35.44461441040039064 -37.21829986572265624 -84.01000213623046875
v -36.46726608276367184 -36.93597030639648432 -84.46720123291015624
v -36.46726608276367184 -36.93597030639648432 -84.01000213623046875
v -37.52711105346679688 -36.98347854614257808 -84.46720123291015624
v -37.52711105346679688 -36.98347854614257808 -84.01000213623046875
v -38.52040100097656248 -37.356170654296875 -84.46720123291015624
v -38.52040100097656248 -37.356170654296875 -84.01000213623046875
v -39.34990692138671876 -38.0175628662109375 -84.46720123291015624
v -39.34990692138671876 -38.0175628662109375 -84.01000213623046875
v -39.93443298339843744 -38.90291595458984368 -84.46720123291015624
v -39.93443298339843744 -38.90291595458984368 -84.01000213623046875
v -40.21676254272460936 -39.92556762695312496 -84.46720123291015624
v -40.21676254272460936 -39.92556762695312496 -84.01000213623046875
v -40.16925430297851562 -40.98541259765624992 -84.46720123291015624
v -40.16925430297851562 -40.98541259765624992 -84.01000213623046875
v -39.79656600952148432 -41.97870254516601568 -84.46720123291015624
v -39.79656600952148432 -41.97870254516601568 -84.01000213623046875
v -39.13516998291015624 -42.80820846557617184 -84.46720123291015624
v -39.13516998291015624 -42.80820846557617184 -84.01000213623046875
v -38.24981689453125 -43.39273452758789064 -84.46720123291015624
v -38.24981689453125 -43.39273452758789064 -84.01000213623046875
v -37.22716522216796876 -43.67506408691406248 -84.46720123291015624
v -37.22716522216796876 -43.67506408691406248 -84.01000213623046875
v -36.16732406616210938 -43.62755584716796872 -84.46720123291015624
v -36.16732406616210938 -43.62755584716796872 -84.01000213623046875
v -35.17403030395507812 -43.25486755371093752 -84.46720123291015624
v -35.17403030395507812 -43.25486755371093752 -84.01000213623046875
v -37.05070877075195312 -42.11017990112304688 -84.46720123291015624
v -37.59842300415039064 -41.9589729309082032 -84.46720123291015624
v -35.06799697875976562 -39.94137954711914064 -84.46720123291015624
v -35.26760101318359376 -39.40939331054687504 -84.46720123291015624
v -35.04255294799804687 -40.50901031494140624 -84.46720123291015624
v -38.072601318359375 -41.64591217041015624 -84.46720123291015624
v -38.42683029174804688 -41.20164108276367188 -84.46720123291015624
v -38.62643432617187504 -40.66965484619140624 -84.46720123291015624
v -37.74333953857421872 -38.72590255737304688 -84.46720123291015624
v -37.21135330200195312 -38.52629852294921872 -84.46720123291015624
v -36.64372253417968752 -38.5008544921875 -84.46720123291015624
v -36.09601211547851562 -38.65206527709960936 -84.46720123291015624
v -35.19376373291015624 -41.05672454833984375 -84.46720123291015624
v -35.50682449340820312 -41.53090286254882816 -84.46720123291015624
v -35.95109176635742192 -41.8851318359375 -84.46720123291015624
v -35.62183380126953128 -38.96512603759765632 -84.46720123291015624
v -38.65187835693359376 -40.10202407836914062 -84.46720123291015624
v -36.48307800292968752 -42.08473587036132812 -84.46720123291015624
v -38.50067138671875 -39.55431365966796872 -84.46720123291015624
v -38.18761062622070312 -39.08013534545898438 -84.46720123291015624
v -35.62183380126953128 -38.96512603759765632 -84.01000213623046875
v -35.26760101318359376 -39.40939331054687504 -84.01000213623046875
v -36.09601211547851562 -38.65206527709960936 -84.01000213623046875
v -36.64372253417968752 -38.5008544921875 -84.01000213623046875
v -37.21135330200195312 -38.52629852294921872 -84.01000213623046875
v -38.50067138671875 -39.55431365966796872 -84.01000213623046875
v -38.18761062622070312 -39.08013534545898438 -84.01000213623046875
v -38.65187835693359376 -40.10202407836914062 -84.01000213623046875
v -38.62643432617187504 -40.66965484619140624 -84.01000213623046875
v -38.42683029174804688 -41.20164108276367188 -84.01000213623046875
v -38.072601318359375 -41.64591217041015624 -84.01000213623046875
v -37.59842300415039064 -41.9589729309082032 -84.01000213623046875
v -37.05070877075195312 -42.11017990112304688 -84.01000213623046875
v -37.74333953857421872 -38.72590255737304688 -84.01000213623046875
v -36.48307800292968752 -42.08473587036132812 -84.01000213623046875
v -35.06799697875976562 -39.94137954711914064 -84.01000213623046875
v -35.04255294799804687 -40.50901031494140624 -84.01000213623046875
v -35.19376373291015624 -41.05672454833984375 -84.01000213623046875
v -35.95109176635742192 -41.8851318359375 -84.01000213623046875
v -35.50682449340820312 -41.53090286254882816 -84.01000213623046875
v 43.37705230712890624 -35.41059494018554688 -84.01000213623046875
v 43.37705230712890624 -35.41059494018554688 -84.46720123291015624
v 42.78277969360351568 -34.53174972534179688 -84.46720123291015624
v 42.78277969360351568 -34.53174972534179688 -84.01000213623046875
v 41.94601440429687504 -33.87956237792968752 -84.46720123291015624
v 41.94601440429687504 -33.87956237792968752 -84.01000213623046875
v 40.94866561889648432 -33.51786804199218752 -84.46720123291015624
v 40.94866561889648432 -33.51786804199218752 -84.01000213623046875
v 39.88836288452148432 -33.48207473754882816 -84.46720123291015624
v 39.88836288452148432 -33.48207473754882816 -84.01000213623046875
v 38.868896484375 -33.77568435668945312 -84.46720123291015624
v 38.868896484375 -33.77568435668945312 -84.01000213623046875
v 37.99005126953124992 -34.36995697021484376 -84.46720123291015624
v 37.99005126953124992 -34.36995697021484376 -84.01000213623046875
v 37.33786392211914064 -35.20671844482421876 -84.46720123291015624
v 37.33786392211914064 -35.20671844482421876 -84.01000213623046875
v 36.97616958618164064 -36.20406723022460936 -84.46720123291015624
v 36.97616958618164064 -36.20406723022460936 -84.01000213623046875
v 36.94037628173828128 -37.26436996459960936 -84.46720123291015624
v 36.94037628173828128 -37.26436996459960936 -84.01000213623046875
v 37.23398590087890624 -38.28384017944335936 -84.46720123291015624
v 37.23398590087890624 -38.28384017944335936 -84.01000213623046875
v 37.8282585144042968 -39.16268157958984376 -84.46720123291015624
v 37.8282585144042968 -39.16268157958984376 -84.01000213623046875
v 38.66501998901367184 -39.81486892700195312 -84.46720123291015624
v 38.66501998901367184 -39.81486892700195312 -84.01000213623046875
v 39.66236877441406248 -40.17656326293945312 -84.46720123291015624
v 39.66236877441406248 -40.17656326293945312 -84.01000213623046875
v 40.72267150878906256 -40.21236038208007812 -84.46720123291015624
v 40.72267150878906256 -40.21236038208007812 -84.01000213623046875
v 41.74214172363281248 -39.91875076293945312 -84.46720123291015624
v 41.74214172363281248 -39.91875076293945312 -84.01000213623046875
v 42.62098312377929688 -39.32447814941406248 -84.46720123291015624
v 42.62098312377929688 -39.32447814941406248 -84.01000213623046875
v 43.27317047119140624 -38.48771286010742184 -84.46720123291015624
v 43.27317047119140624 -38.48771286010742184 -84.01000213623046875
v 43.63486480712890624 -37.49036407470703128 -84.46720123291015624
v 43.63486480712890624 -37.49036407470703128 -84.01000213623046875
v 43.67066192626953128 -36.43006134033203128 -84.46720123291015624
v 43.67066192626953128 -36.43006134033203128 -84.01000213623046875
v 41.89493560791015632 -37.7258338928222656 -84.46720123291015624
v 41.54563522338867184 -38.17398834228515624 -84.46720123291015624
v 40.64997482299804688 -35.06408309936523438 -84.46720123291015624
v 40.08209991455078125 -35.04491043090820312 -84.46720123291015624
v 41.18413543701171876 -35.25779724121093752 -84.46720123291015624
v 41.07494354248046875 -38.49227142333984376 -84.46720123291015624
v 40.52893829345703128 -38.64952087402343752 -84.46720123291015624
v 39.9610595703125 -38.63035202026367184 -84.46720123291015624
v 38.50321197509765624 -37.07063674926757812 -84.46720123291015624
v 38.52238464355468752 -36.50275802612304688 -84.46720123291015624
v 38.71609878540039064 -35.96859741210937504 -84.46720123291015624
v 39.065399169921875 -35.5204429626464844 -84.46720123291015624
v 41.63228988647460936 -35.60709762573242184 -84.46720123291015624
v 41.9505729675292968 -36.077789306640625 -84.46720123291015624
v 42.10782241821289062 -36.62379837036132816 -84.46720123291015624
v 39.53609085083007816 -35.20216369628906248 -84.46720123291015624
v 39.42689895629882816 -38.43663406372070312 -84.46720123291015624
v 42.088653564453125 -37.19167327880859376 -84.46720123291015624
v 38.97874450683593744 -38.08733367919921875 -84.46720123291015624
v 38.6604652404785156 -37.6166419982910156 -84.46720123291015624
v 39.53609085083007816 -35.20216369628906248 -84.01000213623046875
v 40.08209991455078125 -35.04491043090820312 -84.01000213623046875
v 39.065399169921875 -35.5204429626464844 -84.01000213623046875
v 38.71609878540039064 -35.96859741210937504 -84.01000213623046875
v 38.52238464355468752 -36.50275802612304688 -84.01000213623046875
v 38.97874450683593744 -38.08733367919921875 -84.01000213623046875
v 38.6604652404785156 -37.6166419982910156 -84.01000213623046875
v 39.42689895629882816 -38.43663406372070312 -84.01000213623046875
v 39.9610595703125 -38.63035202026367184 -84.01000213623046875
v 40.52893829345703128 -38.64952087402343752 -84.01000213623046875
v 41.07494354248046875 -38.49227142333984376 -84.01000213623046875
v 41.54563522338867184 -38.17398834228515624 -84.01000213623046875
v 41.89493560791015632 -37.7258338928222656 -84.01000213623046875
v 38.50321197509765624 -37.07063674926757812 -84.01000213623046875
v 42.088653564453125 -37.19167327880859376 -84.01000213623046875
v 40.64997482299804688 -35.06408309936523438 -84.01000213623046875
v 41.18413543701171876 -35.25779724121093752 -84.01000213623046875
v 41.63228988647460936 -35.60709762573242184 -84.01000213623046875
v 42.10782241821289062 -36.62379837036132816 -84.01000213623046875
v 41.9505729675292968 -36.077789306640625 -84.01000213623046875
# 320 vertices

vn -0.83452600240707392 0.55096858739852904 0
vn -0.96394002437591552 0.2661195397377014 0
vn -0.99899691343307488 -0.04477913677692413 0
vn -0.93626499176025392 -0.35129451751708984 0
vn -0.78188496828079216 -0.6234227418899536 0
vn -0.55096858739852904 -0.83452600240707392 0
vn -0.2661195397377014 -0.96394002437591552 0
vn 0.04477913677692413 -0.99899691343307488 0
vn 0.35129451751708984 -0.93626499176025392 0
vn 0.6234227418899536 -0.78188496828079216 0
vn 0.83452600240707392 -0.55096858739852904 0
vn 0.96394002437591552 -0.2661195397377014 0
vn 0.99899691343307488 0.04477913677692413 0
vn 0.93626499176025392 0.35129451751708984 0
vn 0.78188496828079216 0.6234227418899536 0
vn 0.55096858739852904 0.83452600240707392 0
vn 0.2661195397377014 0.96394002437591552 0
vn -0.04477913677692413 0.99899691343307488 0
vn -0.35129451751708984 0.93626499176025392 0
vn -0.6234227418899536 0.78188496828079216 0
vn 0 0 -1
vn 0 0 1
vn 0.82838785648345952 0.56015491485595704 0
vn 0.61474627256393432 0.78872495889663696 0
vn 0.34092903137207032 0.94008904695510864 0
vn 0.03373929858207702 0.99943065643310544 0
vn -0.27675306797027588 0.96094107627868656 0
vn -0.56015491485595704 0.82838785648345952 0
vn -0.78872495889663696 0.61474627256393432 0
vn -0.94008904695510864 0.34092903137207032 0
vn -0.99943065643310544 0.03373929858207702 0
vn -0.96094107627868656 -0.27675306797027588 0
vn -0.82838785648345952 -0.56015491485595704 0
vn -0.61474627256393432 -0.78872495889663696 0
vn -0.34092903137207032 -0.94008904695510864 0
vn -0.03373929858207702 -0.99943065643310544 0
vn 0.27675306797027588 -0.96094107627868656 0
vn 0.56015491485595704 -0.82838785648345952 0
vn 0.78872495889663696 -0.61474627256393432 0
vn 0.94008904695510864 -0.34092903137207032 0
vn 0.99943065643310544 -0.03373929858207702 0
vn 0.96094107627868656 0.27675306797027588 0
# 42 vertex normals

g obj_52121574
s 1
f 1//1 2//1 3//1
f 4//2 3//2 5//2
f 6//3 5//3 7//3
f 8//4 7//4 9//4
f 10//5 9//5 11//5
f 12//6 11//6 13//6
f 14//7 13//7 15//7
f 16//8 15//8 17//8
f 18//9 17//9 19//9
f 20//10 19//10 21//10
f 22//11 21//11 23//11
f 24//12 23//12 25//12
f 26//13 25//13 27//13
f 28//14 27//14 29//14
f 30//15 29//15 31//15
f 32//16 31//16 33//16
f 34//17 33//17 35//17
f 36//18 35//18 37//18
f 38//19 37//19 39//19
f 40//20 39//20 2//20
f 2//20 1//20 40//20
f 39//19 40//19 38//19
f 37//18 38//18 36//18
f 35//17 36//17 34//17
f 33//16 34//16 32//16
f 31//15 32//15 30//15
f 29//14 30//14 28//14
f 27//13 28//13 26//13
f 25//12 26//12 24//12
f 23//11 24//11 22//11
f 21//10 22//10 20//10
f 19//9 20//9 18//9
f 17//8 18//8 16//8
f 15//7 16//7 14//7
f 13//6 14//6 12//6
f 11//5 12//5 10//5
f 9//4 10//4 8//4
f 7//3 8//3 6//3
f 5//2 6//2 4//2
f 3//1 4//1 1//1
f 37//21 35//21 41//21
f 35//21 33//21 42//21
f 7//21 43//21 44//21
f 7//21 5//21 45//21
f 42//21 41//21 35//21
f 33//21 31//21 46//21
f 31//21 29//21 47//21
f 29//21 27//21 48//21
f 21//21 19//21 49//21
f 19//21 17//21 50//21
f 17//21 15//21 51//21
f 15//21 13//21 52//21
f 45//21 43//21 7//21
f 5//21 3//21 53//21
f 3//21 2//21 54//21
f 2//21 39//21 55//21
f 46//21 42//21 33//21
f 48//21 47//21 29//21
f 50//21 49//21 19//21
f 52//21 51//21 15//21
f 13//21 11//21 56//21
f 11//21 9//21 44//21
f 53//21 45//21 5//21
f 55//21 54//21 2//21
f 47//21 46//21 31//21
f 27//21 25//21 57//21
f 51//21 50//21 17//21
f 44//21 56//21 11//21
f 54//21 53//21 3//21
f 39//21 37//21 58//21
f 57//21 48//21 27//21
f 25//21 23//21 59//21
f 56//21 52//21 13//21
f 58//21 55//21 39//21
f 59//21 57//21 25//21
f 23//21 21//21 60//21
f 44//21 9//21 7//21
f 60//21 59//21 23//21
f 41//21 58//21 37//21
f 49//21 60//21 21//21
f 12//22 61//22 62//22
f 14//22 63//22 61//22
f 16//22 64//22 63//22
f 18//22 65//22 64//22
f 24//22 66//22 67//22
f 26//22 68//22 66//22
f 61//22 12//22 14//22
f 64//22 16//22 18//22
f 66//22 24//22 26//22
f 28//22 69//22 68//22
f 30//22 70//22 69//22
f 32//22 71//22 70//22
f 34//22 72//22 71//22
f 36//22 73//22 72//22
f 63//22 14//22 16//22
f 20//22 74//22 65//22
f 68//22 26//22 28//22
f 70//22 30//22 32//22
f 72//22 34//22 36//22
f 38//22 75//22 73//22
f 8//22 76//22 77//22
f 8//22 10//22 62//22
f 65//22 18//22 20//22
f 22//22 67//22 74//22
f 69//22 28//22 30//22
f 73//22 36//22 38//22
f 6//22 77//22 78//22
f 62//22 76//22 8//22
f 74//22 20//22 22//22
f 71//22 32//22 34//22
f 40//22 79//22 75//22
f 1//22 80//22 79//22
f 4//22 78//22 80//22
f 77//22 6//22 8//22
f 67//22 22//22 24//22
f 79//22 40//22 1//22
f 78//22 4//22 6//22
f 75//22 38//22 40//22
f 62//22 10//22 12//22
f 80//22 1//22 4//22
f 59//1 60//1 67//1
f 57//2 59//2 66//2
f 48//3 57//3 68//3
f 47//4 48//4 69//4
f 46//5 47//5 70//5
f 42//6 46//6 71//6
f 41//7 42//7 72//7
f 58//8 41//8 73//8
f 55//9 58//9 75//9
f 54//10 55//10 79//10
f 53//11 54//11 80//11
f 45//12 53//12 78//12
f 43//13 45//13 77//13
f 44//14 43//14 76//14
f 56//15 44//15 62//15
f 52//16 56//16 61//16
f 51//17 52//17 63//17
f 50//18 51//18 64//18
f 49//19 50//19 65//19
f 60//20 49//20 74//20
f 74//20 67//20 60//20
f 65//19 74//19 49//19
f 64//18 65//18 50//18
f 63//17 64//17 51//17
f 61//16 63//16 52//16
f 62//15 61//15 56//15
f 76//14 62//14 44//14
f 77//13 76//13 43//13
f 78//12 77//12 45//12
f 80//11 78//11 53//11
f 79//10 80//10 54//10
f 75//9 79//9 55//9
f 73//8 75//8 58//8
f 72//7 73//7 41//7
f 71//6 72//6 42//6
f 70//5 71//5 46//5
f 69//4 70//4 47//4
f 68//3 69//3 48//3
f 66//2 68//2 57//2
f 67//1 66//1 59//1
f 81//1 82//1 83//1
f 84//2 83//2 85//2
f 86//3 85//3 87//3
f 88//4 87//4 89//4
f 90//5 89//5 91//5
f 92//6 91//6 93//6
f 94//7 93//7 95//7
f 96//8 95//8 97//8
f 98//9 97//9 99//9
f 100//10 99//10 101//10
f 102//11 101//11 103//11
f 104//12 103//12 105//12
f 106//13 105//13 107//13
f 108//14 107//14 109//14
f 110//15 109//15 111//15
f 112//16 111//16 113//16
f 114//17 113//17 115//17
f 116//18 115//18 117//18
f 118//19 117//19 119//19
f 120//20 119//20 82//20
f 82//20 81//20 120//20
f 119//19 120//19 118//19
f 117//18 118//18 116//18
f 115//17 116//17 114//17
f 113//16 114//16 112//16
f 111//15 112//15 110//15
f 109//14 110//14 108//14
f 107//13 108//13 106//13
f 105//12 106//12 104//12
f 103//11 104//11 102//11
f 101//10 102//10 100//10
f 99//9 100//9 98//9
f 97//8 98//8 96//8
f 95//7 96//7 94//7
f 93//6 94//6 92//6
f 91//5 92//5 90//5
f 89//4 90//4 88//4
f 87//3 88//3 86//3
f 85//2 86//2 84//2
f 83//1 84//1 81//1
f 117//21 115//21 121//21
f 115//21 113//21 122//21
f 87//21 123//21 124//21
f 87//21 85//21 125//21
f 122//21 121//21 115//21
f 113//21 111//21 126//21
f 111//21 109//21 127//21
f 109//21 107//21 128//21
f 101//21 99//21 129//21
f 99//21 97//21 130//21
f 97//21 95//21 131//21
f 95//21 93//21 132//21
f 125//21 123//21 87//21
f 85//21 83//21 133//21
f 83//21 82//21 134//21
f 82//21 119//21 135//21
f 126//21 122//21 113//21
f 128//21 127//21 109//21
f 130//21 129//21 99//21
f 132//21 131//21 95//21
f 93//21 91//21 136//21
f 91//21 89//21 124//21
f 133//21 125//21 85//21
f 135//21 134//21 82//21
f 127//21 126//21 111//21
f 107//21 105//21 137//21
f 131//21 130//21 97//21
f 124//21 136//21 91//21
f 134//21 133//21 83//21
f 119//21 117//21 138//21
f 137//21 128//21 107//21
f 105//21 103//21 139//21
f 136//21 132//21 93//21
f 138//21 135//21 119//21
f 139//21 137//21 105//21
f 103//21 101//21 140//21
f 124//21 89//21 87//21
f 140//21 139//21 103//21
f 121//21 138//21 117//21
f 129//21 140//21 101//21
f 92//22 141//22 142//22
f 94//22 143//22 141//22
f 96//22 144//22 143//22
f 98//22 145//22 144//22
f 104//22 146//22 147//22
f 106//22 148//22 146//22
f 141//22 92//22 94//22
f 144//22 96//22 98//22
f 146//22 104//22 106//22
f 108//22 149//22 148//22
f 110//22 150//22 149//22
f 112//22 151//22 150//22
f 114//22 152//22 151//22
f 116//22 153//22 152//22
f 143//22 94//22 96//22
f 100//22 154//22 145//22
f 148//22 106//22 108//22
f 150//22 110//22 112//22
f 152//22 114//22 116//22
f 118//22 155//22 153//22
f 88//22 156//22 157//22
f 88//22 90//22 142//22
f 145//22 98//22 100//22
f 102//22 147//22 154//22
f 149//22 108//22 110//22
f 153//22 116//22 118//22
f 86//22 157//22 158//22
f 142//22 156//22 88//22
f 154//22 100//22 102//22
f 151//22 112//22 114//22
f 120//22 159//22 155//22
f 81//22 160//22 159//22
f 84//22 158//22 160//22
f 157//22 86//22 88//22
f 147//22 102//22 104//22
f 159//22 120//22 81//22
f 158//22 84//22 86//22
f 155//22 118//22 120//22
f 142//22 90//22 92//22
f 160//22 81//22 84//22
f 139//1 140//1 147//1
f 137//2 139//2 146//2
f 128//3 137//3 148//3
f 127//4 128//4 149//4
f 126//5 127//5 150//5
f 122//6 126//6 151//6
f 121//7 122//7 152//7
f 138//8 121//8 153//8
f 135//9 138//9 155//9
f 134//10 135//10 159//10
f 133//11 134//11 160//11
f 125//12 133//12 158//12
f 123//13 125//13 157//13
f 124//14 123//14 156//14
f 136//15 124//15 142//15
f 132//16 136//16 141//16
f 131//17 132//17 143//17
f 130//18 131//18 144//18
f 129//19 130//19 145//19
f 140//20 129//20 154//20
f 154//20 147//20 140//20
f 145//19 154//19 129//19
f 144//18 145//18 130//18
f 143//17 144//17 131//17
f 141//16 143//16 132//16
f 142//15 141//15 136//15
f 156//14 142//14 124//14
f 157//13 156//13 123//13
f 158//12 157//12 125//12
f 160//11 158//11 133//11
f 159//10 160//10 134//10
f 155//9 159//9 135//9
f 153//8 155//8 138//8
f 152//7 153//7 121//7
f 151//6 152//6 122//6
f 150//5 151//5 126//5
f 149//4 150//4 127//4
f 148//3 149//3 128//3
f 146//2 148//2 137//2
f 147//1 146//1 139//1
f 161//11 162//11 163//11
f 164//12 163//12 165//12
f 166//13 165//13 167//13
f 168//14 167//14 169//14
f 170//15 169//15 171//15
f 172//16 171//16 173//16
f 174//17 173//17 175//17
f 176//18 175//18 177//18
f 178//19 177//19 179//19
f 180//20 179//20 181//20
f 182//1 181//1 183//1
f 184//2 183//2 185//2
f 186//3 185//3 187//3
f 188//4 187//4 189//4
f 190//5 189//5 191//5
f 192//6 191//6 193//6
f 194//7 193//7 195//7
f 196//8 195//8 197//8
f 198//9 197//9 199//9
f 200//10 199//10 162//10
f 162//10 161//10 200//10
f 199//9 200//9 198//9
f 197//8 198//8 196//8
f 195//7 196//7 194//7
f 193//6 194//6 192//6
f 191//5 192//5 190//5
f 189//4 190//4 188//4
f 187//3 188//3 186//3
f 185//2 186//2 184//2
f 183//1 184//1 182//1
f 181//20 182//20 180//20
f 179//19 180//19 178//19
f 177//18 178//18 176//18
f 175//17 176//17 174//17
f 173//16 174//16 172//16
f 171//15 172//15 170//15
f 169//14 170//14 168//14
f 167//13 168//13 166//13
f 165//12 166//12 164//12
f 163//11 164//11 161//11
f 197//21 195//21 201//21
f 195//21 193//21 202//21
f 167//21 203//21 204//21
f 167//21 165//21 205//21
f 202//21 201//21 195//21
f 193//21 191//21 206//21
f 191//21 189//21 207//21
f 189//21 187//21 208//21
f 181//21 179//21 209//21
f 179//21 177//21 210//21
f 177//21 175//21 211//21
f 175//21 173//21 212//21
f 205//21 203//21 167//21
f 165//21 163//21 213//21
f 163//21 162//21 214//21
f 162//21 199//21 215//21
f 206//21 202//21 193//21
f 208//21 207//21 189//21
f 210//21 209//21 179//21
f 212//21 211//21 175//21
f 173//21 171//21 216//21
f 171//21 169//21 204//21
f 213//21 205//21 165//21
f 215//21 214//21 162//21
f 207//21 206//21 191//21
f 187//21 185//21 217//21
f 211//21 210//21 177//21
f 204//21 216//21 171//21
f 214//21 213//21 163//21
f 199//21 197//21 218//21
f 217//21 208//21 187//21
f 185//21 183//21 219//21
f 216//21 212//21 173//21
f 218//21 215//21 199//21
f 219//21 217//21 185//21
f 183//21 181//21 220//21
f 204//21 169//21 167//21
f 220//21 219//21 183//21
f 201//21 218//21 197//21
f 209//21 220//21 181//21
f 172//22 221//22 222//22
f 174//22 223//22 221//22
f 176//22 224//22 223//22
f 178//22 225//22 224//22
f 184//22 226//22 227//22
f 186//22 228//22 226//22
f 221//22 172//22 174//22
f 224//22 176//22 178//22
f 226//22 184//22 186//22
f 188//22 229//22 228//22
f 190//22 230//22 229//22
f 192//22 231//22 230//22
f 194//22 232//22 231//22
f 196//22 233//22 232//22
f 223//22 174//22 176//22
f 180//22 234//22 225//22
f 228//22 186//22 188//22
f 230//22 190//22 192//22
f 232//22 194//22 196//22
f 198//22 235//22 233//22
f 168//22 236//22 237//22
f 168//22 170//22 222//22
f 225//22 178//22 180//22
f 182//22 227//22 234//22
f 229//22 188//22 190//22
f 233//22 196//22 198//22
f 166//22 237//22 238//22
f 222//22 236//22 168//22
f 234//22 180//22 182//22
f 231//22 192//22 194//22
f 200//22 239//22 235//22
f 161//22 240//22 239//22
f 164//22 238//22 240//22
f 237//22 166//22 168//22
f 227//22 182//22 184//22
f 239//22 200//22 161//22
f 238//22 164//22 166//22
f 235//22 198//22 200//22
f 222//22 170//22 172//22
f 240//22 161//22 164//22
f 219//11 220//11 227//11
f 217//12 219//12 226//12
f 208//13 217//13 228//13
f 207//14 208//14 229//14
f 206//15 207//15 230//15
f 202//16 206//16 231//16
f 201//17 202//17 232//17
f 218//18 201//18 233//18
f 215//19 218//19 235//19
f 214//20 215//20 239//20
f 213//1 214//1 240//1
f 205//2 213//2 238//2
f 203//3 205//3 237//3
f 204//4 203//4 236//4
f 216//5 204//5 222//5
f 212//6 216//6 221//6
f 211//7 212//7 223//7
f 210//8 211//8 224//8
f 209//9 210//9 225//9
f 220//10 209//10 234//10
f 234//10 227//10 220//10
f 225//9 234//9 209//9
f 224//8 225//8 210//8
f 223//7 224//7 211//7
f 221//6 223//6 212//6
f 222//5 221//5 216//5
f 236//4 222//4 204//4
f 237//3 236//3 203//3
f 238//2 237//2 205//2
f 240//1 238//1 213//1
f 239//20 240//20 214//20
f 235//19 239//19 215//19
f 233//18 235//18 218//18
f 232//17 233//17 201//17
f 231//16 232//16 202//16
f 230//15 231//15 206//15
f 229//14 230//14 207//14
f 228//13 229//13 208//13
f 226//12 228//12 217//12
f 227//11 226//11 219//11
f 241//23 242//23 243//23
f 244//24 243//24 245//24
f 246//25 245//25 247//25
f 248//26 247//26 249//26
f 250//27 249//27 251//27
f 252//28 251//28 253//28
f 254//29 253//29 255//29
f 256//30 255//30 257//30
f 258//31 257//31 259//31
f 260//32 259//32 261//32
f 262//33 261//33 263//33
f 264//34 263//34 265//34
f 266//35 265//35 267//35
f 268//36 267//36 269//36
f 270//37 269//37 271//37
f 272//38 271//38 273//38
f 274//39 273//39 275//39
f 276//40 275//40 277//40
f 278//41 277//41 279//41
f 280//42 279//42 242//42
f 242//42 241//42 280//42
f 279//41 280//41 278//41
f 277//40 278//40 276//40
f 275//39 276//39 274//39
f 273//38 274//38 272//38
f 271//37 272//37 270//37
f 269//36 270//36 268//36
f 267//35 268//35 266//35
f 265//34 266//34 264//34
f 263//33 264//33 262//33
f 261//32 262//32 260//32
f 259//31 260//31 258//31
f 257//30 258//30 256//30
f 255//29 256//29 254//29
f 253//28 254//28 252//28
f 251//27 252//27 250//27
f 249//26 250//26 248//26
f 247//25 248//25 246//25
f 245//24 246//24 244//24
f 243//23 244//23 241//23
f 277//21 275//21 281//21
f 275//21 273//21 282//21
f 247//21 283//21 284//21
f 247//21 245//21 285//21
f 282//21 281//21 275//21
f 273//21 271//21 286//21
f 271//21 269//21 287//21
f 269//21 267//21 288//21
f 261//21 259//21 289//21
f 259//21 257//21 290//21
f 257//21 255//21 291//21
f 255//21 253//21 292//21
f 285//21 283//21 247//21
f 245//21 243//21 293//21
f 243//21 242//21 294//21
f 242//21 279//21 295//21
f 286//21 282//21 273//21
f 288//21 287//21 269//21
f 290//21 289//21 259//21
f 292//21 291//21 255//21
f 253//21 251//21 296//21
f 251//21 249//21 284//21
f 293//21 285//21 245//21
f 295//21 294//21 242//21
f 287//21 286//21 271//21
f 267//21 265//21 297//21
f 291//21 290//21 257//21
f 284//21 296//21 251//21
f 294//21 293//21 243//21
f 279//21 277//21 298//21
f 297//21 288//21 267//21
f 265//21 263//21 299//21
f 296//21 292//21 253//21
f 298//21 295//21 279//21
f 299//21 297//21 265//21
f 263//21 261//21 300//21
f 284//21 249//21 247//21
f 300//21 299//21 263//21
f 281//21 298//21 277//21
f 289//21 300//21 261//21
f 252//22 301//22 302//22
f 254//22 303//22 301//22
f 256//22 304//22 303//22
f 258//22 305//22 304//22
f 264//22 306//22 307//22
f 266//22 308//22 306//22
f 301//22 252//22 254//22
f 304//22 256//22 258//22
f 306//22 264//22 266//22
f 268//22 309//22 308//22
f 270//22 310//22 309//22
f 272//22 311//22 310//22
f 274//22 312//22 311//22
f 276//22 313//22 312//22
f 303//22 254//22 256//22
f 260//22 314//22 305//22
f 308//22 266//22 268//22
f 310//22 270//22 272//22
f 312//22 274//22 276//22
f 278//22 315//22 313//22
f 248//22 316//22 317//22
f 248//22 250//22 302//22
f 305//22 258//22 260//22
f 262//22 307//22 314//22
f 309//22 268//22 270//22
f 313//22 276//22 278//22
f 246//22 317//22 318//22
f 302//22 316//22 248//22
f 314//22 260//22 262//22
f 311//22 272//22 274//22
f 280//22 319//22 315//22
f 241//22 320//22 319//22
f 244//22 318//22 320//22
f 317//22 246//22 248//22
f 307//22 262//22 264//22
f 319//22 280//22 241//22
f 318//22 244//22 246//22
f 315//22 278//22 280//22
f 302//22 250//22 252//22
f 320//22 241//22 244//22
f 299//23 300//23 307//23
f 297//24 299//24 306//24
f 288//25 297//25 308//25
f 287//26 288//26 309//26
f 286//27 287//27 310//27
f 282//28 286//28 311//28
f 281//29 282//29 312//29
f 298//30 281//30 313//30
f 295//31 298//31 315//31
f 294//32 295//32 319//32
f 293//33 294//33 320//33
f 285//34 293//34 318//34
f 283//35 285//35 317//35
f 284//36 283//36 316//36
f 296//37 284//37 302//37
f 292//38 296//38 301//38
f 291//39 292//39 303//39
f 290//40 291//40 304//40
f 289//41 290//41 305//41
f 300//42 289//42 314//42
f 314//42 307//42 300//42
f 305//41 314//41 289//41
f 304//40 305//40 290//40
f 303//39 304//39 291//39
f 301//38 303//38 292//38
f 302//37 301//37 296//37
f 316//36 302//36 284//36
f 317//35 316//35 283//35
f 318//34 317//34 285//34
f 320//33 318//33 293//33
f 319//32 320//32 294//32
f 315//31 319//31 295//31
f 313//30 315//30 298//30
f 312//29 313//29 281//29
f 311//28 312//28 282//28
f 310//27 311//27 286//27
f 309//26 310//26 287//26
f 308//25 309//25 288//25
f 306//24 308//24 297//24
f 307//23 306//23 299//23
#640 polygons

