# Aspose.3D Wavefront OBJ Exporter
# Copyright 2004-2023 Aspose Pty Ltd.
# File created: 06/29/2023 05:47:48


#
# object obj_47070098
#

v 48.49338150024414064 48.49338150024414064 -58.61000061035156248
v 48.88583374023437504 47.28554153442382812 -58.61000061035156248
v 49.23987197875976564 47.46593093872070312 -58.61000061035156248
v 49.52083587646484376 47.74689483642578128 -58.61000061035156248
v 49.70122528076171872 48.10093307495117188 -58.61000061035156248
v 49.76338195800781248 48.49338150024414064 -58.61000061035156248
v 49.70122528076171872 48.88583374023437504 -58.61000061035156248
v 49.52083587646484376 49.23987197875976564 -58.61000061035156248
v 49.23987197875976564 49.52083587646484376 -58.61000061035156248
v 48.88583374023437504 49.70122528076171872 -58.61000061035156248
v 48.49338150024414064 49.76338195800781248 -58.61000061035156248
v 48.10093307495117188 49.70122528076171872 -58.61000061035156248
v 47.74689483642578128 49.52083587646484376 -58.61000061035156248
v 47.46593093872070312 49.23987197875976564 -58.61000061035156248
v 47.28554153442382812 48.88583374023437504 -58.61000061035156248
v 47.22338485717773436 48.49338150024414064 -58.61000061035156248
v 47.28554153442382812 48.10093307495117188 -58.61000061035156248
v 47.46593093872070312 47.74689483642578128 -58.61000061035156248
v 47.74689483642578128 47.46593093872070312 -58.61000061035156248
v 48.10093307495117188 47.28554153442382812 -58.61000061035156248
v 48.49338150024414064 47.22338485717773436 -58.61000061035156248
v 48.49338150024414064 46.9058837890625 -58.9275016784667968
v 48.00281906127929687 46.98358154296875008 -58.9275016784667968
v 47.56027221679687504 47.20906829833984376 -58.9275016784667968
v 47.20906829833984376 47.56027221679687504 -58.9275016784667968
v 46.98358154296875008 48.00281906127929687 -58.9275016784667968
v 46.9058837890625 48.49338150024414064 -58.9275016784667968
v 46.98358154296875008 48.98394775390624992 -58.9275016784667968
v 47.20906829833984376 49.42649078369140624 -58.9275016784667968
v 47.56027221679687504 49.7776985168457032 -58.9275016784667968
v 48.00281906127929687 50.00318527221679687 -58.9275016784667968
v 48.49338150024414064 50.08088302612304688 -58.9275016784667968
v 48.98394775390624992 50.00318527221679687 -58.9275016784667968
v 49.42649078369140624 49.7776985168457032 -58.9275016784667968
v 49.7776985168457032 49.42649078369140624 -58.9275016784667968
v 50.00318527221679687 48.98394775390624992 -58.9275016784667968
v 50.08088302612304688 48.49338150024414064 -58.9275016784667968
v 50.00318527221679687 48.00281906127929687 -58.9275016784667968
v 49.7776985168457032 47.56027221679687504 -58.9275016784667968
v 49.42649078369140624 47.20906829833984376 -58.9275016784667968
v 48.98394775390624992 46.98358154296875008 -58.9275016784667968
v 48.49338150024414064 46.9058837890625 -74.16750335693359376
v 48.00281906127929687 46.98358154296875008 -74.16750335693359376
v 47.56027221679687504 47.20906829833984376 -74.16750335693359376
v 47.20906829833984376 47.56027221679687504 -74.16750335693359376
v 46.98358154296875008 48.00281906127929687 -74.16750335693359376
v 46.9058837890625 48.49338150024414064 -74.16750335693359376
v 46.98358154296875008 48.98394775390624992 -74.16750335693359376
v 47.20906829833984376 49.42649078369140624 -74.16750335693359376
v 47.56027221679687504 49.7776985168457032 -74.16750335693359376
v 48.00281906127929687 50.00318527221679687 -74.16750335693359376
v 48.49338150024414064 50.08088302612304688 -74.16750335693359376
v 48.98394775390624992 50.00318527221679687 -74.16750335693359376
v 49.42649078369140624 49.7776985168457032 -74.16750335693359376
v 49.7776985168457032 49.42649078369140624 -74.16750335693359376
v 50.00318527221679687 48.98394775390624992 -74.16750335693359376
v 50.08088302612304688 48.49338150024414064 -74.16750335693359376
v 50.00318527221679687 48.00281906127929687 -74.16750335693359376
v 49.7776985168457032 47.56027221679687504 -74.16750335693359376
v 49.42649078369140624 47.20906829833984376 -74.16750335693359376
v 48.98394775390624992 46.98358154296875008 -74.16750335693359376
v 48.49338150024414064 49.76338195800781248 -74.48500061035156248
v 48.10093307495117188 49.70122528076171872 -74.48500061035156248
v 47.74689483642578128 49.52083587646484376 -74.48500061035156248
v 47.46593093872070312 49.23987197875976564 -74.48500061035156248
v 47.28554153442382812 48.88583374023437504 -74.48500061035156248
v 47.22338485717773436 48.49338150024414064 -74.48500061035156248
v 47.28554153442382812 48.10093307495117188 -74.48500061035156248
v 47.46593093872070312 47.74689483642578128 -74.48500061035156248
v 47.74689483642578128 47.46593093872070312 -74.48500061035156248
v 48.10093307495117188 47.28554153442382812 -74.48500061035156248
v 48.49338150024414064 47.22338485717773436 -74.48500061035156248
v 48.88583374023437504 47.28554153442382812 -74.48500061035156248
v 49.23987197875976564 47.46593093872070312 -74.48500061035156248
v 49.52083587646484376 47.74689483642578128 -74.48500061035156248
v 49.70122528076171872 48.10093307495117188 -74.48500061035156248
v 49.76338195800781248 48.49338150024414064 -74.48500061035156248
v 49.70122528076171872 48.88583374023437504 -74.48500061035156248
v 49.52083587646484376 49.23987197875976564 -74.48500061035156248
v 49.23987197875976564 49.52083587646484376 -74.48500061035156248
v 48.88583374023437504 49.70122528076171872 -74.48500061035156248
v 48.49338150024414064 48.49338150024414064 -74.48500061035156248
v 54.55522155761718752 2.44538855552673336 -59.4037513732910156
v 55.42243576049804688 1.51757550239562992 -59.4037513732910156
v 55.66670227050781248 1.83097028732299808 -59.4037513732910156
v 55.80216979980468752 2.20450854301452636 -59.4037513732910156
v 55.81557464599609376 2.60162591934204104 -59.4037513732910156
v 55.70560836791992184 2.98344969749450688 -59.4037513732910156
v 55.4830360412597656 3.3126041889190674 -59.4037513732910156
v 55.16963958740234376 3.55686974525451664 -59.4037513732910156
v 54.79610061645507808 3.69233560562133792 -59.4037513732910156
v 54.3989830017089844 3.70574164390563968 -59.4037513732910156
v 54.01715850830078125 3.59577560424804688 -59.4037513732910156
v 53.68800735473632816 3.37320160865783688 -59.4037513732910156
v 53.44374084472656248 3.05980706214904785 -59.4037513732910156
v 53.30827331542968752 2.6862685680389404 -59.4037513732910156
v 53.29486846923828124 2.28915143013000488 -59.4037513732910156
v 53.40483474731445312 1.90732765197753904 -59.4037513732910156
v 53.62740707397460936 1.57817304134368896 -59.4037513732910156
v 53.9408035278320312 1.33390760421752928 -59.4037513732910156
v 54.31434249877929688 1.19844162464141844 -59.4037513732910156
v 54.71146011352539064 1.18503558635711668 -59.4037513732910156
v 55.09328079223632812 1.29500162601470948 -59.4037513732910156
v 55.22779846191406248 1.00740480422973632 -59.72124862670898432
v 54.75051879882812496 0.86994725465774544 -59.72124862670898432
v 54.254119873046875 0.88670486211776736 -59.72124862670898432
v 53.78719711303710944 1.0560373067855835 -59.72124862670898432
v 53.39545440673828128 1.36136913299560544 -59.72124862670898432
v 53.11723709106445312 1.77281236648559568 -59.72124862670898432
v 52.97977828979492192 2.2500920295715332 -59.72124862670898432
v 52.99653625488281248 2.74648857116699216 -59.72124862670898432
v 53.16587066650390624 3.21341156959533692 -59.72124862670898432
v 53.47120285034179688 3.60515499114990232 -59.72124862670898432
v 53.88264465332031248 3.8833723068237304 -59.72124862670898432
v 54.35992431640625 4.02083015441894531 -59.72124862670898432
v 54.8563232421875 4.00407218933105468 -59.72124862670898432
v 55.32324600219726564 3.8347399234771728 -59.72124862670898432
v 55.71498870849609376 3.5294082164764404 -59.72124862670898432
v 55.99320602416992192 3.1179649829864502 -59.72124862670898432
v 56.1306610107421875 2.64068531990051272 -59.72124862670898432
v 56.1139068603515625 2.1442885398864746 -59.72124862670898432
v 55.9445724487304688 1.67736566066741944 -59.72124862670898432
v 55.63924026489257816 1.285622239112854 -59.72124862670898432
v 55.22779846191406248 1.00740480422973632 -74.96125030517578128
v 54.75051879882812496 0.86994725465774544 -74.96125030517578128
v 54.254119873046875 0.88670486211776736 -74.96125030517578128
v 53.78719711303710944 1.0560373067855835 -74.96125030517578128
v 53.39545440673828128 1.36136913299560544 -74.96125030517578128
v 53.11723709106445312 1.77281236648559568 -74.96125030517578128
v 52.97977828979492192 2.2500920295715332 -74.96125030517578128
v 52.99653625488281248 2.74648857116699216 -74.96125030517578128
v 53.16587066650390624 3.21341156959533692 -74.96125030517578128
v 53.47120285034179688 3.60515499114990232 -74.96125030517578128
v 53.88264465332031248 3.8833723068237304 -74.96125030517578128
v 54.35992431640625 4.02083015441894531 -74.96125030517578128
v 54.8563232421875 4.00407218933105468 -74.96125030517578128
v 55.32324600219726564 3.8347399234771728 -74.96125030517578128
v 55.71498870849609376 3.5294082164764404 -74.96125030517578128
v 55.99320602416992192 3.1179649829864502 -74.96125030517578128
v 56.1306610107421875 2.64068531990051272 -74.96125030517578128
v 56.1139068603515625 2.1442885398864746 -74.96125030517578128
v 55.9445724487304688 1.67736566066741944 -74.96125030517578128
v 55.63924026489257816 1.285622239112854 -74.96125030517578128
v 54.01715850830078125 3.59577560424804688 -75.27874755859375
v 53.68800735473632816 3.37320160865783688 -75.27874755859375
v 53.44374084472656248 3.05980706214904785 -75.27874755859375
v 53.30827331542968752 2.6862685680389404 -75.27874755859375
v 53.29486846923828124 2.28915143013000488 -75.27874755859375
v 53.40483474731445312 1.90732765197753904 -75.27874755859375
v 53.62740707397460936 1.57817304134368896 -75.27874755859375
v 53.9408035278320312 1.33390760421752928 -75.27874755859375
v 54.31434249877929688 1.19844162464141844 -75.27874755859375
v 54.71146011352539064 1.18503558635711668 -75.27874755859375
v 55.09328079223632812 1.29500162601470948 -75.27874755859375
v 55.42243576049804688 1.51757550239562992 -75.27874755859375
v 55.66670227050781248 1.83097028732299808 -75.27874755859375
v 55.80216979980468752 2.20450854301452636 -75.27874755859375
v 55.81557464599609376 2.60162591934204104 -75.27874755859375
v 55.70560836791992184 2.98344969749450688 -75.27874755859375
v 55.4830360412597656 3.3126041889190674 -75.27874755859375
v 55.16963958740234376 3.55686974525451664 -75.27874755859375
v 54.79610061645507808 3.69233560562133792 -75.27874755859375
v 54.3989830017089844 3.70574164390563968 -75.27874755859375
v 54.55522155761718752 2.44538855552673336 -75.27874755859375
v -54.55522155761718752 -2.44538855552673336 -63.3725013732910156
v -55.4830360412597656 -3.3126041889190674 -63.3725013732910156
v -55.16963958740234376 -3.55686974525451664 -63.3725013732910156
v -54.79610061645507808 -3.69233560562133792 -63.3725013732910156
v -54.3989830017089844 -3.70574164390563968 -63.3725013732910156
v -54.01715850830078125 -3.59577560424804688 -63.3725013732910156
v -53.68800735473632816 -3.37320160865783688 -63.3725013732910156
v -53.44374084472656248 -3.05980706214904785 -63.3725013732910156
v -53.30827331542968752 -2.6862685680389404 -63.3725013732910156
v -53.29486846923828124 -2.28915143013000488 -63.3725013732910156
v -53.40483474731445312 -1.90732765197753904 -63.3725013732910156
v -53.62740707397460936 -1.57817304134368896 -63.3725013732910156
v -53.9408035278320312 -1.33390760421752928 -63.3725013732910156
v -54.31434249877929688 -1.19844162464141844 -63.3725013732910156
v -54.71146011352539064 -1.18503558635711668 -63.3725013732910156
v -55.09328079223632812 -1.29500162601470948 -63.3725013732910156
v -55.42243576049804688 -1.51757550239562992 -63.3725013732910156
v -55.66670227050781248 -1.83097028732299808 -63.3725013732910156
v -55.80216979980468752 -2.20450854301452636 -63.3725013732910156
v -55.81557464599609376 -2.60162591934204104 -63.3725013732910156
v -55.70560836791992184 -2.98344969749450688 -63.3725013732910156
v -55.99320602416992192 -3.1179649829864502 -63.6899986267089844
v -56.1306610107421875 -2.64068531990051272 -63.6899986267089844
v -56.1139068603515625 -2.1442885398864746 -63.6899986267089844
v -55.9445724487304688 -1.67736566066741944 -63.6899986267089844
v -55.63924026489257816 -1.285622239112854 -63.6899986267089844
v -55.22779846191406248 -1.00740480422973632 -63.6899986267089844
v -54.75051879882812496 -0.86994725465774544 -63.6899986267089844
v -54.254119873046875 -0.88670486211776736 -63.6899986267089844
v -53.78719711303710944 -1.0560373067855835 -63.6899986267089844
v -53.39545440673828128 -1.36136913299560544 -63.6899986267089844
v -53.11723709106445312 -1.77281236648559568 -63.6899986267089844
v -52.97977828979492192 -2.2500920295715332 -63.6899986267089844
v -52.99653625488281248 -2.74648857116699216 -63.6899986267089844
v -53.16587066650390624 -3.21341156959533692 -63.6899986267089844
v -53.47120285034179688 -3.60515499114990232 -63.6899986267089844
v -53.88264465332031248 -3.8833723068237304 -63.6899986267089844
v -54.35992431640625 -4.02083015441894531 -63.6899986267089844
v -54.8563232421875 -4.00407218933105468 -63.6899986267089844
v -55.32324600219726564 -3.8347399234771728 -63.6899986267089844
v -55.71498870849609376 -3.5294082164764404 -63.6899986267089844
v -55.99320602416992192 -3.1179649829864502 -78.93000030517578128
v -56.1306610107421875 -2.64068531990051272 -78.93000030517578128
v -56.1139068603515625 -2.1442885398864746 -78.93000030517578128
v -55.9445724487304688 -1.67736566066741944 -78.93000030517578128
v -55.63924026489257816 -1.285622239112854 -78.93000030517578128
v -55.22779846191406248 -1.00740480422973632 -78.93000030517578128
v -54.75051879882812496 -0.86994725465774544 -78.93000030517578128
v -54.254119873046875 -0.88670486211776736 -78.93000030517578128
v -53.78719711303710944 -1.0560373067855835 -78.93000030517578128
v -53.39545440673828128 -1.36136913299560544 -78.93000030517578128
v -53.11723709106445312 -1.77281236648559568 -78.93000030517578128
v -52.97977828979492192 -2.2500920295715332 -78.93000030517578128
v -52.99653625488281248 -2.74648857116699216 -78.93000030517578128
v -53.16587066650390624 -3.21341156959533692 -78.93000030517578128
v -53.47120285034179688 -3.60515499114990232 -78.93000030517578128
v -53.88264465332031248 -3.8833723068237304 -78.93000030517578128
v -54.35992431640625 -4.02083015441894531 -78.93000030517578128
v -54.8563232421875 -4.00407218933105468 -78.93000030517578128
v -55.32324600219726564 -3.8347399234771728 -78.93000030517578128
v -55.71498870849609376 -3.5294082164764404 -78.93000030517578128
v -53.40483474731445312 -1.90732765197753904 -79.24749755859375
v -53.62740707397460936 -1.57817304134368896 -79.24749755859375
v -53.9408035278320312 -1.33390760421752928 -79.24749755859375
v -54.31434249877929688 -1.19844162464141844 -79.24749755859375
v -54.71146011352539064 -1.18503558635711668 -79.24749755859375
v -55.09328079223632812 -1.29500162601470948 -79.24749755859375
v -55.42243576049804688 -1.51757550239562992 -79.24749755859375
v -55.66670227050781248 -1.83097028732299808 -79.24749755859375
v -55.80216979980468752 -2.20450854301452636 -79.24749755859375
v -55.81557464599609376 -2.60162591934204104 -79.24749755859375
v -55.70560836791992184 -2.98344969749450688 -79.24749755859375
v -55.4830360412597656 -3.3126041889190674 -79.24749755859375
v -55.16963958740234376 -3.55686974525451664 -79.24749755859375
v -54.79610061645507808 -3.69233560562133792 -79.24749755859375
v -54.3989830017089844 -3.70574164390563968 -79.24749755859375
v -54.01715850830078125 -3.59577560424804688 -79.24749755859375
v -53.68800735473632816 -3.37320160865783688 -79.24749755859375
v -53.44374084472656248 -3.05980706214904785 -79.24749755859375
v -53.30827331542968752 -2.6862685680389404 -79.24749755859375
v -53.29486846923828124 -2.28915143013000488 -79.24749755859375
v -54.55522155761718752 -2.44538855552673336 -79.24749755859375
# 246 vertices

vn 0 0 1
vn -0.11129888892173768 -0.70271348953247072 0.70271348953247072
vn -0.3230019509792328 -0.63392698764801024 0.70271348953247072
vn -0.50308734178543088 -0.50308734178543088 0.70271348953247072
vn -0.63392698764801024 -0.3230019509792328 0.70271348953247072
vn -0.70271348953247072 -0.11129888892173768 0.70271348953247072
vn -0.70271348953247072 0.11129888892173768 0.70271348953247072
vn -0.63392698764801024 0.3230019509792328 0.70271348953247072
vn -0.50308734178543088 0.50308734178543088 0.70271348953247072
vn -0.3230019509792328 0.63392698764801024 0.70271348953247072
vn -0.11129888892173768 0.70271348953247072 0.70271348953247072
vn 0.11129888892173768 0.70271348953247072 0.70271348953247072
vn 0.3230019509792328 0.63392698764801024 0.70271348953247072
vn 0.50308734178543088 0.50308734178543088 0.70271348953247072
vn 0.63392698764801024 0.3230019509792328 0.70271348953247072
vn 0.70271348953247072 0.11129888892173768 0.70271348953247072
vn 0.70271348953247072 -0.11129888892173768 0.70271348953247072
vn 0.63392698764801024 -0.3230019509792328 0.70271348953247072
vn 0.50308734178543088 -0.50308734178543088 0.70271348953247072
vn 0.3230019509792328 -0.63392698764801024 0.70271348953247072
vn 0.11129888892173768 -0.70271348953247072 0.70271348953247072
vn -0.15643446147441864 -0.9876883625984192 0
vn -0.45399048924446104 -0.8910065293312072 0
vn -0.7071067690849304 -0.7071067690849304 0
vn -0.8910065293312072 -0.45399048924446104 0
vn -0.9876883625984192 -0.15643446147441864 0
vn -0.9876883625984192 0.15643446147441864 0
vn -0.8910065293312072 0.45399048924446104 0
vn -0.7071067690849304 0.7071067690849304 0
vn -0.45399048924446104 0.8910065293312072 0
vn -0.15643446147441864 0.9876883625984192 0
vn 0.15643446147441864 0.9876883625984192 0
vn 0.45399048924446104 0.8910065293312072 0
vn 0.7071067690849304 0.7071067690849304 0
vn 0.8910065293312072 0.45399048924446104 0
vn 0.9876883625984192 0.15643446147441864 0
vn 0.9876883625984192 -0.15643446147441864 0
vn 0.8910065293312072 -0.45399048924446104 0
vn 0.7071067690849304 -0.7071067690849304 0
vn 0.45399048924446104 -0.8910065293312072 0
vn 0.15643446147441864 -0.9876883625984192 0
vn -0.11129888892173768 0.70271348953247072 -0.70271348953247072
vn -0.3230019509792328 0.63392698764801024 -0.70271348953247072
vn -0.50308734178543088 0.50308734178543088 -0.70271348953247072
vn -0.63392698764801024 0.3230019509792328 -0.70271348953247072
vn -0.70271348953247072 0.11129888892173768 -0.70271348953247072
vn -0.70271348953247072 -0.11129888892173768 -0.70271348953247072
vn -0.63392698764801024 -0.3230019509792328 -0.70271348953247072
vn -0.50308734178543088 -0.50308734178543088 -0.70271348953247072
vn -0.3230019509792328 -0.63392698764801024 -0.70271348953247072
vn -0.11129888892173768 -0.70271348953247072 -0.70271348953247072
vn 0.11129888892173768 -0.70271348953247072 -0.70271348953247072
vn 0.3230019509792328 -0.63392698764801024 -0.70271348953247072
vn 0.50308734178543088 -0.50308734178543088 -0.70271348953247072
vn 0.63392698764801024 -0.3230019509792328 -0.70271348953247072
vn 0.70271348953247072 -0.11129888892173768 -0.70271348953247072
vn 0.70271348953247072 0.11129888892173768 -0.70271348953247072
vn 0.63392698764801024 0.3230019509792328 -0.70271348953247072
vn 0.50308734178543088 0.50308734178543088 -0.70271348953247072
vn 0.3230019509792328 0.63392698764801024 -0.70271348953247072
vn 0.11129888892173768 0.70271348953247072 -0.70271348953247072
vn 0 0 -1
vn 0.1969023197889328 -0.68368357419967648 0.70271348953247072
vn -0.02400459721684456 -0.71106785535812376 0.70271348953247072
vn -0.24256178736686708 -0.66884791851043704 0.70271348953247072
vn -0.43737533688545224 -0.56115645170211792 0.70271348953247072
vn -0.58937555551528928 -0.39853507280349728 0.70271348953247072
vn -0.68368357419967648 -0.1969023197889328 0.70271348953247072
vn -0.71106785535812376 0.02400459721684456 0.70271348953247072
vn -0.66884791851043704 0.24256178736686708 0.70271348953247072
vn -0.56115645170211792 0.43737533688545224 0.70271348953247072
vn -0.39853507280349728 0.58937555551528928 0.70271348953247072
vn -0.1969023197889328 0.68368357419967648 0.70271348953247072
vn 0.02400459721684456 0.71106785535812376 0.70271348953247072
vn 0.24256178736686708 0.66884791851043704 0.70271348953247072
vn 0.43737533688545224 0.56115645170211792 0.70271348953247072
vn 0.58937555551528928 0.39853507280349728 0.70271348953247072
vn 0.68368357419967648 0.1969023197889328 0.70271348953247072
vn 0.71106785535812376 -0.02400459721684456 0.70271348953247072
vn 0.66884791851043704 -0.24256178736686708 0.70271348953247072
vn 0.56115645170211792 -0.43737533688545224 0.70271348953247072
vn 0.39853507280349728 -0.58937555551528928 0.70271348953247072
vn 0.27675306797027588 -0.96094107627868656 0
vn -0.03373929858207702 -0.99943065643310544 0
vn -0.34092903137207032 -0.94008904695510864 0
vn -0.61474627256393432 -0.78872495889663696 0
vn -0.82838785648345952 -0.56015491485595704 0
vn -0.96094107627868656 -0.27675306797027588 0
vn -0.99943065643310544 0.03373929858207702 0
vn -0.94008904695510864 0.34092903137207032 0
vn -0.78872495889663696 0.61474627256393432 0
vn -0.56015491485595704 0.82838785648345952 0
vn -0.27675306797027588 0.96094107627868656 0
vn 0.03373929858207702 0.99943065643310544 0
vn 0.34092903137207032 0.94008904695510864 0
vn 0.61474627256393432 0.78872495889663696 0
vn 0.82838785648345952 0.56015491485595704 0
vn 0.96094107627868656 0.27675306797027588 0
vn 0.99943065643310544 -0.03373929858207702 0
vn 0.94008904695510864 -0.34092903137207032 0
vn 0.78872495889663696 -0.61474627256393432 0
vn 0.56015491485595704 -0.82838785648345952 0
vn -0.39853507280349728 0.58937555551528928 -0.70271348953247072
vn -0.56115645170211792 0.43737533688545224 -0.70271348953247072
vn -0.66884791851043704 0.24256178736686708 -0.70271348953247072
vn -0.71106785535812376 0.02400459721684456 -0.70271348953247072
vn -0.68368357419967648 -0.1969023197889328 -0.70271348953247072
vn -0.58937555551528928 -0.39853507280349728 -0.70271348953247072
vn -0.43737533688545224 -0.56115645170211792 -0.70271348953247072
vn -0.24256178736686708 -0.66884791851043704 -0.70271348953247072
vn -0.02400459721684456 -0.71106785535812376 -0.70271348953247072
vn 0.1969023197889328 -0.68368357419967648 -0.70271348953247072
vn 0.39853507280349728 -0.58937555551528928 -0.70271348953247072
vn 0.56115645170211792 -0.43737533688545224 -0.70271348953247072
vn 0.66884791851043704 -0.24256178736686708 -0.70271348953247072
vn 0.71106785535812376 -0.02400459721684456 -0.70271348953247072
vn 0.68368357419967648 0.1969023197889328 -0.70271348953247072
vn 0.58937555551528928 0.39853507280349728 -0.70271348953247072
vn 0.43737533688545224 0.56115645170211792 -0.70271348953247072
vn 0.24256178736686708 0.66884791851043704 -0.70271348953247072
vn 0.02400459721684456 0.71106785535812376 -0.70271348953247072
vn -0.1969023197889328 0.68368357419967648 -0.70271348953247072
# 122 vertex normals

g obj_47070098
s 1
f 1//1 2//1 3//1
f 3//1 4//1 1//1
f 4//1 5//1 1//1
f 5//1 6//1 1//1
f 6//1 7//1 1//1
f 7//1 8//1 1//1
f 8//1 9//1 1//1
f 9//1 10//1 1//1
f 10//1 11//1 1//1
f 11//1 12//1 1//1
f 12//1 13//1 1//1
f 13//1 14//1 1//1
f 14//1 15//1 1//1
f 15//1 16//1 1//1
f 16//1 17//1 1//1
f 17//1 18//1 1//1
f 18//1 19//1 1//1
f 19//1 20//1 1//1
f 20//1 21//1 1//1
f 21//1 2//1 1//1
f 22//2 21//2 20//2
f 23//3 20//3 19//3
f 24//4 19//4 18//4
f 25//5 18//5 17//5
f 26//6 17//6 16//6
f 27//7 16//7 15//7
f 28//8 15//8 14//8
f 29//9 14//9 13//9
f 30//10 13//10 12//10
f 31//11 12//11 11//11
f 32//12 11//12 10//12
f 33//13 10//13 9//13
f 34//14 9//14 8//14
f 35//15 8//15 7//15
f 36//16 7//16 6//16
f 37//17 6//17 5//17
f 38//18 5//18 4//18
f 39//19 4//19 3//19
f 40//20 3//20 2//20
f 41//21 2//21 21//21
f 21//21 22//21 41//21
f 2//20 41//20 40//20
f 3//19 40//19 39//19
f 4//18 39//18 38//18
f 5//17 38//17 37//17
f 6//16 37//16 36//16
f 7//15 36//15 35//15
f 8//14 35//14 34//14
f 9//13 34//13 33//13
f 10//12 33//12 32//12
f 11//11 32//11 31//11
f 12//10 31//10 30//10
f 13//9 30//9 29//9
f 14//8 29//8 28//8
f 15//7 28//7 27//7
f 16//6 27//6 26//6
f 17//5 26//5 25//5
f 18//4 25//4 24//4
f 19//3 24//3 23//3
f 20//2 23//2 22//2
f 42//22 22//22 23//22
f 43//23 23//23 24//23
f 44//24 24//24 25//24
f 45//25 25//25 26//25
f 46//26 26//26 27//26
f 47//27 27//27 28//27
f 48//28 28//28 29//28
f 49//29 29//29 30//29
f 50//30 30//30 31//30
f 51//31 31//31 32//31
f 52//32 32//32 33//32
f 53//33 33//33 34//33
f 54//34 34//34 35//34
f 55//35 35//35 36//35
f 56//36 36//36 37//36
f 57//37 37//37 38//37
f 58//38 38//38 39//38
f 59//39 39//39 40//39
f 60//40 40//40 41//40
f 61//41 41//41 22//41
f 22//41 42//41 61//41
f 41//40 61//40 60//40
f 40//39 60//39 59//39
f 39//38 59//38 58//38
f 38//37 58//37 57//37
f 37//36 57//36 56//36
f 36//35 56//35 55//35
f 35//34 55//34 54//34
f 34//33 54//33 53//33
f 33//32 53//32 52//32
f 32//31 52//31 51//31
f 31//30 51//30 50//30
f 30//29 50//29 49//29
f 29//28 49//28 48//28
f 28//27 48//27 47//27
f 27//26 47//26 46//26
f 26//25 46//25 45//25
f 25//24 45//24 44//24
f 24//23 44//23 43//23
f 23//22 43//22 42//22
f 52//42 62//42 63//42
f 51//43 63//43 64//43
f 50//44 64//44 65//44
f 49//45 65//45 66//45
f 48//46 66//46 67//46
f 47//47 67//47 68//47
f 46//48 68//48 69//48
f 45//49 69//49 70//49
f 44//50 70//50 71//50
f 43//51 71//51 72//51
f 42//52 72//52 73//52
f 61//53 73//53 74//53
f 60//54 74//54 75//54
f 59//55 75//55 76//55
f 58//56 76//56 77//56
f 57//57 77//57 78//57
f 56//58 78//58 79//58
f 55//59 79//59 80//59
f 54//60 80//60 81//60
f 53//61 81//61 62//61
f 62//61 52//61 53//61
f 81//60 53//60 54//60
f 80//59 54//59 55//59
f 79//58 55//58 56//58
f 78//57 56//57 57//57
f 77//56 57//56 58//56
f 76//55 58//55 59//55
f 75//54 59//54 60//54
f 74//53 60//53 61//53
f 73//52 61//52 42//52
f 72//51 42//51 43//51
f 71//50 43//50 44//50
f 70//49 44//49 45//49
f 69//48 45//48 46//48
f 68//47 46//47 47//47
f 67//46 47//46 48//46
f 66//45 48//45 49//45
f 65//44 49//44 50//44
f 64//43 50//43 51//43
f 63//42 51//42 52//42
f 82//62 71//62 70//62
f 70//62 69//62 82//62
f 69//62 68//62 82//62
f 68//62 67//62 82//62
f 67//62 66//62 82//62
f 66//62 65//62 82//62
f 65//62 64//62 82//62
f 64//62 63//62 82//62
f 63//62 62//62 82//62
f 62//62 81//62 82//62
f 81//62 80//62 82//62
f 80//62 79//62 82//62
f 79//62 78//62 82//62
f 78//62 77//62 82//62
f 77//62 76//62 82//62
f 76//62 75//62 82//62
f 75//62 74//62 82//62
f 74//62 73//62 82//62
f 73//62 72//62 82//62
f 72//62 71//62 82//62
f 83//1 84//1 85//1
f 85//1 86//1 83//1
f 86//1 87//1 83//1
f 87//1 88//1 83//1
f 88//1 89//1 83//1
f 89//1 90//1 83//1
f 90//1 91//1 83//1
f 91//1 92//1 83//1
f 92//1 93//1 83//1
f 93//1 94//1 83//1
f 94//1 95//1 83//1
f 95//1 96//1 83//1
f 96//1 97//1 83//1
f 97//1 98//1 83//1
f 98//1 99//1 83//1
f 99//1 100//1 83//1
f 100//1 101//1 83//1
f 101//1 102//1 83//1
f 102//1 103//1 83//1
f 103//1 84//1 83//1
f 104//63 103//63 102//63
f 105//64 102//64 101//64
f 106//65 101//65 100//65
f 107//66 100//66 99//66
f 108//67 99//67 98//67
f 109//68 98//68 97//68
f 110//69 97//69 96//69
f 111//70 96//70 95//70
f 112//71 95//71 94//71
f 113//72 94//72 93//72
f 114//73 93//73 92//73
f 115//74 92//74 91//74
f 116//75 91//75 90//75
f 117//76 90//76 89//76
f 118//77 89//77 88//77
f 119//78 88//78 87//78
f 120//79 87//79 86//79
f 121//80 86//80 85//80
f 122//81 85//81 84//81
f 123//82 84//82 103//82
f 103//82 104//82 123//82
f 84//81 123//81 122//81
f 85//80 122//80 121//80
f 86//79 121//79 120//79
f 87//78 120//78 119//78
f 88//77 119//77 118//77
f 89//76 118//76 117//76
f 90//75 117//75 116//75
f 91//74 116//74 115//74
f 92//73 115//73 114//73
f 93//72 114//72 113//72
f 94//71 113//71 112//71
f 95//70 112//70 111//70
f 96//69 111//69 110//69
f 97//68 110//68 109//68
f 98//67 109//67 108//67
f 99//66 108//66 107//66
f 100//65 107//65 106//65
f 101//64 106//64 105//64
f 102//63 105//63 104//63
f 124//83 104//83 105//83
f 125//84 105//84 106//84
f 126//85 106//85 107//85
f 127//86 107//86 108//86
f 128//87 108//87 109//87
f 129//88 109//88 110//88
f 130//89 110//89 111//89
f 131//90 111//90 112//90
f 132//91 112//91 113//91
f 133//92 113//92 114//92
f 134//93 114//93 115//93
f 135//94 115//94 116//94
f 136//95 116//95 117//95
f 137//96 117//96 118//96
f 138//97 118//97 119//97
f 139//98 119//98 120//98
f 140//99 120//99 121//99
f 141//100 121//100 122//100
f 142//101 122//101 123//101
f 143//102 123//102 104//102
f 104//102 124//102 143//102
f 123//101 143//101 142//101
f 122//100 142//100 141//100
f 121//99 141//99 140//99
f 120//98 140//98 139//98
f 119//97 139//97 138//97
f 118//96 138//96 137//96
f 117//95 137//95 136//95
f 116//94 136//94 135//94
f 115//93 135//93 134//93
f 114//92 134//92 133//92
f 113//91 133//91 132//91
f 112//90 132//90 131//90
f 111//89 131//89 130//89
f 110//88 130//88 129//88
f 109//87 129//87 128//87
f 108//86 128//86 127//86
f 107//85 127//85 126//85
f 106//84 126//84 125//84
f 105//83 125//83 124//83
f 134//103 144//103 145//103
f 133//104 145//104 146//104
f 132//105 146//105 147//105
f 131//106 147//106 148//106
f 130//107 148//107 149//107
f 129//108 149//108 150//108
f 128//109 150//109 151//109
f 127//110 151//110 152//110
f 126//111 152//111 153//111
f 125//112 153//112 154//112
f 124//113 154//113 155//113
f 143//114 155//114 156//114
f 142//115 156//115 157//115
f 141//116 157//116 158//116
f 140//117 158//117 159//117
f 139//118 159//118 160//118
f 138//119 160//119 161//119
f 137//120 161//120 162//120
f 136//121 162//121 163//121
f 135//122 163//122 144//122
f 144//122 134//122 135//122
f 163//121 135//121 136//121
f 162//120 136//120 137//120
f 161//119 137//119 138//119
f 160//118 138//118 139//118
f 159//117 139//117 140//117
f 158//116 140//116 141//116
f 157//115 141//115 142//115
f 156//114 142//114 143//114
f 155//113 143//113 124//113
f 154//112 124//112 125//112
f 153//111 125//111 126//111
f 152//110 126//110 127//110
f 151//109 127//109 128//109
f 150//108 128//108 129//108
f 149//107 129//107 130//107
f 148//106 130//106 131//106
f 147//105 131//105 132//105
f 146//104 132//104 133//104
f 145//103 133//103 134//103
f 164//62 153//62 152//62
f 152//62 151//62 164//62
f 151//62 150//62 164//62
f 150//62 149//62 164//62
f 149//62 148//62 164//62
f 148//62 147//62 164//62
f 147//62 146//62 164//62
f 146//62 145//62 164//62
f 145//62 144//62 164//62
f 144//62 163//62 164//62
f 163//62 162//62 164//62
f 162//62 161//62 164//62
f 161//62 160//62 164//62
f 160//62 159//62 164//62
f 159//62 158//62 164//62
f 158//62 157//62 164//62
f 157//62 156//62 164//62
f 156//62 155//62 164//62
f 155//62 154//62 164//62
f 154//62 153//62 164//62
f 165//1 166//1 167//1
f 167//1 168//1 165//1
f 168//1 169//1 165//1
f 169//1 170//1 165//1
f 170//1 171//1 165//1
f 171//1 172//1 165//1
f 172//1 173//1 165//1
f 173//1 174//1 165//1
f 174//1 175//1 165//1
f 175//1 176//1 165//1
f 176//1 177//1 165//1
f 177//1 178//1 165//1
f 178//1 179//1 165//1
f 179//1 180//1 165//1
f 180//1 181//1 165//1
f 181//1 182//1 165//1
f 182//1 183//1 165//1
f 183//1 184//1 165//1
f 184//1 185//1 165//1
f 185//1 166//1 165//1
f 186//68 185//68 184//68
f 187//69 184//69 183//69
f 188//70 183//70 182//70
f 189//71 182//71 181//71
f 190//72 181//72 180//72
f 191//73 180//73 179//73
f 192//74 179//74 178//74
f 193//75 178//75 177//75
f 194//76 177//76 176//76
f 195//77 176//77 175//77
f 196//78 175//78 174//78
f 197//79 174//79 173//79
f 198//80 173//80 172//80
f 199//81 172//81 171//81
f 200//82 171//82 170//82
f 201//63 170//63 169//63
f 202//64 169//64 168//64
f 203//65 168//65 167//65
f 204//66 167//66 166//66
f 205//67 166//67 185//67
f 185//67 186//67 205//67
f 166//66 205//66 204//66
f 167//65 204//65 203//65
f 168//64 203//64 202//64
f 169//63 202//63 201//63
f 170//82 201//82 200//82
f 171//81 200//81 199//81
f 172//80 199//80 198//80
f 173//79 198//79 197//79
f 174//78 197//78 196//78
f 175//77 196//77 195//77
f 176//76 195//76 194//76
f 177//75 194//75 193//75
f 178//74 193//74 192//74
f 179//73 192//73 191//73
f 180//72 191//72 190//72
f 181//71 190//71 189//71
f 182//70 189//70 188//70
f 183//69 188//69 187//69
f 184//68 187//68 186//68
f 206//88 186//88 187//88
f 207//89 187//89 188//89
f 208//90 188//90 189//90
f 209//91 189//91 190//91
f 210//92 190//92 191//92
f 211//93 191//93 192//93
f 212//94 192//94 193//94
f 213//95 193//95 194//95
f 214//96 194//96 195//96
f 215//97 195//97 196//97
f 216//98 196//98 197//98
f 217//99 197//99 198//99
f 218//100 198//100 199//100
f 219//101 199//101 200//101
f 220//102 200//102 201//102
f 221//83 201//83 202//83
f 222//84 202//84 203//84
f 223//85 203//85 204//85
f 224//86 204//86 205//86
f 225//87 205//87 186//87
f 186//87 206//87 225//87
f 205//86 225//86 224//86
f 204//85 224//85 223//85
f 203//84 223//84 222//84
f 202//83 222//83 221//83
f 201//102 221//102 220//102
f 200//101 220//101 219//101
f 199//100 219//100 218//100
f 198//99 218//99 217//99
f 197//98 217//98 216//98
f 196//97 216//97 215//97
f 195//96 215//96 214//96
f 194//95 214//95 213//95
f 193//94 213//94 212//94
f 192//93 212//93 211//93
f 191//92 211//92 210//92
f 190//91 210//91 209//91
f 189//90 209//90 208//90
f 188//89 208//89 207//89
f 187//88 207//88 206//88
f 216//118 226//118 227//118
f 215//119 227//119 228//119
f 214//120 228//120 229//120
f 213//121 229//121 230//121
f 212//122 230//122 231//122
f 211//103 231//103 232//103
f 210//104 232//104 233//104
f 209//105 233//105 234//105
f 208//106 234//106 235//106
f 207//107 235//107 236//107
f 206//108 236//108 237//108
f 225//109 237//109 238//109
f 224//110 238//110 239//110
f 223//111 239//111 240//111
f 222//112 240//112 241//112
f 221//113 241//113 242//113
f 220//114 242//114 243//114
f 219//115 243//115 244//115
f 218//116 244//116 245//116
f 217//117 245//117 226//117
f 226//117 216//117 217//117
f 245//116 217//116 218//116
f 244//115 218//115 219//115
f 243//114 219//114 220//114
f 242//113 220//113 221//113
f 241//112 221//112 222//112
f 240//111 222//111 223//111
f 239//110 223//110 224//110
f 238//109 224//109 225//109
f 237//108 225//108 206//108
f 236//107 206//107 207//107
f 235//106 207//106 208//106
f 234//105 208//105 209//105
f 233//104 209//104 210//104
f 232//103 210//103 211//103
f 231//122 211//122 212//122
f 230//121 212//121 213//121
f 229//120 213//120 214//120
f 228//119 214//119 215//119
f 227//118 215//118 216//118
f 246//62 235//62 234//62
f 234//62 233//62 246//62
f 233//62 232//62 246//62
f 232//62 231//62 246//62
f 231//62 230//62 246//62
f 230//62 229//62 246//62
f 229//62 228//62 246//62
f 228//62 227//62 246//62
f 227//62 226//62 246//62
f 226//62 245//62 246//62
f 245//62 244//62 246//62
f 244//62 243//62 246//62
f 243//62 242//62 246//62
f 242//62 241//62 246//62
f 241//62 240//62 246//62
f 240//62 239//62 246//62
f 239//62 238//62 246//62
f 238//62 237//62 246//62
f 237//62 236//62 246//62
f 236//62 235//62 246//62
#480 polygons

