# Aspose.3D Wavefront OBJ Exporter
# Copyright 2004-2023 Aspose Pty Ltd.
# File created: 06/29/2023 05:48:46


#
# object obj_32595338
#

v 7.9425668716430664 -50.17525100708007812 -80.83499908447265632
v 2.27478003501892088 -50.74904251098632816 -80.83499908447265632
v 2.27478003501892088 -50.74904251098632816 -71.30999755859375
v 13.51047134399414064 -48.97047424316406256 -80.83499908447265632
v 7.9425668716430664 -50.17525100708007812 -71.30999755859375
v 18.90847396850585936 -47.14986419677734376 -80.83499908447265632
v 13.51047134399414064 -48.97047424316406256 -71.30999755859375
v 24.06869125366210938 -44.7363166809082032 -80.83499908447265632
v 18.90847396850585936 -47.14986419677734376 -71.30999755859375
v 28.92622947692871088 -41.76018524169921872 -80.83499908447265632
v 24.06869125366210938 -44.7363166809082032 -71.30999755859375
v 33.42000579833984376 -38.25889587402343752 -80.83499908447265632
v 28.92622947692871088 -41.76018524169921872 -71.30999755859375
v 37.49350357055664064 -34.27648162841796876 -80.83499908447265632
v 33.42000579833984376 -38.25889587402343752 -71.30999755859375
v 41.09550094604492188 -29.86301612854003904 -80.83499908447265632
v 37.49350357055664064 -34.27648162841796876 -71.30999755859375
v 44.18069839477539064 -25.07400703430175781 -80.83499908447265632
v 41.09550094604492188 -29.86301612854003904 -71.30999755859375
v 46.71029663085937504 -19.96967887878417968 -80.83499908447265632
v 44.18069839477539064 -25.07400703430175781 -71.30999755859375
v 48.65248870849609376 -14.61421966552734376 -80.83499908447265632
v 46.71029663085937504 -19.96967887878417968 -71.30999755859375
v 49.98284530639648432 -9.07497787475585938 -80.83499908447265632
v 48.65248870849609376 -14.61421966552734376 -71.30999755859375
v 50.68463897705078128 -3.42161321640014648 -80.83499908447265632
v 49.98284530639648432 -9.07497787475585938 -71.30999755859375
v 50.74904251098632816 2.27478003501892088 -80.83499908447265632
v 50.68463897705078128 -3.42161321640014648 -71.30999755859375
v 50.17525100708007812 7.9425668716430664 -80.83499908447265632
v 50.74904251098632816 2.27478003501892088 -71.30999755859375
v 48.97047424316406256 13.51047134399414064 -80.83499908447265632
v 50.17525100708007812 7.9425668716430664 -71.30999755859375
v 47.14986419677734376 18.90847396850585936 -80.83499908447265632
v 48.97047424316406256 13.51047134399414064 -71.30999755859375
v 44.7363166809082032 24.06869125366210938 -80.83499908447265632
v 47.14986419677734376 18.90847396850585936 -71.30999755859375
v 41.76018524169921872 28.92622947692871088 -80.83499908447265632
v 44.7363166809082032 24.06869125366210938 -71.30999755859375
v 38.25889587402343752 33.42000579833984376 -80.83499908447265632
v 41.76018524169921872 28.92622947692871088 -71.30999755859375
v 34.27648162841796876 37.49350357055664064 -80.83499908447265632
v 38.25889587402343752 33.42000579833984376 -71.30999755859375
v 29.86301612854003904 41.09550094604492188 -80.83499908447265632
v 34.27648162841796876 37.49350357055664064 -71.30999755859375
v 25.07400703430175781 44.18069839477539064 -80.83499908447265632
v 29.86301612854003904 41.09550094604492188 -71.30999755859375
v 19.96967887878417968 46.71029663085937504 -80.83499908447265632
v 25.07400703430175781 44.18069839477539064 -71.30999755859375
v 14.61421966552734376 48.65248870849609376 -80.83499908447265632
v 17.10519981384277344 47.83358764648437504 -80.83499908447265632
v 17.10519981384277344 47.83358764648437504 -71.30999755859375
v 19.96967887878417968 46.71029663085937504 -71.30999755859375
v 9.07497787475585938 49.98284530639648432 -80.83499908447265632
v 14.61421966552734376 48.65248870849609376 -71.30999755859375
v 3.42161321640014648 50.68463897705078128 -80.83499908447265632
v 9.07497787475585938 49.98284530639648432 -71.30999755859375
v -2.27478003501892088 50.74904251098632816 -80.83499908447265632
v 3.42161321640014648 50.68463897705078128 -71.30999755859375
v -7.9425668716430664 50.17525100708007812 -80.83499908447265632
v -2.27478003501892088 50.74904251098632816 -71.30999755859375
v -13.51047134399414064 48.97047424316406256 -80.83499908447265632
v -7.9425668716430664 50.17525100708007812 -71.30999755859375
v -18.90847396850585936 47.14986419677734376 -80.83499908447265632
v -13.51047134399414064 48.97047424316406256 -71.30999755859375
v -24.06869125366210938 44.7363166809082032 -80.83499908447265632
v -18.90847396850585936 47.14986419677734376 -71.30999755859375
v -28.92622947692871088 41.76018524169921872 -80.83499908447265632
v -24.06869125366210938 44.7363166809082032 -71.30999755859375
v -33.42000579833984376 38.25889587402343752 -80.83499908447265632
v -28.92622947692871088 41.76018524169921872 -71.30999755859375
v -37.49350357055664064 34.27648162841796876 -80.83499908447265632
v -33.42000579833984376 38.25889587402343752 -71.30999755859375
v -41.09550094604492188 29.86301612854003904 -80.83499908447265632
v -37.49350357055664064 34.27648162841796876 -71.30999755859375
v -44.18069839477539064 25.07400703430175781 -80.83499908447265632
v -41.09550094604492188 29.86301612854003904 -71.30999755859375
v -46.71029663085937504 19.96967887878417968 -80.83499908447265632
v -44.18069839477539064 25.07400703430175781 -71.30999755859375
v -48.65248870849609376 14.61421966552734376 -80.83499908447265632
v -47.83358764648437504 17.10519981384277344 -80.83499908447265632
v -47.83358764648437504 17.10519981384277344 -71.30999755859375
v -46.71029663085937504 19.96967887878417968 -71.30999755859375
v -49.98284530639648432 9.07497787475585938 -80.83499908447265632
v -48.65248870849609376 14.61421966552734376 -71.30999755859375
v -50.68463897705078128 3.42161321640014648 -80.83499908447265632
v -49.98284530639648432 9.07497787475585938 -71.30999755859375
v -50.74904251098632816 -2.27478003501892088 -80.83499908447265632
v -50.68463897705078128 3.42161321640014648 -71.30999755859375
v -50.17525100708007812 -7.9425668716430664 -80.83499908447265632
v -50.74904251098632816 -2.27478003501892088 -71.30999755859375
v -48.97047424316406256 -13.51047134399414064 -80.83499908447265632
v -50.17525100708007812 -7.9425668716430664 -71.30999755859375
v -47.14986419677734376 -18.90847396850585936 -80.83499908447265632
v -48.97047424316406256 -13.51047134399414064 -71.30999755859375
v -44.7363166809082032 -24.06869125366210938 -80.83499908447265632
v -47.14986419677734376 -18.90847396850585936 -71.30999755859375
v -41.76018524169921872 -28.92622947692871088 -80.83499908447265632
v -44.7363166809082032 -24.06869125366210938 -71.30999755859375
v -38.25889587402343752 -33.42000579833984376 -80.83499908447265632
v -41.76018524169921872 -28.92622947692871088 -71.30999755859375
v -34.27648162841796876 -37.49350357055664064 -80.83499908447265632
v -38.25889587402343752 -33.42000579833984376 -71.30999755859375
v -29.86301612854003904 -41.09550094604492188 -80.83499908447265632
v -34.27648162841796876 -37.49350357055664064 -71.30999755859375
v -25.07400703430175781 -44.18069839477539064 -80.83499908447265632
v -29.86301612854003904 -41.09550094604492188 -71.30999755859375
v -19.96967887878417968 -46.71029663085937504 -80.83499908447265632
v -25.07400703430175781 -44.18069839477539064 -71.30999755859375
v -14.61421966552734376 -48.65248870849609376 -80.83499908447265632
v -19.96967887878417968 -46.71029663085937504 -71.30999755859375
v -9.07497787475585938 -49.98284530639648432 -80.83499908447265632
v -14.61421966552734376 -48.65248870849609376 -71.30999755859375
v -3.42161321640014648 -50.68463897705078128 -80.83499908447265632
v -9.07497787475585938 -49.98284530639648432 -71.30999755859375
v -3.42161321640014648 -50.68463897705078128 -71.30999755859375
v 52.30975723266601564 -16.8741416931152344 -71.30999755859375
v 50.59027099609375 21.48654174804687504 -71.30999755859375
v -16.85636901855468752 -52.7062339782714844 -71.30999755859375
v 21.50431442260742184 -50.98674774169921872 -71.30999755859375
v -58.251312255859375 -15.68089199066162112 -71.30999755859375
v -54.98444366455078128 -4.00012731552124023 -71.30999755859375
v -60.8579063415527344 -11.71921634674072264 -71.30999755859375
v -61.54854583740234376 -7.26642990112304688 -71.30999755859375
v -60.26448822021484376 -2.70130133628845216 -71.30999755859375
v -61.91383361816406256 -2.7752318382263184 -71.30999755859375
v -54.48299789428710936 -4.0566706657409668 -71.30999755859375
v -53.54970169067382816 -3.70649099349975584 -71.30999755859375
v -53.98861694335937504 -3.95549035072326656 -71.30999755859375
v -53.20921325683593752 -3.3340458869934082 -71.30999755859375
v -54.12599563598632812 -0.89064973592758176 -71.30999755859375
v -53.66656494140625 -1.099381685256958 -71.30999755859375
v -53.00048065185546875 -2.87461280822753904 -71.30999755859375
v -53.29412078857421876 -1.43987011909484864 -71.30999755859375
v -53.0451202392578125 -1.87878572940826416 -71.30999755859375
v -59.64418411254882816 16.84030342102050784 -71.30999755859375
v -54.6274452209472656 -0.8341065049171448 -71.30999755859375
v -56.0653228759765625 -3.01199150085449218 -71.30999755859375
v -59.81801223754882816 7.804555892944336 -71.30999755859375
v -60.270599365234375 2.5613741874694824 -71.30999755859375
v -55.12182235717773438 -0.93528681993484496 -71.30999755859375
v -52.94393920898437504 -2.37316441535949704 -71.30999755859375
v -55.81632232666015632 -3.45090723037719728 -71.30999755859375
v -55.56074142456054688 -1.18428635597229004 -71.30999755859375
v -56.10995864868164062 -2.01616454124450683 -71.30999755859375
v -55.90122985839843744 -1.55673146247863768 -71.30999755859375
v -55.44387817382812496 -3.79139566421508784 -71.30999755859375
v -56.16650390625 -2.5176129341125488 -71.30999755859375
v -56.6629676818847656 -20.69815826416015624 -71.30999755859375
v -54.64338302612304688 -25.55789756774902344 -71.30999755859375
v -60.71012115478515624 12.46216773986816408 -71.30999755859375
v -61.4551353454589844 8.01815414428710937 -71.30999755859375
v -59.84555816650390624 -16.11005401611328124 -71.30999755859375
v -54.08269882202148438 -30.26691436767578124 -71.30999755859375
v -51.74062347412109376 -34.116455078125 -71.30999755859375
v -49.12503433227539062 -37.7856521606445312 -71.30999755859375
v -47.81637573242187504 -36.77906799316406256 -71.30999755859375
v -56.13888931274414062 -26.25737762451171876 -71.30999755859375
v -37.48966217041015624 -38.59327697753906248 -71.30999755859375
v -36.92910766601562496 -38.47855377197265624 -71.30999755859375
v -37.98733139038085936 -38.8756065368652344 -71.30999755859375
v -44.42891311645507816 -40.80658340454101568 -71.30999755859375
v -38.61006927490234376 -39.8188400268554688 -71.30999755859375
v -38.37339782714843752 -39.29790496826171876 -71.30999755859375
v -40.70331954956054688 -44.52353668212890624 -71.30999755859375
v -38.27712631225585936 -41.44563293457031248 -71.30999755859375
v -38.55945587158203128 -40.94796371459960944 -71.30999755859375
v -38.67418289184570312 -40.38740921020507816 -71.30999755859375
v -36.76532363891601568 -42.13248443603515624 -71.30999755859375
v -37.33389663696289064 -42.06837081909179688 -71.30999755859375
v -36.20476913452148436 -42.01775741577148437 -71.30999755859375
v -35.08436203002929688 -40.79219818115234368 -71.30999755859375
v -37.85482788085937504 -41.83169937133789056 -71.30999755859375
v -35.02025222778320312 -40.22362518310546876 -71.30999755859375
v -35.41730499267578128 -39.16540145874023438 -71.30999755859375
v -35.13497543334960938 -39.66307067871093752 -71.30999755859375
v -35.32103347778320312 -41.31312942504882812 -71.30999755859375
v -35.70709991455078128 -41.73542785644531248 -71.30999755859375
v -35.8396034240722656 -38.77933502197265632 -71.30999755859375
v -36.3605384826660156 -38.54266357421875 -71.30999755859375
v -38.38325119018554688 -48.65953826904296872 -71.30999755859375
v -34.74629974365234368 -51.31977462768554688 -71.30999755859375
v -30.10183143615722656 -52.27796173095703124 -71.30999755859375
v -16.84030342102050784 -59.64418411254882816 -71.30999755859375
v -20.56654357910156248 -56.7108726501464844 -71.30999755859375
v -25.43095970153808592 -54.70257568359375 -71.30999755859375
v 0.8341065049171448 -54.6274452209472656 -71.30999755859375
v -7.804555892944336 -59.81801223754882816 -71.30999755859375
v 0.93528681993484496 -55.12182235717773438 -71.30999755859375
v -2.5613741874694824 -60.270599365234375 -71.30999755859375
v 15.68089199066162112 -58.251312255859375 -71.30999755859375
v 4.00012731552124023 -54.98444366455078128 -71.30999755859375
v 11.71921634674072264 -60.8579063415527344 -71.30999755859375
v 1.18428635597229004 -55.56074142456054688 -71.30999755859375
v 2.70130133628845216 -60.26448822021484376 -71.30999755859375
v 2.01616454124450683 -56.10995864868164062 -71.30999755859375
v 7.26642990112304688 -61.54854583740234376 -71.30999755859375
v 0.89064973592758176 -54.12599563598632812 -71.30999755859375
v 1.55673146247863768 -55.90122985839843744 -71.30999755859375
v 2.7752318382263184 -61.91383361816406256 -71.30999755859375
v 1.099381685256958 -53.66656494140625 -71.30999755859375
v 1.43987011909484864 -53.29412078857421876 -71.30999755859375
v 4.0566706657409668 -54.48299789428710936 -71.30999755859375
v 3.95549035072326656 -53.98861694335937504 -71.30999755859375
v 1.87878572940826416 -53.0451202392578125 -71.30999755859375
v 3.01199150085449218 -56.0653228759765625 -71.30999755859375
v 2.5176129341125488 -56.16650390625 -71.30999755859375
v 3.79139566421508784 -55.44387817382812496 -71.30999755859375
v 3.45090723037719728 -55.81632232666015632 -71.30999755859375
v 3.70649099349975584 -53.54970169067382816 -71.30999755859375
v 2.87461280822753904 -53.00048065185546875 -71.30999755859375
v 3.3340458869934082 -53.20921325683593752 -71.30999755859375
v -12.46216773986816408 -60.71012115478515624 -71.30999755859375
v 20.69815826416015624 -56.6629676818847656 -71.30999755859375
v 2.37316441535949704 -52.94393920898437504 -71.30999755859375
v -8.01815414428710937 -61.4551353454589844 -71.30999755859375
v 16.11005401611328124 -59.84555816650390624 -71.30999755859375
v 25.55789756774902344 -54.64338302612304688 -71.30999755859375
v 26.25737762451171876 -56.13888931274414062 -71.30999755859375
v 30.26691436767578124 -54.08269882202148438 -71.30999755859375
v 34.116455078125 -51.74062347412109376 -71.30999755859375
v 37.7856521606445312 -49.12503433227539062 -71.30999755859375
v 36.77906799316406256 -47.81637573242187504 -71.30999755859375
v 40.80658340454101568 -44.42891311645507816 -71.30999755859375
v 39.16540145874023438 -35.41730499267578128 -71.30999755859375
v 39.66307067871093752 -35.13497543334960938 -71.30999755859375
v 38.54266357421875 -36.3605384826660156 -71.30999755859375
v 38.59327697753906248 -37.48966217041015624 -71.30999755859375
v 38.47855377197265624 -36.92910766601562496 -71.30999755859375
v 38.8756065368652344 -37.98733139038085936 -71.30999755859375
v 38.77933502197265632 -35.8396034240722656 -71.30999755859375
v 39.8188400268554688 -38.61006927490234376 -71.30999755859375
v 39.29790496826171876 -38.37339782714843752 -71.30999755859375
v 40.38740921020507816 -38.67418289184570312 -71.30999755859375
v 40.94796371459960944 -38.55945587158203128 -71.30999755859375
v 44.52353668212890624 -40.70331954956054688 -71.30999755859375
v 41.44563293457031248 -38.27712631225585936 -71.30999755859375
v 42.13248443603515624 -36.76532363891601568 -71.30999755859375
v 42.06837081909179688 -37.33389663696289064 -71.30999755859375
v 42.01775741577148437 -36.20476913452148436 -71.30999755859375
v 41.83169937133789056 -37.85482788085937504 -71.30999755859375
v 41.31312942504882812 -35.32103347778320312 -71.30999755859375
v 41.73542785644531248 -35.70709991455078128 -71.30999755859375
v 40.79219818115234368 -35.08436203002929688 -71.30999755859375
v 48.65953826904296872 -38.38325119018554688 -71.30999755859375
v 40.22362518310546876 -35.02025222778320312 -71.30999755859375
v 51.31977462768554688 -34.74629974365234368 -71.30999755859375
v 52.27796173095703124 -30.10183143615722656 -71.30999755859375
v 59.64418411254882816 -16.84030342102050784 -71.30999755859375
v 56.7108726501464844 -20.56654357910156248 -71.30999755859375
v 54.70257568359375 -25.43095970153808592 -71.30999755859375
v 55.42039871215820312 0.86964994668960576 -71.30999755859375
v 53.83449172973632816 0.79856306314468384 -71.30999755859375
v 55.91477966308593744 0.97083026170730592 -71.30999755859375
v 60.26448822021484376 2.70130133628845216 -71.30999755859375
v 56.69418334960937504 1.59227490425109864 -71.30999755859375
v 56.35369491577148436 1.21982979774475096 -71.30999755859375
v 56.23683166503906248 3.8269391059875488 -71.30999755859375
v 56.60927581787109376 3.48645067214965824 -71.30999755859375
v 61.54854583740234376 7.26642990112304688 -71.30999755859375
v 55.77740097045898432 4.03567075729370117 -71.30999755859375
v 60.8579063415527344 11.71921634674072264 -71.30999755859375
v 59.84555816650390624 16.11005401611328124 -71.30999755859375
v 58.251312255859375 15.68089199066162112 -71.30999755859375
v 52.416259765625 3.29850244522094728 -71.30999755859375
v 52.75674819946289056 3.67094755172729496 -71.30999755859375
v 52.1509857177734375 2.33762097358703612 -71.30999755859375
v 52.87361145019531248 1.06383824348449707 -71.30999755859375
v 52.5011634826660156 1.40432667732238768 -71.30999755859375
v 56.90291213989257808 2.05170798301696777 -71.30999755859375
v 56.8582763671875 3.04753494262695312 -71.30999755859375
v 53.69004440307617184 4.02112722396850586 -71.30999755859375
v 55.27595138549804688 4.09221410751342774 -71.30999755859375
v 53.19566345214843752 3.9199469089508056 -71.30999755859375
v 52.20752716064453124 2.83906936645507808 -71.30999755859375
v 53.33304214477539064 0.8551062941551208 -71.30999755859375
v 52.252166748046875 1.8432422876358032 -71.30999755859375
v 56.95945739746093744 2.55315637588500976 -71.30999755859375
v 59.81801223754882816 -7.804555892944336 -71.30999755859375
v 60.270599365234375 -2.5613741874694824 -71.30999755859375
v 60.71012115478515624 -12.46216773986816408 -71.30999755859375
v 56.6629676818847656 20.69815826416015624 -71.30999755859375
v 61.4551353454589844 -8.01815414428710937 -71.30999755859375
v 61.91383361816406256 2.7752318382263184 -71.30999755859375
v 54.64338302612304688 25.55789756774902344 -71.30999755859375
v 56.13888931274414062 26.25737762451171876 -71.30999755859375
v 54.08269882202148438 30.26691436767578124 -71.30999755859375
v 51.74062347412109376 34.116455078125 -71.30999755859375
v 49.12503433227539062 37.7856521606445312 -71.30999755859375
v 47.81637573242187504 36.77906799316406256 -71.30999755859375
v 44.42891311645507816 40.80658340454101568 -71.30999755859375
v 35.70709991455078128 41.73542785644531248 -71.30999755859375
v 36.20476913452148436 42.01775741577148437 -71.30999755859375
v 35.32103347778320312 41.31312942504882812 -71.30999755859375
v 35.08436203002929688 40.79219818115234368 -71.30999755859375
v 35.41730499267578128 39.16540145874023438 -71.30999755859375
v 35.13497543334960938 39.66307067871093752 -71.30999755859375
v 38.38325119018554688 48.65953826904296872 -71.30999755859375
v 35.02025222778320312 40.22362518310546876 -71.30999755859375
v 36.3605384826660156 38.54266357421875 -71.30999755859375
v 36.92910766601562496 38.47855377197265624 -71.30999755859375
v 37.48966217041015624 38.59327697753906248 -71.30999755859375
v 38.61006927490234376 39.8188400268554688 -71.30999755859375
v 38.37339782714843752 39.29790496826171876 -71.30999755859375
v 35.8396034240722656 38.77933502197265632 -71.30999755859375
v 37.98733139038085936 38.8756065368652344 -71.30999755859375
v 38.67418289184570312 40.38740921020507816 -71.30999755859375
v 40.70331954956054688 44.52353668212890624 -71.30999755859375
v 38.27712631225585936 41.44563293457031248 -71.30999755859375
v 38.55945587158203128 40.94796371459960944 -71.30999755859375
v 37.85482788085937504 41.83169937133789056 -71.30999755859375
v 36.76532363891601568 42.13248443603515624 -71.30999755859375
v 37.33389663696289064 42.06837081909179688 -71.30999755859375
v 20.56654357910156248 56.7108726501464844 -71.30999755859375
v 30.10183143615722656 52.27796173095703124 -71.30999755859375
v 25.43095970153808592 54.70257568359375 -71.30999755859375
v 16.84030342102050784 59.64418411254882816 -71.30999755859375
v 34.74629974365234368 51.31977462768554688 -71.30999755859375
v 30.9256706237792968 53.70872879028320312 -71.30999755859375
v -4.00012731552124023 54.98444366455078128 -71.30999755859375
v -3.79139566421508784 55.44387817382812496 -71.30999755859375
v -11.71921634674072264 60.8579063415527344 -71.30999755859375
v -15.68089199066162112 58.251312255859375 -71.30999755859375
v -3.95549035072326656 53.98861694335937504 -71.30999755859375
v -4.0566706657409668 54.48299789428710936 -71.30999755859375
v 7.804555892944336 59.81801223754882816 -71.30999755859375
v -0.93528681993484496 55.12182235717773438 -71.30999755859375
v -0.8341065049171448 54.6274452209472656 -71.30999755859375
v -3.70649099349975584 53.54970169067382816 -71.30999755859375
v -3.3340458869934082 53.20921325683593752 -71.30999755859375
v -0.89064973592758176 54.12599563598632812 -71.30999755859375
v -1.099381685256958 53.66656494140625 -71.30999755859375
v 2.5613741874694824 60.270599365234375 -71.30999755859375
v -3.45090723037719728 55.81632232666015632 -71.30999755859375
v -7.26642990112304688 61.54854583740234376 -71.30999755859375
v -2.87461280822753904 53.00048065185546875 -71.30999755859375
v -1.18428635597229004 55.56074142456054688 -71.30999755859375
v -2.70130133628845216 60.26448822021484376 -71.30999755859375
v -2.01616454124450683 56.10995864868164062 -71.30999755859375
v -1.43987011909484864 53.29412078857421876 -71.30999755859375
v -1.87878572940826416 53.0451202392578125 -71.30999755859375
v -1.55673146247863768 55.90122985839843744 -71.30999755859375
v -16.11005401611328124 59.84555816650390624 -71.30999755859375
v -3.01199150085449218 56.0653228759765625 -71.30999755859375
v -2.37316441535949704 52.94393920898437504 -71.30999755859375
v -20.69815826416015624 56.6629676818847656 -71.30999755859375
v -2.5176129341125488 56.16650390625 -71.30999755859375
v -25.55789756774902344 54.64338302612304688 -71.30999755859375
v 12.46216773986816408 60.71012115478515624 -71.30999755859375
v 8.01815414428710937 61.4551353454589844 -71.30999755859375
v -2.7752318382263184 61.91383361816406256 -71.30999755859375
v -34.116455078125 51.74062347412109376 -71.30999755859375
v -37.7856521606445312 49.12503433227539062 -71.30999755859375
v -36.77906799316406256 47.81637573242187504 -71.30999755859375
v -30.26691436767578124 54.08269882202148438 -71.30999755859375
v -26.25737762451171876 56.13888931274414062 -71.30999755859375
v -44.52353668212890624 40.70331954956054688 -71.30999755859375
v -41.44563293457031248 38.27712631225585936 -71.30999755859375
v -40.94796371459960944 38.55945587158203128 -71.30999755859375
v -42.01775741577148437 36.20476913452148436 -71.30999755859375
v -42.13248443603515624 36.76532363891601568 -71.30999755859375
v -40.80658340454101568 44.42891311645507816 -71.30999755859375
v -42.06837081909179688 37.33389663696289064 -71.30999755859375
v -41.73542785644531248 35.70709991455078128 -71.30999755859375
v -41.83169937133789056 37.85482788085937504 -71.30999755859375
v -40.79219818115234368 35.08436203002929688 -71.30999755859375
v -40.22362518310546876 35.02025222778320312 -71.30999755859375
v -38.54266357421875 36.3605384826660156 -71.30999755859375
v -41.31312942504882812 35.32103347778320312 -71.30999755859375
v -39.66307067871093752 35.13497543334960938 -71.30999755859375
v -39.16540145874023438 35.41730499267578128 -71.30999755859375
v -38.47855377197265624 36.92910766601562496 -71.30999755859375
v -38.59327697753906248 37.48966217041015624 -71.30999755859375
v -38.8756065368652344 37.98733139038085936 -71.30999755859375
v -38.77933502197265632 35.8396034240722656 -71.30999755859375
v -39.29790496826171876 38.37339782714843752 -71.30999755859375
v -39.8188400268554688 38.61006927490234376 -71.30999755859375
v -48.65953826904296872 38.38325119018554688 -71.30999755859375
v -40.38740921020507816 38.67418289184570312 -71.30999755859375
v -56.7108726501464844 20.56654357910156248 -71.30999755859375
v -52.27796173095703124 30.10183143615722656 -71.30999755859375
v -54.70257568359375 25.43095970153808592 -71.30999755859375
v -51.31977462768554688 34.74629974365234368 -71.30999755859375
v -53.70872879028320312 30.9256706237792968 -71.30999755859375
v -58.26295852661132812 21.12941741943359376 -71.30999755859375
v -45.7420768737792968 41.81730651855468752 -71.30999755859375
v 21.12941741943359376 58.26295852661132812 -71.30999755859375
v 41.81730651855468752 45.7420768737792968 -71.30999755859375
v 58.26295852661132812 -21.12941741943359376 -71.30999755859375
v 53.70872879028320312 -30.9256706237792968 -71.30999755859375
v 45.7420768737792968 -41.81730651855468752 -71.30999755859375
v -21.12941741943359376 -58.26295852661132812 -71.30999755859375
v -30.9256706237792968 -53.70872879028320312 -71.30999755859375
v -41.81730651855468752 -45.7420768737792968 -71.30999755859375
v -16.85636901855468752 -52.7062339782714844 -80.83499908447265632
v 21.50431442260742184 -50.98674774169921872 -80.83499908447265632
v 50.59027099609375 21.48654174804687504 -80.83499908447265632
v 52.30975723266601564 -16.8741416931152344 -80.83499908447265632
v -40.79219818115234368 35.08436203002929688 -80.83499908447265632
v -40.22362518310546876 35.02025222778320312 -80.83499908447265632
v -44.52353668212890624 40.70331954956054688 -80.83499908447265632
v -42.13248443603515624 36.76532363891601568 -80.83499908447265632
v -41.31312942504882812 35.32103347778320312 -80.83499908447265632
v -42.01775741577148437 36.20476913452148436 -80.83499908447265632
v -41.83169937133789056 37.85482788085937504 -80.83499908447265632
v -42.06837081909179688 37.33389663696289064 -80.83499908447265632
v -41.73542785644531248 35.70709991455078128 -80.83499908447265632
v -40.80658340454101568 44.42891311645507816 -80.83499908447265632
v -40.94796371459960944 38.55945587158203128 -80.83499908447265632
v -39.29790496826171876 38.37339782714843752 -80.83499908447265632
v -38.77933502197265632 35.8396034240722656 -80.83499908447265632
v -38.54266357421875 36.3605384826660156 -80.83499908447265632
v -40.38740921020507816 38.67418289184570312 -80.83499908447265632
v -39.8188400268554688 38.61006927490234376 -80.83499908447265632
v -38.8756065368652344 37.98733139038085936 -80.83499908447265632
v -38.59327697753906248 37.48966217041015624 -80.83499908447265632
v -41.44563293457031248 38.27712631225585936 -80.83499908447265632
v -38.47855377197265624 36.92910766601562496 -80.83499908447265632
v -39.66307067871093752 35.13497543334960938 -80.83499908447265632
v -39.16540145874023438 35.41730499267578128 -80.83499908447265632
v -48.65953826904296872 38.38325119018554688 -80.83499908447265632
v -45.7420768737792968 41.81730651855468752 -80.83499908447265632
v -30.26691436767578124 54.08269882202148438 -80.83499908447265632
v -26.25737762451171876 56.13888931274414062 -80.83499908447265632
v -25.55789756774902344 54.64338302612304688 -80.83499908447265632
v -34.116455078125 51.74062347412109376 -80.83499908447265632
v -36.77906799316406256 47.81637573242187504 -80.83499908447265632
v -37.7856521606445312 49.12503433227539062 -80.83499908447265632
v -4.0566706657409668 54.48299789428710936 -80.83499908447265632
v -3.95549035072326656 53.98861694335937504 -80.83499908447265632
v -20.69815826416015624 56.6629676818847656 -80.83499908447265632
v -15.68089199066162112 58.251312255859375 -80.83499908447265632
v 2.5613741874694824 60.270599365234375 -80.83499908447265632
v -1.55673146247863768 55.90122985839843744 -80.83499908447265632
v -2.01616454124450683 56.10995864868164062 -80.83499908447265632
v -0.93528681993484496 55.12182235717773438 -80.83499908447265632
v -1.18428635597229004 55.56074142456054688 -80.83499908447265632
v 7.804555892944336 59.81801223754882816 -80.83499908447265632
v -0.8341065049171448 54.6274452209472656 -80.83499908447265632
v -3.70649099349975584 53.54970169067382816 -80.83499908447265632
v -2.70130133628845216 60.26448822021484376 -80.83499908447265632
v -4.00012731552124023 54.98444366455078128 -80.83499908447265632
v -0.89064973592758176 54.12599563598632812 -80.83499908447265632
v -3.3340458869934082 53.20921325683593752 -80.83499908447265632
v -2.87461280822753904 53.00048065185546875 -80.83499908447265632
v -1.87878572940826416 53.0451202392578125 -80.83499908447265632
v -3.79139566421508784 55.44387817382812496 -80.83499908447265632
v -1.099381685256958 53.66656494140625 -80.83499908447265632
v -1.43987011909484864 53.29412078857421876 -80.83499908447265632
v -11.71921634674072264 60.8579063415527344 -80.83499908447265632
v -7.26642990112304688 61.54854583740234376 -80.83499908447265632
v -3.01199150085449218 56.0653228759765625 -80.83499908447265632
v -3.45090723037719728 55.81632232666015632 -80.83499908447265632
v -16.11005401611328124 59.84555816650390624 -80.83499908447265632
v -2.37316441535949704 52.94393920898437504 -80.83499908447265632
v -2.5176129341125488 56.16650390625 -80.83499908447265632
v 12.46216773986816408 60.71012115478515624 -80.83499908447265632
v -2.7752318382263184 61.91383361816406256 -80.83499908447265632
v 8.01815414428710937 61.4551353454589844 -80.83499908447265632
v 20.56654357910156248 56.7108726501464844 -80.83499908447265632
v 25.43095970153808592 54.70257568359375 -80.83499908447265632
v 30.10183143615722656 52.27796173095703124 -80.83499908447265632
v 16.84030342102050784 59.64418411254882816 -80.83499908447265632
v 21.12941741943359376 58.26295852661132812 -80.83499908447265632
v 30.9256706237792968 53.70872879028320312 -80.83499908447265632
v 34.74629974365234368 51.31977462768554688 -80.83499908447265632
v 38.38325119018554688 48.65953826904296872 -80.83499908447265632
v 35.8396034240722656 38.77933502197265632 -80.83499908447265632
v 36.3605384826660156 38.54266357421875 -80.83499908447265632
v 35.13497543334960938 39.66307067871093752 -80.83499908447265632
v 35.08436203002929688 40.79219818115234368 -80.83499908447265632
v 35.02025222778320312 40.22362518310546876 -80.83499908447265632
v 35.32103347778320312 41.31312942504882812 -80.83499908447265632
v 35.41730499267578128 39.16540145874023438 -80.83499908447265632
v 40.70331954956054688 44.52353668212890624 -80.83499908447265632
v 36.76532363891601568 42.13248443603515624 -80.83499908447265632
v 44.42891311645507816 40.80658340454101568 -80.83499908447265632
v 38.37339782714843752 39.29790496826171876 -80.83499908447265632
v 36.20476913452148436 42.01775741577148437 -80.83499908447265632
v 37.85482788085937504 41.83169937133789056 -80.83499908447265632
v 37.33389663696289064 42.06837081909179688 -80.83499908447265632
v 38.55945587158203128 40.94796371459960944 -80.83499908447265632
v 38.61006927490234376 39.8188400268554688 -80.83499908447265632
v 35.70709991455078128 41.73542785644531248 -80.83499908447265632
v 38.27712631225585936 41.44563293457031248 -80.83499908447265632
v 38.67418289184570312 40.38740921020507816 -80.83499908447265632
v 37.98733139038085936 38.8756065368652344 -80.83499908447265632
v 37.48966217041015624 38.59327697753906248 -80.83499908447265632
v 36.92910766601562496 38.47855377197265624 -80.83499908447265632
v 41.81730651855468752 45.7420768737792968 -80.83499908447265632
v 47.81637573242187504 36.77906799316406256 -80.83499908447265632
v 54.64338302612304688 25.55789756774902344 -80.83499908447265632
v 51.74062347412109376 34.116455078125 -80.83499908447265632
v 54.08269882202148438 30.26691436767578124 -80.83499908447265632
v 49.12503433227539062 37.7856521606445312 -80.83499908447265632
v 56.13888931274414062 26.25737762451171876 -80.83499908447265632
v 60.270599365234375 -2.5613741874694824 -80.83499908447265632
v 56.69418334960937504 1.59227490425109864 -80.83499908447265632
v 56.90291213989257808 2.05170798301696777 -80.83499908447265632
v 55.91477966308593744 0.97083026170730592 -80.83499908447265632
v 56.35369491577148436 1.21982979774475096 -80.83499908447265632
v 55.42039871215820312 0.86964994668960576 -80.83499908447265632
v 59.81801223754882816 -7.804555892944336 -80.83499908447265632
v 58.251312255859375 15.68089199066162112 -80.83499908447265632
v 59.84555816650390624 16.11005401611328124 -80.83499908447265632
v 60.8579063415527344 11.71921634674072264 -80.83499908447265632
v 59.64418411254882816 -16.84030342102050784 -80.83499908447265632
v 55.77740097045898432 4.03567075729370117 -80.83499908447265632
v 55.27595138549804688 4.09221410751342774 -80.83499908447265632
v 61.54854583740234376 7.26642990112304688 -80.83499908447265632
v 61.91383361816406256 2.7752318382263184 -80.83499908447265632
v 60.26448822021484376 2.70130133628845216 -80.83499908447265632
v 56.6629676818847656 20.69815826416015624 -80.83499908447265632
v 56.60927581787109376 3.48645067214965824 -80.83499908447265632
v 56.23683166503906248 3.8269391059875488 -80.83499908447265632
v 56.95945739746093744 2.55315637588500976 -80.83499908447265632
v 56.8582763671875 3.04753494262695312 -80.83499908447265632
v 53.69004440307617184 4.02112722396850586 -80.83499908447265632
v 52.252166748046875 1.8432422876358032 -80.83499908447265632
v 52.5011634826660156 1.40432667732238768 -80.83499908447265632
v 53.19566345214843752 3.9199469089508056 -80.83499908447265632
v 52.75674819946289056 3.67094755172729496 -80.83499908447265632
v 52.87361145019531248 1.06383824348449707 -80.83499908447265632
v 52.20752716064453124 2.83906936645507808 -80.83499908447265632
v 52.1509857177734375 2.33762097358703612 -80.83499908447265632
v 52.416259765625 3.29850244522094728 -80.83499908447265632
v 53.83449172973632816 0.79856306314468384 -80.83499908447265632
v 61.4551353454589844 -8.01815414428710937 -80.83499908447265632
v 60.71012115478515624 -12.46216773986816408 -80.83499908447265632
v 53.33304214477539064 0.8551062941551208 -80.83499908447265632
v 56.7108726501464844 -20.56654357910156248 -80.83499908447265632
v 54.70257568359375 -25.43095970153808592 -80.83499908447265632
v 58.26295852661132812 -21.12941741943359376 -80.83499908447265632
v 52.27796173095703124 -30.10183143615722656 -80.83499908447265632
v 51.31977462768554688 -34.74629974365234368 -80.83499908447265632
v 40.80658340454101568 -44.42891311645507816 -80.83499908447265632
v 39.29790496826171876 -38.37339782714843752 -80.83499908447265632
v 38.8756065368652344 -37.98733139038085936 -80.83499908447265632
v 38.59327697753906248 -37.48966217041015624 -80.83499908447265632
v 38.77933502197265632 -35.8396034240722656 -80.83499908447265632
v 38.54266357421875 -36.3605384826660156 -80.83499908447265632
v 39.8188400268554688 -38.61006927490234376 -80.83499908447265632
v 38.47855377197265624 -36.92910766601562496 -80.83499908447265632
v 39.66307067871093752 -35.13497543334960938 -80.83499908447265632
v 40.79219818115234368 -35.08436203002929688 -80.83499908447265632
v 40.22362518310546876 -35.02025222778320312 -80.83499908447265632
v 41.31312942504882812 -35.32103347778320312 -80.83499908447265632
v 44.52353668212890624 -40.70331954956054688 -80.83499908447265632
v 42.13248443603515624 -36.76532363891601568 -80.83499908447265632
v 41.83169937133789056 -37.85482788085937504 -80.83499908447265632
v 42.06837081909179688 -37.33389663696289064 -80.83499908447265632
v 39.16540145874023438 -35.41730499267578128 -80.83499908447265632
v 42.01775741577148437 -36.20476913452148436 -80.83499908447265632
v 41.73542785644531248 -35.70709991455078128 -80.83499908447265632
v 40.94796371459960944 -38.55945587158203128 -80.83499908447265632
v 41.44563293457031248 -38.27712631225585936 -80.83499908447265632
v 40.38740921020507816 -38.67418289184570312 -80.83499908447265632
v 48.65953826904296872 -38.38325119018554688 -80.83499908447265632
v 45.7420768737792968 -41.81730651855468752 -80.83499908447265632
v 36.77906799316406256 -47.81637573242187504 -80.83499908447265632
v 25.55789756774902344 -54.64338302612304688 -80.83499908447265632
v 34.116455078125 -51.74062347412109376 -80.83499908447265632
v 30.26691436767578124 -54.08269882202148438 -80.83499908447265632
v 37.7856521606445312 -49.12503433227539062 -80.83499908447265632
v 26.25737762451171876 -56.13888931274414062 -80.83499908447265632
v 0.8341065049171448 -54.6274452209472656 -80.83499908447265632
v 0.93528681993484496 -55.12182235717773438 -80.83499908447265632
v -7.804555892944336 -59.81801223754882816 -80.83499908447265632
v 1.18428635597229004 -55.56074142456054688 -80.83499908447265632
v -2.5613741874694824 -60.270599365234375 -80.83499908447265632
v 0.89064973592758176 -54.12599563598632812 -80.83499908447265632
v 15.68089199066162112 -58.251312255859375 -80.83499908447265632
v 16.11005401611328124 -59.84555816650390624 -80.83499908447265632
v 11.71921634674072264 -60.8579063415527344 -80.83499908447265632
v 7.26642990112304688 -61.54854583740234376 -80.83499908447265632
v 2.7752318382263184 -61.91383361816406256 -80.83499908447265632
v 2.70130133628845216 -60.26448822021484376 -80.83499908447265632
v 4.00012731552124023 -54.98444366455078128 -80.83499908447265632
v 1.55673146247863768 -55.90122985839843744 -80.83499908447265632
v 1.099381685256958 -53.66656494140625 -80.83499908447265632
v 20.69815826416015624 -56.6629676818847656 -80.83499908447265632
v 1.87878572940826416 -53.0451202392578125 -80.83499908447265632
v 1.43987011909484864 -53.29412078857421876 -80.83499908447265632
v 2.87461280822753904 -53.00048065185546875 -80.83499908447265632
v 2.37316441535949704 -52.94393920898437504 -80.83499908447265632
v 3.01199150085449218 -56.0653228759765625 -80.83499908447265632
v 3.45090723037719728 -55.81632232666015632 -80.83499908447265632
v 4.0566706657409668 -54.48299789428710936 -80.83499908447265632
v 3.95549035072326656 -53.98861694335937504 -80.83499908447265632
v 3.79139566421508784 -55.44387817382812496 -80.83499908447265632
v 2.5176129341125488 -56.16650390625 -80.83499908447265632
v 3.70649099349975584 -53.54970169067382816 -80.83499908447265632
v 3.3340458869934082 -53.20921325683593752 -80.83499908447265632
v -8.01815414428710937 -61.4551353454589844 -80.83499908447265632
v -12.46216773986816408 -60.71012115478515624 -80.83499908447265632
v 2.01616454124450683 -56.10995864868164062 -80.83499908447265632
v -16.84030342102050784 -59.64418411254882816 -80.83499908447265632
v -20.56654357910156248 -56.7108726501464844 -80.83499908447265632
v -25.43095970153808592 -54.70257568359375 -80.83499908447265632
v -21.12941741943359376 -58.26295852661132812 -80.83499908447265632
v -30.10183143615722656 -52.27796173095703124 -80.83499908447265632
v -34.74629974365234368 -51.31977462768554688 -80.83499908447265632
v -44.42891311645507816 -40.80658340454101568 -80.83499908447265632
v -38.37339782714843752 -39.29790496826171876 -80.83499908447265632
v -37.98733139038085936 -38.8756065368652344 -80.83499908447265632
v -37.48966217041015624 -38.59327697753906248 -80.83499908447265632
v -35.8396034240722656 -38.77933502197265632 -80.83499908447265632
v -36.3605384826660156 -38.54266357421875 -80.83499908447265632
v -35.08436203002929688 -40.79219818115234368 -80.83499908447265632
v -35.02025222778320312 -40.22362518310546876 -80.83499908447265632
v -35.32103347778320312 -41.31312942504882812 -80.83499908447265632
v -38.61006927490234376 -39.8188400268554688 -80.83499908447265632
v -36.92910766601562496 -38.47855377197265624 -80.83499908447265632
v -35.13497543334960938 -39.66307067871093752 -80.83499908447265632
v -38.38325119018554688 -48.65953826904296872 -80.83499908447265632
v -40.70331954956054688 -44.52353668212890624 -80.83499908447265632
v -37.85482788085937504 -41.83169937133789056 -80.83499908447265632
v -35.41730499267578128 -39.16540145874023438 -80.83499908447265632
v -36.20476913452148436 -42.01775741577148437 -80.83499908447265632
v -37.33389663696289064 -42.06837081909179688 -80.83499908447265632
v -38.67418289184570312 -40.38740921020507816 -80.83499908447265632
v -38.55945587158203128 -40.94796371459960944 -80.83499908447265632
v -35.70709991455078128 -41.73542785644531248 -80.83499908447265632
v -38.27712631225585936 -41.44563293457031248 -80.83499908447265632
v -36.76532363891601568 -42.13248443603515624 -80.83499908447265632
v -41.81730651855468752 -45.7420768737792968 -80.83499908447265632
v -54.08269882202148438 -30.26691436767578124 -80.83499908447265632
v -56.13888931274414062 -26.25737762451171876 -80.83499908447265632
v -54.64338302612304688 -25.55789756774902344 -80.83499908447265632
v -51.74062347412109376 -34.116455078125 -80.83499908447265632
v -47.81637573242187504 -36.77906799316406256 -80.83499908447265632
v -49.12503433227539062 -37.7856521606445312 -80.83499908447265632
v -58.251312255859375 -15.68089199066162112 -80.83499908447265632
v -60.8579063415527344 -11.71921634674072264 -80.83499908447265632
v -61.54854583740234376 -7.26642990112304688 -80.83499908447265632
v -55.12182235717773438 -0.93528681993484496 -80.83499908447265632
v -60.26448822021484376 -2.70130133628845216 -80.83499908447265632
v -60.270599365234375 2.5613741874694824 -80.83499908447265632
v -59.81801223754882816 7.804555892944336 -80.83499908447265632
v -54.6274452209472656 -0.8341065049171448 -80.83499908447265632
v -53.98861694335937504 -3.95549035072326656 -80.83499908447265632
v -53.54970169067382816 -3.70649099349975584 -80.83499908447265632
v -54.48299789428710936 -4.0566706657409668 -80.83499908447265632
v -59.84555816650390624 -16.11005401611328124 -80.83499908447265632
v -54.12599563598632812 -0.89064973592758176 -80.83499908447265632
v -53.20921325683593752 -3.3340458869934082 -80.83499908447265632
v -53.00048065185546875 -2.87461280822753904 -80.83499908447265632
v -53.0451202392578125 -1.87878572940826416 -80.83499908447265632
v -61.91383361816406256 -2.7752318382263184 -80.83499908447265632
v -53.66656494140625 -1.099381685256958 -80.83499908447265632
v -53.29412078857421876 -1.43987011909484864 -80.83499908447265632
v -52.94393920898437504 -2.37316441535949704 -80.83499908447265632
v -55.90122985839843744 -1.55673146247863768 -80.83499908447265632
v -56.10995864868164062 -2.01616454124450683 -80.83499908447265632
v -56.6629676818847656 -20.69815826416015624 -80.83499908447265632
v -55.56074142456054688 -1.18428635597229004 -80.83499908447265632
v -60.71012115478515624 12.46216773986816408 -80.83499908447265632
v -55.44387817382812496 -3.79139566421508784 -80.83499908447265632
v -54.98444366455078128 -4.00012731552124023 -80.83499908447265632
v -56.0653228759765625 -3.01199150085449218 -80.83499908447265632
v -55.81632232666015632 -3.45090723037719728 -80.83499908447265632
v -61.4551353454589844 8.01815414428710937 -80.83499908447265632
v -56.16650390625 -2.5176129341125488 -80.83499908447265632
v -56.7108726501464844 20.56654357910156248 -80.83499908447265632
v -54.70257568359375 25.43095970153808592 -80.83499908447265632
v -52.27796173095703124 30.10183143615722656 -80.83499908447265632
v -59.64418411254882816 16.84030342102050784 -80.83499908447265632
v -58.26295852661132812 21.12941741943359376 -80.83499908447265632
v -53.70872879028320312 30.9256706237792968 -80.83499908447265632
v -51.31977462768554688 34.74629974365234368 -80.83499908447265632
v -30.9256706237792968 -53.70872879028320312 -80.83499908447265632
v 53.70872879028320312 -30.9256706237792968 -80.83499908447265632
# 672 vertices

vn -0.10072289407253266 0.99491453170776368 0
vn -0.21148465573787688 0.97738128900527952 0
vn -0.3195868730545044 0.94755697250366208 0
vn -0.42367008328437808 0.90581655502319328 0
vn -0.52242541313171384 0.85268497467041008 0
vn -0.61461097002029416 0.78883039951324464 0
vn -0.69906741380691528 0.7150558233261108 0
vn -0.77473264932632448 0.63228893280029296 0
vn -0.84065520763397216 0.5415707230567932 0
vn -0.89600598812103264 0.44404193758964536 0
vn -0.94008904695510864 0.34092903137207032 0
vn -0.97234988212585456 0.2335287779569626 0
vn -0.99238288402557376 0.12319174408912658 0
vn -0.9999361038208008 0.01130551379173994 0
vn -0.99491453170776368 -0.10072289407253266 0
vn -0.97738128900527952 -0.21148465573787688 0
vn -0.94755697250366208 -0.3195868730545044 0
vn -0.90581655502319328 -0.42367008328437808 0
vn -0.85268497467041008 -0.52242541313171384 0
vn -0.78883039951324464 -0.61461097002029416 0
vn -0.7150558233261108 -0.69906741380691528 0
vn -0.63228893280029296 -0.77473264932632448 0
vn -0.5415707230567932 -0.84065520763397216 0
vn -0.44404193758964536 -0.89600598812103264 0
vn -0.31230303645133972 -0.94998252391815184 0
vn -0.36507767438888552 -0.93097704648971552 0
vn -0.2335287779569626 -0.97234988212585456 0
vn -0.12319174408912658 -0.99238288402557376 0
vn -0.01130551379173994 -0.9999361038208008 0
vn 0.10072289407253266 -0.99491453170776368 0
vn 0.21148465573787688 -0.97738128900527952 0
vn 0.3195868730545044 -0.94755697250366208 0
vn 0.42367008328437808 -0.90581655502319328 0
vn 0.52242541313171384 -0.85268497467041008 0
vn 0.61461097002029416 -0.78883039951324464 0
vn 0.69906741380691528 -0.7150558233261108 0
vn 0.77473264932632448 -0.63228893280029296 0
vn 0.84065520763397216 -0.5415707230567932 0
vn 0.89600598812103264 -0.44404193758964536 0
vn 0.94998252391815184 -0.31230303645133972 0
vn 0.93097704648971552 -0.36507767438888552 0
vn 0.97234988212585456 -0.2335287779569626 0
vn 0.99238288402557376 -0.12319174408912658 0
vn 0.9999361038208008 -0.01130551379173994 0
vn 0.99491453170776368 0.10072289407253266 0
vn 0.97738128900527952 0.21148465573787688 0
vn 0.94755697250366208 0.3195868730545044 0
vn 0.90581655502319328 0.42367008328437808 0
vn 0.85268497467041008 0.52242541313171384 0
vn 0.78883039951324464 0.61461097002029416 0
vn 0.7150558233261108 0.69906741380691528 0
vn 0.63228893280029296 0.77473264932632448 0
vn 0.5415707230567932 0.84065520763397216 0
vn 0.44404193758964536 0.89600598812103264 0
vn 0.34092903137207032 0.94008904695510864 0
vn 0.2335287779569626 0.97234988212585456 0
vn 0.12319174408912658 0.99238288402557376 0
vn 0.01130551379173994 0.9999361038208008 0
vn 0 0 1
vn 0 0 -1
vn -0.986237108707428 0.16533713042736054 0
vn -0.97161734104156496 0.23655812442302704 0
vn -0.95186144113540656 0.30652862787246704 0
vn -0.8478925228118896 0.53016817569732664 0
vn -0.80713051557540896 0.59037303924560544 0
vn -0.76210188865661616 0.6474571228027344 0
vn -0.58046394586563112 0.81428593397140496 0
vn -0.51976537704467776 0.85430908203124992 0
vn -0.4563192129135132 0.88981616497039792 0
vn -0.22466501593589784 0.97443604469299312 0
vn -0.1532706618309021 0.9881842732429504 0
vn -0.08106608688831329 0.99670875072479248 0
vn 0.16533713042736054 0.986237108707428 0
vn 0.23655812442302704 0.97161734104156496 0
vn 0.30652862787246704 0.95186144113540656 0
vn 0.53016817569732664 0.8478925228118896 0
vn 0.59037303924560544 0.80713051557540896 0
vn 0.6474571228027344 0.76210188865661616 0
vn 0.81428593397140496 0.58046394586563112 0
vn 0.85430908203124992 0.51976537704467776 0
vn 0.88981616497039792 0.4563192129135132 0
vn 0.97443604469299312 0.22466501593589784 0
vn 0.9881842732429504 0.1532706618309021 0
vn 0.99670875072479248 0.08106608688831329 0
vn 0.986237108707428 -0.16533713042736054 0
vn 0.97161734104156496 -0.23655812442302704 0
vn 0.95186144113540656 -0.30652862787246704 0
vn 0.8478925228118896 -0.53016817569732664 0
vn 0.80713051557540896 -0.59037303924560544 0
vn 0.76210188865661616 -0.6474571228027344 0
vn 0.58046394586563112 -0.81428593397140496 0
vn 0.51976537704467776 -0.85430908203124992 0
vn 0.4563192129135132 -0.88981616497039792 0
vn 0.22466501593589784 -0.97443604469299312 0
vn 0.1532706618309021 -0.9881842732429504 0
vn 0.08106608688831329 -0.99670875072479248 0
vn -0.16533713042736054 -0.986237108707428 0
vn -0.23655812442302704 -0.97161734104156496 0
vn -0.30652862787246704 -0.95186144113540656 0
vn -0.53016817569732664 -0.8478925228118896 0
vn -0.59037303924560544 -0.80713051557540896 0
vn -0.6474571228027344 -0.76210188865661616 0
vn -0.81428593397140496 -0.58046394586563112 0
vn -0.85430908203124992 -0.51976537704467776 0
vn -0.88981616497039792 -0.4563192129135132 0
vn -0.97443604469299312 -0.22466501593589784 0
vn -0.9881842732429504 -0.1532706618309021 0
vn -0.99670875072479248 -0.08106608688831329 0
vn -0.04477913677692413 0.99899691343307488 0
vn -0.129375159740448 -0.99159574508666992 0
vn -0.9962952136993408 0.08599922060966492 0
vn -0.99999934434890752 -0.00116088311187922 0
vn 0.25994020700454712 -0.9656246900558472 0
vn -0.9533672332763672 -0.30181273818016052 0
vn -0.9234346747398376 -0.38375568389892576 0
vn -0.73806113004684448 0.6747338771820068 0
vn 0.609682023525238 -0.79264611005783088 0
vn -0.7652977108955384 -0.64367645978927616 0
vn -0.70628541707992552 -0.70792716741561888 0
vn 0.86660528182983392 -0.4989943206310272 0
vn -0.46071857213974 -0.8875463008880616 0
vn -0.38161066174507144 -0.92432314157485968 0
vn -0.99899691343307488 -0.04477913677692413 0
vn 0.99159574508666992 -0.129375159740448 0
vn -0.08599922060966492 -0.9962952136993408 0
vn 0.00116088311187922 -0.99999934434890752 0
vn 0.9656246900558472 0.25994020700454712 0
vn 0.30181273818016052 -0.9533672332763672 0
vn 0.38375568389892576 -0.9234346747398376 0
vn -0.6747338771820068 -0.73806113004684448 0
vn 0.79264611005783088 0.609682023525238 0
vn 0.64367645978927616 -0.7652977108955384 0
vn 0.70792716741561888 -0.70628541707992552 0
vn -0.34092903137207032 -0.94008904695510864 0
vn 0.4989943206310272 0.86660528182983392 0
vn 0.8875463008880616 -0.46071857213974 0
vn 0.92432314157485968 -0.38161066174507144 0
vn 0.04477913677692413 -0.99899691343307488 0
vn 0.129375159740448 0.99159574508666992 0
vn 0.9962952136993408 -0.08599922060966492 0
vn 0.99999934434890752 0.00116088311187922 0
vn -0.25994020700454712 0.9656246900558472 0
vn 0.9533672332763672 0.30181273818016052 0
vn 0.9234346747398376 0.38375568389892576 0
vn 0.73806113004684448 -0.6747338771820068 0
vn -0.609682023525238 0.79264611005783088 0
vn 0.7652977108955384 0.64367645978927616 0
vn 0.70628541707992552 0.70792716741561888 0
vn 0.94008904695510864 -0.34092903137207032 0
vn -0.86660528182983392 0.4989943206310272 0
vn 0.46071857213974 0.8875463008880616 0
vn 0.38161066174507144 0.92432314157485968 0
vn 0.99899691343307488 0.04477913677692413 0
vn -0.99159574508666992 0.129375159740448 0
vn 0.08599922060966492 0.9962952136993408 0
vn -0.00116088311187922 0.99999934434890752 0
vn -0.9656246900558472 -0.25994020700454712 0
vn -0.30181273818016052 0.9533672332763672 0
vn -0.38375568389892576 0.9234346747398376 0
vn 0.6747338771820068 0.73806113004684448 0
vn -0.79264611005783088 -0.609682023525238 0
vn -0.64367645978927616 0.7652977108955384 0
vn -0.70792716741561888 0.70628541707992552 0
vn -0.4989943206310272 -0.86660528182983392 0
vn -0.8875463008880616 0.46071857213974 0
vn -0.92432314157485968 0.38161066174507144 0
vn -0.2005053758621216 0.97969257831573488 0
vn -0.49343359470367432 0.86978346109390256 0
vn -0.91044205427169792 0.41363659501075744 0
vn -0.9937025904655456 0.11204971373081208 0
vn -0.97969257831573488 -0.2005053758621216 0
vn -0.86978346109390256 -0.49343359470367432 0
vn -0.41363659501075744 -0.91044205427169792 0
vn -0.11204971373081208 -0.9937025904655456 0
vn 0.2005053758621216 -0.97969257831573488 0
vn 0.49343359470367432 -0.86978346109390256 0
vn 0.91044205427169792 -0.41363659501075744 0
vn 0.9937025904655456 -0.11204971373081208 0
vn 0.97969257831573488 0.2005053758621216 0
vn 0.86978346109390256 0.49343359470367432 0
vn 0.41363659501075744 0.91044205427169792 0
vn 0.11204971373081208 0.9937025904655456 0
# 182 vertex normals

g obj_32595338
s 1
f 1//1 2//1 3//1
f 4//2 1//2 5//2
f 6//3 4//3 7//3
f 8//4 6//4 9//4
f 10//5 8//5 11//5
f 12//6 10//6 13//6
f 14//7 12//7 15//7
f 16//8 14//8 17//8
f 18//9 16//9 19//9
f 20//10 18//10 21//10
f 22//11 20//11 23//11
f 24//12 22//12 25//12
f 26//13 24//13 27//13
f 28//14 26//14 29//14
f 30//15 28//15 31//15
f 32//16 30//16 33//16
f 34//17 32//17 35//17
f 36//18 34//18 37//18
f 38//19 36//19 39//19
f 40//20 38//20 41//20
f 42//21 40//21 43//21
f 44//22 42//22 45//22
f 46//23 44//23 47//23
f 48//24 46//24 49//24
f 50//25 51//25 52//25
f 53//26 52//26 51//26
f 51//26 48//26 53//26
f 54//27 50//27 55//27
f 56//28 54//28 57//28
f 58//29 56//29 59//29
f 60//30 58//30 61//30
f 62//31 60//31 63//31
f 64//32 62//32 65//32
f 66//33 64//33 67//33
f 68//34 66//34 69//34
f 70//35 68//35 71//35
f 72//36 70//36 73//36
f 74//37 72//37 75//37
f 76//38 74//38 77//38
f 78//39 76//39 79//39
f 80//40 81//40 82//40
f 83//41 82//41 81//41
f 81//41 78//41 83//41
f 84//42 80//42 85//42
f 86//43 84//43 87//43
f 88//44 86//44 89//44
f 90//45 88//45 91//45
f 92//46 90//46 93//46
f 94//47 92//47 95//47
f 96//48 94//48 97//48
f 98//49 96//49 99//49
f 100//50 98//50 101//50
f 102//51 100//51 103//51
f 104//52 102//52 105//52
f 106//53 104//53 107//53
f 108//54 106//54 109//54
f 110//55 108//55 111//55
f 112//56 110//56 113//56
f 114//57 112//57 115//57
f 2//58 114//58 116//58
f 116//58 3//58 2//58
f 115//57 116//57 114//57
f 113//56 115//56 112//56
f 111//55 113//55 110//55
f 109//54 111//54 108//54
f 107//53 109//53 106//53
f 105//52 107//52 104//52
f 103//51 105//51 102//51
f 101//50 103//50 100//50
f 99//49 101//49 98//49
f 97//48 99//48 96//48
f 95//47 97//47 94//47
f 93//46 95//46 92//46
f 91//45 93//45 90//45
f 89//44 91//44 88//44
f 87//43 89//43 86//43
f 85//42 87//42 84//42
f 82//40 85//40 80//40
f 79//39 83//39 78//39
f 77//38 79//38 76//38
f 75//37 77//37 74//37
f 73//36 75//36 72//36
f 71//35 73//35 70//35
f 69//34 71//34 68//34
f 67//33 69//33 66//33
f 65//32 67//32 64//32
f 63//31 65//31 62//31
f 61//30 63//30 60//30
f 59//29 61//29 58//29
f 57//28 59//28 56//28
f 55//27 57//27 54//27
f 52//25 55//25 50//25
f 49//24 53//24 48//24
f 47//23 49//23 46//23
f 45//22 47//22 44//22
f 43//21 45//21 42//21
f 41//20 43//20 40//20
f 39//19 41//19 38//19
f 37//18 39//18 36//18
f 35//17 37//17 34//17
f 33//16 35//16 32//16
f 31//15 33//15 30//15
f 29//14 31//14 28//14
f 27//13 29//13 26//13
f 25//12 27//12 24//12
f 23//11 25//11 22//11
f 21//10 23//10 20//10
f 19//9 21//9 18//9
f 17//8 19//8 16//8
f 15//7 17//7 14//7
f 13//6 15//6 12//6
f 11//5 13//5 10//5
f 9//4 11//4 8//4
f 7//3 9//3 6//3
f 5//2 7//2 4//2
f 3//1 5//1 1//1
f 117//59 29//59 27//59
f 117//59 31//59 29//59
f 118//59 33//59 31//59
f 31//59 117//59 118//59
f 118//59 37//59 35//59
f 35//59 33//59 118//59
f 119//59 116//59 115//59
f 119//59 120//59 3//59
f 3//59 116//59 119//59
f 120//59 5//59 3//59
f 120//59 9//59 7//59
f 7//59 5//59 120//59
f 121//59 122//59 123//59
f 122//59 124//59 123//59
f 124//59 122//59 125//59
f 125//59 126//59 124//59
f 121//59 127//59 122//59
f 121//59 128//59 129//59
f 91//59 130//59 128//59
f 131//59 87//59 85//59
f 131//59 132//59 89//59
f 129//59 127//59 121//59
f 91//59 133//59 130//59
f 89//59 134//59 135//59
f 89//59 87//59 131//59
f 82//59 136//59 137//59
f 138//59 139//59 140//59
f 141//59 136//59 139//59
f 128//59 121//59 91//59
f 91//59 135//59 142//59
f 89//59 132//59 134//59
f 137//59 131//59 82//59
f 125//59 143//59 138//59
f 139//59 144//59 141//59
f 139//59 145//59 146//59
f 142//59 133//59 91//59
f 85//59 82//59 131//59
f 125//59 147//59 143//59
f 146//59 144//59 139//59
f 139//59 138//59 148//59
f 95//59 121//59 149//59
f 150//59 99//59 97//59
f 135//59 91//59 89//59
f 125//59 122//59 147//59
f 148//59 145//59 139//59
f 139//59 136//59 151//59
f 121//59 95//59 93//59
f 97//59 149//59 150//59
f 140//59 125//59 138//59
f 151//59 152//59 139//59
f 149//59 97//59 95//59
f 141//59 137//59 136//59
f 123//59 153//59 121//59
f 154//59 99//59 150//59
f 155//59 156//59 157//59
f 150//59 158//59 154//59
f 154//59 155//59 99//59
f 157//59 99//59 155//59
f 159//59 160//59 103//59
f 161//59 159//59 101//59
f 162//59 163//59 164//59
f 165//59 166//59 167//59
f 101//59 99//59 161//59
f 162//59 168//59 163//59
f 167//59 162//59 165//59
f 99//59 164//59 161//59
f 167//59 168//59 162//59
f 164//59 99//59 162//59
f 165//59 169//59 170//59
f 109//59 171//59 169//59
f 172//59 109//59 107//59
f 165//59 173//59 166//59
f 169//59 165//59 109//59
f 107//59 174//59 172//59
f 105//59 175//59 176//59
f 170//59 173//59 165//59
f 109//59 177//59 178//59
f 107//59 176//59 174//59
f 105//59 179//59 175//59
f 178//59 171//59 109//59
f 176//59 107//59 105//59
f 105//59 103//59 180//59
f 181//59 109//59 165//59
f 172//59 177//59 109//59
f 103//59 160//59 180//59
f 181//59 111//59 109//59
f 180//59 179//59 105//59
f 103//59 101//59 159//59
f 119//59 113//59 111//59
f 111//59 181//59 182//59
f 182//59 183//59 111//59
f 184//59 119//59 185//59
f 119//59 183//59 186//59
f 186//59 185//59 119//59
f 187//59 119//59 188//59
f 188//59 189//59 187//59
f 189//59 188//59 190//59
f 191//59 192//59 193//59
f 190//59 194//59 189//59
f 190//59 195//59 196//59
f 192//59 197//59 193//59
f 197//59 192//59 195//59
f 187//59 198//59 119//59
f 196//59 199//59 190//59
f 195//59 200//59 197//59
f 119//59 201//59 202//59
f 199//59 194//59 190//59
f 191//59 203//59 192//59
f 198//59 201//59 119//59
f 191//59 204//59 203//59
f 202//59 205//59 119//59
f 195//59 206//59 207//59
f 195//59 208//59 209//59
f 191//59 210//59 204//59
f 191//59 211//59 212//59
f 207//59 196//59 195//59
f 195//59 192//59 208//59
f 120//59 211//59 191//59
f 212//59 210//59 191//59
f 209//59 206//59 195//59
f 188//59 119//59 213//59
f 191//59 214//59 120//59
f 120//59 119//59 215//59
f 205//59 215//59 119//59
f 119//59 184//59 213//59
f 215//59 211//59 120//59
f 213//59 216//59 188//59
f 193//59 217//59 191//59
f 218//59 219//59 220//59
f 220//59 221//59 218//59
f 222//59 120//59 218//59
f 223//59 224//59 11//59
f 120//59 222//59 223//59
f 223//59 9//59 120//59
f 17//59 225//59 226//59
f 17//59 15//59 227//59
f 228//59 229//59 15//59
f 230//59 228//59 13//59
f 226//59 19//59 17//59
f 15//59 229//59 227//59
f 13//59 11//59 230//59
f 17//59 231//59 225//59
f 15//59 13//59 228//59
f 224//59 232//59 233//59
f 227//59 231//59 17//59
f 224//59 234//59 232//59
f 11//59 233//59 230//59
f 224//59 235//59 234//59
f 236//59 237//59 235//59
f 236//59 238//59 239//59
f 21//59 240//59 238//59
f 233//59 11//59 224//59
f 236//59 241//59 237//59
f 238//59 236//59 21//59
f 21//59 242//59 243//59
f 235//59 224//59 236//59
f 243//59 240//59 21//59
f 244//59 21//59 19//59
f 245//59 21//59 236//59
f 239//59 241//59 236//59
f 19//59 246//59 244//59
f 245//59 23//59 21//59
f 244//59 242//59 21//59
f 226//59 246//59 19//59
f 117//59 25//59 23//59
f 23//59 245//59 247//59
f 247//59 248//59 23//59
f 249//59 117//59 250//59
f 117//59 248//59 251//59
f 251//59 250//59 117//59
f 117//59 252//59 253//59
f 117//59 254//59 252//59
f 255//59 256//59 257//59
f 258//59 259//59 260//59
f 261//59 258//59 262//59
f 261//59 263//59 264//59
f 118//59 265//59 266//59
f 118//59 117//59 267//59
f 117//59 268//59 269//59
f 117//59 257//59 254//59
f 255//59 270//59 256//59
f 255//59 260//59 271//59
f 262//59 263//59 261//59
f 264//59 272//59 273//59
f 266//59 274//59 118//59
f 267//59 275//59 118//59
f 117//59 276//59 268//59
f 257//59 117//59 255//59
f 260//59 259//59 271//59
f 264//59 273//59 261//59
f 275//59 265//59 118//59
f 269//59 277//59 117//59
f 255//59 278//59 270//59
f 260//59 262//59 258//59
f 277//59 267//59 117//59
f 271//59 278//59 255//59
f 253//59 276//59 117//59
f 274//59 272//59 118//59
f 117//59 279//59 280//59
f 279//59 117//59 281//59
f 118//59 272//59 264//59
f 280//59 255//59 117//59
f 117//59 249//59 281//59
f 264//59 282//59 118//59
f 281//59 283//59 279//59
f 255//59 284//59 260//59
f 285//59 286//59 287//59
f 287//59 288//59 285//59
f 289//59 118//59 285//59
f 290//59 291//59 39//59
f 118//59 289//59 290//59
f 290//59 37//59 118//59
f 53//59 292//59 293//59
f 294//59 53//59 49//59
f 295//59 49//59 47//59
f 45//59 296//59 297//59
f 293//59 298//59 53//59
f 47//59 299//59 295//59
f 297//59 47//59 45//59
f 53//59 294//59 292//59
f 297//59 299//59 47//59
f 45//59 43//59 300//59
f 49//59 295//59 294//59
f 43//59 301//59 300//59
f 302//59 301//59 43//59
f 291//59 303//59 304//59
f 45//59 305//59 296//59
f 43//59 41//59 302//59
f 306//59 302//59 41//59
f 291//59 307//59 303//59
f 308//59 309//59 310//59
f 300//59 305//59 45//59
f 39//59 304//59 306//59
f 291//59 310//59 307//59
f 308//59 311//59 309//59
f 41//59 39//59 306//59
f 310//59 291//59 308//59
f 304//59 39//59 291//59
f 308//59 312//59 313//59
f 298//59 312//59 308//59
f 313//59 311//59 308//59
f 293//59 312//59 298//59
f 314//59 52//59 53//59
f 53//59 315//59 316//59
f 317//59 52//59 314//59
f 53//59 298//59 315//59
f 53//59 316//59 314//59
f 315//59 298//59 318//59
f 318//59 319//59 315//59
f 320//59 321//59 322//59
f 323//59 324//59 325//59
f 326//59 327//59 328//59
f 322//59 323//59 320//59
f 323//59 329//59 324//59
f 61//59 330//59 329//59
f 331//59 57//59 55//59
f 331//59 332//59 59//59
f 328//59 52//59 326//59
f 327//59 326//59 333//59
f 321//59 334//59 335//59
f 325//59 320//59 323//59
f 61//59 336//59 330//59
f 59//59 57//59 331//59
f 333//59 337//59 327//59
f 333//59 338//59 339//59
f 335//59 322//59 321//59
f 329//59 323//59 61//59
f 59//59 340//59 341//59
f 328//59 331//59 52//59
f 339//59 342//59 333//59
f 322//59 343//59 323//59
f 59//59 332//59 340//59
f 342//59 337//59 333//59
f 334//59 344//59 335//59
f 61//59 341//59 345//59
f 55//59 52//59 331//59
f 323//59 65//59 63//59
f 65//59 323//59 346//59
f 345//59 336//59 61//59
f 338//59 347//59 339//59
f 346//59 67//59 65//59
f 348//59 69//59 67//59
f 335//59 347//59 338//59
f 341//59 61//59 59//59
f 67//59 346//59 348//59
f 344//59 347//59 335//59
f 349//59 350//59 326//59
f 338//59 351//59 335//59
f 52//59 317//59 349//59
f 326//59 52//59 349//59
f 352//59 353//59 354//59
f 69//59 355//59 352//59
f 355//59 69//59 348//59
f 348//59 356//59 355//59
f 354//59 69//59 352//59
f 357//59 358//59 359//59
f 79//59 360//59 361//59
f 359//59 362//59 357//59
f 357//59 361//59 363//59
f 79//59 364//59 360//59
f 357//59 365//59 358//59
f 361//59 357//59 79//59
f 366//59 79//59 77//59
f 363//59 365//59 357//59
f 77//59 367//59 366//59
f 75//59 73//59 368//59
f 79//59 369//59 364//59
f 77//59 370//59 367//59
f 75//59 371//59 370//59
f 73//59 372//59 368//59
f 373//59 372//59 73//59
f 374//59 373//59 71//59
f 366//59 369//59 79//59
f 75//59 375//59 371//59
f 73//59 71//59 373//59
f 69//59 376//59 374//59
f 370//59 77//59 75//59
f 71//59 69//59 374//59
f 362//59 377//59 376//59
f 378//59 79//59 357//59
f 368//59 375//59 75//59
f 362//59 379//59 377//59
f 378//59 83//59 79//59
f 376//59 69//59 362//59
f 359//59 379//59 362//59
f 380//59 82//59 83//59
f 83//59 381//59 382//59
f 136//59 82//59 380//59
f 83//59 378//59 381//59
f 83//59 382//59 380//59
f 381//59 378//59 383//59
f 383//59 384//59 381//59
f 380//59 385//59 136//59
f 357//59 386//59 378//59
f 354//59 362//59 69//59
f 63//59 61//59 323//59
f 314//59 387//59 317//59
f 308//59 388//59 298//59
f 39//59 37//59 290//59
f 288//59 289//59 285//59
f 282//59 285//59 118//59
f 250//59 389//59 249//59
f 23//59 248//59 117//59
f 248//59 247//59 390//59
f 236//59 391//59 245//59
f 11//59 9//59 223//59
f 221//59 222//59 218//59
f 214//59 218//59 120//59
f 185//59 392//59 184//59
f 111//59 183//59 119//59
f 183//59 182//59 393//59
f 165//59 394//59 181//59
f 157//59 162//59 99//59
f 93//59 91//59 121//59
f 115//59 113//59 119//59
f 27//59 25//59 117//59
f 395//60 114//60 2//60
f 396//60 1//60 4//60
f 395//60 112//60 114//60
f 396//60 2//60 1//60
f 395//60 110//60 112//60
f 2//60 396//60 395//60
f 397//60 30//60 32//60
f 397//60 398//60 28//60
f 28//60 30//60 397//60
f 398//60 26//60 28//60
f 398//60 24//60 26//60
f 398//60 22//60 24//60
f 399//60 400//60 74//60
f 76//60 401//60 402//60
f 76//60 403//60 399//60
f 402//60 404//60 76//60
f 401//60 405//60 406//60
f 76//60 407//60 403//60
f 406//60 402//60 401//60
f 401//60 408//60 409//60
f 408//60 66//60 410//60
f 72//60 411//60 412//60
f 404//60 407//60 76//60
f 408//60 413//60 409//60
f 410//60 414//60 408//60
f 415//60 66//60 68//60
f 416//60 68//60 70//60
f 412//60 70//60 72//60
f 401//60 417//60 405//60
f 414//60 413//60 408//60
f 68//60 416//60 415//60
f 412//60 418//60 70//60
f 72//60 74//60 419//60
f 409//60 417//60 401//60
f 70//60 418//60 416//60
f 419//60 420//60 72//60
f 415//60 410//60 66//60
f 74//60 400//60 419//60
f 421//60 422//60 401//60
f 420//60 411//60 72//60
f 401//60 76//60 421//60
f 76//60 78//60 421//60
f 423//60 424//60 425//60
f 66//60 426//60 423//60
f 426//60 66//60 427//60
f 427//60 428//60 426//60
f 66//60 408//60 427//60
f 429//60 430//60 64//60
f 429//60 431//60 432//60
f 433//60 434//60 435//60
f 436//60 437//60 433//60
f 438//60 51//60 439//60
f 430//60 440//60 60//60
f 64//60 425//60 429//60
f 429//60 425//60 431//60
f 435//60 441//60 433//60
f 439//60 436//60 438//60
f 60//60 62//60 430//60
f 432//60 442//60 429//60
f 433//60 437//60 434//60
f 51//60 443//60 439//60
f 443//60 54//60 56//60
f 443//60 51//60 50//60
f 60//60 444//60 445//60
f 64//60 66//60 425//60
f 433//60 438//60 436//60
f 50//60 54//60 443//60
f 56//60 58//60 446//60
f 60//60 440//60 444//60
f 432//60 447//60 442//60
f 56//60 448//60 443//60
f 446//60 449//60 56//60
f 432//60 450//60 451//60
f 62//60 64//60 430//60
f 432//60 452//60 453//60
f 449//60 448//60 56//60
f 432//60 454//60 450//60
f 453//60 447//60 432//60
f 58//60 455//60 446//60
f 451//60 441//60 432//60
f 445//60 58//60 60//60
f 432//60 435//60 456//60
f 457//60 51//60 438//60
f 451//60 458//60 441//60
f 456//60 452//60 432//60
f 438//60 459//60 457//60
f 445//60 455//60 58//60
f 435//60 432//60 441//60
f 460//60 461//60 48//60
f 48//60 51//60 460//60
f 461//60 462//60 48//60
f 463//60 464//60 460//60
f 462//60 465//60 466//60
f 460//60 51//60 463//60
f 462//60 467//60 48//60
f 42//60 468//60 469//60
f 42//60 44//60 470//60
f 471//60 472//60 44//60
f 469//60 40//60 42//60
f 44//60 472//60 470//60
f 46//60 473//60 471//60
f 42//60 474//60 468//60
f 44//60 46//60 471//60
f 46//60 475//60 476//60
f 477//60 36//60 478//60
f 470//60 474//60 42//60
f 476//60 479//60 46//60
f 475//60 480//60 481//60
f 475//60 477//60 482//60
f 478//60 483//60 477//60
f 46//60 484//60 473//60
f 481//60 476//60 475//60
f 482//60 485//60 475//60
f 483//60 486//60 477//60
f 487//60 36//60 38//60
f 479//60 484//60 46//60
f 486//60 482//60 477//60
f 38//60 488//60 487//60
f 488//60 38//60 40//60
f 485//60 480//60 475//60
f 40//60 489//60 488//60
f 467//60 490//60 475//60
f 487//60 478//60 36//60
f 475//60 46//60 467//60
f 46//60 48//60 467//60
f 397//60 34//60 491//60
f 491//60 34//60 36//60
f 36//60 477//60 491//60
f 492//60 493//60 494//60
f 492//60 495//60 493//60
f 494//60 496//60 492//60
f 497//60 498//60 499//60
f 500//60 501//60 497//60
f 502//60 500//60 503//60
f 504//60 505//60 506//60
f 497//60 501//60 498//60
f 503//60 507//60 502//60
f 504//60 508//60 509//60
f 510//60 511//60 512//60
f 506//60 508//60 504//60
f 397//60 513//60 504//60
f 512//60 514//60 515//60
f 512//60 516//60 517//60
f 497//60 503//60 500//60
f 509//60 518//60 504//60
f 506//60 510//60 508//60
f 398//60 519//60 520//60
f 397//60 492//60 513//60
f 517//60 514//60 512//60
f 499//60 512//60 497//60
f 504//60 521//60 522//60
f 512//60 508//60 510//60
f 520//60 523//60 398//60
f 397//60 524//60 525//60
f 504//60 526//60 397//60
f 499//60 516//60 512//60
f 518//60 521//60 504//60
f 398//60 527//60 502//60
f 398//60 525//60 519//60
f 526//60 524//60 397//60
f 503//60 528//60 529//60
f 522//60 526//60 504//60
f 398//60 530//60 527//60
f 525//60 398//60 397//60
f 515//60 508//60 512//60
f 523//60 530//60 398//60
f 502//60 507//60 398//60
f 398//60 531//60 532//60
f 507//60 533//60 531//60
f 531//60 398//60 507//60
f 20//60 534//60 535//60
f 398//60 534//60 20//60
f 20//60 22//60 398//60
f 536//60 8//60 537//60
f 538//60 8//60 10//60
f 539//60 10//60 12//60
f 14//60 540//60 541//60
f 537//60 542//60 536//60
f 12//60 543//60 539//60
f 541//60 12//60 14//60
f 8//60 538//60 537//60
f 541//60 543//60 12//60
f 14//60 16//60 544//60
f 545//60 546//60 16//60
f 10//60 539//60 538//60
f 16//60 546//60 544//60
f 18//60 547//60 545//60
f 18//60 548//60 549//60
f 548//60 550//60 551//60
f 14//60 552//60 540//60
f 16//60 18//60 545//60
f 18//60 553//60 554//60
f 551//60 549//60 548//60
f 548//60 536//60 555//60
f 544//60 552//60 14//60
f 549//60 553//60 18//60
f 555//60 556//60 548//60
f 554//60 547//60 18//60
f 536//60 557//60 555//60
f 558//60 559//60 548//60
f 556//60 550//60 548//60
f 548//60 18//60 558//60
f 18//60 20//60 558//60
f 396//60 6//60 560//60
f 560//60 6//60 8//60
f 8//60 536//60 560//60
f 561//60 562//60 563//60
f 561//60 564//60 562//60
f 563//60 565//60 561//60
f 566//60 567//60 568//60
f 567//60 569//60 570//60
f 395//60 571//60 566//60
f 572//60 573//60 574//60
f 568//60 395//60 566//60
f 575//60 576//60 577//60
f 574//60 578//60 572//60
f 570//60 569//60 579//60
f 395//60 580//60 571//60
f 396//60 581//60 572//60
f 574//60 575//60 578//60
f 570//60 568//60 567//60
f 395//60 582//60 583//60
f 396//60 584//60 585//60
f 396//60 561//60 581//60
f 577//60 586//60 587//60
f 572//60 588//60 589//60
f 577//60 578//60 575//60
f 583//60 580//60 395//60
f 572//60 584//60 396//60
f 587//60 590//60 577//60
f 577//60 570//60 591//60
f 572//60 592//60 593//60
f 578//60 588//60 572//60
f 568//60 594//60 595//60
f 579//60 596//60 570//60
f 585//60 395//60 396//60
f 591//60 586//60 577//60
f 589//60 592//60 572//60
f 595//60 395//60 568//60
f 585//60 582//60 395//60
f 593//60 584//60 572//60
f 596//60 591//60 570//60
f 595//60 597//60 395//60
f 395//60 598//60 599//60
f 597//60 600//60 598//60
f 598//60 395//60 597//60
f 108//60 601//60 602//60
f 395//60 601//60 108//60
f 108//60 110//60 395//60
f 603//60 96//60 604//60
f 605//60 96//60 98//60
f 606//60 98//60 100//60
f 102//60 607//60 608//60
f 609//60 610//60 104//60
f 611//60 609//60 106//60
f 604//60 612//60 603//60
f 100//60 613//60 606//60
f 608//60 100//60 102//60
f 102//60 104//60 614//60
f 106//60 108//60 611//60
f 615//60 616//60 617//60
f 96//60 605//60 604//60
f 608//60 613//60 100//60
f 614//60 618//60 102//60
f 104//60 106//60 609//60
f 108//60 615//60 619//60
f 617//60 620//60 615//60
f 616//60 621//60 622//60
f 98//60 606//60 605//60
f 610//60 614//60 104//60
f 619//60 623//60 108//60
f 616//60 624//60 617//60
f 616//60 612//60 621//60
f 618//60 607//60 102//60
f 615//60 625//60 619//60
f 622//60 624//60 616//60
f 623//60 611//60 108//60
f 615//60 626//60 616//60
f 620//60 625//60 615//60
f 627//60 628//60 629//60
f 96//60 630//60 627//60
f 630//60 96//60 631//60
f 631//60 632//60 630//60
f 96//60 603//60 631//60
f 633//60 634//60 635//60
f 636//60 637//60 638//60
f 639//60 81//60 640//60
f 641//60 642//60 90//60
f 643//60 641//60 94//60
f 633//60 644//60 634//60
f 640//60 636//60 639//60
f 645//60 84//60 86//60
f 645//60 81//60 80//60
f 90//60 646//60 647//60
f 90//60 92//60 641//60
f 94//60 629//60 643//60
f 635//60 637//60 633//60
f 81//60 645//60 640//60
f 80//60 84//60 645//60
f 86//60 88//60 648//60
f 90//60 642//60 646//60
f 94//60 96//60 629//60
f 635//60 649//60 637//60
f 86//60 650//60 645//60
f 648//60 651//60 86//60
f 88//60 647//60 652//60
f 92//60 94//60 641//60
f 637//60 653//60 654//60
f 643//60 655//60 633//60
f 651//60 650//60 86//60
f 647//60 88//60 90//60
f 637//60 656//60 653//60
f 643//60 629//60 655//60
f 657//60 81//60 639//60
f 652//60 648//60 88//60
f 637//60 636//60 656//60
f 633//60 658//60 659//60
f 633//60 660//60 661//60
f 639//60 662//60 657//60
f 637//60 654//60 633//60
f 661//60 658//60 633//60
f 633//60 654//60 663//60
f 638//60 639//60 636//60
f 663//60 660//60 633//60
f 633//60 659//60 643//60
f 664//60 665//60 78//60
f 78//60 81//60 664//60
f 665//60 666//60 78//60
f 667//60 668//60 664//60
f 666//60 669//60 670//60
f 664//60 81//60 667//60
f 666//60 421//60 78//60
f 670//60 421//60 666//60
f 657//60 667//60 81//60
f 629//60 96//60 627//60
f 612//60 616//60 603//60
f 602//60 615//60 108//60
f 602//60 601//60 671//60
f 599//60 601//60 395//60
f 590//60 578//60 577//60
f 561//60 396//60 564//60
f 560//60 564//60 396//60
f 542//60 557//60 536//60
f 535//60 558//60 20//60
f 535//60 534//60 672//60
f 532//60 534//60 398//60
f 529//60 507//60 503//60
f 492//60 397//60 495//60
f 491//60 495//60 397//60
f 469//60 489//60 40//60
f 466//60 467//60 462//60
f 457//60 463//60 51//60
f 425//60 66//60 423//60
f 74//60 76//60 399//60
f 32//60 34//60 397//60
f 4//60 6//60 396//60
f 662//61 152//61 151//61
f 657//62 151//62 136//62
f 667//63 136//63 385//63
f 385//63 668//63 667//63
f 136//62 667//62 657//62
f 151//61 657//61 662//61
f 669//64 384//64 383//64
f 670//65 383//65 378//65
f 421//66 378//66 386//66
f 386//66 422//66 421//66
f 378//65 421//65 670//65
f 383//64 670//64 669//64
f 428//67 353//67 352//67
f 426//68 352//68 355//68
f 423//69 355//69 356//69
f 356//69 424//69 423//69
f 355//68 423//68 426//68
f 352//67 426//67 428//67
f 454//70 343//70 322//70
f 450//71 322//71 335//71
f 451//72 335//72 351//72
f 351//72 458//72 451//72
f 335//71 451//71 450//71
f 322//70 450//70 454//70
f 459//73 350//73 349//73
f 457//74 349//74 317//74
f 463//75 317//75 387//75
f 387//75 464//75 463//75
f 317//74 463//74 457//74
f 349//73 457//73 459//73
f 465//76 319//76 318//76
f 466//77 318//77 298//77
f 467//78 298//78 388//78
f 388//78 490//78 467//78
f 298//77 467//77 466//77
f 318//76 466//76 465//76
f 495//79 289//79 288//79
f 493//80 288//80 287//80
f 494//81 287//81 286//81
f 286//81 496//81 494//81
f 287//80 494//80 493//80
f 288//79 493//79 495//79
f 505//82 263//82 262//82
f 506//83 262//83 260//83
f 510//84 260//84 284//84
f 284//84 511//84 510//84
f 260//83 510//83 506//83
f 262//82 506//82 505//82
f 528//85 283//85 281//85
f 529//86 281//86 249//86
f 507//87 249//87 389//87
f 389//87 533//87 507//87
f 249//86 507//86 529//86
f 281//85 529//85 528//85
f 672//88 390//88 247//88
f 535//89 247//89 245//89
f 558//90 245//90 391//90
f 391//90 559//90 558//90
f 245//89 558//89 535//89
f 247//88 535//88 672//88
f 564//91 222//91 221//91
f 562//92 221//92 220//92
f 563//93 220//93 219//93
f 219//93 565//93 563//93
f 220//92 563//92 562//92
f 221//91 562//91 564//91
f 573//94 217//94 193//94
f 574//95 193//95 197//95
f 575//96 197//96 200//96
f 200//96 576//96 575//96
f 197//95 575//95 574//95
f 193//94 574//94 573//94
f 594//97 216//97 213//97
f 595//98 213//98 184//98
f 597//99 184//99 392//99
f 392//99 600//99 597//99
f 184//98 597//98 595//98
f 213//97 595//97 594//97
f 671//100 393//100 182//100
f 602//101 182//101 181//101
f 615//102 181//102 394//102
f 394//102 626//102 615//102
f 181//101 615//101 602//101
f 182//100 602//100 671//100
f 632//103 156//103 155//103
f 630//104 155//104 154//104
f 627//105 154//105 158//105
f 158//105 628//105 627//105
f 154//104 627//104 630//104
f 155//103 630//103 632//103
f 644//106 153//106 123//106
f 634//107 123//107 124//107
f 635//108 124//108 126//108
f 126//108 649//108 635//108
f 124//107 635//107 634//107
f 123//106 634//106 644//106
f 649//109 126//109 125//109
f 125//109 637//109 649//109
f 152//110 662//110 639//110
f 639//110 139//110 152//110
f 139//111 639//111 638//111
f 140//112 638//112 637//112
f 637//112 125//112 140//112
f 638//111 140//111 139//111
f 628//4 158//4 150//4
f 150//4 629//4 628//4
f 644//113 633//113 121//113
f 121//113 153//113 644//113
f 121//114 633//114 655//114
f 149//115 655//115 629//115
f 629//115 150//115 149//115
f 655//114 149//114 121//114
f 626//116 394//116 165//116
f 165//116 616//116 626//116
f 156//117 632//117 631//117
f 631//117 157//117 156//117
f 157//118 631//118 603//118
f 162//119 603//119 616//119
f 616//119 165//119 162//119
f 603//118 162//118 157//118
f 392//11 185//11 598//11
f 598//11 600//11 392//11
f 671//120 601//120 183//120
f 183//120 393//120 671//120
f 183//121 601//121 599//121
f 186//122 599//122 598//122
f 598//122 185//122 186//122
f 599//121 186//121 183//121
f 576//123 200//123 195//123
f 195//123 577//123 576//123
f 216//124 594//124 568//124
f 568//124 188//124 216//124
f 188//125 568//125 570//125
f 190//126 570//126 577//126
f 577//126 195//126 190//126
f 570//125 190//125 188//125
f 219//18 218//18 561//18
f 561//18 565//18 219//18
f 573//127 572//127 191//127
f 191//127 217//127 573//127
f 191//128 572//128 581//128
f 214//129 581//129 561//129
f 561//129 218//129 214//129
f 581//128 214//128 191//128
f 391//130 236//130 548//130
f 548//130 559//130 391//130
f 222//131 564//131 560//131
f 560//131 223//131 222//131
f 223//132 560//132 536//132
f 224//133 536//133 548//133
f 548//133 236//133 224//133
f 536//132 224//132 223//132
f 389//134 250//134 531//134
f 531//134 533//134 389//134
f 672//135 534//135 248//135
f 248//135 390//135 672//135
f 248//136 534//136 532//136
f 251//137 532//137 531//137
f 531//137 250//137 251//137
f 532//136 251//136 248//136
f 511//138 284//138 255//138
f 255//138 512//138 511//138
f 283//139 528//139 503//139
f 503//139 279//139 283//139
f 279//140 503//140 497//140
f 280//141 497//141 512//141
f 512//141 255//141 280//141
f 497//140 280//140 279//140
f 286//33 285//33 492//33
f 492//33 496//33 286//33
f 263//142 505//142 504//142
f 504//142 264//142 263//142
f 264//143 504//143 513//143
f 282//144 513//144 492//144
f 492//144 285//144 282//144
f 513//143 282//143 264//143
f 490//145 388//145 308//145
f 308//145 475//145 490//145
f 495//146 491//146 290//146
f 290//146 289//146 495//146
f 290//147 491//147 477//147
f 291//148 477//148 475//148
f 475//148 308//148 291//148
f 477//147 291//147 290//147
f 387//149 314//149 460//149
f 460//149 464//149 387//149
f 319//150 465//150 462//150
f 462//150 315//150 319//150
f 315//151 462//151 461//151
f 316//152 461//152 460//152
f 460//152 314//152 316//152
f 461//151 316//151 315//151
f 458//153 351//153 338//153
f 338//153 441//153 458//153
f 350//154 459//154 438//154
f 438//154 326//154 350//154
f 326//155 438//155 433//155
f 333//156 433//156 441//156
f 441//156 338//156 333//156
f 433//155 333//155 326//155
f 424//48 356//48 348//48
f 348//48 425//48 424//48
f 343//157 454//157 432//157
f 432//157 323//157 343//157
f 323//158 432//158 431//158
f 346//159 431//159 425//159
f 425//159 348//159 346//159
f 431//158 346//158 323//158
f 422//160 386//160 357//160
f 357//160 401//160 422//160
f 354//161 353//161 428//161
f 428//161 427//161 354//161
f 354//162 427//162 408//162
f 362//163 408//163 401//163
f 401//163 357//163 362//163
f 408//162 362//162 354//162
f 668//55 385//55 380//55
f 380//55 664//55 668//55
f 669//164 666//164 381//164
f 381//164 384//164 669//164
f 381//165 666//165 665//165
f 382//166 665//166 664//166
f 664//166 380//166 382//166
f 665//165 382//165 381//165
f 252//109 502//109 527//109
f 527//109 253//109 252//109
f 272//138 518//138 509//138
f 509//138 273//138 272//138
f 500//167 502//167 252//167
f 501//168 500//168 254//168
f 498//116 501//116 257//116
f 499//169 498//169 256//169
f 516//170 499//170 270//170
f 517//171 516//171 278//171
f 514//172 517//172 271//172
f 515//130 514//130 259//130
f 508//173 515//173 258//173
f 509//174 508//174 261//174
f 261//174 273//174 509//174
f 258//173 261//173 508//173
f 259//130 258//130 515//130
f 271//172 259//172 514//172
f 278//171 271//171 517//171
f 270//170 278//170 516//170
f 256//169 270//169 499//169
f 257//116 256//116 498//116
f 254//168 257//168 501//168
f 252//167 254//167 500//167
f 521//175 518//175 272//175
f 522//176 521//176 274//176
f 526//145 522//145 266//145
f 524//177 526//177 265//177
f 525//178 524//178 275//178
f 519//179 525//179 267//179
f 520//180 519//180 277//180
f 523//160 520//160 269//160
f 530//181 523//181 268//181
f 527//182 530//182 276//182
f 276//182 253//182 527//182
f 268//181 276//181 530//181
f 269//160 268//160 523//160
f 277//180 269//180 520//180
f 267//179 277//179 519//179
f 275//178 267//178 525//178
f 265//177 275//177 524//177
f 266//145 265//145 526//145
f 274//176 266//176 522//176
f 272//175 274//175 521//175
f 641//167 643//167 127//167
f 642//168 641//168 129//168
f 646//116 642//116 128//116
f 647//169 646//169 130//169
f 652//170 647//170 133//170
f 648//171 652//171 142//171
f 651//172 648//172 135//172
f 650//130 651//130 134//130
f 645//173 650//173 132//173
f 640//174 645//174 131//174
f 636//175 640//175 137//175
f 656//176 636//176 141//176
f 653//145 656//145 144//145
f 654//177 653//177 146//177
f 663//178 654//178 145//178
f 660//179 663//179 148//179
f 661//180 660//180 138//180
f 658//160 661//160 143//160
f 659//181 658//181 147//181
f 643//182 659//182 122//182
f 122//182 127//182 643//182
f 147//181 122//181 659//181
f 143//160 147//160 658//160
f 138//180 143//180 661//180
f 148//179 138//179 660//179
f 145//178 148//178 663//178
f 146//177 145//177 654//177
f 144//145 146//145 653//145
f 141//176 144//176 656//176
f 137//175 141//175 636//175
f 131//174 137//174 640//174
f 132//173 131//173 645//173
f 134//130 132//130 650//130
f 135//172 134//172 651//172
f 142//171 135//171 648//171
f 133//170 142//170 652//170
f 130//169 133//169 647//169
f 128//116 130//116 646//116
f 129//168 128//168 642//168
f 127//167 129//167 641//167
f 586//167 591//167 207//167
f 587//168 586//168 206//168
f 590//116 587//116 209//116
f 578//169 590//169 208//169
f 588//170 578//170 192//170
f 589//171 588//171 203//171
f 592//172 589//172 204//172
f 593//130 592//130 210//130
f 584//173 593//173 212//173
f 585//174 584//174 211//174
f 582//175 585//175 215//175
f 583//176 582//176 205//176
f 580//145 583//145 202//145
f 571//177 580//177 201//177
f 566//178 571//178 198//178
f 567//179 566//179 187//179
f 569//180 567//180 189//180
f 579//160 569//160 194//160
f 596//181 579//181 199//181
f 591//182 596//182 196//182
f 196//182 207//182 591//182
f 199//181 196//181 596//181
f 194//160 199//160 579//160
f 189//180 194//180 569//180
f 187//179 189//179 567//179
f 198//178 187//178 566//178
f 201//177 198//177 571//177
f 202//145 201//145 580//145
f 205//176 202//176 583//176
f 215//175 205//175 582//175
f 211//174 215//174 585//174
f 212//173 211//173 584//173
f 210//130 212//130 593//130
f 204//172 210//172 592//172
f 203//171 204//171 589//171
f 192//170 203//170 588//170
f 208//169 192//169 578//169
f 209//116 208//116 590//116
f 206//168 209//168 587//168
f 207//167 206//167 586//167
f 446//167 455//167 345//167
f 449//168 446//168 341//168
f 448//116 449//116 340//116
f 443//169 448//169 332//169
f 439//170 443//170 331//170
f 436//171 439//171 328//171
f 437//172 436//172 327//172
f 434//130 437//130 337//130
f 435//173 434//173 342//173
f 456//174 435//174 339//174
f 452//175 456//175 347//175
f 453//176 452//176 344//176
f 447//145 453//145 334//145
f 442//177 447//177 321//177
f 429//178 442//178 320//178
f 430//179 429//179 325//179
f 440//180 430//180 324//180
f 444//160 440//160 329//160
f 445//181 444//181 330//181
f 455//182 445//182 336//182
f 336//182 345//182 455//182
f 330//181 336//181 445//181
f 329//160 330//160 444//160
f 324//180 329//180 440//180
f 325//179 324//179 430//179
f 320//178 325//178 429//178
f 321//177 320//177 442//177
f 334//145 321//145 447//145
f 344//176 334//176 453//176
f 347//175 344//175 452//175
f 339//174 347//174 456//174
f 342//173 339//173 435//173
f 337//130 342//130 434//130
f 327//172 337//172 437//172
f 328//171 327//171 436//171
f 331//170 328//170 439//170
f 332//169 331//169 443//169
f 340//116 332//116 448//116
f 341//168 340//168 449//168
f 345//167 341//167 446//167
f 419//167 400//167 367//167
f 420//168 419//168 370//168
f 411//116 420//116 371//116
f 412//169 411//169 375//169
f 418//170 412//170 368//170
f 416//171 418//171 372//171
f 415//172 416//172 373//172
f 410//130 415//130 374//130
f 414//173 410//173 376//173
f 413//174 414//174 377//174
f 409//175 413//175 379//175
f 417//176 409//176 359//176
f 405//145 417//145 358//145
f 406//177 405//177 365//177
f 402//178 406//178 363//178
f 404//179 402//179 361//179
f 407//180 404//180 360//180
f 403//160 407//160 364//160
f 399//181 403//181 369//181
f 400//182 399//182 366//182
f 366//182 367//182 400//182
f 369//181 366//181 399//181
f 364//160 369//160 403//160
f 360//180 364//180 407//180
f 361//179 360//179 404//179
f 363//178 361//178 402//178
f 365//177 363//177 406//177
f 358//145 365//145 405//145
f 359//176 358//176 417//176
f 379//175 359//175 409//175
f 377//174 379//174 413//174
f 376//173 377//173 414//173
f 374//130 376//130 410//130
f 373//172 374//172 415//172
f 372//171 373//171 416//171
f 368//170 372//170 418//170
f 375//169 368//169 412//169
f 371//116 375//116 411//116
f 370//168 371//168 420//168
f 367//167 370//167 419//167
f 619//167 625//167 169//167
f 623//168 619//168 171//168
f 611//116 623//116 178//116
f 609//169 611//169 177//169
f 610//170 609//170 172//170
f 614//171 610//171 174//171
f 618//172 614//172 176//172
f 607//130 618//130 175//130
f 608//173 607//173 179//173
f 613//174 608//174 180//174
f 606//175 613//175 160//175
f 605//176 606//176 159//176
f 604//145 605//145 161//145
f 612//177 604//177 164//177
f 621//178 612//178 163//178
f 622//179 621//179 168//179
f 624//180 622//180 167//180
f 617//160 624//160 166//160
f 620//181 617//181 173//181
f 625//182 620//182 170//182
f 170//182 169//182 625//182
f 173//181 170//181 620//181
f 166//160 173//160 617//160
f 167//180 166//180 624//180
f 168//179 167//179 622//179
f 163//178 168//178 621//178
f 164//177 163//177 612//177
f 161//145 164//145 604//145
f 159//176 161//176 605//176
f 160//175 159//175 606//175
f 180//174 160//174 613//174
f 179//173 180//173 608//173
f 175//130 179//130 607//130
f 176//172 175//172 618//172
f 174//171 176//171 614//171
f 172//170 174//170 610//170
f 177//169 172//169 609//169
f 178//116 177//116 611//116
f 171//168 178//168 623//168
f 169//167 171//167 619//167
f 555//167 557//167 234//167
f 556//168 555//168 235//168
f 550//116 556//116 237//116
f 551//169 550//169 241//169
f 549//170 551//170 239//170
f 553//171 549//171 238//171
f 554//172 553//172 240//172
f 547//130 554//130 243//130
f 545//173 547//173 242//173
f 546//174 545//174 244//174
f 544//175 546//175 246//175
f 552//176 544//176 226//176
f 540//145 552//145 225//145
f 541//177 540//177 231//177
f 543//178 541//178 227//178
f 539//179 543//179 229//179
f 538//180 539//180 228//180
f 537//160 538//160 230//160
f 542//181 537//181 233//181
f 557//182 542//182 232//182
f 232//182 234//182 557//182
f 233//181 232//181 542//181
f 230//160 233//160 537//160
f 228//180 230//180 538//180
f 229//179 228//179 539//179
f 227//178 229//178 543//178
f 231//177 227//177 541//177
f 225//145 231//145 540//145
f 226//176 225//176 552//176
f 246//175 226//175 544//175
f 244//174 246//174 546//174
f 242//173 244//173 545//173
f 243//130 242//130 547//130
f 240//172 243//172 554//172
f 238//171 240//171 553//171
f 239//170 238//170 549//170
f 241//169 239//169 551//169
f 237//116 241//116 550//116
f 235//168 237//168 556//168
f 234//167 235//167 555//167
f 488//167 489//167 301//167
f 487//168 488//168 302//168
f 478//116 487//116 306//116
f 483//169 478//169 304//169
f 486//170 483//170 303//170
f 482//171 486//171 307//171
f 485//172 482//172 310//172
f 480//130 485//130 309//130
f 481//173 480//173 311//173
f 476//174 481//174 313//174
f 479//175 476//175 312//175
f 484//176 479//176 293//176
f 473//145 484//145 292//145
f 471//177 473//177 294//177
f 472//178 471//178 295//178
f 470//179 472//179 299//179
f 474//180 470//180 297//180
f 468//160 474//160 296//160
f 469//181 468//181 305//181
f 489//182 469//182 300//182
f 300//182 301//182 489//182
f 305//181 300//181 469//181
f 296//160 305//160 468//160
f 297//180 296//180 474//180
f 299//179 297//179 470//179
f 295//178 299//178 472//178
f 294//177 295//177 471//177
f 292//145 294//145 473//145
f 293//176 292//176 484//176
f 312//175 293//175 479//175
f 313//174 312//174 476//174
f 311//173 313//173 481//173
f 309//130 311//130 480//130
f 310//172 309//172 485//172
f 307//171 310//171 482//171
f 303//170 307//170 486//170
f 304//169 303//169 483//169
f 306//116 304//116 478//116
f 302//168 306//168 487//168
f 301//167 302//167 488//167
#1376 polygons

