# Aspose.3D Wavefront OBJ Exporter
# Copyright 2004-2023 Aspose Pty Ltd.
# File created: 06/29/2023 05:49:04


#
# object obj_31613033
#

v -72.86521148681640624 42.06874847412109375 -74.59249877929687504
v -68.95262145996093744 41.23710250854492188 -74.59249877929687504
v -68.88712310791015632 42.48686218261718752 -74.59249877929687504
v -69.211029052734375 43.69569778442382816 -74.59249877929687504
v -69.89263153076171872 44.74527359008789056 -74.59249877929687504
v -70.86521148681640624 45.53285217285156248 -74.59249877929687504
v -72.0335693359375 45.98133850097656256 -74.59249877929687504
v -73.2833251953125 46.04683685302734375 -74.59249877929687504
v -74.49215698242187504 45.72293090820312496 -74.59249877929687504
v -75.54173278808593752 45.04132843017578125 -74.59249877929687504
v -76.329315185546875 44.06874847412109375 -74.59249877929687504
v -76.77780151367187504 42.9003982543945312 -74.59249877929687504
v -76.84329986572265632 41.650634765625 -74.59249877929687504
v -76.51939392089843752 40.44180297851562496 -74.59249877929687504
v -75.83779144287109376 39.39222717285156248 -74.59249877929687504
v -74.86521148681640624 38.60464859008789064 -74.59249877929687504
v -73.69686126708984376 38.156158447265625 -74.59249877929687504
v -72.44709777832031248 38.09066390991210938 -74.59249877929687504
v -71.23826599121093752 38.41456985473632816 -74.59249877929687504
v -70.188690185546875 39.09617233276367188 -74.59249877929687504
v -69.40110778808593752 40.06874847412109375 -74.59249877929687504
v -69.40110778808593752 40.06874847412109375 -94.59249877929687504
v -68.95262145996093744 41.23710250854492188 -94.59249877929687504
v -68.88712310791015632 42.48686218261718752 -94.59249877929687504
v -69.211029052734375 43.69569778442382816 -94.59249877929687504
v -69.89263153076171872 44.74527359008789056 -94.59249877929687504
v -70.86521148681640624 45.53285217285156248 -94.59249877929687504
v -72.0335693359375 45.98133850097656256 -94.59249877929687504
v -73.2833251953125 46.04683685302734375 -94.59249877929687504
v -74.49215698242187504 45.72293090820312496 -94.59249877929687504
v -75.54173278808593752 45.04132843017578125 -94.59249877929687504
v -76.329315185546875 44.06874847412109375 -94.59249877929687504
v -76.77780151367187504 42.9003982543945312 -94.59249877929687504
v -76.84329986572265632 41.650634765625 -94.59249877929687504
v -76.51939392089843752 40.44180297851562496 -94.59249877929687504
v -75.83779144287109376 39.39222717285156248 -94.59249877929687504
v -74.86521148681640624 38.60464859008789064 -94.59249877929687504
v -73.69686126708984376 38.156158447265625 -94.59249877929687504
v -72.44709777832031248 38.09066390991210938 -94.59249877929687504
v -71.23826599121093752 38.41456985473632816 -94.59249877929687504
v -70.188690185546875 39.09617233276367188 -94.59249877929687504
v -62.37372970581054688 41.64595794677734376 -94.59249877929687504
v -62.7797737121582032 39.14746475219726562 -94.59249877929687504
v -62.57741165161132816 44.1690216064453125 -94.59249877929687504
v -63.37898254394531248 46.57002258300781248 -94.59249877929687504
v -66.55741882324218752 50.46289825439453128 -94.59249877929687504
v -78.47710418701171872 50.9432449340820312 -94.59249877929687504
v -80.43783569335937504 49.34235382080078124 -94.59249877929687504
v -83.35669708251953124 42.49154281616210936 -94.59249877929687504
v -64.73185729980468752 48.70942687988281248 -94.59249877929687504
v -68.74956512451171872 51.72853469848632816 -94.59249877929687504
v -71.18089294433593752 52.43277740478515624 -94.59249877929687504
v -73.71011352539062496 52.53470230102539064 -94.59249877929687504
v -76.19022369384765624 52.02838134765625 -94.59249877929687504
v -81.95848083496093744 47.31874847412109376 -94.59249877929687504
v -82.95065307617187504 44.99003219604492192 -94.59249877929687504
v -83.15301513671875 39.96847915649414064 -94.59249877929687504
v -82.3514404296875 37.56747817993164064 -94.59249877929687504
v -80.99856567382812496 35.42807388305664064 -94.59249877929687504
v -79.173004150390625 33.67460250854492184 -94.59249877929687504
v -76.98086547851562496 32.40896606445312496 -94.59249877929687504
v -74.54953002929687504 31.70472145080566408 -94.59249877929687504
v -72.02031707763671875 31.60279846191406248 -94.59249877929687504
v -67.25331878662109376 33.19425582885742188 -94.59249877929687504
v -65.29258728027343752 34.79514312744140624 -94.59249877929687504
v -69.54019927978515624 32.1091156005859375 -94.59249877929687504
v -63.77194595336914064 36.81874847412109376 -94.59249877929687504
v -63.77194595336914064 36.81874847412109376 -96.39250183105468752
v -62.7797737121582032 39.14746475219726562 -96.39250183105468752
v -62.37372970581054688 41.64595794677734376 -96.39250183105468752
v -62.57741165161132816 44.1690216064453125 -96.39250183105468752
v -63.37898254394531248 46.57002258300781248 -96.39250183105468752
v -64.73185729980468752 48.70942687988281248 -96.39250183105468752
v -66.55741882324218752 50.46289825439453128 -96.39250183105468752
v -68.74956512451171872 51.72853469848632816 -96.39250183105468752
v -71.18089294433593752 52.43277740478515624 -96.39250183105468752
v -73.71011352539062496 52.53470230102539064 -96.39250183105468752
v -76.19022369384765624 52.02838134765625 -96.39250183105468752
v -78.47710418701171872 50.9432449340820312 -96.39250183105468752
v -80.43783569335937504 49.34235382080078124 -96.39250183105468752
v -81.95848083496093744 47.31874847412109376 -96.39250183105468752
v -82.95065307617187504 44.99003219604492192 -96.39250183105468752
v -83.35669708251953124 42.49154281616210936 -96.39250183105468752
v -83.15301513671875 39.96847915649414064 -96.39250183105468752
v -82.3514404296875 37.56747817993164064 -96.39250183105468752
v -80.99856567382812496 35.42807388305664064 -96.39250183105468752
v -79.173004150390625 33.67460250854492184 -96.39250183105468752
v -76.98086547851562496 32.40896606445312496 -96.39250183105468752
v -74.54953002929687504 31.70472145080566408 -96.39250183105468752
v -72.02031707763671875 31.60279846191406248 -96.39250183105468752
v -69.54019927978515624 32.1091156005859375 -96.39250183105468752
v -67.25331878662109376 33.19425582885742188 -96.39250183105468752
v -65.29258728027343752 34.79514312744140624 -96.39250183105468752
v -72.86521148681640624 42.06874847412109375 -96.39250183105468752
v -72.86521148681640624 42.06874847412109375 -203.59249877929687504
v -83.66883850097656248 50.50946807861328128 -203.59249877929687504
v -82.38897705078125 51.9308967590332032 -203.59249877929687504
v -80.92375183105468752 53.16037368774414062 -203.59249877929687504
v -79.301666259765625 54.17396163940429688 -203.59249877929687504
v -77.55430603027343752 54.95193481445312496 -203.59249877929687504
v -75.71568298339843752 55.47915267944335936 -203.59249877929687504
v -73.82157135009765632 55.7453536987304688 -203.59249877929687504
v -71.90885162353515632 55.7453536987304688 -203.59249877929687504
v -70.014739990234375 55.47915267944335936 -203.59249877929687504
v -68.176116943359375 54.95193481445312496 -203.59249877929687504
v -66.42875671386718752 54.17396163940429688 -203.59249877929687504
v -64.80667877197265632 53.16037368774414062 -203.59249877929687504
v -63.34144592285156248 51.9308967590332032 -203.59249877929687504
v -62.06158447265625 50.50946807861328128 -203.59249877929687504
v -60.99200439453124992 48.92375183105468752 -203.59249877929687504
v -60.15352249145507812 47.20460510253906248 -203.59249877929687504
v -59.56245803833007816 45.385498046875 -203.59249877929687504
v -59.230316162109375 43.5018348693847656 -203.59249877929687504
v -59.16356277465820312 41.59027862548828128 -203.59249877929687504
v -59.36349868774414064 39.68803405761718752 -203.59249877929687504
v -59.82622909545898432 37.83212661743164064 -203.59249877929687504
v -60.54274749755859376 36.05868148803710938 -203.59249877929687504
v -61.49910736083984376 34.40221405029296872 -203.59249877929687504
v -62.67669677734375 32.89496994018554688 -203.59249877929687504
v -64.0525970458984375 31.5662803649902344 -203.59249877929687504
v -65.60002136230468752 30.4420108795166016 -203.59249877929687504
v -67.28885650634765624 29.54404258728027344 -203.59249877929687504
v -69.0862274169921875 28.88985252380371088 -203.59249877929687504
v -70.9571456909179688 28.49217414855957032 -203.59249877929687504
v -72.86521148681640624 28.35874938964843752 -203.59249877929687504
v -74.77327728271484368 28.49217414855957032 -203.59249877929687504
v -76.64420318603515624 28.88985252380371088 -203.59249877929687504
v -78.44157409667968752 29.54404258728027344 -203.59249877929687504
v -80.13040924072265624 30.4420108795166016 -203.59249877929687504
v -81.67783355712890624 31.5662803649902344 -203.59249877929687504
v -83.0537261962890625 32.89496994018554688 -203.59249877929687504
v -84.23131561279296876 34.40221405029296872 -203.59249877929687504
v -85.18767547607421876 36.05868148803710938 -203.59249877929687504
v -85.90419769287109376 37.83212661743164064 -203.59249877929687504
v -86.36692810058593752 39.68803405761718752 -203.59249877929687504
v -86.56686401367187504 41.59027862548828128 -203.59249877929687504
v -86.50010681152343752 43.5018348693847656 -203.59249877929687504
v -86.16796875 45.385498046875 -203.59249877929687504
v -85.576904296875 47.20460510253906248 -203.59249877929687504
v -84.73841857910156256 48.92375183105468752 -203.59249877929687504
v -86.83046722412109376 50.131591796875 -201.83740234375
v -86.93812561035156256 50.19374847412109376 -201.0525054931640625
v -85.67038726806640624 52.07324981689453125 -201.0525054931640625
v -84.06705474853515625 53.66859436035156248 -201.83740234375
v -85.57242584228515624 51.9967117309570312 -201.83740234375
v -85.082611083984375 52.78311920166015632 -201.0525054931640625
v -84.153411865234375 53.75802230834960944 -201.0525054931640625
v -82.75758361816406256 54.96074295043945312 -201.0525054931640625
v -82.34365081787109376 55.1147003173828125 -201.83740234375
v -82.41672515869140624 55.21527481079101564 -201.0525054931640625
v -80.49412536621093752 56.41664886474609376 -201.0525054931640625
v -78.38052368164062496 57.22193527221679688 -201.83740234375
v -80.43576049804687504 56.306884765625 -201.83740234375
v -80.05240631103515625 56.64293289184570312 -201.0525054931640625
v -78.42304229736328128 57.33875656127929688 -201.0525054931640625
v -77.07102203369140625 57.76504516601562496 -201.0525054931640625
v -76.21793365478515624 57.8420486450195312 -201.83740234375
v -76.2437744140625 57.96364974975585936 -201.0525054931640625
v -73.99875640869140624 58.27916717529296876 -201.0525054931640625
v -71.74034118652343744 58.1551513671875 -201.83740234375
v -73.99008178710937504 58.1551513671875 -201.83740234375
v -73.92801666259765632 58.28395843505859376 -201.0525054931640625
v -69.51249694824218752 57.8420486450195312 -201.83740234375
v -70.74416351318359376 58.17972946166992188 -201.0525054931640625
v -71.73166656494140624 58.27916717529296876 -201.0525054931640625
v -69.48664855957031248 57.96364974975585936 -201.0525054931640625
v -67.64182281494140624 57.4563636779785156 -201.0525054931640625
v -67.34990692138671876 57.22193527221679688 -201.83740234375
v -67.30738830566406248 57.33875656127929688 -201.0525054931640625
v -65.236297607421875 56.41664886474609376 -201.0525054931640625
v -63.38677215576171872 55.1147003173828125 -201.83740234375
v -65.29466247558593752 56.306884765625 -201.83740234375
v -64.74021148681640624 56.14166259765625 -201.0525054931640625
v -63.31370162963867188 55.21527481079101564 -201.0525054931640625
v -62.15084457397460938 54.28614807128906248 -201.0525054931640625
v -61.66337203979492184 53.66859436035156248 -201.83740234375
v -61.57701492309570312 53.75802230834960944 -201.0525054931640625
v -60.06003952026367188 52.07324981689453125 -201.0525054931640625
v -58.89995956420898432 50.131591796875 -201.83740234375
v -60.15800094604492188 51.9967117309570312 -201.83740234375
v -59.97322082519531248 51.96112442016601568 -201.0525054931640625
v -57.91373825073242192 48.10953903198242188 -201.83740234375
v -58.29103088378906248 49.25593948364257812 -201.0525054931640625
v -58.79230117797851568 50.19374847412109376 -201.0525054931640625
v -57.7984733581542968 48.15610885620117188 -201.0525054931640625
v -57.16891860961914062 46.27455902099609376 -201.0525054931640625
v -57.21852874755859376 45.96990585327148432 -201.83740234375
v -57.09790802001953124 45.99998092651367184 -201.0525054931640625
v -56.70423126220703128 43.7673377990722656 -201.0525054931640625
v -56.74935150146484368 41.50597000122070312 -201.83740234375
v -56.82786560058593744 43.75434112548828128 -201.83740234375
v -56.65000534057617184 43.13154983520507812 -201.0525054931640625
v -56.62511062622070312 41.50163269042968752 -201.0525054931640625
v -56.75423431396484368 39.94770050048828128 -201.0525054931640625
v -56.98451232910156256 39.2685546875 -201.83740234375
v -56.86208724975585936 39.24696731567382812 -201.0525054931640625
v -57.41054534912109376 37.04722213745117188 -201.0525054931640625
v -58.37154388427734376 34.99971389770507808 -201.83740234375
v -57.52877426147460936 37.08563995361328125 -201.83740234375
v -57.4775962829589844 36.84535980224609376 -201.0525054931640625
v -58.25980758666992188 34.94521713256835936 -201.0525054931640625
v -58.79230117797851568 33.94374847412109376 -201.0525054931640625
v -59.49641418457031248 33.05138397216796875 -201.83740234375
v -59.39335250854492184 32.98186492919921872 -201.0525054931640625
v -60.64781570434570312 31.35437965393066408 -201.0525054931640625
v -60.88149261474609376 31.27856063842773436 -201.83740234375
v -60.78910827636718752 31.19537734985351564 -201.0525054931640625
v -62.41991424560546872 29.62052726745605472 -201.0525054931640625
v -64.31990051269531248 28.39339447021484376 -201.83740234375
v -62.49982452392578128 29.71575927734375 -201.83740234375
v -62.97283935546875008 29.1767578125 -201.0525054931640625
v -64.25402069091796876 28.28796768188476564 -201.0525054931640625
v -65.67802429199218752 27.49456787109375 -201.0525054931640625
v -66.306304931640625 27.33720588684082032 -201.83740234375
v -66.25574493408203124 27.22363662719726564 -201.0525054931640625
v -68.3861083984375 26.4482479095458984 -201.0525054931640625
v -70.62094879150390624 26.10000038146972656 -201.83740234375
v -68.42037200927734376 26.5677490234375 -201.83740234375
v -68.65940093994140624 26.37245559692382816 -201.0525054931640625
v -70.60365295410156248 25.97689437866210944 -201.0525054931640625
v -71.80241394042968752 25.85354232788085936 -201.0525054931640625
v -72.86521148681640624 25.94306564331054688 -201.83740234375
v -72.86521148681640624 25.81875038146972656 -201.0525054931640625
v -74.98625946044921872 25.9577713012695312 -201.0525054931640625
v -75.10947418212890624 26.10000038146972656 -201.83740234375
v -75.12677764892578124 25.97689437866210944 -201.0525054931640625
v -77.34432220458984376 26.4482479095458984 -201.0525054931640625
v -79.42411804199218752 27.33720588684082032 -201.83740234375
v -77.31005096435546876 26.5677490234375 -201.83740234375
v -78.08860015869140625 26.68113517761230472 -201.0525054931640625
v -79.47468566894531248 27.22363662719726564 -201.0525054931640625
v -80.99021148681640624 27.99583625793457024 -201.0525054931640625
v -81.4105224609375 28.39339447021484376 -201.83740234375
v -81.47640228271484376 28.28796768188476564 -201.0525054931640625
v -83.31050872802734376 29.62052726745605472 -201.0525054931640625
v -84.84893035888671872 31.27856063842773436 -201.83740234375
v -83.23059844970703124 29.71575927734375 -201.83740234375
v -83.57958221435546872 29.85135269165039056 -201.0525054931640625
v -84.94131469726562496 31.19537734985351564 -201.0525054931640625
v -85.7572021484375 32.1763763427734375 -201.0525054931640625
v -86.2340087890625 33.05138397216796875 -201.83740234375
v -86.33707427978515624 32.98186492919921872 -201.0525054931640625
v -87.43939208984375 34.88155746459960944 -201.0525054931640625
v -87.35887908935546876 34.99971389770507808 -201.83740234375
v -87.47061920166015624 34.94521713256835936 -201.0525054931640625
v -88.31987762451171876 37.04722213745117188 -201.0525054931640625
v -88.74591064453124992 39.2685546875 -201.83740234375
v -88.20165252685546876 37.08563995361328125 -201.83740234375
v -88.56150817871093752 37.86294174194335936 -201.0525054931640625
v -88.86833953857421872 39.24696731567382812 -201.0525054931640625
v -89.08042144775390625 41.005950927734375 -201.0525054931640625
v -88.9810714721679688 41.50597000122070312 -201.83740234375
v -89.105316162109375 41.50163269042968752 -201.0525054931640625
v -89.02619171142578125 43.7673377990722656 -201.0525054931640625
v -88.51189422607421872 45.96990585327148432 -201.83740234375
v -88.90255737304687504 43.75434112548828128 -201.83740234375
v -88.9761886596679688 44.18980026245117188 -201.0525054931640625
v -88.63251495361328128 45.99998092651367184 -201.0525054931640625
v -88.25283050537109376 47.29214096069335936 -201.0525054931640625
v -87.81668853759765632 48.10953903198242188 -201.83740234375
v -87.93195343017578128 48.15610885620117188 -201.0525054931640625
v -86.51802062988281248 49.95120239257812496 -202.54547119140625
v -85.28812408447265624 51.77459335327148432 -202.54547119140625
v -83.81643676757812496 53.40907287597656248 -202.54547119140625
v -82.131591796875 54.82282638549804688 -202.54547119140625
v -80.266387939453125 55.98833465576171872 -202.54547119140625
v -78.25712585449218752 56.88291168212890624 -202.54547119140625
v -76.14292144775390624 57.48915100097656248 -202.54547119140625
v -73.96492004394531248 57.79524993896484368 -202.54547119140625
v -71.7655105590820312 57.79524993896484368 -202.54547119140625
v -69.58750152587890624 57.48915100097656248 -202.54547119140625
v -67.47329711914062496 56.88291168212890624 -202.54547119140625
v -65.46403503417968752 55.98833465576171872 -202.54547119140625
v -63.59883499145507816 54.82282638549804688 -202.54547119140625
v -61.91399002075195312 53.40907287597656248 -202.54547119140625
v -60.44229888916015624 51.77459335327148432 -202.54547119140625
v -59.21240615844726564 49.95120239257812496 -202.54547119140625
v -58.24824905395507812 47.97438812255859376 -202.54547119140625
v -57.56859588623046872 45.88262557983398432 -202.54547119140625
v -57.18667221069335936 43.71663284301757816 -202.54547119140625
v -57.10991287231445312 41.51856231689453128 -202.54547119140625
v -57.339813232421875 39.33120346069335936 -202.54547119140625
v -57.87189865112304688 37.19712829589843752 -202.54547119140625
v -58.69581222534179688 35.15787124633789062 -202.54547119140625
v -59.79551696777343744 33.25312805175781248 -202.54547119140625
v -61.14960479736328124 31.51996994018554688 -202.54547119140625
v -62.73172760009765632 29.99213409423828128 -202.54547119140625
v -64.51108551025390624 28.69935417175292968 -202.54547119140625
v -66.45304870605468752 27.66679382324218752 -202.54547119140625
v -68.51981353759765624 26.9145526885986328 -202.54547119140625
v -70.67116546630859376 26.4572696685791016 -202.54547119140625
v -72.86521148681640624 26.30384635925292968 -202.54547119140625
v -75.05926513671875 26.4572696685791016 -202.54547119140625
v -77.21060943603515624 26.9145526885986328 -202.54547119140625
v -79.277374267578125 27.66679382324218752 -202.54547119140625
v -81.21933746337890624 28.69935417175292968 -202.54547119140625
v -82.99869537353515632 29.99213409423828128 -202.54547119140625
v -84.58081817626953128 31.51996994018554688 -202.54547119140625
v -85.93490600585937504 33.25312805175781248 -202.54547119140625
v -87.03461456298828125 35.15787124633789062 -202.54547119140625
v -87.8585281372070312 37.19712829589843752 -202.54547119140625
v -88.39060974121093752 39.33120346069335936 -202.54547119140625
v -88.62051391601562496 41.51856231689453128 -202.54547119140625
v -88.54375457763671872 43.71663284301757816 -202.54547119140625
v -88.16182708740234376 45.88262557983398432 -202.54547119140625
v -87.482177734375 47.97438812255859376 -202.54547119140625
v -86.0313720703125 49.67023849487304688 -203.1074066162109375
v -84.84532165527343744 51.42863464355468752 -203.1074066162109375
v -83.42608642578125 53.00485610961914062 -203.1074066162109375
v -81.80130004882812496 54.36821365356445312 -203.1074066162109375
v -80.0025787353515625 55.49217987060546872 -203.1074066162109375
v -78.06493377685546875 56.35487365722656248 -203.1074066162109375
v -76.02608489990234375 56.93950271606445312 -203.1074066162109375
v -73.92572021484375008 57.23469161987304688 -203.1074066162109375
v -71.80470275878906256 57.23469161987304688 -203.1074066162109375
v -69.70433807373046872 56.93950271606445312 -203.1074066162109375
v -67.66548919677734376 56.35487365722656248 -203.1074066162109375
v -65.72785186767578128 55.49217987060546872 -203.1074066162109375
v -63.92912673950195312 54.36821365356445312 -203.1074066162109375
v -62.30434036254882812 53.00485610961914062 -203.1074066162109375
v -60.88510513305664064 51.42863464355468752 -203.1074066162109375
v -59.69905090332031248 49.67023849487304688 -203.1074066162109375
v -58.76926040649414064 47.76388549804687504 -203.1074066162109375
v -58.11383056640625 45.74668121337890624 -203.1074066162109375
v -57.74552154541015632 43.6578941345214844 -203.1074066162109375
v -57.67149734497070312 41.53817367553710936 -203.1074066162109375
v -57.89320373535156256 39.42877960205078128 -203.1074066162109375
v -58.40632629394531248 37.37077331542968752 -203.1074066162109375
v -59.20087051391601564 35.40420532226562496 -203.1074066162109375
v -60.26137542724609376 33.56735610961914064 -203.1074066162109375
v -61.56719970703125 31.89597511291503904 -203.1074066162109375
v -63.09292984008789062 30.42259597778320312 -203.1074066162109375
v -64.80886077880859376 29.17589569091796876 -203.1074066162109375
v -66.68160247802734376 28.18014144897460938 -203.1074066162109375
v -68.67470550537109376 27.4547138214111328 -203.1074066162109375
v -70.74936676025390624 27.01372909545898437 -203.1074066162109375
v -72.86521148681640624 26.86577606201171872 -203.1074066162109375
v -74.98105621337890624 27.01372909545898437 -203.1074066162109375
v -77.05571746826171875 27.4547138214111328 -203.1074066162109375
v -79.04882049560546875 28.18014144897460938 -203.1074066162109375
v -80.92156219482421872 29.17589569091796876 -203.1074066162109375
v -82.63749694824218752 30.42259597778320312 -203.1074066162109375
v -84.1632232666015625 31.89597511291503904 -203.1074066162109375
v -85.46904754638671872 33.56735610961914064 -203.1074066162109375
v -86.52955627441406248 35.40420532226562496 -203.1074066162109375
v -87.3240966796875 37.37077331542968752 -203.1074066162109375
v -87.83721923828124992 39.42877960205078128 -203.1074066162109375
v -88.058929443359375 41.53817367553710936 -203.1074066162109375
v -87.98490142822265632 43.6578941345214844 -203.1074066162109375
v -87.61659240722656248 45.74668121337890624 -203.1074066162109375
v -86.96116638183593744 47.76388549804687504 -203.1074066162109375
v -85.41816711425781248 49.31620025634765624 -203.46818542480468752
v -84.287353515625 50.99270248413085936 -203.46818542480468752
v -82.93421936035156256 52.49551010131835936 -203.46818542480468752
v -81.38510131835937504 53.79537200927734368 -203.46818542480468752
v -79.67015838623046872 54.86698913574218752 -203.46818542480468752
v -77.8227615356445312 55.68950271606445312 -203.46818542480468752
v -75.87887573242187504 56.24690628051757812 -203.46818542480468752
v -73.87632751464843744 56.52834320068359376 -203.46818542480468752
v -71.85409545898437504 56.52834320068359376 -203.46818542480468752
v -69.8515548706054688 56.24690628051757812 -203.46818542480468752
v -67.90766143798828128 55.68950271606445312 -203.46818542480468752
v -66.06026458740234375 54.86698913574218752 -203.46818542480468752
v -64.34532165527343752 53.79537200927734368 -203.46818542480468752
v -62.79620742797851568 52.49551010131835936 -203.46818542480468752
v -61.44307327270507816 50.99270248413085936 -203.46818542480468752
v -60.31225967407226564 49.31620025634765624 -203.46818542480468752
v -59.42577362060546872 47.49863815307617184 -203.46818542480468752
v -58.80086898803710944 45.57538604736328128 -203.46818542480468752
v -58.44971466064453128 43.58388137817382816 -203.46818542480468752
v -58.37913894653320312 41.56288528442382816 -203.46818542480468752
v -58.5905189514160156 39.55173492431640624 -203.46818542480468752
v -59.07973861694335938 37.58957672119140624 -203.46818542480468752
v -59.8372802734375 35.7146034240722656 -203.46818542480468752
v -60.8483924865722656 33.96330261230468752 -203.46818542480468752
v -62.0933990478515625 32.36976623535156248 -203.46818542480468752
v -63.54806900024414064 30.96500968933105472 -203.46818542480468752
v -65.18408203125 29.7763748168945312 -203.46818542480468752
v -66.9696044921875 28.82699775695800784 -203.46818542480468752
v -68.869873046875 28.13535499572753906 -203.46818542480468752
v -70.8479080200195312 27.7149105072021484 -203.46818542480468752
v -72.86521148681640624 27.5738468170166016 -203.46818542480468752
v -74.88251495361328128 27.7149105072021484 -203.46818542480468752
v -76.86054992675781248 28.13535499572753906 -203.46818542480468752
v -78.76081848144531248 28.82699775695800784 -203.46818542480468752
v -80.54634094238281248 29.7763748168945312 -203.46818542480468752
v -82.18235778808593752 30.96500968933105472 -203.46818542480468752
v -83.63702392578125 32.36976623535156248 -203.46818542480468752
v -84.88203430175781248 33.96330261230468752 -203.46818542480468752
v -85.89314270019531248 35.7146034240722656 -203.46818542480468752
v -86.65068817138671872 37.58957672119140624 -203.46818542480468752
v -87.1399078369140625 39.55173492431640624 -203.46818542480468752
v -87.351287841796875 41.56288528442382816 -203.46818542480468752
v -87.28070831298828124 43.58388137817382816 -203.46818542480468752
v -86.9295578002929688 45.57538604736328128 -203.46818542480468752
v -86.30464935302734376 47.49863815307617184 -203.46818542480468752
v -57.4775962829589844 36.84535980224609376 -96.39250183105468752
v -58.79230117797851568 33.94374847412109376 -96.39250183105468752
v -56.75423431396484368 39.94770050048828128 -96.39250183105468752
v -56.65000534057617184 43.13154983520507812 -96.39250183105468752
v -57.16891860961914062 46.27455902099609376 -96.39250183105468752
v -58.29103088378906248 49.25593948364257812 -96.39250183105468752
v -59.97322082519531248 51.96112442016601568 -96.39250183105468752
v -62.15084457397460938 54.28614807128906248 -96.39250183105468752
v -64.74021148681640624 56.14166259765625 -96.39250183105468752
v -67.64182281494140624 57.4563636779785156 -96.39250183105468752
v -70.74416351318359376 58.17972946166992188 -96.39250183105468752
v -73.92801666259765632 58.28395843505859376 -96.39250183105468752
v -77.07102203369140625 57.76504516601562496 -96.39250183105468752
v -80.05240631103515625 56.64293289184570312 -96.39250183105468752
v -82.75758361816406256 54.96074295043945312 -96.39250183105468752
v -89.08042144775390625 41.005950927734375 -96.39250183105468752
v -88.9761886596679688 44.18980026245117188 -96.39250183105468752
v -88.56150817871093752 37.86294174194335936 -96.39250183105468752
v -87.43939208984375 34.88155746459960944 -96.39250183105468752
v -85.7572021484375 32.1763763427734375 -96.39250183105468752
v -83.57958221435546872 29.85135269165039056 -96.39250183105468752
v -80.99021148681640624 27.99583625793457024 -96.39250183105468752
v -78.08860015869140625 26.68113517761230472 -96.39250183105468752
v -74.98625946044921872 25.9577713012695312 -96.39250183105468752
v -71.80241394042968752 25.85354232788085936 -96.39250183105468752
v -68.65940093994140624 26.37245559692382816 -96.39250183105468752
v -65.67802429199218752 27.49456787109375 -96.39250183105468752
v -62.97283935546875008 29.1767578125 -96.39250183105468752
v -60.64781570434570312 31.35437965393066408 -96.39250183105468752
v -85.082611083984375 52.78311920166015632 -96.39250183105468752
v -85.082611083984375 52.78311920166015632 -171.1125030517578125
v -86.93812561035156256 50.19374847412109376 -171.1125030517578125
v -86.93812561035156256 50.19374847412109376 -96.39250183105468752
v -88.25283050537109376 47.29214096069335936 -171.1125030517578125
v -88.25283050537109376 47.29214096069335936 -183.8125
v -88.77278900146484368 45.38711547851562496 -183.8125
v -88.77278900146484368 45.38711547851562496 -171.1125030517578125
v -88.25283050537109376 47.29214096069335936 -96.39250183105468752
v -86.93812561035156256 50.19374847412109376 -183.8125
v -85.082611083984375 52.78311920166015632 -183.8125
v -83.69278717041015624 54.18593215942382812 -171.1125030517578125
v -83.69278717041015624 54.18593215942382812 -183.8125
v -91.35307312011718752 46.8768424987792968 -171.1125030517578125
v -91.35307312011718752 46.8768424987792968 -183.8125
v -86.2730712890625 55.6756591796875 -171.1125030517578125
v -86.2730712890625 55.6756591796875 -183.8125
v -86.36300659179687504 55.71855545043945312 -183.8046875
v -91.43518829345703128 46.93328094482421872 -183.8046875
v -91.50746917724609376 47.00186920166015625 -183.78141784667968752
v -86.45854949951171872 55.74685668945312496 -183.78141784667968752
v -86.55733489990234376 55.75986099243164064 -183.7432861328125
v -91.56812286376953128 47.08092117309570312 -183.7432861328125
v -91.61566925048828128 47.168487548828125 -183.69122314453125
v -86.65694427490234376 55.75725555419921872 -183.69122314453125
v -91.66709136962890624 47.36038970947265624 -183.55075073242187504
v -91.65669250488281248 47.55879211425781248 -183.37371826171875
v -87.01546478271484375 55.59762954711914064 -183.37371826171875
v -91.58549499511718752 47.7442665100097656 -183.1775054931640625
v -87.14049530029296876 55.4432334899902344 -183.1775054931640625
v -86.84884643554687504 55.70583343505859376 -183.55075073242187504
v -91.58549499511718752 47.7442665100097656 -171.74749755859375008
v -87.14049530029296876 55.4432334899902344 -171.74749755859375008
v -91.43518829345703128 46.93328094482421872 -171.1203155517578125
v -91.50746917724609376 47.00186920166015625 -171.143585205078125
v -91.56812286376953128 47.08092117309570312 -171.18171691894531248
v -91.61566925048828128 47.168487548828125 -171.23377990722656248
v -91.66709136962890624 47.36038970947265624 -171.37425231933593752
v -91.65669250488281248 47.55879211425781248 -171.55126953125
v -87.01546478271484375 55.59762954711914064 -171.55126953125
v -86.65694427490234376 55.75725555419921872 -171.23377990722656248
v -86.55733489990234376 55.75986099243164064 -171.18171691894531248
v -86.45854949951171872 55.74685668945312496 -171.143585205078125
v -86.36300659179687504 55.71855545043945312 -171.1203155517578125
v -86.84884643554687504 55.70583343505859376 -171.37425231933593752
v -63.07410430908203125 48.8806190490722656 -96.39250183105468752
v -62.90592193603515632 49.31874847412109376 -96.39250183105468752
v -73.47531890869140624 30.43906784057617184 -96.39250183105468752
v -83.11985015869140624 47.45403289794921872 -96.39250183105468752
v -83.51343536376953128 47.19843292236328124 -96.39250183105468752
v -83.81167602539062496 50.03597259521484375 -96.39250183105468752
v -73.86891174316406256 30.18346786499023436 -96.39250183105468752
v -84.28033447265625 50.0605316162109375 -96.39250183105468752
v -73.022003173828125 30.56053352355957032 -96.39250183105468752
v -63.098663330078125 48.41195678710937504 -96.39250183105468752
v -85.23825836181640624 47.56505584716796872 -96.39250183105468752
v -85.49385833740234376 47.95864486694335936 -96.39250183105468752
v -82.82450103759765632 47.81874847412109376 -96.39250183105468752
v -72.5533447265625 30.53597068786621096 -96.39250183105468752
v -72.11521148681640624 30.36778831481933592 -96.39250183105468752
v -83.96675109863281248 47.07696533203125 -96.39250183105468752
v -62.61057662963867184 49.6834678649902344 -96.39250183105468752
v -62.21698760986328124 49.93906784057617184 -96.39250183105468752
v -84.7336502075195312 49.93906784057617184 -96.39250183105468752
v -85.12723541259765624 49.6834678649902344 -96.39250183105468752
v -84.8735427856445312 47.26971054077148436 -96.39250183105468752
v -84.43540954589843752 47.10152816772460938 -96.39250183105468752
v -74.16425323486328124 29.81875038146972656 -96.39250183105468752
v -61.7636756896972656 50.0605316162109375 -96.39250183105468752
v -85.59076690673828128 48.8806190490722656 -96.39250183105468752
v -85.42258453369140624 49.31874847412109376 -96.39250183105468752
v -82.65631866455078128 48.25688171386718752 -96.39250183105468752
v -61.91875076293945312 47.10152816772460938 -96.39250183105468752
v -61.295013427734375 50.03597259521484375 -96.39250183105468752
v -62.35688400268554688 47.26971054077148436 -96.39250183105468752
v -71.37342834472656248 29.22554206848144532 -96.39250183105468752
v -71.39798736572265624 28.75688171386718752 -96.39250183105468752
v -71.49489593505859376 29.67885589599609376 -96.39250183105468752
v -74.33243560791015624 29.3806171417236328 -96.39250183105468752
v -61.45008850097656248 47.07696533203125 -96.39250183105468752
v -60.85688400268554688 49.8677864074707032 -96.39250183105468752
v -62.97719955444335936 47.95864486694335936 -96.39250183105468752
v -62.72159957885742192 47.56505584716796872 -96.39250183105468752
v -71.56617736816406248 28.31875038146972656 -96.39250183105468752
v -71.7504959106445312 30.07244682312011719 -96.39250183105468752
v -60.99677658081054688 47.19843292236328124 -96.39250183105468752
v -60.49216461181640624 49.5724449157714844 -96.39250183105468752
v -85.61532592773437504 48.41195678710937504 -96.39250183105468752
v -74.35699462890625 28.91195678710937504 -96.39250183105468752
v -73.97992706298828128 28.06505393981933594 -96.39250183105468752
v -73.1770782470703125 27.60152816772460936 -96.39250183105468752
v -73.61521148681640624 27.76971244812011712 -96.39250183105468752
v -60.60318756103515624 47.45403289794921872 -96.39250183105468752
v -83.00882720947265625 49.5724449157714844 -96.39250183105468752
v -82.75322723388671872 49.17885589599609376 -96.39250183105468752
v -60.11510086059570312 48.72554397583007808 -96.39250183105468752
v -60.13965988159179688 48.25688171386718752 -96.39250183105468752
v -60.23656463623046876 49.17885589599609376 -96.39250183105468752
v -74.23552703857421876 28.45864486694335936 -96.39250183105468752
v -82.63175964355468752 48.72554397583007808 -96.39250183105468752
v -83.37354278564453128 49.8677864074707032 -96.39250183105468752
v -72.70841979980468752 27.5769672393798828 -96.39250183105468752
v -60.30784225463867188 47.81874847412109376 -96.39250183105468752
v -72.25510406494140624 27.6984310150146484 -96.39250183105468752
v -71.86151885986328128 27.95403289794921872 -96.39250183105468752
v -85.59076690673828128 48.8806190490722656 -102.39250183105468752
v -85.42258453369140624 49.31874847412109376 -102.39250183105468752
v -85.61532592773437504 48.41195678710937504 -102.39250183105468752
v -85.49385833740234376 47.95864486694335936 -102.39250183105468752
v -85.23825836181640624 47.56505584716796872 -102.39250183105468752
v -84.8735427856445312 47.26971054077148436 -102.39250183105468752
v -84.43540954589843752 47.10152816772460938 -102.39250183105468752
v -83.96675109863281248 47.07696533203125 -102.39250183105468752
v -83.51343536376953128 47.19843292236328124 -102.39250183105468752
v -83.11985015869140624 47.45403289794921872 -102.39250183105468752
v -82.82450103759765632 47.81874847412109376 -102.39250183105468752
v -82.65631866455078128 48.25688171386718752 -102.39250183105468752
v -82.63175964355468752 48.72554397583007808 -102.39250183105468752
v -82.75322723388671872 49.17885589599609376 -102.39250183105468752
v -83.00882720947265625 49.5724449157714844 -102.39250183105468752
v -83.37354278564453128 49.8677864074707032 -102.39250183105468752
v -83.81167602539062496 50.03597259521484375 -102.39250183105468752
v -84.28033447265625 50.0605316162109375 -102.39250183105468752
v -84.7336502075195312 49.93906784057617184 -102.39250183105468752
v -85.12723541259765624 49.6834678649902344 -102.39250183105468752
v -84.12354278564453124 48.56874847412109376 -103.293792724609375
v -63.07410430908203125 48.8806190490722656 -102.39250183105468752
v -62.90592193603515632 49.31874847412109376 -102.39250183105468752
v -63.098663330078125 48.41195678710937504 -102.39250183105468752
v -62.97719955444335936 47.95864486694335936 -102.39250183105468752
v -62.72159957885742192 47.56505584716796872 -102.39250183105468752
v -62.35688400268554688 47.26971054077148436 -102.39250183105468752
v -61.91875076293945312 47.10152816772460938 -102.39250183105468752
v -61.45008850097656248 47.07696533203125 -102.39250183105468752
v -60.99677658081054688 47.19843292236328124 -102.39250183105468752
v -60.60318756103515624 47.45403289794921872 -102.39250183105468752
v -60.30784225463867188 47.81874847412109376 -102.39250183105468752
v -60.13965988159179688 48.25688171386718752 -102.39250183105468752
v -60.11510086059570312 48.72554397583007808 -102.39250183105468752
v -60.23656463623046876 49.17885589599609376 -102.39250183105468752
v -60.49216461181640624 49.5724449157714844 -102.39250183105468752
v -60.85688400268554688 49.8677864074707032 -102.39250183105468752
v -61.295013427734375 50.03597259521484375 -102.39250183105468752
v -61.7636756896972656 50.0605316162109375 -102.39250183105468752
v -62.21698760986328124 49.93906784057617184 -102.39250183105468752
v -62.61057662963867184 49.6834678649902344 -102.39250183105468752
v -61.60688400268554688 48.56874847412109376 -103.293792724609375
v -74.33243560791015624 29.3806171417236328 -102.39250183105468752
v -74.16425323486328124 29.81875038146972656 -102.39250183105468752
v -74.35699462890625 28.91195678710937504 -102.39250183105468752
v -74.23552703857421876 28.45864486694335936 -102.39250183105468752
v -73.97992706298828128 28.06505393981933594 -102.39250183105468752
v -73.61521148681640624 27.76971244812011712 -102.39250183105468752
v -73.1770782470703125 27.60152816772460936 -102.39250183105468752
v -72.70841979980468752 27.5769672393798828 -102.39250183105468752
v -72.25510406494140624 27.6984310150146484 -102.39250183105468752
v -71.86151885986328128 27.95403289794921872 -102.39250183105468752
v -71.56617736816406248 28.31875038146972656 -102.39250183105468752
v -71.39798736572265624 28.75688171386718752 -102.39250183105468752
v -71.37342834472656248 29.22554206848144532 -102.39250183105468752
v -71.49489593505859376 29.67885589599609376 -102.39250183105468752
v -71.7504959106445312 30.07244682312011719 -102.39250183105468752
v -72.11521148681640624 30.36778831481933592 -102.39250183105468752
v -72.5533447265625 30.53597068786621096 -102.39250183105468752
v -73.022003173828125 30.56053352355957032 -102.39250183105468752
v -73.47531890869140624 30.43906784057617184 -102.39250183105468752
v -73.86891174316406256 30.18346786499023436 -102.39250183105468752
v -72.86521148681640624 29.06875038146972656 -103.293792724609375
# 593 vertices

vn 0 0 1
vn 0.93358039855957024 -0.3583679497241974 0
vn 0.99862951040267952 -0.0523359552025795 0
vn 0.96592581272125248 0.25881904363632204 0
vn 0.83867055177688592 0.5446390509605408 0
vn 0.62932038307189944 0.7771459817886352 0
vn 0.3583679497241974 0.93358039855957024 0
vn 0.0523359552025795 0.99862951040267952 0
vn -0.25881904363632204 0.96592581272125248 0
vn -0.5446390509605408 0.83867055177688592 0
vn -0.7771459817886352 0.62932038307189944 0
vn -0.93358039855957024 0.3583679497241974 0
vn -0.99862951040267952 0.0523359552025795 0
vn -0.96592581272125248 -0.25881904363632204 0
vn -0.83867055177688592 -0.5446390509605408 0
vn -0.62932038307189944 -0.7771459817886352 0
vn -0.3583679497241974 -0.93358039855957024 0
vn -0.0523359552025795 -0.99862951040267952 0
vn 0.25881904363632204 -0.96592581272125248 0
vn 0.5446390509605408 -0.83867055177688592 0
vn 0.7771459817886352 -0.62932038307189944 0
vn 0.91997945308685296 -0.39196661114692688 0
vn 0.98705023527145392 -0.1604112833738327 0
vn 0.99675732851028448 0.08046656847000122 0
vn 0.94853645563125616 0.31666800379753112 0
vn 0.84519010782241824 0.53446584939956664 0
vn 0.69272434711456296 0.72120243310928352 0
vn 0.5 0.86602538824081424 0
vn 0.27821746468544008 0.96051812171936032 0
vn 0.04026594012975692 0.99918901920318608 0
vn -0.20002569258213044 0.9797906279563904 0
vn -0.4286925494670868 0.90345042943954464 0
vn -0.6324453949928284 0.77460497617721552 0
vn -0.79944276809692384 0.60074228048324584 0
vn -0.91997945308685296 0.39196661114692688 0
vn -0.98705023527145392 0.1604112833738327 0
vn -0.99675732851028448 -0.08046656847000122 0
vn -0.94853645563125616 -0.31666800379753112 0
vn -0.84519010782241824 -0.53446584939956664 0
vn -0.69272434711456296 -0.72120243310928352 0
vn -0.5 -0.86602538824081424 0
vn -0.27821746468544008 -0.96051812171936032 0
vn -0.04026594012975692 -0.99918901920318608 0
vn 0.20002569258213044 -0.9797906279563904 0
vn 0.4286925494670868 -0.90345042943954464 0
vn 0.6324453949928284 -0.77460497617721552 0
vn 0.79944276809692384 -0.60074228048324584 0
vn 0 0 -1
vn -0.81887948513031008 0.55234122276306152 -0.15606269240379334
vn -0.72776693105697632 0.65528428554534912 -0.202380508184433
vn -0.7607596516609192 0.62991446256637576 -0.15637309849262238
vn -0.64474856853485104 0.74826753139495856 -0.15618900954723358
vn -0.6316373944282532 0.75275611877441408 -0.185451939702034
vn -0.52342623472213744 0.83765709400177008 -0.15606269240379334
vn -0.39940604567527768 0.89708065986633296 -0.18900027871131896
vn -0.4503212869167328 0.87905889749526976 -0.15641666948795318
vn -0.29701054096221924 0.9419970512390136 -0.1562892198562622
vn -0.27000716328620912 0.94162690639495856 -0.20108434557914732
vn -0.13746783137321472 0.97813445329666144 -0.15606269240379334
vn 0 0.986801028251648 -0.16193744540214538
vn -0.06674794107675552 0.98543041944503792 -0.15643410384654998
vn 0.13626651465892792 0.96958661079406736 -0.2033056914806366
vn 0.09895571321249008 0.9827300310134888 -0.15636329352855682
vn 0.26188227534294128 0.95238053798675536 -0.15616977214813232
vn 0.27105817198753356 0.94529217481613152 -0.18152189254760744
vn 0.40175294876098632 0.90235191583633424 -0.15606269240379334
vn 0.52004253864288328 0.83224201202392576 -0.19216902554035188
vn 0.47884258627891544 0.8638548851013184 -0.15641121566295624
vn 0.61655116081237792 0.77164953947067264 -0.15627433359622956
vn 0.62987715005874632 0.75065833330154416 -0.1994163542985916
vn 0.73403918743133552 0.66093182563781736 -0.15606269240379334
vn 0.8173364996910096 0.5513004660606384 -0.16741816699504852
vn 0.78095507621765136 0.60468000173568728 -0.15643301606178284
vn 0.87991929054260256 0.4291653335094452 -0.20386056602001192
vn 0.87107473611831664 0.46559914946556088 -0.15635275840759278
vn 0.93669092655181888 0.31341239809989928 -0.15614980459213256
vn 0.93600457906723024 0.30412632226943968 -0.17720785737037658
vn 0.97274106740951536 0.17152048647403718 -0.15606269240379334
vn 0.98021370172500608 0.0342298150062561 -0.19496014714241028
vn 0.98412001132965088 0.08393630385398865 -0.15640504658222198
vn 0.98432385921478272 -0.08179100602865219 -0.1562587171792984
vn 0.97495764493942256 -0.10247217863798142 -0.19737540185451508
vn 0.9584068655967712 -0.23895765841007232 -0.15606269240379334
vn 0.9132837057113648 -0.36899057030677792 -0.17250744998455048
vn 0.93733018636703488 -0.31135407090187072 -0.15643119812011718
vn 0.87209004163742064 -0.46369850635528568 -0.15634149312973022
vn 0.8478054404258728 -0.4894807040691376 -0.20404547452926636
vn 0.78231048583984368 -0.6030041575431824 -0.15612910687923432
vn 0.77619707584381104 -0.60643160343170168 -0.17250744998455048
vn 0.68614685535430912 -0.7105258107185364 -0.15606269240379334
vn 0.57622230052948 -0.79310202598571776 -0.19737540185451508
vn 0.61822092533111576 -0.77028727531433104 -0.15639814734458924
vn 0.4807390868663788 -0.8628315329551696 -0.15624237060546876
vn 0.46046295762062072 -0.86600488424301152 -0.19496014714241028
vn 0.33782941102981568 -0.92817872762680048 -0.15606269240379334
vn 0.20462116599082948 -0.96266686916351312 -0.17720785737037658
vn 0.2639484703540802 -0.95176744461059568 -0.15642865002155304
vn 0.10110000520944596 -0.98251712322235104 -0.15632951259613038
vn 0.06829158216714859 -0.97661513090133664 -0.20386056602001192
vn -0.06460128724575043 -0.98562520742416384 -0.15610769391059876
vn -0.06877192854881287 -0.98348438739776608 -0.16741816699504852
vn -0.20536418259143828 -0.96616250276565552 -0.15606269240379334
vn -0.33515062928199768 -0.92081874608993536 -0.1994163542985916
vn -0.29494991898536684 -0.94262748956680304 -0.15639051795005798
vn -0.44841614365577696 -0.88006627559661872 -0.1562253087759018
vn -0.4607214629650116 -0.86649107933044432 -0.19216902554035188
vn -0.58058321475982664 -0.79910421371459968 -0.15606269240379334
vn -0.68311792612075808 -0.70738935470581056 -0.18152189254760744
vn -0.64309018850326536 -0.74964398145675664 -0.15642538666725158
vn -0.75939041376113888 -0.63157838582992552 -0.15631680190563202
vn -0.77155339717864992 -0.6028035879135132 -0.2033056914806366
vn -0.8543314933776856 -0.49573680758476256 -0.1560855507850647
vn -0.8545947670936584 -0.493400514125824 -0.16193744540214538
vn -0.91582322120666496 -0.37001660466194152 -0.15606269240379334
vn -0.9504764080047608 -0.23698037862777708 -0.20108434557914732
vn -0.94702303409576416 -0.2805210053920746 -0.15638217329978942
vn -0.98062217235565184 -0.11823420226573944 -0.15620751678943634
vn -0.97659766674041744 -0.10264454782009124 -0.18900027871131896
vn -0.98714542388916016 0.03447187691926956 -0.15606269240379334
vn -0.96772462129592896 0.17063595354557038 -0.185451939702034
vn -0.98084419965744016 0.1160905584692955 -0.15642139315605164
vn -0.94764471054077152 0.27845776081085204 -0.15630337595939636
vn -0.93137627840042112 0.3026224970817566 -0.202380508184433
vn -0.88778126239776608 0.432999849319458 -0.15606269240379334
vn -0.7390486001968384 0.49849456548690792 -0.45311188697814944
vn -0.66247916221618656 0.59649890661239624 -0.45311188697814944
vn -0.5730153918266296 0.68289309740066528 -0.45311188697814944
vn -0.4723984599113464 0.75599557161331184 -0.45311188697814944
vn -0.36258685588836672 0.8143834471702576 -0.45311188697814944
vn -0.24571792781352996 0.85692024230957024 -0.45311188697814944
vn -0.12406636774539948 0.88277810811996464 -0.45311188697814944
vn 0 0.89145368337631232 -0.45311188697814944
vn 0.12406636774539948 0.88277810811996464 -0.45311188697814944
vn 0.24571792781352996 0.85692024230957024 -0.45311188697814944
vn 0.36258685588836672 0.8143834471702576 -0.45311188697814944
vn 0.4723984599113464 0.75599557161331184 -0.45311188697814944
vn 0.5730153918266296 0.68289309740066528 -0.45311188697814944
vn 0.66247916221618656 0.59649890661239624 -0.45311188697814944
vn 0.7390486001968384 0.49849456548690792 -0.45311188697814944
vn 0.80123323202133184 0.39078757166862488 -0.45311188697814944
vn 0.8478227853775024 0.27547433972358704 -0.45311188697814944
vn 0.8779104948043824 0.15479929745197296 -0.45311188697814944
vn 0.89091062545776368 0.03111128322780132 -0.45311188697814944
vn 0.88657015562057488 -0.0931822806596756 -0.45311188697814944
vn 0.86497366428375248 -0.21566216647624968 -0.45311188697814944
vn 0.82654142379760736 -0.33394441008567812 -0.45311188697814944
vn 0.77202153205871584 -0.44572684168815616 -0.45311188697814944
vn 0.70247507095336912 -0.54883366823196408 -0.45311188697814944
vn 0.61925572156906128 -0.64125812053680416 -0.45311188697814944
vn 0.52398329973220824 -0.7212011814117432 -0.45311188697814944
vn 0.41851213574409488 -0.78710687160491936 -0.45311188697814944
vn 0.30489510297775268 -0.83769243955612176 -0.45311188697814944
vn 0.18534363806247712 -0.8719732761383056 -0.45311188697814944
vn 0.06218466535210609 -0.8892821073532104 -0.45311188697814944
vn -0.06218466535210609 -0.8892821073532104 -0.45311188697814944
vn -0.18534363806247712 -0.8719732761383056 -0.45311188697814944
vn -0.30489510297775268 -0.83769243955612176 -0.45311188697814944
vn -0.41851213574409488 -0.78710687160491936 -0.45311188697814944
vn -0.52398329973220824 -0.7212011814117432 -0.45311188697814944
vn -0.61925572156906128 -0.64125812053680416 -0.45311188697814944
vn -0.70247507095336912 -0.54883366823196408 -0.45311188697814944
vn -0.77202153205871584 -0.44572684168815616 -0.45311188697814944
vn -0.82654142379760736 -0.33394441008567812 -0.45311188697814944
vn -0.86497366428375248 -0.21566216647624968 -0.45311188697814944
vn -0.88657015562057488 -0.0931822806596756 -0.45311188697814944
vn -0.89091062545776368 0.03111128322780132 -0.45311188697814944
vn -0.8779104948043824 0.15479929745197296 -0.45311188697814944
vn -0.8478227853775024 0.27547433972358704 -0.45311188697814944
vn -0.80123323202133184 0.39078757166862488 -0.45311188697814944
vn -0.5869325399398804 0.39589098095893856 -0.70624399185180664
vn -0.52612316608428952 0.47372341156005856 -0.70624399185180664
vn -0.45507341623306272 0.54233539104461672 -0.70624399185180664
vn -0.37516617774963376 0.60039138793945312 -0.70624399185180664
vn -0.28795674443244936 0.646761417388916 -0.70624399185180664
vn -0.19514258205890656 0.68054306507110592 -0.70624399185180664
vn -0.09853018075227738 0.70107865333557128 -0.70624399185180664
vn 0 0.70796853303909304 -0.70624399185180664
vn 0.09853018075227738 0.70107865333557128 -0.70624399185180664
vn 0.19514258205890656 0.68054306507110592 -0.70624399185180664
vn 0.28795674443244936 0.646761417388916 -0.70624399185180664
vn 0.37516617774963376 0.60039138793945312 -0.70624399185180664
vn 0.45507341623306272 0.54233539104461672 -0.70624399185180664
vn 0.52612316608428952 0.47372341156005856 -0.70624399185180664
vn 0.5869325399398804 0.39589098095893856 -0.70624399185180664
vn 0.63631790876388552 0.31035298109054564 -0.70624399185180664
vn 0.67331808805465696 0.21877431869506836 -0.70624399185180664
vn 0.69721293449401856 0.12293744832277298 -0.70624399185180664
vn 0.70753729343414304 0.02470774576067924 -0.70624399185180664
vn 0.70409023761749264 -0.07400286197662354 -0.70624399185180664
vn 0.68693882226943968 -0.17127309739589692 -0.70624399185180664
vn 0.65641701221466064 -0.26520967483520508 -0.70624399185180664
vn 0.61311876773834232 -0.35398426651954652 -0.70624399185180664
vn 0.55788683891296384 -0.43586894869804384 -0.70624399185180664
vn 0.49179628491401672 -0.50926995277404784 -0.70624399185180664
vn 0.41613346338272096 -0.57275855541229248 -0.70624399185180664
vn 0.33237108588218688 -0.62509912252426144 -0.70624399185180664
vn 0.2421395033597946 -0.66527283191680912 -0.70624399185180664
vn 0.14719493687152862 -0.69249773025512696 -0.70624399185180664
vn 0.04938538745045662 -0.70624399185180664 -0.70624399185180664
vn -0.04938538745045662 -0.70624399185180664 -0.70624399185180664
vn -0.14719493687152862 -0.69249773025512696 -0.70624399185180664
vn -0.2421395033597946 -0.66527283191680912 -0.70624399185180664
vn -0.33237108588218688 -0.62509912252426144 -0.70624399185180664
vn -0.41613346338272096 -0.57275855541229248 -0.70624399185180664
vn -0.49179628491401672 -0.50926995277404784 -0.70624399185180664
vn -0.55788683891296384 -0.43586894869804384 -0.70624399185180664
vn -0.61311876773834232 -0.35398426651954652 -0.70624399185180664
vn -0.65641701221466064 -0.26520967483520508 -0.70624399185180664
vn -0.68693882226943968 -0.17127309739589692 -0.70624399185180664
vn -0.70409023761749264 -0.07400286197662354 -0.70624399185180664
vn -0.70753729343414304 0.02470774576067924 -0.70624399185180664
vn -0.69721293449401856 0.12293744832277298 -0.70624399185180664
vn -0.67331808805465696 0.21877431869506836 -0.70624399185180664
vn -0.63631790876388552 0.31035298109054564 -0.70624399185180664
vn -0.3771042823791504 0.25436004996299744 -0.89055788516998288
vn -0.33803424239158632 0.30436739325523376 -0.89055788516998288
vn -0.29238477349281312 0.34845060110092164 -0.89055788516998288
vn -0.2410443425178528 0.38575157523155216 -0.89055788516998288
vn -0.18501228094100952 0.41554436087608336 -0.89055788516998288
vn -0.12537914514541626 0.4372490644454956 -0.89055788516998288
vn -0.06330566108226776 0.45044317841529848 -0.89055788516998288
vn 0 0.45486995577812192 -0.89055788516998288
vn 0.06330566108226776 0.45044317841529848 -0.89055788516998288
vn 0.12537914514541626 0.4372490644454956 -0.89055788516998288
vn 0.18501228094100952 0.41554436087608336 -0.89055788516998288
vn 0.2410443425178528 0.38575157523155216 -0.89055788516998288
vn 0.29238477349281312 0.34845060110092164 -0.89055788516998288
vn 0.33803424239158632 0.30436739325523376 -0.89055788516998288
vn 0.3771042823791504 0.25436004996299744 -0.89055788516998288
vn 0.40883439779281616 0.19940185546875 -0.89055788516998288
vn 0.43260702490806576 0.14056254923343658 -0.89055788516998288
vn 0.44795945286750792 0.07898733764886856 -0.89055788516998288
vn 0.45459285378456112 0.01587473228573799 -0.89055788516998288
vn 0.452378123998642 -0.04754685610532761 -0.89055788516998288
vn 0.44135835766792296 -0.1100429967045784 -0.89055788516998288
vn 0.4217480719089508 -0.17039728164672852 -0.89055788516998288
vn 0.39392891526222232 -0.22743497788906096 -0.89055788516998288
vn 0.35844239592552184 -0.28004589676856996 -0.89055788516998288
vn 0.31597921252250672 -0.3272060453891754 -0.89055788516998288
vn 0.26736584305763244 -0.36799752712249752 -0.89055788516998288
vn 0.2135484963655472 -0.40162631869316104 -0.89055788516998288
vn 0.15557467937469482 -0.4274379312992096 -0.89055788516998288
vn 0.0945727825164795 -0.44492995738983152 -0.89055788516998288
vn 0.03173012286424637 -0.45376190543174744 -0.89055788516998288
vn -0.03173012286424637 -0.45376190543174744 -0.89055788516998288
vn -0.0945727825164795 -0.44492995738983152 -0.89055788516998288
vn -0.15557467937469482 -0.4274379312992096 -0.89055788516998288
vn -0.2135484963655472 -0.40162631869316104 -0.89055788516998288
vn -0.26736584305763244 -0.36799752712249752 -0.89055788516998288
vn -0.31597921252250672 -0.3272060453891754 -0.89055788516998288
vn -0.35844239592552184 -0.28004589676856996 -0.89055788516998288
vn -0.39392891526222232 -0.22743497788906096 -0.89055788516998288
vn -0.4217480719089508 -0.17039728164672852 -0.89055788516998288
vn -0.44135835766792296 -0.1100429967045784 -0.89055788516998288
vn -0.452378123998642 -0.04754685610532761 -0.89055788516998288
vn -0.45459285378456112 0.01587473228573799 -0.89055788516998288
vn -0.44795945286750792 0.07898733764886856 -0.89055788516998288
vn -0.43260702490806576 0.14056254923343658 -0.89055788516998288
vn -0.40883439779281616 0.19940185546875 -0.89055788516998288
vn -0.12999896705150604 0.08768540620803833 -0.98762923479080208
vn -0.11653037369251252 0.10492441803216934 -0.98762923479080208
vn -0.10079364478588104 0.12012119591236114 -0.98762923479080208
vn -0.08309509605169296 0.13297994434833526 -0.98762923479080208
vn -0.06377918273210526 0.14325039088726044 -0.98762923479080208
vn -0.04322188720107078 0.1507326364517212 -0.98762923479080208
vn -0.02182332798838615 0.15528105199337006 -0.98762923479080208
vn 0 0.156807079911232 -0.98762923479080208
vn 0.02182332798838615 0.15528105199337006 -0.98762923479080208
vn 0.04322188720107078 0.1507326364517212 -0.98762923479080208
vn 0.06377918273210526 0.14325039088726044 -0.98762923479080208
vn 0.08309509605169296 0.13297994434833526 -0.98762923479080208
vn 0.10079364478588104 0.12012119591236114 -0.98762923479080208
vn 0.11653037369251252 0.10492441803216934 -0.98762923479080208
vn 0.12999896705150604 0.08768540620803833 -0.98762923479080208
vn 0.14093726873397828 0.06873969733715057 -0.98762923479080208
vn 0.1491324007511139 0.04845605418086052 -0.98762923479080208
vn 0.15442483127117156 0.02722926437854767 -0.98762923479080208
vn 0.15671156346797944 0.00547248823568224 -0.98762923479080208
vn 0.15594807267189026 -0.01639080233871936 -0.98762923479080208
vn 0.1521492451429367 -0.03793506696820259 -0.98762923479080208
vn 0.14538899064064026 -0.05874096602201462 -0.98762923479080208
vn 0.13579891622066498 -0.078403539955616 -0.98762923479080208
vn 0.1235656663775444 -0.09654007852077484 -0.98762923479080208
vn 0.10892735421657562 -0.1127975732088089 -0.98762923479080208
vn 0.092168889939785 -0.12685959041118622 -0.98762923479080208
vn 0.07361646741628647 -0.1384524405002594 -0.98762923479080208
vn 0.05363117903470993 -0.14735046029090882 -0.98762923479080208
vn 0.03260202705860138 -0.15338046848773956 -0.98762923479080208
vn 0.01093830913305282 -0.1564251035451889 -0.98762923479080208
vn -0.01093830913305282 -0.1564251035451889 -0.98762923479080208
vn -0.03260202705860138 -0.15338046848773956 -0.98762923479080208
vn -0.05363117903470993 -0.14735046029090882 -0.98762923479080208
vn -0.07361646741628647 -0.1384524405002594 -0.98762923479080208
vn -0.092168889939785 -0.12685959041118622 -0.98762923479080208
vn -0.10892735421657562 -0.1127975732088089 -0.98762923479080208
vn -0.1235656663775444 -0.09654007852077484 -0.98762923479080208
vn -0.13579891622066498 -0.078403539955616 -0.98762923479080208
vn -0.14538899064064026 -0.05874096602201462 -0.98762923479080208
vn -0.1521492451429367 -0.03793506696820259 -0.98762923479080208
vn -0.15594807267189026 -0.01639080233871936 -0.98762923479080208
vn -0.15671156346797944 0.00547248823568224 -0.98762923479080208
vn -0.15442483127117156 0.02722926437854767 -0.98762923479080208
vn -0.1491324007511139 0.04845605418086052 -0.98762923479080208
vn -0.14093726873397828 0.06873969733715057 -0.98762923479080208
vn -0.92590171098709104 0.34387996792793272 -0.15637309849262238
vn -0.9703929424285888 0.18423485755920412 -0.15618900954723358
vn -0.98644798994064336 -0.04953978583216667 -0.15641666948795318
vn -0.96429860591888432 -0.21377986669540404 -0.1562892198562622
vn -0.88678175210952752 -0.43490979075431824 -0.15643410384654998
vn -0.8015912771224976 -0.5770631432533264 -0.15636329352855682
vn -0.69384461641311648 -0.70298695564270016 -0.15616977214813232
vn -0.5086989998817444 -0.84661728143692016 -0.15641121566295624
vn -0.35999250411987304 -0.91977375745773312 -0.15627433359622956
vn -0.13319072127342224 -0.97866690158844 -0.15643301606178284
vn 0.03231668099761009 -0.98717242479324336 -0.15635275840759278
vn 0.19692236185073852 -0.96790432929992672 -0.15614980459213256
vn 0.41936901211738584 -0.89424103498458864 -0.15640504658222198
vn 0.5629950165748596 -0.81155395507812496 -0.1562587171792984
vn 0.73830562829971312 -0.6560747027397156 -0.15643119812011718
vn 0.83761972188949584 -0.52340286970138552 -0.15634149312973022
vn 0.91337215900421136 -0.37599867582321168 -0.15612910687923432
vn 0.97619885206222528 -0.1502513736486435 -0.15639814734458924
vn 0.98760354518890384 0.01508348993957042 -0.15624237060546876
vn 0.956229031085968 0.24729764461517332 -0.15642865002155304
vn 0.90143477916717536 0.40370339155197144 -0.15632951259613038
vn 0.82127583026885984 0.54875898361206056 -0.15610769391059876
vn 0.66886436939239504 0.72674787044525152 -0.15639051795005798
vn 0.53795164823532104 0.8283728957176208 -0.1562253087759018
vn 0.32766562700271608 0.93175441026687616 -0.15642538666725158
vn 0.16726768016815186 0.97344058752059936 -0.15631680190563202
vn 0.00215492048300802 0.98774117231369024 -0.1560855507850647
vn -0.23057319223880768 0.960406482219696 -0.15638217329978942
vn -0.38791728019714352 0.90836083889007568 -0.15620751678943634
vn -0.59095948934555056 0.79139071702957152 -0.15642139315605164
vn -0.71497386693954464 0.6814555525779724 -0.15630337595939636
vn 0.9108636379241944 -0.41270694136619568 0.00068519992055371
vn 0.88294756412506096 -0.46947157382965088 0
vn 0.97029554843902592 -0.24192184209823608 0.00061984662897884
vn 0.94901365041732784 -0.3152349889278412 0
vn 0.973876953125 -0.22707626223564148 0.00018596745212562382
vn 0.98836153745651248 -0.15212339162826538 0
vn 0.99946433305740352 -0.03271907195448875 0.00074727210449054
vn 0.99656552076339728 -0.08280820399522781 0
vn 0.98664319515228272 0.16289545595645904 0.00047835230361670256
vn 0.98480772972106928 0.1736481785774231 0.00021261200890876353
vn 0.996382474899292 0.08498217910528183 0
vn 0.948323667049408 0.31730467081069948 0
vn 0.93590569496154784 0.35224995017051696 0.00070293399039655
vn 0.84920197725296016 0.52806770801544192 0.00066451099701225
vn 0.8819212913513184 0.4713967442512512 0
vn 0.7431446313858032 0.6691304445266724 0.00069800665369257
vn 0.79068958759307856 0.61221730709075928 0
vn 0.7298640608787536 0.68359231948852536 0.00012692211021203548
vn 0.67719709873199464 0.73580169677734368 0
vn 0.58247750997543336 0.81284648180007936 0.00074431608663871
vn 0.62422055006027224 0.781248152256012 0
vn 0.41270700097084048 0.91086375713348384 0.0004369937814772129
vn 0.40673664212226864 0.91354542970657344 0.000273129582637921
vn 0.48480960726737976 0.87461972236633296 0
vn 0.26513543725013732 0.96421116590499872 0
vn 0.22707620263099672 0.97387671470642096 0.00071771285729482
vn 0.03271907567977905 0.99946439266204832 0.00064086768543347
vn 0.10018806159496308 0.99496853351593024 0
vn -0.13917306065559388 0.99026775360107424 0.00077910209074616
vn -0.0675799623131752 0.99771386384963984 0
vn -0.16289547085762024 0.98664331436157232 6.493255932582542E-05
vn -0.23344536125659944 0.97236990928649904 0
vn -0.35224995017051696 0.93590569496154784 0.00073840410914272
vn -0.30070579051971436 0.95371693372726448 0
vn -0.52991920709609984 0.84804803133010864 0.0003365907759871334
vn -0.45593330264091488 0.89001393318176272 0
vn -0.52806782722473144 0.84920209646224976 0.0003926851786673069
vn -0.59832459688186648 0.80125379562377936 0
vn -0.99939072132110592 0.03489949554204941 0.00040299436659552157
vn -0.99306845664978032 0.11753739416599274 0
vn -0.99946451187133792 0.03271907940506935 0.00034542731009423733
vn -0.99874132871627808 -0.05015716329216957 0
vn -0.9928096532821656 -0.11970365792512894 0
vn -0.98664307594299312 -0.16289542615413666 0.00073840410914272
vn -0.93590575456619264 -0.35224997997283936 0.00058471958618611
vn -0.92718386650085456 -0.37460657954216 4.873217039857991E-05
vn -0.9588197469711304 -0.28401535749435424 0
vn -0.86493253707885744 -0.5018881559371948 0
vn -0.84920203685760496 -0.52806776762008664 0.00064086768543347
vn -0.72986388206481936 -0.68359214067459104 0.00071771285729482
vn -0.76884180307388304 -0.63943898677825928 0
vn -0.58778518438339232 -0.80901688337326048 0.0004723391029983759
vn -0.65110546350479128 -0.75898730754852288 0
vn -0.58247768878936768 -0.8128466606140136 0.0002952211070805788
vn -0.51503807306289672 -0.85716730356216432 0
vn -0.45399048924446104 -0.8910065293312072 0
vn -0.41270691156387328 -0.9108635783195496 0.00074431608663871
vn -0.22707623243331908 -0.9738768339157104 0.00055221590446308
vn -0.20791168510913848 -0.978147566318512 0.00010041222412837669
vn -0.29862439632415772 -0.9543707370758056 0
vn -0.06540312618017197 -0.9978589415550232 0
vn -0.03271907567977905 -0.99946439266204832 0.00066451099701225
vn 0.16289542615413666 -0.98664307594299312 0.00070293399039655
vn 0.10235850512981414 -0.99474757909774784 0
vn 0.34202009439468384 -0.93969249725341792 0.00054462364641949
vn 0.26723837852478028 -0.96363043785095216 0
vn 0.35225003957748412 -0.93590587377548224 0.0002420674718450755
vn 0.424594521522522 -0.90538364648818976 0
vn 0.4867165982723236 -0.87355995178222656 0
vn 0.52806770801544192 -0.84920191764831536 0.00074727210449054
vn 0.68359220027923584 -0.72986400127410896 0.00051675993017852
vn 0.69465833902359008 -0.71933978796005248 0.00015503918984904885
vn 0.62592345476150512 -0.77988445758819584 0
vn 0.7920233607292176 -0.61049079895019528 0
vn 0.81284648180007936 -0.58247756958007816 0.00068519992055371
vn -0.8128466606140136 0.58247768878936768 0
vn -0.91086381673812864 0.41270703077316288 0
vn -0.95943707227706912 0.281922847032547 0
vn -0.9647102355957032 0.26330944895744324 0.00151123444084078
vn -0.985874891281128 0.16748358309268952 0
vn -0.96471136808395392 0.26330974698066712 0
vn -0.97387647628784176 0.22707615792751312 0.00098757352679967
vn -0.8987940549850464 0.43837115168571472 0
vn -0.9108574986457824 0.4127041697502136 0.00372906634584069
vn -0.8128410577774048 0.58247363567352296 0.00372906634584069
vn -0.77023506164550784 0.63776010274887088 0
vn -0.68359196186065672 0.72986370325088496 0.00098757352679967
vn -0.63798248767852784 0.77005088329315184 0
vn -0.71038776636123656 0.70380884408950808 0.00151123444084078
vn -0.65275913476943968 0.7575643062591552 -0.00136275601107627
vn -0.72387087345123296 0.68993544578552248 0
vn -0.71038860082626344 0.70380967855453488 0
vn -0.8290375471115112 0.55919289588928224 0
vn -0.9374340176582336 0.34816303849220276 0
vn -0.98244947195053104 0.18652386963367464 -0.00136275601107627
vn 0.84804809093475344 -0.52991926670074464 0
vn 0.7475083470344544 -0.6642524600028992 0
vn 0.56999677419662472 -0.82164692878723152 0
vn 0.1993679404258728 -0.97992467880249024 0
vn 0.03271908313035965 -0.99946457147598272 0
vn -0.13485093414783478 -0.9908658862113952 0
vn -0.36447051167488096 -0.93121492862701424 0
vn -0.70246368646621704 -0.71171963214874264 0
vn -0.8115739822387696 -0.58424967527389528 0
vn -0.89783555269241328 -0.4403309524059296 0
vn -0.97629600763320928 -0.21643961966037752 0
vn -0.39273843169212344 0.91965019702911376 0
vn 0.00218165991827845 0.99999761581420896 0
vn 0.16934950649738312 0.98555606603622432 0
vn 0.33174952864646912 0.94336748123168944 0
vn 0.5446390509605408 0.83867055177688592 0
vn 0.83146959543228144 0.55557024478912352 0
vn 0.9126559495925904 0.40872871875762936 0
vn 0.96814763545989984 0.25038000941276552 0
vn 0.99988341331481936 0.01527103688567876 0
vn 0.92471224069595344 -0.38066694140434264 0
vn -0.20216961205005644 0.11672268062829972 -0.97236990928649904
vn -0.06794756650924683 0.03922954946756363 -0.9969173073768616
vn -0.45249703526496888 0.26124927401542664 -0.85264015197753904
vn -0.33141356706619264 0.19134171307086944 -0.92387950420379632
vn -0.6123724579811096 0.3535533845424652 -0.7071067690849304
vn -0.77163428068161008 0.4455032646656036 -0.45399048924446104
vn -0.85536319017410272 0.4938441812992096 -0.15643446147441864
vn -0.86602538824081424 0.5 0
vn -0.6883545517921448 -0.72537440061569216 0
vn -0.56640625 -0.82412618398666384 0
vn -0.8788171410560608 -0.47715875506401064 0
vn -0.79335331916809088 -0.60876142978668216 0
vn -0.02617694810032844 0.99965733289718624 0
vn 0.13052618503570556 0.99144488573074336 0
vn 0.28401535749435424 0.9588197469711304 0
vn 0.43051108717918392 0.90258526802062992 0
vn -0.20216961205005644 0.11672268062829972 0.97236990928649904
vn -0.06794756650924683 0.03922954946756363 0.9969173073768616
vn -0.45249703526496888 0.26124927401542664 0.85264015197753904
vn -0.33141356706619264 0.19134171307086944 0.92387950420379632
vn -0.6123724579811096 0.3535533845424652 0.7071067690849304
vn -0.77163428068161008 0.4455032646656036 0.45399048924446104
vn -0.85536319017410272 0.4938441812992096 0.15643446147441864
vn -0.4039074182510376 0.32707777619361876 0.854329526424408
vn -0.28306618332862856 0.43588370084762576 0.854329526424408
vn -0.13451646268367768 0.50202232599258424 0.854329526424408
vn 0.02720065601170063 0.51901942491531376 0.854329526424408
vn 0.18625518679618836 0.48521137237548832 0.854329526424408
vn 0.32707777619361876 0.4039074182510376 0.854329526424408
vn 0.43588370084762576 0.28306618332862856 0.854329526424408
vn 0.50202232599258424 0.13451646268367768 0.854329526424408
vn 0.51901942491531376 -0.02720065601170063 0.854329526424408
vn 0.48521137237548832 -0.18625518679618836 0.854329526424408
vn 0.4039074182510376 -0.32707777619361876 0.854329526424408
vn 0.28306618332862856 -0.43588370084762576 0.854329526424408
vn 0.13451646268367768 -0.50202232599258424 0.854329526424408
vn -0.02720065601170063 -0.51901942491531376 0.854329526424408
vn -0.18625518679618836 -0.48521137237548832 0.854329526424408
vn -0.32707777619361876 -0.4039074182510376 0.854329526424408
vn -0.43588370084762576 -0.28306618332862856 0.854329526424408
vn -0.50202232599258424 -0.13451646268367768 0.854329526424408
vn -0.51901942491531376 0.02720065601170063 0.854329526424408
vn -0.48521137237548832 0.18625518679618836 0.854329526424408
# 494 vertex normals

g obj_31613033
s 1
f 1//1 2//1 3//1
f 3//1 4//1 1//1
f 4//1 5//1 1//1
f 5//1 6//1 1//1
f 6//1 7//1 1//1
f 7//1 8//1 1//1
f 8//1 9//1 1//1
f 9//1 10//1 1//1
f 10//1 11//1 1//1
f 11//1 12//1 1//1
f 12//1 13//1 1//1
f 13//1 14//1 1//1
f 14//1 15//1 1//1
f 15//1 16//1 1//1
f 16//1 17//1 1//1
f 17//1 18//1 1//1
f 18//1 19//1 1//1
f 19//1 20//1 1//1
f 20//1 21//1 1//1
f 21//1 2//1 1//1
f 21//2 22//2 23//2
f 2//3 23//3 24//3
f 3//4 24//4 25//4
f 4//5 25//5 26//5
f 5//6 26//6 27//6
f 6//7 27//7 28//7
f 7//8 28//8 29//8
f 8//9 29//9 30//9
f 9//10 30//10 31//10
f 10//11 31//11 32//11
f 11//12 32//12 33//12
f 12//13 33//13 34//13
f 13//14 34//14 35//14
f 14//15 35//15 36//15
f 15//16 36//16 37//16
f 16//17 37//17 38//17
f 17//18 38//18 39//18
f 18//19 39//19 40//19
f 19//20 40//20 41//20
f 20//21 41//21 22//21
f 22//21 21//21 20//21
f 41//20 20//20 19//20
f 40//19 19//19 18//19
f 39//18 18//18 17//18
f 38//17 17//17 16//17
f 37//16 16//16 15//16
f 36//15 15//15 14//15
f 35//14 14//14 13//14
f 34//13 13//13 12//13
f 33//12 12//12 11//12
f 32//11 11//11 10//11
f 31//10 10//10 9//10
f 30//9 9//9 8//9
f 29//8 8//8 7//8
f 28//7 7//7 6//7
f 27//6 6//6 5//6
f 26//5 5//5 4//5
f 25//4 4//4 3//4
f 24//3 3//3 2//3
f 23//2 2//2 21//2
f 42//1 24//1 23//1
f 43//1 23//1 22//1
f 23//1 43//1 42//1
f 42//1 44//1 24//1
f 44//1 45//1 25//1
f 46//1 27//1 26//1
f 47//1 48//1 31//1
f 49//1 34//1 33//1
f 25//1 24//1 44//1
f 50//1 26//1 25//1
f 26//1 50//1 46//1
f 51//1 52//1 28//1
f 52//1 53//1 29//1
f 54//1 30//1 29//1
f 30//1 54//1 47//1
f 48//1 55//1 32//1
f 56//1 33//1 32//1
f 33//1 56//1 49//1
f 25//1 45//1 50//1
f 28//1 27//1 51//1
f 29//1 53//1 54//1
f 32//1 31//1 48//1
f 49//1 57//1 34//1
f 57//1 58//1 35//1
f 59//1 36//1 35//1
f 60//1 37//1 36//1
f 46//1 51//1 27//1
f 31//1 30//1 47//1
f 35//1 34//1 57//1
f 36//1 59//1 60//1
f 61//1 62//1 38//1
f 29//1 28//1 52//1
f 35//1 58//1 59//1
f 37//1 60//1 61//1
f 62//1 63//1 39//1
f 64//1 65//1 41//1
f 32//1 55//1 56//1
f 39//1 38//1 62//1
f 66//1 40//1 39//1
f 40//1 66//1 64//1
f 38//1 37//1 61//1
f 41//1 40//1 64//1
f 39//1 63//1 66//1
f 65//1 67//1 22//1
f 22//1 41//1 65//1
f 22//1 67//1 43//1
f 67//22 68//22 69//22
f 43//23 69//23 70//23
f 42//24 70//24 71//24
f 44//25 71//25 72//25
f 45//26 72//26 73//26
f 50//27 73//27 74//27
f 46//28 74//28 75//28
f 51//29 75//29 76//29
f 52//30 76//30 77//30
f 53//31 77//31 78//31
f 54//32 78//32 79//32
f 47//33 79//33 80//33
f 48//34 80//34 81//34
f 55//35 81//35 82//35
f 56//36 82//36 83//36
f 49//37 83//37 84//37
f 57//38 84//38 85//38
f 58//39 85//39 86//39
f 59//40 86//40 87//40
f 60//41 87//41 88//41
f 61//42 88//42 89//42
f 62//43 89//43 90//43
f 63//44 90//44 91//44
f 66//45 91//45 92//45
f 64//46 92//46 93//46
f 65//47 93//47 68//47
f 68//47 67//47 65//47
f 93//46 65//46 64//46
f 92//45 64//45 66//45
f 91//44 66//44 63//44
f 90//43 63//43 62//43
f 89//42 62//42 61//42
f 88//41 61//41 60//41
f 87//40 60//40 59//40
f 86//39 59//39 58//39
f 85//38 58//38 57//38
f 84//37 57//37 49//37
f 83//36 49//36 56//36
f 82//35 56//35 55//35
f 81//34 55//34 48//34
f 80//33 48//33 47//33
f 79//32 47//32 54//32
f 78//31 54//31 53//31
f 77//30 53//30 52//30
f 76//29 52//29 51//29
f 75//28 51//28 46//28
f 74//27 46//27 50//27
f 73//26 50//26 45//26
f 72//25 45//25 44//25
f 71//24 44//24 42//24
f 70//23 42//23 43//23
f 69//22 43//22 67//22
f 94//48 93//48 92//48
f 92//48 91//48 94//48
f 91//48 90//48 94//48
f 90//48 89//48 94//48
f 89//48 88//48 94//48
f 88//48 87//48 94//48
f 87//48 86//48 94//48
f 86//48 85//48 94//48
f 85//48 84//48 94//48
f 84//48 83//48 94//48
f 83//48 82//48 94//48
f 82//48 81//48 94//48
f 81//48 80//48 94//48
f 80//48 79//48 94//48
f 79//48 78//48 94//48
f 78//48 77//48 94//48
f 77//48 76//48 94//48
f 76//48 75//48 94//48
f 75//48 74//48 94//48
f 74//48 73//48 94//48
f 73//48 72//48 94//48
f 72//48 71//48 94//48
f 71//48 70//48 94//48
f 70//48 69//48 94//48
f 69//48 68//48 94//48
f 68//48 93//48 94//48
f 95//48 96//48 97//48
f 97//48 98//48 95//48
f 98//48 99//48 95//48
f 99//48 100//48 95//48
f 100//48 101//48 95//48
f 101//48 102//48 95//48
f 102//48 103//48 95//48
f 103//48 104//48 95//48
f 104//48 105//48 95//48
f 105//48 106//48 95//48
f 106//48 107//48 95//48
f 107//48 108//48 95//48
f 108//48 109//48 95//48
f 109//48 110//48 95//48
f 110//48 111//48 95//48
f 111//48 112//48 95//48
f 112//48 113//48 95//48
f 113//48 114//48 95//48
f 114//48 115//48 95//48
f 115//48 116//48 95//48
f 116//48 117//48 95//48
f 117//48 118//48 95//48
f 118//48 119//48 95//48
f 119//48 120//48 95//48
f 120//48 121//48 95//48
f 121//48 122//48 95//48
f 122//48 123//48 95//48
f 123//48 124//48 95//48
f 124//48 125//48 95//48
f 125//48 126//48 95//48
f 126//48 127//48 95//48
f 127//48 128//48 95//48
f 128//48 129//48 95//48
f 129//48 130//48 95//48
f 130//48 131//48 95//48
f 131//48 132//48 95//48
f 132//48 133//48 95//48
f 133//48 134//48 95//48
f 134//48 135//48 95//48
f 135//48 136//48 95//48
f 136//48 137//48 95//48
f 137//48 138//48 95//48
f 138//48 139//48 95//48
f 139//48 140//48 95//48
f 140//48 96//48 95//48
f 141//49 142//49 143//49
f 144//50 145//50 146//50
f 145//51 143//51 146//51
f 144//52 147//52 148//52
f 148//53 149//53 144//53
f 149//54 150//54 151//54
f 152//55 153//55 154//55
f 153//56 151//56 154//56
f 152//57 155//57 156//57
f 156//58 157//58 152//58
f 157//59 158//59 159//59
f 160//60 161//60 162//60
f 161//61 159//61 162//61
f 163//62 160//62 164//62
f 160//63 165//63 164//63
f 163//64 166//64 167//64
f 167//65 168//65 163//65
f 168//66 169//66 170//66
f 171//67 172//67 173//67
f 172//68 170//68 173//68
f 171//69 174//69 175//69
f 175//70 176//70 171//70
f 176//71 177//71 178//71
f 179//72 180//72 181//72
f 180//73 178//73 181//73
f 182//74 179//74 183//74
f 179//75 184//75 183//75
f 182//76 185//76 186//76
f 186//77 187//77 182//77
f 187//78 188//78 189//78
f 190//79 191//79 192//79
f 191//80 189//80 192//80
f 190//81 193//81 194//81
f 194//82 195//82 190//82
f 195//83 196//83 197//83
f 198//84 199//84 200//84
f 199//85 197//85 200//85
f 198//86 201//86 202//86
f 202//87 203//87 198//87
f 203//88 204//88 205//88
f 205//89 206//89 203//89
f 206//90 207//90 208//90
f 209//91 210//91 211//91
f 210//92 208//92 211//92
f 209//93 212//93 213//93
f 213//94 214//94 209//94
f 214//95 215//95 216//95
f 217//96 218//96 219//96
f 218//97 216//97 219//97
f 217//98 220//98 221//98
f 221//99 222//99 217//99
f 222//100 223//100 224//100
f 224//101 225//101 222//101
f 225//102 226//102 227//102
f 228//103 229//103 230//103
f 229//104 227//104 230//104
f 228//105 231//105 232//105
f 232//106 233//106 228//106
f 233//107 234//107 235//107
f 236//108 237//108 238//108
f 237//109 235//109 238//109
f 236//110 239//110 240//110
f 240//111 241//111 236//111
f 241//112 242//112 243//112
f 243//113 244//113 241//113
f 244//114 245//114 246//114
f 247//115 248//115 249//115
f 248//116 246//116 249//116
f 247//117 250//117 251//117
f 251//118 252//118 247//118
f 252//119 253//119 254//119
f 255//120 256//120 257//120
f 256//121 254//121 257//121
f 255//122 258//122 259//122
f 259//123 260//123 255//123
f 260//124 261//124 142//124
f 262//125 141//125 145//125
f 263//126 145//126 144//126
f 264//127 144//127 149//127
f 265//128 149//128 153//128
f 266//129 153//129 152//129
f 267//130 152//130 157//130
f 268//131 157//131 161//131
f 269//132 161//132 160//132
f 270//133 160//133 163//133
f 271//134 163//134 168//134
f 272//135 168//135 172//135
f 273//136 172//136 171//136
f 274//137 171//137 176//137
f 275//138 176//138 180//138
f 276//139 180//139 179//139
f 277//140 179//140 182//140
f 278//141 182//141 187//141
f 279//142 187//142 191//142
f 280//143 191//143 190//143
f 281//144 190//144 195//144
f 282//145 195//145 199//145
f 283//146 199//146 198//146
f 284//147 198//147 203//147
f 285//148 203//148 206//148
f 286//149 206//149 210//149
f 287//150 210//150 209//150
f 288//151 209//151 214//151
f 289//152 214//152 218//152
f 290//153 218//153 217//153
f 291//154 217//154 222//154
f 292//155 222//155 225//155
f 293//156 225//156 229//156
f 294//157 229//157 228//157
f 295//158 228//158 233//158
f 296//159 233//159 237//159
f 297//160 237//160 236//160
f 298//161 236//161 241//161
f 299//162 241//162 244//162
f 300//163 244//163 248//163
f 301//164 248//164 247//164
f 302//165 247//165 252//165
f 303//166 252//166 256//166
f 304//167 256//167 255//167
f 305//168 255//168 260//168
f 306//169 260//169 141//169
f 307//170 262//170 263//170
f 308//171 263//171 264//171
f 309//172 264//172 265//172
f 310//173 265//173 266//173
f 311//174 266//174 267//174
f 312//175 267//175 268//175
f 313//176 268//176 269//176
f 314//177 269//177 270//177
f 315//178 270//178 271//178
f 316//179 271//179 272//179
f 317//180 272//180 273//180
f 318//181 273//181 274//181
f 319//182 274//182 275//182
f 320//183 275//183 276//183
f 321//184 276//184 277//184
f 322//185 277//185 278//185
f 323//186 278//186 279//186
f 324//187 279//187 280//187
f 325//188 280//188 281//188
f 326//189 281//189 282//189
f 327//190 282//190 283//190
f 328//191 283//191 284//191
f 329//192 284//192 285//192
f 330//193 285//193 286//193
f 331//194 286//194 287//194
f 332//195 287//195 288//195
f 333//196 288//196 289//196
f 334//197 289//197 290//197
f 335//198 290//198 291//198
f 336//199 291//199 292//199
f 337//200 292//200 293//200
f 338//201 293//201 294//201
f 339//202 294//202 295//202
f 340//203 295//203 296//203
f 341//204 296//204 297//204
f 342//205 297//205 298//205
f 343//206 298//206 299//206
f 344//207 299//207 300//207
f 345//208 300//208 301//208
f 346//209 301//209 302//209
f 347//210 302//210 303//210
f 348//211 303//211 304//211
f 349//212 304//212 305//212
f 350//213 305//213 306//213
f 351//214 306//214 262//214
f 352//215 307//215 308//215
f 353//216 308//216 309//216
f 354//217 309//217 310//217
f 355//218 310//218 311//218
f 356//219 311//219 312//219
f 357//220 312//220 313//220
f 358//221 313//221 314//221
f 359//222 314//222 315//222
f 360//223 315//223 316//223
f 361//224 316//224 317//224
f 362//225 317//225 318//225
f 363//226 318//226 319//226
f 364//227 319//227 320//227
f 365//228 320//228 321//228
f 366//229 321//229 322//229
f 367//230 322//230 323//230
f 368//231 323//231 324//231
f 369//232 324//232 325//232
f 370//233 325//233 326//233
f 371//234 326//234 327//234
f 372//235 327//235 328//235
f 373//236 328//236 329//236
f 374//237 329//237 330//237
f 375//238 330//238 331//238
f 376//239 331//239 332//239
f 377//240 332//240 333//240
f 378//241 333//241 334//241
f 379//242 334//242 335//242
f 380//243 335//243 336//243
f 381//244 336//244 337//244
f 382//245 337//245 338//245
f 383//246 338//246 339//246
f 384//247 339//247 340//247
f 385//248 340//248 341//248
f 386//249 341//249 342//249
f 387//250 342//250 343//250
f 388//251 343//251 344//251
f 389//252 344//252 345//252
f 390//253 345//253 346//253
f 391//254 346//254 347//254
f 392//255 347//255 348//255
f 393//256 348//256 349//256
f 394//257 349//257 350//257
f 395//258 350//258 351//258
f 396//259 351//259 307//259
f 140//260 352//260 353//260
f 96//261 353//261 354//261
f 97//262 354//262 355//262
f 98//263 355//263 356//263
f 99//264 356//264 357//264
f 100//265 357//265 358//265
f 101//266 358//266 359//266
f 102//267 359//267 360//267
f 103//268 360//268 361//268
f 104//269 361//269 362//269
f 105//270 362//270 363//270
f 106//271 363//271 364//271
f 107//272 364//272 365//272
f 108//273 365//273 366//273
f 109//274 366//274 367//274
f 110//275 367//275 368//275
f 111//276 368//276 369//276
f 112//277 369//277 370//277
f 113//278 370//278 371//278
f 114//279 371//279 372//279
f 115//280 372//280 373//280
f 116//281 373//281 374//281
f 117//282 374//282 375//282
f 118//283 375//283 376//283
f 119//284 376//284 377//284
f 120//285 377//285 378//285
f 121//286 378//286 379//286
f 122//287 379//287 380//287
f 123//288 380//288 381//288
f 124//289 381//289 382//289
f 125//290 382//290 383//290
f 126//291 383//291 384//291
f 127//292 384//292 385//292
f 128//293 385//293 386//293
f 129//294 386//294 387//294
f 130//295 387//295 388//295
f 131//296 388//296 389//296
f 132//297 389//297 390//297
f 133//298 390//298 391//298
f 134//299 391//299 392//299
f 135//300 392//300 393//300
f 136//301 393//301 394//301
f 137//302 394//302 395//302
f 138//303 395//303 396//303
f 139//304 396//304 352//304
f 352//304 140//304 139//304
f 396//303 139//303 138//303
f 395//302 138//302 137//302
f 394//301 137//301 136//301
f 393//300 136//300 135//300
f 392//299 135//299 134//299
f 391//298 134//298 133//298
f 390//297 133//297 132//297
f 389//296 132//296 131//296
f 388//295 131//295 130//295
f 387//294 130//294 129//294
f 386//293 129//293 128//293
f 385//292 128//292 127//292
f 384//291 127//291 126//291
f 383//290 126//290 125//290
f 382//289 125//289 124//289
f 381//288 124//288 123//288
f 380//287 123//287 122//287
f 379//286 122//286 121//286
f 378//285 121//285 120//285
f 377//284 120//284 119//284
f 376//283 119//283 118//283
f 375//282 118//282 117//282
f 374//281 117//281 116//281
f 373//280 116//280 115//280
f 372//279 115//279 114//279
f 371//278 114//278 113//278
f 370//277 113//277 112//277
f 369//276 112//276 111//276
f 368//275 111//275 110//275
f 367//274 110//274 109//274
f 366//273 109//273 108//273
f 365//272 108//272 107//272
f 364//271 107//271 106//271
f 363//270 106//270 105//270
f 362//269 105//269 104//269
f 361//268 104//268 103//268
f 360//267 103//267 102//267
f 359//266 102//266 101//266
f 358//265 101//265 100//265
f 357//264 100//264 99//264
f 356//263 99//263 98//263
f 355//262 98//262 97//262
f 354//261 97//261 96//261
f 353//260 96//260 140//260
f 307//259 352//259 396//259
f 351//258 396//258 395//258
f 350//257 395//257 394//257
f 349//256 394//256 393//256
f 348//255 393//255 392//255
f 347//254 392//254 391//254
f 346//253 391//253 390//253
f 345//252 390//252 389//252
f 344//251 389//251 388//251
f 343//250 388//250 387//250
f 342//249 387//249 386//249
f 341//248 386//248 385//248
f 340//247 385//247 384//247
f 339//246 384//246 383//246
f 338//245 383//245 382//245
f 337//244 382//244 381//244
f 336//243 381//243 380//243
f 335//242 380//242 379//242
f 334//241 379//241 378//241
f 333//240 378//240 377//240
f 332//239 377//239 376//239
f 331//238 376//238 375//238
f 330//237 375//237 374//237
f 329//236 374//236 373//236
f 328//235 373//235 372//235
f 327//234 372//234 371//234
f 326//233 371//233 370//233
f 325//232 370//232 369//232
f 324//231 369//231 368//231
f 323//230 368//230 367//230
f 322//229 367//229 366//229
f 321//228 366//228 365//228
f 320//227 365//227 364//227
f 319//226 364//226 363//226
f 318//225 363//225 362//225
f 317//224 362//224 361//224
f 316//223 361//223 360//223
f 315//222 360//222 359//222
f 314//221 359//221 358//221
f 313//220 358//220 357//220
f 312//219 357//219 356//219
f 311//218 356//218 355//218
f 310//217 355//217 354//217
f 309//216 354//216 353//216
f 308//215 353//215 352//215
f 262//214 307//214 351//214
f 306//213 351//213 350//213
f 305//212 350//212 349//212
f 304//211 349//211 348//211
f 303//210 348//210 347//210
f 302//209 347//209 346//209
f 301//208 346//208 345//208
f 300//207 345//207 344//207
f 299//206 344//206 343//206
f 298//205 343//205 342//205
f 297//204 342//204 341//204
f 296//203 341//203 340//203
f 295//202 340//202 339//202
f 294//201 339//201 338//201
f 293//200 338//200 337//200
f 292//199 337//199 336//199
f 291//198 336//198 335//198
f 290//197 335//197 334//197
f 289//196 334//196 333//196
f 288//195 333//195 332//195
f 287//194 332//194 331//194
f 286//193 331//193 330//193
f 285//192 330//192 329//192
f 284//191 329//191 328//191
f 283//190 328//190 327//190
f 282//189 327//189 326//189
f 281//188 326//188 325//188
f 280//187 325//187 324//187
f 279//186 324//186 323//186
f 278//185 323//185 322//185
f 277//184 322//184 321//184
f 276//183 321//183 320//183
f 275//182 320//182 319//182
f 274//181 319//181 318//181
f 273//180 318//180 317//180
f 272//179 317//179 316//179
f 271//178 316//178 315//178
f 270//177 315//177 314//177
f 269//176 314//176 313//176
f 268//175 313//175 312//175
f 267//174 312//174 311//174
f 266//173 311//173 310//173
f 265//172 310//172 309//172
f 264//171 309//171 308//171
f 263//170 308//170 307//170
f 141//169 262//169 306//169
f 260//168 306//168 305//168
f 255//167 305//167 304//167
f 256//166 304//166 303//166
f 252//165 303//165 302//165
f 247//164 302//164 301//164
f 248//163 301//163 300//163
f 244//162 300//162 299//162
f 241//161 299//161 298//161
f 236//160 298//160 297//160
f 237//159 297//159 296//159
f 233//158 296//158 295//158
f 228//157 295//157 294//157
f 229//156 294//156 293//156
f 225//155 293//155 292//155
f 222//154 292//154 291//154
f 217//153 291//153 290//153
f 218//152 290//152 289//152
f 214//151 289//151 288//151
f 209//150 288//150 287//150
f 210//149 287//149 286//149
f 206//148 286//148 285//148
f 203//147 285//147 284//147
f 198//146 284//146 283//146
f 199//145 283//145 282//145
f 195//144 282//144 281//144
f 190//143 281//143 280//143
f 191//142 280//142 279//142
f 187//141 279//141 278//141
f 182//140 278//140 277//140
f 179//139 277//139 276//139
f 180//138 276//138 275//138
f 176//137 275//137 274//137
f 171//136 274//136 273//136
f 172//135 273//135 272//135
f 168//134 272//134 271//134
f 163//133 271//133 270//133
f 160//132 270//132 269//132
f 161//131 269//131 268//131
f 157//130 268//130 267//130
f 152//129 267//129 266//129
f 153//128 266//128 265//128
f 149//127 265//127 264//127
f 144//126 264//126 263//126
f 145//125 263//125 262//125
f 142//124 141//124 260//124
f 259//305 261//305 260//305
f 257//306 258//306 255//306
f 254//119 256//119 252//119
f 251//307 253//307 252//307
f 249//308 250//308 247//308
f 246//114 248//114 244//114
f 243//309 245//309 244//309
f 240//310 242//310 241//310
f 238//311 239//311 236//311
f 235//107 237//107 233//107
f 232//312 234//312 233//312
f 230//313 231//313 228//313
f 227//102 229//102 225//102
f 224//314 226//314 225//314
f 221//315 223//315 222//315
f 219//316 220//316 217//316
f 216//95 218//95 214//95
f 213//317 215//317 214//317
f 211//318 212//318 209//318
f 208//90 210//90 206//90
f 205//319 207//319 206//319
f 202//320 204//320 203//320
f 200//321 201//321 198//321
f 197//83 199//83 195//83
f 194//322 196//322 195//322
f 192//323 193//323 190//323
f 189//78 191//78 187//78
f 186//324 188//324 187//324
f 183//325 185//325 182//325
f 181//326 184//326 179//326
f 178//71 180//71 176//71
f 175//327 177//327 176//327
f 173//328 174//328 171//328
f 170//66 172//66 168//66
f 167//329 169//329 168//329
f 164//330 166//330 163//330
f 162//331 165//331 160//331
f 159//59 161//59 157//59
f 156//332 158//332 157//332
f 154//333 155//333 152//333
f 151//54 153//54 149//54
f 148//334 150//334 149//334
f 146//335 147//335 144//335
f 143//49 145//49 141//49
f 397//336 398//336 201//336
f 398//337 202//337 201//337
f 399//338 197//338 196//338
f 397//339 200//339 197//339
f 197//340 399//340 397//340
f 196//341 194//341 399//341
f 400//342 399//342 193//342
f 399//343 194//343 193//343
f 401//344 400//344 189//344
f 189//345 188//345 401//345
f 400//346 192//346 189//346
f 401//347 186//347 185//347
f 185//348 402//348 401//348
f 403//349 402//349 184//349
f 402//350 183//350 184//350
f 404//351 178//351 177//351
f 403//352 181//352 178//352
f 178//353 404//353 403//353
f 177//354 175//354 404//354
f 405//355 404//355 174//355
f 404//356 175//356 174//356
f 406//357 405//357 170//357
f 170//358 169//358 406//358
f 405//359 173//359 170//359
f 406//360 167//360 166//360
f 166//361 407//361 406//361
f 408//362 407//362 165//362
f 407//363 164//363 165//363
f 409//364 159//364 158//364
f 408//365 162//365 159//365
f 159//366 409//366 408//366
f 158//367 156//367 409//367
f 410//368 409//368 155//368
f 409//369 156//369 155//369
f 411//370 151//370 150//370
f 410//371 154//371 151//371
f 151//372 411//372 410//372
f 150//373 148//373 411//373
f 412//374 254//374 253//374
f 413//375 257//375 254//375
f 254//376 412//376 413//376
f 253//377 251//377 412//377
f 412//378 251//378 250//378
f 250//379 414//379 412//379
f 415//380 414//380 246//380
f 246//381 245//381 415//381
f 414//382 249//382 246//382
f 415//383 243//383 242//383
f 242//384 416//384 415//384
f 417//385 416//385 239//385
f 416//386 240//386 239//386
f 418//387 235//387 234//387
f 417//388 238//388 235//388
f 235//389 418//389 417//389
f 234//390 232//390 418//390
f 418//391 232//391 231//391
f 231//392 419//392 418//392
f 420//393 419//393 227//393
f 227//394 226//394 420//394
f 419//395 230//395 227//395
f 420//396 224//396 223//396
f 223//397 421//397 420//397
f 422//398 421//398 220//398
f 421//399 221//399 220//399
f 423//400 216//400 215//400
f 422//401 219//401 216//401
f 216//402 423//402 422//402
f 215//403 213//403 423//403
f 423//404 213//404 212//404
f 212//405 424//405 423//405
f 425//406 424//406 208//406
f 208//407 207//407 425//407
f 424//408 211//408 208//408
f 425//409 205//409 204//409
f 204//410 398//410 425//410
f 426//411 427//411 428//411
f 429//412 428//412 430//412
f 431//413 259//413 258//413
f 258//414 432//414 431//414
f 257//415 413//415 433//415
f 433//415 432//415 257//415
f 434//416 430//416 433//416
f 433//417 413//417 434//417
f 435//418 142//418 261//418
f 261//419 431//419 435//419
f 435//420 436//420 143//420
f 436//421 146//421 143//421
f 426//422 411//422 437//422
f 148//423 438//423 437//423
f 436//424 438//424 147//424
f 438//425 148//425 147//425
f 147//426 146//426 436//426
f 437//423 411//423 148//423
f 437//427 427//427 426//427
f 143//428 142//428 435//428
f 261//429 259//429 431//429
f 258//430 257//430 432//430
f 430//412 434//412 429//412
f 428//411 429//411 426//411
f 204//431 202//431 398//431
f 207//432 205//432 425//432
f 212//433 211//433 424//433
f 220//434 219//434 422//434
f 223//435 221//435 421//435
f 226//436 224//436 420//436
f 231//437 230//437 419//437
f 239//438 238//438 417//438
f 242//439 240//439 416//439
f 245//440 243//440 415//440
f 250//441 249//441 414//441
f 155//442 154//442 410//442
f 165//443 162//443 408//443
f 166//444 164//444 407//444
f 169//445 167//445 406//445
f 174//446 173//446 405//446
f 184//447 181//447 403//447
f 185//448 183//448 402//448
f 188//449 186//449 401//449
f 193//450 192//450 400//450
f 201//451 200//451 397//451
f 432//41 433//41 439//41
f 439//41 440//41 432//41
f 439//1 430//1 428//1
f 441//1 428//1 427//1
f 439//1 433//1 430//1
f 428//1 441//1 439//1
f 427//1 437//1 441//1
f 437//28 438//28 442//28
f 442//28 441//28 437//28
f 440//48 442//48 435//48
f 435//48 431//48 440//48
f 442//48 438//48 436//48
f 436//48 435//48 442//48
f 431//48 432//48 440//48
f 443//452 444//452 445//452
f 443//453 440//453 444//453
f 445//452 446//452 443//452
f 447//454 448//454 449//454
f 447//455 445//455 448//455
f 449//454 450//454 447//454
f 450//456 449//456 451//456
f 451//457 452//457 453//457
f 453//458 452//458 454//458
f 454//458 455//458 453//458
f 453//457 456//457 451//457
f 451//456 456//456 450//456
f 447//455 446//455 445//455
f 443//453 442//453 440//453
f 455//459 454//459 457//459
f 457//459 458//459 455//459
f 444//460 459//460 460//460
f 460//460 445//460 444//460
f 440//461 439//461 459//461
f 448//462 461//462 462//462
f 448//463 460//463 461//463
f 462//462 449//462 448//462
f 462//14 463//14 451//14
f 451//13 463//13 464//13
f 464//12 457//12 454//12
f 454//12 452//12 464//12
f 464//13 452//13 451//13
f 451//14 449//14 462//14
f 448//463 445//463 460//463
f 444//461 440//461 459//461
f 465//11 453//11 455//11
f 456//10 453//10 465//10
f 466//9 450//9 456//9
f 467//464 447//464 450//464
f 450//464 466//464 467//464
f 468//465 446//465 447//465
f 469//466 443//466 446//466
f 469//467 442//467 443//467
f 446//466 468//466 469//466
f 469//467 441//467 442//467
f 467//465 468//465 447//465
f 456//9 470//9 466//9
f 465//10 470//10 456//10
f 455//11 458//11 465//11
f 469//468 468//468 460//468
f 460//468 459//468 469//468
f 439//469 441//469 469//469
f 461//470 467//470 466//470
f 466//470 462//470 461//470
f 460//471 468//471 467//471
f 462//472 466//472 470//472
f 463//473 470//473 465//473
f 464//474 465//474 458//474
f 458//474 457//474 464//474
f 465//473 464//473 463//473
f 470//472 463//472 462//472
f 461//471 460//471 467//471
f 459//469 439//469 469//469
f 471//1 472//1 409//1
f 473//1 474//1 475//1
f 409//1 410//1 471//1
f 471//1 426//1 476//1
f 475//1 477//1 473//1
f 410//1 411//1 471//1
f 426//1 478//1 476//1
f 473//1 479//1 474//1
f 476//1 480//1 471//1
f 481//1 482//1 434//1
f 483//1 484//1 485//1
f 475//1 486//1 477//1
f 487//1 488//1 405//1
f 426//1 489//1 478//1
f 426//1 429//1 490//1
f 434//1 413//1 481//1
f 491//1 481//1 413//1
f 492//1 491//1 412//1
f 414//1 493//1 486//1
f 485//1 398//1 483//1
f 484//1 483//1 474//1
f 488//1 494//1 404//1
f 405//1 406//1 487//1
f 490//1 489//1 426//1
f 429//1 495//1 496//1
f 413//1 412//1 491//1
f 486//1 492//1 414//1
f 479//1 484//1 474//1
f 497//1 400//1 498//1
f 404//1 494//1 499//1
f 406//1 407//1 487//1
f 496//1 490//1 429//1
f 476//1 498//1 500//1
f 501//1 502//1 423//1
f 503//1 501//1 425//1
f 412//1 414//1 492//1
f 486//1 493//1 477//1
f 493//1 415//1 416//1
f 504//1 417//1 418//1
f 400//1 505//1 498//1
f 403//1 499//1 506//1
f 404//1 405//1 488//1
f 472//1 487//1 407//1
f 476//1 507//1 480//1
f 500//1 508//1 476//1
f 502//1 509//1 422//1
f 423//1 424//1 501//1
f 398//1 510//1 503//1
f 485//1 510//1 398//1
f 493//1 414//1 415//1
f 504//1 416//1 417//1
f 400//1 511//1 505//1
f 402//1 403//1 512//1
f 499//1 403//1 404//1
f 407//1 408//1 472//1
f 508//1 507//1 476//1
f 434//1 513//1 495//1
f 424//1 425//1 501//1
f 482//1 513//1 434//1
f 418//1 514//1 504//1
f 514//1 418//1 419//1
f 419//1 420//1 515//1
f 420//1 516//1 517//1
f 400//1 518//1 511//1
f 498//1 519//1 520//1
f 402//1 521//1 522//1
f 512//1 523//1 402//1
f 408//1 409//1 472//1
f 495//1 429//1 434//1
f 425//1 398//1 503//1
f 419//1 524//1 514//1
f 517//1 515//1 420//1
f 399//1 400//1 497//1
f 520//1 525//1 498//1
f 498//1 476//1 526//1
f 522//1 401//1 402//1
f 506//1 512//1 403//1
f 422//1 423//1 502//1
f 515//1 524//1 419//1
f 483//1 397//1 399//1
f 526//1 519//1 498//1
f 518//1 400//1 401//1
f 421//1 527//1 516//1
f 523//1 521//1 402//1
f 416//1 504//1 493//1
f 483//1 398//1 397//1
f 401//1 528//1 518//1
f 421//1 529//1 527//1
f 421//1 422//1 530//1
f 411//1 426//1 471//1
f 498//1 525//1 497//1
f 530//1 529//1 421//1
f 497//1 483//1 399//1
f 422//1 509//1 530//1
f 516//1 420//1 421//1
f 522//1 528//1 401//1
f 531//2 532//2 496//2
f 533//3 531//3 495//3
f 534//4 533//4 513//4
f 535//5 534//5 482//5
f 536//6 535//6 481//6
f 537//7 536//7 491//7
f 538//8 537//8 492//8
f 539//9 538//9 486//9
f 540//10 539//10 475//10
f 541//11 540//11 474//11
f 542//12 541//12 483//12
f 543//13 542//13 497//13
f 544//14 543//14 525//14
f 545//15 544//15 520//15
f 546//16 545//16 519//16
f 547//17 546//17 526//17
f 548//18 547//18 476//18
f 549//19 548//19 478//19
f 550//20 549//20 489//20
f 532//21 550//21 490//21
f 490//21 496//21 532//21
f 489//20 490//20 550//20
f 478//19 489//19 549//19
f 476//18 478//18 548//18
f 526//17 476//17 547//17
f 519//16 526//16 546//16
f 520//15 519//15 545//15
f 525//14 520//14 544//14
f 497//13 525//13 543//13
f 483//12 497//12 542//12
f 474//11 483//11 541//11
f 475//10 474//10 540//10
f 486//9 475//9 539//9
f 492//8 486//8 538//8
f 491//7 492//7 537//7
f 481//6 491//6 536//6
f 482//5 481//5 535//5
f 513//4 482//4 534//4
f 495//3 513//3 533//3
f 496//2 495//2 531//2
f 551//475 540//475 541//475
f 551//476 539//476 540//476
f 551//477 538//477 539//477
f 551//478 537//478 538//478
f 551//479 536//479 537//479
f 551//480 535//480 536//480
f 551//481 534//481 535//481
f 551//482 533//482 534//482
f 551//483 531//483 533//483
f 551//484 532//484 531//484
f 551//485 550//485 532//485
f 551//486 549//486 550//486
f 551//487 548//487 549//487
f 551//488 547//488 548//488
f 551//489 546//489 547//489
f 551//490 545//490 546//490
f 551//491 544//491 545//491
f 551//492 543//492 544//492
f 551//493 542//493 543//493
f 551//494 541//494 542//494
f 552//2 553//2 472//2
f 554//3 552//3 471//3
f 555//4 554//4 480//4
f 556//5 555//5 507//5
f 557//6 556//6 508//6
f 558//7 557//7 500//7
f 559//8 558//8 498//8
f 560//9 559//9 505//9
f 561//10 560//10 511//10
f 562//11 561//11 518//11
f 563//12 562//12 528//12
f 564//13 563//13 522//13
f 565//14 564//14 521//14
f 566//15 565//15 523//15
f 567//16 566//16 512//16
f 568//17 567//17 506//17
f 569//18 568//18 499//18
f 570//19 569//19 494//19
f 571//20 570//20 488//20
f 553//21 571//21 487//21
f 487//21 472//21 553//21
f 488//20 487//20 571//20
f 494//19 488//19 570//19
f 499//18 494//18 569//18
f 506//17 499//17 568//17
f 512//16 506//16 567//16
f 523//15 512//15 566//15
f 521//14 523//14 565//14
f 522//13 521//13 564//13
f 528//12 522//12 563//12
f 518//11 528//11 562//11
f 511//10 518//10 561//10
f 505//9 511//9 560//9
f 498//8 505//8 559//8
f 500//7 498//7 558//7
f 508//6 500//6 557//6
f 507//5 508//5 556//5
f 480//4 507//4 555//4
f 471//3 480//3 554//3
f 472//2 471//2 552//2
f 572//475 561//475 562//475
f 572//476 560//476 561//476
f 572//477 559//477 560//477
f 572//478 558//478 559//478
f 572//479 557//479 558//479
f 572//480 556//480 557//480
f 572//481 555//481 556//481
f 572//482 554//482 555//482
f 572//483 552//483 554//483
f 572//484 553//484 552//484
f 572//485 571//485 553//485
f 572//486 570//486 571//486
f 572//487 569//487 570//487
f 572//488 568//488 569//488
f 572//489 567//489 568//489
f 572//490 566//490 567//490
f 572//491 565//491 566//491
f 572//492 564//492 565//492
f 572//493 563//493 564//493
f 572//494 562//494 563//494
f 573//2 574//2 493//2
f 575//3 573//3 504//3
f 576//4 575//4 514//4
f 577//5 576//5 524//5
f 578//6 577//6 515//6
f 579//7 578//7 517//7
f 580//8 579//8 516//8
f 581//9 580//9 527//9
f 582//10 581//10 529//10
f 583//11 582//11 530//11
f 584//12 583//12 509//12
f 585//13 584//13 502//13
f 586//14 585//14 501//14
f 587//15 586//15 503//15
f 588//16 587//16 510//16
f 589//17 588//17 485//17
f 590//18 589//18 484//18
f 591//19 590//19 479//19
f 592//20 591//20 473//20
f 574//21 592//21 477//21
f 477//21 493//21 574//21
f 473//20 477//20 592//20
f 479//19 473//19 591//19
f 484//18 479//18 590//18
f 485//17 484//17 589//17
f 510//16 485//16 588//16
f 503//15 510//15 587//15
f 501//14 503//14 586//14
f 502//13 501//13 585//13
f 509//12 502//12 584//12
f 530//11 509//11 583//11
f 529//10 530//10 582//10
f 527//9 529//9 581//9
f 516//8 527//8 580//8
f 517//7 516//7 579//7
f 515//6 517//6 578//6
f 524//5 515//5 577//5
f 514//4 524//4 576//4
f 504//3 514//3 575//3
f 493//2 504//2 573//2
f 593//475 582//475 583//475
f 593//476 581//476 582//476
f 593//477 580//477 581//477
f 593//478 579//478 580//478
f 593//479 578//479 579//479
f 593//480 577//480 578//480
f 593//481 576//481 577//481
f 593//482 575//482 576//482
f 593//483 573//483 575//483
f 593//484 574//484 573//484
f 593//485 592//485 574//485
f 593//486 591//486 592//486
f 593//487 590//487 591//487
f 593//488 589//488 590//488
f 593//489 588//489 589//489
f 593//490 587//490 588//490
f 593//491 586//491 587//491
f 593//492 585//492 586//492
f 593//493 584//493 585//493
f 593//494 583//494 584//494
#1178 polygons

