# Aspose.3D Wavefront OBJ Exporter
# Copyright 2004-2023 Aspose Pty Ltd.
# File created: 06/30/2023 19:30:39


#
# object obj_17349067
#

v 5 -144.77999877929687504 52.18249893188476564
v 5.5197792053222656 -147.225372314453125 52.18249893188476564
v 4.73867893218994144 -147.26631164550781248 52.18249893188476564
v 3.9831583499908448 -147.0638580322265625 52.18249893188476564
v 3.32717347145080568 -146.63786315917968752 52.18249893188476564
v 2.83493638038635248 -146.029998779296875 52.18249893188476564
v 2.55463099479675296 -145.299774169921875 52.18249893188476564
v 2.51369524002075192 -144.5186767578125 52.18249893188476564
v 2.71613645553588864 -143.76315307617187504 52.18249893188476564
v 3.14213800430297852 -143.107177734375 52.18249893188476564
v 3.75 -142.61492919921875 52.18249893188476564
v 4.4802207946777344 -142.334625244140625 52.18249893188476564
v 5.2613210678100586 -142.293701171875 52.18249893188476564
v 6.01684141159057617 -142.49613952636718752 52.18249893188476564
v 6.6728262901306152 -142.92213439941406256 52.18249893188476564
v 7.16506338119506836 -143.52999877929687504 52.18249893188476564
v 7.445368766784668 -144.260223388671875 52.18249893188476564
v 7.48630475997924808 -145.04132080078125 52.18249893188476564
v 7.28386354446411132 -145.79684448242187504 52.18249893188476564
v 6.85786199569702144 -146.45281982421875 52.18249893188476564
v 6.25 -146.945068359375 52.18249893188476564
v 6.25 -146.945068359375 62.18249893188476564
v 6.85786199569702144 -146.45281982421875 62.18249893188476564
v 7.28386354446411132 -145.79684448242187504 62.18249893188476564
v 7.48630475997924808 -145.04132080078125 62.18249893188476564
v 7.445368766784668 -144.260223388671875 62.18249893188476564
v 7.16506338119506836 -143.52999877929687504 62.18249893188476564
v 6.6728262901306152 -142.92213439941406256 62.18249893188476564
v 6.01684141159057617 -142.49613952636718752 62.18249893188476564
v 5.2613210678100586 -142.293701171875 62.18249893188476564
v 4.4802207946777344 -142.334625244140625 62.18249893188476564
v 3.75 -142.61492919921875 62.18249893188476564
v 3.14213800430297852 -143.107177734375 62.18249893188476564
v 2.71613645553588864 -143.76315307617187504 62.18249893188476564
v 2.51369524002075192 -144.5186767578125 62.18249893188476564
v 2.55463099479675296 -145.299774169921875 62.18249893188476564
v 2.83493638038635248 -146.029998779296875 62.18249893188476564
v 3.32717347145080568 -146.63786315917968752 62.18249893188476564
v 3.9831583499908448 -147.0638580322265625 62.18249893188476564
v 4.73867893218994144 -147.26631164550781248 62.18249893188476564
v 5.5197792053222656 -147.225372314453125 62.18249893188476564
v 11.08154010772705078 -141.85128784179687504 62.18249893188476564
v 11.67460823059082032 -143.77397155761718752 62.18249893188476564
v 11.67460823059082032 -145.78604125976562496 62.18249893188476564
v 2.5339481830596924 -138.49659729003906248 62.18249893188476564
v 4.49557209014892576 -138.0488739013671875 62.18249893188476564
v 6.5020160675048828 -138.19923400878906248 62.18249893188476564
v 8.375 -138.934326171875 62.18249893188476564
v 9.94810009002685552 -140.18882751464843752 62.18249893188476564
v 11.08154010772705078 -147.70870971679687504 62.18249893188476564
v 2.5339481830596924 -151.0634002685546875 62.18249893188476564
v 0.7914438247680664 -150.0573577880859375 62.18249893188476564
v 9.94810009002685552 -149.37117004394531248 62.18249893188476564
v 8.375 -150.62567138671875 62.18249893188476564
v 6.5020160675048828 -151.36076354980468752 62.18249893188476564
v 4.49557209014892576 -151.51112365722656248 62.18249893188476564
v -0.57711172103881832 -148.58241271972656248 62.18249893188476564
v -1.45011639595031736 -146.76959228515624992 62.18249893188476564
v -1.75 -144.77999877929687504 62.18249893188476564
v 0.7914438247680664 -139.50263977050781248 62.18249893188476564
v -1.45011639595031736 -142.7904052734375 62.18249893188476564
v -0.57711172103881832 -140.97758483886718752 62.18249893188476564
v 8.375 -150.62567138671875 63.18249893188476564
v 9.94810009002685552 -149.37117004394531248 63.18249893188476564
v 11.08154010772705078 -147.70870971679687504 63.18249893188476564
v 11.67460823059082032 -145.78604125976562496 63.18249893188476564
v 11.67460823059082032 -143.77397155761718752 63.18249893188476564
v 11.08154010772705078 -141.85128784179687504 63.18249893188476564
v 9.94810009002685552 -140.18882751464843752 63.18249893188476564
v 8.375 -138.934326171875 63.18249893188476564
v 6.5020160675048828 -138.19923400878906248 63.18249893188476564
v 4.49557209014892576 -138.0488739013671875 63.18249893188476564
v 2.5339481830596924 -138.49659729003906248 63.18249893188476564
v 0.7914438247680664 -139.50263977050781248 63.18249893188476564
v -0.57711172103881832 -140.97758483886718752 63.18249893188476564
v -1.45011639595031736 -142.7904052734375 63.18249893188476564
v -1.75 -144.77999877929687504 63.18249893188476564
v -1.45011639595031736 -146.76959228515624992 63.18249893188476564
v -0.57711172103881832 -148.58241271972656248 63.18249893188476564
v 0.7914438247680664 -150.0573577880859375 63.18249893188476564
v 2.5339481830596924 -151.0634002685546875 63.18249893188476564
v 4.49557209014892576 -151.51112365722656248 63.18249893188476564
v 6.5020160675048828 -151.36076354980468752 63.18249893188476564
v -2.20593667030334472 -141.67451477050781248 63.18249893188476564
v -1.8934966325759888 -141.65814208984375 63.18249893188476564
v 5.9781475067138672 -152.7720947265625 63.18249893188476564
v 5.86602544784545904 -152.47999572753906248 63.18249893188476564
v 4.08645439147949219 -152.57325744628906248 63.18249893188476564
v -3.32921242713928224 -150.31391906738281248 63.18249893188476564
v 12.30932044982910156 -141.65814208984375 63.18249893188476564
v 13.55364227294921872 -149.96026611328124992 63.18249893188476564
v 11.99663352966308592 -151.92472839355468752 63.18249893188476564
v 4.0054779052734375 -152.87547302246093744 63.18249893188476564
v -1.69130611419677736 -152.21144104003906248 63.18249893188476564
v 11.8934965133666992 -139.70185852050781248 63.18249893188476564
v 10.70713520050048832 -136.56851196289062496 63.18249893188476564
v 12.5699501037597656 -138.24578857421875 63.18249893188476564
v 13.95711803436279296 -140.333648681640625 63.18249893188476564
v 12.96743392944335936 -140.17999267578125 63.18249893188476564
v 12.77053928375244144 -139.93685913085937504 63.18249893188476564
v 14.78147602081298832 -142.70088195800781248 63.18249893188476564
v 13.01495361328125 -141.08673095703125 63.18249893188476564
v 13.09593009948730468 -140.78453063964843744 63.18249893188476564
v 12.60140800476074216 -141.5460205078125 63.18249893188476564
v 14.99122810363769536 -145.198760986328125 63.18249893188476564
v 5.66913080215454104 -152.23686218261718752 63.18249893188476564
v 4.25685501098632812 -152.31086730957031248 63.18249893188476564
v 5.40673685073852536 -152.0664520263671875 63.18249893188476564
v 5.10452842712402344 -151.9854736328125 63.18249893188476564
v 11.60140800476074216 -139.81398010253906256 63.18249893188476564
v 8.4857206344604492 -135.40718078613281248 63.18249893188476564
v 12.50814533233642576 -139.76644897460937504 63.18249893188476564
v 12.20593643188476564 -139.68547058105468752 63.18249893188476564
v 13.07955551147460938 -140.47209167480468752 63.18249893188476564
v 12.84455299377441408 -141.34913635253906248 63.18249893188476564
v 14.57319450378417968 -147.67031860351562496 63.18249893188476564
v 11.99687957763671872 -141.67451477050781248 63.18249893188476564
v -1.6014083623886108 -141.5460205078125 63.18249893188476564
v -1.35826349258422852 -141.34913635253906248 63.18249893188476564
v 4.02185249328613281 -153.18791198730468752 63.18249893188476564
v 0.36703965067863464 -153.64202880859375 63.18249893188476564
v -2.5081448554992676 -141.59355163574218752 63.18249893188476564
v -4.96492862701416016 -145.61677551269531248 63.18249893188476564
v -4.85996055603027344 -143.1123199462890625 63.18249893188476564
v 10 -153.44024658203125 63.18249893188476564
v 5.99452209472656256 -153.08453369140625 63.18249893188476564
v 7.68919801712036136 -154.41162109375 63.18249893188476564
v -4.44376373291015624 -148.06866455078125 63.18249893188476564
v 4.5 -152.1139678955078125 63.18249893188476564
v 5.91354560852050784 -153.38673400878906248 63.18249893188476564
v 5.20942401885986328 -154.77780151367187504 63.18249893188476564
v 5.20791149139404296 -153.95814514160156256 63.18249893188476564
v 5.5 -153.84602355957031248 63.18249893188476564
v 11.69467163085937504 -141.59355163574218752 63.18249893188476564
v 3.53916978836059568 -134.88728332519531248 63.18249893188476564
v 6.04528474807739258 -134.83477783203124992 63.18249893188476564
v 11.35826301574707032 -140.0108642578125 63.18249893188476564
v 11.18786239624023436 -140.27326965332031248 63.18249893188476564
v -2.7705388069152832 -141.42314147949218752 63.18249893188476564
v -1.04599118232727051 -136.814697265625 63.18249893188476564
v -1.99687981605529792 -139.68547058105468752 63.18249893188476564
v -2.30931997299194336 -139.70185852050781248 63.18249893188476564
v -1.69467163085937504 -139.76644897460937504 63.18249893188476564
v 4.79208850860595696 -152.0018463134765625 63.18249893188476564
v 5.74314498901367184 -153.64912414550781248 63.18249893188476564
v 11.43227767944335936 -141.42314147949218752 63.18249893188476564
v 11.123260498046875 -140.88790893554687504 63.18249893188476564
v 11.2353830337524414 -141.17999267578125 63.18249893188476564
v 11.1068868637084961 -140.57546997070312496 63.18249893188476564
v 2.71649122238159176 -154.51579284667968752 63.18249893188476564
v 4.13397455215454102 -153.47999572753906248 63.18249893188476564
v 4.330869197845459 -153.72314453125 63.18249893188476564
v -4.13545465469360352 -140.71263122558593752 63.18249893188476564
v -3.07955598831176758 -140.88790893554687504 63.18249893188476564
v 1.12484419345855712 -135.56137084960937504 63.18249893188476564
v -1.23538291454315184 -140.17999267578125 63.18249893188476564
v -1.43227767944335936 -139.93685913085937504 63.18249893188476564
v -2.96743369102478032 -141.17999267578125 63.18249893188476564
v -3.0149538516998291 -140.27326965332031248 63.18249893188476564
v -3.09593009948730468 -140.57546997070312496 63.18249893188476564
v -1.1232607364654541 -140.47209167480468752 63.18249893188476564
v -1.18786287307739256 -141.08673095703125 63.18249893188476564
v 4.59326314926147464 -153.89353942871093744 63.18249893188476564
v -1.1068863868713379 -140.78453063964843744 63.18249893188476564
v 4.89547157287597664 -153.97451782226562496 63.18249893188476564
v -2.83693456649780272 -138.56852722167968752 63.18249893188476564
v -2.84455323219299312 -140.0108642578125 63.18249893188476564
v -2.60140824317932128 -139.81398010253906256 63.18249893188476564
v 11.42787647247314456 -152.44044494628906248 141.3125
v 11.99663352966308592 -151.92472839355468752 141.3125
v 13.55364227294921872 -149.96026611328124992 141.3125
v 12.66044425964355472 -151.20787048339843752 141.3125
v 14.39692592620849608 -148.2001953125 141.3125
v 13.66025447845458984 -149.77999877929687504 141.3125
v 14.57319450378417968 -147.67031860351562496 141.3125
v 14.99122810363769536 -145.198760986328125 141.3125
v 14.84807777404785152 -146.5164794921875 141.3125
v 14.84807777404785152 -143.04351806640625 141.3125
v 15 -144.77999877929687504 141.3125
v 14.78147602081298832 -142.70088195800781248 141.3125
v 14.39692592620849608 -141.35980224609375 141.3125
v 13.95711803436279296 -140.333648681640625 141.3125
v 12.66044425964355472 -138.35212707519531248 141.3125
v 13.66025447845458984 -139.77999877929687504 141.3125
v 12.5699501037597656 -138.24578857421875 141.3125
v 11.42787647247314456 -137.1195526123046875 141.3125
v 10.70713520050048832 -136.56851196289062496 141.3125
v 8.4857206344604492 -135.40718078613281248 141.3125
v 10 -136.1197509765625 141.3125
v 6.73648166656494144 -134.93191528320312496 141.3125
v 8.42020130157470704 -135.38307189941406248 141.3125
v 6.04528474807739258 -134.83477783203124992 141.3125
v 3.53916978836059568 -134.88728332519531248 141.3125
v 5 -134.77999877929687504 141.3125
v 1.57979857921600344 -135.38307189941406248 141.3125
v 3.2635183334350586 -134.93191528320312496 141.3125
v 1.12484419345855712 -135.56137084960937504 141.3125
v -1.04599118232727051 -136.814697265625 141.3125
v 0 -136.1197509765625 141.3125
v -2.66044449806213376 -138.35212707519531248 141.3125
v -1.42787611484527584 -137.1195526123046875 141.3125
v -2.83693456649780272 -138.56852722167968752 141.3125
v -3.66025400161743168 -139.77999877929687504 141.3125
v -4.13545465469360352 -140.71263122558593752 141.3125
v -4.84807729721069328 -143.04351806640625 141.3125
v -4.39692640304565432 -141.35980224609375 141.3125
v -4.85996055603027344 -143.1123199462890625 141.3125
v -5 -144.77999877929687504 141.3125
v -4.96492862701416016 -145.61677551269531248 141.3125
v -4.44376373291015624 -148.06866455078125 141.3125
v -4.84807729721069328 -146.5164794921875 141.3125
v -3.66025400161743168 -149.77999877929687504 141.3125
v -4.39692640304565432 -148.2001953125 141.3125
v -3.32921242713928224 -150.31391906738281248 141.3125
v -1.69130611419677736 -152.21144104003906248 141.3125
v -2.66044449806213376 -151.20787048339843752 141.3125
v 0 -153.44024658203125 141.3125
v -1.42787611484527584 -152.44044494628906248 141.3125
v 0.36703965067863464 -153.64202880859375 141.3125
v 1.57979857921600344 -154.1769256591796875 141.3125
v 2.71649122238159176 -154.51579284667968752 141.3125
v 5 -154.77999877929687504 141.3125
v 3.2635183334350586 -154.62808227539062496 141.3125
v 5.20942401885986328 -154.77780151367187504 141.3125
v 6.73648166656494144 -154.62808227539062496 141.3125
v 7.68919801712036136 -154.41162109375 141.3125
v 10 -153.44024658203125 141.3125
v 8.42020130157470704 -154.1769256591796875 141.3125
v 9.96892070770263664 -153.38642883300781248 141.7049560546875
v 12.61282825469970704 -151.1679229736328125 141.7049560546875
v 11.38792133331298832 -152.392822265625 141.7049560546875
v 13.60642337799072264 -149.74891662597656256 141.7049560546875
v 14.7868633270263672 -146.50569152832031248 141.7049560546875
v 14.33851623535156248 -148.1789398193359375 141.7049560546875
v 14.93784141540527344 -144.77999877929687504 141.7049560546875
v 14.33851623535156248 -141.38105773925781248 141.7049560546875
v 14.7868633270263672 -143.0543060302734375 141.7049560546875
v 13.60642337799072264 -139.81108093261718752 141.7049560546875
v 11.38792133331298832 -137.16717529296875 141.7049560546875
v 12.61282825469970704 -138.39207458496093752 141.7049560546875
v 9.96892070770263664 -136.173583984375 141.7049560546875
v 8.39894199371337888 -135.44148254394531248 141.7049560546875
v 5 -134.8421630859375 141.7049560546875
v 6.72568798065185552 -134.99313354492187504 141.7049560546875
v 3.27431178092956544 -134.99313354492187504 141.7049560546875
v 0.0310791116207838 -136.173583984375 141.7049560546875
v 1.60105788707733152 -135.44148254394531248 141.7049560546875
v -1.38792157173156736 -137.16717529296875 141.7049560546875
v -3.60642337799072264 -139.81108093261718752 141.7049560546875
v -2.61282849311828616 -138.39207458496093752 141.7049560546875
v -4.33851671218872072 -141.38105773925781248 141.7049560546875
v -4.93784189224243168 -144.77999877929687504 141.7049560546875
v -4.78686380386352544 -143.0543060302734375 141.7049560546875
v -4.78686380386352544 -146.50569152832031248 141.7049560546875
v -4.33851671218872072 -148.1789398193359375 141.7049560546875
v -2.61282849311828616 -151.1679229736328125 141.7049560546875
v -3.60642337799072264 -149.74891662597656256 141.7049560546875
v -1.38792157173156736 -152.392822265625 141.7049560546875
v 1.60105788707733152 -154.1185150146484375 141.7049560546875
v 0.0310791116207838 -153.38642883300781248 141.7049560546875
v 3.27431178092956544 -154.56686401367187504 141.7049560546875
v 6.72568798065185552 -154.56686401367187504 141.7049560546875
v 5 -154.71783447265625 141.7049560546875
v 8.39894199371337888 -154.1185150146484375 141.7049560546875
v 9.8787260055541992 -153.230194091796875 142.058990478515625
v 11.27196884155273436 -152.254638671875 142.058990478515625
v 12.47464179992675784 -151.051971435546875 142.058990478515625
v 13.4502010345458984 -149.65872192382812496 142.058990478515625
v 14.1690053939819336 -148.11724853515625 142.058990478515625
v 14.60921382904052736 -146.474365234375 142.058990478515625
v 14.7574520111083984 -144.77999877929687504 142.058990478515625
v 14.60921382904052736 -143.08563232421875 142.058990478515625
v 14.1690053939819336 -141.4427490234375 142.058990478515625
v 13.4502010345458984 -139.90127563476562496 142.058990478515625
v 12.47464179992675784 -138.50802612304687504 142.058990478515625
v 11.27196884155273436 -137.30535888671875 142.058990478515625
v 9.8787260055541992 -136.329803466796875 142.058990478515625
v 8.33724498748779296 -135.61099243164062496 142.058990478515625
v 6.69436359405517576 -135.1707916259765625 142.058990478515625
v 5 -135.022552490234375 142.058990478515625
v 3.3056364059448242 -135.1707916259765625 142.058990478515625
v 1.66275501251220704 -135.61099243164062496 142.058990478515625
v 0.1212742105126381 -136.329803466796875 142.058990478515625
v -1.27196896076202392 -137.30535888671875 142.058990478515625
v -2.47464156150817872 -138.50802612304687504 142.058990478515625
v -3.4502010345458984 -139.90127563476562496 142.058990478515625
v -4.1690053939819336 -141.4427490234375 142.058990478515625
v -4.60921382904052736 -143.08563232421875 142.058990478515625
v -4.75745153427124016 -144.77999877929687504 142.058990478515625
v -4.60921382904052736 -146.474365234375 142.058990478515625
v -4.1690053939819336 -148.11724853515625 142.058990478515625
v -3.4502010345458984 -149.65872192382812496 142.058990478515625
v -2.47464156150817872 -151.051971435546875 142.058990478515625
v -1.27196896076202392 -152.254638671875 142.058990478515625
v 0.1212742105126381 -153.230194091796875 142.058990478515625
v 1.66275501251220704 -153.94900512695312496 142.058990478515625
v 3.3056364059448242 -154.38922119140625 142.058990478515625
v 5 -154.53744506835937504 142.058990478515625
v 6.69436359405517576 -154.38922119140625 142.058990478515625
v 8.33724498748779296 -153.94900512695312496 142.058990478515625
v 9.73824405670166016 -152.98687744140624992 142.33995056152343752
v 11.0913686752319336 -152.0394134521484375 142.33995056152343752
v 12.25941085815429688 -150.87136840820312496 142.33995056152343752
v 13.206878662109375 -149.51824951171875 142.33995056152343752
v 13.90498542785644528 -148.021148681640625 142.33995056152343752
v 14.3325185775756836 -146.42556762695312496 142.33995056152343752
v 14.47648715972900392 -144.77999877929687504 142.33995056152343752
v 14.3325185775756836 -143.134429931640625 142.33995056152343752
v 13.90498542785644528 -141.53884887695312496 142.33995056152343752
v 13.206878662109375 -140.0417633056640625 142.33995056152343752
v 12.25941085815429688 -138.68862915039062496 142.33995056152343752
v 11.0913686752319336 -137.52058410644531248 142.33995056152343752
v 9.73824405670166016 -136.5731201171875 142.33995056152343752
v 8.24114990234375 -135.87501525878906256 142.33995056152343752
v 6.6455745697021484 -135.44747924804687504 142.33995056152343752
v 5 -135.30351257324218752 142.33995056152343752
v 3.35442519187927248 -135.44747924804687504 142.33995056152343752
v 1.75885045528411872 -135.87501525878906256 142.33995056152343752
v 0.26175636053085328 -136.5731201171875 142.33995056152343752
v -1.09136855602264404 -137.52058410644531248 142.33995056152343752
v -2.25941038131713868 -138.68862915039062496 142.33995056152343752
v -3.206878662109375 -140.0417633056640625 142.33995056152343752
v -3.90498518943786624 -141.53884887695312496 142.33995056152343752
v -4.3325181007385254 -143.134429931640625 142.33995056152343752
v -4.47648715972900392 -144.77999877929687504 142.33995056152343752
v -4.3325181007385254 -146.42556762695312496 142.33995056152343752
v -3.90498518943786624 -148.021148681640625 142.33995056152343752
v -3.206878662109375 -149.51824951171875 142.33995056152343752
v -2.25941038131713868 -150.87136840820312496 142.33995056152343752
v -1.09136855602264404 -152.0394134521484375 142.33995056152343752
v 0.26175636053085328 -152.98687744140624992 142.33995056152343752
v 1.75885045528411872 -153.68498229980468752 142.33995056152343752
v 3.35442519187927248 -154.112518310546875 142.33995056152343752
v 5 -154.25648498535156248 142.33995056152343752
v 6.6455745697021484 -154.112518310546875 142.33995056152343752
v 8.24114990234375 -153.68498229980468752 142.33995056152343752
v 9.56122589111328128 -152.68026733398437504 142.52033996582031248
v 10.86379909515380864 -151.76820373535156256 142.52033996582031248
v 11.98820304870605472 -150.643798828125 142.52033996582031248
v 12.90027523040771488 -149.34123229980468752 142.52033996582031248
v 13.57230091094970704 -147.90005493164062496 142.52033996582031248
v 13.98386096954345696 -146.36408996582031248 142.52033996582031248
v 14.1224517822265625 -144.77999877929687504 142.52033996582031248
v 13.98386096954345696 -143.19590759277343752 142.52033996582031248
v 13.57230091094970704 -141.65994262695312496 142.52033996582031248
v 12.90027523040771488 -140.218780517578125 142.52033996582031248
v 11.98820304870605472 -138.91619873046875008 142.52033996582031248
v 10.86379909515380864 -137.79179382324218752 142.52033996582031248
v 9.56122589111328128 -136.87973022460937504 142.52033996582031248
v 8.12006187438964844 -136.20770263671875 142.52033996582031248
v 6.58409690856933592 -135.796142578125 142.52033996582031248
v 5 -135.65754699707031248 142.52033996582031248
v 3.41590285301208496 -135.796142578125 142.52033996582031248
v 1.87993776798248288 -136.20770263671875 142.52033996582031248
v 0.43877419829368592 -136.87973022460937504 142.52033996582031248
v -0.86379885673522944 -137.79179382324218752 142.52033996582031248
v -1.98820328712463376 -138.91619873046875008 142.52033996582031248
v -2.90027475357055664 -140.218780517578125 142.52033996582031248
v -3.5723004341125488 -141.65994262695312496 142.52033996582031248
v -3.98386096954345696 -143.19590759277343752 142.52033996582031248
v -4.1224517822265625 -144.77999877929687504 142.52033996582031248
v -3.98386096954345696 -146.36408996582031248 142.52033996582031248
v -3.5723004341125488 -147.90005493164062496 142.52033996582031248
v -2.90027475357055664 -149.34123229980468752 142.52033996582031248
v -1.98820328712463376 -150.643798828125 142.52033996582031248
v -0.86379885673522944 -151.76820373535156256 142.52033996582031248
v 0.43877419829368592 -152.68026733398437504 142.52033996582031248
v 1.87993776798248288 -153.352294921875 142.52033996582031248
v 3.41590285301208496 -153.76385498046875008 142.52033996582031248
v 5 -153.90245056152343744 142.52033996582031248
v 6.58409690856933592 -153.76385498046875008 142.52033996582031248
v 8.12006187438964844 -153.352294921875 142.52033996582031248
v 9.36499977111816408 -152.34040832519531248 142.58250427246093752
v 10.61153602600097656 -151.46757507324218752 142.58250427246093752
v 11.68756771087646488 -150.39154052734375 142.58250427246093752
v 12.56040191650390624 -149.1450042724609375 142.58250427246093752
v 13.20351696014404296 -147.76583862304687504 142.58250427246093752
v 13.59737205505371096 -146.29594421386718752 142.58250427246093752
v 13.72999954223632816 -144.77999877929687504 142.58250427246093752
v 13.59737205505371096 -143.26405334472656248 142.58250427246093752
v 13.20351696014404296 -141.79415893554687504 142.58250427246093752
v 12.56040191650390624 -140.41499328613281248 142.58250427246093752
v 11.68756771087646488 -139.16845703125 142.58250427246093752
v 10.61153602600097656 -138.092437744140625 142.58250427246093752
v 9.36499977111816408 -137.2196044921875 142.58250427246093752
v 7.9858360290527344 -136.57647705078125 142.58250427246093752
v 6.51594877243041992 -136.18263244628906248 142.58250427246093752
v 5 -136.0500030517578125 142.58250427246093752
v 3.4840514659881592 -136.18263244628906248 142.58250427246093752
v 2.01416420936584472 -136.57647705078125 142.58250427246093752
v 0.6349999904632568 -137.2196044921875 142.58250427246093752
v -0.61153584718704224 -138.092437744140625 142.58250427246093752
v -1.68756794929504392 -139.16845703125 142.58250427246093752
v -2.56040167808532712 -140.41499328613281248 142.58250427246093752
v -3.20351648330688476 -141.79415893554687504 142.58250427246093752
v -3.59737157821655272 -143.26405334472656248 142.58250427246093752
v -3.7300000190734864 -144.77999877929687504 142.58250427246093752
v -3.59737157821655272 -146.29594421386718752 142.58250427246093752
v -3.20351648330688476 -147.76583862304687504 142.58250427246093752
v -2.56040167808532712 -149.1450042724609375 142.58250427246093752
v -1.68756794929504392 -150.39154052734375 142.58250427246093752
v -0.61153584718704224 -151.46757507324218752 142.58250427246093752
v 0.6349999904632568 -152.34040832519531248 142.58250427246093752
v 2.01416420936584472 -152.9835205078125 142.58250427246093752
v 3.4840514659881592 -153.37736511230468752 142.58250427246093752
v 5 -153.50999450683593752 142.58250427246093752
v 6.51594877243041992 -153.37736511230468752 142.58250427246093752
v 7.9858360290527344 -152.9835205078125 142.58250427246093752
v 5 -144.77999877929687504 142.58250427246093752
v 12.30932044982910156 -141.65814208984375 69.18250274658203124
v 12.60140800476074216 -141.5460205078125 69.18250274658203124
v 11.99687957763671872 -141.67451477050781248 69.18250274658203124
v 11.69467163085937504 -141.59355163574218752 69.18250274658203124
v 11.43227767944335936 -141.42314147949218752 69.18250274658203124
v 11.2353830337524414 -141.17999267578125 69.18250274658203124
v 11.123260498046875 -140.88790893554687504 69.18250274658203124
v 11.1068868637084961 -140.57546997070312496 69.18250274658203124
v 11.18786239624023436 -140.27326965332031248 69.18250274658203124
v 11.35826301574707032 -140.0108642578125 69.18250274658203124
v 11.60140800476074216 -139.81398010253906256 69.18250274658203124
v 11.8934965133666992 -139.70185852050781248 69.18250274658203124
v 12.20593643188476564 -139.68547058105468752 69.18250274658203124
v 12.50814533233642576 -139.76644897460937504 69.18250274658203124
v 12.77053928375244144 -139.93685913085937504 69.18250274658203124
v 12.96743392944335936 -140.17999267578125 69.18250274658203124
v 13.07955551147460938 -140.47209167480468752 69.18250274658203124
v 13.09593009948730468 -140.78453063964843744 69.18250274658203124
v 13.01495361328125 -141.08673095703125 69.18250274658203124
v 12.84455299377441408 -141.34913635253906248 69.18250274658203124
v 12.10140800476074218 -140.67999267578125 69.78336334228515632
v 5.20791149139404296 -153.95814514160156256 69.18250274658203124
v 5.5 -153.84602355957031248 69.18250274658203124
v 4.89547157287597664 -153.97451782226562496 69.18250274658203124
v 4.59326314926147464 -153.89353942871093744 69.18250274658203124
v 4.330869197845459 -153.72314453125 69.18250274658203124
v 4.13397455215454102 -153.47999572753906248 69.18250274658203124
v 4.02185249328613281 -153.18791198730468752 69.18250274658203124
v 4.0054779052734375 -152.87547302246093744 69.18250274658203124
v 4.08645439147949219 -152.57325744628906248 69.18250274658203124
v 4.25685501098632812 -152.31086730957031248 69.18250274658203124
v 4.5 -152.1139678955078125 69.18250274658203124
v 4.79208850860595696 -152.0018463134765625 69.18250274658203124
v 5.10452842712402344 -151.9854736328125 69.18250274658203124
v 5.40673685073852536 -152.0664520263671875 69.18250274658203124
v 5.66913080215454104 -152.23686218261718752 69.18250274658203124
v 5.86602544784545904 -152.47999572753906248 69.18250274658203124
v 5.9781475067138672 -152.7720947265625 69.18250274658203124
v 5.99452209472656256 -153.08453369140625 69.18250274658203124
v 5.91354560852050784 -153.38673400878906248 69.18250274658203124
v 5.74314498901367184 -153.64912414550781248 69.18250274658203124
v 5 -152.97999572753906256 69.78336334228515632
v -1.8934966325759888 -141.65814208984375 69.18250274658203124
v -1.6014083623886108 -141.5460205078125 69.18250274658203124
v -2.20593667030334472 -141.67451477050781248 69.18250274658203124
v -2.5081448554992676 -141.59355163574218752 69.18250274658203124
v -2.7705388069152832 -141.42314147949218752 69.18250274658203124
v -2.96743369102478032 -141.17999267578125 69.18250274658203124
v -3.07955598831176758 -140.88790893554687504 69.18250274658203124
v -3.09593009948730468 -140.57546997070312496 69.18250274658203124
v -3.0149538516998291 -140.27326965332031248 69.18250274658203124
v -2.84455323219299312 -140.0108642578125 69.18250274658203124
v -2.60140824317932128 -139.81398010253906256 69.18250274658203124
v -2.30931997299194336 -139.70185852050781248 69.18250274658203124
v -1.99687981605529792 -139.68547058105468752 69.18250274658203124
v -1.69467163085937504 -139.76644897460937504 69.18250274658203124
v -1.43227767944335936 -139.93685913085937504 69.18250274658203124
v -1.23538291454315184 -140.17999267578125 69.18250274658203124
v -1.1232607364654541 -140.47209167480468752 69.18250274658203124
v -1.1068863868713379 -140.78453063964843744 69.18250274658203124
v -1.18786287307739256 -141.08673095703125 69.18250274658203124
v -1.35826349258422852 -141.34913635253906248 69.18250274658203124
v -2.10140824317932128 -140.67999267578125 69.78336334228515632
# 472 vertices

vn 0 0 -1
vn 0.62932038307189944 -0.7771459817886352 0
vn 0.83867055177688592 -0.5446390509605408 0
vn 0.96592581272125248 -0.25881904363632204 0
vn 0.99862951040267952 0.0523359552025795 0
vn 0.93358039855957024 0.3583679497241974 0
vn 0.7771459817886352 0.62932038307189944 0
vn 0.5446390509605408 0.83867055177688592 0
vn 0.25881904363632204 0.96592581272125248 0
vn -0.0523359552025795 0.99862951040267952 0
vn -0.3583679497241974 0.93358039855957024 0
vn -0.62932038307189944 0.7771459817886352 0
vn -0.83867055177688592 0.5446390509605408 0
vn -0.96592581272125248 0.25881904363632204 0
vn -0.99862951040267952 -0.0523359552025795 0
vn -0.93358039855957024 -0.3583679497241974 0
vn -0.7771459817886352 -0.62932038307189944 0
vn -0.5446390509605408 -0.83867055177688592 0
vn -0.25881904363632204 -0.96592581272125248 0
vn 0.0523359552025795 -0.99862951040267952 0
vn 0.3583679497241974 -0.93358039855957024 0
vn 0.62348979711532592 -0.78183150291442864 0
vn 0.82623875141143792 -0.56332004070281984 0
vn 0.95557278394699104 -0.29475516080856324 0
vn 1 0 0
vn 0.95557278394699104 0.29475516080856324 0
vn 0.82623875141143792 0.56332004070281984 0
vn 0.62348979711532592 0.78183150291442864 0
vn 0.3653410375118256 0.93087375164031984 0
vn 0.07473009079694748 0.9972038269042968 0
vn -0.22252093255519868 0.97492790222167968 0
vn -0.5 0.86602538824081424 0
vn -0.73305189609527584 0.68017274141311648 0
vn -0.90096884965896608 0.43388372659683224 0
vn -0.98883080482482912 0.1490422636270523 0
vn -0.98883080482482912 -0.1490422636270523 0
vn -0.90096884965896608 -0.43388372659683224 0
vn -0.73305189609527584 -0.68017274141311648 0
vn -0.5 -0.86602538824081424 0
vn -0.22252093255519868 -0.97492790222167968 0
vn 0.07473009079694748 -0.9972038269042968 0
vn 0.3653410375118256 -0.93087375164031984 0
vn 0.60459887981414792 -0.79652965068817136 -0.00085644866339862
vn 0.67172056436538696 -0.74080461263656624 0
vn 0.8131007552146912 -0.58212298154830936 0
vn 0.78369307518005376 -0.62114751338958744 -0.00095935113495215
vn 0.9135452508926392 -0.40673655271530152 -0.0006974718417041
vn 0.90630775690078736 -0.42261824011802672 -0.0002615812118165195
vn 0.94887602329254144 -0.31564903259277344 0
vn 0.99415093660354608 -0.10799935460090638 0
vn 0.98599553108215328 -0.1667686551809311 -0.00100613408721983
vn 0.9961945414543152 0.08715572953224182 -0.00057897542137652
vn 0.98162716627120976 0.1908089965581894 0
vn 0.9964927434921264 0.08367783576250076 -0.0004824903153348714
vn 0.99978065490722656 -0.02094241976737976 0
vn 0.94437587261199952 0.32886648178100584 -0.00099677697289735
vn 0.919135332107544 0.39394190907478336 0
vn 0.8191516995429992 0.57357615232467648 -0.00095204322133213
vn 0.76153832674026496 0.64811992645263672 0
vn 0.83292120695114128 0.55339151620864872 -0.00021159833704587072
vn 0.88130342960357664 0.47255077958106992 0
vn 0.6691303253173828 0.7431445121765136 -0.00093128409935161
vn 0.60737586021423336 0.79441463947296144 0
vn 0.4257792830467224 0.90482705831527712 0
vn 0.46329584717750552 0.8862032294273376 -0.00089698273222893
vn 0.22835078835487364 0.9735785722732544 -0.00080968398833647
vn 0.25881904363632204 0.96592581272125248 -8.098470425466076E-05
vn 0.13917310535907746 0.99026805162429808 0
vn -0.07323819398880005 0.997314453125 0
vn -0.02094241045415401 0.99978017807006832 -0.0009811824420467
vn -0.26891976594924928 0.96316236257553104 -0.00063202995806932
vn -0.25881901383399964 0.96592575311660768 -0.0003611842112150043
vn -0.36487677693367008 0.93105584383010864 0
vn -0.55339157581329344 0.83292126655578608 0
vn -0.49999973177909848 0.8660249710083008 -0.00100925308652222
vn -0.70710659027099608 0.70710659027099608 -0.00069715298013761
vn -0.77494448423385616 0.63202929496765136 0
vn -0.69966328144073488 0.7144726514816284 -0.0003983998904004693
vn -0.62387961149215696 0.78152048587799072 0
vn -0.85536384582519536 0.5180267691612244 -0.0009811824420467
vn -0.8910065293312072 0.45399048924446104 0
vn -0.96592527627944944 0.25881889462471008 -0.00108874344732612
vn -0.9854078888893128 0.17020949721336364 0
vn -0.95731949806213376 0.28903180360794068 -0.00010889629629673436
vn -0.92718386650085456 0.37460657954216 0
vn -0.999122440814972 0.04187563806772232 -0.00089698273222893
vn -0.99912285804748528 -0.04187565296888351 0
vn -0.96770918369293216 -0.252069354057312 0
vn -0.97814714908599856 -0.20791159570217132 -0.00093128409935161
vn -0.89571148157119744 -0.44463506340980528 -0.00075669080251827
vn -0.90630775690078736 -0.42261826992034912 -0.0001681798603385687
vn -0.84989267587661744 -0.52695578336715696 0
vn -0.71933978796005248 -0.69465839862823488 0
vn -0.7569946646690368 -0.65342026948928832 -0.00099677697289735
vn -0.57071346044540408 -0.82114905118942256 -0.00056036823661997
vn -0.5735763907432556 -0.8191519379615784 -0.0004669839981943369
vn -0.48175367712974552 -0.87630665302276608 0
vn -0.34857186675071716 -0.93728148937225344 -0.00100613408721983
vn -0.28568837046623228 -0.95832258462905888 0
vn -0.08715571463108063 -0.9961943626403808 -0.00082151097012683
vn 0.01047178450971841 -0.99994516372680672 0
vn -0.10452845692634582 -0.99452185630798336 -0.0003081010945606977
vn -0.2010779231786728 -0.97957527637481696 0
vn 0.14608296751976014 -0.98927187919616704 -0.00095935113495215
vn 0.22154849767684936 -0.97514933347702032 0
vn 0.42261826992034912 -0.90630781650543216 0
vn 0.38751545548439024 -0.92186284065246576 -0.00085644866339862
vn 0.30569529533386232 -0.95212936401367184 0
vn 0.09758289903402328 -0.99522739648818976 0
vn -0.40354529023170472 -0.9149596691131592 0
vn -0.65605902671813968 -0.75470960140228272 0
vn -0.80073136091232304 -0.59902358055114744 0
vn -0.9420574307441712 -0.33545157313346864 0
vn -0.99167114496231072 -0.12879559397697448 0
vn -0.996492862701416 0.08367784321308136 0
vn -0.8270805478096008 0.56208336353302 0
vn -0.44463518261909488 0.89571177959442144 0
vn -0.15988118946552276 0.9871362447738648 0
vn 0.0523359552025795 0.99862951040267952 0
vn 0.3452982008457184 0.93849301338195808 0
vn 0.53582680225372312 0.84432792663574224 0
vn 0.70215302705764768 0.71202605962753296 0
vn 0.96126168966293328 0.27563735842704772 0
vn 0.97277587652206416 -0.23174791038036348 0
vn 0.86074203252792352 -0.50904142856597904 0
vn 0.7337298393249512 -0.6794413328170776 0
vn 0.5735764503479004 -0.81915205717086784 0
vn 0.56656742095947264 -0.8091421127319336 0.15585367381572724
vn 0.68545114994049072 -0.68545114994049072 0.2455880045890808
vn 0.66346257925033568 -0.7316972613334656 0.15632197260856628
vn 0.80314797163009648 -0.57499748468399048 0.15598465502262116
vn 0.80344128608703616 -0.56257563829422 0.19491222500801088
vn 0.8952328562736512 -0.41745394468307496 0.15585367381572724
vn 0.93878954648971552 -0.25154790282249452 0.23536737263202668
vn 0.93720269203186032 -0.31176584959030152 0.1563749611377716
vn 0.98196411132812496 -0.10667543858289718 0.15609893202781678
vn 0.97116112709045408 -0.08496558666229248 0.22277095913887024
vn 0.98402136564254768 0.08609071373939514 0.15585367381572724
vn 0.94340103864669792 0.25278353691101076 0.21469730138778688
vn 0.96954536437988288 0.1884605288505554 0.15641121566295624
vn 0.90785390138626096 0.38910666108131408 0.15619650483131408
vn 0.87983703613281248 0.41027474403381344 0.2399195581674576
vn 0.8091421127319336 0.56656742095947264 0.15585367381572724
vn 0.69514435529708864 0.69514435529708864 0.18316270411014556
vn 0.75216293334960944 0.64014083147048952 0.15643075108528138
vn 0.59991312026977536 0.78465384244918816 0.1562773585319519
vn 0.55584555864334104 0.79382967948913568 0.24671874940395356
vn 0.42057326436042784 0.89376372098922736 0.15589918196201324
vn 0.41645577549934384 0.89309227466583248 0.17014937102794648
vn 0.25565630197525024 0.95412236452102656 0.15585367381572724
vn 0.08453629165887833 0.9662542343139648 0.24332356452941896
vn 0.13746169209480286 0.97809082269668576 0.15634149312973022
vn -0.07234126329421997 0.98510050773620608 0.15602459013462066
vn -0.08529710024595261 0.9749503135681152 0.20541730523109436
vn -0.25565630197525024 0.95412236452102656 0.15585367381572724
vn -0.41132250428199768 0.8820839524269104 0.22965572774410248
vn -0.36038717627525328 0.91959971189498896 0.15638890862464904
vn -0.5466047525405884 0.82270628213882448 0.15613330900669098
vn -0.55824583768844608 0.79725766181945808 0.22965572774410248
vn -0.6984660625457764 0.6984660625457764 0.15585367381572724
vn -0.80168318748474128 0.56134462356567384 0.20541730523109436
vn -0.76540547609329216 0.62424945831298832 0.15641959011554718
vn -0.88006627559661872 0.44841614365577696 0.1562253087759018
vn -0.8790688514709472 0.40991654992103576 0.24332356452941896
vn -0.95412236452102656 0.25565630197525024 0.15585367381572724
vn -0.98166847229003904 0.08588486164808273 0.17014937102794648
vn -0.97327601909637456 0.16811396181583404 0.15643353760242462
vn -0.96539944410324096 -0.084461510181427 0.24671874940395356
vn -0.98684316873550416 -0.04136098176240921 0.1563006043434143
vn -0.95587027072906496 -0.24898555874824524 0.15594284236431122
vn -0.9495849013328552 -0.2544405162334442 0.18316270411014556
vn -0.8952328562736512 -0.41745394468307496 0.15585367381572724
vn -0.79522687196731568 -0.55682384967803952 0.2399195581674576
vn -0.83943921327590944 -0.52047437429428104 0.15635916590690612
vn -0.7105258107185364 -0.68614685535430912 0.15606269240379334
vn -0.69061750173568728 -0.69061750173568728 0.21469730138778688
vn -0.56656742095947264 -0.8091421127319336 0.15585367381572724
vn -0.41199821233749392 -0.88353300094604496 0.22277095913887024
vn -0.47582504153251648 -0.86552256345748896 0.15640099346637726
vn -0.28218320012092592 -0.94656479358673088 0.15616583824157714
vn -0.25154790282249452 -0.93878954648971552 0.23536737263202668
vn -0.08609071373939514 -0.98402136564254768 0.15585367381572724
vn 0.08548415452241898 -0.97708839178085328 0.19491222500801088
vn 0.01034287270158529 -0.98763549327850336 0.1564261019229889
vn 0.21882726252079012 -0.96317178010940544 0.15625226497650146
vn 0.25089251995086668 -0.93634366989135744 0.2455880045890808
vn 0.41745394468307496 -0.8952328562736512 0.15585367381572724
vn 0.51146090030670168 -0.7304418087005616 0.4526173770427704
vn 0.63053053617477416 -0.63053053617477416 0.4526173770427704
vn 0.7304418087005616 -0.51146090030670168 0.4526173770427704
vn 0.80815905332565312 -0.37685075402259824 0.4526173770427704
vn 0.86132073402404784 -0.23079019784927368 0.4526173770427704
vn 0.8883116245269776 -0.07771719992160797 0.4526173770427704
vn 0.8883116245269776 0.07771719992160797 0.4526173770427704
vn 0.86132073402404784 0.23079019784927368 0.4526173770427704
vn 0.80815905332565312 0.37685075402259824 0.4526173770427704
vn 0.7304418087005616 0.51146090030670168 0.4526173770427704
vn 0.63053053617477416 0.63053053617477416 0.4526173770427704
vn 0.51146090030670168 0.7304418087005616 0.4526173770427704
vn 0.37685075402259824 0.80815905332565312 0.4526173770427704
vn 0.23079019784927368 0.86132073402404784 0.4526173770427704
vn 0.07771719992160797 0.8883116245269776 0.4526173770427704
vn -0.07771719992160797 0.8883116245269776 0.4526173770427704
vn -0.23079019784927368 0.86132073402404784 0.4526173770427704
vn -0.37685075402259824 0.80815905332565312 0.4526173770427704
vn -0.51146090030670168 0.7304418087005616 0.4526173770427704
vn -0.63053053617477416 0.63053053617477416 0.4526173770427704
vn -0.7304418087005616 0.51146090030670168 0.4526173770427704
vn -0.80815905332565312 0.37685075402259824 0.4526173770427704
vn -0.86132073402404784 0.23079019784927368 0.4526173770427704
vn -0.8883116245269776 0.07771719992160797 0.4526173770427704
vn -0.8883116245269776 -0.07771719992160797 0.4526173770427704
vn -0.86132073402404784 -0.23079019784927368 0.4526173770427704
vn -0.80815905332565312 -0.37685075402259824 0.4526173770427704
vn -0.7304418087005616 -0.51146090030670168 0.4526173770427704
vn -0.63053053617477416 -0.63053053617477416 0.4526173770427704
vn -0.51146090030670168 -0.7304418087005616 0.4526173770427704
vn -0.37685075402259824 -0.80815905332565312 0.4526173770427704
vn -0.23079019784927368 -0.86132073402404784 0.4526173770427704
vn -0.07771719992160797 -0.8883116245269776 0.4526173770427704
vn 0.07771719992160797 -0.8883116245269776 0.4526173770427704
vn 0.23079019784927368 -0.86132073402404784 0.4526173770427704
vn 0.37685075402259824 -0.80815905332565312 0.4526173770427704
vn 0.40635219216346744 -0.58033108711242672 0.70575755834579464
vn 0.50095224380493168 -0.50095224380493168 0.70575755834579464
vn 0.58033108711242672 -0.40635219216346744 0.70575755834579464
vn 0.64207684993743896 -0.29940536618232728 0.70575755834579464
vn 0.68431347608566288 -0.1833612471818924 0.70575755834579464
vn 0.70575755834579464 -0.061745785176754 0.70575755834579464
vn 0.70575755834579464 0.061745785176754 0.70575755834579464
vn 0.68431347608566288 0.1833612471818924 0.70575755834579464
vn 0.64207684993743896 0.29940536618232728 0.70575755834579464
vn 0.58033108711242672 0.40635219216346744 0.70575755834579464
vn 0.50095224380493168 0.50095224380493168 0.70575755834579464
vn 0.40635219216346744 0.58033108711242672 0.70575755834579464
vn 0.29940536618232728 0.64207684993743896 0.70575755834579464
vn 0.1833612471818924 0.68431347608566288 0.70575755834579464
vn 0.061745785176754 0.70575755834579464 0.70575755834579464
vn -0.061745785176754 0.70575755834579464 0.70575755834579464
vn -0.1833612471818924 0.68431347608566288 0.70575755834579464
vn -0.29940536618232728 0.64207684993743896 0.70575755834579464
vn -0.40635219216346744 0.58033108711242672 0.70575755834579464
vn -0.50095224380493168 0.50095224380493168 0.70575755834579464
vn -0.58033108711242672 0.40635219216346744 0.70575755834579464
vn -0.64207684993743896 0.29940536618232728 0.70575755834579464
vn -0.68431347608566288 0.1833612471818924 0.70575755834579464
vn -0.70575755834579464 0.061745785176754 0.70575755834579464
vn -0.70575755834579464 -0.061745785176754 0.70575755834579464
vn -0.68431347608566288 -0.1833612471818924 0.70575755834579464
vn -0.64207684993743896 -0.29940536618232728 0.70575755834579464
vn -0.58033108711242672 -0.40635219216346744 0.70575755834579464
vn -0.50095224380493168 -0.50095224380493168 0.70575755834579464
vn -0.40635219216346744 -0.58033108711242672 0.70575755834579464
vn -0.29940536618232728 -0.64207684993743896 0.70575755834579464
vn -0.1833612471818924 -0.68431347608566288 0.70575755834579464
vn -0.061745785176754 -0.70575755834579464 0.70575755834579464
vn 0.061745785176754 -0.70575755834579464 0.70575755834579464
vn 0.1833612471818924 -0.68431347608566288 0.70575755834579464
vn 0.29940536618232728 -0.64207684993743896 0.70575755834579464
vn 0.26118698716163636 -0.37301367521286008 0.89030450582504272
vn 0.32199212908744812 -0.32199212908744812 0.89030450582504272
vn 0.37301367521286008 -0.26118698716163636 0.89030450582504272
vn 0.4127013981342316 -0.1924458295106888 0.89030450582504272
vn 0.4398494064807892 -0.11785729229450226 0.89030450582504272
vn 0.45363280177116392 -0.03968773037195205 0.89030450582504272
vn 0.45363280177116392 0.03968773037195205 0.89030450582504272
vn 0.4398494064807892 0.11785729229450226 0.89030450582504272
vn 0.4127013981342316 0.1924458295106888 0.89030450582504272
vn 0.37301367521286008 0.26118698716163636 0.89030450582504272
vn 0.32199212908744812 0.32199212908744812 0.89030450582504272
vn 0.26118698716163636 0.37301367521286008 0.89030450582504272
vn 0.1924458295106888 0.4127013981342316 0.89030450582504272
vn 0.11785729229450226 0.4398494064807892 0.89030450582504272
vn 0.03968773037195205 0.45363280177116392 0.89030450582504272
vn -0.03968773037195205 0.45363280177116392 0.89030450582504272
vn -0.11785729229450226 0.4398494064807892 0.89030450582504272
vn -0.1924458295106888 0.4127013981342316 0.89030450582504272
vn -0.26118698716163636 0.37301367521286008 0.89030450582504272
vn -0.32199212908744812 0.32199212908744812 0.89030450582504272
vn -0.37301367521286008 0.26118698716163636 0.89030450582504272
vn -0.4127013981342316 0.1924458295106888 0.89030450582504272
vn -0.4398494064807892 0.11785729229450226 0.89030450582504272
vn -0.45363280177116392 0.03968773037195205 0.89030450582504272
vn -0.45363280177116392 -0.03968773037195205 0.89030450582504272
vn -0.4398494064807892 -0.11785729229450226 0.89030450582504272
vn -0.4127013981342316 -0.1924458295106888 0.89030450582504272
vn -0.37301367521286008 -0.26118698716163636 0.89030450582504272
vn -0.32199212908744812 -0.32199212908744812 0.89030450582504272
vn -0.26118698716163636 -0.37301367521286008 0.89030450582504272
vn -0.1924458295106888 -0.4127013981342316 0.89030450582504272
vn -0.11785729229450226 -0.4398494064807892 0.89030450582504272
vn -0.03968773037195205 -0.45363280177116392 0.89030450582504272
vn 0.03968773037195205 -0.45363280177116392 0.89030450582504272
vn 0.11785729229450226 -0.4398494064807892 0.89030450582504272
vn 0.1924458295106888 -0.4127013981342316 0.89030450582504272
vn 0.09006143361330032 -0.12862105667591094 0.98759585618972784
vn 0.11102800816297532 -0.11102800816297532 0.98759585618972784
vn 0.12862105667591094 -0.09006143361330032 0.98759585618972784
vn 0.14230601489543914 -0.06635838747024536 0.98759585618972784
vn 0.15166707336902618 -0.04063907265663147 0.98759585618972784
vn 0.15641981363296508 -0.01368496101349592 0.98759585618972784
vn 0.15641981363296508 0.01368496101349592 0.98759585618972784
vn 0.15166707336902618 0.04063907265663147 0.98759585618972784
vn 0.14230601489543914 0.06635838747024536 0.98759585618972784
vn 0.12862105667591094 0.09006143361330032 0.98759585618972784
vn 0.11102800816297532 0.11102800816297532 0.98759585618972784
vn 0.09006143361330032 0.12862105667591094 0.98759585618972784
vn 0.06635838747024536 0.14230601489543914 0.98759585618972784
vn 0.04063907265663147 0.15166707336902618 0.98759585618972784
vn 0.01368496101349592 0.15641981363296508 0.98759585618972784
vn -0.01368496101349592 0.15641981363296508 0.98759585618972784
vn -0.04063907265663147 0.15166707336902618 0.98759585618972784
vn -0.06635838747024536 0.14230601489543914 0.98759585618972784
vn -0.09006143361330032 0.12862105667591094 0.98759585618972784
vn -0.11102800816297532 0.11102800816297532 0.98759585618972784
vn -0.12862105667591094 0.09006143361330032 0.98759585618972784
vn -0.14230601489543914 0.06635838747024536 0.98759585618972784
vn -0.15166707336902618 0.04063907265663147 0.98759585618972784
vn -0.15641981363296508 0.01368496101349592 0.98759585618972784
vn -0.15641981363296508 -0.01368496101349592 0.98759585618972784
vn -0.15166707336902618 -0.04063907265663147 0.98759585618972784
vn -0.14230601489543914 -0.06635838747024536 0.98759585618972784
vn -0.12862105667591094 -0.09006143361330032 0.98759585618972784
vn -0.11102800816297532 -0.11102800816297532 0.98759585618972784
vn -0.09006143361330032 -0.12862105667591094 0.98759585618972784
vn -0.06635838747024536 -0.14230601489543914 0.98759585618972784
vn -0.04063907265663147 -0.15166707336902618 0.98759585618972784
vn -0.01368496101349592 -0.15641981363296508 0.98759585618972784
vn 0.01368496101349592 -0.15641981363296508 0.98759585618972784
vn 0.04063907265663147 -0.15166707336902618 0.98759585618972784
vn 0.06635838747024536 -0.14230601489543914 0.98759585618972784
vn 0.30193713307380676 -0.94042408466339104 0.15632197260856628
vn 0.09638843685388566 -0.98304527997970576 0.15598465502262116
vn -0.19860421121120452 -0.96752429008483888 0.1563749611377716
vn -0.3985984027385712 -0.90374356508255008 0.15609893202781678
vn -0.64798426628112792 -0.74542063474655152 0.15641121566295624
vn -0.7909032106399536 -0.59167116880416872 0.15619650483131408
vn -0.93045973777770992 -0.33132180571556092 0.15643075108528138
vn -0.97948670387268064 -0.12721310555934906 0.1562773585319519
vn -0.98430871963500976 0.08265471458435059 0.15589918196201324
vn -0.91578233242034912 0.37000006437301632 0.15634149312973022
vn -0.81695145368576048 0.55519962310791016 0.15602459013462066
vn -0.6162031292915344 0.77190428972244256 0.15638890862464904
vn -0.43918216228485104 0.8847267627716064 0.15613330900669098
vn -0.15791316330432892 0.9749853014945984 0.15641959011554718
vn 0.05169334635138512 0.98636782169342048 0.1562253087759018
vn 0.3410470485687256 0.92693877220153808 0.15643353760242462
vn 0.52924120426177976 0.83395075798034672 0.1563006043434143
vn 0.69356298446655272 0.70331519842147824 0.15594284236431122
vn 0.87046366930007936 0.46673852205276488 0.15635916590690612
vn 0.94948351383209232 0.27226001024246216 0.15606269240379334
vn 0.9874770045280456 -0.02068469487130642 0.15640099346637726
vn 0.9608407616615296 -0.2289045602083206 0.15616583824157714
vn 0.8501459956169128 -0.50277495384216312 0.1564261019229889
vn 0.72471761703491216 -0.67109584808349608 0.15625226497650146
vn 0 0 1
vn 0.32707777619361876 -0.4039074182510376 -0.854329526424408
vn 0.43588370084762576 -0.28306618332862856 -0.854329526424408
vn 0.50202232599258424 -0.13451646268367768 -0.854329526424408
vn 0.51901942491531376 0.02720065601170063 -0.854329526424408
vn 0.48521137237548832 0.18625518679618836 -0.854329526424408
vn 0.4039074182510376 0.32707777619361876 -0.854329526424408
vn 0.28306618332862856 0.43588370084762576 -0.854329526424408
vn 0.13451646268367768 0.50202232599258424 -0.854329526424408
vn -0.02720065601170063 0.51901942491531376 -0.854329526424408
vn -0.18625518679618836 0.48521137237548832 -0.854329526424408
vn -0.32707777619361876 0.4039074182510376 -0.854329526424408
vn -0.43588370084762576 0.28306618332862856 -0.854329526424408
vn -0.50202232599258424 0.13451646268367768 -0.854329526424408
vn -0.51901942491531376 -0.02720065601170063 -0.854329526424408
vn -0.48521137237548832 -0.18625518679618836 -0.854329526424408
vn -0.4039074182510376 -0.32707777619361876 -0.854329526424408
vn -0.28306618332862856 -0.43588370084762576 -0.854329526424408
vn -0.13451646268367768 -0.50202232599258424 -0.854329526424408
vn 0.02720065601170063 -0.51901942491531376 -0.854329526424408
vn 0.18625518679618836 -0.48521137237548832 -0.854329526424408
# 376 vertex normals

g obj_17349067
s 1
f 1//1 2//1 3//1
f 3//1 4//1 1//1
f 4//1 5//1 1//1
f 5//1 6//1 1//1
f 6//1 7//1 1//1
f 7//1 8//1 1//1
f 8//1 9//1 1//1
f 9//1 10//1 1//1
f 10//1 11//1 1//1
f 11//1 12//1 1//1
f 12//1 13//1 1//1
f 13//1 14//1 1//1
f 14//1 15//1 1//1
f 15//1 16//1 1//1
f 16//1 17//1 1//1
f 17//1 18//1 1//1
f 18//1 19//1 1//1
f 19//1 20//1 1//1
f 20//1 21//1 1//1
f 21//1 2//1 1//1
f 22//2 21//2 20//2
f 23//3 20//3 19//3
f 24//4 19//4 18//4
f 25//5 18//5 17//5
f 26//6 17//6 16//6
f 27//7 16//7 15//7
f 28//8 15//8 14//8
f 29//9 14//9 13//9
f 30//10 13//10 12//10
f 31//11 12//11 11//11
f 32//12 11//12 10//12
f 33//13 10//13 9//13
f 34//14 9//14 8//14
f 35//15 8//15 7//15
f 36//16 7//16 6//16
f 37//17 6//17 5//17
f 38//18 5//18 4//18
f 39//19 4//19 3//19
f 40//20 3//20 2//20
f 41//21 2//21 21//21
f 21//21 22//21 41//21
f 2//20 41//20 40//20
f 3//19 40//19 39//19
f 4//18 39//18 38//18
f 5//17 38//17 37//17
f 6//16 37//16 36//16
f 7//15 36//15 35//15
f 8//14 35//14 34//14
f 9//13 34//13 33//13
f 10//12 33//12 32//12
f 11//11 32//11 31//11
f 12//10 31//10 30//10
f 13//9 30//9 29//9
f 14//8 29//8 28//8
f 15//7 28//7 27//7
f 16//6 27//6 26//6
f 17//5 26//5 25//5
f 18//4 25//4 24//4
f 19//3 24//3 23//3
f 20//2 23//2 22//2
f 42//1 43//1 26//1
f 43//1 44//1 25//1
f 45//1 46//1 31//1
f 46//1 47//1 30//1
f 47//1 48//1 29//1
f 48//1 49//1 28//1
f 25//1 26//1 43//1
f 44//1 50//1 24//1
f 30//1 31//1 46//1
f 28//1 29//1 48//1
f 49//1 42//1 27//1
f 24//1 25//1 44//1
f 51//1 39//1 40//1
f 52//1 38//1 39//1
f 29//1 30//1 47//1
f 26//1 27//1 42//1
f 50//1 53//1 23//1
f 53//1 54//1 22//1
f 55//1 41//1 22//1
f 56//1 40//1 41//1
f 39//1 51//1 52//1
f 57//1 37//1 38//1
f 58//1 36//1 37//1
f 59//1 35//1 36//1
f 60//1 32//1 33//1
f 27//1 28//1 49//1
f 22//1 23//1 53//1
f 41//1 55//1 56//1
f 38//1 52//1 57//1
f 36//1 58//1 59//1
f 61//1 34//1 35//1
f 62//1 33//1 34//1
f 33//1 62//1 60//1
f 23//1 24//1 50//1
f 40//1 56//1 51//1
f 35//1 59//1 61//1
f 60//1 45//1 32//1
f 22//1 54//1 55//1
f 34//1 61//1 62//1
f 37//1 57//1 58//1
f 31//1 32//1 45//1
f 63//22 54//22 53//22
f 64//23 53//23 50//23
f 65//24 50//24 44//24
f 66//25 44//25 43//25
f 67//26 43//26 42//26
f 68//27 42//27 49//27
f 69//28 49//28 48//28
f 70//29 48//29 47//29
f 71//30 47//30 46//30
f 72//31 46//31 45//31
f 73//32 45//32 60//32
f 74//33 60//33 62//33
f 75//34 62//34 61//34
f 76//35 61//35 59//35
f 77//36 59//36 58//36
f 78//37 58//37 57//37
f 79//38 57//38 52//38
f 80//39 52//39 51//39
f 81//40 51//40 56//40
f 82//41 56//41 55//41
f 83//42 55//42 54//42
f 54//42 63//42 83//42
f 55//41 83//41 82//41
f 56//40 82//40 81//40
f 51//39 81//39 80//39
f 52//38 80//38 79//38
f 57//37 79//37 78//37
f 58//36 78//36 77//36
f 59//35 77//35 76//35
f 61//34 76//34 75//34
f 62//33 75//33 74//33
f 60//32 74//32 73//32
f 45//31 73//31 72//31
f 46//30 72//30 71//30
f 47//29 71//29 70//29
f 48//28 70//28 69//28
f 49//27 69//27 68//27
f 42//26 68//26 67//26
f 43//25 67//25 66//25
f 44//24 66//24 65//24
f 50//23 65//23 64//23
f 53//22 64//22 63//22
f 84//1 85//1 76//1
f 86//1 87//1 63//1
f 88//1 89//1 80//1
f 89//1 77//1 78//1
f 76//1 77//1 84//1
f 90//1 91//1 66//1
f 91//1 92//1 64//1
f 63//1 92//1 86//1
f 89//1 79//1 80//1
f 77//1 89//1 84//1
f 91//1 65//1 66//1
f 63//1 64//1 92//1
f 88//1 93//1 94//1
f 78//1 79//1 89//1
f 95//1 96//1 97//1
f 98//1 99//1 100//1
f 101//1 102//1 103//1
f 90//1 104//1 105//1
f 87//1 106//1 83//1
f 64//1 65//1 91//1
f 80//1 107//1 88//1
f 83//1 108//1 109//1
f 110//1 111//1 96//1
f 97//1 112//1 113//1
f 100//1 97//1 98//1
f 98//1 103//1 114//1
f 101//1 115//1 102//1
f 104//1 115//1 101//1
f 105//1 116//1 90//1
f 66//1 117//1 90//1
f 76//1 118//1 119//1
f 93//1 120//1 121//1
f 94//1 89//1 88//1
f 122//1 123//1 124//1
f 83//1 106//1 108//1
f 97//1 113//1 95//1
f 114//1 99//1 98//1
f 101//1 105//1 104//1
f 83//1 63//1 87//1
f 86//1 92//1 125//1
f 126//1 125//1 127//1
f 119//1 74//1 75//1
f 85//1 118//1 76//1
f 84//1 89//1 128//1
f 122//1 128//1 123//1
f 129//1 81//1 82//1
f 109//1 82//1 83//1
f 100//1 112//1 97//1
f 116//1 91//1 90//1
f 127//1 130//1 126//1
f 131//1 132//1 133//1
f 117//1 66//1 67//1
f 134//1 67//1 68//1
f 135//1 72//1 73//1
f 136//1 71//1 72//1
f 137//1 138//1 70//1
f 121//1 94//1 93//1
f 124//1 139//1 122//1
f 140//1 141//1 142//1
f 143//1 141//1 140//1
f 109//1 144//1 82//1
f 103//1 98//1 101//1
f 127//1 145//1 130//1
f 133//1 127//1 131//1
f 68//1 146//1 134//1
f 69//1 147//1 148//1
f 149//1 147//1 69//1
f 72//1 135//1 136//1
f 70//1 136//1 137//1
f 150//1 151//1 152//1
f 120//1 151//1 150//1
f 128//1 122//1 84//1
f 107//1 80//1 81//1
f 124//1 153//1 154//1
f 140//1 155//1 143//1
f 73//1 156//1 157//1
f 156//1 73//1 74//1
f 96//1 95//1 110//1
f 133//1 145//1 127//1
f 68//1 148//1 146//1
f 69//1 70//1 149//1
f 70//1 71//1 136//1
f 150//1 121//1 120//1
f 81//1 129//1 107//1
f 154//1 158//1 124//1
f 153//1 159//1 160//1
f 155//1 157//1 143//1
f 74//1 161//1 156//1
f 74//1 119//1 162//1
f 125//1 126//1 86//1
f 148//1 68//1 69//1
f 73//1 155//1 135//1
f 137//1 136//1 111//1
f 131//1 150//1 163//1
f 119//1 75//1 76//1
f 160//1 154//1 153//1
f 157//1 155//1 73//1
f 162//1 164//1 74//1
f 67//1 134//1 117//1
f 111//1 110//1 137//1
f 163//1 165//1 131//1
f 158//1 139//1 124//1
f 164//1 161//1 74//1
f 138//1 149//1 70//1
f 152//1 163//1 150//1
f 142//1 166//1 140//1
f 165//1 132//1 131//1
f 153//1 166//1 167//1
f 82//1 144//1 129//1
f 166//1 168//1 167//1
f 167//1 159//1 153//1
f 142//1 168//1 166//1
f 125//43 92//43 169//43
f 92//44 170//44 169//44
f 91//45 171//45 172//45
f 172//46 92//46 91//46
f 91//47 116//47 173//47
f 173//48 174//48 91//48
f 116//49 175//49 173//49
f 105//50 176//50 177//50
f 177//51 116//51 105//51
f 105//52 178//52 179//52
f 101//53 180//53 178//53
f 178//54 105//54 101//54
f 179//55 176//55 105//55
f 101//56 98//56 181//56
f 98//57 182//57 181//57
f 98//58 183//58 184//58
f 97//59 185//59 183//59
f 183//60 98//60 97//60
f 184//61 182//61 98//61
f 97//62 96//62 186//62
f 96//63 187//63 186//63
f 111//64 188//64 189//64
f 189//65 96//65 111//65
f 111//66 136//66 190//66
f 190//67 191//67 111//67
f 136//68 192//68 190//68
f 135//69 193//69 194//69
f 194//70 136//70 135//70
f 135//71 155//71 195//71
f 195//72 196//72 135//72
f 155//73 197//73 195//73
f 140//74 198//74 199//74
f 199//75 155//75 140//75
f 140//76 200//76 201//76
f 166//77 202//77 200//77
f 200//78 140//78 166//78
f 201//79 198//79 140//79
f 166//80 153//80 203//80
f 153//81 204//81 203//81
f 153//82 205//82 206//82
f 124//83 207//83 205//83
f 205//84 153//84 124//84
f 206//85 204//85 153//85
f 124//86 123//86 208//86
f 123//87 209//87 208//87
f 128//88 210//88 211//88
f 211//89 123//89 128//89
f 128//90 89//90 212//90
f 212//91 213//91 128//91
f 89//92 214//92 212//92
f 94//93 215//93 216//93
f 216//94 89//94 94//94
f 94//95 121//95 217//95
f 217//96 218//96 94//96
f 121//97 219//97 217//97
f 121//98 150//98 220//98
f 150//99 221//99 220//99
f 150//100 222//100 223//100
f 131//101 224//101 222//101
f 222//102 150//102 131//102
f 223//103 221//103 150//103
f 131//104 127//104 225//104
f 127//105 226//105 225//105
f 125//106 227//106 228//106
f 228//107 127//107 125//107
f 228//108 226//108 127//108
f 225//109 224//109 131//109
f 220//110 219//110 121//110
f 218//111 215//111 94//111
f 216//112 214//112 89//112
f 213//113 210//113 128//113
f 211//114 209//114 123//114
f 208//115 207//115 124//115
f 203//116 202//116 166//116
f 199//117 197//117 155//117
f 196//118 193//118 135//118
f 194//119 192//119 136//119
f 191//120 188//120 111//120
f 189//121 187//121 96//121
f 186//122 185//122 97//122
f 181//123 180//123 101//123
f 177//124 175//124 116//124
f 174//125 171//125 91//125
f 172//126 170//126 92//126
f 169//127 227//127 125//127
f 229//128 227//128 169//128
f 230//129 231//129 170//129
f 231//130 169//130 170//130
f 230//131 172//131 171//131
f 171//132 232//132 230//132
f 232//133 174//133 173//133
f 233//134 234//134 175//134
f 234//135 173//135 175//135
f 233//136 177//136 176//136
f 176//137 235//137 233//137
f 235//138 179//138 178//138
f 236//139 237//139 180//139
f 237//140 178//140 180//140
f 236//141 181//141 182//141
f 182//142 238//142 236//142
f 238//143 184//143 183//143
f 239//144 240//144 185//144
f 240//145 183//145 185//145
f 239//146 186//146 187//146
f 187//147 241//147 239//147
f 241//148 189//148 188//148
f 188//149 242//149 241//149
f 242//150 191//150 190//150
f 243//151 244//151 192//151
f 244//152 190//152 192//152
f 243//153 194//153 193//153
f 193//154 245//154 243//154
f 245//155 196//155 195//155
f 246//156 247//156 197//156
f 247//157 195//157 197//157
f 246//158 199//158 198//158
f 198//159 248//159 246//159
f 248//160 201//160 200//160
f 249//161 250//161 202//161
f 250//162 200//162 202//162
f 249//163 203//163 204//163
f 204//164 251//164 249//164
f 251//165 206//165 205//165
f 252//166 253//166 207//166
f 253//167 205//167 207//167
f 254//168 252//168 209//168
f 252//169 208//169 209//169
f 254//170 211//170 210//170
f 210//171 255//171 254//171
f 255//172 213//172 212//172
f 256//173 257//173 214//173
f 257//174 212//174 214//174
f 256//175 216//175 215//175
f 215//176 258//176 256//176
f 258//177 218//177 217//177
f 259//178 260//178 219//178
f 260//179 217//179 219//179
f 259//180 220//180 221//180
f 221//181 261//181 259//181
f 261//182 223//182 222//182
f 262//183 263//183 224//183
f 263//184 222//184 224//184
f 262//185 225//185 226//185
f 226//186 264//186 262//186
f 264//187 228//187 227//187
f 265//188 229//188 231//188
f 266//189 231//189 230//189
f 267//190 230//190 232//190
f 268//191 232//191 234//191
f 269//192 234//192 233//192
f 270//193 233//193 235//193
f 271//194 235//194 237//194
f 272//195 237//195 236//195
f 273//196 236//196 238//196
f 274//197 238//197 240//197
f 275//198 240//198 239//198
f 276//199 239//199 241//199
f 277//200 241//200 242//200
f 278//201 242//201 244//201
f 279//202 244//202 243//202
f 280//203 243//203 245//203
f 281//204 245//204 247//204
f 282//205 247//205 246//205
f 283//206 246//206 248//206
f 284//207 248//207 250//207
f 285//208 250//208 249//208
f 286//209 249//209 251//209
f 287//210 251//210 253//210
f 288//211 253//211 252//211
f 289//212 252//212 254//212
f 290//213 254//213 255//213
f 291//214 255//214 257//214
f 292//215 257//215 256//215
f 293//216 256//216 258//216
f 294//217 258//217 260//217
f 295//218 260//218 259//218
f 296//219 259//219 261//219
f 297//220 261//220 263//220
f 298//221 263//221 262//221
f 299//222 262//222 264//222
f 300//223 264//223 229//223
f 301//224 265//224 266//224
f 302//225 266//225 267//225
f 303//226 267//226 268//226
f 304//227 268//227 269//227
f 305//228 269//228 270//228
f 306//229 270//229 271//229
f 307//230 271//230 272//230
f 308//231 272//231 273//231
f 309//232 273//232 274//232
f 310//233 274//233 275//233
f 311//234 275//234 276//234
f 312//235 276//235 277//235
f 313//236 277//236 278//236
f 314//237 278//237 279//237
f 315//238 279//238 280//238
f 316//239 280//239 281//239
f 317//240 281//240 282//240
f 318//241 282//241 283//241
f 319//242 283//242 284//242
f 320//243 284//243 285//243
f 321//244 285//244 286//244
f 322//245 286//245 287//245
f 323//246 287//246 288//246
f 324//247 288//247 289//247
f 325//248 289//248 290//248
f 326//249 290//249 291//249
f 327//250 291//250 292//250
f 328//251 292//251 293//251
f 329//252 293//252 294//252
f 330//253 294//253 295//253
f 331//254 295//254 296//254
f 332//255 296//255 297//255
f 333//256 297//256 298//256
f 334//257 298//257 299//257
f 335//258 299//258 300//258
f 336//259 300//259 265//259
f 337//260 301//260 302//260
f 338//261 302//261 303//261
f 339//262 303//262 304//262
f 340//263 304//263 305//263
f 341//264 305//264 306//264
f 342//265 306//265 307//265
f 343//266 307//266 308//266
f 344//267 308//267 309//267
f 345//268 309//268 310//268
f 346//269 310//269 311//269
f 347//270 311//270 312//270
f 348//271 312//271 313//271
f 349//272 313//272 314//272
f 350//273 314//273 315//273
f 351//274 315//274 316//274
f 352//275 316//275 317//275
f 353//276 317//276 318//276
f 354//277 318//277 319//277
f 355//278 319//278 320//278
f 356//279 320//279 321//279
f 357//280 321//280 322//280
f 358//281 322//281 323//281
f 359//282 323//282 324//282
f 360//283 324//283 325//283
f 361//284 325//284 326//284
f 362//285 326//285 327//285
f 363//286 327//286 328//286
f 364//287 328//287 329//287
f 365//288 329//288 330//288
f 366//289 330//289 331//289
f 367//290 331//290 332//290
f 368//291 332//291 333//291
f 369//292 333//292 334//292
f 370//293 334//293 335//293
f 371//294 335//294 336//294
f 372//295 336//295 301//295
f 373//296 337//296 338//296
f 374//297 338//297 339//297
f 375//298 339//298 340//298
f 376//299 340//299 341//299
f 377//300 341//300 342//300
f 378//301 342//301 343//301
f 379//302 343//302 344//302
f 380//303 344//303 345//303
f 381//304 345//304 346//304
f 382//305 346//305 347//305
f 383//306 347//306 348//306
f 384//307 348//307 349//307
f 385//308 349//308 350//308
f 386//309 350//309 351//309
f 387//310 351//310 352//310
f 388//311 352//311 353//311
f 389//312 353//312 354//312
f 390//313 354//313 355//313
f 391//314 355//314 356//314
f 392//315 356//315 357//315
f 393//316 357//316 358//316
f 394//317 358//317 359//317
f 395//318 359//318 360//318
f 396//319 360//319 361//319
f 397//320 361//320 362//320
f 398//321 362//321 363//321
f 399//322 363//322 364//322
f 400//323 364//323 365//323
f 401//324 365//324 366//324
f 402//325 366//325 367//325
f 403//326 367//326 368//326
f 404//327 368//327 369//327
f 405//328 369//328 370//328
f 406//329 370//329 371//329
f 407//330 371//330 372//330
f 408//331 372//331 337//331
f 337//331 373//331 408//331
f 372//330 408//330 407//330
f 371//329 407//329 406//329
f 370//328 406//328 405//328
f 369//327 405//327 404//327
f 368//326 404//326 403//326
f 367//325 403//325 402//325
f 366//324 402//324 401//324
f 365//323 401//323 400//323
f 364//322 400//322 399//322
f 363//321 399//321 398//321
f 362//320 398//320 397//320
f 361//319 397//319 396//319
f 360//318 396//318 395//318
f 359//317 395//317 394//317
f 358//316 394//316 393//316
f 357//315 393//315 392//315
f 356//314 392//314 391//314
f 355//313 391//313 390//313
f 354//312 390//312 389//312
f 353//311 389//311 388//311
f 352//310 388//310 387//310
f 351//309 387//309 386//309
f 350//308 386//308 385//308
f 349//307 385//307 384//307
f 348//306 384//306 383//306
f 347//305 383//305 382//305
f 346//304 382//304 381//304
f 345//303 381//303 380//303
f 344//302 380//302 379//302
f 343//301 379//301 378//301
f 342//300 378//300 377//300
f 341//299 377//299 376//299
f 340//298 376//298 375//298
f 339//297 375//297 374//297
f 338//296 374//296 373//296
f 301//295 337//295 372//295
f 336//294 372//294 371//294
f 335//293 371//293 370//293
f 334//292 370//292 369//292
f 333//291 369//291 368//291
f 332//290 368//290 367//290
f 331//289 367//289 366//289
f 330//288 366//288 365//288
f 329//287 365//287 364//287
f 328//286 364//286 363//286
f 327//285 363//285 362//285
f 326//284 362//284 361//284
f 325//283 361//283 360//283
f 324//282 360//282 359//282
f 323//281 359//281 358//281
f 322//280 358//280 357//280
f 321//279 357//279 356//279
f 320//278 356//278 355//278
f 319//277 355//277 354//277
f 318//276 354//276 353//276
f 317//275 353//275 352//275
f 316//274 352//274 351//274
f 315//273 351//273 350//273
f 314//272 350//272 349//272
f 313//271 349//271 348//271
f 312//270 348//270 347//270
f 311//269 347//269 346//269
f 310//268 346//268 345//268
f 309//267 345//267 344//267
f 308//266 344//266 343//266
f 307//265 343//265 342//265
f 306//264 342//264 341//264
f 305//263 341//263 340//263
f 304//262 340//262 339//262
f 303//261 339//261 338//261
f 302//260 338//260 337//260
f 265//259 301//259 336//259
f 300//258 336//258 335//258
f 299//257 335//257 334//257
f 298//256 334//256 333//256
f 297//255 333//255 332//255
f 296//254 332//254 331//254
f 295//253 331//253 330//253
f 294//252 330//252 329//252
f 293//251 329//251 328//251
f 292//250 328//250 327//250
f 291//249 327//249 326//249
f 290//248 326//248 325//248
f 289//247 325//247 324//247
f 288//246 324//246 323//246
f 287//245 323//245 322//245
f 286//244 322//244 321//244
f 285//243 321//243 320//243
f 284//242 320//242 319//242
f 283//241 319//241 318//241
f 282//240 318//240 317//240
f 281//239 317//239 316//239
f 280//238 316//238 315//238
f 279//237 315//237 314//237
f 278//236 314//236 313//236
f 277//235 313//235 312//235
f 276//234 312//234 311//234
f 275//233 311//233 310//233
f 274//232 310//232 309//232
f 273//231 309//231 308//231
f 272//230 308//230 307//230
f 271//229 307//229 306//229
f 270//228 306//228 305//228
f 269//227 305//227 304//227
f 268//226 304//226 303//226
f 267//225 303//225 302//225
f 266//224 302//224 301//224
f 229//223 265//223 300//223
f 264//222 300//222 299//222
f 262//221 299//221 298//221
f 263//220 298//220 297//220
f 261//219 297//219 296//219
f 259//218 296//218 295//218
f 260//217 295//217 294//217
f 258//216 294//216 293//216
f 256//215 293//215 292//215
f 257//214 292//214 291//214
f 255//213 291//213 290//213
f 254//212 290//212 289//212
f 252//211 289//211 288//211
f 253//210 288//210 287//210
f 251//209 287//209 286//209
f 249//208 286//208 285//208
f 250//207 285//207 284//207
f 248//206 284//206 283//206
f 246//205 283//205 282//205
f 247//204 282//204 281//204
f 245//203 281//203 280//203
f 243//202 280//202 279//202
f 244//201 279//201 278//201
f 242//200 278//200 277//200
f 241//199 277//199 276//199
f 239//198 276//198 275//198
f 240//197 275//197 274//197
f 238//196 274//196 273//196
f 236//195 273//195 272//195
f 237//194 272//194 271//194
f 235//193 271//193 270//193
f 233//192 270//192 269//192
f 234//191 269//191 268//191
f 232//190 268//190 267//190
f 230//189 267//189 266//189
f 231//188 266//188 265//188
f 227//187 229//187 264//187
f 226//332 228//332 264//332
f 224//333 225//333 262//333
f 222//182 263//182 261//182
f 221//334 223//334 261//334
f 219//335 220//335 259//335
f 217//177 260//177 258//177
f 215//336 218//336 258//336
f 214//337 216//337 256//337
f 212//172 257//172 255//172
f 210//338 213//338 255//338
f 209//339 211//339 254//339
f 207//340 208//340 252//340
f 205//165 253//165 251//165
f 204//341 206//341 251//341
f 202//342 203//342 249//342
f 200//160 250//160 248//160
f 198//343 201//343 248//343
f 197//344 199//344 246//344
f 195//155 247//155 245//155
f 193//345 196//345 245//345
f 192//346 194//346 243//346
f 190//150 244//150 242//150
f 188//347 191//347 242//347
f 187//348 189//348 241//348
f 185//349 186//349 239//349
f 183//143 240//143 238//143
f 182//350 184//350 238//350
f 180//351 181//351 236//351
f 178//138 237//138 235//138
f 176//352 179//352 235//352
f 175//353 177//353 233//353
f 173//133 234//133 232//133
f 171//354 174//354 232//354
f 170//355 172//355 230//355
f 169//128 231//128 229//128
f 409//356 374//356 375//356
f 375//356 376//356 409//356
f 376//356 377//356 409//356
f 377//356 378//356 409//356
f 378//356 379//356 409//356
f 379//356 380//356 409//356
f 380//356 381//356 409//356
f 381//356 382//356 409//356
f 382//356 383//356 409//356
f 383//356 384//356 409//356
f 384//356 385//356 409//356
f 385//356 386//356 409//356
f 386//356 387//356 409//356
f 387//356 388//356 409//356
f 388//356 389//356 409//356
f 389//356 390//356 409//356
f 390//356 391//356 409//356
f 391//356 392//356 409//356
f 392//356 393//356 409//356
f 393//356 394//356 409//356
f 394//356 395//356 409//356
f 395//356 396//356 409//356
f 396//356 397//356 409//356
f 397//356 398//356 409//356
f 398//356 399//356 409//356
f 399//356 400//356 409//356
f 400//356 401//356 409//356
f 401//356 402//356 409//356
f 402//356 403//356 409//356
f 403//356 404//356 409//356
f 404//356 405//356 409//356
f 405//356 406//356 409//356
f 406//356 407//356 409//356
f 407//356 408//356 409//356
f 408//356 373//356 409//356
f 373//356 374//356 409//356
f 410//11 411//11 104//11
f 412//10 410//10 90//10
f 413//9 412//9 117//9
f 414//8 413//8 134//8
f 415//7 414//7 146//7
f 416//6 415//6 148//6
f 417//5 416//5 147//5
f 418//4 417//4 149//4
f 419//3 418//3 138//3
f 420//2 419//2 137//2
f 421//21 420//21 110//21
f 422//20 421//20 95//20
f 423//19 422//19 113//19
f 424//18 423//18 112//18
f 425//17 424//17 100//17
f 426//16 425//16 99//16
f 427//15 426//15 114//15
f 428//14 427//14 103//14
f 429//13 428//13 102//13
f 411//12 429//12 115//12
f 115//12 104//12 411//12
f 102//13 115//13 429//13
f 103//14 102//14 428//14
f 114//15 103//15 427//15
f 99//16 114//16 426//16
f 100//17 99//17 425//17
f 112//18 100//18 424//18
f 113//19 112//19 423//19
f 95//20 113//20 422//20
f 110//21 95//21 421//21
f 137//2 110//2 420//2
f 138//3 137//3 419//3
f 149//4 138//4 418//4
f 147//5 149//5 417//5
f 148//6 147//6 416//6
f 146//7 148//7 415//7
f 134//8 146//8 414//8
f 117//9 134//9 413//9
f 90//10 117//10 412//10
f 104//11 90//11 410//11
f 430//357 419//357 420//357
f 430//358 418//358 419//358
f 430//359 417//359 418//359
f 430//360 416//360 417//360
f 430//361 415//361 416//361
f 430//362 414//362 415//362
f 430//363 413//363 414//363
f 430//364 412//364 413//364
f 430//365 410//365 412//365
f 430//366 411//366 410//366
f 430//367 429//367 411//367
f 430//368 428//368 429//368
f 430//369 427//369 428//369
f 430//370 426//370 427//370
f 430//371 425//371 426//371
f 430//372 424//372 425//372
f 430//373 423//373 424//373
f 430//374 422//374 423//374
f 430//375 421//375 422//375
f 430//376 420//376 421//376
f 431//11 432//11 133//11
f 433//10 431//10 132//10
f 434//9 433//9 165//9
f 435//8 434//8 163//8
f 436//7 435//7 152//7
f 437//6 436//6 151//6
f 438//5 437//5 120//5
f 439//4 438//4 93//4
f 440//3 439//3 88//3
f 441//2 440//2 107//2
f 442//21 441//21 129//21
f 443//20 442//20 144//20
f 444//19 443//19 109//19
f 445//18 444//18 108//18
f 446//17 445//17 106//17
f 447//16 446//16 87//16
f 448//15 447//15 86//15
f 449//14 448//14 126//14
f 450//13 449//13 130//13
f 432//12 450//12 145//12
f 145//12 133//12 432//12
f 130//13 145//13 450//13
f 126//14 130//14 449//14
f 86//15 126//15 448//15
f 87//16 86//16 447//16
f 106//17 87//17 446//17
f 108//18 106//18 445//18
f 109//19 108//19 444//19
f 144//20 109//20 443//20
f 129//21 144//21 442//21
f 107//2 129//2 441//2
f 88//3 107//3 440//3
f 93//4 88//4 439//4
f 120//5 93//5 438//5
f 151//6 120//6 437//6
f 152//7 151//7 436//7
f 163//8 152//8 435//8
f 165//9 163//9 434//9
f 132//10 165//10 433//10
f 133//11 132//11 431//11
f 451//357 440//357 441//357
f 451//358 439//358 440//358
f 451//359 438//359 439//359
f 451//360 437//360 438//360
f 451//361 436//361 437//361
f 451//362 435//362 436//362
f 451//363 434//363 435//363
f 451//364 433//364 434//364
f 451//365 431//365 433//365
f 451//366 432//366 431//366
f 451//367 450//367 432//367
f 451//368 449//368 450//368
f 451//369 448//369 449//369
f 451//370 447//370 448//370
f 451//371 446//371 447//371
f 451//372 445//372 446//372
f 451//373 444//373 445//373
f 451//374 443//374 444//374
f 451//375 442//375 443//375
f 451//376 441//376 442//376
f 452//11 453//11 118//11
f 454//10 452//10 85//10
f 455//9 454//9 84//9
f 456//8 455//8 122//8
f 457//7 456//7 139//7
f 458//6 457//6 158//6
f 459//5 458//5 154//5
f 460//4 459//4 160//4
f 461//3 460//3 159//3
f 462//2 461//2 167//2
f 463//21 462//21 168//21
f 464//20 463//20 142//20
f 465//19 464//19 141//19
f 466//18 465//18 143//18
f 467//17 466//17 157//17
f 468//16 467//16 156//16
f 469//15 468//15 161//15
f 470//14 469//14 164//14
f 471//13 470//13 162//13
f 453//12 471//12 119//12
f 119//12 118//12 453//12
f 162//13 119//13 471//13
f 164//14 162//14 470//14
f 161//15 164//15 469//15
f 156//16 161//16 468//16
f 157//17 156//17 467//17
f 143//18 157//18 466//18
f 141//19 143//19 465//19
f 142//20 141//20 464//20
f 168//21 142//21 463//21
f 167//2 168//2 462//2
f 159//3 167//3 461//3
f 160//4 159//4 460//4
f 154//5 160//5 459//5
f 158//6 154//6 458//6
f 139//7 158//7 457//7
f 122//8 139//8 456//8
f 84//9 122//9 455//9
f 85//10 84//10 454//10
f 118//11 85//11 452//11
f 472//357 461//357 462//357
f 472//358 460//358 461//358
f 472//359 459//359 460//359
f 472//360 458//360 459//360
f 472//361 457//361 458//361
f 472//362 456//362 457//362
f 472//363 455//363 456//363
f 472//364 454//364 455//364
f 472//365 452//365 454//365
f 472//366 453//366 452//366
f 472//367 471//367 453//367
f 472//368 470//368 471//368
f 472//369 469//369 470//369
f 472//370 468//370 469//370
f 472//371 467//371 468//371
f 472//372 466//372 467//372
f 472//373 465//373 466//373
f 472//374 464//374 465//374
f 472//375 463//375 464//375
f 472//376 462//376 463//376
#940 polygons

