# Aspose.3D Wavefront OBJ Exporter
# Copyright 2004-2023 Aspose Pty Ltd.
# File created: 06/30/2023 19:29:35


#
# object obj_56177626
#

v 2.34570002555847168 -124.20600128173828124 -22.22500038146972656
v 2.34570002555847168 -123.74880218505859376 -22.22500038146972656
v 2.47561073303222656 -123.74880218505859376 -23.04522323608398438
v 2.47561073303222656 -124.20600128173828124 -23.04522323608398438
v 2.852626085281372 -123.74880218505859376 -23.7851581573486328
v 2.852626085281372 -124.20600128173828124 -23.7851581573486328
v 3.43984150886535648 -123.74880218505859376 -24.3723735809326172
v 3.43984150886535648 -124.20600128173828124 -24.3723735809326172
v 4.17977619171142578 -123.74880218505859376 -24.7493896484375
v 4.17977619171142578 -124.20600128173828124 -24.7493896484375
v 5 -123.74880218505859376 -24.87929916381835936
v 5 -124.20600128173828124 -24.87929916381835936
v 5.82022380828857424 -123.74880218505859376 -24.7493896484375
v 5.82022380828857424 -124.20600128173828124 -24.7493896484375
v 6.56015825271606448 -123.74880218505859376 -24.3723735809326172
v 6.56015825271606448 -124.20600128173828124 -24.3723735809326172
v 7.14737367630004882 -123.74880218505859376 -23.7851581573486328
v 7.14737367630004882 -124.20600128173828124 -23.7851581573486328
v 7.52438926696777344 -123.74880218505859376 -23.04522323608398438
v 7.52438926696777344 -124.20600128173828124 -23.04522323608398438
v 7.65430021286010744 -123.74880218505859376 -22.22500038146972656
v 7.65430021286010744 -124.20600128173828124 -22.22500038146972656
v 7.52438926696777344 -123.74880218505859376 -21.40477561950683592
v 7.52438926696777344 -124.20600128173828124 -21.40477561950683592
v 7.14737367630004882 -123.74880218505859376 -20.66484069824218752
v 7.14737367630004882 -124.20600128173828124 -20.66484069824218752
v 6.56015825271606448 -123.74880218505859376 -20.07762527465820312
v 6.56015825271606448 -124.20600128173828124 -20.07762527465820312
v 5.82022380828857424 -123.74880218505859376 -19.70061111450195312
v 5.82022380828857424 -124.20600128173828124 -19.70061111450195312
v 5 -123.74880218505859376 -19.57069969177246096
v 5 -124.20600128173828124 -19.57069969177246096
v 4.17977619171142578 -123.74880218505859376 -19.70061111450195312
v 4.17977619171142578 -124.20600128173828124 -19.70061111450195312
v 3.43984150886535648 -123.74880218505859376 -20.07762527465820312
v 3.43984150886535648 -124.20600128173828124 -20.07762527465820312
v 2.852626085281372 -123.74880218505859376 -20.66484069824218752
v 2.852626085281372 -124.20600128173828124 -20.66484069824218752
v 2.47561073303222656 -123.74880218505859376 -21.40477561950683592
v 2.47561073303222656 -124.20600128173828124 -21.40477561950683592
v 5 -123.74880218505859376 -23.68549919128417968
v 4.5486807823181152 -123.74880218505859376 -23.6140174865722656
v 4.1415395736694336 -123.74880218505859376 -23.40656852722167968
v 3.81843066215515136 -123.74880218505859376 -23.08345985412597656
v 3.61098194122314456 -123.74880218505859376 -22.67631912231445312
v 6.38901805877685544 -123.74880218505859376 -22.67631912231445312
v 6.18156909942626952 -123.74880218505859376 -23.08345985412597656
v 5.8584604263305664 -123.74880218505859376 -23.40656852722167968
v 5.4513192176818848 -123.74880218505859376 -23.6140174865722656
v 3.53949999809265136 -123.74880218505859376 -22.22500038146972656
v 3.61098194122314456 -123.74880218505859376 -21.7736797332763672
v 3.81843066215515136 -123.74880218505859376 -21.36653900146484376
v 5.4513192176818848 -123.74880218505859376 -20.83598136901855472
v 5.8584604263305664 -123.74880218505859376 -21.04343032836914062
v 4.5486807823181152 -123.74880218505859376 -20.83598136901855472
v 5 -123.74880218505859376 -20.76449966430664064
v 6.18156909942626952 -123.74880218505859376 -21.36653900146484376
v 4.1415395736694336 -123.74880218505859376 -21.04343032836914062
v 6.38901805877685544 -123.74880218505859376 -21.7736797332763672
v 6.46049976348876952 -123.74880218505859376 -22.22500038146972656
v 6.38901805877685544 -124.20600128173828124 -21.7736797332763672
v 6.46049976348876952 -124.20600128173828124 -22.22500038146972656
v 6.18156909942626952 -124.20600128173828124 -21.36653900146484376
v 3.81843066215515136 -124.20600128173828124 -23.08345985412597656
v 3.61098194122314456 -124.20600128173828124 -22.67631912231445312
v 4.1415395736694336 -124.20600128173828124 -23.40656852722167968
v 4.5486807823181152 -124.20600128173828124 -23.6140174865722656
v 5 -124.20600128173828124 -23.68549919128417968
v 5.8584604263305664 -124.20600128173828124 -23.40656852722167968
v 5.4513192176818848 -124.20600128173828124 -23.6140174865722656
v 6.18156909942626952 -124.20600128173828124 -23.08345985412597656
v 5.8584604263305664 -124.20600128173828124 -21.04343032836914062
v 5.4513192176818848 -124.20600128173828124 -20.83598136901855472
v 5 -124.20600128173828124 -20.76449966430664064
v 4.5486807823181152 -124.20600128173828124 -20.83598136901855472
v 4.1415395736694336 -124.20600128173828124 -21.04343032836914062
v 3.53949999809265136 -124.20600128173828124 -22.22500038146972656
v 6.38901805877685544 -124.20600128173828124 -22.67631912231445312
v 3.81843066215515136 -124.20600128173828124 -21.36653900146484376
v 3.61098194122314456 -124.20600128173828124 -21.7736797332763672
v -14.24741458892822264 -124.20600128173828124 13.76679992675781248
v -14.24741458892822264 -123.74880218505859376 13.76679992675781248
v -15.06763839721679688 -123.74880218505859376 13.63688945770263672
v -15.06763839721679688 -124.20600128173828124 13.63688945770263672
v -15.80757331848144528 -123.74880218505859376 13.25987339019775392
v -15.80757331848144528 -124.20600128173828124 13.25987339019775392
v -16.39478874206542968 -123.74880218505859376 12.67265796661376952
v -16.39478874206542968 -124.20600128173828124 12.67265796661376952
v -16.77180480957031248 -123.74880218505859376 11.93272399902343744
v -16.77180480957031248 -124.20600128173828124 11.93272399902343744
v -16.90171432495117184 -123.74880218505859376 11.11250019073486328
v -16.90171432495117184 -124.20600128173828124 11.11250019073486328
v -16.77180480957031248 -123.74880218505859376 10.29227638244628908
v -16.77180480957031248 -124.20600128173828124 10.29227638244628908
v -16.39478874206542968 -123.74880218505859376 9.55234146118164064
v -16.39478874206542968 -124.20600128173828124 9.55234146118164064
v -15.80757331848144528 -123.74880218505859376 8.96512603759765632
v -15.80757331848144528 -124.20600128173828124 8.96512603759765632
v -15.06763839721679688 -123.74880218505859376 8.58811092376708984
v -15.06763839721679688 -124.20600128173828124 8.58811092376708984
v -14.24741458892822264 -123.74880218505859376 8.45820045471191408
v -14.24741458892822264 -124.20600128173828124 8.45820045471191408
v -13.4271907806396484 -123.74880218505859376 8.58811092376708984
v -13.4271907806396484 -124.20600128173828124 8.58811092376708984
v -12.687255859375 -123.74880218505859376 8.96512603759765632
v -12.687255859375 -124.20600128173828124 8.96512603759765632
v -12.10004043579101562 -123.74880218505859376 9.55234146118164064
v -12.10004043579101562 -124.20600128173828124 9.55234146118164064
v -11.72302532196044928 -123.74880218505859376 10.29227638244628908
v -11.72302532196044928 -124.20600128173828124 10.29227638244628908
v -11.59311485290527344 -123.74880218505859376 11.11250019073486328
v -11.59311485290527344 -124.20600128173828124 11.11250019073486328
v -11.72302532196044928 -123.74880218505859376 11.93272399902343744
v -11.72302532196044928 -124.20600128173828124 11.93272399902343744
v -12.10004043579101562 -123.74880218505859376 12.67265796661376952
v -12.10004043579101562 -124.20600128173828124 12.67265796661376952
v -12.687255859375 -123.74880218505859376 13.25987339019775392
v -12.687255859375 -124.20600128173828124 13.25987339019775392
v -13.4271907806396484 -123.74880218505859376 13.63688945770263672
v -13.4271907806396484 -124.20600128173828124 13.63688945770263672
v -15.70791435241699216 -123.74880218505859376 11.11250019073486328
v -15.63643264770507816 -123.74880218505859376 11.56381893157958984
v -15.42898368835449216 -123.74880218505859376 11.97096061706542976
v -15.10587501525878906 -123.74880218505859376 12.2940692901611328
v -14.6987342834472656 -123.74880218505859376 12.50151824951171872
v -14.6987342834472656 -123.74880218505859376 9.72348213195800784
v -15.10587501525878906 -123.74880218505859376 9.93093109130859376
v -15.42898368835449216 -123.74880218505859376 10.25403976440429688
v -15.63643264770507816 -123.74880218505859376 10.66118049621582032
v -14.24741458892822264 -123.74880218505859376 12.5729999542236328
v -13.79609489440917968 -123.74880218505859376 12.50151824951171872
v -13.38895416259765624 -123.74880218505859376 12.2940692901611328
v -12.8583965301513672 -123.74880218505859376 10.66118049621582032
v -13.06584548950195312 -123.74880218505859376 10.25403976440429688
v -12.8583965301513672 -123.74880218505859376 11.56381893157958984
v -12.78691482543945312 -123.74880218505859376 11.11250019073486328
v -13.38895416259765624 -123.74880218505859376 9.93093109130859376
v -13.06584548950195312 -123.74880218505859376 11.97096061706542976
v -13.79609489440917968 -123.74880218505859376 9.72348213195800784
v -14.24741458892822264 -123.74880218505859376 9.65200042724609376
v -13.79609489440917968 -124.20600128173828124 9.72348213195800784
v -14.24741458892822264 -124.20600128173828124 9.65200042724609376
v -13.38895416259765624 -124.20600128173828124 9.93093109130859376
v -15.10587501525878906 -124.20600128173828124 12.2940692901611328
v -14.6987342834472656 -124.20600128173828124 12.50151824951171872
v -15.42898368835449216 -124.20600128173828124 11.97096061706542976
v -15.63643264770507816 -124.20600128173828124 11.56381893157958984
v -15.70791435241699216 -124.20600128173828124 11.11250019073486328
v -15.42898368835449216 -124.20600128173828124 10.25403976440429688
v -15.63643264770507816 -124.20600128173828124 10.66118049621582032
v -15.10587501525878906 -124.20600128173828124 9.93093109130859376
v -13.06584548950195312 -124.20600128173828124 10.25403976440429688
v -12.8583965301513672 -124.20600128173828124 10.66118049621582032
v -12.78691482543945312 -124.20600128173828124 11.11250019073486328
v -12.8583965301513672 -124.20600128173828124 11.56381893157958984
v -13.06584548950195312 -124.20600128173828124 11.97096061706542976
v -14.24741458892822264 -124.20600128173828124 12.5729999542236328
v -14.6987342834472656 -124.20600128173828124 9.72348213195800784
v -13.38895416259765624 -124.20600128173828124 12.2940692901611328
v -13.79609489440917968 -124.20600128173828124 12.50151824951171872
v 24.24741554260253908 -124.20600128173828124 13.76679992675781248
v 24.24741554260253908 -123.74880218505859376 13.76679992675781248
v 23.4271907806396484 -123.74880218505859376 13.63688945770263672
v 23.4271907806396484 -124.20600128173828124 13.63688945770263672
v 22.687255859375 -123.74880218505859376 13.25987339019775392
v 22.687255859375 -124.20600128173828124 13.25987339019775392
v 22.10004043579101562 -123.74880218505859376 12.67265796661376952
v 22.10004043579101562 -124.20600128173828124 12.67265796661376952
v 21.7230243682861328 -123.74880218505859376 11.93272399902343744
v 21.7230243682861328 -124.20600128173828124 11.93272399902343744
v 21.59311485290527344 -123.74880218505859376 11.11250019073486328
v 21.59311485290527344 -124.20600128173828124 11.11250019073486328
v 21.7230243682861328 -123.74880218505859376 10.29227638244628908
v 21.7230243682861328 -124.20600128173828124 10.29227638244628908
v 22.10004043579101562 -123.74880218505859376 9.55234146118164064
v 22.10004043579101562 -124.20600128173828124 9.55234146118164064
v 22.687255859375 -123.74880218505859376 8.96512603759765632
v 22.687255859375 -124.20600128173828124 8.96512603759765632
v 23.4271907806396484 -123.74880218505859376 8.58811092376708984
v 23.4271907806396484 -124.20600128173828124 8.58811092376708984
v 24.24741554260253908 -123.74880218505859376 8.45820045471191408
v 24.24741554260253908 -124.20600128173828124 8.45820045471191408
v 25.06763839721679688 -123.74880218505859376 8.58811092376708984
v 25.06763839721679688 -124.20600128173828124 8.58811092376708984
v 25.80757331848144528 -123.74880218505859376 8.96512603759765632
v 25.80757331848144528 -124.20600128173828124 8.96512603759765632
v 26.39478874206542968 -123.74880218505859376 9.55234146118164064
v 26.39478874206542968 -124.20600128173828124 9.55234146118164064
v 26.77180480957031248 -123.74880218505859376 10.29227638244628908
v 26.77180480957031248 -124.20600128173828124 10.29227638244628908
v 26.90171432495117184 -123.74880218505859376 11.11250019073486328
v 26.90171432495117184 -124.20600128173828124 11.11250019073486328
v 26.77180480957031248 -123.74880218505859376 11.93272399902343744
v 26.77180480957031248 -124.20600128173828124 11.93272399902343744
v 26.39478874206542968 -123.74880218505859376 12.67265796661376952
v 26.39478874206542968 -124.20600128173828124 12.67265796661376952
v 25.80757331848144528 -123.74880218505859376 13.25987339019775392
v 25.80757331848144528 -124.20600128173828124 13.25987339019775392
v 25.06763839721679688 -123.74880218505859376 13.63688945770263672
v 25.06763839721679688 -124.20600128173828124 13.63688945770263672
v 22.78691482543945312 -123.74880218505859376 11.11250019073486328
v 22.8583965301513672 -123.74880218505859376 11.56381893157958984
v 23.06584548950195312 -123.74880218505859376 11.97096061706542976
v 23.38895416259765624 -123.74880218505859376 12.2940692901611328
v 23.79609489440917968 -123.74880218505859376 12.50151824951171872
v 23.79609489440917968 -123.74880218505859376 9.72348213195800784
v 23.38895416259765624 -123.74880218505859376 9.93093109130859376
v 23.06584548950195312 -123.74880218505859376 10.25403976440429688
v 22.8583965301513672 -123.74880218505859376 10.66118049621582032
v 24.24741554260253908 -123.74880218505859376 12.5729999542236328
v 24.6987342834472656 -123.74880218505859376 12.50151824951171872
v 25.10587501525878906 -123.74880218505859376 12.2940692901611328
v 25.63643264770507816 -123.74880218505859376 10.66118049621582032
v 25.42898368835449216 -123.74880218505859376 10.25403976440429688
v 25.63643264770507816 -123.74880218505859376 11.56381893157958984
v 25.70791435241699216 -123.74880218505859376 11.11250019073486328
v 25.10587501525878906 -123.74880218505859376 9.93093109130859376
v 25.42898368835449216 -123.74880218505859376 11.97096061706542976
v 24.6987342834472656 -123.74880218505859376 9.72348213195800784
v 24.24741554260253908 -123.74880218505859376 9.65200042724609376
v 24.6987342834472656 -124.20600128173828124 9.72348213195800784
v 24.24741554260253908 -124.20600128173828124 9.65200042724609376
v 25.10587501525878906 -124.20600128173828124 9.93093109130859376
v 23.38895416259765624 -124.20600128173828124 12.2940692901611328
v 23.79609489440917968 -124.20600128173828124 12.50151824951171872
v 23.06584548950195312 -124.20600128173828124 11.97096061706542976
v 22.8583965301513672 -124.20600128173828124 11.56381893157958984
v 22.78691482543945312 -124.20600128173828124 11.11250019073486328
v 23.06584548950195312 -124.20600128173828124 10.25403976440429688
v 22.8583965301513672 -124.20600128173828124 10.66118049621582032
v 23.38895416259765624 -124.20600128173828124 9.93093109130859376
v 25.42898368835449216 -124.20600128173828124 10.25403976440429688
v 25.63643264770507816 -124.20600128173828124 10.66118049621582032
v 25.70791435241699216 -124.20600128173828124 11.11250019073486328
v 25.63643264770507816 -124.20600128173828124 11.56381893157958984
v 25.42898368835449216 -124.20600128173828124 11.97096061706542976
v 24.24741554260253908 -124.20600128173828124 12.5729999542236328
v 23.79609489440917968 -124.20600128173828124 9.72348213195800784
v 25.10587501525878906 -124.20600128173828124 12.2940692901611328
v 24.6987342834472656 -124.20600128173828124 12.50151824951171872
# 240 vertices

vn -0.9876883625984192 0 -0.15643446147441864
vn -0.8910065293312072 0 -0.45399048924446104
vn -0.7071067690849304 0 -0.7071067690849304
vn -0.45399048924446104 0 -0.8910065293312072
vn -0.15643446147441864 0 -0.9876883625984192
vn 0.15643446147441864 0 -0.9876883625984192
vn 0.45399048924446104 0 -0.8910065293312072
vn 0.7071067690849304 0 -0.7071067690849304
vn 0.8910065293312072 0 -0.45399048924446104
vn 0.9876883625984192 0 -0.15643446147441864
vn 0.9876883625984192 0 0.15643446147441864
vn 0.8910065293312072 0 0.45399048924446104
vn 0.7071067690849304 0 0.7071067690849304
vn 0.45399048924446104 0 0.8910065293312072
vn 0.15643446147441864 0 0.9876883625984192
vn -0.15643446147441864 0 0.9876883625984192
vn -0.45399048924446104 0 0.8910065293312072
vn -0.7071067690849304 0 0.7071067690849304
vn -0.8910065293312072 0 0.45399048924446104
vn -0.9876883625984192 0 0.15643446147441864
vn 0 1 0
vn 0 -1 0
# 22 vertex normals

g obj_56177626
s 1
f 1//1 2//1 3//1
f 4//2 3//2 5//2
f 6//3 5//3 7//3
f 8//4 7//4 9//4
f 10//5 9//5 11//5
f 12//6 11//6 13//6
f 14//7 13//7 15//7
f 16//8 15//8 17//8
f 18//9 17//9 19//9
f 20//10 19//10 21//10
f 22//11 21//11 23//11
f 24//12 23//12 25//12
f 26//13 25//13 27//13
f 28//14 27//14 29//14
f 30//15 29//15 31//15
f 32//16 31//16 33//16
f 34//17 33//17 35//17
f 36//18 35//18 37//18
f 38//19 37//19 39//19
f 40//20 39//20 2//20
f 2//20 1//20 40//20
f 39//19 40//19 38//19
f 37//18 38//18 36//18
f 35//17 36//17 34//17
f 33//16 34//16 32//16
f 31//15 32//15 30//15
f 29//14 30//14 28//14
f 27//13 28//13 26//13
f 25//12 26//12 24//12
f 23//11 24//11 22//11
f 21//10 22//10 20//10
f 19//9 20//9 18//9
f 17//8 18//8 16//8
f 15//7 16//7 14//7
f 13//6 14//6 12//6
f 11//5 12//5 10//5
f 9//4 10//4 8//4
f 7//3 8//3 6//3
f 5//2 6//2 4//2
f 3//1 4//1 1//1
f 13//21 11//21 41//21
f 11//21 9//21 42//21
f 42//21 41//21 11//21
f 9//21 7//21 43//21
f 7//21 5//21 44//21
f 5//21 3//21 45//21
f 43//21 42//21 9//21
f 45//21 44//21 5//21
f 21//21 19//21 46//21
f 19//21 17//21 47//21
f 17//21 15//21 48//21
f 15//21 13//21 49//21
f 44//21 43//21 7//21
f 3//21 2//21 50//21
f 2//21 39//21 51//21
f 39//21 37//21 52//21
f 31//21 29//21 53//21
f 29//21 27//21 54//21
f 47//21 46//21 19//21
f 49//21 48//21 15//21
f 50//21 45//21 3//21
f 52//21 51//21 39//21
f 35//21 33//21 55//21
f 33//21 31//21 56//21
f 54//21 53//21 29//21
f 27//21 25//21 57//21
f 48//21 47//21 17//21
f 51//21 50//21 2//21
f 37//21 35//21 58//21
f 56//21 55//21 33//21
f 57//21 54//21 27//21
f 25//21 23//21 59//21
f 41//21 49//21 13//21
f 55//21 58//21 35//21
f 59//21 57//21 25//21
f 23//21 21//21 60//21
f 58//21 52//21 37//21
f 60//21 59//21 23//21
f 53//21 56//21 31//21
f 46//21 60//21 21//21
f 24//22 61//22 62//22
f 26//22 63//22 61//22
f 6//22 64//22 65//22
f 8//22 66//22 64//22
f 10//22 67//22 66//22
f 12//22 68//22 67//22
f 16//22 69//22 70//22
f 18//22 71//22 69//22
f 61//22 24//22 26//22
f 28//22 72//22 63//22
f 30//22 73//22 72//22
f 32//22 74//22 73//22
f 34//22 75//22 74//22
f 36//22 76//22 75//22
f 4//22 65//22 77//22
f 64//22 6//22 8//22
f 67//22 10//22 12//22
f 14//22 70//22 68//22
f 69//22 16//22 18//22
f 20//22 78//22 71//22
f 63//22 26//22 28//22
f 73//22 30//22 32//22
f 75//22 34//22 36//22
f 38//22 79//22 76//22
f 65//22 4//22 6//22
f 68//22 12//22 14//22
f 71//22 18//22 20//22
f 22//22 62//22 78//22
f 72//22 28//22 30//22
f 76//22 36//22 38//22
f 40//22 80//22 79//22
f 1//22 77//22 80//22
f 66//22 8//22 10//22
f 78//22 20//22 22//22
f 74//22 32//22 34//22
f 80//22 40//22 1//22
f 70//22 14//22 16//22
f 79//22 38//22 40//22
f 62//22 22//22 24//22
f 77//22 1//22 4//22
f 59//1 60//1 62//1
f 57//2 59//2 61//2
f 54//3 57//3 63//3
f 53//4 54//4 72//4
f 56//5 53//5 73//5
f 55//6 56//6 74//6
f 58//7 55//7 75//7
f 52//8 58//8 76//8
f 51//9 52//9 79//9
f 50//10 51//10 80//10
f 45//11 50//11 77//11
f 44//12 45//12 65//12
f 43//13 44//13 64//13
f 42//14 43//14 66//14
f 41//15 42//15 67//15
f 49//16 41//16 68//16
f 48//17 49//17 70//17
f 47//18 48//18 69//18
f 46//19 47//19 71//19
f 60//20 46//20 78//20
f 78//20 62//20 60//20
f 71//19 78//19 46//19
f 69//18 71//18 47//18
f 70//17 69//17 48//17
f 68//16 70//16 49//16
f 67//15 68//15 41//15
f 66//14 67//14 42//14
f 64//13 66//13 43//13
f 65//12 64//12 44//12
f 77//11 65//11 45//11
f 80//10 77//10 50//10
f 79//9 80//9 51//9
f 76//8 79//8 52//8
f 75//7 76//7 58//7
f 74//6 75//6 55//6
f 73//5 74//5 56//5
f 72//4 73//4 53//4
f 63//3 72//3 54//3
f 61//2 63//2 57//2
f 62//1 61//1 59//1
f 81//16 82//16 83//16
f 84//17 83//17 85//17
f 86//18 85//18 87//18
f 88//19 87//19 89//19
f 90//20 89//20 91//20
f 92//1 91//1 93//1
f 94//2 93//2 95//2
f 96//3 95//3 97//3
f 98//4 97//4 99//4
f 100//5 99//5 101//5
f 102//6 101//6 103//6
f 104//7 103//7 105//7
f 106//8 105//8 107//8
f 108//9 107//9 109//9
f 110//10 109//10 111//10
f 112//11 111//11 113//11
f 114//12 113//12 115//12
f 116//13 115//13 117//13
f 118//14 117//14 119//14
f 120//15 119//15 82//15
f 82//15 81//15 120//15
f 119//14 120//14 118//14
f 117//13 118//13 116//13
f 115//12 116//12 114//12
f 113//11 114//11 112//11
f 111//10 112//10 110//10
f 109//9 110//9 108//9
f 107//8 108//8 106//8
f 105//7 106//7 104//7
f 103//6 104//6 102//6
f 101//5 102//5 100//5
f 99//4 100//4 98//4
f 97//3 98//3 96//3
f 95//2 96//2 94//2
f 93//1 94//1 92//1
f 91//20 92//20 90//20
f 89//19 90//19 88//19
f 87//18 88//18 86//18
f 85//17 86//17 84//17
f 83//16 84//16 81//16
f 93//21 91//21 121//21
f 91//21 89//21 122//21
f 122//21 121//21 91//21
f 89//21 87//21 123//21
f 87//21 85//21 124//21
f 85//21 83//21 125//21
f 123//21 122//21 89//21
f 125//21 124//21 85//21
f 101//21 99//21 126//21
f 99//21 97//21 127//21
f 97//21 95//21 128//21
f 95//21 93//21 129//21
f 124//21 123//21 87//21
f 83//21 82//21 130//21
f 82//21 119//21 131//21
f 119//21 117//21 132//21
f 111//21 109//21 133//21
f 109//21 107//21 134//21
f 127//21 126//21 99//21
f 129//21 128//21 95//21
f 130//21 125//21 83//21
f 132//21 131//21 119//21
f 115//21 113//21 135//21
f 113//21 111//21 136//21
f 134//21 133//21 109//21
f 107//21 105//21 137//21
f 128//21 127//21 97//21
f 131//21 130//21 82//21
f 117//21 115//21 138//21
f 136//21 135//21 113//21
f 137//21 134//21 107//21
f 105//21 103//21 139//21
f 121//21 129//21 93//21
f 135//21 138//21 115//21
f 139//21 137//21 105//21
f 103//21 101//21 140//21
f 138//21 132//21 117//21
f 140//21 139//21 103//21
f 133//21 136//21 111//21
f 126//21 140//21 101//21
f 104//22 141//22 142//22
f 106//22 143//22 141//22
f 86//22 144//22 145//22
f 88//22 146//22 144//22
f 90//22 147//22 146//22
f 92//22 148//22 147//22
f 96//22 149//22 150//22
f 98//22 151//22 149//22
f 141//22 104//22 106//22
f 108//22 152//22 143//22
f 110//22 153//22 152//22
f 112//22 154//22 153//22
f 114//22 155//22 154//22
f 116//22 156//22 155//22
f 84//22 145//22 157//22
f 144//22 86//22 88//22
f 147//22 90//22 92//22
f 94//22 150//22 148//22
f 149//22 96//22 98//22
f 100//22 158//22 151//22
f 143//22 106//22 108//22
f 153//22 110//22 112//22
f 155//22 114//22 116//22
f 118//22 159//22 156//22
f 145//22 84//22 86//22
f 148//22 92//22 94//22
f 151//22 98//22 100//22
f 102//22 142//22 158//22
f 152//22 108//22 110//22
f 156//22 116//22 118//22
f 120//22 160//22 159//22
f 81//22 157//22 160//22
f 146//22 88//22 90//22
f 158//22 100//22 102//22
f 154//22 112//22 114//22
f 160//22 120//22 81//22
f 150//22 94//22 96//22
f 159//22 118//22 120//22
f 142//22 102//22 104//22
f 157//22 81//22 84//22
f 139//16 140//16 142//16
f 137//17 139//17 141//17
f 134//18 137//18 143//18
f 133//19 134//19 152//19
f 136//20 133//20 153//20
f 135//1 136//1 154//1
f 138//2 135//2 155//2
f 132//3 138//3 156//3
f 131//4 132//4 159//4
f 130//5 131//5 160//5
f 125//6 130//6 157//6
f 124//7 125//7 145//7
f 123//8 124//8 144//8
f 122//9 123//9 146//9
f 121//10 122//10 147//10
f 129//11 121//11 148//11
f 128//12 129//12 150//12
f 127//13 128//13 149//13
f 126//14 127//14 151//14
f 140//15 126//15 158//15
f 158//15 142//15 140//15
f 151//14 158//14 126//14
f 149//13 151//13 127//13
f 150//12 149//12 128//12
f 148//11 150//11 129//11
f 147//10 148//10 121//10
f 146//9 147//9 122//9
f 144//8 146//8 123//8
f 145//7 144//7 124//7
f 157//6 145//6 125//6
f 160//5 157//5 130//5
f 159//4 160//4 131//4
f 156//3 159//3 132//3
f 155//2 156//2 138//2
f 154//1 155//1 135//1
f 153//20 154//20 136//20
f 152//19 153//19 133//19
f 143//18 152//18 134//18
f 141//17 143//17 137//17
f 142//16 141//16 139//16
f 161//16 162//16 163//16
f 164//17 163//17 165//17
f 166//18 165//18 167//18
f 168//19 167//19 169//19
f 170//20 169//20 171//20
f 172//1 171//1 173//1
f 174//2 173//2 175//2
f 176//3 175//3 177//3
f 178//4 177//4 179//4
f 180//5 179//5 181//5
f 182//6 181//6 183//6
f 184//7 183//7 185//7
f 186//8 185//8 187//8
f 188//9 187//9 189//9
f 190//10 189//10 191//10
f 192//11 191//11 193//11
f 194//12 193//12 195//12
f 196//13 195//13 197//13
f 198//14 197//14 199//14
f 200//15 199//15 162//15
f 162//15 161//15 200//15
f 199//14 200//14 198//14
f 197//13 198//13 196//13
f 195//12 196//12 194//12
f 193//11 194//11 192//11
f 191//10 192//10 190//10
f 189//9 190//9 188//9
f 187//8 188//8 186//8
f 185//7 186//7 184//7
f 183//6 184//6 182//6
f 181//5 182//5 180//5
f 179//4 180//4 178//4
f 177//3 178//3 176//3
f 175//2 176//2 174//2
f 173//1 174//1 172//1
f 171//20 172//20 170//20
f 169//19 170//19 168//19
f 167//18 168//18 166//18
f 165//17 166//17 164//17
f 163//16 164//16 161//16
f 173//21 171//21 201//21
f 171//21 169//21 202//21
f 202//21 201//21 171//21
f 169//21 167//21 203//21
f 167//21 165//21 204//21
f 165//21 163//21 205//21
f 203//21 202//21 169//21
f 205//21 204//21 165//21
f 181//21 179//21 206//21
f 179//21 177//21 207//21
f 177//21 175//21 208//21
f 175//21 173//21 209//21
f 204//21 203//21 167//21
f 163//21 162//21 210//21
f 162//21 199//21 211//21
f 199//21 197//21 212//21
f 191//21 189//21 213//21
f 189//21 187//21 214//21
f 207//21 206//21 179//21
f 209//21 208//21 175//21
f 210//21 205//21 163//21
f 212//21 211//21 199//21
f 195//21 193//21 215//21
f 193//21 191//21 216//21
f 214//21 213//21 189//21
f 187//21 185//21 217//21
f 208//21 207//21 177//21
f 211//21 210//21 162//21
f 197//21 195//21 218//21
f 216//21 215//21 193//21
f 217//21 214//21 187//21
f 185//21 183//21 219//21
f 201//21 209//21 173//21
f 215//21 218//21 195//21
f 219//21 217//21 185//21
f 183//21 181//21 220//21
f 218//21 212//21 197//21
f 220//21 219//21 183//21
f 213//21 216//21 191//21
f 206//21 220//21 181//21
f 184//22 221//22 222//22
f 186//22 223//22 221//22
f 166//22 224//22 225//22
f 168//22 226//22 224//22
f 170//22 227//22 226//22
f 172//22 228//22 227//22
f 176//22 229//22 230//22
f 178//22 231//22 229//22
f 221//22 184//22 186//22
f 188//22 232//22 223//22
f 190//22 233//22 232//22
f 192//22 234//22 233//22
f 194//22 235//22 234//22
f 196//22 236//22 235//22
f 164//22 225//22 237//22
f 224//22 166//22 168//22
f 227//22 170//22 172//22
f 174//22 230//22 228//22
f 229//22 176//22 178//22
f 180//22 238//22 231//22
f 223//22 186//22 188//22
f 233//22 190//22 192//22
f 235//22 194//22 196//22
f 198//22 239//22 236//22
f 225//22 164//22 166//22
f 228//22 172//22 174//22
f 231//22 178//22 180//22
f 182//22 222//22 238//22
f 232//22 188//22 190//22
f 236//22 196//22 198//22
f 200//22 240//22 239//22
f 161//22 237//22 240//22
f 226//22 168//22 170//22
f 238//22 180//22 182//22
f 234//22 192//22 194//22
f 240//22 200//22 161//22
f 230//22 174//22 176//22
f 239//22 198//22 200//22
f 222//22 182//22 184//22
f 237//22 161//22 164//22
f 219//16 220//16 222//16
f 217//17 219//17 221//17
f 214//18 217//18 223//18
f 213//19 214//19 232//19
f 216//20 213//20 233//20
f 215//1 216//1 234//1
f 218//2 215//2 235//2
f 212//3 218//3 236//3
f 211//4 212//4 239//4
f 210//5 211//5 240//5
f 205//6 210//6 237//6
f 204//7 205//7 225//7
f 203//8 204//8 224//8
f 202//9 203//9 226//9
f 201//10 202//10 227//10
f 209//11 201//11 228//11
f 208//12 209//12 230//12
f 207//13 208//13 229//13
f 206//14 207//14 231//14
f 220//15 206//15 238//15
f 238//15 222//15 220//15
f 231//14 238//14 206//14
f 229//13 231//13 207//13
f 230//12 229//12 208//12
f 228//11 230//11 209//11
f 227//10 228//10 201//10
f 226//9 227//9 202//9
f 224//8 226//8 203//8
f 225//7 224//7 204//7
f 237//6 225//6 205//6
f 240//5 237//5 210//5
f 239//4 240//4 211//4
f 236//3 239//3 212//3
f 235//2 236//2 218//2
f 234//1 235//1 215//1
f 233//20 234//20 216//20
f 232//19 233//19 213//19
f 223//18 232//18 214//18
f 221//17 223//17 217//17
f 222//16 221//16 219//16
#480 polygons

