# Aspose.3D Wavefront OBJ Exporter
# Copyright 2004-2023 Aspose Pty Ltd.
# File created: 11/02/2023 20:20:22


#
# object obj_11343876
#

v 35 0.01364851836115121 51.01357650756835937
v 30 0.01364851836115121 51.01357650756835937
v 35 9.122973453165372E-32 50.7526969909667968
v 25 0.01364851836115121 51.01357650756835937
v 20 0.01364851836115121 51.01357650756835937
v 20 0.0544450469315052 51.27160263061523436
v 15 0.0544450469315052 51.27160263061523436
v 15 0.1219441369175911 51.52396392822265624
v 10 0.1219441369175911 51.52396392822265624
v 10 0.21540877223014832 51.76790618896484368
v 5 0.21540877223014832 51.76790618896484368
v 5 0.33381843566894532 52.00075912475585937
v 0 0.33381843566894532 52.00075912475585937
v 0 0.47588023543357848 52.21998977661132812
v 5 0.47588023543357848 52.21998977661132812
v 0 0.64004302024841312 52.42319488525390624
v 5 0.64004302024841312 52.42319488525390624
v 0 0.82451432943344112 52.60816192626953128
v 5 0.82451432943344112 52.60816192626953128
v 0 1.02727997303009033 52.77286911010742192
v 5 1.02727997303009033 52.77286911010742192
v 0 1.24612593650817872 52.9155197143554688
v 5 1.24612593650817872 52.9155197143554688
v 0 1.47866272926330568 53.03455352783203125
v 5 1.47866272926330568 53.03455352783203125
v 0 1.72235131263732912 53.12867355346679688
v 5 1.72235131263732912 53.12867355346679688
v 0 1.97453093528747552 53.19684982299804688
v 5 1.97453093528747552 53.19684982299804688
v 0 2.23244810104370116 53.23834228515625
v 5 2.23244810104370116 53.23834228515625
v 0 2.49328660964965824 53.25268936157226564
v 5 2.49328660964965824 53.25268936157226564
v 0 2.75419831275939936 53.23974227905273436
v 5 2.75419831275939936 53.23974227905273436
v 0 3.01233434677124023 53.19963836669921876
v 5 3.01233434677124023 53.19963836669921876
v 0 3.2648766040802002 53.13281631469726562
v 5 3.2648766040802002 53.13281631469726562
v 0 3.5090670585632324 53.040008544921875
v 5 3.5090670585632324 53.040008544921875
v 0 3.7422399520874024 52.92222213745117184
v 5 3.7422399520874024 52.92222213745117184
v 0 3.96184897422790528 52.7807502746582032
v 5 3.96184897422790528 52.7807502746582032
v 0 4.1654963493347168 52.61713409423828128
v 5 4.1654963493347168 52.61713409423828128
v 0 4.35095834732055664 52.4331626892089844
v 5 4.35095834732055664 52.4331626892089844
v 0 4.5162100791931152 52.23083877563476564
v 5 4.5162100791931152 52.23083877563476564
v 0 4.65944719314575192 52.0123748779296875
v 10 4.5162100791931152 52.23083877563476564
v 15 4.5162100791931152 52.23083877563476564
v 15 4.35095834732055664 52.4331626892089844
v 20 4.35095834732055664 52.4331626892089844
v 20 4.1654963493347168 52.61713409423828128
v 25 4.1654963493347168 52.61713409423828128
v 25 3.96184897422790528 52.7807502746582032
v 30 3.96184897422790528 52.7807502746582032
v 30 3.7422399520874024 52.92222213745117184
v 35 3.7422399520874024 52.92222213745117184
v 35 3.5090670585632324 53.040008544921875
v 30 3.5090670585632324 53.040008544921875
v 35 3.2648766040802002 53.13281631469726562
v 30 3.2648766040802002 53.13281631469726562
v 35 3.01233434677124023 53.19963836669921876
v 30 3.01233434677124023 53.19963836669921876
v 35 2.75419831275939936 53.23974227905273436
v 30 2.75419831275939936 53.23974227905273436
v 35 2.49328660964965824 53.25268936157226564
v 30 2.49328660964965824 53.25268936157226564
v 35 2.23244810104370116 53.23834228515625
v 30 2.23244810104370116 53.23834228515625
v 35 1.97453093528747552 53.19684982299804688
v 30 1.97453093528747552 53.19684982299804688
v 35 1.72235131263732912 53.12867355346679688
v 30 1.72235131263732912 53.12867355346679688
v 35 1.47866272926330568 53.03455352783203125
v 30 1.47866272926330568 53.03455352783203125
v 35 1.24612593650817872 52.9155197143554688
v 30 1.24612593650817872 52.9155197143554688
v 35 1.02727997303009033 52.77286911010742192
v 30 1.02727997303009033 52.77286911010742192
v 35 0.82451432943344112 52.60816192626953128
v 30 0.82451432943344112 52.60816192626953128
v 35 0.64004302024841312 52.42319488525390624
v 30 0.64004302024841312 52.42319488525390624
v 35 0.47588023543357848 52.21998977661132812
v 30 0.47588023543357848 52.21998977661132812
v 35 0.33381843566894532 52.00075912475585937
v 30 0.33381843566894532 52.00075912475585937
v 35 0.21540877223014832 51.76790618896484368
v 30 0.21540877223014832 51.76790618896484368
v 35 0.1219441369175911 51.52396392822265624
v 30 0.1219441369175911 51.52396392822265624
v 35 0.0544450469315052 51.27160263061523436
v 30 0.0544450469315052 51.27160263061523436
v 35 3.96184897422790528 52.7807502746582032
v 30 4.1654963493347168 52.61713409423828128
v 25 4.35095834732055664 52.4331626892089844
v 20 4.5162100791931152 52.23083877563476564
v 35 4.1654963493347168 52.61713409423828128
v 30 4.35095834732055664 52.4331626892089844
v 25 4.5162100791931152 52.23083877563476564
v 35 4.65944719314575192 52.0123748779296875
v 35 4.35095834732055664 52.4331626892089844
v 30 4.5162100791931152 52.23083877563476564
v 35 4.5162100791931152 52.23083877563476564
v 0 0.21540877223014832 51.76790618896484368
v 5 0.1219441369175911 51.52396392822265624
v 10 0.0544450469315052 51.27160263061523436
v 15 0.01364851836115121 51.01357650756835937
v 0 0.1219441369175911 51.52396392822265624
v 5 0.0544450469315052 51.27160263061523436
v 10 0.01364851836115121 51.01357650756835937
v 0 9.122973453165372E-32 50.7526969909667968
v 0 0.0544450469315052 51.27160263061523436
v 5 0.01364851836115121 51.01357650756835937
v 0 0.01364851836115121 51.01357650756835937
v 25 0.0544450469315052 51.27160263061523436
v 25 0.1219441369175911 51.52396392822265624
v 25 0.21540877223014832 51.76790618896484368
v 25 0.33381843566894532 52.00075912475585937
v 25 0.47588023543357848 52.21998977661132812
v 25 0.64004302024841312 52.42319488525390624
v 25 0.82451432943344112 52.60816192626953128
v 25 1.02727997303009033 52.77286911010742192
v 25 1.24612593650817872 52.9155197143554688
v 25 1.47866272926330568 53.03455352783203125
v 25 1.72235131263732912 53.12867355346679688
v 25 1.97453093528747552 53.19684982299804688
v 25 2.23244810104370116 53.23834228515625
v 25 2.49328660964965824 53.25268936157226564
v 25 2.75419831275939936 53.23974227905273436
v 25 3.01233434677124023 53.19963836669921876
v 25 3.2648766040802002 53.13281631469726562
v 25 3.5090670585632324 53.040008544921875
v 25 3.7422399520874024 52.92222213745117184
v 20 0.1219441369175911 51.52396392822265624
v 15 0.21540877223014832 51.76790618896484368
v 10 0.33381843566894532 52.00075912475585937
v 20 0.21540877223014832 51.76790618896484368
v 20 0.33381843566894532 52.00075912475585937
v 20 0.47588023543357848 52.21998977661132812
v 20 0.64004302024841312 52.42319488525390624
v 20 0.82451432943344112 52.60816192626953128
v 20 1.02727997303009033 52.77286911010742192
v 20 1.24612593650817872 52.9155197143554688
v 20 1.47866272926330568 53.03455352783203125
v 20 1.72235131263732912 53.12867355346679688
v 20 1.97453093528747552 53.19684982299804688
v 20 2.23244810104370116 53.23834228515625
v 20 2.49328660964965824 53.25268936157226564
v 20 2.75419831275939936 53.23974227905273436
v 20 3.01233434677124023 53.19963836669921876
v 20 3.2648766040802002 53.13281631469726562
v 20 3.5090670585632324 53.040008544921875
v 20 3.7422399520874024 52.92222213745117184
v 20 3.96184897422790528 52.7807502746582032
v 15 0.33381843566894532 52.00075912475585937
v 10 0.47588023543357848 52.21998977661132812
v 15 0.47588023543357848 52.21998977661132812
v 15 0.64004302024841312 52.42319488525390624
v 15 0.82451432943344112 52.60816192626953128
v 15 1.02727997303009033 52.77286911010742192
v 15 1.24612593650817872 52.9155197143554688
v 15 1.47866272926330568 53.03455352783203125
v 15 1.72235131263732912 53.12867355346679688
v 15 1.97453093528747552 53.19684982299804688
v 15 2.23244810104370116 53.23834228515625
v 15 2.49328660964965824 53.25268936157226564
v 15 2.75419831275939936 53.23974227905273436
v 15 3.01233434677124023 53.19963836669921876
v 15 3.2648766040802002 53.13281631469726562
v 15 3.5090670585632324 53.040008544921875
v 15 3.7422399520874024 52.92222213745117184
v 15 3.96184897422790528 52.7807502746582032
v 15 4.1654963493347168 52.61713409423828128
v 10 0.64004302024841312 52.42319488525390624
v 10 0.82451432943344112 52.60816192626953128
v 10 1.02727997303009033 52.77286911010742192
v 10 1.24612593650817872 52.9155197143554688
v 10 1.47866272926330568 53.03455352783203125
v 10 1.72235131263732912 53.12867355346679688
v 10 1.97453093528747552 53.19684982299804688
v 10 2.23244810104370116 53.23834228515625
v 10 2.49328660964965824 53.25268936157226564
v 10 2.75419831275939936 53.23974227905273436
v 10 3.01233434677124023 53.19963836669921876
v 10 3.2648766040802002 53.13281631469726562
v 10 3.5090670585632324 53.040008544921875
v 10 3.7422399520874024 52.92222213745117184
v 10 3.96184897422790528 52.7807502746582032
v 10 4.1654963493347168 52.61713409423828128
v 10 4.35095834732055664 52.4331626892089844
v 22.5 32.08333206176757812 5
v 12.5 32.08333206176757812 5
v 0 32.48064422607421872 4.31889438629150392
v 12.5 32.48064422607421872 4.31889438629150392
v 35 32.48064422607421872 4.31889438629150392
v 22.5 32.48064422607421872 4.31889438629150392
v 35 7.15242585745115E-32 39.79019927978515632
v 35 2.66707730293273928 37.21215438842773436
v 35 3.24478697776794432 37.07151031494140625
v 35 0.01254934817552566 39.54001998901367184
v 35 0.05007140338420868 39.29235458374023436
v 35 0.11218946427106858 39.04968643188476562
v 35 0.19827990233898164 38.814453125
v 35 0.30747839808464052 38.58901214599609376
v 35 0.4386886954307556 38.37563323974609376
v 35 0.59059345722198488 38.17645645141601562
v 35 0.76166766881942752 37.99348068237304688
v 35 0.95019382238388064 37.82854080200195312
v 35 1.15427923202514648 37.68329620361328128
v 35 1.37187504768371584 37.5592041015625
v 35 1.60079658031463624 37.45751190185546872
v 35 1.83874559402465824 37.37923812866210936
v 35 2.08333325386047363 37.325164794921875
v 35 3.81515502929687504 36.9035530090332032
v 35 4.37689065933227536 36.70866394042968752
v 35 4.92872381210327152 36.48728179931640624
v 35 5.46940469741821288 36.23991012573242188
v 35 5.99771070480346672 35.96710968017578128
v 35 6.512446403503418 35.6694908142089844
v 35 7.01244735717773437 35.34773254394531248
v 35 7.49658203125 35.0025634765625
v 35 7.963754653930664 34.6347618103027344
v 35 8.41290950775146488 34.24515914916992188
v 35 8.84302806854248048 33.83464050292968752
v 35 9.25313949584960936 33.40412902832031248
v 35 9.64231491088867184 32.95460510253906256
v 35 10.00967311859130859 32.48708343505859376
v 35 10.35438442230224608 32.00262451171875
v 35 10.67566776275634768 31.5023174285888672
v 35 10.97279644012451168 30.9872989654541016
v 35 11.24509811401367188 30.4587345123291016
v 35 11.49195671081542968 29.91781806945800784
v 35 11.71281337738037112 29.36577606201171872
v 35 11.90716934204101568 28.80385589599609376
v 35 12.07458400726318359 28.23332786560058592
v 35 12.21467971801757812 27.65548515319824216
v 35 12.32713794708251952 27.07163429260253906
v 35 12.41170501708984376 26.4830951690673828
v 35 12.46819019317626952 25.89120101928710944
v 35 12.4964637756347656 25.29729080200195312
v 35 12.4964637756347656 24.70270919799804688
v 35 12.46819019317626952 24.10879898071289062
v 35 12.41170501708984376 23.5169048309326172
v 35 12.32713794708251952 22.92836570739746096
v 35 12.21467971801757812 22.3445148468017578
v 35 12.07458400726318359 21.76667213439941408
v 35 30 7.923825805015838E-32
v 35 11.90716934204101568 21.19614410400390624
v 35 11.71281337738037112 20.63422393798828128
v 35 11.49195671081542968 20.08218193054199219
v 35 11.24509811401367188 19.5412654876708984
v 35 10.97279644012451168 19.01270103454589843
v 35 10.67566776275634768 18.4976825714111328
v 35 10.35438442230224608 17.99737739562988288
v 35 10.00967311859130859 17.51291465759277344
v 35 9.64231491088867184 17.04539299011230469
v 35 9.25313949584960936 16.59586906433105472
v 35 8.84302806854248048 16.16536140441894532
v 35 8.41290950775146488 15.75484085083007808
v 35 7.963754653930664 15.365239143371582
v 35 0 0
v 35 7.49658203125 14.99743747711181648
v 35 7.01244735717773437 14.65226650238037112
v 35 6.512446403503418 14.33050918579101564
v 35 5.99771070480346672 14.03289127349853515
v 35 5.46940469741821288 13.76008796691894528
v 35 4.92872381210327152 13.51271629333496096
v 35 4.37689065933227536 13.29133510589599608
v 35 3.81515502929687504 13.09644603729248046
v 35 3.24478697776794432 12.92848968505859376
v 35 2.66707730293273928 12.78784656524658208
v 35 1.835247020440226E-32 10.20980072021484376
v 35 2.08333325386047363 12.67483425140380856
v 35 1.83874559402465824 12.62076377868652344
v 35 1.60079658031463624 12.54248809814453128
v 35 1.37187504768371584 12.4407949447631836
v 35 1.15427923202514648 12.31670284271240236
v 35 0.95019382238388064 12.17145824432373046
v 35 0.76166766881942752 12.00652027130126953
v 35 0.59059345722198488 11.82354354858398432
v 35 0.4386886954307556 11.62436580657958984
v 35 0.30747839808464052 11.41098690032958984
v 35 0.19827990233898164 11.1855487823486328
v 35 0.11218946427106858 10.95031452178955072
v 35 0.05007140338420868 10.7076454162597656
v 35 0.01254934817552566 10.45997905731201168
v 0 1.83874559402465824 12.62076377868652344
v 5 1.83874559402465824 12.62076377868652344
v 0 2.08333325386047363 12.67483425140380856
v 10 1.83874559402465824 12.62076377868652344
v 15 1.83874559402465824 12.62076377868652344
v 15 1.60079658031463624 12.54248809814453128
v 20 1.60079658031463624 12.54248809814453128
v 20 1.37187504768371584 12.4407949447631836
v 25 1.37187504768371584 12.4407949447631836
v 25 1.15427923202514648 12.31670284271240236
v 30 1.15427923202514648 12.31670284271240236
v 30 0.95019382238388064 12.17145824432373046
v 30 0.76166766881942752 12.00652027130126953
v 30 0.59059345722198488 11.82354354858398432
v 30 0.4386886954307556 11.62436580657958984
v 30 0.30747839808464052 11.41098690032958984
v 30 0.19827990233898164 11.1855487823486328
v 30 0.11218946427106858 10.95031452178955072
v 30 0.05007140338420868 10.7076454162597656
v 30 0.01254934817552566 10.45997905731201168
v 25 0.01254934817552566 10.45997905731201168
v 20 0.01254934817552566 10.45997905731201168
v 20 0.05007140338420868 10.7076454162597656
v 15 0.05007140338420868 10.7076454162597656
v 15 0.11218946427106858 10.95031452178955072
v 10 0.11218946427106858 10.95031452178955072
v 10 0.19827990233898164 11.1855487823486328
v 5 0.19827990233898164 11.1855487823486328
v 5 0.30747839808464052 11.41098690032958984
v 0 0.30747839808464052 11.41098690032958984
v 0 0.4386886954307556 11.62436580657958984
v 5 0.4386886954307556 11.62436580657958984
v 0 0.59059345722198488 11.82354354858398432
v 5 0.59059345722198488 11.82354354858398432
v 0 0.76166766881942752 12.00652027130126953
v 5 0.76166766881942752 12.00652027130126953
v 0 0.95019382238388064 12.17145824432373046
v 5 0.95019382238388064 12.17145824432373046
v 0 1.15427923202514648 12.31670284271240236
v 5 1.15427923202514648 12.31670284271240236
v 0 1.37187504768371584 12.4407949447631836
v 5 1.37187504768371584 12.4407949447631836
v 0 1.60079658031463624 12.54248809814453128
v 5 1.60079658031463624 12.54248809814453128
v 0 0.19827990233898164 11.1855487823486328
v 5 0.11218946427106858 10.95031452178955072
v 10 0.05007140338420868 10.7076454162597656
v 15 0.01254934817552566 10.45997905731201168
v 0 0.11218946427106858 10.95031452178955072
v 5 0.05007140338420868 10.7076454162597656
v 10 0.01254934817552566 10.45997905731201168
v 0 1.835247020440226E-32 10.20980072021484376
v 0 0.05007140338420868 10.7076454162597656
v 5 0.01254934817552566 10.45997905731201168
v 0 0.01254934817552566 10.45997905731201168
v 30 1.37187504768371584 12.4407949447631836
v 25 1.60079658031463624 12.54248809814453128
v 20 1.83874559402465824 12.62076377868652344
v 30 1.60079658031463624 12.54248809814453128
v 25 1.83874559402465824 12.62076377868652344
v 30 1.83874559402465824 12.62076377868652344
v 10 1.60079658031463624 12.54248809814453128
v 10 1.37187504768371584 12.4407949447631836
v 10 1.15427923202514648 12.31670284271240236
v 10 0.95019382238388064 12.17145824432373046
v 10 0.76166766881942752 12.00652027130126953
v 10 0.59059345722198488 11.82354354858398432
v 10 0.4386886954307556 11.62436580657958984
v 10 0.30747839808464052 11.41098690032958984
v 15 1.37187504768371584 12.4407949447631836
v 20 1.15427923202514648 12.31670284271240236
v 25 0.95019382238388064 12.17145824432373046
v 15 1.15427923202514648 12.31670284271240236
v 15 0.95019382238388064 12.17145824432373046
v 15 0.76166766881942752 12.00652027130126953
v 15 0.59059345722198488 11.82354354858398432
v 15 0.4386886954307556 11.62436580657958984
v 15 0.30747839808464052 11.41098690032958984
v 15 0.19827990233898164 11.1855487823486328
v 20 0.95019382238388064 12.17145824432373046
v 25 0.76166766881942752 12.00652027130126953
v 20 0.76166766881942752 12.00652027130126953
v 20 0.59059345722198488 11.82354354858398432
v 20 0.4386886954307556 11.62436580657958984
v 20 0.30747839808464052 11.41098690032958984
v 20 0.19827990233898164 11.1855487823486328
v 20 0.11218946427106858 10.95031452178955072
v 25 0.59059345722198488 11.82354354858398432
v 25 0.4386886954307556 11.62436580657958984
v 25 0.30747839808464052 11.41098690032958984
v 25 0.19827990233898164 11.1855487823486328
v 25 0.11218946427106858 10.95031452178955072
v 25 0.05007140338420868 10.7076454162597656
v 0 2.66707730293273928 12.78784656524658208
v 11.66666698455810544 2.66707730293273928 12.78784656524658208
v 23.33333396911621092 2.66707730293273928 12.78784656524658208
v 23.33333396911621092 3.24478697776794432 12.92848968505859376
v 23.33333396911621092 3.81515502929687504 13.09644603729248046
v 23.33333396911621092 4.37689065933227536 13.29133510589599608
v 23.33333396911621092 4.92872381210327152 13.51271629333496096
v 23.33333396911621092 5.46940469741821288 13.76008796691894528
v 23.33333396911621092 5.99771070480346672 14.03289127349853515
v 23.33333396911621092 6.512446403503418 14.33050918579101564
v 23.33333396911621092 7.01244735717773437 14.65226650238037112
v 23.33333396911621092 7.49658203125 14.99743747711181648
v 23.33333396911621092 7.963754653930664 15.365239143371582
v 23.33333396911621092 8.41290950775146488 15.75484085083007808
v 23.33333396911621092 8.84302806854248048 16.16536140441894532
v 23.33333396911621092 9.25313949584960936 16.59586906433105472
v 23.33333396911621092 9.64231491088867184 17.04539299011230469
v 23.33333396911621092 10.00967311859130859 17.51291465759277344
v 23.33333396911621092 10.35438442230224608 17.99737739562988288
v 23.33333396911621092 10.67566776275634768 18.4976825714111328
v 23.33333396911621092 10.97279644012451168 19.01270103454589843
v 23.33333396911621092 11.24509811401367188 19.5412654876708984
v 23.33333396911621092 11.49195671081542968 20.08218193054199219
v 23.33333396911621092 11.71281337738037112 20.63422393798828128
v 23.33333396911621092 11.90716934204101568 21.19614410400390624
v 23.33333396911621092 12.07458400726318359 21.76667213439941408
v 23.33333396911621092 12.21467971801757812 22.3445148468017578
v 23.33333396911621092 12.32713794708251952 22.92836570739746096
v 23.33333396911621092 12.41170501708984376 23.5169048309326172
v 23.33333396911621092 12.46819019317626952 24.10879898071289062
v 23.33333396911621092 12.4964637756347656 24.70270919799804688
v 23.33333396911621092 12.4964637756347656 25.29729080200195312
v 23.33333396911621092 12.46819019317626952 25.89120101928710944
v 23.33333396911621092 12.41170501708984376 26.4830951690673828
v 23.33333396911621092 12.32713794708251952 27.07163429260253906
v 23.33333396911621092 12.21467971801757812 27.65548515319824216
v 23.33333396911621092 12.07458400726318359 28.23332786560058592
v 23.33333396911621092 11.90716934204101568 28.80385589599609376
v 23.33333396911621092 11.71281337738037112 29.36577606201171872
v 23.33333396911621092 11.49195671081542968 29.91781806945800784
v 23.33333396911621092 11.24509811401367188 30.4587345123291016
v 23.33333396911621092 10.97279644012451168 30.9872989654541016
v 23.33333396911621092 10.67566776275634768 31.5023174285888672
v 23.33333396911621092 10.35438442230224608 32.00262451171875
v 23.33333396911621092 10.00967311859130859 32.48708343505859376
v 23.33333396911621092 9.64231491088867184 32.95460510253906256
v 23.33333396911621092 9.25313949584960936 33.40412902832031248
v 23.33333396911621092 8.84302806854248048 33.83464050292968752
v 23.33333396911621092 8.41290950775146488 34.24515914916992188
v 23.33333396911621092 7.963754653930664 34.6347618103027344
v 23.33333396911621092 7.49658203125 35.0025634765625
v 23.33333396911621092 7.01244735717773437 35.34773254394531248
v 23.33333396911621092 6.512446403503418 35.6694908142089844
v 23.33333396911621092 5.99771070480346672 35.96710968017578128
v 23.33333396911621092 5.46940469741821288 36.23991012573242188
v 23.33333396911621092 4.92872381210327152 36.48728179931640624
v 23.33333396911621092 4.37689065933227536 36.70866394042968752
v 23.33333396911621092 3.81515502929687504 36.9035530090332032
v 23.33333396911621092 3.24478697776794432 37.07151031494140625
v 23.33333396911621092 2.66707730293273928 37.21215438842773436
v 0 2.08333325386047363 37.325164794921875
v 11.66666698455810544 2.66707730293273928 37.21215438842773436
v 11.66666698455810544 3.24478697776794432 37.07151031494140625
v 11.66666698455810544 3.81515502929687504 36.9035530090332032
v 11.66666698455810544 4.37689065933227536 36.70866394042968752
v 11.66666698455810544 4.92872381210327152 36.48728179931640624
v 11.66666698455810544 5.46940469741821288 36.23991012573242188
v 11.66666698455810544 5.99771070480346672 35.96710968017578128
v 11.66666698455810544 6.512446403503418 35.6694908142089844
v 11.66666698455810544 7.01244735717773437 35.34773254394531248
v 11.66666698455810544 7.49658203125 35.0025634765625
v 11.66666698455810544 7.963754653930664 34.6347618103027344
v 11.66666698455810544 8.41290950775146488 34.24515914916992188
v 11.66666698455810544 8.84302806854248048 33.83464050292968752
v 11.66666698455810544 9.25313949584960936 33.40412902832031248
v 11.66666698455810544 9.64231491088867184 32.95460510253906256
v 11.66666698455810544 10.00967311859130859 32.48708343505859376
v 11.66666698455810544 10.35438442230224608 32.00262451171875
v 11.66666698455810544 10.67566776275634768 31.5023174285888672
v 11.66666698455810544 10.97279644012451168 30.9872989654541016
v 11.66666698455810544 11.24509811401367188 30.4587345123291016
v 11.66666698455810544 11.49195671081542968 29.91781806945800784
v 11.66666698455810544 11.71281337738037112 29.36577606201171872
v 11.66666698455810544 11.90716934204101568 28.80385589599609376
v 11.66666698455810544 12.07458400726318359 28.23332786560058592
v 11.66666698455810544 12.21467971801757812 27.65548515319824216
v 11.66666698455810544 12.32713794708251952 27.07163429260253906
v 11.66666698455810544 12.41170501708984376 26.4830951690673828
v 11.66666698455810544 12.46819019317626952 25.89120101928710944
v 11.66666698455810544 12.4964637756347656 25.29729080200195312
v 11.66666698455810544 12.4964637756347656 24.70270919799804688
v 11.66666698455810544 12.46819019317626952 24.10879898071289062
v 11.66666698455810544 12.41170501708984376 23.5169048309326172
v 11.66666698455810544 12.32713794708251952 22.92836570739746096
v 11.66666698455810544 12.21467971801757812 22.3445148468017578
v 11.66666698455810544 12.07458400726318359 21.76667213439941408
v 11.66666698455810544 11.90716934204101568 21.19614410400390624
v 11.66666698455810544 11.71281337738037112 20.63422393798828128
v 11.66666698455810544 11.49195671081542968 20.08218193054199219
v 11.66666698455810544 11.24509811401367188 19.5412654876708984
v 11.66666698455810544 10.97279644012451168 19.01270103454589843
v 11.66666698455810544 10.67566776275634768 18.4976825714111328
v 11.66666698455810544 10.35438442230224608 17.99737739562988288
v 11.66666698455810544 10.00967311859130859 17.51291465759277344
v 11.66666698455810544 9.64231491088867184 17.04539299011230469
v 11.66666698455810544 9.25313949584960936 16.59586906433105472
v 11.66666698455810544 8.84302806854248048 16.16536140441894532
v 11.66666698455810544 8.41290950775146488 15.75484085083007808
v 11.66666698455810544 7.963754653930664 15.365239143371582
v 11.66666698455810544 7.49658203125 14.99743747711181648
v 11.66666698455810544 7.01244735717773437 14.65226650238037112
v 11.66666698455810544 6.512446403503418 14.33050918579101564
v 11.66666698455810544 5.99771070480346672 14.03289127349853515
v 11.66666698455810544 5.46940469741821288 13.76008796691894528
v 11.66666698455810544 4.92872381210327152 13.51271629333496096
v 11.66666698455810544 4.37689065933227536 13.29133510589599608
v 11.66666698455810544 3.81515502929687504 13.09644603729248046
v 11.66666698455810544 3.24478697776794432 12.92848968505859376
v 0 2.66707730293273928 37.21215438842773436
v 0 3.24478697776794432 37.07151031494140625
v 0 3.81515502929687504 36.9035530090332032
v 0 4.37689065933227536 36.70866394042968752
v 0 4.92872381210327152 36.48728179931640624
v 0 5.46940469741821288 36.23991012573242188
v 0 5.99771070480346672 35.96710968017578128
v 0 6.512446403503418 35.6694908142089844
v 0 7.01244735717773437 35.34773254394531248
v 0 7.49658203125 35.0025634765625
v 0 7.963754653930664 34.6347618103027344
v 0 8.41290950775146488 34.24515914916992188
v 0 8.84302806854248048 33.83464050292968752
v 0 9.25313949584960936 33.40412902832031248
v 0 9.64231491088867184 32.95460510253906256
v 0 10.00967311859130859 32.48708343505859376
v 0 10.35438442230224608 32.00262451171875
v 0 10.67566776275634768 31.5023174285888672
v 0 10.97279644012451168 30.9872989654541016
v 0 11.24509811401367188 30.4587345123291016
v 0 11.49195671081542968 29.91781806945800784
v 0 11.71281337738037112 29.36577606201171872
v 0 11.90716934204101568 28.80385589599609376
v 0 12.07458400726318359 28.23332786560058592
v 0 12.21467971801757812 27.65548515319824216
v 0 12.32713794708251952 27.07163429260253906
v 0 12.41170501708984376 26.4830951690673828
v 0 12.46819019317626952 25.89120101928710944
v 0 12.4964637756347656 25.29729080200195312
v 0 12.4964637756347656 24.70270919799804688
v 0 12.46819019317626952 24.10879898071289062
v 0 12.41170501708984376 23.5169048309326172
v 0 12.32713794708251952 22.92836570739746096
v 0 12.21467971801757812 22.3445148468017578
v 0 12.07458400726318359 21.76667213439941408
v 0 11.90716934204101568 21.19614410400390624
v 0 11.71281337738037112 20.63422393798828128
v 0 11.49195671081542968 20.08218193054199219
v 0 11.24509811401367188 19.5412654876708984
v 0 10.97279644012451168 19.01270103454589843
v 0 10.67566776275634768 18.4976825714111328
v 0 10.35438442230224608 17.99737739562988288
v 0 10.00967311859130859 17.51291465759277344
v 0 9.64231491088867184 17.04539299011230469
v 0 9.25313949584960936 16.59586906433105472
v 0 8.84302806854248048 16.16536140441894532
v 0 8.41290950775146488 15.75484085083007808
v 0 7.963754653930664 15.365239143371582
v 0 7.49658203125 14.99743747711181648
v 0 7.01244735717773437 14.65226650238037112
v 0 6.512446403503418 14.33050918579101564
v 0 5.99771070480346672 14.03289127349853515
v 0 5.46940469741821288 13.76008796691894528
v 0 4.92872381210327152 13.51271629333496096
v 0 4.37689065933227536 13.29133510589599608
v 0 3.81515502929687504 13.09644603729248046
v 0 3.24478697776794432 12.92848968505859376
v 30 1.83874559402465824 37.37923812866210936
v 25 1.83874559402465824 37.37923812866210936
v 20 1.83874559402465824 37.37923812866210936
v 20 1.60079658031463624 37.45751190185546872
v 15 1.60079658031463624 37.45751190185546872
v 15 1.37187504768371584 37.5592041015625
v 10 1.37187504768371584 37.5592041015625
v 10 1.15427923202514648 37.68329620361328128
v 5 1.15427923202514648 37.68329620361328128
v 5 0.95019382238388064 37.82854080200195312
v 0 0.95019382238388064 37.82854080200195312
v 0 0.76166766881942752 37.99348068237304688
v 5 0.76166766881942752 37.99348068237304688
v 0 0.59059345722198488 38.17645645141601562
v 5 0.59059345722198488 38.17645645141601562
v 0 0.4386886954307556 38.37563323974609376
v 5 0.4386886954307556 38.37563323974609376
v 0 0.30747839808464052 38.58901214599609376
v 5 0.30747839808464052 38.58901214599609376
v 0 0.19827990233898164 38.814453125
v 5 0.19827990233898164 38.814453125
v 0 0.11218946427106858 39.04968643188476562
v 5 0.11218946427106858 39.04968643188476562
v 0 0.05007140338420868 39.29235458374023436
v 5 0.05007140338420868 39.29235458374023436
v 0 0.01254934817552566 39.54001998901367184
v 5 0.01254934817552566 39.54001998901367184
v 0 7.15242585745115E-32 39.79019927978515632
v 10 0.01254934817552566 39.54001998901367184
v 15 0.01254934817552566 39.54001998901367184
v 15 0.05007140338420868 39.29235458374023436
v 20 0.05007140338420868 39.29235458374023436
v 20 0.11218946427106858 39.04968643188476562
v 25 0.11218946427106858 39.04968643188476562
v 25 0.19827990233898164 38.814453125
v 30 0.19827990233898164 38.814453125
v 30 0.30747839808464052 38.58901214599609376
v 30 0.4386886954307556 38.37563323974609376
v 30 0.59059345722198488 38.17645645141601562
v 30 0.76166766881942752 37.99348068237304688
v 30 0.95019382238388064 37.82854080200195312
v 30 1.15427923202514648 37.68329620361328128
v 30 1.37187504768371584 37.5592041015625
v 30 1.60079658031463624 37.45751190185546872
v 30 0.11218946427106858 39.04968643188476562
v 25 0.05007140338420868 39.29235458374023436
v 20 0.01254934817552566 39.54001998901367184
v 30 0.05007140338420868 39.29235458374023436
v 25 0.01254934817552566 39.54001998901367184
v 30 0.01254934817552566 39.54001998901367184
v 0 1.15427923202514648 37.68329620361328128
v 5 1.37187504768371584 37.5592041015625
v 10 1.60079658031463624 37.45751190185546872
v 15 1.83874559402465824 37.37923812866210936
v 0 1.37187504768371584 37.5592041015625
v 5 1.60079658031463624 37.45751190185546872
v 10 1.83874559402465824 37.37923812866210936
v 0 1.60079658031463624 37.45751190185546872
v 5 1.83874559402465824 37.37923812866210936
v 0 1.83874559402465824 37.37923812866210936
v 25 1.60079658031463624 37.45751190185546872
v 25 1.37187504768371584 37.5592041015625
v 25 1.15427923202514648 37.68329620361328128
v 25 0.95019382238388064 37.82854080200195312
v 25 0.76166766881942752 37.99348068237304688
v 25 0.59059345722198488 38.17645645141601562
v 25 0.4386886954307556 38.37563323974609376
v 25 0.30747839808464052 38.58901214599609376
v 20 1.37187504768371584 37.5592041015625
v 15 1.15427923202514648 37.68329620361328128
v 10 0.95019382238388064 37.82854080200195312
v 20 1.15427923202514648 37.68329620361328128
v 20 0.95019382238388064 37.82854080200195312
v 20 0.76166766881942752 37.99348068237304688
v 20 0.59059345722198488 38.17645645141601562
v 20 0.4386886954307556 38.37563323974609376
v 20 0.30747839808464052 38.58901214599609376
v 20 0.19827990233898164 38.814453125
v 15 0.95019382238388064 37.82854080200195312
v 10 0.76166766881942752 37.99348068237304688
v 15 0.76166766881942752 37.99348068237304688
v 15 0.59059345722198488 38.17645645141601562
v 15 0.4386886954307556 38.37563323974609376
v 15 0.30747839808464052 38.58901214599609376
v 15 0.19827990233898164 38.814453125
v 15 0.11218946427106858 39.04968643188476562
v 10 0.59059345722198488 38.17645645141601562
v 10 0.4386886954307556 38.37563323974609376
v 10 0.30747839808464052 38.58901214599609376
v 10 0.19827990233898164 38.814453125
v 10 0.11218946427106858 39.04968643188476562
v 10 0.05007140338420868 39.29235458374023436
v 0 30 7.923825805015838E-32
v 12.5 30 7.923825805015838E-32
v 12.5 0 0
v 12.5 1.9516090592913303E-32 5
v 22.5 30 7.923825805015838E-32
v 22.5 1.9516090592913303E-32 5
v 22.5 0 0
v 0 0 0
# 660 vertices

vn 1.1087067033006733E-16 -0.99863421916961664 0.0522465668618679
vn 0 -0.99863421916961664 0.0522465668618679
vn 0 -0.98773032426834112 0.15616922080516816
vn 0 -0.96604156494140624 0.25838670134544372
vn 0 -0.9338048100471496 0.35778290033340456
vn 5.312421238589521E-17 -0.9338048100471496 0.35778290033340456
vn 4.948108397508506E-17 -0.89137196540832512 0.45327255129814144
vn -9.827979026692818E-17 -0.89137196540832512 0.45327255129814144
vn -9.317063311287805E-17 -0.8392064571380616 0.54381299018859864
vn -2.7951189933863414E-16 -0.8392064571380616 0.54381299018859864
vn -2.5908532923868226E-16 -0.77787774801254272 0.62841564416885376
vn 1.727235572374181E-16 -0.77787774801254272 0.62841564416885376
vn 1.5721991615712862E-16 -0.70805555582046512 0.70615673065185544
vn 1.1005394528045698E-16 -0.70805555582046512 0.70615673065185544
vn 9.799973999874222E-17 -0.63050228357315064 0.77618741989135744
vn -2.799992609206606E-16 -0.63050228357315064 0.77618741989135744
vn -2.425014035132883E-16 -0.54606461524963376 0.83774304389953616
vn -1.4550084475495095E-16 -0.54606461524963376 0.83774304389953616
vn -1.214134379616354E-16 -0.45566460490226744 0.89015156030654912
vn -2.0235572442152157E-17 -0.45566460490226744 0.89015156030654912
vn -1.6000056981300933E-17 -0.36028924584388736 0.93284064531326288
vn -6.400022792520373E-17 -0.36028924584388736 0.93284064531326288
vn -4.635935728286914E-17 -0.26097998023033144 0.96534419059753424
vn 4.635935728286914E-17 -0.26097998023033144 0.96534419059753424
vn 2.821229842776639E-17 -0.15882112085819244 0.98730736970901488
vn -1.4171543069086984E-15 -0.15882112085819244 0.98730736970901488
vn -1.4238186562585769E-15 -0.05492810904979706 0.99849033355712896
vn 1.4189400641197473E-15 -0.05492810904979706 0.99849033355712896
vn 1.4193388048796673E-15 0.04956464469432831 0.99877089262008672
vn 0 0.04956464469432831 0.99877089262008672
vn 0 0.15351621806621552 0.98814612627029424
vn -1.3634978865166866E-17 0.15351621806621552 0.98814612627029424
vn -2.2718854667820052E-17 0.255791574716568 0.96673196554183952
vn -1.4874029843892338E-15 0.255791574716568 0.96673196554183952
vn -1.4861503285393631E-15 0.35527396202087404 0.9347622394561768
vn 6.310933455314942E-17 0.35527396202087404 0.9347622394561768
vn 8.009188192445511E-17 0.45087721943855288 0.8925859928131104
vn -1.2013781957796022E-16 0.45087721943855288 0.8925859928131104
vn -1.4429988438464236E-16 0.54155743122100832 0.84066379070281984
vn 9.619992071727994E-17 0.54155743122100832 0.84066379070281984
vn 1.1125756586361554E-16 0.6263244152069092 0.7795624732971192
vn -3.337727240606262E-16 0.6263244152069092 0.7795624732971192
vn -3.7530126715684686E-16 0.7042527794837952 0.7099493145942688
vn -2.502008271247115E-16 0.7042527794837952 0.7099493145942688
vn -2.7515462950906E-16 0.7744914293289184 0.63258439302444456
vn 0 0.7744914293289184 0.63258439302444456
vn 0 0.83627361059188848 0.54831230640411376
vn 0 0.7042527794837952 0.7099493145942688
vn 0 0.6263244152069092 0.7795624732971192
vn 0 0.54155743122100832 0.84066379070281984
vn 1.4343536814796114E-16 0.54155743122100832 0.84066379070281984
vn 1.2013781957796022E-16 0.45087721943855288 0.8925859928131104
vn -8.009188192445511E-17 0.45087721943855288 0.8925859928131104
vn -6.310933455314942E-17 0.35527396202087404 0.9347622394561768
vn 1.4545957042761803E-15 0.35527396202087404 0.9347622394561768
vn 1.4646841843153342E-15 0.255791574716568 0.96673196554183952
vn 2.2718854667820052E-17 0.255791574716568 0.96673196554183952
vn 1.3634978865166866E-17 0.15351621806621552 0.98814612627029424
vn -1.4193388048796673E-15 0.04956464469432831 0.99877089262008672
vn -1.4189400641197473E-15 -0.05492810904979706 0.99849033355712896
vn 1.4238186562585769E-15 -0.05492810904979706 0.99849033355712896
vn 1.4171543069086984E-15 -0.15882112085819244 0.98730736970901488
vn -2.115922216646357E-17 -0.15882112085819244 0.98730736970901488
vn -3.476951796215185E-17 -0.26097998023033144 0.96534419059753424
vn 6.400022792520373E-17 -0.36028924584388736 0.93284064531326288
vn 4.8000169289541574E-17 -0.36028924584388736 0.93284064531326288
vn 6.07067189808177E-17 -0.45566460490226744 0.89015156030654912
vn 1.214134379616354E-16 -0.45566460490226744 0.89015156030654912
vn 1.4550084475495095E-16 -0.54606461524963376 0.83774304389953616
vn 2.667515332767053E-16 -0.54606461524963376 0.83774304389953616
vn 3.0799917907179276E-16 -0.63050228357315064 0.77618741989135744
vn -8.399977430573123E-17 -0.63050228357315064 0.77618741989135744
vn -9.43319549882331E-17 -0.70805555582046512 0.70615673065185544
vn -1.1005394528045698E-16 -0.70805555582046512 0.70615673065185544
vn -1.209064887427037E-16 -0.77787774801254272 0.62841564416885376
vn 3.0226622185675924E-16 -0.77787774801254272 0.62841564416885376
vn 3.2609720266018336E-16 -0.8392064571380616 0.54381299018859864
vn 9.317063311287805E-17 -0.8392064571380616 0.54381299018859864
vn 9.896216795017012E-17 -0.89137196540832512 0.45327255129814144
vn -3.463676010604852E-16 -0.89137196540832512 0.45327255129814144
vn -3.6285605029085584E-16 -0.9338048100471496 0.35778290033340456
vn 2.0734632012401325E-16 -0.9338048100471496 0.35778290033340456
vn 2.1450431762857353E-16 -0.96604156494140624 0.25838670134544372
vn 5.362607940714338E-17 -0.96604156494140624 0.25838670134544372
vn 5.4830047406159214E-17 -0.98773032426834112 0.15616922080516816
vn 1.0966009481231843E-16 -0.98773032426834112 0.15616922080516816
vn -9.56235809711224E-17 0.54155743122100832 0.84066379070281984
vn -1.1125756586361554E-16 0.6263244152069092 0.7795624732971192
vn 2.2312168672680396E-16 0.6263244152069092 0.7795624732971192
vn 2.502008271247115E-16 0.7042527794837952 0.7099493145942688
vn 2.4968379291975156E-16 0.7042527794837952 0.7099493145942688
vn 2.7515462950906E-16 0.7744914293289184 0.63258439302444456
vn 3.4796356995178994E-16 -0.89137196540832512 0.45327255129814144
vn 3.6285605029085584E-16 -0.9338048100471496 0.35778290033340456
vn -2.0718441771707947E-16 -0.9338048100471496 0.35778290033340456
vn -2.1450431762857353E-16 -0.96604156494140624 0.25838670134544372
vn -1.1023273540677664E-16 -0.98773032426834112 0.15616922080516816
vn -1.1087067033006733E-16 -0.99863421916961664 0.0522465668618679
vn 0 -0.89137196540832512 0.45327255129814144
vn 0 -0.8392064571380616 0.54381299018859864
vn 0 -0.77787774801254272 0.62841564416885376
vn 0 -0.70805555582046512 0.70615673065185544
vn 0 -0.63050228357315064 0.77618741989135744
vn 0 -0.54606461524963376 0.83774304389953616
vn 0 -0.45566460490226744 0.89015156030654912
vn 0 -0.36028924584388736 0.93284064531326288
vn 0 -0.26097998023033144 0.96534419059753424
vn 0 -0.15882112085819244 0.98730736970901488
vn 0 -0.05492810904979706 0.99849033355712896
vn 0 0.255791574716568 0.96673196554183952
vn 0 0.35527396202087404 0.9347622394561768
vn 0 0.45087721943855288 0.8925859928131104
vn 2.0235572442152157E-17 -0.45566460490226744 0.89015156030654912
vn 1.6000056981300933E-17 -0.36028924584388736 0.93284064531326288
vn 1.4106149213883196E-17 -0.15882112085819244 0.98730736970901488
vn 4.878596274732612E-18 -0.05492810904979706 0.99849033355712896
vn -4.809996035863997E-17 0.54155743122100832 0.84066379070281984
vn -5.562878293180777E-17 0.6263244152069092 0.7795624732971192
vn 4.515557788103297E-17 -0.8392064571380616 0.54381299018859864
vn 4.3180889309354527E-17 -0.77787774801254272 0.62841564416885376
vn 2.317967864143457E-17 -0.26097998023033144 0.96534419059753424
vn 3.2000113962601866E-17 -0.36028924584388736 0.93284064531326288
vn 2.39058952427806E-17 -0.26097998023033144 0.96534419059753424
vn 0 0.86377888917922976 0.50387102365493776
vn 1.3297956697727446E-16 0.86377888917922976 0.50387102365493776
vn -1.2953473692035042E-16 0.86377888917922976 0.50387102365493776
vn 1 0 0
vn -1.9171798322074262E-17 -0.21585527062416076 0.97642534971237184
vn 0 -0.21585527062416076 0.97642534971237184
vn 0 -0.3124839663505554 0.94992303848266608
vn 0 -0.40597549080848696 0.91388398408889776
vn 0 -0.49539121985435488 0.86866998672485344
vn 0 -0.57983350753784176 0.81473499536514288
vn 3.8781330698144236E-17 -0.57983350753784176 0.81473499536514288
vn 4.386188394661228E-17 -0.65845453739166256 0.75262051820755008
vn 4.8658747332199143E-17 -0.730465054512024 0.68295007944107056
vn 1.1353707710846467E-16 -0.730465054512024 0.68295007944107056
vn 1.2358990235449512E-16 -0.79514205455780032 0.60642319917678832
vn 1.7655700336356446E-17 -0.79514205455780032 0.60642319917678832
vn 1.8914565003904972E-17 -0.85183626413345344 0.52380818128585816
vn 6.620097834084801E-17 -0.85183626413345344 0.52380818128585816
vn 6.994237580842946E-17 -0.89997845888137824 0.4359343647956848
vn -9.991767736295463E-18 -0.89997845888137824 0.4359343647956848
vn -1.0425941604934746E-17 -0.93908536434173584 0.34368398785591124
vn 5.2129709679034955E-17 -0.93908536434173584 0.34368398785591124
vn 5.377722184866907E-17 -0.96876430511474608 0.24798323214054108
vn 2.6888610924334535E-17 -0.96876430511474608 0.24798323214054108
vn 2.7442419924967363E-17 -0.9887173771858216 0.14979283511638642
vn 0 -0.9887173771858216 0.14979283511638642
vn 0 -0.998744249343872 0.05009859800338745
vn 0 -0.96876430511474608 0.24798323214054108
vn 0 -0.93908536434173584 0.34368398785591124
vn 0 -0.89997845888137824 0.4359343647956848
vn -7.202247035120431E-17 -0.89997845888137824 0.4359343647956848
vn -6.620097834084801E-17 -0.85183626413345344 0.52380818128585816
vn -1.8914565003904972E-17 -0.85183626413345344 0.52380818128585816
vn -1.7655700336356446E-17 -0.79514205455780032 0.60642319917678832
vn -1.2358990235449512E-16 -0.79514205455780032 0.60642319917678832
vn -1.1353707710846467E-16 -0.730465054512024 0.68295007944107056
vn -4.8658747332199143E-17 -0.730465054512024 0.68295007944107056
vn -4.386188394661228E-17 -0.65845453739166256 0.75262051820755008
vn -3.8624669307571593E-17 -0.57983350753784176 0.81473499536514288
vn 2.1999789870050155E-17 -0.49539121985435488 0.86866998672485344
vn 1.8028932500546497E-17 -0.40597549080848696 0.91388398408889776
vn -2.7754151210614097E-17 -0.3124839663505554 0.94992303848266608
vn -2.4930854739795055E-17 -0.89997845888137824 0.4359343647956848
vn -2.6064854839517477E-17 -0.93908536434173584 0.34368398785591124
vn -2.4930854739795055E-17 -0.93908536434173584 0.34368398785591124
vn -2.6888610924334535E-17 -0.96876430511474608 0.24798323214054108
vn -2.7700950262337137E-17 -0.96876430511474608 0.24798323214054108
vn -2.7442419924967363E-17 -0.9887173771858216 0.14979283511638642
vn -2.4930854739795055E-17 -0.57983350753784176 0.81473499536514288
vn -2.1999789870050155E-17 -0.49539121985435488 0.86866998672485344
vn 3.3241138329571094E-16 -0.49539121985435488 0.86866998672485344
vn 3.4270574528060687E-16 -0.40597549080848696 0.91388398408889776
vn 2.7700950262337137E-17 -0.3124839663505554 0.94992303848266608
vn 1.9171798322074262E-17 -0.21585527062416076 0.97642534971237184
vn 0 -0.65845453739166256 0.75262051820755008
vn 0 -0.730465054512024 0.68295007944107056
vn 0 -0.79514205455780032 0.60642319917678832
vn 0 -0.85183626413345344 0.52380818128585816
vn -1.8028932500546497E-17 -0.40597549080848696 0.91388398408889776
vn 2.2160759217252974E-17 -0.49539121985435488 0.86866998672485344
vn 2.5749780089834804E-17 -0.57983350753784176 0.81473499536514288
vn 0 -0.19007019698619844 0.98177051544189456
vn 0 -0.23654147982597352 0.9716213941574096
vn 0 -0.28247758746147156 0.95927387475967408
vn 0 -0.32777455449104308 0.94475597143173216
vn 0 -0.3723298907279968 0.9281004667282104
vn 0 -0.4160428047180176 0.90934503078460688
vn 0 -0.45881441235542296 0.88853210210800176
vn 0 -0.50054788589477536 0.86570882797241216
vn 0 -0.54114884138107296 0.8409268260002136
vn 0 -0.58052539825439456 0.81424212455749504
vn 7.978067010823306E-17 -0.58052539825439456 0.81424212455749504
vn 7.253945161660505E-17 -0.6185884475708008 0.78571516275405888
vn -2.544657372758104E-17 -0.6185884475708008 0.78571516275405888
vn -1.5250055628621553E-17 -0.65525192022323608 0.75541043281555168
vn -1.1501815392140821E-16 -0.65525192022323608 0.75541043281555168
vn -1.1014375062520063E-16 -0.69043278694152832 0.7233965396881104
vn 0 -0.69043278694152832 0.7233965396881104
vn 0 -0.72405153512954704 0.68974590301513672
vn 0 -0.75603204965591424 0.65453463792800904
vn 0 -0.78630197048187248 0.617842435836792
vn 1.1972167493795214E-16 -0.78630197048187248 0.617842435836792
vn 1.2405966153308643E-16 -0.81479275226593024 0.57975232601165768
vn 0 -0.81479275226593024 0.57975232601165768
vn 0 -0.84144008159637456 0.54035043716430664
vn -1.645466055670905E-16 -0.84144008159637456 0.54035043716430664
vn -1.5217571584222106E-16 -0.86618357896804816 0.49972599744796752
vn 0 -0.86618357896804816 0.49972599744796752
vn 0 -0.88896721601486208 0.45797085762023928
vn 0 -0.9097394943237304 0.4151795506477356
vn 0 -0.92845344543457024 0.37144884467124936
vn 1.4136553726222685E-16 -0.92845344543457024 0.37144884467124936
vn 1.43895055575414E-16 -0.94506663084030144 0.3268776834011078
vn 0 -0.94506663084030144 0.3268776834011078
vn 0 -0.95954155921936032 0.28156697750091552
vn 1.460989955995003E-16 -0.95954155921936032 0.28156697750091552
vn 1.479723677810308E-16 -0.97184544801712032 0.23561917245388032
vn 0 -0.97184544801712032 0.23561917245388032
vn 0 -0.98195046186447136 0.1891382783651352
vn 0 -0.98983371257781984 0.14222943782806396
vn 0 -0.99547737836837776 0.0949987769126892
vn 0 -0.99886870384216304 0.04755318537354469
vn 0 -1 0
vn 0 -0.99886870384216304 -0.04755318537354469
vn 0 -0.99547737836837776 -0.0949987769126892
vn 0 -0.98983371257781984 -0.14222943782806396
vn 0 -0.98195046186447136 -0.1891382783651352
vn 0 -0.97184544801712032 -0.23561917245388032
vn 0 -0.95954155921936032 -0.28156697750091552
vn 0 -0.94506663084030144 -0.3268776834011078
vn 1.43895055575414E-16 -0.94506663084030144 -0.3268776834011078
vn 1.4136553726222685E-16 -0.92845344543457024 -0.37144884467124936
vn 0 -0.92845344543457024 -0.37144884467124936
vn 0 -0.9097394943237304 -0.4151795506477356
vn 0 -0.88896721601486208 -0.45797085762023928
vn 0 -0.86618357896804816 -0.49972599744796752
vn 0 -0.84144008159637456 -0.54035043716430664
vn 0 -0.81479275226593024 -0.57975232601165768
vn 0 -0.78630197048187248 -0.617842435836792
vn 0 -0.75603204965591424 -0.65453463792800904
vn 1.1511279661837408E-16 -0.75603204965591424 -0.65453463792800904
vn 1.1024347551985003E-16 -0.72405153512954704 -0.68974590301513672
vn 0 -0.72405153512954704 -0.68974590301513672
vn 0 -0.69043278694152832 -0.7233965396881104
vn -1.0512471645324938E-16 -0.69043278694152832 -0.7233965396881104
vn -9.976809994714789E-17 -0.65525192022323608 -0.75541043281555168
vn 0 -0.65525192022323608 -0.75541043281555168
vn 0 -0.6185884475708008 -0.78571516275405888
vn 0 -0.58052539825439456 -0.81424212455749504
vn 0 -0.54114884138107296 -0.8409268260002136
vn 0 -0.50054788589477536 -0.86570882797241216
vn 0 -0.45881441235542296 -0.88853210210800176
vn 0 -0.4160428047180176 -0.90934503078460688
vn 0 -0.3723298907279968 -0.9281004667282104
vn 0 -0.32777455449104308 -0.94475597143173216
vn 0 -0.28247758746147156 -0.95927387475967408
vn 0 -0.23654147982597352 -0.9716213941574096
vn 0 -0.19007019698619844 -0.98177051544189456
vn -4.517081653314966E-16 -0.58052539825439456 -0.81424212455749504
vn -4.314364434422147E-16 -0.6185884475708008 -0.78571516275405888
vn 4.600726156856329E-16 -0.65525192022323608 -0.75541043281555168
vn 4.4057500250080253E-16 -0.69043278694152832 -0.7233965396881104
vn 0 -0.65525192022323608 0.75541043281555168
vn 4.9884049973573943E-17 -0.65525192022323608 0.75541043281555168
vn 4.709287788902401E-17 -0.6185884475708008 0.78571516275405888
vn 0 -0.6185884475708008 0.78571516275405888
vn -5.4016286971864246E-17 -0.23654147982597352 -0.9716213941574096
vn -6.451469456154231E-17 -0.28247758746147156 -0.95927387475967408
vn -7.602292093430267E-17 -0.28247758746147156 -0.95927387475967408
vn -8.733668045377425E-17 -0.32777455449104308 -0.94475597143173216
vn 6.401929940140675E-17 -0.4160428047180176 -0.90934503078460688
vn 6.98586916002187E-17 -0.45881441235542296 -0.88853210210800176
vn 4.721423587279738E-16 -0.45881441235542296 -0.88853210210800176
vn 4.510354094131399E-16 -0.50054788589477536 -0.86570882797241216
vn -3.601085798124283E-17 -0.50054788589477536 -0.86570882797241216
vn -4.1197432623183024E-17 -0.54114884138107296 -0.8409268260002136
vn -1.4004222033570942E-16 -0.6185884475708008 -0.78571516275405888
vn -1.4965215322944428E-16 -0.65525192022323608 -0.75541043281555168
vn 3.321001251573746E-16 -0.69043278694152832 -0.7233965396881104
vn 3.0983702880909778E-16 -0.72405153512954704 -0.68974590301513672
vn -1.0803257394372849E-16 -0.72405153512954704 -0.68974590301513672
vn -1.1511279661837408E-16 -0.75603204965591424 -0.65453463792800904
vn -1.200361888591795E-16 -0.78630197048187248 -0.617842435836792
vn -1.2405966153308643E-16 -0.81479275226593024 -0.57975232601165768
vn -1.4204281951289547E-16 -0.92845344543457024 -0.37144884467124936
vn -1.43895055575414E-16 -0.94506663084030144 -0.3268776834011078
vn -1.4604403110215738E-16 -0.95954155921936032 -0.28156697750091552
vn -1.479723677810308E-16 -0.97184544801712032 -0.23561917245388032
vn -1.4404343192497132E-16 -0.94506663084030144 0.3268776834011078
vn -1.4136553726222685E-16 -0.92845344543457024 0.37144884467124936
vn 1.5204584186860533E-16 -0.86618357896804816 0.49972599744796752
vn 1.645466055670905E-16 -0.84144008159637456 0.54035043716430664
vn -1.7605307169950735E-16 -0.81479275226593024 0.57975232601165768
vn -1.8814433467266448E-16 -0.78630197048187248 0.617842435836792
vn 1.0803257394372849E-16 -0.72405153512954704 0.68974590301513672
vn 1.0512471645324938E-16 -0.69043278694152832 0.7233965396881104
vn 1.0403136235446659E-16 -0.69043278694152832 0.7233965396881104
vn 9.976809994714789E-17 -0.65525192022323608 0.75541043281555168
vn 4.0012062953059834E-17 -0.54114884138107296 0.8409268260002136
vn 3.8106500210811225E-17 -0.50054788589477536 0.86570882797241216
vn -5.2015681177233295E-17 -0.50054788589477536 0.86570882797241216
vn -6.542845782317249E-17 -0.45881441235542296 0.88853210210800176
vn -6.802050437322376E-17 -0.45881441235542296 0.88853210210800176
vn -6.334633172481321E-17 -0.4160428047180176 0.90934503078460688
vn 8.802653584975368E-17 -0.32777455449104308 0.94475597143173216
vn 7.526714916967012E-17 -0.28247758746147156 0.95927387475967408
vn 6.601990519603771E-17 -0.28247758746147156 0.95927387475967408
vn 5.4023410651299553E-17 -0.23654147982597352 0.9716213941574096
vn -2.8757698310292006E-17 -0.21585527062416076 -0.97642534971237184
vn 0 -0.21585527062416076 -0.97642534971237184
vn 0 -0.3124839663505554 -0.94992303848266608
vn 0 -0.40597549080848696 -0.91388398408889776
vn 0 -0.49539121985435488 -0.86866998672485344
vn 0 -0.57983350753784176 -0.81473499536514288
vn 1.3019445647225331E-16 -0.57983350753784176 -0.81473499536514288
vn 1.4620627761622598E-16 -0.65845453739166256 -0.75262051820755008
vn 1.315856551485593E-16 -0.65845453739166256 -0.75262051820755008
vn 1.4597624199659743E-16 -0.730465054512024 -0.68295007944107056
vn -3.243916488813276E-17 -0.730465054512024 -0.68295007944107056
vn -3.531140067271289E-17 -0.79514205455780032 -0.60642319917678832
vn -1.14762045568872E-16 -0.79514205455780032 -0.60642319917678832
vn -1.2294467500692416E-16 -0.85183626413345344 -0.52380818128585816
vn 9.457282336516364E-17 -0.85183626413345344 -0.52380818128585816
vn 9.991768067167708E-17 -0.89997845888137824 -0.4359343647956848
vn -7.493826215811903E-17 -0.89997845888137824 -0.4359343647956848
vn -7.819456120982998E-17 -0.93908536434173584 -0.34368398785591124
vn 5.2129709679034955E-17 -0.93908536434173584 -0.34368398785591124
vn 5.377722184866907E-17 -0.96876430511474608 -0.24798323214054108
vn 8.066583277300361E-17 -0.96876430511474608 -0.24798323214054108
vn 8.232726142926331E-17 -0.9887173771858216 -0.14979283511638642
vn 1.0976967969986945E-16 -0.9887173771858216 -0.14979283511638642
vn 1.1088288613335352E-16 -0.998744249343872 -0.05009859800338745
vn 0 -0.998744249343872 -0.05009859800338745
vn 0 -0.9887173771858216 -0.14979283511638642
vn 0 -0.96876430511474608 -0.24798323214054108
vn 0 -0.93908536434173584 -0.34368398785591124
vn 0 -0.89997845888137824 -0.4359343647956848
vn -1.4127483856242164E-16 -0.89997845888137824 -0.4359343647956848
vn -1.3240195668169603E-16 -0.85183626413345344 -0.52380818128585816
vn 1.2294467500692416E-16 -0.85183626413345344 -0.52380818128585816
vn 1.14762045568872E-16 -0.79514205455780032 -0.60642319917678832
vn 3.531140067271289E-17 -0.79514205455780032 -0.60642319917678832
vn 3.243916488813276E-17 -0.730465054512024 -0.68295007944107056
vn -1.4597624199659743E-16 -0.730465054512024 -0.68295007944107056
vn -1.315856551485593E-16 -0.65845453739166256 -0.75262051820755008
vn -1.4620627761622598E-16 -0.65845453739166256 -0.75262051820755008
vn -1.2874890210353524E-16 -0.57983350753784176 -0.81473499536514288
vn -1.0299912035933922E-16 -0.57983350753784176 -0.81473499536514288
vn -8.799915948020062E-17 -0.49539121985435488 -0.86866998672485344
vn -2.1999789870050155E-17 -0.49539121985435488 -0.86866998672485344
vn -1.8028932500546497E-17 -0.40597549080848696 -0.91388398408889776
vn -1.3708229811224275E-15 -0.40597549080848696 -0.91388398408889776
vn -1.405430100369278E-15 -0.3124839663505554 -0.94992303848266608
vn -4.1631225988740533E-17 -0.3124839663505554 -0.94992303848266608
vn 4.986170947959011E-17 -0.89997845888137824 -0.4359343647956848
vn -5.263180500213219E-17 -0.93908536434173584 -0.34368398785591124
vn -5.377722184866907E-17 -0.96876430511474608 -0.24798323214054108
vn -8.033275030138565E-17 -0.96876430511474608 -0.24798323214054108
vn -8.232726142926331E-17 -0.9887173771858216 -0.14979283511638642
vn -8.171780137137914E-17 -0.9887173771858216 -0.14979283511638642
vn -8.316216460001514E-17 -0.998744249343872 -0.05009859800338745
vn 1.024935144817223E-16 -0.57983350753784176 -0.81473499536514288
vn 8.799915948020062E-17 -0.49539121985435488 -0.86866998672485344
vn 2.2160759217252974E-17 -0.49539121985435488 -0.86866998672485344
vn 1.8028932500546497E-17 -0.40597549080848696 -0.91388398408889776
vn 1.3711970520477587E-15 -0.40597549080848696 -0.91388398408889776
vn 1.405430100369278E-15 -0.3124839663505554 -0.94992303848266608
vn 0 -0.65845453739166256 -0.75262051820755008
vn 0 -0.730465054512024 -0.68295007944107056
vn 0 -0.79514205455780032 -0.60642319917678832
vn 0 -0.85183626413345344 -0.52380818128585816
vn -2.5749780089834804E-17 -0.57983350753784176 -0.81473499536514288
vn -2.9241254861500705E-17 -0.65845453739166256 -0.75262051820755008
vn 0 0.86714214086532592 -0.49806073307991024
vn 8.274388517228218E-16 0.86714214086532592 -0.49806073307991024
vn -8.46806683578265E-16 0.86714214086532592 -0.49806073307991024
vn -1 0 0
vn 0 -1 1.797534553537756E-33
vn -8.422733856103435E-34 -1 1.797534553537756E-33
vn 0 -1 -2.233521688920148E-34
vn 8.422733856103435E-34 -1 1.797534553537756E-33
vn 0 -1 3.903217971645867E-33
vn 0 0 -1
vn 0 2.641275378541208E-33 -1
# 387 vertex normals

g obj_11343876
s 1
f 1//1 2//1 3//1
f 3//2 2//2 4//2
f 3//2 4//2 5//2
f 5//3 4//3 6//3
f 5//3 6//3 7//3
f 7//4 6//4 8//4
f 7//4 8//4 9//4
f 9//5 8//5 10//5
f 9//6 10//6 11//6
f 11//7 10//7 12//7
f 11//8 12//8 13//8
f 13//9 12//9 14//9
f 14//10 12//10 15//10
f 14//11 15//11 16//11
f 16//12 15//12 17//12
f 16//13 17//13 18//13
f 18//14 17//14 19//14
f 18//15 19//15 20//15
f 20//16 19//16 21//16
f 20//17 21//17 22//17
f 22//18 21//18 23//18
f 22//19 23//19 24//19
f 24//20 23//20 25//20
f 24//21 25//21 26//21
f 26//22 25//22 27//22
f 26//23 27//23 28//23
f 28//24 27//24 29//24
f 28//25 29//25 30//25
f 30//26 29//26 31//26
f 30//27 31//27 32//27
f 32//28 31//28 33//28
f 32//29 33//29 34//29
f 34//30 33//30 35//30
f 34//31 35//31 36//31
f 36//32 35//32 37//32
f 36//33 37//33 38//33
f 38//34 37//34 39//34
f 38//35 39//35 40//35
f 40//36 39//36 41//36
f 40//37 41//37 42//37
f 42//38 41//38 43//38
f 42//39 43//39 44//39
f 44//40 43//40 45//40
f 44//41 45//41 46//41
f 46//42 45//42 47//42
f 46//43 47//43 48//43
f 48//44 47//44 49//44
f 48//45 49//45 50//45
f 50//46 49//46 51//46
f 50//47 51//47 52//47
f 52//47 51//47 53//47
f 52//47 53//47 54//47
f 54//46 53//46 55//46
f 54//46 55//46 56//46
f 56//48 55//48 57//48
f 56//48 57//48 58//48
f 58//49 57//49 59//49
f 58//49 59//49 60//49
f 60//50 59//50 61//50
f 60//51 61//51 62//51
f 62//52 61//52 63//52
f 63//53 61//53 64//53
f 63//54 64//54 65//54
f 65//55 64//55 66//55
f 65//56 66//56 67//56
f 67//57 66//57 68//57
f 67//58 68//58 69//58
f 69//31 68//31 70//31
f 69//30 70//30 71//30
f 71//59 70//59 72//59
f 71//60 72//60 73//60
f 73//61 72//61 74//61
f 73//62 74//62 75//62
f 75//63 74//63 76//63
f 75//64 76//64 77//64
f 77//24 76//24 78//24
f 77//65 78//65 79//65
f 79//66 78//66 80//66
f 79//67 80//67 81//67
f 81//68 80//68 82//68
f 81//69 82//69 83//69
f 83//70 82//70 84//70
f 83//71 84//71 85//71
f 85//72 84//72 86//72
f 85//73 86//73 87//73
f 87//74 86//74 88//74
f 87//75 88//75 89//75
f 89//76 88//76 90//76
f 89//77 90//77 91//77
f 91//78 90//78 92//78
f 91//79 92//79 93//79
f 93//80 92//80 94//80
f 93//81 94//81 95//81
f 95//82 94//82 96//82
f 95//83 96//83 97//83
f 97//84 96//84 98//84
f 97//85 98//85 1//85
f 1//86 98//86 2//86
f 62//87 99//87 60//87
f 60//88 99//88 100//88
f 60//49 100//49 58//49
f 58//48 100//48 101//48
f 58//48 101//48 56//48
f 56//46 101//46 102//46
f 56//46 102//46 54//46
f 54//47 102//47 52//47
f 99//89 103//89 100//89
f 100//90 103//90 104//90
f 100//48 104//48 101//48
f 101//46 104//46 105//46
f 101//46 105//46 102//46
f 102//47 105//47 106//47
f 102//47 106//47 52//47
f 103//91 107//91 104//91
f 104//92 107//92 108//92
f 104//46 108//46 105//46
f 105//47 108//47 106//47
f 107//46 109//46 108//46
f 108//47 109//47 106//47
f 13//93 110//93 11//93
f 11//94 110//94 111//94
f 11//5 111//5 9//5
f 9//4 111//4 112//4
f 9//4 112//4 7//4
f 7//3 112//3 113//3
f 7//3 113//3 5//3
f 5//2 113//2 3//2
f 110//95 114//95 111//95
f 111//96 114//96 115//96
f 111//4 115//4 112//4
f 112//3 115//3 116//3
f 112//3 116//3 113//3
f 113//2 116//2 117//2
f 113//2 117//2 3//2
f 114//4 118//4 115//4
f 115//3 118//3 119//3
f 115//3 119//3 116//3
f 116//2 119//2 117//2
f 118//97 120//97 119//97
f 119//98 120//98 117//98
f 4//3 2//3 121//3
f 121//3 2//3 98//3
f 121//4 98//4 122//4
f 122//4 98//4 96//4
f 122//5 96//5 123//5
f 123//5 96//5 94//5
f 123//99 94//99 124//99
f 124//99 94//99 92//99
f 124//100 92//100 125//100
f 125//100 92//100 90//100
f 125//101 90//101 126//101
f 126//101 90//101 88//101
f 126//102 88//102 127//102
f 127//102 88//102 86//102
f 127//103 86//103 128//103
f 128//103 86//103 84//103
f 128//104 84//104 129//104
f 129//104 84//104 82//104
f 129//105 82//105 130//105
f 130//105 82//105 80//105
f 130//106 80//106 131//106
f 131//106 80//106 78//106
f 131//107 78//107 132//107
f 132//107 78//107 76//107
f 132//108 76//108 133//108
f 133//108 76//108 74//108
f 133//109 74//109 134//109
f 134//109 74//109 72//109
f 134//30 72//30 135//30
f 135//30 72//30 70//30
f 135//31 70//31 136//31
f 136//31 70//31 68//31
f 136//110 68//110 137//110
f 137//110 68//110 66//110
f 137//111 66//111 138//111
f 138//111 66//111 64//111
f 138//112 64//112 139//112
f 139//112 64//112 61//112
f 139//50 61//50 59//50
f 4//3 121//3 6//3
f 6//4 121//4 140//4
f 6//4 140//4 8//4
f 8//5 140//5 141//5
f 8//5 141//5 10//5
f 10//99 141//99 142//99
f 10//99 142//99 12//99
f 12//100 142//100 15//100
f 140//4 121//4 122//4
f 140//5 122//5 143//5
f 143//5 122//5 123//5
f 143//99 123//99 144//99
f 144//99 123//99 124//99
f 144//100 124//100 145//100
f 145//100 124//100 125//100
f 145//101 125//101 146//101
f 146//101 125//101 126//101
f 146//102 126//102 147//102
f 147//102 126//102 127//102
f 147//103 127//103 148//103
f 148//103 127//103 128//103
f 148//104 128//104 149//104
f 149//104 128//104 129//104
f 149//105 129//105 150//105
f 150//113 129//113 130//113
f 150//114 130//114 151//114
f 151//106 130//106 131//106
f 151//107 131//107 152//107
f 152//107 131//107 132//107
f 152//108 132//108 153//108
f 153//115 132//115 133//115
f 153//116 133//116 154//116
f 154//109 133//109 134//109
f 154//30 134//30 155//30
f 155//30 134//30 135//30
f 155//31 135//31 156//31
f 156//32 135//32 136//32
f 156//33 136//33 157//33
f 157//110 136//110 137//110
f 157//111 137//111 158//111
f 158//111 137//111 138//111
f 158//112 138//112 159//112
f 159//112 138//112 139//112
f 159//50 139//50 160//50
f 160//50 139//50 59//50
f 160//49 59//49 57//49
f 140//5 143//5 141//5
f 141//99 143//99 161//99
f 141//99 161//99 142//99
f 142//100 161//100 162//100
f 142//100 162//100 15//100
f 15//101 162//101 17//101
f 161//99 143//99 144//99
f 161//100 144//100 163//100
f 163//100 144//100 145//100
f 163//101 145//101 164//101
f 164//101 145//101 146//101
f 164//102 146//102 165//102
f 165//102 146//102 147//102
f 165//103 147//103 166//103
f 166//103 147//103 148//103
f 166//104 148//104 167//104
f 167//104 148//104 149//104
f 167//105 149//105 168//105
f 168//105 149//105 150//105
f 168//106 150//106 169//106
f 169//106 150//106 151//106
f 169//107 151//107 170//107
f 170//107 151//107 152//107
f 170//108 152//108 171//108
f 171//108 152//108 153//108
f 171//109 153//109 172//109
f 172//109 153//109 154//109
f 172//30 154//30 173//30
f 173//30 154//30 155//30
f 173//31 155//31 174//31
f 174//31 155//31 156//31
f 174//110 156//110 175//110
f 175//110 156//110 157//110
f 175//111 157//111 176//111
f 176//111 157//111 158//111
f 176//112 158//112 177//112
f 177//112 158//112 159//112
f 177//50 159//50 178//50
f 178//117 159//117 160//117
f 178//118 160//118 179//118
f 179//49 160//49 57//49
f 179//48 57//48 55//48
f 161//119 163//119 162//119
f 162//120 163//120 180//120
f 162//101 180//101 17//101
f 17//102 180//102 19//102
f 180//101 163//101 164//101
f 180//102 164//102 181//102
f 181//102 164//102 165//102
f 181//103 165//103 182//103
f 182//103 165//103 166//103
f 182//104 166//104 183//104
f 183//104 166//104 167//104
f 183//105 167//105 184//105
f 184//105 167//105 168//105
f 184//106 168//106 185//106
f 185//106 168//106 169//106
f 185//107 169//107 186//107
f 186//121 169//121 170//121
f 186//115 170//115 187//115
f 187//108 170//108 171//108
f 187//109 171//109 188//109
f 188//109 171//109 172//109
f 188//30 172//30 189//30
f 189//30 172//30 173//30
f 189//31 173//31 190//31
f 190//31 173//31 174//31
f 190//110 174//110 191//110
f 191//110 174//110 175//110
f 191//111 175//111 192//111
f 192//111 175//111 176//111
f 192//112 176//112 193//112
f 193//112 176//112 177//112
f 193//50 177//50 194//50
f 194//50 177//50 178//50
f 194//49 178//49 195//49
f 195//49 178//49 179//49
f 195//48 179//48 196//48
f 196//48 179//48 55//48
f 196//46 55//46 53//46
f 21//103 19//103 181//103
f 181//102 19//102 180//102
f 21//103 181//103 182//103
f 23//104 21//104 182//104
f 23//104 182//104 183//104
f 25//105 23//105 183//105
f 25//105 183//105 184//105
f 27//106 25//106 184//106
f 27//122 184//122 185//122
f 29//123 27//123 185//123
f 29//107 185//107 186//107
f 31//108 29//108 186//108
f 31//108 186//108 187//108
f 33//109 31//109 187//109
f 33//109 187//109 188//109
f 35//30 33//30 188//30
f 35//30 188//30 189//30
f 37//31 35//31 189//31
f 37//31 189//31 190//31
f 39//110 37//110 190//110
f 39//110 190//110 191//110
f 41//111 39//111 191//111
f 41//111 191//111 192//111
f 43//112 41//112 192//112
f 43//112 192//112 193//112
f 45//50 43//50 193//50
f 45//50 193//50 194//50
f 47//49 45//49 194//49
f 47//49 194//49 195//49
f 49//48 47//48 195//48
f 49//48 195//48 196//48
f 51//46 49//46 196//46
f 51//46 196//46 53//46
f 106//124 197//124 52//124
f 52//124 197//124 198//124
f 52//124 198//124 199//124
f 199//125 198//125 200//125
f 106//124 201//124 197//124
f 197//126 201//126 202//126
f 109//127 107//127 106//127
f 106//127 107//127 103//127
f 106//127 103//127 99//127
f 99//127 62//127 106//127
f 106//127 62//127 63//127
f 106//127 63//127 65//127
f 106//127 65//127 3//127
f 3//127 65//127 67//127
f 3//127 67//127 69//127
f 69//127 71//127 3//127
f 3//127 71//127 73//127
f 3//127 73//127 75//127
f 75//127 77//127 3//127
f 3//127 77//127 79//127
f 3//127 79//127 81//127
f 81//127 83//127 3//127
f 3//127 83//127 85//127
f 3//127 85//127 87//127
f 87//127 89//127 3//127
f 3//127 89//127 91//127
f 3//127 91//127 93//127
f 93//127 95//127 3//127
f 3//127 95//127 97//127
f 3//127 97//127 1//127
f 3//127 203//127 106//127
f 106//127 203//127 204//127
f 106//127 204//127 205//127
f 206//127 207//127 203//127
f 203//127 207//127 208//127
f 203//127 208//127 209//127
f 209//127 210//127 203//127
f 203//127 210//127 211//127
f 203//127 211//127 212//127
f 212//127 213//127 203//127
f 203//127 213//127 214//127
f 203//127 214//127 215//127
f 215//127 216//127 203//127
f 203//127 216//127 217//127
f 203//127 217//127 218//127
f 218//127 219//127 203//127
f 203//127 219//127 204//127
f 205//127 220//127 106//127
f 106//127 220//127 221//127
f 106//127 221//127 222//127
f 222//127 223//127 106//127
f 106//127 223//127 224//127
f 106//127 224//127 225//127
f 225//127 226//127 106//127
f 106//127 226//127 227//127
f 106//127 227//127 228//127
f 228//127 229//127 106//127
f 106//127 229//127 230//127
f 106//127 230//127 231//127
f 231//127 232//127 106//127
f 106//127 232//127 233//127
f 106//127 233//127 234//127
f 234//127 235//127 106//127
f 106//127 235//127 236//127
f 106//127 236//127 237//127
f 237//127 238//127 106//127
f 106//127 238//127 201//127
f 201//127 238//127 239//127
f 201//127 239//127 240//127
f 240//127 241//127 201//127
f 201//127 241//127 242//127
f 201//127 242//127 243//127
f 243//127 244//127 201//127
f 201//127 244//127 245//127
f 201//127 245//127 246//127
f 246//127 247//127 201//127
f 201//127 247//127 248//127
f 201//127 248//127 249//127
f 249//127 250//127 201//127
f 201//127 250//127 251//127
f 201//127 251//127 252//127
f 201//127 252//127 253//127
f 253//127 252//127 254//127
f 253//127 254//127 255//127
f 255//127 256//127 253//127
f 253//127 256//127 257//127
f 253//127 257//127 258//127
f 258//127 259//127 253//127
f 253//127 259//127 260//127
f 253//127 260//127 261//127
f 261//127 262//127 253//127
f 253//127 262//127 263//127
f 253//127 263//127 264//127
f 264//127 265//127 253//127
f 253//127 265//127 266//127
f 253//127 266//127 267//127
f 267//127 266//127 268//127
f 267//127 268//127 269//127
f 269//127 270//127 267//127
f 267//127 270//127 271//127
f 267//127 271//127 272//127
f 272//127 273//127 267//127
f 267//127 273//127 274//127
f 267//127 274//127 275//127
f 275//127 276//127 267//127
f 267//127 276//127 277//127
f 267//127 277//127 278//127
f 278//127 277//127 279//127
f 278//127 279//127 280//127
f 280//127 281//127 278//127
f 278//127 281//127 282//127
f 278//127 282//127 283//127
f 283//127 284//127 278//127
f 278//127 284//127 285//127
f 278//127 285//127 286//127
f 286//127 287//127 278//127
f 278//127 287//127 288//127
f 278//127 288//127 289//127
f 289//127 290//127 278//127
f 278//127 290//127 291//127
f 278//127 291//127 292//127
f 293//128 294//128 295//128
f 295//129 294//129 296//129
f 295//129 296//129 297//129
f 297//130 296//130 298//130
f 297//130 298//130 299//130
f 299//131 298//131 300//131
f 299//131 300//131 301//131
f 301//132 300//132 302//132
f 301//132 302//132 303//132
f 303//133 302//133 304//133
f 303//134 304//134 284//134
f 284//135 304//135 285//135
f 285//135 304//135 305//135
f 285//136 305//136 286//136
f 286//137 305//137 306//137
f 286//138 306//138 287//138
f 287//139 306//139 307//139
f 287//140 307//140 288//140
f 288//141 307//141 308//141
f 288//142 308//142 289//142
f 289//143 308//143 309//143
f 289//144 309//144 290//144
f 290//145 309//145 310//145
f 290//146 310//146 291//146
f 291//147 310//147 311//147
f 291//148 311//148 292//148
f 292//149 311//149 312//149
f 292//150 312//150 278//150
f 278//150 312//150 313//150
f 278//150 313//150 314//150
f 314//149 313//149 315//149
f 314//149 315//149 316//149
f 316//151 315//151 317//151
f 316//151 317//151 318//151
f 318//152 317//152 319//152
f 318//152 319//152 320//152
f 320//153 319//153 321//153
f 320//154 321//154 322//154
f 322//155 321//155 323//155
f 323//156 321//156 324//156
f 323//157 324//157 325//157
f 325//158 324//158 326//158
f 325//159 326//159 327//159
f 327//160 326//160 328//160
f 327//161 328//161 329//161
f 329//161 328//161 330//161
f 329//162 330//162 331//162
f 331//133 330//133 332//133
f 331//132 332//132 333//132
f 333//163 332//163 334//163
f 333//164 334//164 335//164
f 335//131 334//131 336//131
f 335//130 336//130 293//130
f 293//165 336//165 294//165
f 322//166 337//166 320//166
f 320//167 337//167 338//167
f 320//152 338//152 318//152
f 318//151 338//151 339//151
f 318//151 339//151 316//151
f 316//149 339//149 340//149
f 316//149 340//149 314//149
f 314//150 340//150 278//150
f 337//168 341//168 338//168
f 338//169 341//169 342//169
f 338//151 342//151 339//151
f 339//149 342//149 343//149
f 339//149 343//149 340//149
f 340//150 343//150 344//150
f 340//150 344//150 278//150
f 341//170 345//170 342//170
f 342//171 345//171 346//171
f 342//149 346//149 343//149
f 343//150 346//150 344//150
f 345//149 347//149 346//149
f 346//150 347//150 344//150
f 284//172 283//172 303//172
f 303//173 283//173 348//173
f 303//132 348//132 301//132
f 301//131 348//131 349//131
f 301//131 349//131 299//131
f 299//130 349//130 350//130
f 299//130 350//130 297//130
f 297//129 350//129 295//129
f 283//174 282//174 348//174
f 348//175 282//175 351//175
f 348//131 351//131 349//131
f 349//130 351//130 352//130
f 349//130 352//130 350//130
f 350//129 352//129 279//129
f 350//129 279//129 295//129
f 282//131 281//131 351//131
f 351//130 281//130 353//130
f 351//130 353//130 352//130
f 352//129 353//129 279//129
f 281//176 280//176 353//176
f 353//177 280//177 279//177
f 296//130 294//130 354//130
f 354//130 294//130 336//130
f 354//131 336//131 355//131
f 355//131 336//131 334//131
f 355//132 334//132 356//132
f 356//132 334//132 332//132
f 356//133 332//133 357//133
f 357//133 332//133 330//133
f 357//178 330//178 358//178
f 358//178 330//178 328//178
f 358//179 328//179 359//179
f 359//179 328//179 326//179
f 359//180 326//180 360//180
f 360//180 326//180 324//180
f 360//181 324//181 361//181
f 361//181 324//181 321//181
f 361//153 321//153 319//153
f 296//130 354//130 298//130
f 298//131 354//131 362//131
f 298//131 362//131 300//131
f 300//132 362//132 363//132
f 300//132 363//132 302//132
f 302//133 363//133 364//133
f 302//133 364//133 304//133
f 304//178 364//178 305//178
f 362//182 354//182 355//182
f 362//173 355//173 365//173
f 365//132 355//132 356//132
f 365//133 356//133 366//133
f 366//133 356//133 357//133
f 366//178 357//178 367//178
f 367//178 357//178 358//178
f 367//179 358//179 368//179
f 368//179 358//179 359//179
f 368//180 359//180 369//180
f 369//180 359//180 360//180
f 369//181 360//181 370//181
f 370//181 360//181 361//181
f 370//153 361//153 371//153
f 371//153 361//153 319//153
f 371//152 319//152 317//152
f 362//183 365//183 363//183
f 363//184 365//184 372//184
f 363//133 372//133 364//133
f 364//178 372//178 373//178
f 364//178 373//178 305//178
f 305//179 373//179 306//179
f 372//133 365//133 366//133
f 372//178 366//178 374//178
f 374//178 366//178 367//178
f 374//179 367//179 375//179
f 375//179 367//179 368//179
f 375//180 368//180 376//180
f 376//180 368//180 369//180
f 376//181 369//181 377//181
f 377//181 369//181 370//181
f 377//153 370//153 378//153
f 378//153 370//153 371//153
f 378//152 371//152 379//152
f 379//152 371//152 317//152
f 379//151 317//151 315//151
f 372//178 374//178 373//178
f 373//179 374//179 380//179
f 373//179 380//179 306//179
f 306//180 380//180 307//180
f 380//179 374//179 375//179
f 380//180 375//180 381//180
f 381//180 375//180 376//180
f 381//181 376//181 382//181
f 382//181 376//181 377//181
f 382//153 377//153 383//153
f 383//153 377//153 378//153
f 383//152 378//152 384//152
f 384//152 378//152 379//152
f 384//151 379//151 385//151
f 385//151 379//151 315//151
f 385//149 315//149 313//149
f 308//181 307//181 381//181
f 381//180 307//180 380//180
f 308//181 381//181 382//181
f 309//153 308//153 382//153
f 309//153 382//153 383//153
f 310//152 309//152 383//152
f 310//152 383//152 384//152
f 311//151 310//151 384//151
f 311//151 384//151 385//151
f 312//149 311//149 385//149
f 312//149 385//149 313//149
f 386//185 295//185 387//185
f 387//185 295//185 279//185
f 387//185 279//185 388//185
f 388//185 279//185 277//185
f 388//186 277//186 389//186
f 389//186 277//186 276//186
f 389//187 276//187 390//187
f 390//187 276//187 275//187
f 390//188 275//188 391//188
f 391//188 275//188 274//188
f 391//189 274//189 392//189
f 392//189 274//189 273//189
f 392//190 273//190 393//190
f 393//190 273//190 272//190
f 393//191 272//191 394//191
f 394//191 272//191 271//191
f 394//192 271//192 395//192
f 395//192 271//192 270//192
f 395//193 270//193 396//193
f 396//193 270//193 269//193
f 396//194 269//194 397//194
f 397//195 269//195 268//195
f 397//196 268//196 398//196
f 398//197 268//197 266//197
f 398//198 266//198 399//198
f 399//199 266//199 265//199
f 399//200 265//200 400//200
f 400//201 265//201 264//201
f 400//202 264//202 401//202
f 401//202 264//202 263//202
f 401//203 263//203 402//203
f 402//203 263//203 262//203
f 402//204 262//204 403//204
f 403//205 262//205 261//205
f 403//206 261//206 404//206
f 404//207 261//207 260//207
f 404//208 260//208 405//208
f 405//209 260//209 259//209
f 405//210 259//210 406//210
f 406//211 259//211 258//211
f 406//212 258//212 407//212
f 407//212 258//212 257//212
f 407//213 257//213 408//213
f 408//213 257//213 256//213
f 408//214 256//214 409//214
f 409//215 256//215 255//215
f 409//216 255//216 410//216
f 410//217 255//217 254//217
f 410//218 254//218 411//218
f 411//219 254//219 252//219
f 411//220 252//220 412//220
f 412//221 252//221 251//221
f 412//222 251//222 413//222
f 413//222 251//222 250//222
f 413//223 250//223 414//223
f 414//223 250//223 249//223
f 414//224 249//224 415//224
f 415//224 249//224 248//224
f 415//225 248//225 416//225
f 416//225 248//225 247//225
f 416//226 247//226 417//226
f 417//226 247//226 246//226
f 417//227 246//227 418//227
f 418//227 246//227 245//227
f 418//228 245//228 419//228
f 419//228 245//228 244//228
f 419//229 244//229 420//229
f 420//229 244//229 243//229
f 420//230 243//230 421//230
f 421//230 243//230 242//230
f 421//231 242//231 422//231
f 422//231 242//231 241//231
f 422//232 241//232 423//232
f 423//232 241//232 240//232
f 423//233 240//233 424//233
f 424//234 240//234 239//234
f 424//235 239//235 425//235
f 425//236 239//236 238//236
f 425//237 238//237 426//237
f 426//237 238//237 237//237
f 426//238 237//238 427//238
f 427//238 237//238 236//238
f 427//239 236//239 428//239
f 428//239 236//239 235//239
f 428//240 235//240 429//240
f 429//240 235//240 234//240
f 429//241 234//241 430//241
f 430//241 234//241 233//241
f 430//242 233//242 431//242
f 431//242 233//242 232//242
f 431//243 232//243 432//243
f 432//244 232//244 231//244
f 432//245 231//245 433//245
f 433//246 231//246 230//246
f 433//247 230//247 434//247
f 434//248 230//248 229//248
f 434//249 229//249 435//249
f 435//250 229//250 228//250
f 435//251 228//251 436//251
f 436//251 228//251 227//251
f 436//252 227//252 437//252
f 437//252 227//252 226//252
f 437//253 226//253 438//253
f 438//253 226//253 225//253
f 438//254 225//254 439//254
f 439//254 225//254 224//254
f 439//255 224//255 440//255
f 440//255 224//255 223//255
f 440//256 223//256 441//256
f 441//256 223//256 222//256
f 441//257 222//257 442//257
f 442//257 222//257 221//257
f 442//258 221//258 443//258
f 443//258 221//258 220//258
f 443//259 220//259 444//259
f 444//259 220//259 205//259
f 444//260 205//260 445//260
f 445//260 205//260 204//260
f 445//261 204//261 219//261
f 219//261 446//261 445//261
f 445//261 446//261 447//261
f 445//260 447//260 444//260
f 444//260 447//260 448//260
f 444//259 448//259 443//259
f 443//259 448//259 449//259
f 443//258 449//258 442//258
f 442//258 449//258 450//258
f 442//257 450//257 441//257
f 441//257 450//257 451//257
f 441//256 451//256 440//256
f 440//256 451//256 452//256
f 440//255 452//255 439//255
f 439//255 452//255 453//255
f 439//254 453//254 438//254
f 438//254 453//254 454//254
f 438//253 454//253 437//253
f 437//253 454//253 455//253
f 437//252 455//252 436//252
f 436//262 455//262 456//262
f 436//263 456//263 435//263
f 435//251 456//251 457//251
f 435//250 457//250 434//250
f 434//264 457//264 458//264
f 434//265 458//265 433//265
f 433//247 458//247 459//247
f 433//246 459//246 432//246
f 432//246 459//246 460//246
f 432//243 460//243 431//243
f 431//243 460//243 461//243
f 431//242 461//242 430//242
f 430//242 461//242 462//242
f 430//241 462//241 429//241
f 429//241 462//241 463//241
f 429//240 463//240 428//240
f 428//240 463//240 464//240
f 428//239 464//239 427//239
f 427//239 464//239 465//239
f 427//238 465//238 426//238
f 426//238 465//238 466//238
f 426//237 466//237 425//237
f 425//237 466//237 467//237
f 425//236 467//236 424//236
f 424//236 467//236 468//236
f 424//233 468//233 423//233
f 423//233 468//233 469//233
f 423//232 469//232 422//232
f 422//232 469//232 470//232
f 422//231 470//231 421//231
f 421//231 470//231 471//231
f 421//230 471//230 420//230
f 420//230 471//230 472//230
f 420//229 472//229 419//229
f 419//229 472//229 473//229
f 419//228 473//228 418//228
f 418//228 473//228 474//228
f 418//227 474//227 417//227
f 417//227 474//227 475//227
f 417//226 475//226 416//226
f 416//226 475//226 476//226
f 416//225 476//225 415//225
f 415//225 476//225 477//225
f 415//224 477//224 414//224
f 414//224 477//224 478//224
f 414//223 478//223 413//223
f 413//223 478//223 479//223
f 413//222 479//222 412//222
f 412//222 479//222 480//222
f 412//221 480//221 411//221
f 411//221 480//221 481//221
f 411//218 481//218 410//218
f 410//218 481//218 482//218
f 410//217 482//217 409//217
f 409//217 482//217 483//217
f 409//214 483//214 408//214
f 408//214 483//214 484//214
f 408//213 484//213 407//213
f 407//213 484//213 485//213
f 407//212 485//212 406//212
f 406//212 485//212 486//212
f 406//211 486//211 405//211
f 405//211 486//211 487//211
f 405//208 487//208 404//208
f 404//208 487//208 488//208
f 404//207 488//207 403//207
f 403//207 488//207 489//207
f 403//204 489//204 402//204
f 402//204 489//204 490//204
f 402//203 490//203 401//203
f 401//203 490//203 491//203
f 401//202 491//202 400//202
f 400//202 491//202 492//202
f 400//201 492//201 399//201
f 399//201 492//201 493//201
f 399//266 493//266 398//266
f 398//267 493//267 494//267
f 398//268 494//268 397//268
f 397//269 494//269 495//269
f 397//194 495//194 396//194
f 396//194 495//194 496//194
f 396//193 496//193 395//193
f 395//193 496//193 497//193
f 395//192 497//192 394//192
f 394//192 497//192 498//192
f 394//191 498//191 393//191
f 393//191 498//191 499//191
f 393//190 499//190 392//190
f 392//190 499//190 500//190
f 392//189 500//189 391//189
f 391//189 500//189 501//189
f 391//188 501//188 390//188
f 390//188 501//188 502//188
f 390//187 502//187 389//187
f 389//187 502//187 503//187
f 389//186 503//186 388//186
f 388//186 503//186 387//186
f 446//261 504//261 447//261
f 447//260 504//260 448//260
f 504//270 505//270 448//270
f 448//271 505//271 449//271
f 505//272 506//272 449//272
f 449//273 506//273 450//273
f 506//258 507//258 450//258
f 450//257 507//257 451//257
f 507//257 508//257 451//257
f 451//256 508//256 452//256
f 508//274 509//274 452//274
f 452//275 509//275 453//275
f 509//276 510//276 453//276
f 453//277 510//277 454//277
f 510//278 511//278 454//278
f 454//279 511//279 455//279
f 511//253 512//253 455//253
f 455//252 512//252 456//252
f 512//252 513//252 456//252
f 456//251 513//251 457//251
f 513//280 514//280 457//280
f 457//281 514//281 458//281
f 514//250 515//250 458//250
f 458//247 515//247 459//247
f 515//282 516//282 459//282
f 459//283 516//283 460//283
f 516//284 517//284 460//284
f 460//285 517//285 461//285
f 517//243 518//243 461//243
f 461//242 518//242 462//242
f 518//286 519//286 462//286
f 462//287 519//287 463//287
f 519//241 520//241 463//241
f 463//240 520//240 464//240
f 520//240 521//240 464//240
f 464//239 521//239 465//239
f 521//239 522//239 465//239
f 465//238 522//238 466//238
f 522//238 523//238 466//238
f 466//237 523//237 467//237
f 523//237 524//237 467//237
f 467//236 524//236 468//236
f 524//288 525//288 468//288
f 468//289 525//289 469//289
f 525//233 526//233 469//233
f 469//232 526//232 470//232
f 526//290 527//290 470//290
f 470//291 527//291 471//291
f 527//231 528//231 471//231
f 471//230 528//230 472//230
f 528//230 529//230 472//230
f 472//229 529//229 473//229
f 529//229 530//229 473//229
f 473//228 530//228 474//228
f 530//228 531//228 474//228
f 474//227 531//227 475//227
f 531//227 532//227 475//227
f 475//226 532//226 476//226
f 532//226 533//226 476//226
f 476//225 533//225 477//225
f 533//225 534//225 477//225
f 477//224 534//224 478//224
f 534//224 535//224 478//224
f 478//223 535//223 479//223
f 535//223 536//223 479//223
f 479//222 536//222 480//222
f 536//222 537//222 480//222
f 480//221 537//221 481//221
f 537//221 538//221 481//221
f 481//218 538//218 482//218
f 538//218 539//218 482//218
f 482//217 539//217 483//217
f 539//292 540//292 483//292
f 483//293 540//293 484//293
f 540//214 541//214 484//214
f 484//213 541//213 485//213
f 541//213 542//213 485//213
f 485//212 542//212 486//212
f 542//212 543//212 486//212
f 486//211 543//211 487//211
f 543//294 544//294 487//294
f 487//295 544//295 488//295
f 544//208 545//208 488//208
f 488//207 545//207 489//207
f 545//296 546//296 489//296
f 489//297 546//297 490//297
f 546//204 547//204 490//204
f 490//203 547//203 491//203
f 547//203 548//203 491//203
f 491//202 548//202 492//202
f 548//298 549//298 492//298
f 492//299 549//299 493//299
f 549//300 550//300 493//300
f 493//301 550//301 494//301
f 550//266 551//266 494//266
f 494//269 551//269 495//269
f 551//269 552//269 495//269
f 495//194 552//194 496//194
f 552//194 553//194 496//194
f 496//193 553//193 497//193
f 553//302 554//302 497//302
f 497//303 554//303 498//303
f 554//304 555//304 498//304
f 498//305 555//305 499//305
f 555//306 556//306 499//306
f 499//307 556//307 500//307
f 556//190 557//190 500//190
f 500//189 557//189 501//189
f 557//189 558//189 501//189
f 501//188 558//188 502//188
f 558//308 559//308 502//308
f 502//309 559//309 503//309
f 559//310 560//310 503//310
f 503//311 560//311 387//311
f 560//186 386//186 387//186
f 218//312 561//312 219//312
f 219//313 561//313 562//313
f 219//313 562//313 563//313
f 563//314 562//314 564//314
f 563//314 564//314 565//314
f 565//315 564//315 566//315
f 565//315 566//315 567//315
f 567//316 566//316 568//316
f 567//316 568//316 569//316
f 569//317 568//317 570//317
f 569//318 570//318 571//318
f 571//319 570//319 572//319
f 572//320 570//320 573//320
f 572//321 573//321 574//321
f 574//322 573//322 575//322
f 574//323 575//323 576//323
f 576//324 575//324 577//324
f 576//325 577//325 578//325
f 578//326 577//326 579//326
f 578//327 579//327 580//327
f 580//328 579//328 581//328
f 580//329 581//329 582//329
f 582//330 581//330 583//330
f 582//331 583//331 584//331
f 584//332 583//332 585//332
f 584//333 585//333 586//333
f 586//334 585//334 587//334
f 586//335 587//335 588//335
f 588//336 587//336 589//336
f 588//336 589//336 590//336
f 590//337 589//337 591//337
f 590//337 591//337 592//337
f 592//338 591//338 593//338
f 592//338 593//338 594//338
f 594//339 593//339 595//339
f 594//339 595//339 596//339
f 596//340 595//340 597//340
f 596//341 597//341 210//341
f 210//342 597//342 211//342
f 211//343 597//343 598//343
f 211//344 598//344 212//344
f 212//345 598//345 599//345
f 212//346 599//346 213//346
f 213//347 599//347 600//347
f 213//348 600//348 214//348
f 214//349 600//349 601//349
f 214//350 601//350 215//350
f 215//351 601//351 602//351
f 215//352 602//352 216//352
f 216//353 602//353 603//353
f 216//354 603//354 217//354
f 217//355 603//355 604//355
f 217//356 604//356 218//356
f 218//357 604//357 561//357
f 210//358 209//358 596//358
f 596//330 209//330 605//330
f 596//339 605//339 594//339
f 594//338 605//338 606//338
f 594//338 606//338 592//338
f 592//337 606//337 607//337
f 592//337 607//337 590//337
f 590//336 607//336 588//336
f 209//359 208//359 605//359
f 605//360 208//360 608//360
f 605//338 608//338 606//338
f 606//337 608//337 609//337
f 606//337 609//337 607//337
f 607//336 609//336 203//336
f 607//336 203//336 588//336
f 208//361 207//361 608//361
f 608//362 207//362 610//362
f 608//337 610//337 609//337
f 609//336 610//336 203//336
f 207//363 206//363 610//363
f 610//364 206//364 203//364
f 571//365 611//365 569//365
f 569//366 611//366 612//366
f 569//316 612//316 567//316
f 567//315 612//315 613//315
f 567//315 613//315 565//315
f 565//314 613//314 614//314
f 565//314 614//314 563//314
f 563//313 614//313 219//313
f 611//367 615//367 612//367
f 612//368 615//368 616//368
f 612//315 616//315 613//315
f 613//314 616//314 617//314
f 613//314 617//314 614//314
f 614//313 617//313 446//313
f 614//313 446//313 219//313
f 615//369 618//369 616//369
f 616//370 618//370 619//370
f 616//314 619//314 617//314
f 617//313 619//313 446//313
f 618//314 620//314 619//314
f 619//313 620//313 446//313
f 562//314 561//314 621//314
f 621//314 561//314 604//314
f 621//315 604//315 622//315
f 622//315 604//315 603//315
f 622//316 603//316 623//316
f 623//316 603//316 602//316
f 623//317 602//317 624//317
f 624//317 602//317 601//317
f 624//371 601//371 625//371
f 625//371 601//371 600//371
f 625//372 600//372 626//372
f 626//372 600//372 599//372
f 626//373 599//373 627//373
f 627//373 599//373 598//373
f 627//374 598//374 628//374
f 628//374 598//374 597//374
f 628//340 597//340 595//340
f 562//314 621//314 564//314
f 564//315 621//315 629//315
f 564//315 629//315 566//315
f 566//316 629//316 630//316
f 566//316 630//316 568//316
f 568//317 630//317 631//317
f 568//317 631//317 570//317
f 570//371 631//371 573//371
f 629//315 621//315 622//315
f 629//316 622//316 632//316
f 632//316 622//316 623//316
f 632//317 623//317 633//317
f 633//317 623//317 624//317
f 633//371 624//371 634//371
f 634//371 624//371 625//371
f 634//372 625//372 635//372
f 635//372 625//372 626//372
f 635//373 626//373 636//373
f 636//373 626//373 627//373
f 636//374 627//374 637//374
f 637//374 627//374 628//374
f 637//340 628//340 638//340
f 638//340 628//340 595//340
f 638//339 595//339 593//339
f 629//316 632//316 630//316
f 630//317 632//317 639//317
f 630//317 639//317 631//317
f 631//371 639//371 640//371
f 631//371 640//371 573//371
f 573//372 640//372 575//372
f 639//375 632//375 633//375
f 639//376 633//376 641//376
f 641//371 633//371 634//371
f 641//372 634//372 642//372
f 642//372 634//372 635//372
f 642//373 635//373 643//373
f 643//373 635//373 636//373
f 643//374 636//374 644//374
f 644//374 636//374 637//374
f 644//340 637//340 645//340
f 645//340 637//340 638//340
f 645//339 638//339 646//339
f 646//339 638//339 593//339
f 646//338 593//338 591//338
f 639//371 641//371 640//371
f 640//372 641//372 647//372
f 640//372 647//372 575//372
f 575//373 647//373 577//373
f 647//372 641//372 642//372
f 647//373 642//373 648//373
f 648//373 642//373 643//373
f 648//374 643//374 649//374
f 649//374 643//374 644//374
f 649//340 644//340 650//340
f 650//340 644//340 645//340
f 650//339 645//339 651//339
f 651//339 645//339 646//339
f 651//338 646//338 652//338
f 652//338 646//338 591//338
f 652//337 591//337 589//337
f 579//374 577//374 648//374
f 648//373 577//373 647//373
f 579//374 648//374 649//374
f 581//340 579//340 649//340
f 581//340 649//340 650//340
f 583//339 581//339 650//339
f 583//339 650//339 651//339
f 585//338 583//338 651//338
f 585//338 651//338 652//338
f 587//337 585//337 652//337
f 587//337 652//337 589//337
f 653//377 199//377 654//377
f 654//378 199//378 200//378
f 655//127 654//127 656//127
f 656//127 654//127 200//127
f 656//127 200//127 198//127
f 201//379 253//379 202//379
f 202//377 253//377 657//377
f 197//380 202//380 658//380
f 658//380 202//380 657//380
f 658//380 657//380 659//380
f 120//380 118//380 117//380
f 117//380 118//380 114//380
f 117//380 114//380 110//380
f 110//380 13//380 117//380
f 117//380 13//380 14//380
f 117//380 14//380 16//380
f 16//380 18//380 117//380
f 117//380 18//380 20//380
f 117//380 20//380 22//380
f 22//380 24//380 117//380
f 117//380 24//380 26//380
f 117//380 26//380 28//380
f 28//380 30//380 117//380
f 117//380 30//380 32//380
f 117//380 32//380 34//380
f 34//380 36//380 117//380
f 117//380 36//380 38//380
f 117//380 38//380 52//380
f 52//380 38//380 40//380
f 52//380 40//380 42//380
f 42//380 44//380 52//380
f 52//380 44//380 46//380
f 52//380 46//380 48//380
f 48//380 50//380 52//380
f 199//380 524//380 52//380
f 52//380 524//380 523//380
f 52//380 523//380 522//380
f 653//380 538//380 199//380
f 199//380 538//380 537//380
f 199//380 537//380 536//380
f 660//380 551//380 653//380
f 653//380 551//380 550//380
f 653//380 550//380 549//380
f 344//380 386//380 660//380
f 660//380 386//380 560//380
f 660//380 560//380 559//380
f 347//380 345//380 344//380
f 344//380 345//380 341//380
f 344//380 341//380 337//380
f 337//380 322//380 344//380
f 344//380 322//380 323//380
f 344//380 323//380 325//380
f 325//380 327//380 344//380
f 344//380 327//380 329//380
f 344//380 329//380 331//380
f 331//380 333//380 344//380
f 344//380 333//380 335//380
f 344//380 335//380 293//380
f 293//380 295//380 344//380
f 344//380 295//380 386//380
f 559//380 558//380 660//380
f 660//380 558//380 557//380
f 660//380 557//380 556//380
f 556//380 555//380 660//380
f 660//380 555//380 554//380
f 660//380 554//380 553//380
f 553//380 552//380 660//380
f 660//380 552//380 551//380
f 549//380 548//380 653//380
f 653//380 548//380 547//380
f 653//380 547//380 546//380
f 546//380 545//380 653//380
f 653//380 545//380 544//380
f 653//380 544//380 543//380
f 543//380 542//380 653//380
f 653//380 542//380 541//380
f 653//380 541//380 540//380
f 540//380 539//380 653//380
f 653//380 539//380 538//380
f 536//380 535//380 199//380
f 199//380 535//380 534//380
f 199//380 534//380 533//380
f 533//380 532//380 199//380
f 199//380 532//380 531//380
f 199//380 531//380 530//380
f 530//380 529//380 199//380
f 199//380 529//380 528//380
f 199//380 528//380 527//380
f 527//380 526//380 199//380
f 199//380 526//380 525//380
f 199//380 525//380 524//380
f 522//380 521//380 52//380
f 52//380 521//380 520//380
f 52//380 520//380 519//380
f 519//380 518//380 52//380
f 52//380 518//380 517//380
f 52//380 517//380 516//380
f 516//380 515//380 52//380
f 52//380 515//380 514//380
f 52//380 514//380 513//380
f 513//380 512//380 52//380
f 52//380 512//380 511//380
f 52//380 511//380 510//380
f 510//380 509//380 52//380
f 52//380 509//380 508//380
f 52//380 508//380 507//380
f 507//380 506//380 52//380
f 52//380 506//380 505//380
f 52//380 505//380 504//380
f 52//380 504//380 588//380
f 588//380 504//380 446//380
f 588//380 446//380 620//380
f 620//380 618//380 588//380
f 588//380 618//380 615//380
f 588//380 615//380 611//380
f 611//380 571//380 588//380
f 588//380 571//380 572//380
f 588//380 572//380 574//380
f 574//380 576//380 588//380
f 588//380 576//380 578//380
f 588//380 578//380 580//380
f 580//380 582//380 588//380
f 588//380 582//380 584//380
f 588//380 584//380 586//380
f 588//380 117//380 52//380
f 117//381 588//381 3//381
f 3//381 588//381 203//381
f 267//382 278//382 658//382
f 658//383 278//383 344//383
f 658//383 344//383 656//383
f 656//384 344//384 660//384
f 656//385 660//385 655//385
f 658//385 659//385 267//385
f 198//386 197//386 656//386
f 656//386 197//386 658//386
f 253//387 267//387 657//387
f 657//387 267//387 659//387
f 654//387 655//387 653//387
f 653//387 655//387 660//387
#1316 polygons

