# Aspose.3D Wavefront OBJ Exporter
# Copyright 2004-2023 Aspose Pty Ltd.
# File created: 11/02/2023 20:20:04


#
# object obj_6901027
#

v 35 2.25495719909667968 30.01203727722167968
v 30 2.25495719909667968 30.01203727722167968
v 35 2.5 30
v 25 2.25495719909667968 30.01203727722167968
v 20 2.25495719909667968 30.01203727722167968
v 20 2.01227426528930664 30.04803657531738281
v 15 2.01227426528930664 30.04803657531738281
v 15 1.774288296699524 30.10764884948730468
v 10 1.774288296699524 30.10764884948730468
v 10 1.543291449546814 30.19030189514160156
v 5 1.543291449546814 30.19030189514160156
v 5 1.32150816917419432 30.295196533203125
v 0 1.32150816917419432 30.295196533203125
v 0 1.11107444763183594 30.42132568359375
v 5 1.11107444763183594 30.42132568359375
v 0 0.91401678323745728 30.56747436523437504
v 5 0.91401678323745728 30.56747436523437504
v 0 0.73223304748535152 30.73223304748535152
v 5 0.73223304748535152 30.73223304748535152
v 0 0.5674738883972168 30.91401672363281248
v 5 0.5674738883972168 30.91401672363281248
v 0 0.42132598161697384 31.11107444763183594
v 5 0.42132598161697384 31.11107444763183594
v 0 0.29519683122634888 31.32150840759277344
v 5 0.29519683122634888 31.32150840759277344
v 0 0.19030116498470308 31.54329109191894528
v 5 0.19030116498470308 31.54329109191894528
v 0 0.10764916241168976 31.7742881774902344
v 5 0.10764916241168976 31.7742881774902344
v 0 0.04803679883480072 32.01227569580078125
v 5 0.04803679883480072 32.01227569580078125
v 0 0.01203818339854478 32.25495529174804688
v 5 0.01203818339854478 32.25495529174804688
v 0 2.9209936706210177E-31 32.5
v 10 0.01203818339854478 32.25495529174804688
v 15 0.01203818339854478 32.25495529174804688
v 15 0.04803679883480072 32.01227569580078125
v 20 0.04803679883480072 32.01227569580078125
v 20 0.10764916241168976 31.7742881774902344
v 25 0.10764916241168976 31.7742881774902344
v 25 0.19030116498470308 31.54329109191894528
v 30 0.19030116498470308 31.54329109191894528
v 30 0.29519683122634888 31.32150840759277344
v 35 0.29519683122634888 31.32150840759277344
v 35 0.42132598161697384 31.11107444763183594
v 30 0.42132598161697384 31.11107444763183594
v 35 0.5674738883972168 30.91401672363281248
v 30 0.5674738883972168 30.91401672363281248
v 35 0.73223304748535152 30.73223304748535152
v 30 0.73223304748535152 30.73223304748535152
v 35 0.91401678323745728 30.56747436523437504
v 30 0.91401678323745728 30.56747436523437504
v 35 1.11107444763183594 30.42132568359375
v 30 1.11107444763183594 30.42132568359375
v 35 1.32150816917419432 30.295196533203125
v 30 1.32150816917419432 30.295196533203125
v 35 1.543291449546814 30.19030189514160156
v 30 1.543291449546814 30.19030189514160156
v 35 1.774288296699524 30.10764884948730468
v 30 1.774288296699524 30.10764884948730468
v 35 2.01227426528930664 30.04803657531738281
v 30 2.01227426528930664 30.04803657531738281
v 35 0.19030116498470308 31.54329109191894528
v 30 0.10764916241168976 31.7742881774902344
v 25 0.04803679883480072 32.01227569580078125
v 20 0.01203818339854478 32.25495529174804688
v 35 0.10764916241168976 31.7742881774902344
v 30 0.04803679883480072 32.01227569580078125
v 25 0.01203818339854478 32.25495529174804688
v 35 2.9209936706210177E-31 32.5
v 35 0.04803679883480072 32.01227569580078125
v 30 0.01203818339854478 32.25495529174804688
v 35 0.01203818339854478 32.25495529174804688
v 0 1.543291449546814 30.19030189514160156
v 5 1.774288296699524 30.10764884948730468
v 10 2.01227426528930664 30.04803657531738281
v 15 2.25495719909667968 30.01203727722167968
v 0 1.774288296699524 30.10764884948730468
v 5 2.01227426528930664 30.04803657531738281
v 10 2.25495719909667968 30.01203727722167968
v 0 2.5 30
v 0 2.01227426528930664 30.04803657531738281
v 5 2.25495719909667968 30.01203727722167968
v 0 2.25495719909667968 30.01203727722167968
v 25 2.01227426528930664 30.04803657531738281
v 25 1.774288296699524 30.10764884948730468
v 25 1.543291449546814 30.19030189514160156
v 25 1.32150816917419432 30.295196533203125
v 25 1.11107444763183594 30.42132568359375
v 25 0.91401678323745728 30.56747436523437504
v 25 0.73223304748535152 30.73223304748535152
v 25 0.5674738883972168 30.91401672363281248
v 25 0.42132598161697384 31.11107444763183594
v 25 0.29519683122634888 31.32150840759277344
v 20 1.774288296699524 30.10764884948730468
v 15 1.543291449546814 30.19030189514160156
v 10 1.32150816917419432 30.295196533203125
v 20 1.543291449546814 30.19030189514160156
v 20 1.32150816917419432 30.295196533203125
v 20 1.11107444763183594 30.42132568359375
v 20 0.91401678323745728 30.56747436523437504
v 20 0.73223304748535152 30.73223304748535152
v 20 0.5674738883972168 30.91401672363281248
v 20 0.42132598161697384 31.11107444763183594
v 20 0.29519683122634888 31.32150840759277344
v 20 0.19030116498470308 31.54329109191894528
v 15 1.32150816917419432 30.295196533203125
v 10 1.11107444763183594 30.42132568359375
v 15 1.11107444763183594 30.42132568359375
v 15 0.91401678323745728 30.56747436523437504
v 15 0.73223304748535152 30.73223304748535152
v 15 0.5674738883972168 30.91401672363281248
v 15 0.42132598161697384 31.11107444763183594
v 15 0.29519683122634888 31.32150840759277344
v 15 0.19030116498470308 31.54329109191894528
v 15 0.10764916241168976 31.7742881774902344
v 10 0.91401678323745728 30.56747436523437504
v 10 0.73223304748535152 30.73223304748535152
v 10 0.5674738883972168 30.91401672363281248
v 10 0.42132598161697384 31.11107444763183594
v 10 0.29519683122634888 31.32150840759277344
v 10 0.19030116498470308 31.54329109191894528
v 10 0.10764916241168976 31.7742881774902344
v 10 0.04803679883480072 32.01227569580078125
v 35 3.730369491331676E-31 41.50539779663085936
v 0 3.730369491331676E-31 41.50539779663085936
v 35 0.01317028887569904 41.86806869506835936
v 35 0.05261177569627762 42.22882461547851564
v 35 5.49394989013671872 46.48093795776367184
v 35 9.31889438629150392 44.02475357055664062
v 35 5.8535447120666504 46.4320030212402344
v 35 6.20864295959472656 46.35711669921875
v 35 6.5573740005493164 46.25666809082031248
v 35 6.89790010452270512 46.13119125366210938
v 35 7.22842836380004884 45.98134613037109376
v 35 7.54721689224243168 45.80791854858398432
v 35 7.85258626937866208 45.61182403564453128
v 35 8.1429281234741211 45.3941001892089844
v 35 8.41671180725097656 45.15588760375976562
v 35 8.67249679565429688 44.8984451293945312
v 35 8.90893459320068352 44.62312698364257816
v 35 9.12477970123291016 44.33138275146484376
v 35 7.5 30
v 35 7.74504280090332032 29.98796272277832032
v 35 7.98772573471069328 29.95196342468261712
v 35 8.22571182250976564 29.89235115051269536
v 35 8.45670890808105472 29.8096981048583984
v 35 8.67849159240722656 29.70480346679687504
v 35 8.888925552368164 29.57867431640625
v 35 9.0859832763671875 29.43252563476562496
v 35 9.26776695251464844 29.26776695251464844
v 35 9.43252658843994144 29.0859832763671875
v 35 9.57867431640625 28.888925552368164
v 35 9.70480346679687504 28.67849159240722656
v 35 9.80969905853271488 28.45670890808105472
v 35 9.89235115051269536 28.22571182250976564
v 35 9.95196342468261712 27.98772621154785152
v 35 32.48064422607421872 4.31889438629150392
v 35 9.98796176910400384 27.74504280090332032
v 35 10 27.5
v 35 10 12.5
v 35 30 7.923825805015838E-32
v 35 9.98796176910400384 12.25495719909667968
v 35 9.95196342468261712 12.01227378845214843
v 35 9.89235115051269536 11.7742881774902344
v 35 9.80969905853271488 11.54329109191894528
v 35 9.70480346679687504 11.32150840759277344
v 35 9.57867431640625 11.11107444763183594
v 35 9.43252658843994144 10.91401672363281248
v 35 9.26776695251464844 10.73223304748535152
v 35 9.0859832763671875 10.56747341156005856
v 35 8.888925552368164 10.42132568359375
v 35 8.67849159240722656 10.295196533203125
v 35 0 0
v 35 8.45670890808105472 10.19030094146728516
v 35 8.22571182250976564 10.10764884948730468
v 35 7.98772573471069328 10.04803657531738281
v 35 7.74504280090332032 10.01203823089599609
v 35 7.5 10
v 35 2.5 10
v 35 6.740754805355325E-32 7.5
v 35 2.25495719909667968 9.98796176910400384
v 35 2.01227426528930664 9.95196342468261712
v 35 1.774288296699524 9.89235115051269536
v 35 1.543291449546814 9.80969905853271488
v 35 1.32150816917419432 9.70480346679687504
v 35 1.11107444763183594 9.57867431640625
v 35 0.91401678323745728 9.43252658843994144
v 35 0.73223304748535152 9.26776695251464844
v 35 0.5674738883972168 9.0859832763671875
v 35 0.42132598161697384 8.888925552368164
v 35 0.29519683122634888 8.67849159240722656
v 35 0.19030116498470308 8.45670890808105472
v 35 0.10764916241168976 8.22571182250976564
v 35 0.04803679883480072 7.98772573471069328
v 35 0.01203818339854478 7.74504280090332032
v 35 5.13175296783447266 46.503662109375
v 35 4.76886224746704096 46.50005340576171872
v 35 4.40718889236450192 46.47013092041015624
v 35 4.04863834381103516 46.41405487060546872
v 35 3.69510006904602048 46.33211898803710936
v 35 3.3484361171722412 46.22475433349609376
v 35 3.01047253608703613 46.092529296875
v 35 2.68299007415771488 45.93613815307617184
v 35 2.36771416664123536 45.75640487670898432
v 35 2.06630516052246094 45.55427932739257816
v 35 1.78035128116607664 45.33082199096679688
v 35 1.51135885715484616 45.08721160888671875
v 35 1.2607450485229492 44.82472991943359376
v 35 1.02982997894287109 44.54476547241210936
v 35 0.81983029842376704 44.24878692626953124
v 35 0.63185226917266848 43.9383544921875
v 35 0.4668860733509064 43.6151084899902344
v 35 0.3258008658885956 43.28074645996093752
v 35 0.209339901804924 42.93703079223632816
v 35 0.11811667680740356 42.58577346801757816
v 0 2.25495719909667968 9.98796176910400384
v 5 2.25495719909667968 9.98796176910400384
v 0 2.5 10
v 10 2.25495719909667968 9.98796176910400384
v 15 2.25495719909667968 9.98796176910400384
v 15 2.01227426528930664 9.95196342468261712
v 20 2.01227426528930664 9.95196342468261712
v 20 1.774288296699524 9.89235115051269536
v 25 1.774288296699524 9.89235115051269536
v 25 1.543291449546814 9.80969905853271488
v 30 1.543291449546814 9.80969905853271488
v 30 1.32150816917419432 9.70480346679687504
v 30 1.11107444763183594 9.57867431640625
v 30 0.91401678323745728 9.43252658843994144
v 30 0.73223304748535152 9.26776695251464844
v 30 0.5674738883972168 9.0859832763671875
v 30 0.42132598161697384 8.888925552368164
v 30 0.29519683122634888 8.67849159240722656
v 30 0.19030116498470308 8.45670890808105472
v 30 0.10764916241168976 8.22571182250976564
v 30 0.04803679883480072 7.98772573471069328
v 30 0.01203818339854478 7.74504280090332032
v 25 0.01203818339854478 7.74504280090332032
v 20 0.01203818339854478 7.74504280090332032
v 20 0.04803679883480072 7.98772573471069328
v 15 0.04803679883480072 7.98772573471069328
v 15 0.10764916241168976 8.22571182250976564
v 10 0.10764916241168976 8.22571182250976564
v 10 0.19030116498470308 8.45670890808105472
v 5 0.19030116498470308 8.45670890808105472
v 5 0.29519683122634888 8.67849159240722656
v 0 0.29519683122634888 8.67849159240722656
v 0 0.42132598161697384 8.888925552368164
v 5 0.42132598161697384 8.888925552368164
v 0 0.5674738883972168 9.0859832763671875
v 5 0.5674738883972168 9.0859832763671875
v 0 0.73223304748535152 9.26776695251464844
v 5 0.73223304748535152 9.26776695251464844
v 0 0.91401678323745728 9.43252658843994144
v 5 0.91401678323745728 9.43252658843994144
v 0 1.11107444763183594 9.57867431640625
v 5 1.11107444763183594 9.57867431640625
v 0 1.32150816917419432 9.70480346679687504
v 5 1.32150816917419432 9.70480346679687504
v 0 1.543291449546814 9.80969905853271488
v 5 1.543291449546814 9.80969905853271488
v 0 1.774288296699524 9.89235115051269536
v 5 1.774288296699524 9.89235115051269536
v 0 2.01227426528930664 9.95196342468261712
v 5 2.01227426528930664 9.95196342468261712
v 0 0.19030116498470308 8.45670890808105472
v 5 0.10764916241168976 8.22571182250976564
v 10 0.04803679883480072 7.98772573471069328
v 15 0.01203818339854478 7.74504280090332032
v 0 0.10764916241168976 8.22571182250976564
v 5 0.04803679883480072 7.98772573471069328
v 10 0.01203818339854478 7.74504280090332032
v 0 6.740754805355325E-32 7.5
v 0 0.04803679883480072 7.98772573471069328
v 5 0.01203818339854478 7.74504280090332032
v 0 0.01203818339854478 7.74504280090332032
v 30 1.774288296699524 9.89235115051269536
v 25 2.01227426528930664 9.95196342468261712
v 20 2.25495719909667968 9.98796176910400384
v 30 2.01227426528930664 9.95196342468261712
v 25 2.25495719909667968 9.98796176910400384
v 30 2.25495719909667968 9.98796176910400384
v 10 2.01227426528930664 9.95196342468261712
v 10 1.774288296699524 9.89235115051269536
v 10 1.543291449546814 9.80969905853271488
v 10 1.32150816917419432 9.70480346679687504
v 10 1.11107444763183594 9.57867431640625
v 10 0.91401678323745728 9.43252658843994144
v 10 0.73223304748535152 9.26776695251464844
v 10 0.5674738883972168 9.0859832763671875
v 10 0.42132598161697384 8.888925552368164
v 10 0.29519683122634888 8.67849159240722656
v 15 1.774288296699524 9.89235115051269536
v 20 1.543291449546814 9.80969905853271488
v 25 1.32150816917419432 9.70480346679687504
v 15 1.543291449546814 9.80969905853271488
v 15 1.32150816917419432 9.70480346679687504
v 15 1.11107444763183594 9.57867431640625
v 15 0.91401678323745728 9.43252658843994144
v 15 0.73223304748535152 9.26776695251464844
v 15 0.5674738883972168 9.0859832763671875
v 15 0.42132598161697384 8.888925552368164
v 15 0.29519683122634888 8.67849159240722656
v 15 0.19030116498470308 8.45670890808105472
v 20 1.32150816917419432 9.70480346679687504
v 25 1.11107444763183594 9.57867431640625
v 20 1.11107444763183594 9.57867431640625
v 20 0.91401678323745728 9.43252658843994144
v 20 0.73223304748535152 9.26776695251464844
v 20 0.5674738883972168 9.0859832763671875
v 20 0.42132598161697384 8.888925552368164
v 20 0.29519683122634888 8.67849159240722656
v 20 0.19030116498470308 8.45670890808105472
v 20 0.10764916241168976 8.22571182250976564
v 25 0.91401678323745728 9.43252658843994144
v 25 0.73223304748535152 9.26776695251464844
v 25 0.5674738883972168 9.0859832763671875
v 25 0.42132598161697384 8.888925552368164
v 25 0.29519683122634888 8.67849159240722656
v 25 0.19030116498470308 8.45670890808105472
v 25 0.10764916241168976 8.22571182250976564
v 25 0.04803679883480072 7.98772573471069328
v 0 7.5 10
v 0 30 7.923825805015838E-32
v 0 32.48064422607421872 4.31889438629150392
v 12.5 30 7.923825805015838E-32
v 12.5 32.48064422607421872 4.31889438629150392
v 12.5 0 0
v 12.5 1.9516090592913303E-32 5
v 12.5 32.08333206176757812 5
v 0 9.31889438629150392 44.02475357055664062
v 22.5 32.08333206176757812 5
v 22.5 32.48064422607421872 4.31889438629150392
v 22.5 30 7.923825805015838E-32
v 28 0.01317028887569904 41.86806869506835936
v 21 0.01317028887569904 41.86806869506835936
v 14 0.01317028887569904 41.86806869506835936
v 14 0.05261177569627762 42.22882461547851564
v 7 0.05261177569627762 42.22882461547851564
v 7 0.11811667680740356 42.58577346801757816
v 0 0.11811667680740356 42.58577346801757816
v 0 0.209339901804924 42.93703079223632816
v 7 0.209339901804924 42.93703079223632816
v 0 0.3258008658885956 43.28074645996093752
v 7 0.3258008658885956 43.28074645996093752
v 0 0.4668860733509064 43.6151084899902344
v 7 0.4668860733509064 43.6151084899902344
v 0 0.63185226917266848 43.9383544921875
v 7 0.63185226917266848 43.9383544921875
v 0 0.81983029842376704 44.24878692626953124
v 7 0.81983029842376704 44.24878692626953124
v 0 1.02982997894287109 44.54476547241210936
v 7 1.02982997894287109 44.54476547241210936
v 0 1.2607450485229492 44.82472991943359376
v 7 1.2607450485229492 44.82472991943359376
v 0 1.51135885715484616 45.08721160888671875
v 7 1.51135885715484616 45.08721160888671875
v 0 1.78035128116607664 45.33082199096679688
v 7 1.78035128116607664 45.33082199096679688
v 0 2.06630516052246094 45.55427932739257816
v 7 2.06630516052246094 45.55427932739257816
v 0 2.36771416664123536 45.75640487670898432
v 7 2.36771416664123536 45.75640487670898432
v 0 2.68299007415771488 45.93613815307617184
v 7 2.68299007415771488 45.93613815307617184
v 0 3.01047253608703613 46.092529296875
v 7 3.01047253608703613 46.092529296875
v 0 3.3484361171722412 46.22475433349609376
v 7 3.3484361171722412 46.22475433349609376
v 0 3.69510006904602048 46.33211898803710936
v 7 3.69510006904602048 46.33211898803710936
v 0 4.04863834381103516 46.41405487060546872
v 7 4.04863834381103516 46.41405487060546872
v 0 4.40718889236450192 46.47013092041015624
v 7 4.40718889236450192 46.47013092041015624
v 0 4.76886224746704096 46.50005340576171872
v 7 4.76886224746704096 46.50005340576171872
v 0 5.13175296783447266 46.503662109375
v 7 5.13175296783447266 46.503662109375
v 0 5.49394989013671872 46.48093795776367184
v 7 5.49394989013671872 46.48093795776367184
v 0 5.8535447120666504 46.4320030212402344
v 7 5.8535447120666504 46.4320030212402344
v 0 6.20864295959472656 46.35711669921875
v 7 6.20864295959472656 46.35711669921875
v 0 6.5573740005493164 46.25666809082031248
v 7 6.5573740005493164 46.25666809082031248
v 0 6.89790010452270512 46.13119125366210938
v 7 6.89790010452270512 46.13119125366210938
v 0 7.22842836380004884 45.98134613037109376
v 7 7.22842836380004884 45.98134613037109376
v 0 7.54721689224243168 45.80791854858398432
v 7 7.54721689224243168 45.80791854858398432
v 0 7.85258626937866208 45.61182403564453128
v 7 7.85258626937866208 45.61182403564453128
v 0 8.1429281234741211 45.3941001892089844
v 7 8.1429281234741211 45.3941001892089844
v 0 8.41671180725097656 45.15588760375976562
v 7 8.41671180725097656 45.15588760375976562
v 0 8.67249679565429688 44.8984451293945312
v 7 8.67249679565429688 44.8984451293945312
v 0 8.90893459320068352 44.62312698364257816
v 7 8.90893459320068352 44.62312698364257816
v 0 9.12477970123291016 44.33138275146484376
v 7 9.12477970123291016 44.33138275146484376
v 14 9.12477970123291016 44.33138275146484376
v 21 9.12477970123291016 44.33138275146484376
v 21 8.90893459320068352 44.62312698364257816
v 28 8.90893459320068352 44.62312698364257816
v 28 8.67249679565429688 44.8984451293945312
v 28 8.41671180725097656 45.15588760375976562
v 28 8.1429281234741211 45.3941001892089844
v 28 7.85258626937866208 45.61182403564453128
v 28 7.54721689224243168 45.80791854858398432
v 28 7.22842836380004884 45.98134613037109376
v 28 6.89790010452270512 46.13119125366210938
v 28 6.5573740005493164 46.25666809082031248
v 28 6.20864295959472656 46.35711669921875
v 28 5.8535447120666504 46.4320030212402344
v 28 5.49394989013671872 46.48093795776367184
v 28 5.13175296783447266 46.503662109375
v 28 4.76886224746704096 46.50005340576171872
v 28 4.40718889236450192 46.47013092041015624
v 28 4.04863834381103516 46.41405487060546872
v 28 3.69510006904602048 46.33211898803710936
v 28 3.3484361171722412 46.22475433349609376
v 28 3.01047253608703613 46.092529296875
v 28 2.68299007415771488 45.93613815307617184
v 28 2.36771416664123536 45.75640487670898432
v 28 2.06630516052246094 45.55427932739257816
v 28 1.78035128116607664 45.33082199096679688
v 28 1.51135885715484616 45.08721160888671875
v 28 1.2607450485229492 44.82472991943359376
v 28 1.02982997894287109 44.54476547241210936
v 28 0.81983029842376704 44.24878692626953124
v 28 0.63185226917266848 43.9383544921875
v 28 0.4668860733509064 43.6151084899902344
v 28 0.3258008658885956 43.28074645996093752
v 28 0.209339901804924 42.93703079223632816
v 28 0.11811667680740356 42.58577346801757816
v 28 0.05261177569627762 42.22882461547851564
v 28 9.12477970123291016 44.33138275146484376
v 0 0.05261177569627762 42.22882461547851564
v 7 0.01317028887569904 41.86806869506835936
v 0 0.01317028887569904 41.86806869506835936
v 21 0.05261177569627762 42.22882461547851564
v 21 0.11811667680740356 42.58577346801757816
v 21 0.209339901804924 42.93703079223632816
v 21 0.3258008658885956 43.28074645996093752
v 21 0.4668860733509064 43.6151084899902344
v 21 0.63185226917266848 43.9383544921875
v 21 0.81983029842376704 44.24878692626953124
v 21 1.02982997894287109 44.54476547241210936
v 21 1.2607450485229492 44.82472991943359376
v 21 1.51135885715484616 45.08721160888671875
v 21 1.78035128116607664 45.33082199096679688
v 21 2.06630516052246094 45.55427932739257816
v 21 2.36771416664123536 45.75640487670898432
v 21 2.68299007415771488 45.93613815307617184
v 21 3.01047253608703613 46.092529296875
v 21 3.3484361171722412 46.22475433349609376
v 21 3.69510006904602048 46.33211898803710936
v 21 4.04863834381103516 46.41405487060546872
v 21 4.40718889236450192 46.47013092041015624
v 21 4.76886224746704096 46.50005340576171872
v 21 5.13175296783447266 46.503662109375
v 21 5.49394989013671872 46.48093795776367184
v 21 5.8535447120666504 46.4320030212402344
v 21 6.20864295959472656 46.35711669921875
v 21 6.5573740005493164 46.25666809082031248
v 21 6.89790010452270512 46.13119125366210938
v 21 7.22842836380004884 45.98134613037109376
v 21 7.54721689224243168 45.80791854858398432
v 21 7.85258626937866208 45.61182403564453128
v 21 8.1429281234741211 45.3941001892089844
v 21 8.41671180725097656 45.15588760375976562
v 21 8.67249679565429688 44.8984451293945312
v 14 0.11811667680740356 42.58577346801757816
v 14 0.209339901804924 42.93703079223632816
v 14 0.3258008658885956 43.28074645996093752
v 14 0.4668860733509064 43.6151084899902344
v 14 0.63185226917266848 43.9383544921875
v 14 0.81983029842376704 44.24878692626953124
v 14 1.02982997894287109 44.54476547241210936
v 14 1.2607450485229492 44.82472991943359376
v 14 1.51135885715484616 45.08721160888671875
v 14 1.78035128116607664 45.33082199096679688
v 14 2.06630516052246094 45.55427932739257816
v 14 2.36771416664123536 45.75640487670898432
v 14 2.68299007415771488 45.93613815307617184
v 14 3.01047253608703613 46.092529296875
v 14 3.3484361171722412 46.22475433349609376
v 14 3.69510006904602048 46.33211898803710936
v 14 4.04863834381103516 46.41405487060546872
v 14 4.40718889236450192 46.47013092041015624
v 14 4.76886224746704096 46.50005340576171872
v 14 5.13175296783447266 46.503662109375
v 14 5.49394989013671872 46.48093795776367184
v 14 5.8535447120666504 46.4320030212402344
v 14 6.20864295959472656 46.35711669921875
v 14 6.5573740005493164 46.25666809082031248
v 14 6.89790010452270512 46.13119125366210938
v 14 7.22842836380004884 45.98134613037109376
v 14 7.54721689224243168 45.80791854858398432
v 14 7.85258626937866208 45.61182403564453128
v 14 8.1429281234741211 45.3941001892089844
v 14 8.41671180725097656 45.15588760375976562
v 14 8.67249679565429688 44.8984451293945312
v 14 8.90893459320068352 44.62312698364257816
v 0 10 27.5
v 0 10 12.5
v 0 7.74504280090332032 29.98796272277832032
v 5 7.74504280090332032 29.98796272277832032
v 0 7.5 30
v 10 7.74504280090332032 29.98796272277832032
v 15 7.74504280090332032 29.98796272277832032
v 15 7.98772573471069328 29.95196342468261712
v 20 7.98772573471069328 29.95196342468261712
v 20 8.22571182250976564 29.89235115051269536
v 25 8.22571182250976564 29.89235115051269536
v 25 8.45670890808105472 29.8096981048583984
v 30 8.45670890808105472 29.8096981048583984
v 30 8.67849159240722656 29.70480346679687504
v 30 8.888925552368164 29.57867431640625
v 30 9.0859832763671875 29.43252563476562496
v 30 9.26776695251464844 29.26776695251464844
v 30 9.43252658843994144 29.0859832763671875
v 30 9.57867431640625 28.888925552368164
v 30 9.70480346679687504 28.67849159240722656
v 30 9.80969905853271488 28.45670890808105472
v 30 9.89235115051269536 28.22571182250976564
v 30 9.95196342468261712 27.98772621154785152
v 30 9.98796176910400384 27.74504280090332032
v 25 9.98796176910400384 27.74504280090332032
v 20 9.98796176910400384 27.74504280090332032
v 20 9.95196342468261712 27.98772621154785152
v 15 9.95196342468261712 27.98772621154785152
v 15 9.89235115051269536 28.22571182250976564
v 10 9.89235115051269536 28.22571182250976564
v 10 9.80969905853271488 28.45670890808105472
v 5 9.80969905853271488 28.45670890808105472
v 5 9.70480346679687504 28.67849159240722656
v 0 9.70480346679687504 28.67849159240722656
v 0 9.57867431640625 28.888925552368164
v 5 9.57867431640625 28.888925552368164
v 0 9.43252658843994144 29.0859832763671875
v 5 9.43252658843994144 29.0859832763671875
v 0 9.26776695251464844 29.26776695251464844
v 5 9.26776695251464844 29.26776695251464844
v 0 9.0859832763671875 29.43252563476562496
v 5 9.0859832763671875 29.43252563476562496
v 0 8.888925552368164 29.57867431640625
v 5 8.888925552368164 29.57867431640625
v 0 8.67849159240722656 29.70480346679687504
v 5 8.67849159240722656 29.70480346679687504
v 0 8.45670890808105472 29.8096981048583984
v 5 8.45670890808105472 29.8096981048583984
v 0 8.22571182250976564 29.89235115051269536
v 5 8.22571182250976564 29.89235115051269536
v 0 7.98772573471069328 29.95196342468261712
v 5 7.98772573471069328 29.95196342468261712
v 0 9.80969905853271488 28.45670890808105472
v 5 9.89235115051269536 28.22571182250976564
v 10 9.95196342468261712 27.98772621154785152
v 15 9.98796176910400384 27.74504280090332032
v 0 9.89235115051269536 28.22571182250976564
v 5 9.95196342468261712 27.98772621154785152
v 10 9.98796176910400384 27.74504280090332032
v 0 9.95196342468261712 27.98772621154785152
v 5 9.98796176910400384 27.74504280090332032
v 0 9.98796176910400384 27.74504280090332032
v 30 8.22571182250976564 29.89235115051269536
v 25 7.98772573471069328 29.95196342468261712
v 20 7.74504280090332032 29.98796272277832032
v 30 7.98772573471069328 29.95196342468261712
v 25 7.74504280090332032 29.98796272277832032
v 30 7.74504280090332032 29.98796272277832032
v 10 7.98772573471069328 29.95196342468261712
v 10 8.22571182250976564 29.89235115051269536
v 10 8.45670890808105472 29.8096981048583984
v 10 8.67849159240722656 29.70480346679687504
v 10 8.888925552368164 29.57867431640625
v 10 9.0859832763671875 29.43252563476562496
v 10 9.26776695251464844 29.26776695251464844
v 10 9.43252658843994144 29.0859832763671875
v 10 9.57867431640625 28.888925552368164
v 10 9.70480346679687504 28.67849159240722656
v 15 8.22571182250976564 29.89235115051269536
v 20 8.45670890808105472 29.8096981048583984
v 25 8.67849159240722656 29.70480346679687504
v 15 8.45670890808105472 29.8096981048583984
v 15 8.67849159240722656 29.70480346679687504
v 15 8.888925552368164 29.57867431640625
v 15 9.0859832763671875 29.43252563476562496
v 15 9.26776695251464844 29.26776695251464844
v 15 9.43252658843994144 29.0859832763671875
v 15 9.57867431640625 28.888925552368164
v 15 9.70480346679687504 28.67849159240722656
v 15 9.80969905853271488 28.45670890808105472
v 20 8.67849159240722656 29.70480346679687504
v 25 8.888925552368164 29.57867431640625
v 20 8.888925552368164 29.57867431640625
v 20 9.0859832763671875 29.43252563476562496
v 20 9.26776695251464844 29.26776695251464844
v 20 9.43252658843994144 29.0859832763671875
v 20 9.57867431640625 28.888925552368164
v 20 9.70480346679687504 28.67849159240722656
v 20 9.80969905853271488 28.45670890808105472
v 20 9.89235115051269536 28.22571182250976564
v 25 9.0859832763671875 29.43252563476562496
v 25 9.26776695251464844 29.26776695251464844
v 25 9.43252658843994144 29.0859832763671875
v 25 9.57867431640625 28.888925552368164
v 25 9.70480346679687504 28.67849159240722656
v 25 9.80969905853271488 28.45670890808105472
v 25 9.89235115051269536 28.22571182250976564
v 25 9.95196342468261712 27.98772621154785152
v 0 9.98796176910400384 12.25495719909667968
v 5 9.98796176910400384 12.25495719909667968
v 10 9.98796176910400384 12.25495719909667968
v 15 9.98796176910400384 12.25495719909667968
v 15 9.95196342468261712 12.01227378845214843
v 20 9.95196342468261712 12.01227378845214843
v 20 9.89235115051269536 11.7742881774902344
v 25 9.89235115051269536 11.7742881774902344
v 25 9.80969905853271488 11.54329109191894528
v 30 9.80969905853271488 11.54329109191894528
v 30 9.70480346679687504 11.32150840759277344
v 30 9.57867431640625 11.11107444763183594
v 30 9.43252658843994144 10.91401672363281248
v 30 9.26776695251464844 10.73223304748535152
v 30 9.0859832763671875 10.56747341156005856
v 30 8.888925552368164 10.42132568359375
v 30 8.67849159240722656 10.295196533203125
v 30 8.45670890808105472 10.19030094146728516
v 30 8.22571182250976564 10.10764884948730468
v 30 7.98772573471069328 10.04803657531738281
v 30 7.74504280090332032 10.01203823089599609
v 25 7.74504280090332032 10.01203823089599609
v 20 7.74504280090332032 10.01203823089599609
v 20 7.98772573471069328 10.04803657531738281
v 15 7.98772573471069328 10.04803657531738281
v 15 8.22571182250976564 10.10764884948730468
v 10 8.22571182250976564 10.10764884948730468
v 10 8.45670890808105472 10.19030094146728516
v 5 8.45670890808105472 10.19030094146728516
v 5 8.67849159240722656 10.295196533203125
v 0 8.67849159240722656 10.295196533203125
v 0 8.888925552368164 10.42132568359375
v 5 8.888925552368164 10.42132568359375
v 0 9.0859832763671875 10.56747341156005856
v 5 9.0859832763671875 10.56747341156005856
v 0 9.26776695251464844 10.73223304748535152
v 5 9.26776695251464844 10.73223304748535152
v 0 9.43252658843994144 10.91401672363281248
v 5 9.43252658843994144 10.91401672363281248
v 0 9.57867431640625 11.11107444763183594
v 5 9.57867431640625 11.11107444763183594
v 0 9.70480346679687504 11.32150840759277344
v 5 9.70480346679687504 11.32150840759277344
v 0 9.80969905853271488 11.54329109191894528
v 5 9.80969905853271488 11.54329109191894528
v 0 9.89235115051269536 11.7742881774902344
v 5 9.89235115051269536 11.7742881774902344
v 0 9.95196342468261712 12.01227378845214843
v 5 9.95196342468261712 12.01227378845214843
v 0 8.45670890808105472 10.19030094146728516
v 5 8.22571182250976564 10.10764884948730468
v 10 7.98772573471069328 10.04803657531738281
v 15 7.74504280090332032 10.01203823089599609
v 0 8.22571182250976564 10.10764884948730468
v 5 7.98772573471069328 10.04803657531738281
v 10 7.74504280090332032 10.01203823089599609
v 0 7.98772573471069328 10.04803657531738281
v 5 7.74504280090332032 10.01203823089599609
v 0 7.74504280090332032 10.01203823089599609
v 30 9.89235115051269536 11.7742881774902344
v 25 9.95196342468261712 12.01227378845214843
v 20 9.98796176910400384 12.25495719909667968
v 30 9.95196342468261712 12.01227378845214843
v 25 9.98796176910400384 12.25495719909667968
v 30 9.98796176910400384 12.25495719909667968
v 10 9.95196342468261712 12.01227378845214843
v 10 9.89235115051269536 11.7742881774902344
v 10 9.80969905853271488 11.54329109191894528
v 10 9.70480346679687504 11.32150840759277344
v 10 9.57867431640625 11.11107444763183594
v 10 9.43252658843994144 10.91401672363281248
v 10 9.26776695251464844 10.73223304748535152
v 10 9.0859832763671875 10.56747341156005856
v 10 8.888925552368164 10.42132568359375
v 10 8.67849159240722656 10.295196533203125
v 15 9.89235115051269536 11.7742881774902344
v 20 9.80969905853271488 11.54329109191894528
v 25 9.70480346679687504 11.32150840759277344
v 15 9.80969905853271488 11.54329109191894528
v 15 9.70480346679687504 11.32150840759277344
v 15 9.57867431640625 11.11107444763183594
v 15 9.43252658843994144 10.91401672363281248
v 15 9.26776695251464844 10.73223304748535152
v 15 9.0859832763671875 10.56747341156005856
v 15 8.888925552368164 10.42132568359375
v 15 8.67849159240722656 10.295196533203125
v 15 8.45670890808105472 10.19030094146728516
v 20 9.70480346679687504 11.32150840759277344
v 25 9.57867431640625 11.11107444763183594
v 20 9.57867431640625 11.11107444763183594
v 20 9.43252658843994144 10.91401672363281248
v 20 9.26776695251464844 10.73223304748535152
v 20 9.0859832763671875 10.56747341156005856
v 20 8.888925552368164 10.42132568359375
v 20 8.67849159240722656 10.295196533203125
v 20 8.45670890808105472 10.19030094146728516
v 20 8.22571182250976564 10.10764884948730468
v 25 9.43252658843994144 10.91401672363281248
v 25 9.26776695251464844 10.73223304748535152
v 25 9.0859832763671875 10.56747341156005856
v 25 8.888925552368164 10.42132568359375
v 25 8.67849159240722656 10.295196533203125
v 25 8.45670890808105472 10.19030094146728516
v 25 8.22571182250976564 10.10764884948730468
v 25 7.98772573471069328 10.04803657531738281
v 22.5 1.9516090592913303E-32 5
v 0 0 0
v 22.5 0 0
# 726 vertices

vn 0 -0.04906767606735229 -0.99879544973373408
vn 0 -0.1467304676771164 -0.9891765117645264
vn 0 -0.24298018217086792 -0.97003126144409184
vn 0 -0.3368898630142212 -0.94154405593872064
vn 0 -0.4275550842285156 -0.90398931503295904
vn 0 -0.51410275697708128 -0.85772860050201424
vn 0 -0.5956993103027344 -0.80320751667022704
vn 0 -0.67155897617340088 -0.740951120853424
vn 7.455802377414066E-17 -0.67155897617340088 -0.740951120853424
vn 8.226209944932884E-17 -0.740951120853424 -0.67155897617340088
vn 2.632387288257641E-16 -0.740951120853424 -0.67155897617340088
vn 2.853566384329256E-16 -0.80320751667022704 -0.5956993103027344
vn -1.7834789571185606E-16 -0.80320751667022704 -0.5956993103027344
vn -1.9045400823136974E-16 -0.85772860050201424 -0.51410275697708128
vn -2.7615831061199715E-16 -0.85772860050201424 -0.51410275697708128
vn -2.9105261736585557E-16 -0.90398931503295904 -0.4275550842285156
vn -5.018148757823576E-17 -0.90398931503295904 -0.4275550842285156
vn -5.2266194480106204E-17 -0.94154405593872064 -0.3368898630142212
vn -7.839929172015931E-17 -0.94154405593872064 -0.3368898630142212
vn -8.077132807960617E-17 -0.97003126144409184 -0.24298018217086792
vn 1.6154265615921234E-16 -0.97003126144409184 -0.24298018217086792
vn 1.6473098081690613E-16 -0.9891765117645264 -0.1467304676771164
vn -2.7455163469484355E-17 -0.9891765117645264 -0.1467304676771164
vn -2.7722142629630745E-17 -0.99879544973373408 -0.04906767606735229
vn 0 -0.99879544973373408 -0.04906767606735229
vn 0 -0.9891765117645264 -0.1467304676771164
vn 0 -0.97003126144409184 -0.24298018217086792
vn 0 -0.94154405593872064 -0.3368898630142212
vn 0 -0.90398931503295904 -0.4275550842285156
vn 2.517182866497176E-16 -0.90398931503295904 -0.4275550842285156
vn 2.380675036717673E-16 -0.85772860050201424 -0.51410275697708128
vn 1.9045400823136974E-16 -0.85772860050201424 -0.51410275697708128
vn 1.7834789571185606E-16 -0.80320751667022704 -0.5956993103027344
vn -2.853566384329256E-16 -0.80320751667022704 -0.5956993103027344
vn -2.632387288257641E-16 -0.740951120853424 -0.67155897617340088
vn -8.226209944932884E-17 -0.740951120853424 -0.67155897617340088
vn -7.455802377414066E-17 -0.67155897617340088 -0.740951120853424
vn -1.341607861859561E-15 -0.4275550842285156 -0.90398931503295904
vn -1.3828973299064191E-15 -0.3368898630142212 -0.94154405593872064
vn -2.9921829291007285E-17 -0.3368898630142212 -0.94154405593872064
vn -2.1580975091024756E-17 -0.24298018217086792 -0.97003126144409184
vn 5.090931718177627E-17 -0.90398931503295904 -0.4275550842285156
vn 5.2266194480106204E-17 -0.94154405593872064 -0.3368898630142212
vn 5.373761313221758E-17 -0.94154405593872064 -0.3368898630142212
vn 5.384755205307078E-17 -0.97003126144409184 -0.24298018217086792
vn -1.6262699068059585E-16 -0.97003126144409184 -0.24298018217086792
vn -1.6473098081690613E-16 -0.9891765117645264 -0.1467304676771164
vn 1.3434403117618273E-15 -0.4275550842285156 -0.90398931503295904
vn 1.3828973299064191E-15 -0.3368898630142212 -0.94154405593872064
vn 3.1111248837409534E-17 -0.3368898630142212 -0.94154405593872064
vn 2.1580975091024756E-17 -0.24298018217086792 -0.97003126144409184
vn 0 -0.740951120853424 -0.67155897617340088
vn 0 -0.80320751667022704 -0.5956993103027344
vn 0 -0.85772860050201424 -0.51410275697708128
vn 3.676784073829216E-17 -0.4275550842285156 -0.90398931503295904
vn 4.56614947785602E-17 -0.51410275697708128 -0.85772860050201424
vn 0 -1 8.987673318701757E-33
vn 1 0 0
vn 0 -0.04906767606735229 0.99879544973373408
vn 0 -0.1467304676771164 0.9891765117645264
vn 0 -0.24298018217086792 0.97003126144409184
vn 0 -0.3368898630142212 0.94154405593872064
vn 0 -0.4275550842285156 0.90398931503295904
vn 0 -0.51410275697708128 0.85772860050201424
vn 0 -0.5956993103027344 0.80320751667022704
vn 0 -0.67155897617340088 0.740951120853424
vn 0 -0.740951120853424 0.67155897617340088
vn -4.935725834610832E-17 -0.740951120853424 0.67155897617340088
vn -5.350436805181233E-17 -0.80320751667022704 0.5956993103027344
vn 0 -0.80320751667022704 0.5956993103027344
vn 0 -0.85772860050201424 0.51410275697708128
vn -9.522700907876855E-18 -0.85772860050201424 0.51410275697708128
vn -1.003629735021103E-17 -0.90398931503295904 0.4275550842285156
vn 5.018148757823576E-17 -0.90398931503295904 0.4275550842285156
vn 5.2266194480106204E-17 -0.94154405593872064 0.3368898630142212
vn 2.6133097240053102E-17 -0.94154405593872064 0.3368898630142212
vn 2.692377602653539E-17 -0.97003126144409184 0.24298018217086792
vn 5.384755205307078E-17 -0.97003126144409184 0.24298018217086792
vn 5.491032693896871E-17 -0.9891765117645264 0.1467304676771164
vn 8.236549040845307E-17 -0.9891765117645264 0.1467304676771164
vn 8.316642623453101E-17 -0.99879544973373408 0.04906767606735229
vn 0 -0.99879544973373408 0.04906767606735229
vn 0 -0.9891765117645264 0.1467304676771164
vn 0 -0.97003126144409184 0.24298018217086792
vn 0 -0.94154405593872064 0.3368898630142212
vn 0 -0.90398931503295904 0.4275550842285156
vn 5.090931718177627E-17 -0.90398931503295904 0.4275550842285156
vn 4.7613502057842436E-17 -0.85772860050201424 0.51410275697708128
vn 5.350436805181233E-17 -0.80320751667022704 0.5956993103027344
vn 4.935725834610832E-17 -0.740951120853424 0.67155897617340088
vn 1.8987260944858582E-17 -0.4275550842285156 0.90398931503295904
vn 1.4960914645503642E-17 -0.3368898630142212 0.94154405593872064
vn -5.090931718177627E-17 -0.90398931503295904 0.4275550842285156
vn -5.2266194480106204E-17 -0.94154405593872064 0.3368898630142212
vn -1.0888937423965582E-16 -0.9891765117645264 0.1467304676771164
vn -1.1088857051852298E-16 -0.99879544973373408 0.04906767606735229
vn 8.202056932790825E-17 -0.9891765117645264 0.1467304676771164
vn 6.41604561185777E-17 -0.99879544973373408 0.04906767606735229
vn -5.373761313221758E-17 -0.97003126144409184 0.24298018217086792
vn -5.491032693896871E-17 -0.9891765117645264 0.1467304676771164
vn -1.9798068344366735E-17 -0.4275550842285156 0.90398931503295904
vn -1.4960914645503642E-17 -0.3368898630142212 0.94154405593872064
vn -3.959613668873347E-17 -0.4275550842285156 0.90398931503295904
vn -4.56614947785602E-17 -0.51410275697708128 0.85772860050201424
vn 0 0 1
vn 0 0.86714214086532592 -0.49806073307991024
vn 8.274388517228218E-16 0.86714214086532592 -0.49806073307991024
vn 1.3297956697727446E-16 0.86377888917922976 0.50387102365493776
vn 4.01894038589463E-17 0.86377888917922976 0.50387102365493776
vn 0 0.86377888917922976 0.50387102365493776
vn -4.01894038589463E-17 0.86377888917922976 0.50387102365493776
vn -1.3297956697727446E-16 0.86377888917922976 0.50387102365493776
vn -8.46806683578265E-16 0.86714214086532592 -0.49806073307991024
vn 7.92494083967372E-17 -0.9993412494659424 0.03629089146852493
vn 0 -0.9993412494659424 0.03629089146852493
vn 0 -0.9940766096115112 0.10868149250745774
vn 0 -0.98357504606246944 0.18049955368041992
vn 0 -0.96789193153381344 0.25136670470237732
vn 0 -0.94710981845855712 0.32090964913368224
vn -7.510736434510447E-17 -0.94710981845855712 0.32090964913368224
vn -7.306363927950236E-17 -0.9213382005691528 0.3887619972229004
vn -1.461272785590047E-16 -0.9213382005691528 0.3887619972229004
vn -1.4126999459275453E-16 -0.89071291685104368 0.45456629991531376
vn 2.119049985065767E-16 -0.89071291685104368 0.45456629991531376
vn 2.0350274930716925E-16 -0.8553951978683472 0.51797586679458616
vn 3.391712356103923E-16 -0.8553951978683472 0.51797586679458616
vn 3.23380688589E-16 -0.8155711889266968 0.57865673303604128
vn 2.5870456145911185E-16 -0.8155711889266968 0.57865673303604128
vn 2.4470922136008626E-16 -0.77145069837570192 0.63628911972045896
vn 2.294247500548988E-16 -0.72326606512069696 0.69056946039199832
vn 1.835397973969411E-16 -0.72326606512069696 0.69056946039199832
vn 1.7034530047976485E-16 -0.67127120494842528 0.74121183156967168
vn -6.387949264299549E-17 -0.67127120494842528 0.74121183156967168
vn -5.859503275608822E-17 -0.61573994159698488 0.78794944286346432
vn 3.1250682371928413E-16 -0.61573994159698488 0.78794944286346432
vn 2.826767320669314E-16 -0.55696499347686768 0.83053600788116448
vn 1.1257215040984237E-15 -0.55696499347686768 0.83053600788116448
vn 1.1331888406822992E-15 -0.49525582790374752 0.8687471747398376
vn -1.2567872530709363E-16 -0.49525582790374752 0.8687471747398376
vn -1.093569893660994E-16 -0.43093758821487424 0.90238171815872192
vn 0 -0.43093758821487424 0.90238171815872192
vn 0 -0.36434915661811832 0.93126243352890016
vn -2.3114789631102234E-17 -0.36434915661811832 0.93126243352890016
vn -1.8768559353983237E-17 -0.2958412766456604 0.955237090587616
vn 0 -0.2958412766456604 0.955237090587616
vn 0 -0.2257748544216156 0.97417950630187984
vn -9.888516736130878E-16 -0.2257748544216156 0.97417950630187984
vn -1.0028699630110281E-15 -0.15451905131340026 0.98798978328704832
vn 1.9605783593533884E-17 -0.15451905131340026 0.98798978328704832
vn 1.046137223211223E-17 -0.08244920521974564 0.99659526348114016
vn 0 -0.08244920521974564 0.99659526348114016
vn 0 -0.00994501262903213 0.99995052814483648
vn 1.2618493419937709E-18 -0.00994501262903213 0.99995052814483648
vn -7.94432118511747E-18 0.06261157244443893 0.99803799390792848
vn 0 0.06261157244443893 0.99803799390792848
vn 0 0.13483831286430358 0.99086761474609376
vn -2.028690919002622E-15 0.13483831286430358 0.99086761474609376
vn -2.012611057290183E-15 0.20635470747947692 0.97847723960876464
vn 0 0.20635470747947692 0.97847723960876464
vn 0 0.27678400278091432 0.96093213558197024
vn -3.511908118029431E-17 0.27678400278091432 0.96093213558197024
vn -4.3870324497582774E-17 0.34575515985488892 0.93832474946975712
vn -5.239045355172392E-17 0.4129048585891724 0.9107741713523864
vn 0 0.4129048585891724 0.9107741713523864
vn 0 0.47787931561470032 0.87842547893524176
vn 0 0.54033625125885008 0.84144920110702512
vn -2.056778505063795E-16 0.54033625125885008 0.84144920110702512
vn -2.283684205603339E-16 0.5999466180801392 0.80004006624221808
vn 0 0.5999466180801392 0.80004006624221808
vn 0 0.65639638900756832 0.75441616773605344
vn 0 0.70938819646835328 0.70481795072555544
vn 0 0.75864291191101072 0.6515066623687744
vn -3.850344168746276E-16 0.75864291191101072 0.6515066623687744
vn -4.0800428280804934E-16 0.803900957107544 0.59476321935653688
vn 0 0.803900957107544 0.59476321935653688
vn 0 0.84492397308349616 0.53488641977310184
vn -1.912020706726933E-16 0.75864291191101072 0.6515066623687744
vn -1.8001808586516393E-16 0.70938819646835328 0.70481795072555544
vn -1.6657060402944446E-16 0.65639638900756832 0.75441616773605344
vn -1.5224560929525934E-16 0.5999466180801392 0.80004006624221808
vn -2.74237134008506E-16 0.54033625125885008 0.84144920110702512
vn -2.425383288558327E-16 0.47787931561470032 0.87842547893524176
vn 8.916554899486041E-16 0.47787931561470032 0.87842547893524176
vn 9.244913574236275E-16 0.4129048585891724 0.9107741713523864
vn 0 0.34575515985488892 0.93832474946975712
vn 8.774064899516555E-17 0.34575515985488892 0.93832474946975712
vn 7.023816236058862E-17 0.27678400278091432 0.96093213558197024
vn 2.012611057290183E-15 0.20635470747947692 0.97847723960876464
vn 2.028690919002622E-15 0.13483831286430358 0.99086761474609376
vn 1.0162726712145513E-15 -0.00994501262903213 0.99995052814483648
vn 1.0220663765737707E-15 -0.08244920521974564 0.99659526348114016
vn 1.0224757052455314E-15 -0.15451905131340026 0.98798978328704832
vn 1.017498539647465E-15 -0.2257748544216156 0.97417950630187984
vn 5.630567475322726E-17 -0.2958412766456604 0.955237090587616
vn 6.934437054766793E-17 -0.36434915661811832 0.93126243352890016
vn 2.3114789631102234E-17 -0.36434915661811832 0.93126243352890016
vn 2.733924734152485E-17 -0.43093758821487424 0.90238171815872192
vn 1.6403548735787155E-16 -0.43093758821487424 0.90238171815872192
vn 1.8851808796064044E-16 -0.49525582790374752 0.8687471747398376
vn -1.5709840663386703E-16 -0.49525582790374752 0.8687471747398376
vn -1.766729542331097E-16 -0.55696499347686768 0.83053600788116448
vn -2.1200754243275367E-16 -0.55696499347686768 0.83053600788116448
vn -2.343801310243529E-16 -0.61573994159698488 0.78794944286346432
vn 2.148484512331752E-16 -0.61573994159698488 0.78794944286346432
vn 2.3422480635765014E-16 -0.67127120494842528 0.74121183156967168
vn -6.882742236949169E-17 -0.72326606512069696 0.69056946039199832
vn -2.294247500548988E-16 -0.72326606512069696 0.69056946039199832
vn -2.4470922136008626E-16 -0.77145069837570192 0.63628911972045896
vn -1.9576737973504697E-16 -0.77145069837570192 0.63628911972045896
vn -2.0696364652031152E-16 -0.8155711889266968 0.57865673303604128
vn -1.2935228072955593E-16 -0.8155711889266968 0.57865673303604128
vn -1.3566849953811284E-16 -0.8553951978683472 0.51797586679458616
vn 3.531749930993312E-16 -0.89071291685104368 0.45456629991531376
vn 3.653181897800669E-16 -0.9213382005691528 0.3887619972229004
vn 1.461272785590047E-16 -0.9213382005691528 0.3887619972229004
vn 1.5021472869020894E-16 -0.94710981845855712 0.32090964913368224
vn -7.675541914522042E-17 -0.96789193153381344 0.25136670470237732
vn -7.799912159214085E-17 -0.98357504606246944 0.18049955368041992
vn -7.883191379796944E-17 -0.9940766096115112 0.10868149250745774
vn 7.883191379796944E-17 -0.9940766096115112 0.10868149250745774
vn 3.878670538689236E-16 0.75864291191101072 0.6515066623687744
vn 4.0800428280804934E-16 0.803900957107544 0.59476321935653688
vn -2.0212790895465712E-16 0.803900957107544 0.59476321935653688
vn -2.1441234837934743E-16 0.84492397308349616 0.53488641977310184
vn 7.675541914522042E-17 -0.96789193153381344 0.25136670470237732
vn 7.510736434510447E-17 -0.94710981845855712 0.32090964913368224
vn 0 -0.9213382005691528 0.3887619972229004
vn 0 -0.89071291685104368 0.45456629991531376
vn 0 -0.8553951978683472 0.51797586679458616
vn 0 -0.8155711889266968 0.57865673303604128
vn 0 -0.77145069837570192 0.63628911972045896
vn 0 -0.72326606512069696 0.69056946039199832
vn 0 -0.67127120494842528 0.74121183156967168
vn 0 -0.61573994159698488 0.78794944286346432
vn 0 -0.55696499347686768 0.83053600788116448
vn -7.723755691624247E-16 -0.55696499347686768 0.83053600788116448
vn -8.189920803541243E-16 -0.49525582790374752 0.8687471747398376
vn 0 -0.49525582790374752 0.8687471747398376
vn 1.8768559353983237E-17 -0.2958412766456604 0.955237090587616
vn 1.4323454523884552E-17 -0.2257748544216156 0.97417950630187984
vn 2.8646909047769104E-17 -0.2257748544216156 0.97417950630187984
vn 0 -0.15451905131340026 0.98798978328704832
vn -1.7108639475160825E-17 0.13483831286430358 0.99086761474609376
vn -2.618282733847979E-17 0.20635470747947692 0.97847723960876464
vn -2.5515255526458054E-16 -0.96789193153381344 0.25136670470237732
vn -3.2574287819043504E-16 -0.94710981845855712 0.32090964913368224
vn -6.783424976905642E-17 -0.8553951978683472 0.51797586679458616
vn -6.467614036477796E-17 -0.8155711889266968 0.57865673303604128
vn 7.76113657907556E-17 -0.8155711889266968 0.57865673303604128
vn 7.341276905500384E-17 -0.77145069837570192 0.63628911972045896
vn 6.882742236949169E-17 -0.72326606512069696 0.69056946039199832
vn 6.387949264299549E-17 -0.67127120494842528 0.74121183156967168
vn 3.9063352964910516E-17 -0.61573994159698488 0.78794944286346432
vn 3.533459150836643E-17 -0.55696499347686768 0.83053600788116448
vn 6.283936265354681E-17 -0.49525582790374752 0.8687471747398376
vn 5.46784946830497E-17 -0.43093758821487424 0.90238171815872192
vn 4.622957926220447E-17 -0.36434915661811832 0.93126243352890016
vn 3.7537118707966474E-17 -0.2958412766456604 0.955237090587616
vn -8.774064899516555E-17 0.34575515985488892 0.93832474946975712
vn -1.0478090710344784E-16 0.4129048585891724 0.9107741713523864
vn -6.063458221395817E-17 0.47787931561470032 0.87842547893524176
vn 7.101790912809541E-17 -0.9213382005691528 0.3887619972229004
vn 7.063499729637726E-17 -0.89071291685104368 0.45456629991531376
vn 6.55549966045584E-17 -0.8553951978683472 0.51797586679458616
vn 6.783424976905642E-17 -0.8553951978683472 0.51797586679458616
vn 6.28235403427899E-17 -0.8155711889266968 0.57865673303604128
vn 7.101790912809541E-17 -0.72326606512069696 0.69056946039199832
vn 3.004603873178825E-17 -0.49525582790374752 0.8687471747398376
vn 4.643478953728907E-17 -0.36434915661811832 0.93126243352890016
vn 1.912020706726933E-17 -0.2958412766456604 0.955237090587616
vn 1.0242968426257404E-17 -0.08244920521974564 0.99659526348114016
vn 1.2803710532821755E-18 -0.00994501262903213 0.99995052814483648
vn -1.588864237023494E-17 0.06261157244443893 0.99803799390792848
vn -3.4143226433163454E-17 0.13483831286430358 0.99086761474609376
vn -3.421727895032165E-17 0.13483831286430358 0.99086761474609376
vn -5.3263433500432784E-17 0.20635470747947692 0.97847723960876464
vn -7.023816236058862E-17 0.27678400278091432 0.96093213558197024
vn -8.740665993359624E-17 0.34575515985488892 0.93832474946975712
vn -6.00920774635765E-17 0.47787931561470032 0.87842547893524176
vn 0 -1 0
vn 3.0472642905205935E-16 -0.85772860050201424 -0.51410275697708128
vn -3.0472642905205935E-16 -0.85772860050201424 -0.51410275697708128
vn 0 -7.10542746348012E-16 -1
vn 3.4363790503906023E-16 -0.24298018217086792 0.97003126144409184
vn 3.3450366055454747E-16 -0.3368898630142212 0.94154405593872064
vn 2.0337821020881577E-33 -1 8.987673318701757E-33
vn 0 -1 1.9156583278129569E-32
vn -2.0337821020881577E-33 -1 8.987673318701757E-33
vn 0 -1 3.903217971645867E-33
vn 0 0 -1
vn -1 0 0
vn 0 2.641275378541208E-33 -1
# 292 vertex normals

g obj_6901027
s 1
f 1//1 2//1 3//1
f 3//1 2//1 4//1
f 3//1 4//1 5//1
f 5//2 4//2 6//2
f 5//2 6//2 7//2
f 7//3 6//3 8//3
f 7//3 8//3 9//3
f 9//4 8//4 10//4
f 9//4 10//4 11//4
f 11//5 10//5 12//5
f 11//5 12//5 13//5
f 13//6 12//6 14//6
f 14//6 12//6 15//6
f 14//7 15//7 16//7
f 16//7 15//7 17//7
f 16//8 17//8 18//8
f 18//9 17//9 19//9
f 18//10 19//10 20//10
f 20//11 19//11 21//11
f 20//12 21//12 22//12
f 22//13 21//13 23//13
f 22//14 23//14 24//14
f 24//15 23//15 25//15
f 24//16 25//16 26//16
f 26//17 25//17 27//17
f 26//18 27//18 28//18
f 28//19 27//19 29//19
f 28//20 29//20 30//20
f 30//21 29//21 31//21
f 30//22 31//22 32//22
f 32//23 31//23 33//23
f 32//24 33//24 34//24
f 34//25 33//25 35//25
f 34//25 35//25 36//25
f 36//26 35//26 37//26
f 36//26 37//26 38//26
f 38//27 37//27 39//27
f 38//27 39//27 40//27
f 40//28 39//28 41//28
f 40//28 41//28 42//28
f 42//29 41//29 43//29
f 42//30 43//30 44//30
f 44//31 43//31 45//31
f 45//32 43//32 46//32
f 45//33 46//33 47//33
f 47//34 46//34 48//34
f 47//35 48//35 49//35
f 49//36 48//36 50//36
f 49//37 50//37 51//37
f 51//8 50//8 52//8
f 51//7 52//7 53//7
f 53//7 52//7 54//7
f 53//6 54//6 55//6
f 55//6 54//6 56//6
f 55//5 56//5 57//5
f 57//38 56//38 58//38
f 57//39 58//39 59//39
f 59//40 58//40 60//40
f 59//41 60//41 61//41
f 61//3 60//3 62//3
f 61//2 62//2 1//2
f 1//2 62//2 2//2
f 44//42 63//42 42//42
f 42//43 63//43 64//43
f 42//28 64//28 40//28
f 40//27 64//27 65//27
f 40//27 65//27 38//27
f 38//26 65//26 66//26
f 38//26 66//26 36//26
f 36//25 66//25 34//25
f 63//44 67//44 64//44
f 64//45 67//45 68//45
f 64//27 68//27 65//27
f 65//26 68//26 69//26
f 65//26 69//26 66//26
f 66//25 69//25 70//25
f 66//25 70//25 34//25
f 67//46 71//46 68//46
f 68//47 71//47 72//47
f 68//26 72//26 69//26
f 69//25 72//25 70//25
f 71//26 73//26 72//26
f 72//25 73//25 70//25
f 13//48 74//48 11//48
f 11//49 74//49 75//49
f 11//4 75//4 9//4
f 9//3 75//3 76//3
f 9//3 76//3 7//3
f 7//2 76//2 77//2
f 7//2 77//2 5//2
f 5//1 77//1 3//1
f 74//50 78//50 75//50
f 75//51 78//51 79//51
f 75//3 79//3 76//3
f 76//2 79//2 80//2
f 76//2 80//2 77//2
f 77//1 80//1 81//1
f 77//1 81//1 3//1
f 78//3 82//3 79//3
f 79//2 82//2 83//2
f 79//2 83//2 80//2
f 80//1 83//1 81//1
f 82//2 84//2 83//2
f 83//1 84//1 81//1
f 4//2 2//2 85//2
f 85//2 2//2 62//2
f 85//3 62//3 86//3
f 86//3 62//3 60//3
f 86//4 60//4 87//4
f 87//4 60//4 58//4
f 87//5 58//5 88//5
f 88//5 58//5 56//5
f 88//6 56//6 89//6
f 89//6 56//6 54//6
f 89//7 54//7 90//7
f 90//7 54//7 52//7
f 90//8 52//8 91//8
f 91//8 52//8 50//8
f 91//52 50//52 92//52
f 92//52 50//52 48//52
f 92//53 48//53 93//53
f 93//53 48//53 46//53
f 93//54 46//54 94//54
f 94//54 46//54 43//54
f 94//29 43//29 41//29
f 4//2 85//2 6//2
f 6//3 85//3 95//3
f 6//3 95//3 8//3
f 8//4 95//4 96//4
f 8//4 96//4 10//4
f 10//5 96//5 97//5
f 10//5 97//5 12//5
f 12//6 97//6 15//6
f 95//3 85//3 86//3
f 95//4 86//4 98//4
f 98//4 86//4 87//4
f 98//5 87//5 99//5
f 99//5 87//5 88//5
f 99//6 88//6 100//6
f 100//6 88//6 89//6
f 100//7 89//7 101//7
f 101//7 89//7 90//7
f 101//8 90//8 102//8
f 102//8 90//8 91//8
f 102//52 91//52 103//52
f 103//52 91//52 92//52
f 103//53 92//53 104//53
f 104//53 92//53 93//53
f 104//54 93//54 105//54
f 105//54 93//54 94//54
f 105//29 94//29 106//29
f 106//29 94//29 41//29
f 106//28 41//28 39//28
f 95//4 98//4 96//4
f 96//5 98//5 107//5
f 96//55 107//55 97//55
f 97//56 107//56 108//56
f 97//6 108//6 15//6
f 15//7 108//7 17//7
f 107//5 98//5 99//5
f 107//6 99//6 109//6
f 109//6 99//6 100//6
f 109//7 100//7 110//7
f 110//7 100//7 101//7
f 110//8 101//8 111//8
f 111//8 101//8 102//8
f 111//52 102//52 112//52
f 112//52 102//52 103//52
f 112//53 103//53 113//53
f 113//53 103//53 104//53
f 113//54 104//54 114//54
f 114//54 104//54 105//54
f 114//29 105//29 115//29
f 115//29 105//29 106//29
f 115//28 106//28 116//28
f 116//28 106//28 39//28
f 116//27 39//27 37//27
f 107//6 109//6 108//6
f 108//7 109//7 117//7
f 108//7 117//7 17//7
f 17//8 117//8 19//8
f 117//7 109//7 110//7
f 117//8 110//8 118//8
f 118//8 110//8 111//8
f 118//52 111//52 119//52
f 119//52 111//52 112//52
f 119//53 112//53 120//53
f 120//53 112//53 113//53
f 120//54 113//54 121//54
f 121//54 113//54 114//54
f 121//29 114//29 122//29
f 122//29 114//29 115//29
f 122//28 115//28 123//28
f 123//28 115//28 116//28
f 123//27 116//27 124//27
f 124//27 116//27 37//27
f 124//26 37//26 35//26
f 21//52 19//52 118//52
f 118//8 19//8 117//8
f 21//52 118//52 119//52
f 23//53 21//53 119//53
f 23//53 119//53 120//53
f 25//54 23//54 120//54
f 25//54 120//54 121//54
f 27//29 25//29 121//29
f 27//29 121//29 122//29
f 29//28 27//28 122//28
f 29//28 122//28 123//28
f 31//27 29//27 123//27
f 31//27 123//27 124//27
f 33//26 31//26 124//26
f 33//26 124//26 35//26
f 70//57 125//57 34//57
f 34//57 125//57 126//57
f 70//58 73//58 125//58
f 125//58 73//58 127//58
f 127//58 73//58 71//58
f 127//58 71//58 128//58
f 128//58 71//58 3//58
f 128//58 3//58 129//58
f 129//58 3//58 130//58
f 129//58 130//58 131//58
f 131//58 130//58 132//58
f 132//58 130//58 133//58
f 133//58 130//58 134//58
f 134//58 130//58 135//58
f 135//58 130//58 136//58
f 136//58 130//58 137//58
f 137//58 130//58 138//58
f 138//58 130//58 139//58
f 139//58 130//58 140//58
f 140//58 130//58 141//58
f 141//58 130//58 142//58
f 67//58 45//58 71//58
f 71//58 45//58 47//58
f 71//58 47//58 49//58
f 63//58 44//58 67//58
f 67//58 44//58 45//58
f 49//58 51//58 71//58
f 71//58 51//58 53//58
f 71//58 53//58 55//58
f 55//58 57//58 71//58
f 71//58 57//58 59//58
f 71//58 59//58 61//58
f 61//58 1//58 71//58
f 71//58 1//58 3//58
f 3//58 143//58 130//58
f 130//58 143//58 144//58
f 130//58 144//58 145//58
f 145//58 146//58 130//58
f 130//58 146//58 147//58
f 130//58 147//58 148//58
f 148//58 149//58 130//58
f 130//58 149//58 150//58
f 130//58 150//58 151//58
f 151//58 152//58 130//58
f 130//58 152//58 153//58
f 130//58 153//58 154//58
f 154//58 155//58 130//58
f 130//58 155//58 156//58
f 130//58 156//58 157//58
f 130//58 157//58 158//58
f 158//58 157//58 159//58
f 158//58 159//58 160//58
f 160//58 161//58 158//58
f 158//58 161//58 162//58
f 162//58 161//58 163//58
f 162//58 163//58 164//58
f 164//58 165//58 162//58
f 162//58 165//58 166//58
f 162//58 166//58 167//58
f 167//58 168//58 162//58
f 162//58 168//58 169//58
f 162//58 169//58 170//58
f 170//58 171//58 162//58
f 162//58 171//58 172//58
f 162//58 172//58 173//58
f 162//58 173//58 174//58
f 174//58 173//58 175//58
f 174//58 175//58 176//58
f 176//58 177//58 174//58
f 174//58 177//58 178//58
f 174//58 178//58 179//58
f 179//58 180//58 174//58
f 174//58 180//58 181//58
f 181//58 180//58 182//58
f 181//58 182//58 183//58
f 183//58 184//58 181//58
f 181//58 184//58 185//58
f 181//58 185//58 186//58
f 186//58 187//58 181//58
f 181//58 187//58 188//58
f 181//58 188//58 189//58
f 189//58 190//58 181//58
f 181//58 190//58 191//58
f 181//58 191//58 192//58
f 192//58 193//58 181//58
f 181//58 193//58 194//58
f 181//58 194//58 195//58
f 195//58 196//58 181//58
f 129//58 197//58 128//58
f 128//58 197//58 198//58
f 128//58 198//58 199//58
f 199//58 200//58 128//58
f 128//58 200//58 201//58
f 128//58 201//58 202//58
f 202//58 203//58 128//58
f 128//58 203//58 204//58
f 128//58 204//58 205//58
f 205//58 206//58 128//58
f 128//58 206//58 207//58
f 128//58 207//58 208//58
f 208//58 209//58 128//58
f 128//58 209//58 210//58
f 128//58 210//58 211//58
f 211//58 212//58 128//58
f 128//58 212//58 213//58
f 128//58 213//58 214//58
f 214//58 215//58 128//58
f 128//58 215//58 216//58
f 217//59 218//59 219//59
f 219//59 218//59 220//59
f 219//59 220//59 221//59
f 221//60 220//60 222//60
f 221//60 222//60 223//60
f 223//61 222//61 224//61
f 223//61 224//61 225//61
f 225//62 224//62 226//62
f 225//62 226//62 227//62
f 227//63 226//63 228//63
f 227//63 228//63 186//63
f 186//64 228//64 187//64
f 187//64 228//64 229//64
f 187//65 229//65 188//65
f 188//65 229//65 230//65
f 188//66 230//66 189//66
f 189//66 230//66 231//66
f 189//67 231//67 190//67
f 190//68 231//68 232//68
f 190//69 232//69 191//69
f 191//70 232//70 233//70
f 191//71 233//71 192//71
f 192//72 233//72 234//72
f 192//73 234//73 193//73
f 193//74 234//74 235//74
f 193//75 235//75 194//75
f 194//76 235//76 236//76
f 194//77 236//77 195//77
f 195//78 236//78 237//78
f 195//79 237//79 196//79
f 196//80 237//80 238//80
f 196//81 238//81 181//81
f 181//82 238//82 239//82
f 181//82 239//82 240//82
f 240//83 239//83 241//83
f 240//83 241//83 242//83
f 242//84 241//84 243//84
f 242//84 243//84 244//84
f 244//85 243//85 245//85
f 244//85 245//85 246//85
f 246//86 245//86 247//86
f 246//87 247//87 248//87
f 248//88 247//88 249//88
f 249//71 247//71 250//71
f 249//70 250//70 251//70
f 251//89 250//89 252//89
f 251//90 252//90 253//90
f 253//67 252//67 254//67
f 253//66 254//66 255//66
f 255//66 254//66 256//66
f 255//65 256//65 257//65
f 257//65 256//65 258//65
f 257//64 258//64 259//64
f 259//64 258//64 260//64
f 259//63 260//63 261//63
f 261//91 260//91 262//91
f 261//92 262//92 263//92
f 263//62 262//62 264//62
f 263//61 264//61 265//61
f 265//61 264//61 266//61
f 265//60 266//60 217//60
f 217//60 266//60 218//60
f 248//93 267//93 246//93
f 246//94 267//94 268//94
f 246//85 268//85 244//85
f 244//84 268//84 269//84
f 244//84 269//84 242//84
f 242//83 269//83 270//83
f 242//95 270//95 240//95
f 240//96 270//96 181//96
f 267//85 271//85 268//85
f 268//84 271//84 272//84
f 268//84 272//84 269//84
f 269//83 272//83 273//83
f 269//97 273//97 270//97
f 270//98 273//98 274//98
f 270//82 274//82 181//82
f 271//99 275//99 272//99
f 272//100 275//100 276//100
f 272//83 276//83 273//83
f 273//82 276//82 274//82
f 275//83 277//83 276//83
f 276//82 277//82 274//82
f 186//101 185//101 227//101
f 227//102 185//102 278//102
f 227//62 278//62 225//62
f 225//61 278//61 279//61
f 225//61 279//61 223//61
f 223//60 279//60 280//60
f 223//60 280//60 221//60
f 221//59 280//59 219//59
f 185//62 184//62 278//62
f 278//61 184//61 281//61
f 278//61 281//61 279//61
f 279//60 281//60 282//60
f 279//60 282//60 280//60
f 280//59 282//59 180//59
f 280//59 180//59 219//59
f 184//61 183//61 281//61
f 281//60 183//60 283//60
f 281//60 283//60 282//60
f 282//59 283//59 180//59
f 183//60 182//60 283//60
f 283//59 182//59 180//59
f 220//60 218//60 284//60
f 284//60 218//60 266//60
f 284//61 266//61 285//61
f 285//61 266//61 264//61
f 285//62 264//62 286//62
f 286//62 264//62 262//62
f 286//63 262//63 287//63
f 287//63 262//63 260//63
f 287//64 260//64 288//64
f 288//64 260//64 258//64
f 288//65 258//65 289//65
f 289//65 258//65 256//65
f 289//66 256//66 290//66
f 290//66 256//66 254//66
f 290//67 254//67 291//67
f 291//67 254//67 252//67
f 291//70 252//70 292//70
f 292//70 252//70 250//70
f 292//71 250//71 293//71
f 293//71 250//71 247//71
f 293//86 247//86 245//86
f 220//60 284//60 222//60
f 222//61 284//61 294//61
f 222//61 294//61 224//61
f 224//62 294//62 295//62
f 224//62 295//62 226//62
f 226//63 295//63 296//63
f 226//63 296//63 228//63
f 228//64 296//64 229//64
f 294//61 284//61 285//61
f 294//62 285//62 297//62
f 297//62 285//62 286//62
f 297//63 286//63 298//63
f 298//63 286//63 287//63
f 298//64 287//64 299//64
f 299//64 287//64 288//64
f 299//65 288//65 300//65
f 300//65 288//65 289//65
f 300//66 289//66 301//66
f 301//66 289//66 290//66
f 301//67 290//67 302//67
f 302//67 290//67 291//67
f 302//70 291//70 303//70
f 303//70 291//70 292//70
f 303//71 292//71 304//71
f 304//71 292//71 293//71
f 304//86 293//86 305//86
f 305//86 293//86 245//86
f 305//85 245//85 243//85
f 294//62 297//62 295//62
f 295//63 297//63 306//63
f 295//103 306//103 296//103
f 296//104 306//104 307//104
f 296//64 307//64 229//64
f 229//65 307//65 230//65
f 306//63 297//63 298//63
f 306//64 298//64 308//64
f 308//64 298//64 299//64
f 308//65 299//65 309//65
f 309//65 299//65 300//65
f 309//66 300//66 310//66
f 310//66 300//66 301//66
f 310//67 301//67 311//67
f 311//67 301//67 302//67
f 311//70 302//70 312//70
f 312//70 302//70 303//70
f 312//71 303//71 313//71
f 313//71 303//71 304//71
f 313//86 304//86 314//86
f 314//86 304//86 305//86
f 314//85 305//85 315//85
f 315//85 305//85 243//85
f 315//84 243//84 241//84
f 306//64 308//64 307//64
f 307//65 308//65 316//65
f 307//65 316//65 230//65
f 230//66 316//66 231//66
f 316//65 308//65 309//65
f 316//66 309//66 317//66
f 317//66 309//66 310//66
f 317//67 310//67 318//67
f 318//67 310//67 311//67
f 318//70 311//70 319//70
f 319//70 311//70 312//70
f 319//71 312//71 320//71
f 320//71 312//71 313//71
f 320//86 313//86 321//86
f 321//86 313//86 314//86
f 321//85 314//85 322//85
f 322//85 314//85 315//85
f 322//84 315//84 323//84
f 323//84 315//84 241//84
f 323//83 241//83 239//83
f 232//67 231//67 317//67
f 317//66 231//66 316//66
f 232//67 317//67 318//67
f 233//70 232//70 318//70
f 233//70 318//70 319//70
f 234//71 233//71 319//71
f 234//71 319//71 320//71
f 235//86 234//86 320//86
f 235//86 320//86 321//86
f 236//85 235//85 321//85
f 236//85 321//85 322//85
f 237//84 236//84 322//84
f 237//84 322//84 323//84
f 238//83 237//83 323//83
f 238//83 323//83 239//83
f 180//105 179//105 219//105
f 219//105 179//105 324//105
f 325//106 326//106 327//106
f 327//107 326//107 328//107
f 329//58 327//58 330//58
f 330//58 327//58 328//58
f 330//58 328//58 331//58
f 328//108 326//108 331//108
f 331//109 326//109 332//109
f 331//110 332//110 333//110
f 333//110 332//110 130//110
f 333//111 130//111 158//111
f 158//112 334//112 333//112
f 158//113 162//113 334//113
f 334//106 162//106 335//106
f 127//114 336//114 125//114
f 125//115 336//115 337//115
f 125//115 337//115 338//115
f 338//116 337//116 339//116
f 338//116 339//116 340//116
f 340//117 339//117 341//117
f 340//117 341//117 342//117
f 342//118 341//118 343//118
f 343//118 341//118 344//118
f 343//119 344//119 345//119
f 345//120 344//120 346//120
f 345//121 346//121 347//121
f 347//122 346//122 348//122
f 347//123 348//123 349//123
f 349//124 348//124 350//124
f 349//125 350//125 351//125
f 351//126 350//126 352//126
f 351//127 352//127 353//127
f 353//128 352//128 354//128
f 353//129 354//129 355//129
f 355//129 354//129 356//129
f 355//130 356//130 357//130
f 357//131 356//131 358//131
f 357//132 358//132 359//132
f 359//133 358//133 360//133
f 359//134 360//134 361//134
f 361//135 360//135 362//135
f 361//136 362//136 363//136
f 363//137 362//137 364//137
f 363//138 364//138 365//138
f 365//139 364//139 366//139
f 365//140 366//140 367//140
f 367//141 366//141 368//141
f 367//142 368//142 369//142
f 369//143 368//143 370//143
f 369//144 370//144 371//144
f 371//145 370//145 372//145
f 371//146 372//146 373//146
f 373//147 372//147 374//147
f 373//148 374//148 375//148
f 375//149 374//149 376//149
f 375//150 376//150 377//150
f 377//151 376//151 378//151
f 377//152 378//152 379//152
f 379//153 378//153 380//153
f 379//154 380//154 381//154
f 381//155 380//155 382//155
f 381//156 382//156 383//156
f 383//157 382//157 384//157
f 383//158 384//158 385//158
f 385//159 384//159 386//159
f 385//160 386//160 387//160
f 387//161 386//161 388//161
f 387//162 388//162 389//162
f 389//162 388//162 390//162
f 389//163 390//163 391//163
f 391//164 390//164 392//164
f 391//165 392//165 393//165
f 393//165 392//165 394//165
f 393//166 394//166 395//166
f 395//167 394//167 396//167
f 395//168 396//168 397//168
f 397//169 396//169 398//169
f 397//170 398//170 399//170
f 399//170 398//170 400//170
f 399//171 400//171 401//171
f 401//171 400//171 402//171
f 401//172 402//172 403//172
f 403//173 402//173 404//173
f 403//174 404//174 405//174
f 405//175 404//175 406//175
f 405//176 406//176 332//176
f 332//176 406//176 407//176
f 332//176 407//176 408//176
f 408//175 407//175 409//175
f 408//175 409//175 410//175
f 410//172 409//172 411//172
f 410//177 411//177 140//177
f 140//178 411//178 139//178
f 139//171 411//171 412//171
f 139//170 412//170 138//170
f 138//179 412//179 413//179
f 138//180 413//180 137//180
f 137//169 413//169 414//169
f 137//166 414//166 136//166
f 136//181 414//181 415//181
f 136//182 415//182 135//182
f 135//183 415//183 416//183
f 135//184 416//184 134//184
f 134//164 416//164 417//164
f 134//185 417//185 133//185
f 133//186 417//186 418//186
f 133//187 418//187 132//187
f 132//160 418//160 419//160
f 132//159 419//159 131//159
f 131//188 419//188 420//188
f 131//189 420//189 129//189
f 129//156 420//156 421//156
f 129//155 421//155 197//155
f 197//154 421//154 422//154
f 197//153 422//153 198//153
f 198//190 422//190 423//190
f 198//191 423//191 199//191
f 199//150 423//150 424//150
f 199//149 424//149 200//149
f 200//192 424//192 425//192
f 200//193 425//193 201//193
f 201//146 425//146 426//146
f 201//145 426//145 202//145
f 202//194 426//194 427//194
f 202//195 427//195 203//195
f 203//196 427//196 428//196
f 203//197 428//197 204//197
f 204//198 428//198 429//198
f 204//199 429//199 205//199
f 205//200 429//200 430//200
f 205//201 430//201 206//201
f 206//202 430//202 431//202
f 206//203 431//203 207//203
f 207//204 431//204 432//204
f 207//205 432//205 208//205
f 208//133 432//133 433//133
f 208//206 433//206 209//206
f 209//207 433//207 434//207
f 209//208 434//208 210//208
f 210//209 434//209 435//209
f 210//210 435//210 211//210
f 211//211 435//211 436//211
f 211//212 436//212 212//212
f 212//212 436//212 437//212
f 212//123 437//123 213//123
f 213//213 437//213 438//213
f 213//214 438//214 214//214
f 214//215 438//215 439//215
f 214//216 439//216 215//216
f 215//120 439//120 440//120
f 215//217 440//217 216//217
f 216//118 440//118 441//118
f 216//117 441//117 128//117
f 128//218 441//218 442//218
f 128//219 442//219 127//219
f 127//220 442//220 336//220
f 140//221 141//221 410//221
f 410//222 141//222 443//222
f 410//175 443//175 408//175
f 408//176 443//176 130//176
f 408//176 130//176 332//176
f 141//223 142//223 443//223
f 443//224 142//224 130//224
f 342//117 444//117 340//117
f 340//116 444//116 445//116
f 340//116 445//116 338//116
f 338//115 445//115 126//115
f 338//115 126//115 125//115
f 444//116 446//116 445//116
f 445//115 446//115 126//115
f 337//116 336//116 447//116
f 447//116 336//116 442//116
f 447//117 442//117 448//117
f 448//117 442//117 441//117
f 448//118 441//118 449//118
f 449//225 441//225 440//225
f 449//226 440//226 450//226
f 450//119 440//119 439//119
f 450//227 439//227 451//227
f 451//227 439//227 438//227
f 451//228 438//228 452//228
f 452//228 438//228 437//228
f 452//229 437//229 453//229
f 453//229 437//229 436//229
f 453//230 436//230 454//230
f 454//230 436//230 435//230
f 454//231 435//231 455//231
f 455//231 435//231 434//231
f 455//232 434//232 456//232
f 456//232 434//232 433//232
f 456//233 433//233 457//233
f 457//233 433//233 432//233
f 457//234 432//234 458//234
f 458//234 432//234 431//234
f 458//235 431//235 459//235
f 459//236 431//236 430//236
f 459//237 430//237 460//237
f 460//238 430//238 429//238
f 460//141 429//141 461//141
f 461//141 429//141 428//141
f 461//142 428//142 462//142
f 462//142 428//142 427//142
f 462//145 427//145 463//145
f 463//239 427//239 426//239
f 463//240 426//240 464//240
f 464//241 426//241 425//241
f 464//149 425//149 465//149
f 465//242 425//242 424//242
f 465//151 424//151 466//151
f 466//151 424//151 423//151
f 466//152 423//152 467//152
f 467//152 423//152 422//152
f 467//155 422//155 468//155
f 468//155 422//155 421//155
f 468//156 421//156 469//156
f 469//243 421//243 420//243
f 469//244 420//244 470//244
f 470//159 420//159 419//159
f 470//160 419//160 471//160
f 471//160 419//160 418//160
f 471//185 418//185 472//185
f 472//185 418//185 417//185
f 472//164 417//164 473//164
f 473//164 417//164 416//164
f 473//165 416//165 474//165
f 474//165 416//165 415//165
f 474//166 415//166 475//166
f 475//166 415//166 414//166
f 475//169 414//169 476//169
f 476//169 414//169 413//169
f 476//170 413//170 477//170
f 477//170 413//170 412//170
f 477//171 412//171 478//171
f 478//171 412//171 411//171
f 478//172 411//172 409//172
f 337//116 447//116 339//116
f 339//117 447//117 479//117
f 339//117 479//117 341//117
f 341//118 479//118 344//118
f 479//117 447//117 448//117
f 479//118 448//118 480//118
f 480//245 448//245 449//245
f 480//246 449//246 481//246
f 481//119 449//119 450//119
f 481//227 450//227 482//227
f 482//227 450//227 451//227
f 482//228 451//228 483//228
f 483//228 451//228 452//228
f 483//229 452//229 484//229
f 484//247 452//247 453//247
f 484//248 453//248 485//248
f 485//249 453//249 454//249
f 485//250 454//250 486//250
f 486//231 454//231 455//231
f 486//232 455//232 487//232
f 487//251 455//251 456//251
f 487//252 456//252 488//252
f 488//233 456//233 457//233
f 488//234 457//234 489//234
f 489//253 457//253 458//253
f 489//254 458//254 490//254
f 490//235 458//235 459//235
f 490//238 459//238 491//238
f 491//255 459//255 460//255
f 491//256 460//256 492//256
f 492//197 460//197 461//197
f 492//196 461//196 493//196
f 493//257 461//257 462//257
f 493//258 462//258 494//258
f 494//258 462//258 463//258
f 494//241 463//241 495//241
f 495//146 463//146 464//146
f 495//242 464//242 496//242
f 496//242 464//242 465//242
f 496//151 465//151 497//151
f 497//151 465//151 466//151
f 497//152 466//152 498//152
f 498//152 466//152 467//152
f 498//155 467//155 499//155
f 499//155 467//155 468//155
f 499//156 468//156 500//156
f 500//156 468//156 469//156
f 500//159 469//159 501//159
f 501//244 469//244 470//244
f 501//161 470//161 502//161
f 502//160 470//160 471//160
f 502//185 471//185 503//185
f 503//259 471//259 472//259
f 503//260 472//260 504//260
f 504//163 472//163 473//163
f 504//261 473//261 505//261
f 505//165 473//165 474//165
f 505//166 474//166 506//166
f 506//166 474//166 475//166
f 506//169 475//169 507//169
f 507//169 475//169 476//169
f 507//170 476//170 508//170
f 508//170 476//170 477//170
f 508//171 477//171 509//171
f 509//171 477//171 478//171
f 509//172 478//172 510//172
f 510//172 478//172 409//172
f 510//175 409//175 407//175
f 346//119 344//119 480//119
f 480//118 344//118 479//118
f 346//226 480//226 481//226
f 348//262 346//262 481//262
f 348//227 481//227 482//227
f 350//228 348//228 482//228
f 350//263 482//263 483//263
f 352//264 350//264 483//264
f 352//265 483//265 484//265
f 354//266 352//266 484//266
f 354//230 484//230 485//230
f 356//231 354//231 485//231
f 356//250 485//250 486//250
f 358//267 356//267 486//267
f 358//232 486//232 487//232
f 360//233 358//233 487//233
f 360//233 487//233 488//233
f 362//234 360//234 488//234
f 362//234 488//234 489//234
f 364//235 362//235 489//235
f 364//254 489//254 490//254
f 366//268 364//268 490//268
f 366//238 490//238 491//238
f 368//141 366//141 491//141
f 368//256 491//256 492//256
f 370//269 368//269 492//269
f 370//196 492//196 493//196
f 372//270 370//270 493//270
f 372//145 493//145 494//145
f 374//146 372//146 494//146
f 374//146 494//146 495//146
f 376//242 374//242 495//242
f 376//149 495//149 496//149
f 378//271 376//271 496//271
f 378//150 496//150 497//150
f 380//272 378//272 497//272
f 380//152 497//152 498//152
f 382//155 380//155 498//155
f 382//273 498//273 499//273
f 384//274 382//274 499//274
f 384//275 499//275 500//275
f 386//276 384//276 500//276
f 386//159 500//159 501//159
f 388//160 386//160 501//160
f 388//277 501//277 502//277
f 390//278 388//278 502//278
f 390//185 502//185 503//185
f 392//164 390//164 503//164
f 392//163 503//163 504//163
f 394//279 392//279 504//279
f 394//165 504//165 505//165
f 396//166 394//166 505//166
f 396//166 505//166 506//166
f 398//169 396//169 506//169
f 398//169 506//169 507//169
f 400//170 398//170 507//170
f 400//170 507//170 508//170
f 402//171 400//171 508//171
f 402//171 508//171 509//171
f 404//172 402//172 509//172
f 404//172 509//172 510//172
f 406//175 404//175 510//175
f 406//175 510//175 407//175
f 511//280 512//280 160//280
f 160//280 512//280 161//280
f 513//1 514//1 515//1
f 515//1 514//1 516//1
f 515//1 516//1 517//1
f 517//2 516//2 518//2
f 517//2 518//2 519//2
f 519//3 518//3 520//3
f 519//3 520//3 521//3
f 521//4 520//4 522//4
f 521//4 522//4 523//4
f 523//5 522//5 524//5
f 523//5 524//5 148//5
f 148//6 524//6 149//6
f 149//6 524//6 525//6
f 149//7 525//7 150//7
f 150//7 525//7 526//7
f 150//8 526//8 151//8
f 151//8 526//8 527//8
f 151//52 527//52 152//52
f 152//35 527//35 528//35
f 152//34 528//34 153//34
f 153//12 528//12 529//12
f 153//281 529//281 154//281
f 154//54 529//54 530//54
f 154//29 530//29 155//29
f 155//29 530//29 531//29
f 155//28 531//28 156//28
f 156//28 531//28 532//28
f 156//27 532//27 157//27
f 157//27 532//27 533//27
f 157//26 533//26 159//26
f 159//26 533//26 534//26
f 159//25 534//25 160//25
f 160//25 534//25 535//25
f 160//25 535//25 536//25
f 536//26 535//26 537//26
f 536//26 537//26 538//26
f 538//27 537//27 539//27
f 538//27 539//27 540//27
f 540//28 539//28 541//28
f 540//28 541//28 542//28
f 542//29 541//29 543//29
f 542//29 543//29 544//29
f 544//54 543//54 545//54
f 545//282 543//282 546//282
f 545//34 546//34 547//34
f 547//12 546//12 548//12
f 547//11 548//11 549//11
f 549//52 548//52 550//52
f 549//8 550//8 551//8
f 551//8 550//8 552//8
f 551//7 552//7 553//7
f 553//7 552//7 554//7
f 553//6 554//6 555//6
f 555//6 554//6 556//6
f 555//5 556//5 557//5
f 557//5 556//5 558//5
f 557//4 558//4 559//4
f 559//4 558//4 560//4
f 559//3 560//3 561//3
f 561//3 560//3 562//3
f 561//2 562//2 513//2
f 513//2 562//2 514//2
f 544//29 563//29 542//29
f 542//28 563//28 564//28
f 542//28 564//28 540//28
f 540//27 564//27 565//27
f 540//27 565//27 538//27
f 538//26 565//26 566//26
f 538//26 566//26 536//26
f 536//25 566//25 160//25
f 563//28 567//28 564//28
f 564//27 567//27 568//27
f 564//27 568//27 565//27
f 565//26 568//26 569//26
f 565//26 569//26 566//26
f 566//25 569//25 511//25
f 566//25 511//25 160//25
f 567//27 570//27 568//27
f 568//26 570//26 571//26
f 568//26 571//26 569//26
f 569//25 571//25 511//25
f 570//26 572//26 571//26
f 571//25 572//25 511//25
f 148//5 147//5 523//5
f 523//4 147//4 573//4
f 523//4 573//4 521//4
f 521//3 573//3 574//3
f 521//3 574//3 519//3
f 519//2 574//2 575//2
f 519//2 575//2 517//2
f 517//1 575//1 515//1
f 147//4 146//4 573//4
f 573//3 146//3 576//3
f 573//3 576//3 574//3
f 574//2 576//2 577//2
f 574//2 577//2 575//2
f 575//1 577//1 143//1
f 575//1 143//1 515//1
f 146//3 145//3 576//3
f 576//2 145//2 578//2
f 576//2 578//2 577//2
f 577//1 578//1 143//1
f 145//2 144//2 578//2
f 578//1 144//1 143//1
f 516//2 514//2 579//2
f 579//2 514//2 562//2
f 579//3 562//3 580//3
f 580//3 562//3 560//3
f 580//4 560//4 581//4
f 581//4 560//4 558//4
f 581//5 558//5 582//5
f 582//5 558//5 556//5
f 582//6 556//6 583//6
f 583//6 556//6 554//6
f 583//7 554//7 584//7
f 584//7 554//7 552//7
f 584//8 552//8 585//8
f 585//8 552//8 550//8
f 585//52 550//52 586//52
f 586//52 550//52 548//52
f 586//53 548//53 587//53
f 587//53 548//53 546//53
f 587//54 546//54 588//54
f 588//54 546//54 543//54
f 588//29 543//29 541//29
f 516//2 579//2 518//2
f 518//3 579//3 589//3
f 518//3 589//3 520//3
f 520//4 589//4 590//4
f 520//4 590//4 522//4
f 522//5 590//5 591//5
f 522//5 591//5 524//5
f 524//6 591//6 525//6
f 589//3 579//3 580//3
f 589//4 580//4 592//4
f 592//4 580//4 581//4
f 592//5 581//5 593//5
f 593//5 581//5 582//5
f 593//6 582//6 594//6
f 594//6 582//6 583//6
f 594//7 583//7 595//7
f 595//7 583//7 584//7
f 595//8 584//8 596//8
f 596//8 584//8 585//8
f 596//52 585//52 597//52
f 597//52 585//52 586//52
f 597//53 586//53 598//53
f 598//53 586//53 587//53
f 598//54 587//54 599//54
f 599//54 587//54 588//54
f 599//29 588//29 600//29
f 600//29 588//29 541//29
f 600//28 541//28 539//28
f 589//4 592//4 590//4
f 590//5 592//5 601//5
f 590//5 601//5 591//5
f 591//6 601//6 602//6
f 591//6 602//6 525//6
f 525//7 602//7 526//7
f 601//5 592//5 593//5
f 601//6 593//6 603//6
f 603//6 593//6 594//6
f 603//7 594//7 604//7
f 604//7 594//7 595//7
f 604//8 595//8 605//8
f 605//8 595//8 596//8
f 605//52 596//52 606//52
f 606//52 596//52 597//52
f 606//53 597//53 607//53
f 607//53 597//53 598//53
f 607//54 598//54 608//54
f 608//54 598//54 599//54
f 608//29 599//29 609//29
f 609//29 599//29 600//29
f 609//28 600//28 610//28
f 610//28 600//28 539//28
f 610//27 539//27 537//27
f 601//6 603//6 602//6
f 602//7 603//7 611//7
f 602//7 611//7 526//7
f 526//8 611//8 527//8
f 611//7 603//7 604//7
f 611//8 604//8 612//8
f 612//8 604//8 605//8
f 612//52 605//52 613//52
f 613//52 605//52 606//52
f 613//53 606//53 614//53
f 614//53 606//53 607//53
f 614//54 607//54 615//54
f 615//54 607//54 608//54
f 615//29 608//29 616//29
f 616//29 608//29 609//29
f 616//28 609//28 617//28
f 617//28 609//28 610//28
f 617//27 610//27 618//27
f 618//27 610//27 537//27
f 618//26 537//26 535//26
f 528//52 527//52 612//52
f 612//8 527//8 611//8
f 528//52 612//52 613//52
f 529//53 528//53 613//53
f 529//53 613//53 614//53
f 530//54 529//54 614//54
f 530//54 614//54 615//54
f 531//29 530//29 615//29
f 531//29 615//29 616//29
f 532//28 531//28 616//28
f 532//28 616//28 617//28
f 533//27 532//27 617//27
f 533//27 617//27 618//27
f 534//26 533//26 618//26
f 534//26 618//26 535//26
f 81//283 515//283 3//283
f 3//283 515//283 143//283
f 619//82 620//82 512//82
f 512//82 620//82 621//82
f 512//82 621//82 622//82
f 622//83 621//83 623//83
f 622//83 623//83 624//83
f 624//84 623//84 625//84
f 624//84 625//84 626//84
f 626//85 625//85 627//85
f 626//85 627//85 628//85
f 628//86 627//86 629//86
f 628//86 629//86 167//86
f 167//71 629//71 168//71
f 168//71 629//71 630//71
f 168//70 630//70 169//70
f 169//70 630//70 631//70
f 169//67 631//67 170//67
f 170//67 631//67 632//67
f 170//66 632//66 171//66
f 171//66 632//66 633//66
f 171//65 633//65 172//65
f 172//65 633//65 634//65
f 172//64 634//64 173//64
f 173//64 634//64 635//64
f 173//63 635//63 175//63
f 175//63 635//63 636//63
f 175//62 636//62 176//62
f 176//62 636//62 637//62
f 176//61 637//61 177//61
f 177//61 637//61 638//61
f 177//60 638//60 178//60
f 178//60 638//60 639//60
f 178//59 639//59 179//59
f 179//59 639//59 640//59
f 179//59 640//59 641//59
f 641//60 640//60 642//60
f 641//60 642//60 643//60
f 643//61 642//61 644//61
f 643//284 644//284 645//284
f 645//285 644//285 646//285
f 645//62 646//62 647//62
f 647//63 646//63 648//63
f 647//63 648//63 649//63
f 649//64 648//64 650//64
f 650//64 648//64 651//64
f 650//65 651//65 652//65
f 652//65 651//65 653//65
f 652//66 653//66 654//66
f 654//66 653//66 655//66
f 654//67 655//67 656//67
f 656//67 655//67 657//67
f 656//70 657//70 658//70
f 658//70 657//70 659//70
f 658//71 659//71 660//71
f 660//71 659//71 661//71
f 660//86 661//86 662//86
f 662//86 661//86 663//86
f 662//85 663//85 664//85
f 664//85 663//85 665//85
f 664//84 665//84 666//84
f 666//84 665//84 667//84
f 666//83 667//83 619//83
f 619//83 667//83 620//83
f 649//63 668//63 647//63
f 647//62 668//62 669//62
f 647//62 669//62 645//62
f 645//61 669//61 670//61
f 645//61 670//61 643//61
f 643//60 670//60 671//60
f 643//60 671//60 641//60
f 641//59 671//59 179//59
f 668//62 672//62 669//62
f 669//61 672//61 673//61
f 669//61 673//61 670//61
f 670//60 673//60 674//60
f 670//60 674//60 671//60
f 671//59 674//59 324//59
f 671//59 324//59 179//59
f 672//61 675//61 673//61
f 673//60 675//60 676//60
f 673//60 676//60 674//60
f 674//59 676//59 324//59
f 675//60 677//60 676//60
f 676//59 677//59 324//59
f 167//86 166//86 628//86
f 628//85 166//85 678//85
f 628//85 678//85 626//85
f 626//84 678//84 679//84
f 626//84 679//84 624//84
f 624//83 679//83 680//83
f 624//83 680//83 622//83
f 622//82 680//82 512//82
f 166//85 165//85 678//85
f 678//84 165//84 681//84
f 678//84 681//84 679//84
f 679//83 681//83 682//83
f 679//83 682//83 680//83
f 680//82 682//82 161//82
f 680//82 161//82 512//82
f 165//84 164//84 681//84
f 681//83 164//83 683//83
f 681//83 683//83 682//83
f 682//82 683//82 161//82
f 164//83 163//83 683//83
f 683//82 163//82 161//82
f 621//83 620//83 684//83
f 684//83 620//83 667//83
f 684//84 667//84 685//84
f 685//84 667//84 665//84
f 685//85 665//85 686//85
f 686//85 665//85 663//85
f 686//86 663//86 687//86
f 687//86 663//86 661//86
f 687//71 661//71 688//71
f 688//71 661//71 659//71
f 688//70 659//70 689//70
f 689//70 659//70 657//70
f 689//67 657//67 690//67
f 690//67 657//67 655//67
f 690//66 655//66 691//66
f 691//66 655//66 653//66
f 691//65 653//65 692//65
f 692//65 653//65 651//65
f 692//64 651//64 693//64
f 693//64 651//64 648//64
f 693//63 648//63 646//63
f 621//83 684//83 623//83
f 623//84 684//84 694//84
f 623//84 694//84 625//84
f 625//85 694//85 695//85
f 625//85 695//85 627//85
f 627//86 695//86 696//86
f 627//86 696//86 629//86
f 629//71 696//71 630//71
f 694//84 684//84 685//84
f 694//85 685//85 697//85
f 697//85 685//85 686//85
f 697//86 686//86 698//86
f 698//86 686//86 687//86
f 698//71 687//71 699//71
f 699//71 687//71 688//71
f 699//70 688//70 700//70
f 700//70 688//70 689//70
f 700//67 689//67 701//67
f 701//67 689//67 690//67
f 701//66 690//66 702//66
f 702//66 690//66 691//66
f 702//65 691//65 703//65
f 703//65 691//65 692//65
f 703//64 692//64 704//64
f 704//64 692//64 693//64
f 704//63 693//63 705//63
f 705//63 693//63 646//63
f 705//62 646//62 644//62
f 694//85 697//85 695//85
f 695//86 697//86 706//86
f 695//86 706//86 696//86
f 696//71 706//71 707//71
f 696//71 707//71 630//71
f 630//70 707//70 631//70
f 706//86 697//86 698//86
f 706//71 698//71 708//71
f 708//71 698//71 699//71
f 708//70 699//70 709//70
f 709//70 699//70 700//70
f 709//67 700//67 710//67
f 710//67 700//67 701//67
f 710//66 701//66 711//66
f 711//66 701//66 702//66
f 711//65 702//65 712//65
f 712//65 702//65 703//65
f 712//64 703//64 713//64
f 713//64 703//64 704//64
f 713//63 704//63 714//63
f 714//63 704//63 705//63
f 714//62 705//62 715//62
f 715//62 705//62 644//62
f 715//61 644//61 642//61
f 706//71 708//71 707//71
f 707//70 708//70 716//70
f 707//70 716//70 631//70
f 631//67 716//67 632//67
f 716//70 708//70 709//70
f 716//67 709//67 717//67
f 717//67 709//67 710//67
f 717//66 710//66 718//66
f 718//66 710//66 711//66
f 718//65 711//65 719//65
f 719//65 711//65 712//65
f 719//64 712//64 720//64
f 720//64 712//64 713//64
f 720//63 713//63 721//63
f 721//63 713//63 714//63
f 721//62 714//62 722//62
f 722//62 714//62 715//62
f 722//61 715//61 723//61
f 723//61 715//61 642//61
f 723//60 642//60 640//60
f 633//66 632//66 717//66
f 717//67 632//67 716//67
f 633//66 717//66 718//66
f 634//65 633//65 718//65
f 634//65 718//65 719//65
f 635//64 634//64 719//64
f 635//64 719//64 720//64
f 636//63 635//63 720//63
f 636//63 720//63 721//63
f 637//62 636//62 721//62
f 637//62 721//62 722//62
f 638//61 637//61 722//61
f 638//61 722//61 723//61
f 639//60 638//60 723//60
f 639//60 723//60 640//60
f 174//286 181//286 724//286
f 724//287 181//287 274//287
f 724//287 274//287 330//287
f 330//288 274//288 725//288
f 330//289 725//289 329//289
f 724//289 726//289 174//289
f 331//290 333//290 330//290
f 330//290 333//290 724//290
f 333//291 334//291 724//291
f 724//291 334//291 335//291
f 724//291 335//291 726//291
f 162//292 174//292 335//292
f 335//292 174//292 726//292
f 327//292 329//292 325//292
f 325//292 329//292 725//292
f 84//291 34//291 81//291
f 81//291 34//291 126//291
f 81//291 126//291 385//291
f 385//291 126//291 383//291
f 383//291 126//291 381//291
f 381//291 126//291 379//291
f 379//291 126//291 377//291
f 377//291 126//291 375//291
f 375//291 126//291 373//291
f 373//291 126//291 371//291
f 371//291 126//291 369//291
f 369//291 126//291 367//291
f 367//291 126//291 365//291
f 365//291 126//291 363//291
f 363//291 126//291 361//291
f 361//291 126//291 359//291
f 359//291 126//291 357//291
f 357//291 126//291 355//291
f 355//291 126//291 353//291
f 353//291 126//291 351//291
f 351//291 126//291 349//291
f 349//291 126//291 347//291
f 347//291 126//291 345//291
f 345//291 126//291 343//291
f 343//291 126//291 342//291
f 342//291 126//291 444//291
f 444//291 126//291 446//291
f 84//291 82//291 34//291
f 34//291 82//291 78//291
f 34//291 78//291 74//291
f 74//291 13//291 34//291
f 34//291 13//291 14//291
f 34//291 14//291 16//291
f 16//291 18//291 34//291
f 34//291 18//291 20//291
f 34//291 20//291 22//291
f 22//291 24//291 34//291
f 34//291 24//291 26//291
f 34//291 26//291 28//291
f 28//291 30//291 34//291
f 34//291 30//291 32//291
f 81//291 385//291 332//291
f 332//291 385//291 387//291
f 332//291 387//291 389//291
f 389//291 391//291 332//291
f 332//291 391//291 393//291
f 332//291 393//291 395//291
f 395//291 397//291 332//291
f 332//291 397//291 399//291
f 332//291 399//291 401//291
f 401//291 403//291 332//291
f 332//291 403//291 405//291
f 326//291 570//291 332//291
f 332//291 570//291 567//291
f 332//291 567//291 563//291
f 325//291 725//291 326//291
f 326//291 725//291 274//291
f 326//291 274//291 277//291
f 277//291 275//291 326//291
f 326//291 275//291 271//291
f 326//291 271//291 267//291
f 267//291 248//291 326//291
f 326//291 248//291 249//291
f 326//291 249//291 251//291
f 251//291 253//291 326//291
f 326//291 253//291 255//291
f 326//291 255//291 257//291
f 257//291 259//291 326//291
f 326//291 259//291 261//291
f 326//291 261//291 263//291
f 263//291 265//291 326//291
f 326//291 265//291 217//291
f 326//291 217//291 324//291
f 324//291 217//291 219//291
f 324//291 677//291 326//291
f 326//291 677//291 675//291
f 326//291 675//291 672//291
f 672//291 668//291 326//291
f 326//291 668//291 649//291
f 326//291 649//291 650//291
f 650//291 652//291 326//291
f 326//291 652//291 654//291
f 326//291 654//291 656//291
f 656//291 658//291 326//291
f 326//291 658//291 660//291
f 326//291 660//291 662//291
f 662//291 664//291 326//291
f 326//291 664//291 666//291
f 326//291 666//291 619//291
f 619//291 512//291 326//291
f 326//291 512//291 511//291
f 326//291 511//291 572//291
f 572//291 570//291 326//291
f 563//291 544//291 332//291
f 332//291 544//291 545//291
f 332//291 545//291 547//291
f 547//291 549//291 332//291
f 332//291 549//291 551//291
f 332//291 551//291 553//291
f 553//291 555//291 332//291
f 332//291 555//291 557//291
f 332//291 557//291 559//291
f 559//291 561//291 332//291
f 332//291 561//291 513//291
f 332//291 513//291 515//291
f 515//291 81//291 332//291
#1448 polygons

